<svg width="314" height="112" viewBox="0 0 314 112" fill="none" xmlns="http://www.w3.org/2000/svg">
<g clip-path="url(#clip0)">
<path d="M191.514 85.7223L218.167 85.7223C218.426 85.7223 218.685 85.981 218.685 86.2398C218.685 86.4986 218.426 86.7574 218.167 86.7574L191.514 86.7574C191.255 86.7574 190.996 86.4986 190.996 86.2398C190.996 85.981 191.255 85.7223 191.514 85.7223Z" fill="#B8814A"/>
<path d="M220.411 83.4795C221.963 83.4795 223.171 84.6871 223.171 86.2398C223.171 87.7924 221.963 89 220.411 89C218.858 89 217.65 87.7924 217.65 86.2398C217.65 84.6871 218.944 83.4795 220.411 83.4795ZM220.411 87.9649C221.36 87.9649 222.136 87.1886 222.136 86.2398C222.136 85.2909 221.36 84.5146 220.411 84.5146C219.462 84.5146 218.686 85.2909 218.686 86.2398C218.686 87.1886 219.462 87.9649 220.411 87.9649Z" fill="#B8814A"/>
<path d="M189.358 83.4795C190.91 83.4795 192.118 84.6871 192.118 86.2397C192.118 87.7924 190.91 89 189.358 89C187.805 89 186.597 87.7924 186.597 86.2397C186.597 84.6871 187.805 83.4795 189.358 83.4795ZM189.358 87.9649C190.306 87.9649 191.083 87.1886 191.083 86.2397C191.083 85.2909 190.306 84.5146 189.358 84.5146C188.409 84.5146 187.632 85.2909 187.632 86.2397C187.632 87.1886 188.409 87.9649 189.358 87.9649Z" fill="#B8814A"/>
<path d="M207.644 87.9648C207.817 87.9648 207.903 88.051 207.99 88.1373C208.076 88.2235 208.162 88.396 208.162 88.4823C208.162 88.6548 208.076 88.7411 207.99 88.8273C207.903 88.9136 207.903 88.9136 207.817 88.9136C207.731 88.9998 207.558 88.9998 207.386 88.9136C207.299 88.9136 207.299 88.8273 207.213 88.8273C207.127 88.7411 207.041 88.5685 207.041 88.4823C207.041 88.3098 207.127 88.2235 207.213 88.1373C207.386 88.051 207.558 87.9648 207.644 87.9648Z" fill="#B8814A"/>
<path d="M205.401 88.4824C205.401 88.7412 205.143 88.9999 204.884 88.9999C204.625 88.9999 204.366 88.7412 204.366 88.4824C204.366 88.2236 204.625 87.9649 204.884 87.9649C205.143 87.9649 205.401 88.2236 205.401 88.4824Z" fill="#B8814A"/>
<path d="M202.038 87.9649C202.21 87.9649 202.296 88.0511 202.383 88.1374C202.469 88.2236 202.555 88.3962 202.555 88.4824C202.555 88.5687 202.555 88.6549 202.555 88.6549C202.555 88.7412 202.469 88.7412 202.469 88.8274C202.469 88.9137 202.383 88.9137 202.296 88.9137C202.21 89 202.038 89 201.865 88.9137C201.779 88.9137 201.779 88.8274 201.693 88.8274C201.606 88.7412 201.606 88.7412 201.606 88.6549C201.606 88.5687 201.606 88.4824 201.606 88.4824C201.606 88.3099 201.693 88.2236 201.779 88.1374C201.779 88.0511 201.951 87.9649 202.038 87.9649Z" fill="#B8814A"/>
<path d="M207.644 83.4805C207.817 83.4805 207.903 83.5667 207.989 83.653C207.989 83.7392 208.076 83.7392 208.076 83.8255C208.076 83.9118 208.076 83.998 208.076 83.998C208.076 84.0843 207.989 84.2568 207.903 84.343C207.817 84.4293 207.817 84.4293 207.731 84.4293C207.558 84.5156 207.299 84.4293 207.127 84.343C207.041 84.2568 206.954 84.0843 206.954 83.998C206.954 83.9118 206.954 83.8255 206.954 83.8255C206.954 83.7392 207.041 83.7392 207.041 83.653C207.386 83.5667 207.558 83.4805 207.644 83.4805Z" fill="#B8814A"/>
<path d="M205.401 83.9971C205.401 84.2558 205.143 84.5146 204.884 84.5146C204.625 84.5146 204.366 84.2558 204.366 83.9971C204.366 83.7383 204.625 83.4795 204.884 83.4795C205.143 83.4795 205.401 83.7383 205.401 83.9971Z" fill="#B8814A"/>
<path d="M202.038 83.4795C202.21 83.4795 202.296 83.5657 202.383 83.652C202.469 83.7383 202.555 83.9108 202.555 83.997C202.555 84.0833 202.555 84.0833 202.555 84.1695C202.555 84.2558 202.469 84.2558 202.469 84.3421C202.469 84.4283 202.383 84.4283 202.296 84.4283C202.21 84.5146 202.038 84.5146 201.865 84.4283C201.779 84.4283 201.779 84.3421 201.693 84.3421C201.606 84.3421 201.606 84.2558 201.606 84.1695C201.606 84.0833 201.606 84.0833 201.606 83.997C201.606 83.8245 201.693 83.7383 201.779 83.652C201.779 83.5657 201.951 83.4795 202.038 83.4795Z" fill="#B8814A"/>
<path d="M96.286 85.7223L122.939 85.7223C123.198 85.7223 123.457 85.981 123.457 86.2398C123.457 86.4986 123.198 86.7574 122.939 86.7574L96.286 86.7574C96.0272 86.7574 95.7685 86.4986 95.7685 86.2398C95.7685 85.981 96.0272 85.7223 96.286 85.7223Z" fill="#B8814A"/>
<path d="M94.1298 83.4795C95.6824 83.4795 96.89 84.6871 96.89 86.2397C96.89 87.7924 95.6824 89 94.1298 89C92.5772 89 91.3696 87.7924 91.3696 86.2397C91.3696 84.6871 92.5772 83.4795 94.1298 83.4795ZM94.1298 87.9649C95.0786 87.9649 95.8549 87.1886 95.8549 86.2397C95.8549 85.2909 95.0786 84.5146 94.1298 84.5146C93.181 84.5146 92.4047 85.2909 92.4047 86.2397C92.4047 87.1886 93.181 87.9649 94.1298 87.9649Z" fill="#B8814A"/>
<path d="M125.183 83.4795C126.735 83.4795 127.943 84.6871 127.943 86.2398C127.943 87.7924 126.735 89 125.183 89C123.63 89 122.422 87.7924 122.422 86.2398C122.422 84.6871 123.716 83.4795 125.183 83.4795ZM125.183 87.9649C126.131 87.9649 126.908 87.1886 126.908 86.2398C126.908 85.2909 126.131 84.5146 125.183 84.5146C124.234 84.5146 123.457 85.2909 123.457 86.2398C123.457 87.1886 124.234 87.9649 125.183 87.9649Z" fill="#B8814A"/>
<path d="M106.81 87.9649C106.896 87.9649 106.982 87.9649 106.982 87.9649C107.069 87.9649 107.069 88.0511 107.155 88.0511C107.241 88.1374 107.328 88.3099 107.328 88.3961C107.328 88.5687 107.241 88.6549 107.155 88.7412C106.983 88.9137 106.637 88.9137 106.379 88.7412C106.292 88.6549 106.292 88.6549 106.292 88.5687C106.292 88.4824 106.292 88.3961 106.292 88.3961C106.292 88.3099 106.292 88.2236 106.292 88.2236C106.292 88.1374 106.379 88.1374 106.379 88.0511C106.551 88.0511 106.724 87.9649 106.81 87.9649Z" fill="#B8814A"/>
<path d="M110.174 88.4824C110.174 88.7412 109.915 88.9999 109.656 88.9999C109.398 88.9999 109.139 88.7412 109.139 88.4824C109.139 88.2236 109.398 87.9649 109.656 87.9649C109.915 87.9649 110.174 88.2236 110.174 88.4824Z" fill="#B8814A"/>
<path d="M112.417 87.9647C112.589 87.9647 112.675 88.051 112.762 88.1372C112.848 88.2235 112.934 88.396 112.934 88.4823C112.934 88.6548 112.848 88.741 112.762 88.8273C112.762 88.9135 112.675 88.9135 112.589 88.9135C112.417 88.9998 112.33 88.9998 112.158 88.9135C112.072 88.9135 112.072 88.8273 111.985 88.8273C111.899 88.741 111.899 88.741 111.899 88.6548C111.899 88.5685 111.899 88.4823 111.899 88.4823C111.899 88.3097 111.985 88.2235 112.072 88.1372C112.158 88.051 112.33 87.9647 112.417 87.9647Z" fill="#B8814A"/>
<path d="M106.81 83.4796C106.982 83.4796 107.069 83.5658 107.155 83.6521C107.241 83.7384 107.328 83.9109 107.328 83.9971C107.328 84.1696 107.241 84.2559 107.155 84.3422C106.983 84.5147 106.637 84.5147 106.379 84.3422C106.292 84.2559 106.206 84.0834 106.206 83.9971C106.206 83.8246 106.292 83.7384 106.379 83.6521C106.551 83.5658 106.724 83.4796 106.81 83.4796Z" fill="#B8814A"/>
<path d="M110.174 83.9971C110.174 84.2558 109.915 84.5146 109.656 84.5146C109.398 84.5146 109.139 84.2558 109.139 83.9971C109.139 83.7383 109.398 83.4795 109.656 83.4795C109.915 83.4795 110.174 83.7383 110.174 83.9971Z" fill="#B8814A"/>
<path d="M112.417 83.4805C112.589 83.4805 112.675 83.5667 112.762 83.653C112.848 83.7392 112.934 83.9118 112.934 83.998C112.934 84.1705 112.848 84.2568 112.762 84.343C112.762 84.4293 112.675 84.4293 112.589 84.4293C112.417 84.5156 112.158 84.4293 111.985 84.343C111.899 84.2568 111.813 84.0843 111.813 83.998C111.813 83.8255 111.899 83.7392 111.985 83.653C112.158 83.5667 112.33 83.4805 112.417 83.4805Z" fill="#B8814A"/>
<path d="M311.239 26.9811C311.498 26.9811 311.757 27.2398 311.757 27.4986L311.757 43.715C311.757 43.9737 311.498 44.2325 311.239 44.2325C310.98 44.2325 310.722 43.9737 310.722 43.715L310.722 27.4986C310.722 27.2398 310.98 26.9811 311.239 26.9811Z" fill="#B8814A"/>
<path d="M311.239 22.582C311.325 22.582 311.412 22.582 311.412 22.582C311.498 22.582 311.498 22.6682 311.584 22.6682C311.67 22.7545 311.757 22.927 311.757 23.0133C311.757 23.0995 311.757 23.1858 311.67 23.1858C311.67 23.272 311.584 23.272 311.584 23.3583C311.412 23.5308 311.067 23.5308 310.894 23.3583C310.808 23.272 310.722 23.0995 310.722 23.0133C310.722 22.8407 310.808 22.7545 310.894 22.6682C310.98 22.582 310.98 22.582 311.067 22.582C311.153 22.582 311.239 22.582 311.239 22.582Z" fill="#B8814A"/>
<path d="M311.757 14.7326C311.757 14.9914 311.498 15.2502 311.239 15.2502C310.981 15.2502 310.722 14.9914 310.722 14.7326C310.722 14.4738 310.981 14.2151 311.239 14.2151C311.584 14.2151 311.757 14.3876 311.757 14.7326ZM311.757 17.4928C311.757 17.7516 311.498 18.0104 311.239 18.0104C310.981 18.0104 310.722 17.7516 310.722 17.4928C310.722 17.2341 310.981 16.9753 311.239 16.9753C311.584 16.9753 311.757 17.2341 311.757 17.4928ZM311.757 20.3393C311.757 20.5981 311.498 20.8569 311.239 20.8569C310.981 20.8569 310.722 20.5981 310.722 20.3393C310.722 20.0806 310.981 19.8218 311.239 19.8218C311.584 19.8218 311.757 19.9943 311.757 20.3393Z" fill="#B8814A"/>
<path d="M311.239 11.3686C311.326 11.3686 311.412 11.3686 311.412 11.3686C311.498 11.3686 311.498 11.4548 311.584 11.4548C311.671 11.5411 311.671 11.5411 311.671 11.6274C311.671 11.7136 311.757 11.7999 311.757 11.7999C311.757 11.8861 311.757 11.9724 311.671 11.9724C311.671 12.0586 311.584 12.0586 311.584 12.1449C311.412 12.3174 311.067 12.3174 310.894 12.1449C310.894 12.1449 310.808 12.0586 310.808 11.9724C310.808 11.8861 310.808 11.7999 310.808 11.7999C310.808 11.7136 310.808 11.6274 310.808 11.6274C310.808 11.5411 310.894 11.5411 310.894 11.4548C310.981 11.3686 310.981 11.3686 311.067 11.3686C311.153 11.3686 311.239 11.3686 311.239 11.3686Z" fill="#B8814A"/>
<path d="M308.996 19.8218C309.169 19.8218 309.255 19.908 309.341 19.9943C309.427 20.0806 309.514 20.2531 309.514 20.3393C309.514 20.4256 309.514 20.5118 309.514 20.5118C309.514 20.5981 309.427 20.5981 309.427 20.6844C309.255 20.8569 309.082 20.8569 308.824 20.7706C308.737 20.7706 308.737 20.6844 308.651 20.6844C308.565 20.5981 308.479 20.4256 308.479 20.3393C308.479 20.1668 308.565 20.0806 308.651 19.9943C308.737 19.8218 308.91 19.8218 308.996 19.8218Z" fill="#757575"/>
<path d="M309.514 17.4928C309.514 17.7516 309.255 18.0104 308.996 18.0104C308.737 18.0104 308.479 17.7516 308.479 17.4928C308.479 17.234 308.737 16.9753 308.996 16.9753C309.341 16.9753 309.514 17.234 309.514 17.4928Z" fill="#757575"/>
<path d="M308.996 14.215C309.082 14.215 309.168 14.215 309.168 14.3013C309.255 14.3013 309.255 14.3876 309.341 14.3876C309.341 14.3876 309.427 14.4738 309.427 14.5601C309.427 14.6463 309.427 14.7326 309.427 14.7326C309.427 14.9051 309.341 14.9913 309.255 15.0776C309.168 15.1639 309.168 15.1639 309.082 15.1639C308.91 15.2501 308.651 15.1639 308.565 15.0776C308.478 14.9913 308.392 14.8188 308.392 14.7326C308.392 14.5601 308.478 14.4738 308.565 14.3876C308.737 14.215 308.91 14.215 308.996 14.215Z" fill="#757575"/>
<path d="M313.482 19.8218C313.655 19.8218 313.741 19.908 313.827 19.9943C313.827 20.0806 313.914 20.0806 313.914 20.1668C313.914 20.2531 313.914 20.3393 313.914 20.3393C313.914 20.4256 313.914 20.5118 313.914 20.5118C313.914 20.5981 313.827 20.5981 313.827 20.6844C313.655 20.8569 313.482 20.8569 313.224 20.7706C313.137 20.7706 313.137 20.6844 313.051 20.6844C312.965 20.5981 312.965 20.5981 312.965 20.5118C312.965 20.4256 312.965 20.3393 312.965 20.3393C312.965 20.2531 312.965 20.1668 312.965 20.1668C312.965 20.0806 313.051 20.0806 313.051 19.9943C313.224 19.8218 313.396 19.8218 313.482 19.8218Z" fill="#757575"/>
<path d="M314 17.4928C314 17.7516 313.741 18.0104 313.482 18.0104C313.223 18.0104 312.964 17.7516 312.964 17.4928C312.964 17.234 313.223 16.9753 313.482 16.9753C313.827 16.9753 314 17.234 314 17.4928Z" fill="#757575"/>
<path d="M313.482 14.215C313.654 14.215 313.741 14.3013 313.827 14.3876C313.827 14.3876 313.913 14.4738 313.913 14.5601C313.913 14.6463 313.913 14.7326 313.913 14.7326C313.913 14.9051 313.827 14.9913 313.741 15.0776C313.654 15.1639 313.654 15.1639 313.568 15.1639C313.396 15.2501 313.309 15.2501 313.137 15.1639C313.051 15.1639 313.051 15.0776 312.964 15.0776C312.878 14.9913 312.792 14.8188 312.792 14.7326C312.792 14.5601 312.878 14.4738 312.964 14.3876C313.223 14.215 313.396 14.215 313.482 14.215Z" fill="#757575"/>
<path d="M252.498 85.7222L268.801 85.7222C269.059 85.7222 269.318 85.981 269.318 86.2398C269.318 86.4986 269.059 86.7573 268.801 86.7573L252.584 86.7573C252.326 86.7573 252.067 86.4986 252.067 86.2398C251.98 85.981 252.239 85.7222 252.498 85.7222Z" fill="#B8814A"/>
<path d="M248.099 85.7231C248.185 85.7231 248.272 85.7231 248.272 85.8093C248.358 85.8093 248.358 85.8956 248.444 85.8956C248.531 85.9818 248.617 86.1544 248.617 86.2406C248.617 86.3269 248.617 86.4131 248.617 86.4131C248.617 86.4994 248.531 86.4994 248.531 86.5856C248.358 86.7582 248.013 86.7582 247.754 86.5856C247.668 86.4994 247.582 86.3269 247.582 86.2406C247.582 86.0681 247.668 85.9818 247.754 85.8956C247.84 85.8093 248.013 85.7231 248.099 85.7231Z" fill="#B8814A"/>
<path d="M240.25 86.2398C240.25 86.4986 239.991 86.7574 239.732 86.7574C239.473 86.7574 239.215 86.4986 239.215 86.2398C239.215 85.981 239.473 85.7223 239.732 85.7223C240.077 85.7223 240.25 85.981 240.25 86.2398ZM243.096 86.2398C243.096 86.4986 242.837 86.7574 242.579 86.7574C242.32 86.7574 242.061 86.4986 242.061 86.2398C242.061 85.981 242.32 85.7223 242.579 85.7223C242.837 85.7223 243.096 85.981 243.096 86.2398ZM245.856 86.2398C245.856 86.4986 245.598 86.7574 245.339 86.7574C245.08 86.7574 244.821 86.4986 244.821 86.2398C244.821 85.981 245.08 85.7223 245.339 85.7223C245.598 85.7223 245.856 85.981 245.856 86.2398Z" fill="#B8814A"/>
<path d="M236.972 85.7222C237.058 85.7222 237.145 85.7222 237.145 85.8085C237.231 85.8085 237.231 85.8947 237.317 85.8947C237.403 85.981 237.49 86.1535 237.49 86.2398C237.49 86.326 237.49 86.4123 237.49 86.4123C237.49 86.4985 237.403 86.4985 237.403 86.5848C237.317 86.5848 237.317 86.6711 237.231 86.6711C237.145 86.7573 236.972 86.7573 236.8 86.6711C236.713 86.6711 236.713 86.5848 236.627 86.5848C236.541 86.4985 236.454 86.326 236.454 86.2398C236.454 86.0673 236.541 85.981 236.627 85.8947C236.713 85.8085 236.8 85.7222 236.972 85.7222Z" fill="#B8814A"/>
<path d="M245.339 87.9658C245.511 87.9658 245.597 88.052 245.684 88.1383C245.77 88.2245 245.856 88.397 245.856 88.4833C245.856 88.6558 245.77 88.7421 245.684 88.8283C245.511 89.0008 245.166 89.0008 244.994 88.8283C244.907 88.7421 244.821 88.5696 244.821 88.4833C244.821 88.3108 244.907 88.2245 244.994 88.1383C245.08 88.052 245.166 87.9658 245.339 87.9658Z" fill="#757575"/>
<path d="M243.096 88.4824C243.096 88.7412 242.837 89 242.578 89C242.319 89 242.061 88.7412 242.061 88.4824C242.061 88.2237 242.319 87.9649 242.578 87.9649C242.837 87.9649 243.096 88.2237 243.096 88.4824Z" fill="#757575"/>
<path d="M239.732 87.9649C239.818 87.9649 239.905 87.9649 239.905 87.9649C239.991 87.9649 239.991 88.0512 240.077 88.0512C240.164 88.1374 240.25 88.31 240.25 88.3962C240.25 88.5687 240.164 88.655 240.077 88.7412C239.991 88.8275 239.991 88.8275 239.905 88.8275C239.732 88.9138 239.473 88.8275 239.301 88.7412C239.215 88.655 239.128 88.4825 239.128 88.3962C239.128 88.2237 239.215 88.1374 239.301 88.0512C239.473 88.0512 239.646 87.9649 239.732 87.9649Z" fill="#757575"/>
<path d="M245.339 83.4805C245.511 83.4805 245.597 83.5668 245.684 83.653C245.684 83.7393 245.77 83.7393 245.77 83.8255C245.77 83.9118 245.77 83.9981 245.77 83.9981C245.77 84.0843 245.77 84.0843 245.77 84.1706C245.77 84.2568 245.684 84.2568 245.684 84.3431C245.597 84.4293 245.597 84.4293 245.511 84.4293C245.339 84.5156 245.08 84.4293 244.994 84.3431C244.907 84.3431 244.907 84.2568 244.907 84.1706C244.907 84.0843 244.907 84.0843 244.907 83.9981C244.907 83.8255 244.994 83.7393 245.08 83.653C245.08 83.5668 245.166 83.4805 245.339 83.4805Z" fill="#757575"/>
<path d="M243.096 83.9971C243.096 84.2559 242.837 84.5147 242.578 84.5147C242.319 84.5147 242.061 84.2559 242.061 83.9971C242.061 83.7383 242.319 83.4796 242.578 83.4796C242.837 83.4796 243.096 83.7383 243.096 83.9971Z" fill="#757575"/>
<path d="M239.732 83.4796C239.905 83.4796 239.991 83.5658 240.077 83.6521C240.164 83.7384 240.25 83.9109 240.25 83.9971C240.25 84.0834 240.25 84.0834 240.164 84.1696C240.164 84.2559 240.077 84.2559 240.077 84.3422C239.905 84.5147 239.732 84.5147 239.56 84.4284C239.473 84.4284 239.474 84.3422 239.387 84.3422C239.387 84.3422 239.301 84.2559 239.301 84.1696C239.301 84.0834 239.301 84.0834 239.301 83.9971C239.301 83.9109 239.301 83.8246 239.301 83.8246C239.301 83.7384 239.387 83.7384 239.387 83.6521C239.474 83.5658 239.646 83.4796 239.732 83.4796Z" fill="#757575"/>
<path d="M311.239 40.696C311.412 40.696 311.498 40.7822 311.584 40.8685C311.671 40.9547 311.671 40.9547 311.671 41.041C311.671 41.1273 311.757 41.2135 311.757 41.2135C311.757 41.2998 311.757 41.386 311.671 41.386C311.671 41.4723 311.584 41.4723 311.584 41.5585C311.584 41.5585 311.498 41.6448 311.412 41.6448C311.239 41.7311 310.981 41.6448 310.808 41.5585C310.808 41.4723 310.722 41.4723 310.722 41.386C310.722 41.2998 310.722 41.2998 310.722 41.2135C310.722 41.1273 310.722 41.041 310.722 41.041C310.722 40.9547 310.808 40.9547 310.808 40.8685C310.894 40.7822 310.894 40.7822 310.981 40.7822C311.153 40.7822 311.239 40.696 311.239 40.696Z" fill="#B8814A"/>
<path d="M308.996 41.2997C308.996 41.5585 308.824 41.8173 308.479 41.8173C308.22 41.8173 307.961 41.6448 307.961 41.2997C307.961 41.041 308.134 40.7822 308.479 40.7822C308.738 40.7822 308.91 41.041 308.996 41.2997ZM306.15 41.5585C306.15 41.8173 305.977 42.0761 305.719 42.1623C305.46 42.1623 305.201 41.9898 305.115 41.731C305.115 41.4723 305.287 41.2135 305.546 41.1272C305.546 41.1272 305.546 41.1272 305.632 41.1272C305.891 41.041 306.15 41.2997 306.15 41.5585ZM303.39 41.9035C303.476 42.1623 303.217 42.4211 302.958 42.5073C302.7 42.5936 302.441 42.4211 302.355 42.0761C302.268 41.8173 302.441 41.5585 302.786 41.4723L302.872 41.4723C303.131 41.5585 303.303 41.731 303.39 41.9035ZM300.629 42.5073C300.716 42.7661 300.543 43.1111 300.284 43.1111C300.026 43.1974 299.681 43.0249 299.681 42.7661C299.594 42.5073 299.767 42.1623 300.026 42.1623C300.112 42.1623 300.112 42.1623 300.198 42.1623C300.284 42.1623 300.543 42.2486 300.629 42.5073ZM297.869 43.2837C297.955 43.5424 297.783 43.8012 297.524 43.9737C297.265 44.06 296.92 43.8875 296.834 43.6287C296.748 43.3699 296.92 43.0249 297.179 42.9386C297.265 42.9386 297.265 42.9386 297.352 42.9386C297.61 42.9386 297.783 43.0249 297.869 43.2837ZM295.195 44.2325C295.282 44.4913 295.195 44.8363 294.936 44.9225C294.678 45.0088 294.333 44.9225 294.246 44.6638C294.16 44.405 294.246 44.06 294.505 43.9737C294.591 43.9737 294.678 43.9737 294.678 43.9737C294.936 43.8875 295.109 43.9737 295.195 44.2325ZM292.608 45.2676C292.694 45.5263 292.608 45.8714 292.349 45.9576C292.09 46.0439 291.745 45.9576 291.659 45.6989C291.572 45.4401 291.659 45.0951 291.917 45.0088C292.004 45.0088 292.09 45.0088 292.176 45.0088C292.349 45.0088 292.521 45.0951 292.608 45.2676ZM290.02 46.5614C290.192 46.8202 290.106 47.079 289.847 47.2515C289.589 47.424 289.244 47.3377 289.157 47.079C289.071 46.8202 289.157 46.5614 289.33 46.3889C289.416 46.3889 289.502 46.3027 289.589 46.3027C289.761 46.3027 289.934 46.3889 290.02 46.5614ZM287.605 47.9415C287.777 48.2003 287.691 48.5453 287.432 48.6316C287.173 48.8041 286.915 48.7179 286.742 48.4591C286.57 48.2003 286.656 47.8553 286.915 47.769C287.001 47.6828 287.087 47.6828 287.173 47.6828C287.346 47.769 287.518 47.769 287.605 47.9415ZM285.276 49.4942C285.448 49.7529 285.362 50.0117 285.189 50.1842C284.931 50.3567 284.586 50.2705 284.499 50.098C284.327 49.8392 284.413 49.5804 284.586 49.4079C284.672 49.3217 284.758 49.3217 284.844 49.3217C285.017 49.3217 285.189 49.4079 285.276 49.4942ZM283.033 51.2193C283.205 51.3918 283.206 51.7369 282.947 51.9094C282.688 52.0819 282.429 52.0819 282.17 51.8231C281.998 51.6506 281.998 51.3056 282.257 51.1331C282.343 51.0468 282.429 51.0468 282.602 51.0468C282.774 51.0468 282.86 51.1331 283.033 51.2193ZM280.877 53.117C281.049 53.2895 281.049 53.6345 280.877 53.807C280.704 53.9795 280.359 53.9795 280.186 53.807C280.014 53.6345 280.014 53.2895 280.186 53.117C280.273 53.0307 280.445 52.9445 280.532 52.9445C280.618 52.9445 280.79 52.9445 280.877 53.117ZM278.806 55.1009C278.979 55.2734 279.065 55.6184 278.806 55.7909C278.634 55.9635 278.289 56.0497 278.116 55.7909C277.944 55.6184 277.944 55.2734 278.116 55.1009C278.203 55.0146 278.375 54.9284 278.461 54.9284C278.634 54.9284 278.72 54.9284 278.806 55.1009ZM276.909 57.1711C277.081 57.3436 277.167 57.6886 276.995 57.8611C276.822 58.1199 276.477 58.1199 276.305 57.9474C276.132 57.7749 276.046 57.4298 276.219 57.1711C276.305 57.0848 276.477 56.9985 276.65 56.9985C276.736 56.9985 276.822 57.0848 276.909 57.1711ZM275.184 59.3275C275.442 59.5 275.442 59.845 275.27 60.0176C275.097 60.2763 274.752 60.2763 274.58 60.1038C274.321 59.9313 274.321 59.5863 274.494 59.4138C274.58 59.2412 274.752 59.2412 274.925 59.2412C275.011 59.2412 275.097 59.3275 275.184 59.3275ZM273.545 61.6564C273.803 61.829 273.89 62.0877 273.717 62.3465C273.545 62.6053 273.2 62.6915 273.027 62.519C272.768 62.3465 272.682 62.0877 272.855 61.8289C272.941 61.6564 273.113 61.5702 273.286 61.5702C273.372 61.5702 273.458 61.6564 273.545 61.6564ZM272.078 64.0716C272.337 64.2442 272.423 64.5029 272.251 64.7617C272.078 65.0205 271.82 65.1067 271.561 64.9342C271.302 64.7617 271.216 64.5029 271.388 64.2442C271.475 64.0716 271.647 63.9854 271.82 63.9854C271.906 63.9854 271.992 64.0716 272.078 64.0716ZM270.784 66.5731C271.043 66.6594 271.129 67.0044 271.043 67.2632C270.957 67.5219 270.612 67.6082 270.353 67.5219C270.094 67.4357 270.008 67.0906 270.094 66.8319C270.181 66.6594 270.353 66.5731 270.612 66.5731C270.612 66.5731 270.698 66.5731 270.784 66.5731ZM269.663 69.1608C269.922 69.2471 270.094 69.5921 269.922 69.8509C269.836 70.1096 269.491 70.2822 269.232 70.1096C268.973 70.0234 268.801 69.6784 268.973 69.4196C269.059 69.2471 269.232 69.0746 269.491 69.0746C269.491 69.1608 269.577 69.1608 269.663 69.1608ZM268.628 71.8348C268.887 71.921 269.059 72.1798 268.973 72.5248C268.887 72.7836 268.628 72.9561 268.283 72.8699C268.024 72.7836 267.852 72.5248 267.938 72.1798C268.024 71.921 268.197 71.8348 268.456 71.8348C268.542 71.7485 268.628 71.7485 268.628 71.8348ZM267.852 74.5088C268.11 74.595 268.283 74.8538 268.197 75.1126C268.11 75.3713 267.852 75.5438 267.593 75.4576C267.334 75.3713 267.162 75.1126 267.248 74.8538C267.334 74.595 267.507 74.4225 267.765 74.4225C267.765 74.5088 267.765 74.5088 267.852 74.5088ZM267.162 77.269C267.42 77.3552 267.593 77.614 267.593 77.8728C267.507 78.1316 267.248 78.3041 266.989 78.3041C266.73 78.2178 266.558 77.959 266.558 77.7003C266.644 77.4415 266.817 77.269 267.075 77.269L267.162 77.269ZM266.73 80.0292C266.989 80.0292 267.248 80.288 267.162 80.633C267.162 80.8918 266.903 81.1506 266.558 81.0643C266.299 81.0643 266.04 80.8055 266.127 80.4605C266.127 80.2017 266.385 80.0292 266.73 80.0292C266.644 80.0292 266.644 80.0292 266.73 80.0292ZM266.385 82.8757C266.644 82.8757 266.903 83.1345 266.903 83.3932C266.903 83.652 266.644 83.9108 266.385 83.9108C266.127 83.9108 265.868 83.652 265.868 83.3932C265.868 83.0482 266.127 82.8757 266.385 82.8757Z" fill="#B8814A"/>
<path d="M266.299 85.7222C266.472 85.7222 266.558 85.8085 266.644 85.8947C266.73 85.981 266.817 86.1535 266.817 86.2397C266.817 86.326 266.817 86.4123 266.817 86.4123C266.817 86.4985 266.73 86.4985 266.73 86.5848C266.558 86.7573 266.213 86.7573 266.04 86.5848C265.954 86.4985 265.954 86.4985 265.954 86.4123C265.954 86.326 265.954 86.326 265.954 86.2397C265.954 86.0672 266.04 85.981 266.127 85.8947C266.04 85.8085 266.127 85.7222 266.299 85.7222Z" fill="#B8814A"/>
<path d="M269.318 79.253C269.491 79.253 269.577 79.3393 269.663 79.4255C269.75 79.5118 269.836 79.6843 269.836 79.7705C269.836 79.8568 269.836 79.9431 269.75 79.9431C269.75 80.0293 269.663 80.0293 269.663 80.1156C269.491 80.2881 269.318 80.2881 269.146 80.2018C269.06 80.2018 269.06 80.1156 268.973 80.1156C268.973 80.1156 268.887 80.0293 268.887 79.9431C268.887 79.8568 268.887 79.8568 268.887 79.7705C268.887 79.598 268.973 79.5118 269.06 79.4255C269.06 79.3393 269.232 79.253 269.318 79.253Z" fill="#757575"/>
<path d="M306.15 47.079C306.15 47.3378 305.978 47.5966 305.719 47.6828C305.46 47.6828 305.201 47.5103 305.115 47.2515C305.115 46.9928 305.287 46.734 305.546 46.6477L305.633 46.6477C305.891 46.5615 306.15 46.8202 306.15 47.079ZM306.323 49.9255C306.323 50.1843 306.064 50.4431 305.805 50.4431C305.546 50.4431 305.287 50.1843 305.287 49.9255C305.287 49.6667 305.546 49.408 305.805 49.408C306.15 49.408 306.323 49.6667 306.323 49.9255ZM305.719 52.2544C305.978 52.2544 306.236 52.5132 306.15 52.8582C306.15 53.117 305.891 53.3758 305.633 53.2895C305.374 53.2895 305.115 53.0308 305.201 52.6857C305.201 52.5132 305.46 52.2544 305.719 52.2544ZM305.46 55.1009C305.719 55.1009 305.891 55.446 305.891 55.7047C305.805 55.9635 305.546 56.136 305.287 56.136C305.029 56.0498 304.856 55.791 304.856 55.5322C304.856 55.2735 305.115 55.1009 305.374 55.1009C305.374 55.1009 305.374 55.1009 305.46 55.1009ZM304.856 57.8612C305.115 57.9474 305.287 58.2062 305.201 58.465C305.115 58.7237 304.856 58.8963 304.597 58.81C304.339 58.7237 304.166 58.465 304.252 58.2062C304.339 57.9474 304.511 57.8612 304.77 57.8612C304.77 57.8612 304.77 57.8612 304.856 57.8612ZM303.994 60.6214C304.252 60.7077 304.425 61.0527 304.252 61.3115C304.166 61.5702 303.821 61.7427 303.562 61.6565C303.304 61.5702 303.131 61.2252 303.304 60.9664C303.39 60.7939 303.562 60.6214 303.821 60.6214C303.907 60.5351 303.907 60.6214 303.994 60.6214ZM302.872 63.2091C303.131 63.2954 303.217 63.6404 303.131 63.8992C303.045 64.1579 302.7 64.2442 302.441 64.1579C302.182 64.0717 302.096 63.7267 302.182 63.4679C302.268 63.2954 302.441 63.2091 302.614 63.2091C302.786 63.2091 302.872 63.2091 302.872 63.2091ZM301.578 65.7106C301.837 65.8831 301.923 66.1419 301.751 66.4006C301.578 66.6594 301.233 66.7457 301.061 66.5731C300.802 66.4006 300.716 66.1419 300.888 65.8831C300.975 65.7106 301.147 65.6243 301.32 65.6243C301.406 65.6243 301.492 65.7106 301.578 65.7106ZM300.026 68.1258C300.285 68.2983 300.285 68.6433 300.112 68.9021C299.94 69.1609 299.595 69.1609 299.422 68.9883C299.163 68.8158 299.163 68.4708 299.336 68.2983C299.422 68.1258 299.595 68.1258 299.767 68.1258C299.767 68.0395 299.853 68.0395 300.026 68.1258ZM298.214 70.2822C298.387 70.4547 298.473 70.7997 298.214 70.9723C298.042 71.1448 297.697 71.231 297.524 70.9723C297.352 70.7997 297.266 70.4547 297.524 70.2822C297.611 70.1959 297.783 70.1097 297.869 70.1097C297.956 70.1959 298.128 70.1959 298.214 70.2822ZM296.23 72.3524C296.403 72.5249 296.403 72.8699 296.23 73.0424C296.058 73.2149 295.713 73.2149 295.54 73.0424C295.368 72.8699 295.368 72.5249 295.54 72.3524C295.627 72.2661 295.799 72.1799 295.885 72.1799C295.972 72.1799 296.144 72.2661 296.23 72.3524ZM294.074 74.1638C294.247 74.4226 294.16 74.6813 293.988 74.8538C293.729 75.0263 293.47 74.9401 293.298 74.7676C293.125 74.5088 293.211 74.25 293.384 74.0775C293.47 73.9913 293.557 73.9913 293.729 73.9913C293.815 73.9913 293.902 74.0775 294.074 74.1638ZM291.745 75.8027C291.918 76.0614 291.831 76.4065 291.573 76.4927C291.314 76.6652 290.969 76.579 290.883 76.3202C290.71 76.0614 290.796 75.8027 291.055 75.6301C291.141 75.5439 291.228 75.5439 291.314 75.5439C291.4 75.5439 291.573 75.6302 291.745 75.8027ZM289.244 77.269C289.33 77.5278 289.244 77.8728 288.985 77.9591C288.726 78.1316 288.381 77.9591 288.295 77.7003C288.209 77.4416 288.295 77.0965 288.554 77.0103C288.64 77.0103 288.726 76.924 288.812 76.924C288.985 76.924 289.157 77.0103 289.244 77.269ZM286.656 78.3904C286.742 78.6492 286.656 78.9942 286.397 79.0804C286.138 79.1667 285.793 79.0804 285.707 78.8217C285.621 78.5629 285.707 78.2179 286.052 78.1316C286.138 78.1316 286.138 78.1316 286.225 78.1316C286.311 78.0454 286.57 78.2179 286.656 78.3904ZM283.896 79.3392C283.982 79.598 283.809 79.943 283.551 79.943C283.292 80.0293 283.033 79.8568 282.947 79.598C282.861 79.3392 283.033 78.9942 283.292 78.9942C283.292 78.9942 283.378 78.9942 283.464 78.9942C283.637 78.9079 283.896 79.0804 283.896 79.3392ZM281.135 79.943C281.222 80.2018 280.963 80.4606 280.704 80.5468C280.445 80.6331 280.187 80.3743 280.1 80.1155C280.014 79.8568 280.273 79.598 280.532 79.5117L280.618 79.5117C280.877 79.5117 281.135 79.6842 281.135 79.943ZM272.165 79.7705C272.423 79.7705 272.682 80.0293 272.596 80.3743C272.596 80.6331 272.337 80.8918 271.992 80.8056C271.733 80.8056 271.475 80.5468 271.561 80.2018C271.647 79.943 271.906 79.7705 272.165 79.7705ZM278.375 80.3743C278.375 80.6331 278.203 80.8918 277.858 80.8918C277.599 80.8918 277.34 80.7193 277.34 80.4606C277.34 80.2018 277.513 79.943 277.771 79.8568C278.116 79.8568 278.289 80.0293 278.375 80.3743ZM275.011 79.943C275.27 79.943 275.529 80.2018 275.529 80.4606C275.529 80.7193 275.27 80.9781 275.011 80.9781C274.752 80.9781 274.494 80.7193 274.494 80.4606C274.494 80.2018 274.666 79.943 275.011 79.943Z" fill="#757575"/>
<path d="M305.201 43.715C305.373 43.715 305.46 43.8013 305.546 43.8875C305.632 43.9738 305.718 44.1463 305.718 44.2325C305.718 44.3188 305.718 44.4051 305.718 44.4051C305.718 44.4913 305.632 44.4913 305.632 44.5776C305.546 44.6638 305.546 44.6638 305.46 44.6638C305.287 44.7501 305.028 44.6638 304.942 44.5776C304.856 44.5776 304.856 44.4913 304.856 44.405C304.856 44.3188 304.77 44.3188 304.77 44.2325C304.77 44.1463 304.77 44.06 304.856 44.06C304.856 43.9738 304.942 43.9738 304.942 43.8875C304.942 43.8013 305.115 43.715 305.201 43.715Z" fill="#757575"/>
<path d="M284.155 76.4065C284.413 76.4065 284.586 76.579 284.672 76.7515C284.758 77.0103 284.672 77.269 284.327 77.3553L284.241 77.3553C283.982 77.4416 283.637 77.269 283.637 77.0103C283.551 76.7515 283.723 76.4927 283.982 76.4065C284.068 76.4065 284.155 76.4065 284.155 76.4065Z" fill="#B8814A"/>
<path d="M302.441 56.0497L302.959 56.136L303.477 56.2222C303.39 56.481 303.131 56.6535 302.873 56.6535C302.614 56.5673 302.441 56.3085 302.441 56.0497Z" fill="#B8814A"/>
<path d="M296.403 68.4708C296.575 68.4708 296.662 68.5571 296.748 68.6433C296.921 68.8158 296.921 69.1609 296.748 69.3334C296.575 69.5922 296.23 69.5922 296.058 69.4196C295.799 69.2471 295.799 68.9021 295.972 68.6433L296.058 68.5571C296.058 68.5571 296.23 68.4708 296.403 68.4708Z" fill="#B8814A"/>
<path d="M303.045 44.1462C303.304 44.1462 303.476 44.3187 303.563 44.5775C303.908 46.4752 304.166 48.3728 304.166 50.2705C304.166 52.2544 303.994 54.2383 303.563 56.2222C302.527 61.1389 300.199 65.6243 296.835 69.3333C293.47 73.0424 289.158 75.8026 284.413 77.3553C279.669 78.9079 274.58 79.1667 269.664 78.1316C269.405 78.0453 269.232 77.7865 269.232 77.5278C269.318 77.269 269.577 77.0965 269.836 77.0965C274.58 78.1316 279.497 77.8728 283.982 76.4064C288.554 74.9401 292.694 72.2661 295.886 68.7295C299.163 65.1067 301.406 60.7939 302.355 56.0497C302.786 54.1521 302.959 52.1682 302.959 50.2705C302.959 48.3728 302.786 46.5614 302.441 44.75C302.355 44.4913 302.527 44.2325 302.873 44.1462C302.959 44.1462 302.959 44.1462 303.045 44.1462Z" fill="#B8814A"/>
<path d="M291.831 48.0278C292.09 48.0278 292.349 48.2003 292.349 48.4591C292.435 49.0629 292.435 49.6667 292.435 50.2705C292.435 50.5293 292.176 50.7881 291.918 50.7881C291.659 50.7881 291.4 50.5293 291.4 50.2705C291.4 49.753 291.4 49.1492 291.314 48.6316C291.314 48.2866 291.486 48.1141 291.831 48.0278Z" fill="#B8814A"/>
<path d="M291.918 49.753C292.176 49.753 292.435 50.0118 292.435 50.2706C292.435 59.5863 284.845 67.0907 275.615 67.0907C275.356 67.0907 275.097 66.8319 275.097 66.5732C275.097 66.3144 275.356 66.0556 275.615 66.0556C284.327 66.0556 291.4 58.9825 291.4 50.2706C291.4 49.9255 291.659 49.753 291.918 49.753Z" fill="#B8814A"/>
<path d="M273.804 65.9694C274.494 66.0556 275.098 66.0556 275.615 66.0556C275.874 66.0556 276.133 66.3144 276.133 66.5732C276.133 66.832 275.874 67.0907 275.615 67.0907C275.011 67.0907 274.321 67.0907 273.717 67.0045C273.459 67.0045 273.2 66.7457 273.286 66.4007C273.286 66.1419 273.545 65.9694 273.804 65.9694Z" fill="#B8814A"/>
<path d="M292.435 47.6829L292.522 47.6829L303.908 50.1843L292.09 52.772C291.832 52.8583 291.573 52.6858 291.487 52.3407C291.4 52.082 291.573 51.8232 291.918 51.7369L299.164 50.0981L292.349 48.5454C292.09 48.4592 291.918 48.2004 291.918 47.9416C292.004 47.8554 292.263 47.6829 292.435 47.6829Z" fill="#B8814A"/>
<path d="M292.091 51.8232C292.177 51.8232 292.349 51.8232 292.436 51.9957C294.074 53.462 294.592 53.462 295.455 53.3758C295.972 53.3758 296.576 53.2895 297.525 53.5483C298.646 53.8071 299.25 54.3246 299.767 54.7559C300.458 55.3597 300.975 55.791 302.959 55.6185C303.218 55.6185 303.477 55.791 303.477 56.136C303.477 56.3948 303.304 56.6536 302.959 56.6536C300.544 56.8261 299.767 56.136 298.991 55.5322C298.56 55.1009 298.129 54.7559 297.18 54.5834C296.403 54.4109 295.886 54.4109 295.368 54.4109C294.247 54.4971 293.471 54.4109 291.659 52.772C291.487 52.5995 291.4 52.2544 291.659 52.0819C291.832 51.9094 291.918 51.8232 292.091 51.8232Z" fill="#B8814A"/>
<path d="M302.958 55.6185C303.131 55.6185 303.217 55.7048 303.39 55.791C303.562 56.0498 303.562 56.3086 303.303 56.4811C300.716 58.5513 299.594 58.3787 298.042 57.6887C297.61 57.5162 297.265 57.3437 296.748 57.2574C295.972 57.0849 295.54 57.1711 295.023 57.3437C294.16 57.5162 293.125 57.6887 290.624 56.8261C290.365 56.7399 290.192 56.3948 290.279 56.136C290.365 55.8773 290.71 55.7048 290.969 55.791C293.211 56.5673 293.988 56.4811 294.764 56.3086C295.368 56.2223 295.885 56.0498 296.834 56.2223C297.438 56.3086 297.955 56.5673 298.387 56.7398C299.508 57.1711 300.284 57.5162 302.613 55.6185C302.7 55.7048 302.872 55.6185 302.958 55.6185Z" fill="#B8814A"/>
<path d="M302.959 55.6185C303.217 55.6185 303.39 55.791 303.476 55.9635C303.562 56.136 303.476 56.3948 303.304 56.5673C303.045 56.7398 302.7 56.7398 302.527 56.481C302.355 56.3085 302.355 56.0498 302.441 55.8772C302.613 55.7047 302.786 55.6185 302.959 55.6185Z" fill="#B8814A"/>
<path d="M290.796 56.0497C290.882 56.0497 291.055 56.136 291.141 56.2223L300.198 64.4167L288.726 60.7939C288.467 60.7076 288.295 60.4489 288.381 60.1038C288.467 59.8451 288.726 59.6725 289.071 59.7588L296.144 62.0015L290.537 56.9123C290.365 56.7398 290.278 56.3948 290.537 56.2223C290.537 56.0497 290.624 56.0497 290.796 56.0497Z" fill="#B8814A"/>
<path d="M296.403 68.4708C296.489 68.4708 296.576 68.4708 296.662 68.5571C296.834 68.6433 297.007 68.9021 296.921 69.0746C296.921 69.3334 296.748 69.5059 296.489 69.5059C296.231 69.5922 295.886 69.3334 295.886 69.0746C295.886 68.8158 295.972 68.6433 296.144 68.5571C296.144 68.5571 296.317 68.4708 296.403 68.4708Z" fill="#B8814A"/>
<path d="M288.812 59.7588C289.071 59.7588 289.244 59.9313 289.33 60.1038C290.02 62.174 290.451 62.4328 291.228 62.7778C291.659 63.0366 292.263 63.2954 292.953 63.9854C293.815 64.7617 294.074 65.538 294.247 66.1418C294.505 67.0044 294.764 67.6082 296.575 68.557C296.834 68.6433 296.92 68.9883 296.834 69.2471C296.748 69.5059 296.403 69.5921 296.144 69.5059C293.988 68.4708 293.643 67.4357 293.298 66.5731C293.125 65.9693 292.866 65.4518 292.263 64.848C291.659 64.2442 291.228 64.0717 290.796 63.8129C289.761 63.2954 289.157 62.8641 288.381 60.5351C288.295 60.2764 288.467 59.9313 288.726 59.8451C288.726 59.7588 288.726 59.7588 288.812 59.7588Z" fill="#B8814A"/>
<path d="M285.707 62.6915C285.88 62.6915 285.966 62.7778 286.139 62.8641C287.605 64.6755 288.468 64.9342 289.158 65.193C289.675 65.3655 290.279 65.538 290.969 66.2281C291.4 66.6594 291.745 67.0044 292.004 67.4357C292.78 68.3845 293.212 69.0746 296.145 68.557C296.403 68.4708 296.662 68.7295 296.748 68.9883C296.921 69.2471 296.748 69.5059 296.403 69.5059C293.125 70.0234 292.263 69.2471 291.228 67.9532C290.969 67.6082 290.71 67.2632 290.279 66.9181C289.675 66.4006 289.244 66.3143 288.813 66.1418C287.95 65.8831 287.001 65.538 285.276 63.4679C285.104 63.2091 285.104 62.9503 285.362 62.7778C285.535 62.6915 285.621 62.6915 285.707 62.6915Z" fill="#B8814A"/>
<path d="M285.621 62.7778C285.88 62.7778 286.052 62.9504 286.139 63.1229L289.848 74.7676L281.653 65.8831C281.481 65.7106 281.481 65.3656 281.653 65.193C281.826 65.0205 282.171 65.0205 282.343 65.193L287.346 70.6273L285.103 63.3816C285.017 63.1229 285.19 62.7778 285.448 62.6916C285.535 62.7778 285.535 62.7778 285.621 62.7778Z" fill="#B8814A"/>
<path d="M281.998 65.0205L282.084 65.0205C282.343 65.1068 282.516 65.3655 282.516 65.6243C282.084 67.7808 282.343 68.212 282.774 68.9021C283.033 69.3334 283.378 69.8509 283.723 70.7998C284.068 71.9211 283.896 72.6974 283.809 73.3012C283.637 74.1638 283.551 74.8538 284.672 76.4927C284.844 76.7515 284.758 77.0103 284.499 77.1828C284.241 77.3553 283.982 77.269 283.809 77.0103C282.429 75.0264 282.688 73.9913 282.861 73.0424C282.947 72.4386 283.033 71.9211 282.774 70.9723C282.516 70.1959 282.257 69.7647 281.998 69.3334C281.394 68.3846 281.049 67.6945 281.567 65.2793C281.567 65.193 281.739 65.0205 281.998 65.0205Z" fill="#B8814A"/>
<path d="M284.241 76.4065C284.413 76.4065 284.586 76.4927 284.672 76.6652C284.758 76.8377 284.758 77.0965 284.672 77.269C284.499 77.4415 284.327 77.5278 284.068 77.4415L284.154 77.0103L283.809 77.269C283.637 77.0103 283.723 76.6652 283.982 76.579C283.982 76.4065 284.154 76.4065 284.241 76.4065Z" fill="#B8814A"/>
<path d="M277.944 65.9694C278.203 65.9694 278.375 66.1419 278.462 66.4006C278.893 68.7296 279.41 69.3334 279.928 69.9372C280.273 70.3685 280.704 70.7998 281.049 71.7486C281.222 72.3524 281.308 72.8699 281.394 73.3012C281.567 74.5088 281.653 75.2851 284.413 76.4065C284.672 76.4927 284.845 76.8378 284.672 77.0965C284.586 77.3553 284.241 77.5278 283.982 77.3553C280.877 76.1477 280.532 75.0264 280.273 73.4737C280.187 73.0424 280.187 72.6112 280.014 72.0936C279.755 71.4036 279.497 71.0585 279.152 70.6272C278.548 69.9372 277.858 69.1609 277.427 66.5732C277.34 66.3144 277.599 66.0556 277.858 65.9694C277.858 65.9694 277.858 65.9694 277.944 65.9694Z" fill="#B8814A"/>
<path d="M277.772 66.0556L277.858 66.0556C278.117 66.1419 278.289 66.4006 278.289 66.6594L275.615 78.5629L273.028 66.9182C272.941 66.6594 273.114 66.4006 273.459 66.3144C273.718 66.2281 273.976 66.4006 274.063 66.7457L275.615 73.8188L277.254 66.4006C277.34 66.2281 277.513 66.0556 277.772 66.0556Z" fill="#B8814A"/>
<path d="M291.918 49.753L294.161 49.753C294.419 49.753 294.678 50.0117 294.678 50.2705C294.678 50.5293 294.419 50.7881 294.161 50.7881L291.918 50.7881C291.659 50.7881 291.4 50.5293 291.4 50.2705C291.4 49.9255 291.659 49.753 291.918 49.753Z" fill="#B8814A"/>
<path d="M291.486 53.6345C291.659 53.6345 291.745 53.7208 291.831 53.807C291.831 53.807 292.78 54.7559 293.729 55.0146C293.988 55.1009 294.16 55.3597 294.16 55.6184C294.074 55.8772 293.815 56.0497 293.556 56.0497C292.349 55.7909 291.227 54.6696 291.141 54.5833C290.969 54.4108 290.969 54.0658 291.141 53.8933C291.227 53.6345 291.314 53.6345 291.486 53.6345Z" fill="#B8814A"/>
<path d="M289.761 57.8611C289.847 57.8611 289.934 57.8611 290.02 57.9474L291.918 59.0687C292.176 59.2412 292.263 59.5 292.09 59.7588C291.918 60.0176 291.659 60.1038 291.4 59.9313L289.502 58.81C289.244 58.6374 289.157 58.3787 289.33 58.1199C289.416 57.9474 289.589 57.8611 289.761 57.8611Z" fill="#B8814A"/>
<path d="M287.432 61.0527C287.691 61.0527 287.864 61.2252 287.95 61.3977C287.95 61.3977 288.295 62.6916 288.985 63.3816C289.158 63.5542 289.244 63.8992 288.985 64.0717C288.813 64.2442 288.468 64.3305 288.295 64.0717C287.346 63.2091 286.915 61.6565 286.915 61.5702C286.829 61.3115 287.001 61.0527 287.26 60.9664C287.346 61.0527 287.346 61.0527 287.432 61.0527Z" fill="#B8814A"/>
<path d="M283.81 63.8992C283.982 63.8992 284.155 63.9854 284.241 64.1579L285.362 66.0556C285.535 66.3144 285.449 66.6594 285.19 66.7457C284.931 66.9182 284.586 66.8319 284.5 66.5731L283.378 64.6755C283.206 64.4167 283.292 64.0717 283.551 63.9854C283.551 63.8992 283.723 63.8992 283.81 63.8992Z" fill="#B8814A"/>
<path d="M280.187 65.3655C280.273 65.3655 280.273 65.3655 280.359 65.3655C280.618 65.4518 280.79 65.7106 280.704 65.9693C280.704 65.9693 280.359 67.2632 280.618 68.212C280.704 68.4708 280.532 68.8158 280.273 68.9021C280.014 68.9883 279.669 68.8158 279.583 68.5571C279.238 67.3495 279.583 65.7968 279.669 65.7106C279.755 65.5381 279.928 65.3655 280.187 65.3655Z" fill="#B8814A"/>
<path d="M275.615 66.0556C275.874 66.0556 276.133 66.3143 276.133 66.5731L276.133 68.8158C276.133 69.0746 275.874 69.3333 275.615 69.3333C275.356 69.3333 275.098 69.0746 275.098 68.8158L275.098 66.5731C275.098 66.3143 275.356 66.0556 275.615 66.0556Z" fill="#B8814A"/>
<path d="M311.239 43.1974C311.498 43.1974 311.757 43.4562 311.757 43.715C311.757 43.9738 311.498 44.2325 311.239 44.2325C288.122 44.2325 269.232 63.0366 269.232 86.2398C269.232 86.4986 268.973 86.7573 268.714 86.7573C268.455 86.7573 268.197 86.4986 268.197 86.2398C268.283 62.5191 287.518 43.1974 311.239 43.1974Z" fill="#B8814A"/>
<path d="M255.603 63.7267L257.07 69.5059L262.935 69.9372L257.932 73.0424L259.399 78.7354L254.913 74.9401L249.91 78.0453L252.067 72.6111L247.581 68.8158L253.447 69.2471L255.603 63.7267ZM259.657 70.7135L256.207 70.4547L255.344 67.0907L254.051 70.2822L250.6 70.0234L253.274 72.2661L251.98 75.4576L254.913 73.6462L257.587 75.8889L256.725 72.5249L259.657 70.7135Z" fill="#B8814A"/>
<path d="M293.902 21.9781L297.697 26.4635L303.131 24.3071L300.026 29.31L303.821 33.7954L298.128 32.329L295.023 37.3319L294.592 31.4664L288.899 30.0001L294.333 27.8436L293.902 21.9781ZM297.352 27.6711L295.109 24.9971L295.368 28.4474L292.177 29.7413L295.541 30.6039L295.799 34.0542L297.611 31.1214L300.975 31.984L298.732 29.31L300.544 26.3773L297.352 27.6711Z" fill="#B8814A"/>
<path d="M46.0846 85.7222L62.301 85.7222C62.5597 85.7222 62.8185 85.981 62.8185 86.2398C62.8185 86.4985 62.5597 86.7573 62.301 86.7573L46.0846 86.7573C45.8258 86.7573 45.567 86.4985 45.567 86.2398C45.567 85.981 45.8258 85.7222 46.0846 85.7222Z" fill="#B8814A"/>
<path d="M66.7003 85.7222C66.7866 85.7222 66.7866 85.7222 66.8729 85.8085C66.9591 85.8085 66.9591 85.8947 67.0454 85.8947C67.1317 85.981 67.2179 86.1535 67.2179 86.2398C67.2179 86.4123 67.1317 86.4985 67.0454 86.5848C66.8729 86.7573 66.5278 86.7573 66.2691 86.5848C66.1828 86.4985 66.0966 86.326 66.0966 86.2398C66.0966 86.1535 66.0966 86.0673 66.0966 86.0673C66.0966 85.981 66.1828 85.981 66.1828 85.8947C66.2691 85.8085 66.2691 85.8085 66.3553 85.8085C66.6141 85.7222 66.6141 85.7222 66.7003 85.7222Z" fill="#B8814A"/>
<path d="M70.0638 86.2398C70.0638 86.4986 69.805 86.7573 69.5463 86.7573C69.2875 86.7573 69.0287 86.4986 69.0287 86.2398C69.0287 85.981 69.2875 85.7223 69.5463 85.7223C69.805 85.7223 70.0638 85.981 70.0638 86.2398ZM72.824 86.2398C72.824 86.4986 72.5653 86.7573 72.3065 86.7573C72.0477 86.7573 71.789 86.4986 71.789 86.2398C71.789 85.981 72.0477 85.7223 72.3065 85.7223C72.5653 85.7223 72.824 85.981 72.824 86.2398ZM75.6705 86.2398C75.6705 86.4986 75.4118 86.7573 75.153 86.7573C74.8942 86.7573 74.6354 86.4986 74.6354 86.2398C74.6354 85.981 74.8942 85.7223 75.153 85.7223C75.4118 85.7223 75.6705 85.981 75.6705 86.2398Z" fill="#B8814A"/>
<path d="M77.9137 85.723C78.0862 85.723 78.1725 85.8093 78.2588 85.8956C78.345 85.9818 78.4313 86.1543 78.4313 86.2406C78.4313 86.4131 78.345 86.4994 78.2588 86.5856C78.0863 86.7581 77.7412 86.7581 77.5687 86.5856C77.4824 86.4994 77.3962 86.3268 77.3962 86.2406C77.3962 86.1543 77.3962 86.0681 77.3962 86.0681C77.3962 85.9818 77.4824 85.9818 77.4824 85.8956C77.655 85.8093 77.7412 85.723 77.9137 85.723Z" fill="#B8814A"/>
<path d="M69.5467 83.4795C69.633 83.4795 69.7192 83.4795 69.7192 83.4795C69.8055 83.4795 69.8055 83.5658 69.8918 83.5658C69.978 83.6521 69.978 83.6521 69.978 83.7383C69.978 83.8246 69.978 83.9108 69.978 83.9108C69.978 83.9971 69.978 83.9971 69.978 84.0834C69.978 84.1696 69.8918 84.1696 69.8918 84.2559C69.8055 84.3421 69.8055 84.3421 69.7192 84.3421C69.5467 84.4284 69.4605 84.4284 69.288 84.3421C69.2017 84.3421 69.2017 84.2559 69.1155 84.2559C69.0292 84.2559 69.0292 84.1696 69.0292 84.0834C69.0292 83.9971 69.0292 83.9971 69.0292 83.9108C69.0292 83.8246 69.0292 83.7383 69.0292 83.7383C69.0292 83.6521 69.1155 83.6521 69.1155 83.5658C69.2017 83.5658 69.2017 83.4795 69.288 83.4795C69.3742 83.4795 69.4605 83.4795 69.5467 83.4795Z" fill="#757575"/>
<path d="M72.8245 83.9971C72.8245 84.2559 72.5657 84.5146 72.3069 84.5146C72.0481 84.5146 71.7894 84.2559 71.7894 83.9971C71.7894 83.7383 72.0481 83.4796 72.3069 83.4796C72.5657 83.4796 72.8245 83.7383 72.8245 83.9971Z" fill="#757575"/>
<path d="M75.1531 83.4794C75.3256 83.4794 75.4119 83.5657 75.4981 83.6519C75.5844 83.7382 75.5844 83.7382 75.5844 83.8244C75.5844 83.9107 75.6707 83.9969 75.6707 83.9969C75.6707 84.0832 75.5844 84.2557 75.4981 84.342C75.3256 84.5145 75.1531 84.5145 74.9806 84.4282C74.8943 84.4282 74.8943 84.342 74.8081 84.342C74.7218 84.2557 74.6356 84.0832 74.6356 83.9969C74.6356 83.8244 74.7218 83.7382 74.8081 83.6519C74.8943 83.6519 74.8943 83.5657 74.9806 83.5657C74.9806 83.4794 75.0668 83.4794 75.1531 83.4794Z" fill="#757575"/>
<path d="M69.5469 87.9649C69.6332 87.9649 69.7194 87.9649 69.7194 87.9649C69.8057 87.9649 69.8057 88.0512 69.8919 88.0512C69.9782 88.1374 70.0645 88.31 70.0645 88.3962C70.0645 88.5687 69.9782 88.655 69.8919 88.7412C69.8057 88.8275 69.8057 88.8275 69.7194 88.8275C69.5469 88.9138 69.4606 88.9138 69.2881 88.8275C69.2019 88.8275 69.2019 88.7412 69.1156 88.7412C69.0294 88.655 68.9431 88.4825 68.9431 88.3962C68.9431 88.2237 69.0294 88.1374 69.1156 88.0512C69.2019 87.9649 69.2019 87.9649 69.2881 87.9649C69.3744 87.9649 69.4606 87.9649 69.5469 87.9649Z" fill="#757575"/>
<path d="M72.8245 88.4824C72.8245 88.7412 72.5657 89 72.3069 89C72.0481 89 71.7894 88.7412 71.7894 88.4824C71.7894 88.2237 72.0481 87.9649 72.3069 87.9649C72.5657 87.9649 72.8245 88.2237 72.8245 88.4824Z" fill="#757575"/>
<path d="M75.1531 87.9659C75.3256 87.9659 75.4119 88.0521 75.4981 88.1384C75.5844 88.2246 75.5844 88.2246 75.5844 88.3109C75.5844 88.3972 75.6707 88.3972 75.6707 88.4834C75.6707 88.6559 75.5844 88.7422 75.4981 88.8284C75.4981 88.8284 75.4119 88.9147 75.3256 88.9147C75.1531 89.001 74.8943 88.9147 74.7218 88.8284C74.6356 88.7422 74.5493 88.5697 74.5493 88.4834C74.5493 88.3972 74.5493 88.3109 74.5493 88.3109C74.5493 88.2246 74.6356 88.2246 74.6356 88.1384C74.8081 88.0521 74.9806 87.9659 75.1531 87.9659Z" fill="#757575"/>
<path d="M3.5596 26.9811C3.81837 26.9811 4.07715 27.2398 4.07715 27.4986L4.07715 43.7149C4.07715 43.9737 3.81837 44.2325 3.5596 44.2325C3.30083 44.2325 3.04205 43.9737 3.04205 43.7149L3.04205 27.4986C3.04205 27.2398 3.30083 26.9811 3.5596 26.9811Z" fill="#B8814A"/>
<path d="M3.55997 22.582C3.73248 22.582 3.81873 22.6682 3.90499 22.7545C3.99125 22.8408 4.07751 23.0133 4.07751 23.0995C4.07751 23.1858 4.07751 23.272 4.07751 23.272C4.07751 23.3583 3.99125 23.3583 3.99125 23.4445C3.905 23.5308 3.90498 23.5308 3.81873 23.5308C3.64621 23.6171 3.55996 23.6171 3.38744 23.5308C3.30118 23.5308 3.3012 23.4445 3.21494 23.4445C3.21494 23.4445 3.12868 23.3583 3.12868 23.272C3.12868 23.1858 3.12868 23.0995 3.12868 23.0995C3.12868 23.0133 3.12868 22.927 3.12868 22.927C3.12868 22.8407 3.21494 22.8408 3.21494 22.7545C3.3012 22.6682 3.47371 22.582 3.55997 22.582Z" fill="#B8814A"/>
<path d="M4.07764 14.7326C4.07764 14.9914 3.81886 15.2501 3.56009 15.2501C3.30132 15.2501 3.04254 14.9914 3.04254 14.7326C3.04254 14.4738 3.30132 14.215 3.56009 14.215C3.90512 14.215 4.07764 14.3876 4.07764 14.7326ZM4.07764 17.4928C4.07764 17.7516 3.81886 18.0104 3.56009 18.0104C3.30132 18.0104 3.04254 17.7516 3.04254 17.4928C3.04254 17.234 3.30132 16.9753 3.56009 16.9753C3.90512 16.9753 4.07764 17.234 4.07764 17.4928ZM4.07764 20.3393C4.07764 20.5981 3.81886 20.8568 3.56009 20.8568C3.30132 20.8568 3.04254 20.5981 3.04254 20.3393C3.04254 20.0805 3.30132 19.8218 3.56009 19.8218C3.90512 19.8218 4.07764 19.9943 4.07764 20.3393Z" fill="#B8814A"/>
<path d="M3.56009 11.3686C3.7326 11.3686 3.81885 11.4548 3.90511 11.5411C3.99137 11.6274 4.07764 11.7999 4.07764 11.8861C4.07764 11.9724 4.07764 12.0586 4.07764 12.0586C4.07764 12.1449 3.99137 12.1449 3.99137 12.2312C3.90512 12.3174 3.90511 12.3174 3.81885 12.3174C3.64633 12.4037 3.56008 12.4037 3.38756 12.3174C3.30131 12.3174 3.30132 12.2312 3.21506 12.2312C3.21506 12.2312 3.1288 12.1449 3.1288 12.0586C3.1288 11.9724 3.1288 11.9724 3.1288 11.8861C3.1288 11.7136 3.21504 11.6274 3.3013 11.5411C3.3013 11.4548 3.47383 11.3686 3.56009 11.3686Z" fill="#B8814A"/>
<path d="M1.31705 19.8217C1.4033 19.8217 1.48957 19.8217 1.48957 19.8217C1.57583 19.8217 1.57581 19.9079 1.66207 19.9079C1.74833 19.9942 1.83459 20.1667 1.83459 20.253C1.83459 20.4255 1.74833 20.5117 1.66207 20.598C1.48956 20.7705 1.14454 20.7705 0.972023 20.598C0.885766 20.5117 0.88576 20.5117 0.88576 20.4255C0.88576 20.3392 0.799498 20.253 0.799498 20.253C0.799498 20.0804 0.885766 19.9942 0.972023 19.9079C1.05828 19.8217 1.23079 19.8217 1.31705 19.8217Z" fill="#757575"/>
<path d="M1.83484 17.4928C1.83484 17.7516 1.57606 18.0103 1.31729 18.0103C1.05852 18.0103 0.799742 17.7516 0.799742 17.4928C0.799742 17.234 1.05852 16.9753 1.31729 16.9753C1.66232 16.9753 1.83484 17.234 1.83484 17.4928Z" fill="#757575"/>
<path d="M1.31713 14.215C1.40338 14.215 1.48965 14.215 1.48965 14.3012C1.57591 14.3012 1.57589 14.3875 1.66215 14.3875C1.74841 14.3875 1.74841 14.4737 1.74841 14.56C1.74841 14.6463 1.74841 14.7325 1.74841 14.7325C1.74841 14.8188 1.74841 14.905 1.74841 14.905C1.74841 14.9913 1.66215 14.9913 1.66215 15.0775C1.48964 15.2501 1.14462 15.2501 0.972104 15.0775C0.885846 14.9913 0.799579 14.8188 0.799579 14.7325C0.799579 14.6463 0.799584 14.56 0.885841 14.56C0.885841 14.4737 0.972104 14.4737 0.972104 14.3875C1.05836 14.215 1.23087 14.215 1.31713 14.215Z" fill="#757575"/>
<path d="M5.80297 19.8218C5.97548 19.8218 6.06173 19.908 6.14799 19.9943C6.23425 20.0805 6.23425 20.0805 6.23425 20.1668C6.23425 20.253 6.23425 20.3393 6.23425 20.3393C6.23425 20.5118 6.14799 20.5981 6.06173 20.6843C5.88921 20.8568 5.54419 20.8568 5.28542 20.6843C5.19916 20.5981 5.11289 20.4256 5.11289 20.3393C5.11289 20.1668 5.19916 20.0805 5.28542 19.9943C5.54419 19.8218 5.71671 19.8218 5.80297 19.8218Z" fill="#757575"/>
<path d="M6.32019 17.4928C6.32019 17.7516 6.06144 18.0103 5.80267 18.0103C5.5439 18.0103 5.28512 17.7516 5.28512 17.4928C5.28512 17.234 5.5439 16.9753 5.80267 16.9753C6.1477 16.9753 6.32019 17.234 6.32019 17.4928Z" fill="#757575"/>
<path d="M5.80267 14.2151C5.97518 14.2151 6.06143 14.3013 6.14769 14.3876C6.23395 14.4738 6.32019 14.6463 6.32019 14.7326C6.32019 14.8189 6.32019 14.9051 6.32019 14.9051C6.32019 14.9914 6.23395 14.9914 6.23395 15.0776C6.1477 15.0776 6.14769 15.1639 6.06143 15.1639C5.88891 15.2501 5.80266 15.2501 5.63014 15.1639C5.54389 15.1639 5.54388 15.0776 5.45762 15.0776C5.37136 14.9914 5.28512 14.8189 5.28512 14.7326C5.28512 14.6463 5.28512 14.5601 5.28512 14.5601C5.28512 14.4738 5.37138 14.4738 5.37138 14.3876C5.5439 14.2151 5.71641 14.2151 5.80267 14.2151Z" fill="#757575"/>
<path d="M48.586 85.7222C48.6723 85.7222 48.7586 85.7222 48.7586 85.8085C48.8448 85.8085 48.8448 85.8947 48.9311 85.8947C48.9311 85.8947 49.0173 85.981 49.0173 86.0672C49.0173 86.1535 49.0173 86.2398 49.0173 86.2398L49.0173 86.4123C49.0173 86.4985 48.9311 86.4985 48.9311 86.5848C48.7586 86.7573 48.4135 86.7573 48.241 86.5848C48.1548 86.4985 48.1548 86.4985 48.1548 86.4123C48.1548 86.326 48.0685 86.326 48.0685 86.2398C48.0685 86.1535 48.0685 86.0672 48.1548 86.0672C48.1548 85.981 48.241 85.981 48.241 85.8947C48.241 85.8085 48.3273 85.8085 48.4135 85.8085C48.4135 85.7222 48.4998 85.7222 48.586 85.7222Z" fill="#B8814A"/>
<path d="M6.49292 40.7822C6.75169 40.7822 7.01046 41.041 7.01046 41.2997C7.01046 41.5585 6.75169 41.8173 6.49292 41.8173C6.23415 41.8173 5.97537 41.5585 5.97537 41.2997C5.97537 41.041 6.14789 40.7822 6.49292 40.7822ZM9.33939 41.1272C9.59817 41.1272 9.85694 41.386 9.77068 41.731C9.77068 41.9898 9.51192 42.2486 9.1669 42.1623C8.90812 42.1623 8.73561 41.9035 8.73561 41.5585C8.82186 41.2997 8.99437 41.1272 9.33939 41.1272C9.25314 41.1272 9.33939 41.1272 9.33939 41.1272ZM12.1859 41.5585C12.4447 41.6447 12.6172 41.9035 12.6172 42.1623C12.5309 42.4211 12.2721 42.5936 12.0134 42.5936C11.7546 42.5073 11.5821 42.2486 11.5821 41.9898C11.5821 41.731 11.8409 41.5585 12.0996 41.5585C12.0996 41.5585 12.0996 41.5585 12.1859 41.5585ZM14.9461 42.1623C15.2049 42.2486 15.3774 42.5073 15.2912 42.7661C15.2049 43.0249 14.9461 43.1974 14.6874 43.1111C14.4286 43.0249 14.2561 42.7661 14.3423 42.5073C14.4286 42.2486 14.6011 42.076 14.8599 42.076C14.8599 42.1623 14.8599 42.1623 14.9461 42.1623ZM17.7064 42.9386C17.9651 43.0249 18.1376 43.2836 18.0514 43.6287C17.9651 43.8874 17.6201 44.06 17.3613 43.9737C17.1026 43.8874 16.93 43.6287 17.0163 43.2836C17.1026 43.1111 17.2751 42.9386 17.5338 42.9386C17.6201 42.9386 17.6201 42.9386 17.7064 42.9386ZM20.3803 43.8874C20.6391 43.9737 20.8116 44.3187 20.6391 44.5775C20.5528 44.8363 20.2078 45.0088 19.949 44.8363C19.6903 44.75 19.5177 44.405 19.6903 44.1462C19.7765 43.9737 19.949 43.8012 20.2078 43.8012C20.2078 43.8874 20.2941 43.8874 20.3803 43.8874ZM22.968 45.095C23.2268 45.2676 23.3131 45.5263 23.2268 45.7851C23.1406 46.0439 22.7955 46.1301 22.5368 46.0439C22.278 45.9576 22.1917 45.6126 22.278 45.3538C22.3642 45.1813 22.5367 45.095 22.7093 45.095C22.8818 45.0088 22.8818 45.0088 22.968 45.095ZM25.5558 46.3889C25.8145 46.5614 25.9008 46.8202 25.7283 47.079C25.5557 47.3377 25.297 47.424 25.0382 47.2515C24.7794 47.079 24.6932 46.8202 24.8657 46.5614C24.9519 46.3889 25.1245 46.3026 25.297 46.3026C25.3832 46.3026 25.4695 46.3026 25.5558 46.3889ZM27.971 47.8553C28.2297 48.0278 28.316 48.2866 28.1435 48.5453C27.971 48.8041 27.7122 48.8904 27.4534 48.7178C27.1946 48.5453 27.1084 48.2866 27.2809 48.0278C27.3672 47.8553 27.5397 47.769 27.7122 47.769C27.7984 47.769 27.8847 47.769 27.971 47.8553ZM30.3862 49.4079C30.6449 49.5804 30.6449 49.9254 30.4724 50.098C30.2999 50.3567 29.9549 50.3567 29.7824 50.1842C29.5236 50.0117 29.5236 49.6667 29.6961 49.4942C29.7824 49.3216 29.9549 49.3216 30.1274 49.3216C30.1274 49.3216 30.2137 49.3216 30.3862 49.4079ZM32.6288 51.2193C32.8876 51.3918 32.8876 51.7368 32.7151 51.9094C32.5426 52.1681 32.1976 52.1681 32.0251 51.9956C31.7663 51.8231 31.7663 51.4781 31.9388 51.3056C32.025 51.2193 32.1976 51.133 32.3701 51.133C32.3701 51.0468 32.5426 51.133 32.6288 51.2193ZM34.699 53.0307C34.8715 53.2032 34.9578 53.5482 34.699 53.7208C34.5265 53.8933 34.1815 53.8933 33.9227 53.7208C33.7502 53.5482 33.7502 53.2032 33.9227 53.0307C34.009 52.9444 34.1815 52.8582 34.2677 52.8582C34.5265 52.9444 34.6128 52.9444 34.699 53.0307ZM36.7692 55.1009C36.9417 55.2734 36.9417 55.6184 36.7692 55.8772C36.5967 56.0497 36.2517 56.0497 35.9929 55.8772C35.8204 55.7047 35.8204 55.3597 35.9929 55.1009C36.0791 55.0146 36.2517 54.9284 36.3379 54.9284C36.5104 54.9284 36.6829 55.0146 36.7692 55.1009ZM38.6668 57.2573C38.8394 57.4298 38.8394 57.7748 38.5806 57.9474C38.4081 58.1199 38.063 58.1199 37.8905 57.8611C37.718 57.6886 37.718 57.3436 37.9768 57.171C38.063 57.0848 38.1493 57.0848 38.3218 57.0848C38.4081 57.0848 38.5806 57.0848 38.6668 57.2573ZM40.392 59.5C40.5645 59.7588 40.4783 60.0175 40.3057 60.19C40.047 60.3626 39.7882 60.2763 39.6157 60.1038C39.4432 59.845 39.5294 59.5863 39.7019 59.4137C39.7882 59.3275 39.8744 59.3275 40.047 59.3275C40.1332 59.2412 40.3057 59.3275 40.392 59.5ZM42.0309 61.8289C42.2034 62.0877 42.1171 62.4327 41.8584 62.519C41.5996 62.6915 41.2546 62.6053 41.1683 62.3465C40.9958 62.0877 41.082 61.7427 41.3408 61.6564C41.4271 61.5702 41.5133 61.5702 41.5996 61.5702C41.7721 61.6564 41.9446 61.6564 42.0309 61.8289ZM43.4972 64.3304C43.6698 64.5892 43.4973 64.9342 43.3247 65.0205C43.066 65.193 42.8072 65.1067 42.6347 64.8479C42.4622 64.5892 42.5484 64.2441 42.8072 64.1579C42.8935 64.1579 42.9797 64.0716 43.066 64.0716C43.2385 64.0716 43.411 64.1579 43.4972 64.3304ZM44.7911 66.8319C44.8774 67.0906 44.7911 67.4357 44.5323 67.5219C44.2736 67.6082 43.9285 67.5219 43.8423 67.2631C43.756 67.0044 43.8423 66.6593 44.1011 66.5731C44.1873 66.5731 44.2736 66.5731 44.3598 66.5731C44.5323 66.5731 44.7048 66.6593 44.7911 66.8319ZM45.9125 69.5058C45.9987 69.7646 45.9124 70.1096 45.6537 70.1959C45.3949 70.2821 45.0499 70.1959 44.9636 69.9371C44.8774 69.6783 44.9636 69.4196 45.2224 69.2471C45.3086 69.2471 45.3949 69.2471 45.3949 69.2471C45.6537 69.1608 45.8262 69.2471 45.9125 69.5058ZM46.8613 72.1798C46.9475 72.4386 46.775 72.7836 46.5162 72.8699C46.2575 72.9561 45.9987 72.7836 45.8262 72.5248C45.7399 72.2661 45.9125 72.0073 46.1712 71.8348C46.2575 71.8348 46.2575 71.8348 46.3437 71.8348C46.6025 71.8348 46.775 71.921 46.8613 72.1798ZM47.6376 74.94C47.7239 75.1988 47.5513 75.5438 47.2926 75.5438C47.0338 75.6301 46.6888 75.4576 46.6888 75.1988C46.6025 74.94 46.775 74.6813 47.0338 74.595C47.1201 74.595 47.1201 74.595 47.2063 74.595C47.3788 74.5087 47.6376 74.6813 47.6376 74.94ZM48.3277 77.7003C48.4139 77.959 48.2414 78.2178 47.8964 78.3041C47.6376 78.3903 47.3788 78.2178 47.2926 77.8728C47.2063 77.614 47.3788 77.3552 47.7238 77.269L47.8101 77.269C48.0689 77.269 48.2414 77.4415 48.3277 77.7003ZM48.7589 80.5467C48.7589 80.8055 48.5864 81.0643 48.3277 81.1506C48.0689 81.1506 47.8101 80.978 47.7238 80.7193C47.7238 80.4605 47.8964 80.2017 48.1551 80.1155C48.1551 80.1155 48.1551 80.1155 48.2414 80.1155C48.5002 80.1155 48.6727 80.288 48.7589 80.5467ZM49.0177 83.3932C49.0177 83.652 48.8452 83.9108 48.5002 83.9108C48.2414 83.9108 47.9826 83.7383 47.9826 83.3932C47.9826 83.1345 48.1551 82.8757 48.5002 82.8757C48.7589 82.8757 49.0177 83.1345 49.0177 83.3932Z" fill="#B8814A"/>
<path d="M3.55993 40.6959C3.73244 40.6959 3.81869 40.7822 3.90495 40.8684C3.99121 40.9547 3.99121 40.9547 3.99121 41.0409C3.99121 41.1272 3.99121 41.1272 3.99121 41.2135C3.99121 41.2997 3.99121 41.386 3.99121 41.386C3.99121 41.4722 3.90495 41.4722 3.90495 41.5585C3.73243 41.731 3.38742 41.731 3.2149 41.5585C3.2149 41.4722 3.12864 41.4722 3.12864 41.386C3.12864 41.2997 3.12864 41.2997 3.12864 41.2135C3.12864 41.1272 3.12864 41.0409 3.12864 41.0409C3.12864 40.9547 3.2149 40.9547 3.2149 40.8684C3.30116 40.7822 3.47367 40.6959 3.55993 40.6959Z" fill="#B8814A"/>
<path d="M10.0286 43.8012C10.1149 43.8012 10.2011 43.8012 10.2011 43.8012C10.2874 43.8012 10.2874 43.8875 10.3736 43.8875C10.4599 43.8875 10.4599 43.9737 10.4599 44.06C10.4599 44.1462 10.5461 44.2325 10.5461 44.2325C10.5461 44.2325 10.5461 44.405 10.4599 44.405C10.4599 44.4913 10.3736 44.4912 10.3736 44.5775C10.2874 44.5775 10.2873 44.6638 10.2011 44.6638C10.0286 44.75 9.94232 44.75 9.76981 44.6638C9.68355 44.6638 9.68357 44.5775 9.59731 44.5775C9.59731 44.4912 9.51105 44.4913 9.51105 44.405C9.51105 44.3187 9.51105 44.3187 9.51105 44.2325C9.51105 44.06 9.59731 43.9737 9.68357 43.8875C9.76983 43.8012 9.85608 43.8012 10.0286 43.8012Z" fill="#757575"/>
<path d="M9.59761 46.5614C9.85639 46.5614 10.1152 46.8202 10.0289 47.1652C10.0289 47.424 9.77012 47.6828 9.42509 47.5965C9.16632 47.5965 8.90755 47.3377 8.9938 46.9927C9.08006 46.7339 9.33884 46.5614 9.59761 46.5614ZM9.33883 49.4079C9.5976 49.4079 9.85638 49.6667 9.85638 49.9254C9.85638 50.1842 9.5976 50.443 9.33883 50.443C9.08005 50.443 8.8213 50.1842 8.8213 49.9254C8.8213 49.6667 9.08005 49.4079 9.33883 49.4079ZM9.94264 52.7719C9.94264 53.0307 9.77012 53.2895 9.51135 53.2895C9.25258 53.2895 8.9938 53.117 8.9938 52.7719C8.9938 52.5132 9.16632 52.2544 9.42509 52.2544C9.68386 52.2544 9.94264 52.5132 9.94264 52.7719ZM10.2877 55.5322C10.2877 55.7909 10.1151 56.0497 9.85638 56.136C9.5976 56.136 9.33885 55.9634 9.25259 55.7047C9.16633 55.4459 9.4251 55.1871 9.68387 55.1009L9.77011 55.1009C10.0289 55.1009 10.2877 55.2734 10.2877 55.5322ZM10.8915 58.2924C10.9777 58.5512 10.8052 58.8962 10.5464 58.8962C10.2877 58.9824 9.94264 58.8099 9.94264 58.5512C9.85638 58.2924 10.0289 58.0336 10.2877 57.9474C10.3739 57.9474 10.3739 57.9474 10.4602 57.9474C10.6327 57.8611 10.8052 58.0336 10.8915 58.2924ZM11.754 60.9664C11.8403 61.2251 11.754 61.4839 11.409 61.6564C11.1502 61.7427 10.8052 61.6564 10.7189 61.3114C10.6327 61.0526 10.719 60.7938 10.9777 60.6213C11.064 60.6213 11.064 60.6213 11.1502 60.6213C11.4953 60.6213 11.6678 60.7076 11.754 60.9664ZM12.7891 63.4678C12.9616 63.7266 12.7891 64.0716 12.5304 64.1579C12.2716 64.2441 11.9266 64.1579 11.8403 63.8991C11.754 63.6403 11.8403 63.2953 12.0991 63.209C12.1853 63.209 12.2716 63.1228 12.3578 63.1228C12.5303 63.209 12.7029 63.2953 12.7891 63.4678ZM14.1692 65.9693C14.3417 66.228 14.2555 66.4868 13.9967 66.6593C13.738 66.8318 13.3929 66.7456 13.3067 66.4868C13.1341 66.228 13.2204 65.9693 13.4792 65.7968C13.5654 65.7105 13.6517 65.7105 13.7379 65.7105C13.9105 65.7105 14.083 65.7968 14.1692 65.9693ZM15.7219 68.2982C15.8944 68.557 15.8081 68.8158 15.6356 68.9883C15.3768 69.1608 15.1181 69.0745 14.9455 68.902C14.773 68.6433 14.8593 68.3845 15.0318 68.212C15.1181 68.1257 15.2043 68.1257 15.3768 68.1257C15.4631 68.0395 15.6356 68.1257 15.7219 68.2982ZM17.5333 70.4546C17.7058 70.6272 17.7058 70.9722 17.5333 71.231C17.3607 71.4035 17.0157 71.4035 16.8432 71.231C16.6707 71.0585 16.6707 70.7134 16.8432 70.4546C16.9295 70.3684 17.102 70.3684 17.1882 70.3684C17.2745 70.2821 17.3607 70.2821 17.5333 70.4546ZM19.4309 72.4386C19.6034 72.6111 19.6897 72.9561 19.4309 73.1286C19.2584 73.3011 18.9134 73.3874 18.7409 73.1286C18.5684 72.9561 18.4821 72.6111 18.7409 72.4386C18.8271 72.3523 18.9996 72.266 19.0859 72.266C19.2584 72.266 19.3447 72.3523 19.4309 72.4386ZM21.5874 74.25C21.8461 74.4225 21.8461 74.7675 21.6736 74.94C21.5011 75.1988 21.1561 75.1988 20.9835 75.0263C20.7248 74.8538 20.7248 74.5087 20.8973 74.3362C20.9836 74.1637 21.1561 74.1637 21.3286 74.1637C21.4149 74.0775 21.5011 74.1637 21.5874 74.25ZM23.9163 75.8026C24.1751 75.9751 24.2613 76.2339 24.0888 76.4927C23.9163 76.7514 23.6575 76.8377 23.3988 76.6652C23.14 76.4927 23.0537 76.2339 23.2262 75.9751C23.3125 75.8026 23.485 75.7163 23.6575 75.7163C23.7438 75.7163 23.8301 75.7163 23.9163 75.8026ZM26.3315 77.1827C26.5903 77.269 26.6765 77.614 26.5903 77.8728C26.504 78.1315 26.159 78.2178 25.9002 78.1315C25.6414 78.0453 25.5552 77.7003 25.6415 77.4415C25.7277 77.269 25.9002 77.1827 26.0727 77.1827C26.2453 77.0965 26.2452 77.0965 26.3315 77.1827ZM28.9192 78.3041C29.178 78.3903 29.3505 78.7353 29.178 78.9941C29.0917 79.2529 28.7467 79.4254 28.4879 79.3391C28.2292 79.2529 28.0567 78.9079 28.2292 78.6491C28.3154 78.4766 28.4879 78.3041 28.7467 78.3041C28.8329 78.3041 28.833 78.3041 28.9192 78.3041ZM31.5932 79.1666C31.852 79.2529 32.0245 79.5117 31.9382 79.7704C31.852 80.0292 31.5932 80.2017 31.3344 80.1155C31.0756 80.0292 30.9031 79.7704 30.9894 79.5117C31.0756 79.2529 31.2482 79.1666 31.5069 79.1666C31.5069 79.1666 31.5069 79.1666 31.5932 79.1666ZM34.2672 79.7704C34.5259 79.8567 34.6985 80.1155 34.6985 80.3742C34.6122 80.633 34.3534 80.8055 34.0946 80.8055C33.8359 80.7193 33.6634 80.4605 33.6634 80.2017C33.6634 79.9429 33.9221 79.7704 34.1809 79.7704C34.2672 79.7704 34.2672 79.7704 34.2672 79.7704ZM43.2379 80.5467C43.2379 80.8055 43.0654 81.0643 42.8066 81.1505C42.5479 81.1505 42.2891 80.978 42.2891 80.7193C42.2891 80.4605 42.4616 80.2017 42.7204 80.1155C42.7204 80.1155 42.7204 80.1155 42.8066 80.1155C42.9791 80.1155 43.2379 80.288 43.2379 80.5467ZM37.1136 80.2017C37.3724 80.2017 37.6312 80.4605 37.5449 80.7193C37.5449 80.978 37.2862 81.2368 36.9411 81.2368C36.6824 81.2368 36.4236 80.978 36.5098 80.633C36.5098 80.3742 36.7686 80.2017 37.1136 80.2017C37.0274 80.2017 37.0274 80.2017 37.1136 80.2017ZM39.8739 80.288C40.1327 80.288 40.3914 80.5467 40.3914 80.8055C40.3914 81.0643 40.1327 81.3231 39.8739 81.3231C39.6151 81.3231 39.3563 81.0643 39.3563 80.8055C39.3563 80.5467 39.6151 80.288 39.8739 80.288Z" fill="#757575"/>
<path d="M45.5668 79.6842C45.6531 79.6842 45.7393 79.6842 45.7393 79.6842C45.8256 79.6842 45.8256 79.7705 45.9119 79.7705C45.9981 79.8567 45.9981 79.8567 45.9981 79.943C45.9981 80.0292 46.0844 80.1155 46.0844 80.1155C46.0844 80.288 45.9981 80.3743 45.9119 80.4605C45.7393 80.633 45.3943 80.633 45.2218 80.4605C45.1355 80.3743 45.0493 80.2018 45.0493 80.1155C45.0493 80.0292 45.0493 79.943 45.0493 79.943C45.0493 79.8567 45.1355 79.8567 45.1355 79.7705C45.2218 79.7705 45.2218 79.6842 45.308 79.6842C45.3943 79.6842 45.4805 79.6842 45.5668 79.6842Z" fill="#757575"/>
<path d="M12.9618 58.6374C13.1343 58.6374 13.3931 58.7237 13.4794 58.9824L12.9618 59.1549L12.4443 59.3274C12.358 59.0687 12.5305 58.7236 12.7893 58.6374C12.7893 58.6374 12.8756 58.6374 12.9618 58.6374Z" fill="#B8814A"/>
<path d="M33.6632 77.4415C33.6632 77.4415 33.7495 77.4415 33.6632 77.4415C34.0083 77.5277 34.267 77.7865 34.1808 78.0453C34.0945 78.3041 33.922 78.5628 33.577 78.4766C33.577 78.4766 33.577 78.4766 33.4907 78.4766C33.2319 78.3903 33.0594 78.1315 33.0594 77.8728C33.2319 77.614 33.4045 77.4415 33.6632 77.4415Z" fill="#B8814A"/>
<path d="M20.8112 70.7997C20.8975 70.7997 21.07 70.8859 21.1563 70.9722C21.3288 71.1447 21.415 71.4897 21.2425 71.6622C21.07 71.921 20.725 71.921 20.5524 71.7485L20.4662 71.6622C20.2937 71.4897 20.2937 71.1447 20.4662 70.9722C20.5525 70.7997 20.6387 70.7997 20.8112 70.7997Z" fill="#B8814A"/>
<path d="M12.185 44.1462L12.2713 44.1462C12.5301 44.2325 12.7026 44.4913 12.7026 44.75C12.2713 46.6477 12.0988 48.6316 12.0988 50.5293C12.0988 53.3758 12.5301 56.2222 13.3926 58.8962C14.859 63.4678 17.533 67.6082 21.0695 70.7997C24.6923 74.0775 29.0052 76.3202 33.7493 77.269C37.5447 78.0453 41.34 78.0453 45.049 77.3553C45.3078 77.269 45.5666 77.4415 45.6528 77.7865C45.7391 78.0453 45.5666 78.3041 45.2215 78.3903C41.4262 79.1667 37.3721 79.1667 33.4906 78.3041C28.5739 77.269 24.0885 74.9401 20.3795 71.576C16.6704 68.212 13.9102 63.8991 12.3575 59.155C11.4087 56.3085 10.9774 53.3758 10.9775 50.443C10.9775 48.4591 11.15 46.3889 11.5812 44.4913C11.7537 44.3188 12.0125 44.1462 12.185 44.1462Z" fill="#B8814A"/>
<path d="M41.2538 66.3143C41.5126 66.3143 41.7714 66.4868 41.7714 66.7456C41.7714 67.0044 41.5988 67.2632 41.3401 67.3494C40.7363 67.4357 40.1325 67.4357 39.6149 67.4357C39.3562 67.4357 39.0974 67.1769 39.0974 66.9181C39.0974 66.6594 39.3562 66.4006 39.6149 66.4006C40.1325 66.4006 40.65 66.3143 41.2538 66.3143Z" fill="#B8814A"/>
<path d="M23.2262 50.098C23.485 50.098 23.7438 50.3567 23.7438 50.6155C23.7438 59.3275 30.8169 66.4006 39.5288 66.4006C39.7876 66.4006 40.0464 66.6594 40.0464 66.9181C40.0464 67.1769 39.7876 67.4357 39.5288 67.4357C30.2131 67.4357 22.7087 59.845 22.7087 50.6155C22.7087 50.2705 22.9675 50.098 23.2262 50.098Z" fill="#B8814A"/>
<path d="M23.3987 48.2003C23.7437 48.2003 23.9163 48.4591 23.9163 48.8041C23.83 49.4079 23.83 50.0117 23.83 50.6155C23.83 50.8743 23.5712 51.1331 23.3124 51.1331C23.0537 51.1331 22.7949 50.8743 22.7949 50.6155C22.7949 50.0117 22.7949 49.4079 22.8812 48.7179C22.8812 48.3728 23.1399 48.2003 23.3987 48.2003Z" fill="#B8814A"/>
<path d="M37.4587 66.4868C37.7175 66.4868 37.89 66.6593 37.9763 66.9181L39.6152 74.1637L41.1678 67.3494C41.2541 67.0906 41.5128 66.9181 41.7716 66.9181C42.0304 67.0044 42.2029 67.2631 42.2029 67.5219L39.7014 78.9078L37.1137 67.0906C37.0275 66.8318 37.2 66.5731 37.545 66.4868C37.3725 66.4868 37.4587 66.4868 37.4587 66.4868Z" fill="#B8814A"/>
<path d="M37.4587 66.4868C37.545 66.4868 37.7175 66.4868 37.8037 66.6593C37.9762 66.8319 38.0625 67.1769 37.8037 67.3494C36.3374 68.9883 36.3374 69.5058 36.4236 70.3684C36.4236 70.8859 36.5099 71.4897 36.2511 72.4386C35.9923 73.5599 35.4748 74.1637 35.0435 74.6813C34.4397 75.3713 34.0084 75.8889 34.1809 77.8728C34.1809 78.1315 34.0084 78.3903 33.6634 78.3903C33.4046 78.3903 33.1458 78.2178 33.1458 77.8728C32.9733 75.4576 33.6634 74.6813 34.2672 73.9049C34.6985 73.4737 35.0435 73.0424 35.216 72.0935C35.3885 71.3172 35.3885 70.7997 35.3885 70.2821C35.3023 69.1608 35.3885 68.3845 37.0274 66.5731C37.1999 66.5731 37.2862 66.4868 37.4587 66.4868Z" fill="#B8814A"/>
<path d="M33.4044 65.2793C33.4907 65.2793 33.4907 65.2793 33.5769 65.2793C33.8357 65.3655 34.0082 65.7105 33.922 65.9693C33.1457 68.212 33.2319 68.9883 33.4044 69.7646C33.4907 70.3684 33.6632 70.886 33.4907 71.8348C33.4044 72.4386 33.1457 72.9561 32.9732 73.3874C32.5419 74.5088 32.1968 75.2851 34.0945 77.614C34.267 77.8728 34.267 78.1316 34.0082 78.3041C33.7495 78.4766 33.4907 78.4766 33.3182 78.2178C31.248 75.6301 31.4205 74.5088 32.1106 72.9561C32.2831 72.5249 32.4556 72.1798 32.5419 71.6623C32.7144 70.886 32.6281 70.4547 32.4556 69.9371C32.2831 69.0746 32.1106 68.0395 32.9732 65.538C33.0594 65.4518 33.2319 65.2793 33.4044 65.2793Z" fill="#B8814A"/>
<path d="M34.0942 77.614L33.7492 77.9591L34.2667 77.9591C34.2667 78.2178 34.1804 78.3903 33.9217 78.4766C33.7492 78.5629 33.4904 78.4766 33.3179 78.3041L33.6629 77.9591L33.2316 77.9591L33.7492 77.8728L34.0942 77.614Z" fill="#B8814A"/>
<path d="M29.523 63.2953C29.6092 63.2953 29.6092 63.2953 29.6955 63.2953C29.9542 63.3816 30.1267 63.6404 30.0405 63.9854L27.7978 71.0585L32.887 65.4518C33.0595 65.2792 33.4045 65.193 33.577 65.4518C33.7496 65.6243 33.8358 65.9693 33.577 66.1418L25.2963 75.1988L28.9192 63.7266C29.0917 63.3816 29.2642 63.2953 29.523 63.2953Z" fill="#B8814A"/>
<path d="M20.811 70.7997C20.9835 70.7997 21.1561 70.8859 21.2423 71.0584C21.3286 71.231 21.3286 71.4035 21.2423 71.576C21.1561 71.7485 20.8973 71.921 20.7248 71.8347C20.466 71.8347 20.2935 71.6622 20.2935 71.4035C20.2935 71.1447 20.466 70.8859 20.811 70.7997C20.7248 70.7997 20.811 70.7997 20.811 70.7997Z" fill="#B8814A"/>
<path d="M29.5228 63.2953C29.7816 63.2953 29.954 63.4678 30.0403 63.6403C30.1266 63.8991 29.9541 64.2441 29.6953 64.3304C27.6251 65.0204 27.3663 65.4517 27.0213 66.228C26.7625 66.6593 26.5038 67.2631 25.8137 67.9532C25.0374 68.8157 24.2611 69.0745 23.6573 69.247C22.7947 69.5058 22.1909 69.7646 21.2421 71.576C21.1558 71.8347 20.8108 71.921 20.552 71.8347C20.2932 71.7485 20.207 71.4035 20.2933 71.1447C21.3283 68.9882 22.3634 68.6432 23.226 68.2982C23.8298 68.1257 24.3473 67.8669 24.9511 67.2631C25.5549 66.6593 25.7275 66.228 25.9862 65.7967C26.5038 64.7616 26.9351 64.1578 29.264 63.3815C29.4365 63.2953 29.4365 63.2953 29.5228 63.2953Z" fill="#B8814A"/>
<path d="M26.6761 60.1901C26.8487 60.1901 26.9349 60.2763 27.1074 60.3626C27.2799 60.6214 27.2799 60.8801 27.0212 61.0526C25.2098 62.519 24.951 63.3816 24.6922 64.0717C24.5197 64.5892 24.3472 65.193 23.6571 65.8831C23.2259 66.3143 22.8808 66.6594 22.4495 66.9181C21.5007 67.6945 20.8107 68.1257 21.3282 71.0585C21.4145 71.3173 21.1557 71.576 20.8969 71.6623C20.6382 71.7485 20.3794 71.4898 20.2931 71.231C19.7756 67.9532 20.5519 67.0907 21.8457 66.0556C22.1908 65.7968 22.5358 65.538 22.8808 65.1067C23.3984 64.5029 23.4846 64.0717 23.6571 63.6404C23.9159 62.7778 24.261 61.829 26.3311 60.1038C26.4174 60.1901 26.5036 60.1901 26.6761 60.1901Z" fill="#B8814A"/>
<path d="M24.261 56.481C24.4335 56.481 24.5197 56.5673 24.606 56.6536C24.7785 56.8261 24.7785 57.1711 24.606 57.3436L19.1718 62.3465L26.4174 60.1038C26.6762 60.0176 27.0212 60.1901 27.1074 60.4489C27.1937 60.7076 27.0212 61.0527 26.7624 61.1389L15.1177 64.848L23.9159 56.5673C24.0022 56.481 24.1747 56.481 24.261 56.481Z" fill="#B8814A"/>
<path d="M22.4497 56.2222C22.9672 56.2222 23.571 56.3085 24.4336 56.481C24.6924 56.5672 24.8649 56.826 24.8649 57.0848C24.7786 57.3435 24.5199 57.5161 24.2611 57.5161C22.1047 57.0848 21.6734 57.3435 20.9833 57.7748C20.552 58.0336 20.0345 58.3786 19.0857 58.7237C17.9643 59.0687 17.188 58.8962 16.5842 58.8099C15.7216 58.6374 15.0316 58.5511 13.3927 59.6725C13.1339 59.845 12.8751 59.7587 12.7026 59.5C12.5301 59.2412 12.6164 58.9824 12.8751 58.8099C14.859 57.4298 15.8941 57.6886 16.843 57.8611C17.4468 57.9473 17.9643 58.0336 18.9131 57.7748C19.6894 57.5161 20.1207 57.2573 20.552 56.9985C20.897 56.481 21.4146 56.2222 22.4497 56.2222Z" fill="#B8814A"/>
<path d="M12.9618 58.6374C13.0481 58.6374 13.0481 58.6374 13.1343 58.6374C13.3069 58.7237 13.4794 58.8962 13.4794 59.0687C13.4794 59.2412 13.3931 59.4137 13.3068 59.5C13.1343 59.6725 12.8756 59.6725 12.7031 59.5C12.5305 59.3275 12.4443 59.1549 12.5305 58.8962C12.5305 58.8099 12.7031 58.6374 12.9618 58.6374Z" fill="#B8814A"/>
<path d="M23.3126 52.3406C23.5714 52.3406 23.7439 52.5132 23.8301 52.7719C23.9164 53.0307 23.6576 53.2895 23.3988 53.3757C21.0699 53.807 20.4661 54.3246 19.8623 54.8421C19.431 55.1871 18.9997 55.6184 18.0509 55.9634C17.4471 56.136 16.9296 56.2222 16.4983 56.3085C15.2907 56.481 14.5143 56.5672 13.393 59.3275C13.3067 59.5862 12.9617 59.7588 12.703 59.5862C12.4442 59.5 12.2717 59.155 12.4442 58.8962C13.6518 55.7909 14.7731 55.4459 16.3257 55.1871C16.757 55.1009 17.1883 55.1009 17.7059 54.9284C18.3959 54.6696 18.741 54.4108 19.1722 54.0658C19.8623 53.462 20.6386 52.7719 23.2263 52.3406L23.3126 52.3406Z" fill="#B8814A"/>
<path d="M22.9678 48.0278C23.2265 48.0278 23.399 48.2003 23.4853 48.459C23.5716 48.7178 23.399 48.9766 23.054 49.0628L15.9809 50.6155L23.399 52.2544C23.6578 52.3406 23.8303 52.5994 23.8303 52.8582C23.7441 53.1169 23.4853 53.2894 23.2265 53.2894L11.323 50.6155L22.9678 48.0278C22.8815 48.0278 22.8815 48.0278 22.9678 48.0278Z" fill="#B8814A"/>
<path d="M39.6153 66.4006C39.874 66.4006 40.1328 66.6594 40.1328 66.9181L40.1328 69.1608C40.1328 69.4196 39.874 69.6784 39.6153 69.6784C39.3565 69.6784 39.0977 69.4196 39.0977 69.1608L39.0977 66.9181C39.0977 66.5731 39.2702 66.4006 39.6153 66.4006Z" fill="#B8814A"/>
<path d="M35.7334 65.883C35.9059 65.883 35.9921 65.9693 36.0784 66.0555C36.2509 66.228 36.2509 66.5731 36.0784 66.7456C36.0784 66.7456 35.1296 67.6944 34.8708 68.6432C34.7845 68.902 34.5258 69.0745 34.267 69.0745C34.0082 68.9883 33.8357 68.7295 33.8357 68.4707C34.0945 67.2631 35.2158 66.1418 35.3021 66.0555C35.4746 65.9693 35.5608 65.883 35.7334 65.883Z" fill="#B8814A"/>
<path d="M31.4207 64.1579C31.507 64.1579 31.5933 64.1579 31.6795 64.2441C31.9383 64.4166 32.0245 64.6754 31.852 64.9342L30.7307 66.8318C30.5582 67.0906 30.2994 67.1769 30.0406 67.0044C29.7818 66.8318 29.6956 66.5731 29.8681 66.3143L30.9894 64.4166C31.0757 64.2441 31.2482 64.1579 31.4207 64.1579Z" fill="#B8814A"/>
<path d="M28.3154 61.8289C28.5741 61.8289 28.7467 62.0015 28.8329 62.2602C28.9192 62.519 28.7467 62.7778 28.4879 62.864C28.4879 62.864 27.194 63.2091 26.504 63.8991C26.3315 64.0716 25.9864 64.1579 25.8139 63.8991C25.6414 63.7266 25.5551 63.3816 25.8139 63.2091C26.6765 62.2602 28.2291 61.8289 28.3154 61.8289C28.2291 61.8289 28.2291 61.8289 28.3154 61.8289Z" fill="#B8814A"/>
<path d="M25.4687 58.2061C25.6412 58.2061 25.8137 58.2924 25.9 58.4649C26.0725 58.7237 25.9862 59.0687 25.7275 59.155L23.8298 60.2763C23.5711 60.4488 23.226 60.3626 23.1398 60.1038C22.9672 59.845 23.0535 59.5 23.3123 59.4137L25.21 58.2924C25.2962 58.2061 25.3825 58.2061 25.4687 58.2061Z" fill="#B8814A"/>
<path d="M22.4496 54.4108C23.3122 54.4108 24.0885 54.5833 24.0885 54.5833C24.3472 54.6696 24.5198 54.9284 24.4335 55.1871C24.3472 55.4459 24.0885 55.6184 23.8297 55.5322C23.8297 55.5322 22.5358 55.1871 21.587 55.4459C21.3282 55.5322 20.9832 55.3596 20.897 55.1009C20.8107 54.8421 20.9832 54.4971 21.242 54.4108C21.587 54.4971 22.0183 54.4108 22.4496 54.4108Z" fill="#B8814A"/>
<path d="M21.0701 50.098L23.3128 50.098C23.5715 50.098 23.8303 50.3567 23.8303 50.6155C23.8303 50.8743 23.5715 51.1331 23.3128 51.1331L21.0701 51.1331C20.8113 51.1331 20.5525 50.8743 20.5525 50.6155C20.5525 50.2705 20.7251 50.098 21.0701 50.098Z" fill="#B8814A"/>
<path d="M3.56009 43.1974C27.2808 43.1974 46.6024 62.519 46.6024 86.2398C46.6024 86.4985 46.3436 86.7573 46.0849 86.7573C45.8261 86.7573 45.5673 86.4985 45.5673 86.2398C45.5673 63.1228 26.7633 44.2325 3.56009 44.2325C3.30132 44.2325 3.04254 43.9737 3.04254 43.715C3.04254 43.4562 3.30132 43.1974 3.56009 43.1974Z" fill="#B8814A"/>
<path d="M20.984 22.4957L20.5527 28.3612L25.9869 30.6039L20.294 32.0702L19.8627 37.9357L16.7574 32.9328L11.0644 34.3992L14.8598 29.9138L11.7545 24.9109L17.1887 27.0673L20.984 22.4957ZM22.7092 30.3451L19.5176 29.0512L19.7764 25.6009L17.5337 28.2749L14.3422 26.9811L16.1536 29.9138L13.9109 32.5878L17.275 31.7252L19.0864 34.6579L19.3451 31.2077L22.7092 30.3451Z" fill="#B8814A"/>
<path d="M59.7996 63.7267L62.0423 69.1609L67.9078 68.7296L63.4225 72.5249L65.5789 77.9591L60.576 74.8538L56.0906 78.6492L57.557 72.9562L52.554 69.8509L58.4195 69.4196L59.7996 63.7267ZM61.3523 70.2822L60.0584 67.0907L59.1959 70.4547L55.7456 70.7135L58.6783 72.5249L57.8157 75.8889L60.4897 73.6462L63.4225 75.4576L62.1286 72.2661L64.8026 70.0234L61.3523 70.2822Z" fill="#B8814A"/>
</g>
<defs>
<clipPath id="clip0">
<rect width="314" height="112" fill="white" transform="translate(314 112) rotate(-180)"/>
</clipPath>
</defs>
</svg>
