<svg width="314" height="112" viewBox="0 0 314 112" fill="none" xmlns="http://www.w3.org/2000/svg">
<g clip-path="url(#clip0)">
<path d="M122.486 26.2778H95.8325C95.5737 26.2778 95.3149 26.019 95.3149 25.7602C95.3149 25.5014 95.5737 25.2427 95.8325 25.2427H122.486C122.745 25.2427 123.004 25.5014 123.004 25.7602C123.004 26.019 122.745 26.2778 122.486 26.2778Z" fill="#B8814A"/>
<path d="M93.5893 28.5205C92.0367 28.5205 90.8291 27.3129 90.8291 25.7602C90.8291 24.2076 92.0367 23 93.5893 23C95.142 23 96.3496 24.2076 96.3496 25.7602C96.3496 27.3129 95.0557 28.5205 93.5893 28.5205ZM93.5893 24.0351C92.6405 24.0351 91.8642 24.8114 91.8642 25.7602C91.8642 26.7091 92.6405 27.4854 93.5893 27.4854C94.5382 27.4854 95.3145 26.7091 95.3145 25.7602C95.3145 24.8114 94.5382 24.0351 93.5893 24.0351Z" fill="#B8814A"/>
<path d="M124.643 28.5205C123.09 28.5205 121.882 27.3129 121.882 25.7602C121.882 24.2076 123.09 23 124.643 23C126.195 23 127.403 24.2076 127.403 25.7602C127.403 27.3129 126.195 28.5205 124.643 28.5205ZM124.643 24.0351C123.694 24.0351 122.917 24.8114 122.917 25.7602C122.917 26.7091 123.694 27.4854 124.643 27.4854C125.591 27.4854 126.368 26.7091 126.368 25.7602C126.368 24.8114 125.591 24.0351 124.643 24.0351Z" fill="#B8814A"/>
<path d="M106.355 24.0352C106.183 24.0352 106.097 23.949 106.01 23.8627C105.924 23.7765 105.838 23.604 105.838 23.5177C105.838 23.3452 105.924 23.2589 106.01 23.1727C106.097 23.0864 106.097 23.0864 106.183 23.0864C106.269 23.0002 106.442 23.0002 106.614 23.0864C106.7 23.0864 106.7 23.1727 106.787 23.1727C106.873 23.2589 106.959 23.4315 106.959 23.5177C106.959 23.6902 106.873 23.7765 106.787 23.8627C106.614 23.949 106.442 24.0352 106.355 24.0352Z" fill="#B8814A"/>
<path d="M108.599 23.5175C108.599 23.2588 108.857 23 109.116 23C109.375 23 109.634 23.2588 109.634 23.5175C109.634 23.7763 109.375 24.0351 109.116 24.0351C108.857 24.0351 108.599 23.7763 108.599 23.5175Z" fill="#B8814A"/>
<path d="M111.962 24.0351C111.79 24.0351 111.704 23.9488 111.617 23.8626C111.531 23.7763 111.445 23.6038 111.445 23.5175C111.445 23.4313 111.445 23.345 111.445 23.345C111.445 23.2588 111.531 23.2588 111.531 23.1725C111.531 23.0862 111.617 23.0862 111.704 23.0862C111.79 23 111.962 23 112.135 23.0862C112.221 23.0862 112.221 23.1725 112.307 23.1725C112.394 23.2588 112.394 23.2588 112.394 23.345C112.394 23.4313 112.394 23.5175 112.394 23.5175C112.394 23.69 112.307 23.7763 112.221 23.8626C112.221 23.9488 112.049 24.0351 111.962 24.0351Z" fill="#B8814A"/>
<path d="M106.356 28.5195C106.183 28.5195 106.097 28.4333 106.011 28.347C106.011 28.2608 105.924 28.2608 105.924 28.1745C105.924 28.0882 105.924 28.002 105.924 28.002C105.924 27.9157 106.011 27.7432 106.097 27.657C106.183 27.5707 106.183 27.5707 106.269 27.5707C106.442 27.4844 106.701 27.5707 106.873 27.657C106.959 27.7432 107.046 27.9157 107.046 28.002C107.046 28.0882 107.046 28.1745 107.046 28.1745C107.046 28.2608 106.959 28.2608 106.959 28.347C106.614 28.4333 106.442 28.5195 106.356 28.5195Z" fill="#B8814A"/>
<path d="M108.599 28.003C108.599 27.7442 108.857 27.4854 109.116 27.4854C109.375 27.4854 109.634 27.7442 109.634 28.003C109.634 28.2617 109.375 28.5205 109.116 28.5205C108.857 28.5205 108.599 28.2617 108.599 28.003Z" fill="#B8814A"/>
<path d="M111.962 28.5205C111.79 28.5205 111.704 28.4343 111.617 28.348C111.531 28.2618 111.445 28.0893 111.445 28.003C111.445 27.9167 111.445 27.9167 111.445 27.8305C111.445 27.7442 111.531 27.7442 111.531 27.658C111.531 27.5717 111.617 27.5717 111.704 27.5717C111.79 27.4855 111.962 27.4855 112.135 27.5717C112.221 27.5717 112.221 27.658 112.307 27.658C112.394 27.658 112.394 27.7442 112.394 27.8305C112.394 27.9167 112.394 27.9167 112.394 28.003C112.394 28.1755 112.307 28.2618 112.221 28.348C112.221 28.4343 112.049 28.5205 111.962 28.5205Z" fill="#B8814A"/>
<path d="M217.714 26.2778H191.061C190.802 26.2778 190.543 26.019 190.543 25.7602C190.543 25.5014 190.802 25.2427 191.061 25.2427H217.714C217.973 25.2427 218.232 25.5014 218.232 25.7602C218.232 26.019 217.973 26.2778 217.714 26.2778Z" fill="#B8814A"/>
<path d="M219.87 28.5205C218.317 28.5205 217.11 27.3129 217.11 25.7602C217.11 24.2076 218.317 23 219.87 23C221.423 23 222.63 24.2076 222.63 25.7602C222.63 27.3129 221.423 28.5205 219.87 28.5205ZM219.87 24.0351C218.921 24.0351 218.145 24.8114 218.145 25.7602C218.145 26.7091 218.921 27.4854 219.87 27.4854C220.819 27.4854 221.595 26.7091 221.595 25.7602C221.595 24.8114 220.819 24.0351 219.87 24.0351Z" fill="#B8814A"/>
<path d="M188.817 28.5205C187.265 28.5205 186.057 27.3129 186.057 25.7602C186.057 24.2076 187.265 23 188.817 23C190.37 23 191.578 24.2076 191.578 25.7602C191.578 27.3129 190.284 28.5205 188.817 28.5205ZM188.817 24.0351C187.869 24.0351 187.092 24.8114 187.092 25.7602C187.092 26.7091 187.869 27.4854 188.817 27.4854C189.766 27.4854 190.543 26.7091 190.543 25.7602C190.543 24.8114 189.766 24.0351 188.817 24.0351Z" fill="#B8814A"/>
<path d="M207.19 24.0351C207.104 24.0351 207.017 24.0351 207.017 24.0351C206.931 24.0351 206.931 23.9488 206.845 23.9488C206.759 23.8626 206.672 23.6901 206.672 23.6038C206.672 23.4313 206.759 23.345 206.845 23.2588C207.017 23.0863 207.362 23.0863 207.621 23.2588C207.707 23.345 207.707 23.345 207.707 23.4313C207.707 23.5176 207.707 23.6038 207.707 23.6038C207.707 23.6901 207.707 23.7763 207.707 23.7763C207.707 23.8626 207.621 23.8626 207.621 23.9488C207.449 23.9488 207.276 24.0351 207.19 24.0351Z" fill="#B8814A"/>
<path d="M203.826 23.5175C203.826 23.2588 204.085 23 204.344 23C204.602 23 204.861 23.2588 204.861 23.5175C204.861 23.7763 204.602 24.0351 204.344 24.0351C204.085 24.0351 203.826 23.7763 203.826 23.5175Z" fill="#B8814A"/>
<path d="M201.583 24.0352C201.411 24.0352 201.325 23.949 201.238 23.8627C201.152 23.7765 201.066 23.604 201.066 23.5177C201.066 23.3452 201.152 23.2589 201.238 23.1727C201.238 23.0864 201.325 23.0864 201.411 23.0864C201.583 23.0002 201.67 23.0002 201.842 23.0864C201.928 23.0864 201.928 23.1727 202.015 23.1727C202.101 23.2589 202.101 23.2589 202.101 23.3452C202.101 23.4314 202.101 23.5177 202.101 23.5177C202.101 23.6902 202.015 23.7765 201.928 23.8627C201.842 23.949 201.67 24.0352 201.583 24.0352Z" fill="#B8814A"/>
<path d="M207.19 28.5205C207.017 28.5205 206.931 28.4342 206.845 28.3479C206.759 28.2617 206.672 28.0892 206.672 28.0029C206.672 27.8304 206.759 27.7441 206.845 27.6579C207.017 27.4854 207.362 27.4854 207.621 27.6579C207.707 27.7441 207.794 27.9167 207.794 28.0029C207.794 28.1754 207.707 28.2617 207.621 28.3479C207.449 28.4342 207.276 28.5205 207.19 28.5205Z" fill="#B8814A"/>
<path d="M203.826 28.003C203.826 27.7442 204.085 27.4854 204.344 27.4854C204.602 27.4854 204.861 27.7442 204.861 28.003C204.861 28.2617 204.602 28.5205 204.344 28.5205C204.085 28.5205 203.826 28.2617 203.826 28.003Z" fill="#B8814A"/>
<path d="M201.583 28.5195C201.411 28.5195 201.325 28.4333 201.238 28.347C201.152 28.2608 201.066 28.0882 201.066 28.002C201.066 27.8295 201.152 27.7432 201.238 27.657C201.238 27.5707 201.325 27.5707 201.411 27.5707C201.583 27.4844 201.842 27.5707 202.015 27.657C202.101 27.7432 202.187 27.9157 202.187 28.002C202.187 28.1745 202.101 28.2608 202.015 28.347C201.842 28.4333 201.67 28.5195 201.583 28.5195Z" fill="#B8814A"/>
<path d="M2.7612 85.019C2.50242 85.019 2.24365 84.7602 2.24365 84.5014V68.2851C2.24365 68.0263 2.50242 67.7675 2.7612 67.7675C3.01997 67.7675 3.27874 68.0263 3.27874 68.2851V84.5014C3.27874 84.7602 3.01997 85.019 2.7612 85.019Z" fill="#B8814A"/>
<path d="M2.76071 89.418C2.67445 89.418 2.58819 89.418 2.58819 89.418C2.50194 89.418 2.50193 89.3318 2.41568 89.3318C2.32942 89.2455 2.24316 89.073 2.24316 88.9867C2.24316 88.9005 2.24316 88.8142 2.32942 88.8142C2.32942 88.728 2.41568 88.728 2.41568 88.6417C2.58819 88.4692 2.93322 88.4692 3.10574 88.6417C3.19199 88.728 3.27825 88.9005 3.27825 88.9867C3.27825 89.1593 3.19199 89.2455 3.10574 89.3318C3.01948 89.418 3.01948 89.418 2.93322 89.418C2.84696 89.418 2.76071 89.418 2.76071 89.418Z" fill="#B8814A"/>
<path d="M2.24316 97.2674C2.24316 97.0086 2.50194 96.7498 2.76071 96.7498C3.01948 96.7498 3.27825 97.0086 3.27825 97.2674C3.27825 97.5262 3.01948 97.7849 2.76071 97.7849C2.41568 97.7849 2.24316 97.6124 2.24316 97.2674ZM2.24316 94.5072C2.24316 94.2484 2.50194 93.9896 2.76071 93.9896C3.01948 93.9896 3.27825 94.2484 3.27825 94.5072C3.27825 94.7659 3.01948 95.0247 2.76071 95.0247C2.41568 95.0247 2.24316 94.7659 2.24316 94.5072ZM2.24316 91.6607C2.24316 91.4019 2.50194 91.1431 2.76071 91.1431C3.01948 91.1431 3.27825 91.4019 3.27825 91.6607C3.27825 91.9194 3.01948 92.1782 2.76071 92.1782C2.41568 92.1782 2.24316 92.0057 2.24316 91.6607Z" fill="#B8814A"/>
<path d="M2.76071 100.631C2.67445 100.631 2.58819 100.631 2.58819 100.631C2.50194 100.631 2.50193 100.545 2.41568 100.545C2.32942 100.459 2.32942 100.459 2.32942 100.373C2.32942 100.286 2.24316 100.2 2.24316 100.2C2.24316 100.114 2.24316 100.028 2.32942 100.028C2.32942 99.9413 2.41568 99.9414 2.41568 99.8551C2.58819 99.6826 2.93322 99.6826 3.10574 99.8551C3.10574 99.8551 3.19199 99.9413 3.19199 100.028C3.19199 100.114 3.19199 100.2 3.19199 100.2C3.19199 100.286 3.19199 100.373 3.19199 100.373C3.19199 100.459 3.10574 100.459 3.10574 100.545C3.01948 100.631 3.01948 100.631 2.93322 100.631C2.84696 100.631 2.76071 100.631 2.76071 100.631Z" fill="#B8814A"/>
<path d="M5.00387 92.1782C4.83136 92.1782 4.7451 92.092 4.65884 92.0057C4.57258 91.9194 4.48633 91.7469 4.48633 91.6607C4.48633 91.5744 4.48633 91.4882 4.48633 91.4882C4.48633 91.4019 4.57258 91.4019 4.57258 91.3156C4.7451 91.1431 4.91761 91.1431 5.17638 91.2294C5.26264 91.2294 5.26264 91.3156 5.3489 91.3156C5.43516 91.4019 5.52141 91.5744 5.52141 91.6607C5.52141 91.8332 5.43516 91.9194 5.3489 92.0057C5.26264 92.1782 5.09013 92.1782 5.00387 92.1782Z" fill="#757575"/>
<path d="M4.48633 94.5072C4.48633 94.2484 4.7451 93.9896 5.00387 93.9896C5.26264 93.9896 5.52141 94.2484 5.52141 94.5072C5.52141 94.7659 5.26264 95.0247 5.00387 95.0247C4.65884 95.0247 4.48633 94.7659 4.48633 94.5072Z" fill="#757575"/>
<path d="M5.00404 97.785C4.91778 97.785 4.83153 97.785 4.83153 97.6987C4.74527 97.6987 4.74527 97.6125 4.65901 97.6125C4.65901 97.6125 4.57275 97.5262 4.57275 97.4399C4.57275 97.3537 4.57275 97.2674 4.57275 97.2674C4.57275 97.0949 4.65901 97.0087 4.74527 96.9224C4.83153 96.8361 4.83153 96.8361 4.91778 96.8361C5.0903 96.7499 5.34907 96.8361 5.43533 96.9224C5.52158 97.0087 5.60784 97.1812 5.60784 97.2674C5.60784 97.4399 5.52158 97.5262 5.43533 97.6125C5.26281 97.785 5.0903 97.785 5.00404 97.785Z" fill="#757575"/>
<path d="M0.517712 92.1782C0.345197 92.1782 0.25894 92.092 0.172683 92.0057C0.172683 91.9194 0.0864258 91.9194 0.0864258 91.8332C0.0864258 91.7469 0.0864258 91.6607 0.0864258 91.6607C0.0864258 91.5744 0.0864258 91.4882 0.0864258 91.4882C0.0864258 91.4019 0.172683 91.4019 0.172683 91.3156C0.345198 91.1431 0.517711 91.1431 0.776483 91.2294C0.86274 91.2294 0.86274 91.3156 0.948998 91.3156C1.03525 91.4019 1.03526 91.4019 1.03526 91.4882C1.03526 91.5744 1.03526 91.6607 1.03526 91.6607C1.03526 91.7469 1.03526 91.8332 1.03526 91.8332C1.03526 91.9194 0.948998 91.9194 0.948998 92.0057C0.776483 92.1782 0.603969 92.1782 0.517712 92.1782Z" fill="#757575"/>
<path d="M0.000488281 94.5072C0.000488281 94.2484 0.25926 93.9896 0.518032 93.9896C0.776803 93.9896 1.03558 94.2484 1.03558 94.5072C1.03558 94.7659 0.776803 95.0247 0.518032 95.0247C0.173003 95.0247 0.000488281 94.7659 0.000488281 94.5072Z" fill="#757575"/>
<path d="M0.5182 97.785C0.345686 97.785 0.259429 97.6987 0.173172 97.6124C0.173172 97.6124 0.0869141 97.5262 0.0869141 97.4399C0.0869141 97.3537 0.0869141 97.2674 0.0869141 97.2674C0.0869141 97.0949 0.17317 97.0086 0.259427 96.9224C0.345685 96.8361 0.345685 96.8361 0.431942 96.8361C0.604457 96.7499 0.690714 96.7499 0.863228 96.8361C0.949486 96.8361 0.949486 96.9224 1.03574 96.9224C1.122 97.0086 1.20826 97.1811 1.20826 97.2674C1.20826 97.4399 1.122 97.5262 1.03574 97.6124C0.776972 97.7849 0.604457 97.785 0.5182 97.785Z" fill="#757575"/>
<path d="M61.5018 26.2778H45.1992C44.9404 26.2778 44.6816 26.019 44.6816 25.7602C44.6816 25.5014 44.9404 25.2427 45.1992 25.2427H61.4155C61.6743 25.2427 61.9331 25.5014 61.9331 25.7602C62.0193 26.019 61.7606 26.2778 61.5018 26.2778Z" fill="#B8814A"/>
<path d="M65.9008 26.2769C65.8146 26.2769 65.7283 26.2769 65.7283 26.1907C65.6421 26.1907 65.6421 26.1044 65.5558 26.1044C65.4696 26.0182 65.3833 25.8456 65.3833 25.7594C65.3833 25.6731 65.3833 25.5869 65.3833 25.5869C65.3833 25.5006 65.4696 25.5006 65.4696 25.4144C65.6421 25.2418 65.9871 25.2418 66.2459 25.4144C66.3321 25.5006 66.4184 25.6731 66.4184 25.7594C66.4184 25.9319 66.3321 26.0182 66.2459 26.1044C66.1596 26.1907 65.9871 26.2769 65.9008 26.2769Z" fill="#B8814A"/>
<path d="M73.7503 25.7602C73.7503 25.5014 74.009 25.2427 74.2678 25.2427C74.5266 25.2427 74.7854 25.5014 74.7854 25.7602C74.7854 26.019 74.5266 26.2778 74.2678 26.2778C73.9228 26.2778 73.7503 26.019 73.7503 25.7602ZM70.9038 25.7602C70.9038 25.5014 71.1626 25.2427 71.4213 25.2427C71.6801 25.2427 71.9389 25.5014 71.9389 25.7602C71.9389 26.019 71.6801 26.2778 71.4213 26.2778C71.1626 26.2778 70.9038 26.019 70.9038 25.7602ZM68.1436 25.7602C68.1436 25.5014 68.4023 25.2427 68.6611 25.2427C68.9199 25.2427 69.1786 25.5014 69.1786 25.7602C69.1786 26.019 68.9199 26.2778 68.6611 26.2778C68.4023 26.2778 68.1436 26.019 68.1436 25.7602Z" fill="#B8814A"/>
<path d="M77.0283 26.2778C76.942 26.2778 76.8558 26.2778 76.8558 26.1915C76.7695 26.1915 76.7695 26.1053 76.6833 26.1053C76.597 26.019 76.5107 25.8465 76.5107 25.7603C76.5107 25.674 76.5107 25.5877 76.5107 25.5877C76.5107 25.5015 76.597 25.5015 76.597 25.4152C76.6833 25.4152 76.6833 25.329 76.7695 25.329C76.8558 25.2427 77.0283 25.2427 77.2008 25.329C77.2871 25.329 77.2871 25.4152 77.3733 25.4152C77.4596 25.5015 77.5458 25.674 77.5458 25.7603C77.5458 25.9328 77.4596 26.019 77.3733 26.1053C77.2871 26.1915 77.2008 26.2778 77.0283 26.2778Z" fill="#B8814A"/>
<path d="M68.6611 24.0343C68.4886 24.0343 68.4023 23.948 68.3161 23.8617C68.2298 23.7755 68.1436 23.603 68.1436 23.5167C68.1436 23.3442 68.2298 23.2579 68.3161 23.1717C68.4886 22.9992 68.8336 22.9992 69.0061 23.1717C69.0924 23.2579 69.1786 23.4305 69.1786 23.5167C69.1786 23.6892 69.0924 23.7755 69.0061 23.8617C68.9199 23.948 68.8336 24.0343 68.6611 24.0343Z" fill="#757575"/>
<path d="M70.9043 23.5175C70.9043 23.2588 71.1631 23 71.4218 23C71.6806 23 71.9394 23.2588 71.9394 23.5175C71.9394 23.7763 71.6806 24.0351 71.4218 24.0351C71.1631 24.0351 70.9043 23.7763 70.9043 23.5175Z" fill="#757575"/>
<path d="M74.2675 24.0351C74.1813 24.0351 74.095 24.0351 74.095 24.0351C74.0088 24.0351 74.0088 23.9488 73.9225 23.9488C73.8363 23.8626 73.75 23.6901 73.75 23.6038C73.75 23.4313 73.8363 23.345 73.9225 23.2588C74.0088 23.1725 74.0088 23.1725 74.095 23.1725C74.2675 23.0863 74.5263 23.1725 74.6988 23.2588C74.7851 23.345 74.8713 23.5175 74.8713 23.6038C74.8713 23.7763 74.7851 23.8626 74.6988 23.9488C74.5263 23.9488 74.3538 24.0351 74.2675 24.0351Z" fill="#757575"/>
<path d="M68.6613 28.5195C68.4888 28.5195 68.4025 28.4332 68.3162 28.347C68.3162 28.2607 68.23 28.2607 68.23 28.1744C68.23 28.0882 68.23 28.0019 68.23 28.0019C68.23 27.9157 68.23 27.9157 68.23 27.8294C68.23 27.7432 68.3162 27.7432 68.3162 27.6569C68.4025 27.5706 68.4025 27.5706 68.4888 27.5706C68.6613 27.4844 68.92 27.5706 69.0063 27.6569C69.0926 27.6569 69.0926 27.7432 69.0926 27.8294C69.0926 27.9157 69.0926 27.9157 69.0926 28.0019C69.0926 28.1744 69.0063 28.2607 68.92 28.347C68.92 28.4332 68.8338 28.5195 68.6613 28.5195Z" fill="#757575"/>
<path d="M70.9043 28.0029C70.9043 27.7441 71.1631 27.4854 71.4218 27.4854C71.6806 27.4854 71.9394 27.7441 71.9394 28.0029C71.9394 28.2617 71.6806 28.5204 71.4218 28.5204C71.1631 28.5204 70.9043 28.2617 70.9043 28.0029Z" fill="#757575"/>
<path d="M74.2675 28.5204C74.095 28.5204 74.0088 28.4341 73.9225 28.3479C73.8363 28.2616 73.75 28.0891 73.75 28.0028C73.75 27.9166 73.75 27.9166 73.8363 27.8303C73.8363 27.7441 73.9225 27.7441 73.9225 27.6578C74.095 27.4853 74.2675 27.4853 74.4401 27.5716C74.5263 27.5716 74.5263 27.6578 74.6126 27.6578C74.6126 27.6578 74.6988 27.7441 74.6988 27.8303C74.6988 27.9166 74.6988 27.9166 74.6988 28.0028C74.6988 28.0891 74.6988 28.1754 74.6988 28.1754C74.6988 28.2616 74.6126 28.2616 74.6126 28.3479C74.5263 28.4341 74.3538 28.5204 74.2675 28.5204Z" fill="#757575"/>
<path d="M2.76071 71.3041C2.58819 71.3041 2.50193 71.2178 2.41568 71.1316C2.32942 71.0453 2.32942 71.0453 2.32942 70.959C2.32942 70.8728 2.24316 70.7865 2.24316 70.7865C2.24316 70.7003 2.24316 70.614 2.32942 70.614C2.32942 70.5278 2.41568 70.5278 2.41568 70.4415C2.41568 70.4415 2.50194 70.3552 2.58819 70.3552C2.76071 70.269 3.01948 70.3552 3.19199 70.4415C3.19199 70.5278 3.27825 70.5278 3.27825 70.614C3.27825 70.7003 3.27825 70.7003 3.27825 70.7865C3.27825 70.8728 3.27825 70.959 3.27825 70.959C3.27825 71.0453 3.19199 71.0453 3.19199 71.1316C3.10574 71.2178 3.10574 71.2178 3.01948 71.2178C2.84696 71.2178 2.76071 71.3041 2.76071 71.3041Z" fill="#B8814A"/>
<path d="M5.00342 70.7003C5.00342 70.4415 5.17593 70.1827 5.52096 70.1827C5.77973 70.1827 6.0385 70.3553 6.0385 70.7003C6.0385 70.9591 5.86599 71.2178 5.52096 71.2178C5.26219 71.2178 5.08968 70.9591 5.00342 70.7003ZM7.8499 70.4415C7.8499 70.1827 8.02242 69.924 8.28119 69.8377C8.53996 69.8377 8.79873 70.0102 8.88499 70.269C8.88499 70.5278 8.71248 70.7865 8.45371 70.8728C8.45371 70.8728 8.45371 70.8728 8.36745 70.8728C8.10868 70.9591 7.8499 70.7003 7.8499 70.4415ZM10.6101 70.0965C10.5239 69.8377 10.7827 69.5789 11.0414 69.4927C11.3002 69.4064 11.559 69.5789 11.6452 69.924C11.7315 70.1827 11.559 70.4415 11.2139 70.5278H11.1277C10.8689 70.4415 10.6964 70.269 10.6101 70.0965ZM13.3704 69.4927C13.2841 69.2339 13.4566 68.8889 13.7154 68.8889C13.9742 68.8026 14.3192 68.9751 14.3192 69.2339C14.4055 69.4927 14.2329 69.8377 13.9742 69.8377C13.8879 69.8377 13.8879 69.8377 13.8017 69.8377C13.7154 69.8377 13.4566 69.7515 13.3704 69.4927ZM16.1306 68.7164C16.0443 68.4576 16.2169 68.1988 16.4756 68.0263C16.7344 67.9401 17.0794 68.1126 17.1657 68.3713C17.2519 68.6301 17.0794 68.9751 16.8207 69.0614C16.7344 69.0614 16.7344 69.0614 16.6481 69.0614C16.3894 69.0614 16.2169 68.9751 16.1306 68.7164ZM18.8046 67.7675C18.7183 67.5088 18.8046 67.1637 19.0633 67.0775C19.3221 66.9912 19.6671 67.0775 19.7534 67.3363C19.8397 67.595 19.7534 67.9401 19.4946 68.0263C19.4084 68.0263 19.3221 68.0263 19.3221 68.0263C19.0633 68.1126 18.8908 68.0263 18.8046 67.7675ZM21.3923 66.7325C21.306 66.4737 21.3923 66.1287 21.6511 66.0424C21.9098 65.9561 22.2549 66.0424 22.3411 66.3012C22.4274 66.5599 22.3411 66.905 22.0823 66.9912C21.9961 66.9912 21.9098 66.9912 21.8236 66.9912C21.6511 66.9912 21.4785 66.905 21.3923 66.7325ZM23.98 65.4386C23.8075 65.1798 23.8937 64.9211 24.1525 64.7485C24.4113 64.576 24.7563 64.6623 24.8426 64.9211C24.9288 65.1798 24.8426 65.4386 24.6701 65.6111C24.5838 65.6111 24.4975 65.6974 24.4113 65.6974C24.2388 65.6974 24.0663 65.6111 23.98 65.4386ZM26.3952 64.0585C26.2227 63.7997 26.3089 63.4547 26.5677 63.3684C26.8265 63.1959 27.0853 63.2822 27.2578 63.5409C27.4303 63.7997 27.344 64.1447 27.0853 64.231C26.999 64.3173 26.9127 64.3173 26.8265 64.3173C26.654 64.231 26.4815 64.231 26.3952 64.0585ZM28.7241 62.5059C28.5516 62.2471 28.6379 61.9883 28.8104 61.8158C29.0692 61.6433 29.4142 61.7295 29.5005 61.9021C29.673 62.1608 29.5867 62.4196 29.4142 62.5921C29.3279 62.6784 29.2417 62.6784 29.1554 62.6784C28.9829 62.6784 28.8104 62.5921 28.7241 62.5059ZM30.9668 60.7807C30.7943 60.6082 30.7943 60.2632 31.0531 60.0907C31.3119 59.9181 31.5706 59.9181 31.8294 60.1769C32.0019 60.3494 32.0019 60.6945 31.7431 60.867C31.6569 60.9532 31.5706 60.9532 31.3981 60.9532C31.2256 60.9532 31.1394 60.867 30.9668 60.7807ZM33.1233 58.8831C32.9508 58.7105 32.9508 58.3655 33.1233 58.193C33.2958 58.0205 33.6408 58.0205 33.8133 58.193C33.9858 58.3655 33.9858 58.7105 33.8133 58.8831C33.7271 58.9693 33.5545 59.0556 33.4683 59.0556C33.382 59.0556 33.2095 59.0556 33.1233 58.8831ZM35.1934 56.8991C35.0209 56.7266 34.9347 56.3816 35.1934 56.2091C35.366 56.0366 35.711 55.9503 35.8835 56.2091C36.056 56.3816 36.056 56.7266 35.8835 56.8991C35.7972 56.9854 35.6247 57.0717 35.5385 57.0717C35.3659 57.0717 35.2797 57.0716 35.1934 56.8991ZM37.0911 54.829C36.9186 54.6565 36.8323 54.3114 37.0048 54.1389C37.1774 53.8801 37.5224 53.8801 37.6949 54.0527C37.8674 54.2252 37.9537 54.5702 37.7812 54.829C37.6949 54.9152 37.5224 55.0015 37.3499 55.0015C37.2636 55.0015 37.1774 54.9152 37.0911 54.829ZM38.8162 52.6725C38.5575 52.5 38.5575 52.155 38.73 51.9825C38.9025 51.7237 39.2475 51.7237 39.42 51.8962C39.6788 52.0687 39.6788 52.4138 39.5063 52.5863C39.42 52.7588 39.2475 52.7588 39.075 52.7588C38.9888 52.7588 38.9025 52.6725 38.8162 52.6725ZM40.4551 50.3436C40.1964 50.1711 40.1101 49.9123 40.2826 49.6535C40.4551 49.3948 40.8002 49.3085 40.9727 49.481C41.2314 49.6535 41.3177 49.9123 41.1452 50.1711C41.0589 50.3436 40.8864 50.4298 40.7139 50.4298C40.6276 50.4298 40.5414 50.3436 40.4551 50.3436ZM41.9215 47.9284C41.6627 47.7559 41.5765 47.4971 41.749 47.2383C41.9215 46.9796 42.1803 46.8933 42.439 47.0658C42.6978 47.2383 42.7841 47.4971 42.6116 47.7559C42.5253 47.9284 42.3528 48.0146 42.1803 48.0146C42.094 48.0146 42.0078 47.9284 41.9215 47.9284ZM43.2154 45.4269C42.9566 45.3407 42.8703 44.9956 42.9566 44.7369C43.0428 44.4781 43.3879 44.3918 43.6466 44.4781C43.9054 44.5644 43.9917 44.9094 43.9054 45.1682C43.8192 45.3407 43.6466 45.4269 43.3879 45.4269C43.3879 45.4269 43.3016 45.4269 43.2154 45.4269ZM44.3367 42.8392C44.0779 42.753 43.9054 42.4079 44.0779 42.1492C44.1642 41.8904 44.5092 41.7179 44.768 41.8904C45.0268 41.9766 45.1993 42.3217 45.0268 42.5804C44.9405 42.753 44.768 42.9255 44.5092 42.9255C44.5092 42.8392 44.423 42.8392 44.3367 42.8392ZM45.3718 40.1652C45.113 40.079 44.9405 39.8202 45.0268 39.4752C45.113 39.2164 45.3718 39.0439 45.7168 39.1302C45.9756 39.2164 46.1481 39.4752 46.0618 39.8202C45.9756 40.079 45.8031 40.1652 45.5443 40.1652C45.458 40.2515 45.3718 40.2515 45.3718 40.1652ZM46.1481 37.4913C45.8893 37.405 45.7168 37.1462 45.8031 36.8875C45.8893 36.6287 46.1481 36.4562 46.4069 36.5424C46.6656 36.6287 46.8382 36.8875 46.7519 37.1462C46.6656 37.405 46.4931 37.5775 46.2344 37.5775C46.2344 37.4913 46.2344 37.4913 46.1481 37.4913ZM46.8382 34.731C46.5794 34.6448 46.4069 34.386 46.4069 34.1272C46.4931 33.8685 46.7519 33.696 47.0107 33.696C47.2694 33.7822 47.442 34.041 47.442 34.2998C47.3557 34.5585 47.1832 34.731 46.9244 34.731H46.8382ZM47.2694 31.9708C47.0107 31.9708 46.7519 31.712 46.8382 31.367C46.8382 31.1082 47.0969 30.8495 47.442 30.9357C47.7007 30.9357 47.9595 31.1945 47.8732 31.5395C47.8732 31.7983 47.6145 31.9708 47.2694 31.9708C47.3557 31.9708 47.3557 31.9708 47.2694 31.9708ZM47.6145 29.1243C47.3557 29.1243 47.0969 28.8656 47.0969 28.6068C47.0969 28.348 47.3557 28.0892 47.6145 28.0892C47.8732 28.0892 48.132 28.348 48.132 28.6068C48.132 28.9518 47.8732 29.1243 47.6145 29.1243Z" fill="#B8814A"/>
<path d="M47.7007 26.2778C47.5281 26.2778 47.4419 26.1916 47.3556 26.1053C47.2694 26.0191 47.1831 25.8466 47.1831 25.7603C47.1831 25.674 47.1831 25.5878 47.1831 25.5878C47.1831 25.5015 47.2694 25.5015 47.2694 25.4153C47.4419 25.2428 47.7869 25.2428 47.9594 25.4153C48.0457 25.5015 48.0457 25.5015 48.0457 25.5878C48.0457 25.674 48.0457 25.674 48.0457 25.7603C48.0457 25.9328 47.9594 26.0191 47.8732 26.1053C47.9594 26.1916 47.8732 26.2778 47.7007 26.2778Z" fill="#B8814A"/>
<path d="M44.6811 32.747C44.5086 32.747 44.4223 32.6607 44.3361 32.5745C44.2498 32.4882 44.1636 32.3157 44.1636 32.2295C44.1636 32.1432 44.1636 32.0569 44.2498 32.0569C44.2498 31.9707 44.3361 31.9707 44.3361 31.8844C44.5086 31.7119 44.6811 31.7119 44.8536 31.7982C44.9399 31.7982 44.9399 31.8844 45.0261 31.8844C45.0261 31.8844 45.1124 31.9707 45.1124 32.0569C45.1124 32.1432 45.1124 32.1432 45.1124 32.2295C45.1124 32.402 45.0261 32.4882 44.9399 32.5745C44.9399 32.6607 44.7674 32.747 44.6811 32.747Z" fill="#757575"/>
<path d="M7.84976 64.921C7.84976 64.6622 8.02227 64.4034 8.28104 64.3172C8.53982 64.3172 8.79859 64.4897 8.88484 64.7485C8.88484 65.0072 8.71233 65.266 8.45356 65.3523H8.3673C8.10853 65.4385 7.84976 65.1798 7.84976 64.921ZM7.67725 62.0745C7.67725 61.8157 7.93602 61.557 8.19479 61.557C8.45356 61.557 8.71233 61.8157 8.71233 62.0745C8.71233 62.3333 8.45356 62.592 8.19479 62.592C7.84976 62.592 7.67725 62.3333 7.67725 62.0745ZM8.28104 59.7456C8.02227 59.7456 7.7635 59.4868 7.84976 59.1418C7.84976 58.883 8.10853 58.6242 8.3673 58.7105C8.62607 58.7105 8.88485 58.9692 8.79859 59.3143C8.79859 59.4868 8.53982 59.7456 8.28104 59.7456ZM8.53982 56.8991C8.28105 56.8991 8.10853 56.554 8.10853 56.2953C8.19479 56.0365 8.45356 55.864 8.71233 55.864C8.9711 55.9502 9.14362 56.209 9.14362 56.4678C9.14362 56.7266 8.88485 56.8991 8.62607 56.8991C8.62607 56.8991 8.62608 56.8991 8.53982 56.8991ZM9.14362 54.1388C8.88484 54.0526 8.71233 53.7938 8.79859 53.535C8.88485 53.2763 9.14362 53.1038 9.40239 53.19C9.66116 53.2763 9.83367 53.535 9.74742 53.7938C9.66116 54.0526 9.48865 54.1388 9.22987 54.1388C9.22987 54.1388 9.22987 54.1388 9.14362 54.1388ZM10.0062 51.3786C9.74742 51.2924 9.5749 50.9473 9.74742 50.6886C9.83367 50.4298 10.1787 50.2573 10.4375 50.3435C10.6962 50.4298 10.8688 50.7748 10.6962 51.0336C10.61 51.2061 10.4375 51.3786 10.1787 51.3786C10.0924 51.4649 10.0924 51.3786 10.0062 51.3786ZM11.1275 48.7909C10.8688 48.7046 10.7825 48.3596 10.8688 48.1008C10.955 47.8421 11.3 47.7558 11.5588 47.8421C11.8176 47.9283 11.9038 48.2734 11.8176 48.5321C11.7313 48.7046 11.5588 48.7909 11.3863 48.7909C11.2138 48.7909 11.1275 48.7909 11.1275 48.7909ZM12.4214 46.2894C12.1626 46.1169 12.0764 45.8581 12.2489 45.5994C12.4214 45.3406 12.7664 45.2543 12.9389 45.4269C13.1977 45.5994 13.284 45.8581 13.1114 46.1169C13.0252 46.2894 12.8527 46.3757 12.6802 46.3757C12.5939 46.3757 12.5076 46.2894 12.4214 46.2894ZM13.974 43.8742C13.7152 43.7017 13.7152 43.3567 13.8878 43.0979C14.0603 42.8391 14.4053 42.8391 14.5778 43.0117C14.8366 43.1842 14.8366 43.5292 14.6641 43.7017C14.5778 43.8742 14.4053 43.8742 14.2328 43.8742C14.2328 43.9605 14.1465 43.9605 13.974 43.8742ZM15.7854 41.7178C15.6129 41.5453 15.5266 41.2003 15.7854 41.0277C15.9579 40.8552 16.303 40.769 16.4755 41.0277C16.648 41.2003 16.7342 41.5453 16.4755 41.7178C16.3892 41.8041 16.2167 41.8903 16.1305 41.8903C16.0442 41.8041 15.8717 41.8041 15.7854 41.7178ZM17.7693 39.6476C17.5968 39.4751 17.5968 39.1301 17.7693 38.9576C17.9418 38.7851 18.2869 38.7851 18.4594 38.9576C18.6319 39.1301 18.6319 39.4751 18.4594 39.6476C18.3731 39.7339 18.2006 39.8201 18.1144 39.8201C18.0281 39.8201 17.8556 39.7339 17.7693 39.6476ZM19.9258 37.8362C19.7533 37.5775 19.8395 37.3187 20.012 37.1462C20.2708 36.9737 20.5296 37.0599 20.7021 37.2324C20.8746 37.4912 20.7883 37.75 20.6158 37.9225C20.5296 38.0087 20.4433 38.0087 20.2708 38.0087C20.1845 38.0087 20.0983 37.9225 19.9258 37.8362ZM22.2547 36.1973C22.0822 35.9386 22.1685 35.5935 22.4272 35.5073C22.686 35.3348 23.031 35.421 23.1173 35.6798C23.2898 35.9386 23.2035 36.1973 22.9448 36.3699C22.8585 36.4561 22.7723 36.4561 22.686 36.4561C22.5997 36.4561 22.4272 36.3699 22.2547 36.1973ZM24.7562 34.731C24.6699 34.4722 24.7562 34.1272 25.0149 34.0409C25.2737 33.8684 25.6187 34.0409 25.705 34.2997C25.7913 34.5585 25.705 34.9035 25.4462 34.9897C25.36 34.9897 25.2737 35.076 25.1875 35.076C25.0149 35.076 24.8424 34.9897 24.7562 34.731ZM27.3439 33.6096C27.2576 33.3509 27.3439 33.0058 27.6027 32.9196C27.8614 32.8333 28.2065 32.9196 28.2927 33.1783C28.379 33.4371 28.2927 33.7821 27.9477 33.8684C27.8614 33.8684 27.8614 33.8684 27.7752 33.8684C27.6889 33.9547 27.4301 33.7821 27.3439 33.6096ZM30.1041 32.6608C30.0179 32.402 30.1904 32.057 30.4491 32.057C30.7079 31.9707 30.9667 32.1433 31.0529 32.402C31.1392 32.6608 30.9667 33.0058 30.7079 33.0058C30.7079 33.0058 30.6217 33.0058 30.5354 33.0058C30.3629 33.0921 30.1041 32.9196 30.1041 32.6608ZM32.8643 32.057C32.7781 31.7982 33.0369 31.5395 33.2956 31.4532C33.5544 31.3669 33.8132 31.6257 33.8994 31.8845C33.9857 32.1433 33.7269 32.402 33.4681 32.4883H33.3819C33.1231 32.4883 32.8643 32.3158 32.8643 32.057ZM41.8351 32.2295C41.5763 32.2295 41.3176 31.9707 41.4038 31.6257C41.4038 31.3669 41.6626 31.1082 42.0076 31.1944C42.2664 31.1944 42.5251 31.4532 42.4389 31.7982C42.3526 32.057 42.0939 32.2295 41.8351 32.2295ZM35.6246 31.6257C35.6246 31.3669 35.7971 31.1082 36.1421 31.1082C36.4009 31.1082 36.6597 31.2807 36.6597 31.5395C36.6597 31.7982 36.4871 32.057 36.2284 32.1433C35.8833 32.1433 35.7108 31.9707 35.6246 31.6257ZM38.9886 32.057C38.7298 32.057 38.4711 31.7982 38.4711 31.5395C38.4711 31.2807 38.7298 31.0219 38.9886 31.0219C39.2474 31.0219 39.5062 31.2807 39.5062 31.5395C39.5062 31.7982 39.3336 32.057 38.9886 32.057Z" fill="#757575"/>
<path d="M8.7988 68.285C8.62628 68.285 8.54002 68.1988 8.45377 68.1125C8.36751 68.0263 8.28125 67.8537 8.28125 67.7675C8.28125 67.6812 8.28125 67.595 8.28125 67.595C8.28125 67.5087 8.36751 67.5087 8.36751 67.4225C8.45377 67.3362 8.45377 67.3362 8.54002 67.3362C8.71254 67.2499 8.97131 67.3362 9.05757 67.4225C9.14382 67.4225 9.14382 67.5087 9.14382 67.595C9.14382 67.6812 9.23008 67.6812 9.23008 67.7675C9.23008 67.8537 9.23008 67.94 9.14382 67.94C9.14382 68.0263 9.05757 68.0263 9.05757 68.1125C9.05757 68.1988 8.88505 68.285 8.7988 68.285Z" fill="#757575"/>
<path d="M29.845 35.5935C29.5863 35.5935 29.4138 35.421 29.3275 35.2485C29.2412 34.9897 29.3275 34.7309 29.6725 34.6447H29.7588C30.0176 34.5584 30.3626 34.7309 30.3626 34.9897C30.4488 35.2485 30.2763 35.5073 30.0176 35.5935C29.9313 35.5935 29.845 35.5935 29.845 35.5935Z" fill="#B8814A"/>
<path d="M11.5585 55.9503L11.041 55.864L10.5234 55.7778C10.6097 55.519 10.8685 55.3465 11.1272 55.3465C11.386 55.4328 11.5585 55.6915 11.5585 55.9503Z" fill="#B8814A"/>
<path d="M17.597 43.5292C17.4245 43.5292 17.3382 43.4429 17.2519 43.3567C17.0794 43.1842 17.0794 42.8391 17.2519 42.6666C17.4245 42.4079 17.7695 42.4079 17.942 42.5804C18.2008 42.7529 18.2008 43.0979 18.0283 43.3567L17.942 43.4429C17.942 43.4429 17.7695 43.5292 17.597 43.5292Z" fill="#B8814A"/>
<path d="M10.9548 67.8538C10.6961 67.8538 10.5236 67.6813 10.4373 67.4225C10.0923 65.5248 9.8335 63.6272 9.8335 61.7295C9.8335 59.7456 10.006 57.7617 10.4373 55.7778C11.4724 50.8611 13.8013 46.3757 17.1654 42.6667C20.5294 38.9576 24.8422 36.1974 29.5864 34.6447C34.3305 33.0921 39.4197 32.8333 44.3364 33.8684C44.5951 33.9547 44.7677 34.2135 44.7677 34.4722C44.6814 34.731 44.4226 34.9035 44.1639 34.9035C39.4197 33.8684 34.5031 34.1272 30.0177 35.5936C25.446 37.0599 21.3057 39.7339 18.1142 43.2705C14.8364 46.8933 12.5937 51.2061 11.6449 55.9503C11.2136 57.8479 11.0411 59.8318 11.0411 61.7295C11.0411 63.6272 11.2136 65.4386 11.5586 67.25C11.6449 67.5087 11.4724 67.7675 11.1274 67.8538C11.0411 67.8538 11.0411 67.8538 10.9548 67.8538Z" fill="#B8814A"/>
<path d="M22.1683 63.9722C21.9095 63.9722 21.6507 63.7997 21.6507 63.5409C21.5645 62.9371 21.5645 62.3333 21.5645 61.7295C21.5645 61.4708 21.8232 61.212 22.082 61.212C22.3408 61.212 22.5995 61.4708 22.5995 61.7295C22.5995 62.2471 22.5995 62.8509 22.6858 63.3684C22.6858 63.7134 22.5133 63.886 22.1683 63.9722Z" fill="#B8814A"/>
<path d="M22.082 62.247C21.8232 62.247 21.5645 61.9882 21.5645 61.7295C21.5645 52.4137 29.1551 44.9093 38.3846 44.9093C38.6434 44.9093 38.9021 45.1681 38.9021 45.4268C38.9021 45.6856 38.6434 45.9444 38.3846 45.9444C29.6726 45.9444 22.5995 53.0175 22.5995 61.7295C22.5995 62.0745 22.3408 62.247 22.082 62.247Z" fill="#B8814A"/>
<path d="M40.1961 46.0306C39.5061 45.9444 38.9023 45.9444 38.3847 45.9444C38.126 45.9444 37.8672 45.6856 37.8672 45.4268C37.8672 45.1681 38.126 44.9093 38.3847 44.9093C38.9885 44.9093 39.6786 44.9093 40.2824 44.9956C40.5412 44.9956 40.7999 45.2543 40.7137 45.5994C40.7137 45.8581 40.4549 46.0306 40.1961 46.0306Z" fill="#B8814A"/>
<path d="M21.5645 64.3172H21.4782L10.0923 61.8157L21.9095 59.228C22.1683 59.1417 22.4271 59.3142 22.5133 59.6593C22.5996 59.918 22.4271 60.1768 22.082 60.2631L14.8364 61.9019L21.6507 63.4546C21.9095 63.5408 22.082 63.7996 22.082 64.0584C21.9958 64.1446 21.737 64.3172 21.5645 64.3172Z" fill="#B8814A"/>
<path d="M21.9094 60.1768C21.8231 60.1768 21.6506 60.1768 21.5644 60.0043C19.9255 58.538 19.4079 58.5379 18.5454 58.6242C18.0278 58.6242 17.424 58.7105 16.4752 58.4517C15.3538 58.1929 14.75 57.6754 14.2325 57.2441C13.5424 56.6403 13.0249 56.209 11.041 56.3815C10.7822 56.3815 10.5234 56.209 10.5234 55.864C10.5234 55.6052 10.696 55.3464 11.041 55.3464C13.4562 55.1739 14.2325 55.864 15.0088 56.4678C15.4401 56.8991 15.8714 57.2441 16.8202 57.4166C17.5965 57.5891 18.1141 57.5891 18.6316 57.5891C19.753 57.5029 20.5293 57.5891 22.3407 59.228C22.5132 59.4005 22.5994 59.7455 22.3407 59.9181C22.1682 60.0906 22.0819 60.1768 21.9094 60.1768Z" fill="#B8814A"/>
<path d="M11.0413 56.3815C10.8687 56.3815 10.7825 56.2953 10.61 56.209C10.4375 55.9502 10.4375 55.6915 10.6962 55.5189C13.284 53.4488 14.4053 53.6213 15.9579 54.3113C16.3892 54.4839 16.7342 54.6564 17.2518 54.7426C18.0281 54.9151 18.4594 54.8289 18.9769 54.6564C19.8395 54.4839 20.8746 54.3113 23.376 55.1739C23.6348 55.2602 23.8073 55.6052 23.7211 55.864C23.6348 56.1227 23.2898 56.2953 23.031 56.209C20.7883 55.4327 20.012 55.5189 19.2357 55.6915C18.6319 55.7777 18.1144 55.9502 17.1655 55.7777C16.5617 55.6915 16.0442 55.4327 15.6129 55.2602C14.4916 54.8289 13.7152 54.4839 11.3863 56.3815C11.3 56.2953 11.1275 56.3815 11.0413 56.3815Z" fill="#B8814A"/>
<path d="M11.0411 56.3816C10.7824 56.3816 10.6098 56.209 10.5236 56.0365C10.4373 55.864 10.5236 55.6052 10.6961 55.4327C10.9549 55.2602 11.2999 55.2602 11.4724 55.519C11.6449 55.6915 11.6449 55.9503 11.5587 56.1228C11.3862 56.2953 11.2136 56.3816 11.0411 56.3816Z" fill="#B8814A"/>
<path d="M23.2038 55.9503C23.1175 55.9503 22.945 55.864 22.8588 55.7777L13.8018 47.5833L25.274 51.2061C25.5327 51.2924 25.7053 51.5511 25.619 51.8962C25.5327 52.1549 25.274 52.3275 24.9289 52.2412L17.8558 49.9985L23.4626 55.0877C23.6351 55.2602 23.7213 55.6052 23.4626 55.7777C23.4626 55.9503 23.3763 55.9503 23.2038 55.9503Z" fill="#B8814A"/>
<path d="M17.5966 43.5292C17.5104 43.5292 17.4241 43.5292 17.3379 43.4429C17.1654 43.3567 16.9928 43.0979 17.0791 42.9254C17.0791 42.6666 17.2516 42.4941 17.5104 42.4941C17.7692 42.4078 18.1142 42.6666 18.1142 42.9254C18.1142 43.1841 18.0279 43.3567 17.8554 43.4429C17.8554 43.4429 17.6829 43.5292 17.5966 43.5292Z" fill="#B8814A"/>
<path d="M25.1876 52.2412C24.9288 52.2412 24.7563 52.0687 24.67 51.8962C23.98 49.826 23.5487 49.5672 22.7724 49.2222C22.3411 48.9634 21.7373 48.7047 21.0472 48.0146C20.1846 47.2383 19.9259 46.462 19.7534 45.8582C19.4946 44.9956 19.2358 44.3918 17.4244 43.443C17.1656 43.3567 17.0794 43.0117 17.1656 42.7529C17.2519 42.4941 17.5969 42.4079 17.8557 42.4941C20.0121 43.5292 20.3572 44.5643 20.7022 45.4269C20.8747 46.0307 21.1335 46.5482 21.7373 47.152C22.3411 47.7558 22.7724 47.9283 23.2037 48.1871C24.2387 48.7047 24.8425 49.1359 25.6189 51.4649C25.7051 51.7237 25.5326 52.0687 25.2738 52.1549C25.2738 52.2412 25.2738 52.2412 25.1876 52.2412Z" fill="#B8814A"/>
<path d="M28.2922 49.3085C28.1197 49.3085 28.0334 49.2222 27.8609 49.1359C26.3945 47.3245 25.532 47.0658 24.8419 46.807C24.3244 46.6345 23.7206 46.462 23.0305 45.7719C22.5992 45.3406 22.2542 44.9956 21.9954 44.5643C21.2191 43.6155 20.7878 42.9254 17.8551 43.443C17.5963 43.5292 17.3375 43.2705 17.2513 43.0117C17.0788 42.7529 17.2513 42.4941 17.5963 42.4941C20.8741 41.9766 21.7366 42.7529 22.7717 44.0468C23.0305 44.3918 23.2893 44.7368 23.7206 45.0819C24.3244 45.5994 24.7556 45.6857 25.1869 45.8582C26.0495 46.1169 26.9983 46.462 28.7235 48.5321C28.896 48.7909 28.896 49.0497 28.6372 49.2222C28.4647 49.3085 28.3784 49.3085 28.2922 49.3085Z" fill="#B8814A"/>
<path d="M28.3789 49.2222C28.1202 49.2222 27.9477 49.0497 27.8614 48.8771L24.1523 37.2324L32.3468 46.1169C32.5193 46.2894 32.5193 46.6345 32.3468 46.807C32.1743 46.9795 31.8292 46.9795 31.6567 46.807L26.6538 41.3728L28.8965 48.6184C28.9827 48.8771 28.8102 49.2222 28.5515 49.3084C28.4652 49.2222 28.4652 49.2222 28.3789 49.2222Z" fill="#B8814A"/>
<path d="M32.002 46.9795H31.9157C31.657 46.8932 31.4845 46.6345 31.4845 46.3757C31.9157 44.2193 31.657 43.788 31.2257 43.0979C30.9669 42.6666 30.6219 42.1491 30.2769 41.2003C29.9318 40.0789 30.1043 39.3026 30.1906 38.6988C30.3631 37.8362 30.4494 37.1462 29.328 35.5073C29.1555 35.2485 29.2418 34.9897 29.5005 34.8172C29.7593 34.6447 30.0181 34.731 30.1906 34.9897C31.5707 36.9737 31.3119 38.0087 31.1394 38.9576C31.0532 39.5614 30.9669 40.0789 31.2257 41.0278C31.4845 41.8041 31.7432 42.2353 32.002 42.6666C32.6058 43.6155 32.9508 44.3055 32.4333 46.7207C32.4333 46.807 32.2608 46.9795 32.002 46.9795Z" fill="#B8814A"/>
<path d="M29.7592 35.5935C29.5866 35.5935 29.4141 35.5073 29.3279 35.3347C29.2416 35.1622 29.2416 34.9035 29.3279 34.7309C29.5004 34.5584 29.6729 34.4722 29.9317 34.5584L29.8454 34.9897L30.1904 34.7309C30.363 34.9897 30.2767 35.3348 30.0179 35.421C30.0179 35.5935 29.8454 35.5935 29.7592 35.5935Z" fill="#B8814A"/>
<path d="M36.0558 46.0306C35.797 46.0306 35.6245 45.8581 35.5383 45.5994C35.107 43.2704 34.5894 42.6666 34.0719 42.0628C33.7269 41.6315 33.2956 41.2002 32.9505 40.2514C32.778 39.6476 32.6918 39.1301 32.6055 38.6988C32.433 37.4912 32.3467 36.7149 29.5865 35.5935C29.3277 35.5073 29.1552 35.1622 29.3277 34.9035C29.414 34.6447 29.759 34.4722 30.0178 34.6447C33.1231 35.8523 33.4681 36.9736 33.7269 38.5263C33.8131 38.9576 33.8131 39.3888 33.9856 39.9064C34.2444 40.5964 34.5032 40.9415 34.8482 41.3728C35.452 42.0628 36.1421 42.8391 36.5733 45.4268C36.6596 45.6856 36.4008 45.9444 36.1421 46.0306C36.1421 46.0306 36.1421 46.0306 36.0558 46.0306Z" fill="#B8814A"/>
<path d="M36.228 45.9444H36.1417C35.883 45.8581 35.7104 45.5993 35.7104 45.3406L38.3844 33.4371L40.9721 45.0818C41.0584 45.3406 40.8859 45.5993 40.5409 45.6856C40.2821 45.7718 40.0233 45.5993 39.9371 45.2543L38.3844 38.1812L36.7455 45.5993C36.6593 45.7718 36.4868 45.9444 36.228 45.9444Z" fill="#B8814A"/>
<path d="M22.082 62.2471H19.8393C19.5805 62.2471 19.3218 61.9883 19.3218 61.7295C19.3218 61.4708 19.5805 61.212 19.8393 61.212H22.082C22.3408 61.212 22.5996 61.4708 22.5996 61.7295C22.5996 62.0746 22.3408 62.2471 22.082 62.2471Z" fill="#B8814A"/>
<path d="M22.5138 58.3655C22.3413 58.3655 22.255 58.2793 22.1688 58.193C22.1688 58.193 21.22 57.2442 20.2711 56.9854C20.0124 56.8992 19.8398 56.6404 19.8398 56.3816C19.9261 56.1228 20.1849 55.9503 20.4436 55.9503C21.6512 56.2091 22.7726 57.3304 22.8588 57.4167C23.0314 57.5892 23.0314 57.9342 22.8588 58.1067C22.7726 58.3655 22.6863 58.3655 22.5138 58.3655Z" fill="#B8814A"/>
<path d="M24.2385 54.1389C24.1523 54.1389 24.066 54.1389 23.9797 54.0526L22.0821 52.9313C21.8233 52.7588 21.7371 52.5 21.9096 52.2412C22.0821 51.9824 22.3409 51.8962 22.5996 52.0687L24.4973 53.19C24.7561 53.3626 24.8423 53.6213 24.6698 53.8801C24.5835 54.0526 24.411 54.1389 24.2385 54.1389Z" fill="#B8814A"/>
<path d="M26.5675 50.9473C26.3087 50.9473 26.1362 50.7748 26.05 50.6023C26.05 50.6023 25.7049 49.3084 25.0149 48.6184C24.8424 48.4459 24.7561 48.1008 25.0149 47.9283C25.1874 47.7558 25.5324 47.6696 25.7049 47.9283C26.6538 48.7909 27.0851 50.3435 27.0851 50.4298C27.1713 50.6886 26.9988 50.9473 26.74 51.0336C26.6538 50.9473 26.6538 50.9473 26.5675 50.9473Z" fill="#B8814A"/>
<path d="M30.1902 48.1009C30.0177 48.1009 29.8452 48.0146 29.7589 47.8421L28.6376 45.9444C28.4651 45.6857 28.5513 45.3406 28.8101 45.2544C29.0689 45.0818 29.4139 45.1681 29.5002 45.4269L30.6215 47.3245C30.794 47.5833 30.7078 47.9283 30.449 48.0146C30.449 48.1009 30.2765 48.1009 30.1902 48.1009Z" fill="#B8814A"/>
<path d="M33.8134 46.6345C33.7272 46.6345 33.7272 46.6345 33.6409 46.6345C33.3821 46.5482 33.2096 46.2895 33.2959 46.0307C33.2959 46.0307 33.6409 44.7368 33.3821 43.788C33.2959 43.5292 33.4684 43.1842 33.7272 43.0979C33.9859 43.0117 34.331 43.1842 34.4172 43.443C34.7623 44.6506 34.4172 46.2032 34.331 46.2895C34.2447 46.462 34.0722 46.6345 33.8134 46.6345Z" fill="#B8814A"/>
<path d="M38.3847 45.9445C38.126 45.9445 37.8672 45.6857 37.8672 45.4269V43.1842C37.8672 42.9255 38.126 42.6667 38.3847 42.6667C38.6435 42.6667 38.9023 42.9255 38.9023 43.1842V45.4269C38.9023 45.6857 38.6435 45.9445 38.3847 45.9445Z" fill="#B8814A"/>
<path d="M2.7612 68.8026C2.50242 68.8026 2.24365 68.5438 2.24365 68.285C2.24365 68.0262 2.50242 67.7675 2.7612 67.7675C25.8781 67.7675 44.7685 48.9634 44.7685 25.7602C44.7685 25.5014 45.0272 25.2427 45.286 25.2427C45.5448 25.2427 45.8035 25.5014 45.8035 25.7602C45.7173 49.4809 26.4819 68.8026 2.7612 68.8026Z" fill="#B8814A"/>
<path d="M58.3968 48.2733L56.9304 42.4941L51.0649 42.0628L56.0679 38.9576L54.6015 33.2646L59.0869 37.0599L64.0898 33.9546L61.9334 39.3888L66.4187 43.1842L60.5532 42.7529L58.3968 48.2733ZM54.3427 41.2865L57.793 41.5453L58.6556 44.9093L59.9494 41.7178L63.3997 41.9766L60.7258 39.7339L62.0196 36.5424L59.0869 38.3538L56.4129 36.1111L57.2755 39.4751L54.3427 41.2865Z" fill="#B8814A"/>
<path d="M20.0983 90.0219L16.303 85.5365L10.8688 87.6929L13.974 82.69L10.1787 78.2046L15.8717 79.671L18.9769 74.6681L19.4082 80.5336L25.1012 82L19.667 84.1564L20.0983 90.0219ZM16.648 84.3289L18.8907 87.0029L18.6319 83.5526L21.8234 82.2587L18.4594 81.3961L18.2006 77.9459L16.3892 80.8786L13.0252 80.016L15.2679 82.69L13.4565 85.6228L16.648 84.3289Z" fill="#B8814A"/>
<path d="M267.916 26.2778H251.699C251.44 26.2778 251.182 26.019 251.182 25.7602C251.182 25.5014 251.44 25.2427 251.699 25.2427H267.916C268.174 25.2427 268.433 25.5014 268.433 25.7602C268.433 26.019 268.174 26.2778 267.916 26.2778Z" fill="#B8814A"/>
<path d="M247.3 26.2777C247.214 26.2777 247.214 26.2777 247.127 26.1915C247.041 26.1915 247.041 26.1052 246.955 26.1052C246.868 26.019 246.782 25.8464 246.782 25.7602C246.782 25.5877 246.868 25.5014 246.955 25.4152C247.127 25.2426 247.472 25.2426 247.731 25.4152C247.817 25.5014 247.904 25.6739 247.904 25.7602C247.904 25.8464 247.904 25.9327 247.904 25.9327C247.904 26.019 247.817 26.019 247.817 26.1052C247.731 26.1915 247.731 26.1915 247.645 26.1915C247.386 26.2777 247.386 26.2777 247.3 26.2777Z" fill="#B8814A"/>
<path d="M243.936 25.7602C243.936 25.5014 244.195 25.2427 244.454 25.2427C244.713 25.2427 244.971 25.5014 244.971 25.7602C244.971 26.019 244.713 26.2778 244.454 26.2778C244.195 26.2778 243.936 26.019 243.936 25.7602ZM241.176 25.7602C241.176 25.5014 241.435 25.2427 241.694 25.2427C241.952 25.2427 242.211 25.5014 242.211 25.7602C242.211 26.019 241.952 26.2778 241.694 26.2778C241.435 26.2778 241.176 26.019 241.176 25.7602ZM238.33 25.7602C238.33 25.5014 238.588 25.2427 238.847 25.2427C239.106 25.2427 239.365 25.5014 239.365 25.7602C239.365 26.019 239.106 26.2778 238.847 26.2778C238.588 26.2778 238.33 26.019 238.33 25.7602Z" fill="#B8814A"/>
<path d="M236.086 26.2769C235.914 26.2769 235.828 26.1907 235.741 26.1044C235.655 26.0182 235.569 25.8456 235.569 25.7594C235.569 25.5869 235.655 25.5006 235.741 25.4144C235.914 25.2418 236.259 25.2418 236.431 25.4144C236.518 25.5006 236.604 25.6731 236.604 25.7594C236.604 25.8456 236.604 25.9319 236.604 25.9319C236.604 26.0182 236.518 26.0182 236.518 26.1044C236.345 26.1907 236.259 26.2769 236.086 26.2769Z" fill="#B8814A"/>
<path d="M244.453 28.5205C244.367 28.5205 244.28 28.5205 244.28 28.5205C244.194 28.5205 244.194 28.4342 244.108 28.4342C244.021 28.348 244.021 28.348 244.021 28.2617C244.021 28.1754 244.021 28.0892 244.021 28.0892C244.021 28.0029 244.021 28.0029 244.021 27.9167C244.021 27.8304 244.108 27.8304 244.108 27.7442C244.194 27.6579 244.194 27.6579 244.28 27.6579C244.453 27.5716 244.539 27.5716 244.712 27.6579C244.798 27.6579 244.798 27.7442 244.884 27.7442C244.97 27.7442 244.97 27.8304 244.97 27.9167C244.97 28.0029 244.97 28.0029 244.97 28.0892C244.97 28.1754 244.97 28.2617 244.97 28.2617C244.97 28.348 244.884 28.348 244.884 28.4342C244.798 28.4342 244.798 28.5205 244.712 28.5205C244.625 28.5205 244.539 28.5205 244.453 28.5205Z" fill="#757575"/>
<path d="M241.175 28.0029C241.175 27.7441 241.434 27.4854 241.693 27.4854C241.952 27.4854 242.21 27.7441 242.21 28.0029C242.21 28.2617 241.952 28.5204 241.693 28.5204C241.434 28.5204 241.175 28.2617 241.175 28.0029Z" fill="#757575"/>
<path d="M238.847 28.5206C238.674 28.5206 238.588 28.4343 238.502 28.348C238.415 28.2618 238.415 28.2618 238.415 28.1755C238.415 28.0893 238.329 28.003 238.329 28.003C238.329 27.9168 238.415 27.7442 238.502 27.658C238.674 27.4855 238.847 27.4855 239.019 27.5717C239.105 27.5717 239.105 27.658 239.192 27.658C239.278 27.7442 239.364 27.9168 239.364 28.003C239.364 28.1755 239.278 28.2618 239.192 28.348C239.105 28.348 239.105 28.4343 239.019 28.4343C239.019 28.5206 238.933 28.5206 238.847 28.5206Z" fill="#757575"/>
<path d="M244.453 24.0351C244.366 24.0351 244.28 24.0351 244.28 24.0351C244.194 24.0351 244.194 23.9488 244.108 23.9488C244.021 23.8625 243.935 23.69 243.935 23.6038C243.935 23.4313 244.021 23.345 244.108 23.2587C244.194 23.1725 244.194 23.1725 244.28 23.1725C244.453 23.0862 244.539 23.0862 244.711 23.1725C244.798 23.1725 244.798 23.2587 244.884 23.2587C244.97 23.345 245.056 23.5175 245.056 23.6038C245.056 23.7763 244.97 23.8625 244.884 23.9488C244.798 24.0351 244.798 24.0351 244.711 24.0351C244.625 24.0351 244.539 24.0351 244.453 24.0351Z" fill="#757575"/>
<path d="M241.175 23.5175C241.175 23.2588 241.434 23 241.693 23C241.952 23 242.21 23.2588 242.21 23.5175C242.21 23.7763 241.952 24.0351 241.693 24.0351C241.434 24.0351 241.175 23.7763 241.175 23.5175Z" fill="#757575"/>
<path d="M238.847 24.0341C238.674 24.0341 238.588 23.9479 238.502 23.8616C238.415 23.7753 238.415 23.7753 238.415 23.6891C238.415 23.6028 238.329 23.6028 238.329 23.5166C238.329 23.3441 238.415 23.2578 238.502 23.1715C238.502 23.1715 238.588 23.0853 238.674 23.0853C238.847 22.999 239.105 23.0853 239.278 23.1715C239.364 23.2578 239.45 23.4303 239.45 23.5166C239.45 23.6028 239.45 23.6891 239.45 23.6891C239.45 23.7753 239.364 23.7753 239.364 23.8616C239.192 23.9479 239.019 24.0341 238.847 24.0341Z" fill="#757575"/>
<path d="M310.44 85.019C310.182 85.019 309.923 84.7602 309.923 84.5014V68.2851C309.923 68.0263 310.182 67.7675 310.44 67.7675C310.699 67.7675 310.958 68.0263 310.958 68.2851V84.5014C310.958 84.7602 310.699 85.019 310.44 85.019Z" fill="#B8814A"/>
<path d="M310.44 89.418C310.268 89.418 310.181 89.3317 310.095 89.2455C310.009 89.1592 309.923 88.9867 309.923 88.9005C309.923 88.8142 309.923 88.7279 309.923 88.7279C309.923 88.6417 310.009 88.6417 310.009 88.5554C310.095 88.4692 310.095 88.4692 310.181 88.4692C310.354 88.3829 310.44 88.3829 310.613 88.4692C310.699 88.4692 310.699 88.5554 310.785 88.5554C310.785 88.5554 310.871 88.6417 310.871 88.7279C310.871 88.8142 310.871 88.9005 310.871 88.9005C310.871 88.9867 310.871 89.073 310.871 89.073C310.871 89.1592 310.785 89.1592 310.785 89.2455C310.699 89.3317 310.526 89.418 310.44 89.418Z" fill="#B8814A"/>
<path d="M309.922 97.2674C309.922 97.0086 310.181 96.7498 310.44 96.7498C310.699 96.7498 310.957 97.0086 310.957 97.2674C310.957 97.5262 310.699 97.7849 310.44 97.7849C310.095 97.7849 309.922 97.6124 309.922 97.2674ZM309.922 94.5072C309.922 94.2484 310.181 93.9896 310.44 93.9896C310.699 93.9896 310.957 94.2484 310.957 94.5072C310.957 94.7659 310.699 95.0247 310.44 95.0247C310.095 95.0247 309.922 94.7659 309.922 94.5072ZM309.922 91.6607C309.922 91.4019 310.181 91.1431 310.44 91.1431C310.699 91.1431 310.957 91.4019 310.957 91.6607C310.957 91.9194 310.699 92.1782 310.44 92.1782C310.095 92.1782 309.922 92.0057 309.922 91.6607Z" fill="#B8814A"/>
<path d="M310.44 100.631C310.267 100.631 310.181 100.545 310.095 100.459C310.009 100.373 309.922 100.2 309.922 100.114C309.922 100.028 309.922 99.9413 309.922 99.9413C309.922 99.8551 310.009 99.8551 310.009 99.7688C310.095 99.6825 310.095 99.6826 310.181 99.6826C310.354 99.5963 310.44 99.5963 310.612 99.6826C310.699 99.6826 310.699 99.7688 310.785 99.7688C310.785 99.7688 310.871 99.8551 310.871 99.9413C310.871 100.028 310.871 100.028 310.871 100.114C310.871 100.286 310.785 100.373 310.699 100.459C310.699 100.545 310.526 100.631 310.44 100.631Z" fill="#B8814A"/>
<path d="M312.683 92.1783C312.597 92.1783 312.51 92.1783 312.51 92.1783C312.424 92.1783 312.424 92.092 312.338 92.092C312.252 92.0058 312.165 91.8333 312.165 91.747C312.165 91.5745 312.252 91.4882 312.338 91.402C312.51 91.2295 312.855 91.2295 313.028 91.402C313.114 91.4882 313.114 91.4882 313.114 91.5745C313.114 91.6607 313.2 91.747 313.2 91.747C313.2 91.9195 313.114 92.0058 313.028 92.092C312.942 92.1783 312.769 92.1783 312.683 92.1783Z" fill="#757575"/>
<path d="M312.165 94.5072C312.165 94.2484 312.424 93.9896 312.683 93.9896C312.941 93.9896 313.2 94.2484 313.2 94.5072C313.2 94.7659 312.941 95.0247 312.683 95.0247C312.338 95.0247 312.165 94.7659 312.165 94.5072Z" fill="#757575"/>
<path d="M312.683 97.785C312.596 97.785 312.51 97.785 312.51 97.6987C312.424 97.6987 312.424 97.6125 312.338 97.6125C312.251 97.6125 312.251 97.5262 312.251 97.44C312.251 97.3537 312.251 97.2674 312.251 97.2674C312.251 97.1812 312.251 97.0949 312.251 97.0949C312.251 97.0087 312.338 97.0087 312.338 96.9224C312.51 96.7499 312.855 96.7499 313.028 96.9224C313.114 97.0087 313.2 97.1812 313.2 97.2674C313.2 97.3537 313.2 97.44 313.114 97.44C313.114 97.5262 313.028 97.5262 313.028 97.6125C312.942 97.785 312.769 97.785 312.683 97.785Z" fill="#757575"/>
<path d="M308.197 92.1782C308.024 92.1782 307.938 92.092 307.852 92.0057C307.766 91.9195 307.766 91.9195 307.766 91.8332C307.766 91.7469 307.766 91.6607 307.766 91.6607C307.766 91.4882 307.852 91.4019 307.938 91.3157C308.111 91.1432 308.456 91.1432 308.714 91.3157C308.801 91.4019 308.887 91.5744 308.887 91.6607C308.887 91.8332 308.801 91.9195 308.714 92.0057C308.456 92.1782 308.283 92.1782 308.197 92.1782Z" fill="#757575"/>
<path d="M307.68 94.5072C307.68 94.2485 307.938 93.9897 308.197 93.9897C308.456 93.9897 308.715 94.2485 308.715 94.5072C308.715 94.766 308.456 95.0248 308.197 95.0248C307.852 95.0248 307.68 94.766 307.68 94.5072Z" fill="#757575"/>
<path d="M308.197 97.785C308.025 97.785 307.938 97.6987 307.852 97.6124C307.766 97.5262 307.68 97.3537 307.68 97.2674C307.68 97.1811 307.68 97.0949 307.68 97.0949C307.68 97.0086 307.766 97.0086 307.766 96.9224C307.852 96.9224 307.852 96.8361 307.938 96.8361C308.111 96.7499 308.197 96.7499 308.37 96.8361C308.456 96.8361 308.456 96.9224 308.542 96.9224C308.629 97.0086 308.715 97.1811 308.715 97.2674C308.715 97.3537 308.715 97.4399 308.715 97.4399C308.715 97.5262 308.628 97.5262 308.628 97.6124C308.456 97.7849 308.283 97.785 308.197 97.785Z" fill="#757575"/>
<path d="M265.414 26.2778C265.328 26.2778 265.241 26.2778 265.241 26.1915C265.155 26.1915 265.155 26.1053 265.069 26.1053C265.069 26.1053 264.983 26.019 264.983 25.9328C264.983 25.8465 264.983 25.7602 264.983 25.7602V25.5877C264.983 25.5015 265.069 25.5015 265.069 25.4152C265.241 25.2427 265.586 25.2427 265.759 25.4152C265.845 25.5015 265.845 25.5015 265.845 25.5877C265.845 25.674 265.931 25.674 265.931 25.7602C265.931 25.8465 265.931 25.9328 265.845 25.9328C265.845 26.019 265.759 26.019 265.759 26.1053C265.759 26.1915 265.673 26.1915 265.586 26.1915C265.586 26.2778 265.5 26.2778 265.414 26.2778Z" fill="#B8814A"/>
<path d="M307.507 71.2178C307.248 71.2178 306.989 70.9591 306.989 70.7003C306.989 70.4415 307.248 70.1827 307.507 70.1827C307.766 70.1827 308.025 70.4415 308.025 70.7003C308.025 70.9591 307.852 71.2178 307.507 71.2178ZM304.66 70.8728C304.402 70.8728 304.143 70.614 304.229 70.269C304.229 70.0102 304.488 69.7515 304.833 69.8377C305.092 69.8377 305.264 70.0965 305.264 70.4415C305.178 70.7003 305.006 70.8728 304.66 70.8728C304.66 70.8728 304.747 70.8728 304.66 70.8728ZM301.814 70.4415C301.555 70.3553 301.383 70.0965 301.383 69.8377C301.469 69.5789 301.728 69.4064 301.987 69.4064C302.245 69.4927 302.418 69.7515 302.418 70.0102C302.418 70.269 302.159 70.4415 301.9 70.4415C301.9 70.4415 301.9 70.4415 301.814 70.4415ZM299.054 69.8377C298.795 69.7515 298.622 69.4927 298.709 69.2339C298.795 68.9751 299.054 68.8026 299.313 68.8889C299.571 68.9751 299.744 69.2339 299.658 69.4927C299.571 69.7515 299.399 69.924 299.14 69.924C299.14 69.8377 299.14 69.8377 299.054 69.8377ZM296.294 69.0614C296.035 68.9751 295.862 68.7164 295.949 68.3713C296.035 68.1126 296.38 67.9401 296.639 68.0263C296.897 68.1126 297.07 68.3713 296.984 68.7164C296.897 68.8889 296.725 69.0614 296.466 69.0614C296.38 69.0614 296.38 69.0614 296.294 69.0614ZM293.62 68.1126C293.361 68.0263 293.188 67.6813 293.361 67.4225C293.447 67.1637 293.792 66.9912 294.051 67.1637C294.31 67.25 294.482 67.595 294.31 67.8538C294.223 68.0263 294.051 68.1988 293.792 68.1988C293.792 68.1126 293.706 68.1126 293.62 68.1126ZM291.032 66.905C290.773 66.7325 290.687 66.4737 290.773 66.2149C290.859 65.9561 291.204 65.8699 291.463 65.9561C291.722 66.0424 291.808 66.3874 291.722 66.6462C291.636 66.8187 291.463 66.905 291.291 66.905C291.118 66.9912 291.118 66.9912 291.032 66.905ZM288.444 65.6111C288.185 65.4386 288.099 65.1798 288.272 64.9211C288.444 64.6623 288.703 64.576 288.962 64.7485C289.22 64.9211 289.307 65.1798 289.134 65.4386C289.048 65.6111 288.875 65.6974 288.703 65.6974C288.617 65.6974 288.53 65.6974 288.444 65.6111ZM286.029 64.1447C285.77 63.9722 285.684 63.7135 285.856 63.4547C286.029 63.1959 286.288 63.1097 286.546 63.2822C286.805 63.4547 286.891 63.7135 286.719 63.9722C286.633 64.1447 286.46 64.231 286.288 64.231C286.201 64.231 286.115 64.231 286.029 64.1447ZM283.614 62.5921C283.355 62.4196 283.355 62.0746 283.527 61.9021C283.7 61.6433 284.045 61.6433 284.218 61.8158C284.476 61.9883 284.476 62.3333 284.304 62.5059C284.218 62.6784 284.045 62.6784 283.872 62.6784C283.872 62.6784 283.786 62.6784 283.614 62.5921ZM281.371 60.7807C281.112 60.6082 281.112 60.2632 281.285 60.0907C281.457 59.8319 281.802 59.8319 281.975 60.0044C282.234 60.1769 282.234 60.5219 282.061 60.6945C281.975 60.7807 281.802 60.867 281.63 60.867C281.63 60.9532 281.457 60.867 281.371 60.7807ZM279.301 58.9693C279.128 58.7968 279.042 58.4518 279.301 58.2793C279.473 58.1067 279.818 58.1067 280.077 58.2793C280.25 58.4518 280.25 58.7968 280.077 58.9693C279.991 59.0556 279.818 59.1418 279.732 59.1418C279.473 59.0556 279.387 59.0556 279.301 58.9693ZM277.231 56.8991C277.058 56.7266 277.058 56.3816 277.231 56.1228C277.403 55.9503 277.748 55.9503 278.007 56.1228C278.18 56.2953 278.18 56.6404 278.007 56.8991C277.921 56.9854 277.748 57.0717 277.662 57.0717C277.489 57.0717 277.317 56.9854 277.231 56.8991ZM275.333 54.7427C275.161 54.5702 275.161 54.2252 275.419 54.0527C275.592 53.8801 275.937 53.8801 276.109 54.1389C276.282 54.3114 276.282 54.6565 276.023 54.829C275.937 54.9152 275.851 54.9152 275.678 54.9152C275.592 54.9152 275.419 54.9152 275.333 54.7427ZM273.608 52.5C273.435 52.2412 273.522 51.9825 273.694 51.81C273.953 51.6375 274.212 51.7237 274.384 51.8962C274.557 52.155 274.47 52.4138 274.298 52.5863C274.212 52.6725 274.125 52.6725 273.953 52.6725C273.867 52.7588 273.694 52.6725 273.608 52.5ZM271.969 50.1711C271.796 49.9123 271.883 49.5673 272.142 49.481C272.4 49.3085 272.745 49.3948 272.832 49.6535C273.004 49.9123 272.918 50.2573 272.659 50.3436C272.573 50.4298 272.487 50.4298 272.4 50.4298C272.228 50.3436 272.055 50.3436 271.969 50.1711ZM270.503 47.6696C270.33 47.4108 270.503 47.0658 270.675 46.9796C270.934 46.807 271.193 46.8933 271.365 47.1521C271.538 47.4108 271.451 47.7559 271.193 47.8421C271.106 47.8421 271.02 47.9284 270.934 47.9284C270.761 47.9284 270.589 47.8421 270.503 47.6696ZM269.209 45.1682C269.123 44.9094 269.209 44.5644 269.468 44.4781C269.726 44.3918 270.071 44.4781 270.158 44.7369C270.244 44.9956 270.158 45.3407 269.899 45.4269C269.813 45.4269 269.726 45.4269 269.64 45.4269C269.468 45.4269 269.295 45.3407 269.209 45.1682ZM268.087 42.4942C268.001 42.2354 268.087 41.8904 268.346 41.8041C268.605 41.7179 268.95 41.8041 269.036 42.0629C269.123 42.3217 269.036 42.5804 268.777 42.753C268.691 42.753 268.605 42.753 268.605 42.753C268.346 42.8392 268.174 42.753 268.087 42.4942ZM267.139 39.8202C267.052 39.5614 267.225 39.2164 267.484 39.1302C267.742 39.0439 268.001 39.2164 268.174 39.4752C268.26 39.734 268.087 39.9927 267.829 40.1652C267.742 40.1652 267.742 40.1652 267.656 40.1652C267.397 40.1652 267.225 40.079 267.139 39.8202ZM266.362 37.06C266.276 36.8012 266.449 36.4562 266.707 36.4562C266.966 36.3699 267.311 36.5424 267.311 36.8012C267.397 37.06 267.225 37.3188 266.966 37.405C266.88 37.405 266.88 37.405 266.794 37.405C266.621 37.4913 266.362 37.3188 266.362 37.06ZM265.672 34.2998C265.586 34.041 265.758 33.7822 266.104 33.696C266.362 33.6097 266.621 33.7822 266.707 34.1272C266.794 34.386 266.621 34.6448 266.276 34.731H266.19C265.931 34.731 265.758 34.5585 265.672 34.2998ZM265.241 31.4533C265.241 31.1945 265.413 30.9357 265.672 30.8495C265.931 30.8495 266.19 31.022 266.276 31.2808C266.276 31.5395 266.104 31.7983 265.845 31.8846C265.845 31.8846 265.845 31.8846 265.758 31.8846C265.5 31.8846 265.327 31.712 265.241 31.4533ZM264.982 28.6068C264.982 28.348 265.155 28.0892 265.5 28.0892C265.758 28.0892 266.017 28.2617 266.017 28.6068C266.017 28.8656 265.845 29.1243 265.5 29.1243C265.241 29.1243 264.982 28.8656 264.982 28.6068Z" fill="#B8814A"/>
<path d="M310.44 71.3041C310.267 71.3041 310.181 71.2178 310.095 71.1316C310.009 71.0453 310.009 71.0453 310.009 70.9591C310.009 70.8728 310.009 70.8728 310.009 70.7865C310.009 70.7003 310.009 70.614 310.009 70.614C310.009 70.5278 310.095 70.5278 310.095 70.4415C310.267 70.269 310.612 70.269 310.785 70.4415C310.785 70.5278 310.871 70.5278 310.871 70.614C310.871 70.7003 310.871 70.7003 310.871 70.7865C310.871 70.8728 310.871 70.9591 310.871 70.9591C310.871 71.0453 310.785 71.0453 310.785 71.1316C310.699 71.2178 310.526 71.3041 310.44 71.3041Z" fill="#B8814A"/>
<path d="M303.972 68.1988C303.885 68.1988 303.799 68.1988 303.799 68.1988C303.713 68.1988 303.713 68.1125 303.627 68.1125C303.54 68.1125 303.54 68.0263 303.54 67.94C303.54 67.8538 303.454 67.7675 303.454 67.7675C303.454 67.7675 303.454 67.595 303.54 67.595C303.54 67.5087 303.627 67.5088 303.627 67.4225C303.713 67.4225 303.713 67.3362 303.799 67.3362C303.972 67.25 304.058 67.25 304.23 67.3362C304.317 67.3362 304.317 67.4225 304.403 67.4225C304.403 67.5088 304.489 67.5087 304.489 67.595C304.489 67.6813 304.489 67.6813 304.489 67.7675C304.489 67.94 304.403 68.0263 304.317 68.1125C304.23 68.1988 304.144 68.1988 303.972 68.1988Z" fill="#757575"/>
<path d="M304.403 65.4386C304.144 65.4386 303.885 65.1798 303.971 64.8348C303.971 64.576 304.23 64.3172 304.575 64.4035C304.834 64.4035 305.093 64.6623 305.006 65.0073C304.92 65.2661 304.661 65.4386 304.403 65.4386ZM304.661 62.5921C304.403 62.5921 304.144 62.3333 304.144 62.0746C304.144 61.8158 304.403 61.557 304.661 61.557C304.92 61.557 305.179 61.8158 305.179 62.0746C305.179 62.3333 304.92 62.5921 304.661 62.5921ZM304.057 59.2281C304.057 58.9693 304.23 58.7105 304.489 58.7105C304.748 58.7105 305.006 58.883 305.006 59.2281C305.006 59.4868 304.834 59.7456 304.575 59.7456C304.316 59.7456 304.057 59.4868 304.057 59.2281ZM303.712 56.4678C303.712 56.2091 303.885 55.9503 304.144 55.864C304.403 55.864 304.661 56.0366 304.748 56.2953C304.834 56.5541 304.575 56.8129 304.316 56.8991H304.23C303.971 56.8991 303.712 56.7266 303.712 56.4678ZM303.109 53.7076C303.022 53.4488 303.195 53.1038 303.454 53.1038C303.712 53.0176 304.057 53.1901 304.057 53.4488C304.144 53.7076 303.971 53.9664 303.712 54.0526C303.626 54.0526 303.626 54.0526 303.54 54.0526C303.367 54.1389 303.195 53.9664 303.109 53.7076ZM302.246 51.0336C302.16 50.7749 302.246 50.5161 302.591 50.3436C302.85 50.2573 303.195 50.3436 303.281 50.6886C303.367 50.9474 303.281 51.2062 303.022 51.3787C302.936 51.3787 302.936 51.3787 302.85 51.3787C302.505 51.3787 302.332 51.2924 302.246 51.0336ZM301.211 48.5322C301.038 48.2734 301.211 47.9284 301.47 47.8421C301.729 47.7559 302.074 47.8421 302.16 48.1009C302.246 48.3597 302.16 48.7047 301.901 48.791C301.815 48.791 301.729 48.8772 301.642 48.8772C301.47 48.791 301.297 48.7047 301.211 48.5322ZM299.831 46.0307C299.658 45.7719 299.745 45.5132 300.003 45.3407C300.262 45.1682 300.607 45.2544 300.693 45.5132C300.866 45.7719 300.78 46.0307 300.521 46.2032C300.435 46.2895 300.348 46.2895 300.262 46.2895C300.09 46.2895 299.917 46.2032 299.831 46.0307ZM298.278 43.7018C298.106 43.443 298.192 43.1842 298.365 43.0117C298.623 42.8392 298.882 42.9255 299.055 43.098C299.227 43.3567 299.141 43.6155 298.968 43.788C298.882 43.8743 298.796 43.8743 298.623 43.8743C298.537 43.9605 298.365 43.8743 298.278 43.7018ZM296.467 41.5453C296.294 41.3728 296.294 41.0278 296.467 40.769C296.639 40.5965 296.984 40.5965 297.157 40.769C297.329 40.9415 297.329 41.2866 297.157 41.5453C297.071 41.6316 296.898 41.6316 296.812 41.6316C296.726 41.7179 296.639 41.7179 296.467 41.5453ZM294.569 39.5614C294.397 39.3889 294.31 39.0439 294.569 38.8714C294.742 38.6989 295.087 38.6126 295.259 38.8714C295.432 39.0439 295.518 39.3889 295.259 39.5614C295.173 39.6477 295 39.7339 294.914 39.7339C294.742 39.7339 294.655 39.6477 294.569 39.5614ZM292.413 37.75C292.154 37.5775 292.154 37.2325 292.327 37.06C292.499 36.8012 292.844 36.8012 293.017 36.9737C293.275 37.1462 293.275 37.4913 293.103 37.6638C293.017 37.8363 292.844 37.8363 292.672 37.8363C292.585 37.9225 292.499 37.8363 292.413 37.75ZM290.084 36.1974C289.825 36.0249 289.739 35.7661 289.911 35.5073C290.084 35.2486 290.343 35.1623 290.601 35.3348C290.86 35.5073 290.946 35.7661 290.774 36.0249C290.688 36.1974 290.515 36.2837 290.343 36.2837C290.256 36.2837 290.17 36.2837 290.084 36.1974ZM287.669 34.8173C287.41 34.731 287.324 34.386 287.41 34.1272C287.496 33.8685 287.841 33.7822 288.1 33.8685C288.359 33.9547 288.445 34.2997 288.359 34.5585C288.272 34.731 288.1 34.8173 287.927 34.8173C287.755 34.9035 287.755 34.9035 287.669 34.8173ZM285.081 33.6959C284.822 33.6097 284.65 33.2647 284.822 33.0059C284.908 32.7471 285.253 32.5746 285.512 32.6609C285.771 32.7471 285.943 33.0921 285.771 33.3509C285.685 33.5234 285.512 33.6959 285.253 33.6959C285.167 33.6959 285.167 33.6959 285.081 33.6959ZM282.407 32.8334C282.148 32.7471 281.976 32.4883 282.062 32.2296C282.148 31.9708 282.407 31.7983 282.666 31.8845C282.924 31.9708 283.097 32.2296 283.011 32.4883C282.924 32.7471 282.752 32.8334 282.493 32.8334C282.493 32.8334 282.493 32.8334 282.407 32.8334ZM279.733 32.2296C279.474 32.1433 279.302 31.8845 279.302 31.6258C279.388 31.367 279.647 31.1945 279.905 31.1945C280.164 31.2807 280.337 31.5395 280.337 31.7983C280.337 32.0571 280.078 32.2296 279.819 32.2296C279.733 32.2296 279.733 32.2296 279.733 32.2296ZM270.762 31.4533C270.762 31.1945 270.935 30.9357 271.193 30.8495C271.452 30.8495 271.711 31.022 271.711 31.2807C271.711 31.5395 271.539 31.7983 271.28 31.8845C271.28 31.8845 271.28 31.8845 271.193 31.8845C271.021 31.8845 270.762 31.712 270.762 31.4533ZM276.886 31.7983C276.628 31.7983 276.369 31.5395 276.455 31.2807C276.455 31.022 276.714 30.7632 277.059 30.7632C277.318 30.7632 277.577 31.022 277.49 31.367C277.49 31.6258 277.232 31.7983 276.886 31.7983C276.973 31.7983 276.973 31.7983 276.886 31.7983ZM274.126 31.712C273.867 31.712 273.609 31.4533 273.609 31.1945C273.609 30.9357 273.867 30.6769 274.126 30.6769C274.385 30.6769 274.644 30.9357 274.644 31.1945C274.644 31.4533 274.385 31.712 274.126 31.712Z" fill="#757575"/>
<path d="M268.433 32.3158C268.347 32.3158 268.261 32.3158 268.261 32.3158C268.175 32.3158 268.175 32.2295 268.088 32.2295C268.002 32.1433 268.002 32.1433 268.002 32.057C268.002 31.9708 267.916 31.8845 267.916 31.8845C267.916 31.712 268.002 31.6257 268.088 31.5395C268.261 31.367 268.606 31.367 268.778 31.5395C268.865 31.6257 268.951 31.7983 268.951 31.8845C268.951 31.9708 268.951 32.057 268.951 32.057C268.951 32.1433 268.865 32.1433 268.865 32.2295C268.778 32.2295 268.778 32.3158 268.692 32.3158C268.606 32.3158 268.52 32.3158 268.433 32.3158Z" fill="#757575"/>
<path d="M301.038 53.3626C300.866 53.3626 300.607 53.2763 300.521 53.0176L301.038 52.8451L301.556 52.6725C301.642 52.9313 301.47 53.2763 301.211 53.3626C301.211 53.3626 301.125 53.3626 301.038 53.3626Z" fill="#B8814A"/>
<path d="M280.337 34.5585C280.337 34.5585 280.25 34.5585 280.337 34.5585C279.992 34.4723 279.733 34.2135 279.819 33.9547C279.905 33.696 280.078 33.4372 280.423 33.5235C280.423 33.5235 280.423 33.5235 280.509 33.5235C280.768 33.6097 280.941 33.8685 280.941 34.1273C280.768 34.386 280.596 34.5585 280.337 34.5585Z" fill="#B8814A"/>
<path d="M293.189 41.2003C293.103 41.2003 292.93 41.1141 292.844 41.0278C292.671 40.8553 292.585 40.5103 292.758 40.3378C292.93 40.079 293.275 40.079 293.448 40.2515L293.534 40.3378C293.706 40.5103 293.706 40.8553 293.534 41.0278C293.448 41.2003 293.361 41.2003 293.189 41.2003Z" fill="#B8814A"/>
<path d="M301.815 67.8538H301.729C301.47 67.7675 301.297 67.5087 301.297 67.25C301.729 65.3523 301.901 63.3684 301.901 61.4707C301.901 58.6242 301.47 55.7778 300.607 53.1038C299.141 48.5322 296.467 44.3918 292.93 41.2003C289.308 37.9225 284.995 35.6798 280.251 34.731C276.455 33.9547 272.66 33.9547 268.951 34.6447C268.692 34.731 268.433 34.5585 268.347 34.2135C268.261 33.9547 268.433 33.6959 268.778 33.6097C272.574 32.8333 276.628 32.8333 280.509 33.6959C285.426 34.731 289.911 37.0599 293.621 40.424C297.33 43.788 300.09 48.1009 301.642 52.845C302.591 55.6915 303.023 58.6242 303.023 61.557C303.023 63.5409 302.85 65.6111 302.419 67.5087C302.246 67.6812 301.987 67.8538 301.815 67.8538Z" fill="#B8814A"/>
<path d="M272.746 45.6857C272.488 45.6857 272.229 45.5132 272.229 45.2544C272.229 44.9956 272.401 44.7368 272.66 44.6506C273.264 44.5643 273.868 44.5643 274.385 44.5643C274.644 44.5643 274.903 44.8231 274.903 45.0819C274.903 45.3406 274.644 45.5994 274.385 45.5994C273.868 45.5994 273.35 45.6857 272.746 45.6857Z" fill="#B8814A"/>
<path d="M290.774 61.902C290.515 61.902 290.256 61.6433 290.256 61.3845C290.256 52.6725 283.183 45.5994 274.471 45.5994C274.212 45.5994 273.954 45.3406 273.954 45.0819C273.954 44.8231 274.212 44.5643 274.471 44.5643C283.787 44.5643 291.291 52.155 291.291 61.3845C291.291 61.7295 291.033 61.902 290.774 61.902Z" fill="#B8814A"/>
<path d="M290.601 63.7997C290.256 63.7997 290.084 63.5409 290.084 63.1959C290.17 62.5921 290.17 61.9883 290.17 61.3845C290.17 61.1257 290.429 60.8669 290.688 60.8669C290.946 60.8669 291.205 61.1257 291.205 61.3845C291.205 61.9883 291.205 62.5921 291.119 63.2821C291.119 63.6272 290.86 63.7997 290.601 63.7997Z" fill="#B8814A"/>
<path d="M276.541 45.5132C276.282 45.5132 276.11 45.3407 276.024 45.0819L274.385 37.8363L272.832 44.6506C272.746 44.9094 272.487 45.0819 272.228 45.0819C271.97 44.9957 271.797 44.7369 271.797 44.4781L274.299 33.0922L276.886 44.9094C276.973 45.1682 276.8 45.4269 276.455 45.5132C276.628 45.5132 276.541 45.5132 276.541 45.5132Z" fill="#B8814A"/>
<path d="M276.542 45.5132C276.455 45.5132 276.283 45.5132 276.197 45.3407C276.024 45.1681 275.938 44.8231 276.197 44.6506C277.663 43.0117 277.663 42.4942 277.577 41.6316C277.577 41.1141 277.49 40.5103 277.749 39.5614C278.008 38.4401 278.525 37.8363 278.957 37.3187C279.561 36.6287 279.992 36.1111 279.819 34.1272C279.819 33.8685 279.992 33.6097 280.337 33.6097C280.596 33.6097 280.854 33.7822 280.854 34.1272C281.027 36.5424 280.337 37.3187 279.733 38.0951C279.302 38.5263 278.957 38.9576 278.784 39.9065C278.612 40.6828 278.612 41.2003 278.612 41.7179C278.698 42.8392 278.612 43.6155 276.973 45.4269C276.8 45.4269 276.714 45.5132 276.542 45.5132Z" fill="#B8814A"/>
<path d="M280.596 46.7208C280.509 46.7208 280.509 46.7208 280.423 46.7208C280.164 46.6345 279.992 46.2895 280.078 46.0307C280.854 43.788 280.768 43.0117 280.596 42.2354C280.509 41.6316 280.337 41.114 280.509 40.1652C280.596 39.5614 280.854 39.0439 281.027 38.6126C281.458 37.4912 281.803 36.7149 279.906 34.386C279.733 34.1272 279.733 33.8684 279.992 33.6959C280.251 33.5234 280.509 33.5234 280.682 33.7822C282.752 36.3699 282.58 37.4912 281.89 39.0439C281.717 39.4751 281.545 39.8202 281.458 40.3377C281.286 41.114 281.372 41.5453 281.545 42.0629C281.717 42.9254 281.89 43.9605 281.027 46.462C280.941 46.5482 280.768 46.7208 280.596 46.7208Z" fill="#B8814A"/>
<path d="M279.906 34.386L280.251 34.0409H279.733C279.733 33.7822 279.82 33.6097 280.078 33.5234C280.251 33.4371 280.51 33.5234 280.682 33.6959L280.337 34.0409H280.768L280.251 34.1272L279.906 34.386Z" fill="#B8814A"/>
<path d="M284.477 48.7046C284.391 48.7046 284.391 48.7046 284.305 48.7046C284.046 48.6184 283.873 48.3596 283.96 48.0146L286.202 40.9415L281.113 46.5482C280.941 46.7207 280.596 46.807 280.423 46.5482C280.251 46.3757 280.164 46.0307 280.423 45.8582L288.704 36.8011L285.081 48.2734C284.908 48.6184 284.736 48.7046 284.477 48.7046Z" fill="#B8814A"/>
<path d="M293.189 41.2004C293.017 41.2004 292.844 41.1141 292.758 40.9416C292.672 40.7691 292.672 40.5966 292.758 40.424C292.844 40.2515 293.103 40.079 293.275 40.1653C293.534 40.1653 293.707 40.3378 293.707 40.5966C293.707 40.8553 293.534 41.1141 293.189 41.2004C293.189 41.2004 293.275 41.2004 293.189 41.2004Z" fill="#B8814A"/>
<path d="M284.477 48.7047C284.219 48.7047 284.046 48.5322 283.96 48.3597C283.874 48.1009 284.046 47.7559 284.305 47.6697C286.375 46.9796 286.634 46.5483 286.979 45.772C287.238 45.3407 287.496 44.7369 288.187 44.0469C288.963 43.1843 289.739 42.9255 290.343 42.753C291.206 42.4942 291.809 42.2355 292.758 40.424C292.844 40.1653 293.189 40.079 293.448 40.1653C293.707 40.2515 293.793 40.5966 293.707 40.8553C292.672 43.0118 291.637 43.3568 290.774 43.7018C290.17 43.8743 289.653 44.1331 289.049 44.7369C288.445 45.3407 288.273 45.772 288.014 46.2033C287.496 47.2384 287.065 47.8422 284.736 48.6185C284.564 48.7047 284.564 48.7047 284.477 48.7047Z" fill="#B8814A"/>
<path d="M287.324 51.8099C287.151 51.8099 287.065 51.7237 286.893 51.6374C286.72 51.3786 286.72 51.1199 286.979 50.9474C288.79 49.481 289.049 48.6184 289.308 47.9284C289.48 47.4108 289.653 46.807 290.343 46.1169C290.774 45.6857 291.119 45.3406 291.551 45.0819C292.499 44.3056 293.189 43.8743 292.672 40.9415C292.586 40.6827 292.844 40.424 293.103 40.3377C293.362 40.2515 293.621 40.5102 293.707 40.769C294.225 44.0468 293.448 44.9094 292.154 45.9444C291.809 46.2032 291.464 46.462 291.119 46.8933C290.602 47.4971 290.515 47.9284 290.343 48.3596C290.084 49.2222 289.739 50.171 287.669 51.8962C287.583 51.8099 287.496 51.8099 287.324 51.8099Z" fill="#B8814A"/>
<path d="M289.739 55.519C289.567 55.519 289.48 55.4327 289.394 55.3465C289.221 55.174 289.221 54.8289 289.394 54.6564L294.828 49.6535L287.583 51.8962C287.324 51.9824 286.979 51.8099 286.893 51.5512C286.806 51.2924 286.979 50.9474 287.238 50.8611L298.882 47.152L290.084 55.4327C289.998 55.519 289.825 55.519 289.739 55.519Z" fill="#B8814A"/>
<path d="M291.55 55.7778C291.033 55.7778 290.429 55.6916 289.567 55.5191C289.308 55.4328 289.135 55.174 289.135 54.9153C289.222 54.6565 289.48 54.484 289.739 54.484C291.895 54.9153 292.327 54.6565 293.017 54.2252C293.448 53.9664 293.966 53.6214 294.914 53.2764C296.036 52.9313 296.812 53.1039 297.416 53.1901C298.278 53.3626 298.969 53.4489 300.607 52.3275C300.866 52.155 301.125 52.2413 301.297 52.5001C301.47 52.7588 301.384 53.0176 301.125 53.1901C299.141 54.5702 298.106 54.3115 297.157 54.1389C296.553 54.0527 296.036 53.9664 295.087 54.2252C294.311 54.484 293.879 54.7427 293.448 55.0015C293.103 55.5191 292.586 55.7778 291.55 55.7778Z" fill="#B8814A"/>
<path d="M301.038 53.3626C300.952 53.3626 300.952 53.3626 300.866 53.3626C300.693 53.2764 300.521 53.1039 300.521 52.9313C300.521 52.7588 300.607 52.5863 300.693 52.5001C300.866 52.3275 301.125 52.3275 301.297 52.5001C301.47 52.6726 301.556 52.8451 301.47 53.1039C301.47 53.1901 301.297 53.3626 301.038 53.3626Z" fill="#B8814A"/>
<path d="M290.688 59.6593C290.429 59.6593 290.256 59.4868 290.17 59.2281C290.084 58.9693 290.343 58.7105 290.601 58.6243C292.93 58.193 293.534 57.6754 294.138 57.1579C294.569 56.8129 295 56.3816 295.949 56.0365C296.553 55.864 297.071 55.7778 297.502 55.6915C298.709 55.519 299.486 55.4327 300.607 52.6725C300.693 52.4137 301.038 52.2412 301.297 52.4137C301.556 52.5 301.728 52.845 301.556 53.1038C300.348 56.2091 299.227 56.5541 297.674 56.8129C297.243 56.8991 296.812 56.8991 296.294 57.0716C295.604 57.3304 295.259 57.5892 294.828 57.9342C294.138 58.538 293.362 59.2281 290.774 59.6593C290.774 59.6593 290.688 59.6593 290.688 59.6593Z" fill="#B8814A"/>
<path d="M291.032 63.9723C290.773 63.9723 290.601 63.7997 290.515 63.541C290.428 63.2822 290.601 63.0234 290.946 62.9372L298.019 61.3845L290.601 59.7457C290.342 59.6594 290.17 59.4006 290.17 59.1419C290.256 58.8831 290.515 58.7106 290.773 58.7106L302.677 61.3845L291.032 63.9723C291.119 63.9723 291.119 63.9723 291.032 63.9723Z" fill="#B8814A"/>
<path d="M274.385 45.5994C274.126 45.5994 273.867 45.3407 273.867 45.0819V42.8392C273.867 42.5804 274.126 42.3217 274.385 42.3217C274.644 42.3217 274.902 42.5804 274.902 42.8392V45.0819C274.902 45.4269 274.73 45.5994 274.385 45.5994Z" fill="#B8814A"/>
<path d="M278.267 46.117C278.094 46.117 278.008 46.0307 277.922 45.9445C277.749 45.772 277.749 45.4269 277.922 45.2544C277.922 45.2544 278.871 44.3056 279.129 43.3568C279.216 43.098 279.474 42.9255 279.733 42.9255C279.992 43.0117 280.165 43.2705 280.165 43.5293C279.906 44.7369 278.784 45.8582 278.698 45.9445C278.526 46.0307 278.439 46.117 278.267 46.117Z" fill="#B8814A"/>
<path d="M282.579 47.8421C282.493 47.8421 282.407 47.8421 282.321 47.7559C282.062 47.5833 281.976 47.3246 282.148 47.0658L283.269 45.1681C283.442 44.9094 283.701 44.8231 283.96 44.9956C284.218 45.1682 284.305 45.4269 284.132 45.6857L283.011 47.5834C282.924 47.7559 282.752 47.8421 282.579 47.8421Z" fill="#B8814A"/>
<path d="M285.685 50.1711C285.426 50.1711 285.253 49.9985 285.167 49.7398C285.081 49.481 285.253 49.2222 285.512 49.136C285.512 49.136 286.806 48.7909 287.496 48.1009C287.669 47.9284 288.014 47.8421 288.186 48.1009C288.359 48.2734 288.445 48.6184 288.186 48.7909C287.324 49.7398 285.771 50.1711 285.685 50.1711C285.771 50.1711 285.771 50.1711 285.685 50.1711Z" fill="#B8814A"/>
<path d="M288.531 53.7939C288.359 53.7939 288.186 53.7076 288.1 53.5351C287.927 53.2764 288.014 52.9313 288.273 52.8451L290.17 51.7237C290.429 51.5512 290.774 51.6375 290.86 51.8962C291.033 52.155 290.946 52.5 290.688 52.5863L288.79 53.7076C288.704 53.7939 288.618 53.7939 288.531 53.7939Z" fill="#B8814A"/>
<path d="M291.551 57.5892C290.688 57.5892 289.912 57.4167 289.912 57.4167C289.653 57.3304 289.48 57.0717 289.567 56.8129C289.653 56.5541 289.912 56.3816 290.17 56.4679C290.17 56.4679 291.464 56.8129 292.413 56.5541C292.672 56.4679 293.017 56.6404 293.103 56.8992C293.189 57.1579 293.017 57.503 292.758 57.5892C292.413 57.503 291.982 57.5892 291.551 57.5892Z" fill="#B8814A"/>
<path d="M292.93 61.902H290.687C290.428 61.902 290.17 61.6433 290.17 61.3845C290.17 61.1257 290.428 60.8669 290.687 60.8669H292.93C293.189 60.8669 293.447 61.1257 293.447 61.3845C293.447 61.7295 293.275 61.902 292.93 61.902Z" fill="#B8814A"/>
<path d="M310.44 68.8026C286.719 68.8026 267.397 49.4809 267.397 25.7602C267.397 25.5014 267.656 25.2427 267.915 25.2427C268.174 25.2427 268.433 25.5014 268.433 25.7602C268.433 48.8771 287.237 67.7675 310.44 67.7675C310.699 67.7675 310.957 68.0262 310.957 68.285C310.957 68.5438 310.699 68.8026 310.44 68.8026Z" fill="#B8814A"/>
<path d="M293.016 89.5043L293.447 83.6388L288.013 81.3961L293.706 79.9298L294.137 74.0643L297.242 79.0672L302.935 77.6008L299.14 82.0862L302.245 87.0891L296.811 84.9327L293.016 89.5043ZM291.291 81.6549L294.482 82.9488L294.223 86.3991L296.466 83.7251L299.658 85.0189L297.846 82.0862L300.089 79.4122L296.725 80.2748L294.914 77.342L294.655 80.7923L291.291 81.6549Z" fill="#B8814A"/>
<path d="M254.2 48.2733L251.958 42.8391L246.092 43.2704L250.578 39.4751L248.421 34.0409L253.424 37.1461L257.91 33.3508L256.443 39.0438L261.446 42.1491L255.581 42.5803L254.2 48.2733ZM252.648 41.7178L253.942 44.9093L254.804 41.5453L258.255 41.2865L255.322 39.4751L256.184 36.1111L253.51 38.3537L250.578 36.5423L251.872 39.7339L249.198 41.9765L252.648 41.7178Z" fill="#B8814A"/>
<rect x="110" y="9" width="93" height="31" rx="15.5" fill="#B8814A"/>
</g>
<defs>
<clipPath id="clip0">
<rect width="314" height="112" fill="white"/>
</clipPath>
</defs>
</svg>
