<svg width="80" height="67" viewBox="0 0 80 67" fill="none" xmlns="http://www.w3.org/2000/svg">
<g clip-path="url(#clip0)">
<path d="M39.3341 59.0275C25.6433 59.0275 17.5119 44.494 17.4289 44.3279C17.3459 44.1618 17.4289 43.9957 17.5119 43.9126C17.5119 43.9126 21.4946 40.5077 23.3201 35.2756C25.1455 29.9605 25.6433 25.8081 25.6433 25.8081C25.6433 25.642 25.8093 25.5589 25.9753 25.5589H53.0248C53.1908 25.5589 53.3567 25.642 53.3567 25.8081C53.3567 25.8081 53.8546 30.0435 55.68 35.2756C57.5054 40.5077 61.4052 43.9126 61.4882 43.9126C61.5712 43.9957 61.6541 44.1618 61.5712 44.3279C61.4052 44.494 53.0248 59.0275 39.3341 59.0275ZM18.1757 44.2448C19.2543 46.0719 26.9709 58.3631 39.417 58.3631C51.8632 58.3631 59.8287 45.9888 60.9074 44.2448C60.0776 43.4974 56.8416 40.2585 55.0992 35.5247C53.5227 30.9571 52.9418 27.2199 52.7759 26.1403H26.3071C26.1412 27.1369 25.5604 30.9571 23.9839 35.5247C22.2414 40.2585 19.0054 43.4974 18.1757 44.2448Z" fill="white"/>
<path d="M50.5358 51.1379C50.4527 51.1379 50.3697 51.1378 50.3697 51.0548C50.3697 51.0548 50.2866 50.9718 50.2866 50.8887C50.2866 50.8057 50.2866 50.7226 50.3697 50.7226C50.4527 50.6396 50.6188 50.6396 50.7019 50.7226C50.7849 50.7226 50.7849 50.8057 50.7849 50.8887C50.7849 50.9718 50.7849 51.0548 50.7019 51.0548C50.6188 51.1378 50.6188 51.1379 50.5358 51.1379Z" fill="#D4D8E4"/>
<path d="M39.2506 55.2903C39.2506 55.1242 39.3336 55.0411 39.4995 55.0411C39.5825 55.0411 39.7485 55.1242 39.7485 55.2903C39.7485 55.4564 39.6655 55.5394 39.4995 55.5394C39.4166 55.4564 39.2506 55.3733 39.2506 55.2903ZM38.006 55.3733C37.8401 55.3733 37.7571 55.2903 37.8401 55.1242C37.8401 54.9581 38.006 54.875 38.089 54.9581C38.1719 54.9581 38.3379 55.1242 38.2549 55.2072C38.2549 55.2903 38.089 55.3733 38.006 55.3733ZM40.7442 55.2072C40.7442 55.0411 40.8271 54.9581 40.9931 54.9581C41.076 54.9581 41.242 55.0411 41.242 55.1242C41.242 55.2903 41.159 55.3733 41.076 55.3733C40.9101 55.3733 40.8271 55.2903 40.7442 55.2072ZM36.4295 55.2072C36.2635 55.2072 36.2636 55.0411 36.2636 54.9581C36.2636 54.875 36.4295 54.792 36.5125 54.792C36.5954 54.792 36.6784 54.9581 36.6784 55.0411C36.6784 55.1242 36.5954 55.2072 36.4295 55.2072C36.5125 55.2072 36.5125 55.2072 36.4295 55.2072ZM42.3207 54.9581C42.3207 54.792 42.4036 54.7089 42.4866 54.7089C42.6526 54.7089 42.7355 54.792 42.7355 54.875C42.7355 55.0411 42.6526 55.1242 42.5696 55.1242C42.5696 55.1242 42.5696 55.1242 42.4866 55.1242C42.4036 55.2072 42.3207 55.1242 42.3207 54.9581ZM34.936 54.792C34.853 54.792 34.77 54.6259 34.77 54.5428C34.77 54.3767 34.936 54.3767 35.1019 54.3767C35.1849 54.3767 35.2679 54.5428 35.2679 54.6259C35.2679 54.7089 35.1849 54.792 34.936 54.792C35.0189 54.792 35.0189 54.792 34.936 54.792ZM43.7312 54.6259C43.7312 54.5428 43.7312 54.3767 43.8972 54.2937C43.9801 54.2937 44.1461 54.2937 44.2291 54.4598C44.2291 54.5428 44.2291 54.7089 44.0631 54.7089H43.9801C43.8972 54.792 43.8142 54.7089 43.7312 54.6259ZM33.5254 54.2937C33.3594 54.2106 33.3595 54.1276 33.3595 53.9615C33.4424 53.8784 33.5254 53.7954 33.6913 53.8784C33.7743 53.9615 33.8573 54.0445 33.8573 54.2106C33.8573 54.2937 33.7743 54.3767 33.6084 54.3767C33.6084 54.2937 33.5254 54.2937 33.5254 54.2937ZM45.1418 54.1276C45.0588 54.0445 45.1418 53.8784 45.3077 53.7954C45.3907 53.7123 45.5566 53.7954 45.6396 53.8784C45.7226 53.9615 45.6396 54.1276 45.5566 54.2106H45.4737C45.3077 54.2937 45.2247 54.2106 45.1418 54.1276ZM32.1148 53.6293C32.0319 53.5462 31.9489 53.4632 32.0319 53.2971C32.1148 53.2141 32.1978 53.131 32.3638 53.2141C32.4467 53.2971 32.5297 53.3801 32.4467 53.5462C32.4467 53.6293 32.3638 53.7123 32.2808 53.7123C32.1978 53.6293 32.1978 53.6293 32.1148 53.6293ZM46.5523 53.5462C46.4694 53.4632 46.5523 53.2971 46.6353 53.2141C46.7183 53.131 46.8842 53.2141 46.9672 53.2971C47.0502 53.3802 46.9672 53.5462 46.8842 53.6293H46.8013C46.6353 53.6293 46.5523 53.6293 46.5523 53.5462ZM30.7873 52.8819C30.7043 52.7988 30.6213 52.6327 30.7043 52.5497C30.7872 52.4666 30.8702 52.3836 31.0362 52.4666C31.1191 52.5497 31.2021 52.6327 31.1191 52.7988C31.0362 52.8819 31.0362 52.8819 30.9532 52.8819C30.8702 52.8819 30.8702 52.8819 30.7873 52.8819ZM47.8799 52.7988C47.797 52.7158 47.8799 52.5497 47.9629 52.4666C48.0459 52.3836 48.2118 52.4666 48.2948 52.5497C48.3778 52.6327 48.2948 52.7988 48.2118 52.8819H48.1288C47.9629 52.8819 47.8799 52.8819 47.8799 52.7988ZM29.5426 51.9683C29.4597 51.8853 29.3767 51.7192 29.4597 51.6361C29.5426 51.5531 29.7086 51.47 29.7916 51.5531C29.8745 51.6361 29.8745 51.8022 29.8745 51.8853C29.8745 51.9683 29.7916 51.9683 29.7086 51.9683C29.6256 52.0514 29.6256 52.0514 29.5426 51.9683ZM49.1245 51.9683C49.0416 51.8853 49.0416 51.7192 49.2075 51.6361C49.2905 51.5531 49.4564 51.5531 49.5394 51.7192C49.6224 51.8022 49.6224 51.9683 49.4564 52.0514C49.4564 52.0514 49.3735 52.0514 49.2905 52.0514C49.2905 52.0514 49.2075 52.0514 49.1245 51.9683Z" fill="#D4D8E4"/>
<path d="M28.4645 51.1379C28.3814 51.1379 28.3814 51.1379 28.2984 51.0548C28.2984 51.0548 28.2153 50.9718 28.2153 50.8887C28.2153 50.8057 28.2153 50.7226 28.2984 50.7226C28.3814 50.6396 28.5475 50.6396 28.6306 50.7226C28.7136 50.7226 28.7136 50.8057 28.7136 50.8887C28.7136 50.9718 28.7136 51.0548 28.6306 51.0548C28.6306 51.1379 28.5475 51.1379 28.4645 51.1379Z" fill="#D4D8E4"/>
<path d="M43.068 30.3758C42.9849 30.3758 42.9849 30.3758 42.9019 30.2927C42.9019 30.2927 42.8188 30.2097 42.8188 30.1266C42.8188 30.0436 42.8189 30.0436 42.9019 29.9605C42.9849 29.8775 43.151 29.8775 43.2341 29.9605C43.3171 30.0436 43.3171 30.0436 43.3171 30.1266C43.3171 30.2097 43.3171 30.2927 43.2341 30.2927C43.151 30.3758 43.068 30.3758 43.068 30.3758Z" fill="#D4D8E4"/>
<path d="M41.4079 30.2097C41.4079 30.0436 41.4909 29.9606 41.6569 29.9606C41.7398 29.9606 41.9058 30.0436 41.9058 30.2097C41.9058 30.3758 41.8228 30.4588 41.6569 30.4588C41.4909 30.3758 41.4079 30.2928 41.4079 30.2097ZM39.9974 30.2097C39.9974 30.0436 40.0803 29.9606 40.2463 29.9606C40.4122 29.9606 40.4952 30.0436 40.4952 30.2097C40.4952 30.3758 40.4122 30.4588 40.2463 30.4588C40.0803 30.3758 39.9974 30.2928 39.9974 30.2097ZM38.5868 30.2097C38.5868 30.0436 38.6698 29.9606 38.8358 29.9606C38.9187 29.9606 39.0847 30.0436 39.0847 30.2097C39.0847 30.3758 39.0017 30.4588 38.8358 30.4588C38.6698 30.3758 38.5868 30.2928 38.5868 30.2097ZM37.1763 30.2097C37.1763 30.0436 37.2592 29.9606 37.4252 29.9606C37.5911 29.9606 37.6741 30.0436 37.6741 30.2097C37.6741 30.3758 37.5911 30.4588 37.4252 30.4588C37.2592 30.3758 37.1763 30.2928 37.1763 30.2097Z" fill="#D4D8E4"/>
<path d="M35.9318 30.3758C35.8487 30.3758 35.8487 30.3758 35.7657 30.2927C35.7657 30.2927 35.6826 30.2097 35.6826 30.1266C35.6826 30.0436 35.6826 30.0436 35.7657 29.9605C35.8487 29.8775 36.0148 29.8775 36.0979 29.9605C36.1809 30.0436 36.1809 30.0436 36.1809 30.1266C36.1809 30.2097 36.1809 30.2927 36.0979 30.2927C36.0979 30.3758 36.0148 30.3758 35.9318 30.3758Z" fill="#D4D8E4"/>
<path d="M22.4901 47.3176C22.4072 47.3176 22.4072 47.3176 22.3242 47.2346C21.6604 46.4041 20.9966 45.4906 20.4158 44.6601C20.3328 44.577 20.4158 44.494 20.4158 44.4109C21.0796 43.6635 21.7434 42.9161 22.3242 42.0856C22.4072 42.0025 22.4901 42.0025 22.5731 42.0856C22.6561 42.1686 22.6561 42.2517 22.5731 42.3347C21.9923 43.0822 21.4115 43.9126 20.7477 44.577C21.3285 45.4075 21.9093 46.238 22.5731 47.0685C22.6561 47.1515 22.6561 47.2346 22.5731 47.3176C22.5731 47.2346 22.4901 47.3176 22.4901 47.3176Z" fill="#B8814A"/>
<path d="M48.2125 54.3767C48.1295 54.3767 48.1295 54.3767 48.0464 54.2937C47.9634 54.2937 47.9634 54.2106 47.9634 54.1276C47.9634 54.0446 47.9634 53.9615 48.0464 53.9615C48.1295 53.8784 48.2956 53.8784 48.3786 53.9615C48.3786 53.9615 48.4616 54.0446 48.4616 54.1276C48.4616 54.2106 48.4617 54.2106 48.3786 54.2937C48.2956 54.3767 48.2125 54.3767 48.2125 54.3767Z" fill="#D4D8E4"/>
<path d="M39.2512 56.536C39.2512 56.3699 39.3341 56.2869 39.5001 56.2869C39.5831 56.2869 39.749 56.3699 39.749 56.536C39.749 56.7021 39.666 56.7852 39.5001 56.7852C39.4171 56.7021 39.2512 56.6191 39.2512 56.536ZM38.0066 56.7021C37.9236 56.7021 37.7576 56.536 37.8406 56.453C37.8406 56.3699 38.0065 56.2038 38.0895 56.2869C38.2555 56.2869 38.3385 56.453 38.3385 56.536C38.2555 56.536 38.0895 56.7021 38.0066 56.7021ZM40.8277 56.453C40.8277 56.2869 40.9106 56.2038 40.9936 56.2038C41.1596 56.2038 41.2426 56.2869 41.2426 56.453C41.2426 56.619 41.1596 56.7021 40.9936 56.7021C40.9106 56.7021 40.8277 56.536 40.8277 56.453ZM36.43 56.453C36.2641 56.453 36.2641 56.2869 36.2641 56.2038C36.2641 56.0377 36.43 56.0377 36.513 56.0377C36.679 56.0377 36.7619 56.2038 36.679 56.2869C36.679 56.3699 36.596 56.453 36.43 56.453C36.513 56.453 36.513 56.453 36.43 56.453ZM42.3212 56.2869C42.3212 56.1208 42.4042 56.0377 42.4872 56.0377C42.6531 56.0377 42.7361 56.1208 42.7361 56.2038C42.7361 56.3699 42.6531 56.453 42.5701 56.453C42.4042 56.453 42.3212 56.3699 42.3212 56.2869ZM34.9365 56.1208C34.8535 56.1208 34.7706 55.9547 34.7706 55.8716C34.7706 55.7055 34.9365 55.7055 35.0195 55.7055C35.1854 55.7055 35.1854 55.8716 35.1854 55.9547C35.1854 56.0377 35.1025 56.1208 34.9365 56.1208C35.0195 56.1208 35.0195 56.1208 34.9365 56.1208ZM43.7318 55.9547C43.7318 55.7886 43.7318 55.7055 43.8977 55.7055C44.0637 55.7055 44.1467 55.7055 44.2296 55.8716C44.2296 55.9547 44.2296 56.1208 44.0637 56.1208H43.9807C43.8977 56.1208 43.8147 56.0377 43.7318 55.9547ZM33.5259 55.6225C33.443 55.5394 33.36 55.4564 33.36 55.2903C33.36 55.1242 33.5259 55.1242 33.6919 55.1242C33.7749 55.1242 33.8579 55.2903 33.8579 55.4564C33.7749 55.6225 33.6919 55.7055 33.5259 55.6225C33.5259 55.7055 33.5259 55.7055 33.5259 55.6225ZM45.2253 55.5394C45.1423 55.4564 45.2253 55.2903 45.3913 55.2072C45.4742 55.1242 45.6402 55.2072 45.7231 55.3733C45.8061 55.4564 45.7231 55.6225 45.5572 55.7055H45.4742C45.3083 55.7055 45.2253 55.6225 45.2253 55.5394ZM32.1154 55.0411C32.0324 54.9581 31.9494 54.875 32.0324 54.7089C32.1154 54.5428 32.1984 54.5428 32.3643 54.6259C32.4473 54.7089 32.5303 54.792 32.4473 54.9581C32.4473 55.0411 32.3643 55.1242 32.2813 55.1242C32.1984 55.1242 32.1154 55.1242 32.1154 55.0411ZM46.6359 54.9581C46.5529 54.875 46.6359 54.7089 46.7188 54.6259C46.8018 54.5428 46.9678 54.6259 47.0507 54.7089C47.1337 54.792 47.0507 54.9581 46.9678 55.0411H46.8848C46.7188 55.1242 46.6359 55.0411 46.6359 54.9581Z" fill="#D4D8E4"/>
<path d="M30.7882 54.3767C30.7051 54.3767 30.7051 54.3767 30.6221 54.2937C30.6221 54.2107 30.5391 54.2107 30.5391 54.1276C30.5391 54.0446 30.539 53.9615 30.6221 53.9615C30.7051 53.8784 30.8713 53.8784 30.9543 53.9615C31.0374 53.9615 31.0373 54.0446 31.0373 54.1276C31.0373 54.2107 31.0374 54.2107 30.9543 54.2937C30.9543 54.3767 30.8712 54.3767 30.7882 54.3767Z" fill="#D4D8E4"/>
<path d="M56.2604 47.3176C56.1775 47.3176 56.1775 47.3177 56.1775 47.2346C56.0945 47.1516 56.0945 47.0685 56.1775 46.9855C56.8413 46.155 57.4221 45.3245 58.0029 44.494C57.3391 43.8296 56.7583 42.9991 56.1775 42.2517C56.0945 42.1687 56.0945 42.0856 56.1775 42.0026C56.2604 41.9195 56.3434 41.9195 56.4264 42.0026C57.0072 42.833 57.671 43.5805 58.3348 44.3279C58.4178 44.411 58.4178 44.494 58.3348 44.5771C57.754 45.4906 57.0902 46.3211 56.4264 47.1516C56.3434 47.2346 56.3434 47.3176 56.2604 47.3176Z" fill="#B8814A"/>
<path d="M28.797 27.6352C28.6309 27.6352 28.4648 27.4691 28.4648 27.303V25.8081C28.4648 25.642 28.6309 25.4759 28.797 25.4759C28.9631 25.4759 29.1292 25.642 29.1292 25.8081V27.303C29.0462 27.4691 28.9631 27.6352 28.797 27.6352Z" fill="white"/>
<path d="M32.3644 28.3826C32.1983 28.3826 32.0322 28.2165 32.0322 28.0504V25.8081C32.0322 25.642 32.1983 25.4759 32.3644 25.4759C32.5305 25.4759 32.6966 25.642 32.6966 25.8081V28.1334C32.6136 28.2995 32.5305 28.3826 32.3644 28.3826Z" fill="white"/>
<path d="M35.9328 27.6351C35.7667 27.6351 35.6006 27.469 35.6006 27.3029V25.8081C35.6006 25.642 35.7667 25.4759 35.9328 25.4759C36.0989 25.4759 36.265 25.642 36.265 25.8081V27.3029C36.265 27.469 36.0989 27.6351 35.9328 27.6351Z" fill="white"/>
<path d="M39.5002 28.3826C39.3341 28.3826 39.168 28.2165 39.168 28.0504V25.8081C39.168 25.642 39.3341 25.4759 39.5002 25.4759C39.6663 25.4759 39.8323 25.642 39.8323 25.8081V28.1334C39.8323 28.2995 39.6663 28.3826 39.5002 28.3826Z" fill="white"/>
<path d="M43.068 27.6351C42.9019 27.6351 42.7358 27.469 42.7358 27.3029V25.8081C42.7358 25.642 42.9019 25.4759 43.068 25.4759C43.2341 25.4759 43.4002 25.642 43.4002 25.8081V27.3029C43.4002 27.469 43.2341 27.6351 43.068 27.6351Z" fill="white"/>
<path d="M46.6364 28.3826C46.4703 28.3826 46.3042 28.2165 46.3042 28.0504V25.8081C46.3042 25.642 46.4703 25.4759 46.6364 25.4759C46.8025 25.4759 46.9686 25.642 46.9686 25.8081V28.1334C46.9686 28.2995 46.8025 28.3826 46.6364 28.3826Z" fill="white"/>
<path d="M50.2868 27.6351C50.1207 27.6351 49.9546 27.469 49.9546 27.3029V25.8081C49.9546 25.642 50.1207 25.4759 50.2868 25.4759C50.4529 25.4759 50.619 25.642 50.619 25.8081V27.3029C50.5359 27.469 50.4529 27.6351 50.2868 27.6351Z" fill="white"/>
<path d="M32.3639 31.9537C31.2023 31.9537 30.2896 31.0401 30.2896 29.8775C30.2896 28.7148 31.2023 27.8013 32.3639 27.8013C33.5255 27.8013 34.4383 28.7148 34.4383 29.8775C34.4383 31.0401 33.5255 31.9537 32.3639 31.9537ZM32.3639 28.3826C31.5342 28.3826 30.8704 29.047 30.8704 29.8775C30.8704 30.7079 31.5342 31.3723 32.3639 31.3723C33.1936 31.3723 33.8575 30.7079 33.8575 29.8775C33.7745 29.047 33.1107 28.3826 32.3639 28.3826Z" fill="white"/>
<path d="M34.1066 26.1403C33.9406 26.1403 33.7747 25.9742 33.7747 25.8081V24.0641C33.7747 23.2336 33.1109 22.5692 32.2811 22.5692C32.1152 22.5692 31.9492 22.4031 31.9492 22.237C31.9492 22.0709 32.1152 21.9048 32.2811 21.9048C33.4427 21.9048 34.3555 22.8184 34.3555 23.981V25.7251C34.4384 25.9742 34.2725 26.1403 34.1066 26.1403Z" fill="white"/>
<path d="M44.8934 26.1403C44.7275 26.1403 44.5615 25.9742 44.5615 25.8081V24.0641C44.5615 22.9014 45.4742 21.9879 46.6359 21.9879C46.8018 21.9879 46.9678 22.154 46.9678 22.3201C46.9678 22.4862 46.8018 22.6523 46.6359 22.6523C45.8061 22.6523 45.1423 23.3166 45.1423 24.1471V25.8912C45.2253 25.9742 45.0594 26.1403 44.8934 26.1403Z" fill="white"/>
<path d="M46.6359 31.9537C45.4742 31.9537 44.5615 31.0401 44.5615 29.8775C44.5615 28.7148 45.4742 27.8013 46.6359 27.8013C47.7975 27.8013 48.7102 28.7148 48.7102 29.8775C48.7102 31.0401 47.7975 31.9537 46.6359 31.9537ZM46.6359 28.3826C45.8061 28.3826 45.1423 29.047 45.1423 29.8775C45.1423 30.7079 45.8061 31.3723 46.6359 31.3723C47.4656 31.3723 48.1294 30.7079 48.1294 29.8775C48.1294 29.047 47.4656 28.3826 46.6359 28.3826Z" fill="white"/>
<path d="M32.3644 30.6249C31.9496 30.6249 31.6177 30.2927 31.6177 29.8774C31.6177 29.4622 31.9496 29.13 32.3644 29.13C32.7793 29.13 33.1112 29.4622 33.1112 29.8774C33.0282 30.2927 32.7793 30.6249 32.3644 30.6249ZM32.3644 29.5453C32.1985 29.5453 32.0325 29.7113 32.0325 29.8774C32.0325 30.0435 32.1985 30.2096 32.3644 30.2096C32.5304 30.2096 32.6963 30.0435 32.6963 29.8774C32.6963 29.7113 32.5304 29.5453 32.3644 29.5453Z" fill="#B8814A"/>
<path d="M46.6359 30.6249C46.2211 30.6249 45.8892 30.2927 45.8892 29.8774C45.8892 29.4622 46.2211 29.13 46.6359 29.13C47.0508 29.13 47.3827 29.4622 47.3827 29.8774C47.3827 30.2927 47.0508 30.6249 46.6359 30.6249ZM46.6359 29.5453C46.47 29.5453 46.304 29.7113 46.304 29.8774C46.304 30.0435 46.47 30.2096 46.6359 30.2096C46.8019 30.2096 46.9678 30.0435 46.9678 29.8774C46.9678 29.7113 46.8848 29.5453 46.6359 29.5453Z" fill="#B8814A"/>
<path d="M61.1561 17.171C60.8242 17.171 60.5753 17.171 60.3264 17.088C57.8372 16.7558 54.8501 14.8457 54.6841 10.6102C54.5182 10.3611 53.4395 9.28143 49.2079 9.44753C44.3124 9.61363 41.0764 11.2746 41.0764 11.2746C40.9934 11.3576 40.8275 11.3576 40.7445 11.2746C40.6615 11.1915 40.5785 11.1085 40.5785 11.0254C40.4956 8.70009 41.4913 6.37474 43.3997 4.46462C46.3867 1.39183 51.1992 -0.269139 56.4266 0.146103C62.7326 0.644393 67.96 5.21205 67.877 10.195C67.7111 15.2609 64.1432 17.171 61.1561 17.171ZM49.9546 8.78314C54.3523 8.78314 55.182 10.195 55.265 10.3611C55.265 10.3611 55.265 10.4441 55.265 10.5272C55.4309 14.4304 58.0861 16.1745 60.3264 16.5066C60.5753 16.5066 60.8242 16.5897 61.0732 16.5897C63.8113 16.5897 66.9643 14.9287 67.0473 10.1119C67.1303 5.4612 62.1518 1.14269 56.1777 0.727445C51.1992 0.312203 46.5527 1.89012 43.6486 4.87987C41.9891 6.54083 41.0764 8.53399 41.0764 10.5272C42.155 10.0289 45.0591 8.94924 49.0419 8.78314C49.4568 8.78314 49.7057 8.78314 49.9546 8.78314Z" fill="white"/>
<path d="M44.1466 7.70354C44.0637 7.70354 44.0637 7.70354 43.9807 7.62049C43.8977 7.53744 43.8977 7.4544 43.9807 7.4544C44.8104 6.12562 46.0551 5.04599 47.5486 4.13246C47.6316 4.04941 47.7145 4.13246 47.7975 4.21551C47.8805 4.29855 47.7975 4.38161 47.7145 4.46465C46.3869 5.21209 45.3083 6.20867 44.4785 7.28829C45.7231 7.03915 46.9678 6.87305 48.2124 6.79001C48.2953 6.79001 48.3783 6.87306 48.3783 6.95611C48.3783 7.03915 48.2953 7.1222 48.2124 7.1222C46.8848 7.20525 45.5572 7.37134 44.1466 7.70354Z" fill="#B8814A"/>
<path d="M54.6016 17.5863C52.1954 17.5863 50.038 16.8389 48.4615 15.5101C47.1339 14.3474 46.3872 12.9356 46.3042 11.4407C46.3042 11.3577 46.3872 11.2746 46.4701 11.1916C46.5531 11.1085 46.6361 11.1085 46.802 11.1916C46.802 11.1916 48.8764 12.0221 51.7805 11.939C54.5186 11.856 54.9335 11.0255 54.9335 11.0255L55.5143 11.2746C55.4313 11.3577 54.9335 12.4373 51.7805 12.5204C49.5402 12.6034 47.7977 12.1882 47.051 11.856C47.2169 13.0186 47.8807 14.0983 48.9594 15.0118C50.7848 16.5897 53.5229 17.1711 56.427 16.7558C57.1738 16.6728 58.0035 16.4236 58.6673 16.0914L58.9163 16.6728C58.1695 17.005 57.3398 17.2541 56.51 17.4202C55.8462 17.5033 55.1824 17.5863 54.6016 17.5863Z" fill="white"/>
<path d="M61.7375 14.0152C61.7375 13.8491 61.8205 13.7661 61.9035 13.7661C61.9864 13.7661 62.1524 13.8491 62.1524 13.9322C62.1524 14.0983 62.0694 14.1813 61.9864 14.1813C61.8205 14.1813 61.7375 14.0983 61.7375 14.0152ZM60.3269 14.1813C60.161 14.0983 60.078 14.0152 60.161 13.8491C60.161 13.683 60.327 13.683 60.4099 13.683C60.4929 13.683 60.5759 13.8491 60.5759 13.9322C60.6588 14.0983 60.4929 14.1813 60.3269 14.1813C60.4099 14.1813 60.4099 14.1813 60.3269 14.1813ZM63.1481 13.5169C63.0651 13.4339 63.0651 13.2678 63.231 13.1847C63.314 13.1017 63.48 13.1017 63.5629 13.2678C63.6459 13.3508 63.6459 13.5169 63.48 13.6C63.48 13.6 63.397 13.6 63.314 13.6C63.231 13.6 63.1481 13.6 63.1481 13.5169ZM58.9164 13.4339C58.8334 13.3508 58.8334 13.1847 58.8334 13.1017C58.9164 13.0186 59.0823 13.0186 59.1653 13.1017C59.2483 13.1847 59.2483 13.3508 59.2483 13.4339C59.1653 13.5169 59.1653 13.5169 59.0823 13.5169C58.9994 13.5169 58.9164 13.5169 58.9164 13.4339ZM64.2267 12.4373C64.1437 12.3543 64.0608 12.1882 64.1438 12.1051C64.2267 12.0221 64.3927 11.939 64.4757 12.0221C64.5586 12.1051 64.6416 12.1882 64.5586 12.3543C64.4757 12.4373 64.4756 12.4373 64.3927 12.4373C64.3097 12.5204 64.2267 12.5204 64.2267 12.4373ZM57.8377 12.2712C57.7547 12.1882 57.8377 12.0221 57.9207 11.939C58.0037 11.856 58.1696 11.939 58.2526 12.0221C58.3356 12.1051 58.2526 12.2712 58.1696 12.3543H58.0866C58.0037 12.3543 57.9207 12.2712 57.8377 12.2712ZM64.8075 11.1085C64.7246 11.1085 64.5586 10.9424 64.6416 10.8594C64.6416 10.6933 64.8076 10.6102 64.8905 10.6933C65.0565 10.6933 65.1394 10.8594 65.0565 10.9424C65.0565 11.0255 64.9735 11.1085 64.8075 11.1085ZM57.4229 10.6933C57.4229 10.5272 57.5058 10.4441 57.6718 10.4441C57.7547 10.4441 57.9207 10.5272 57.9207 10.6933C57.9207 10.8594 57.8377 10.9424 57.6718 10.9424C57.5058 10.8594 57.4229 10.7763 57.4229 10.6933ZM64.4757 9.44757C64.4757 9.36452 64.4756 9.19842 64.6416 9.19842C64.7246 9.19842 64.8905 9.19842 64.9735 9.36452C64.9735 9.53061 64.9735 9.61366 64.8075 9.69671H64.7246C64.6416 9.61366 64.5586 9.53062 64.4757 9.44757ZM57.7547 9.36452C57.6718 9.36452 57.5888 9.19842 57.5888 9.03233C57.5888 8.94928 57.7548 8.86623 57.9207 8.86623C58.0037 8.86623 58.0866 9.03233 58.0866 9.19842C58.0037 9.36452 57.9207 9.44757 57.7547 9.36452C57.7547 9.36452 57.8377 9.44757 57.7547 9.36452ZM63.8118 8.20184C63.7289 8.1188 63.7289 7.9527 63.8118 7.86965C63.8948 7.7866 64.0608 7.7866 64.1438 7.86965C64.2267 7.9527 64.2267 8.1188 64.1438 8.20184C64.0608 8.20184 64.0608 8.28489 63.9778 8.28489C63.8948 8.28489 63.8948 8.20184 63.8118 8.20184ZM58.4185 8.03574C58.3356 7.95269 58.3356 7.7866 58.4185 7.70355C58.5015 7.6205 58.6675 7.6205 58.7504 7.70355C58.8334 7.7866 58.8334 7.95269 58.7504 8.03574C58.6675 8.11879 58.6675 8.11879 58.5845 8.11879C58.5845 8.11879 58.5015 8.11879 58.4185 8.03574ZM62.6502 7.28831C62.5672 7.20526 62.4843 7.12221 62.5672 6.95612C62.6502 6.87307 62.7332 6.79002 62.8992 6.87306C62.9821 6.95611 63.0651 7.03916 62.9821 7.20526C62.9821 7.28831 62.8991 7.37136 62.7332 7.37136C62.7332 7.37136 62.7332 7.37135 62.6502 7.28831ZM59.6631 7.12221C59.5802 7.03916 59.6631 6.87307 59.7461 6.79002C59.8291 6.70697 59.995 6.79002 60.078 6.95612C60.161 7.12221 60.078 7.20526 59.9951 7.28831H59.9121C59.7461 7.28831 59.6631 7.20526 59.6631 7.12221ZM61.3226 6.95612C61.1567 6.95612 61.0737 6.87307 61.0737 6.70697C61.0737 6.54087 61.1567 6.45782 61.3226 6.45782C61.4056 6.45782 61.5716 6.54087 61.5716 6.70697C61.5716 6.87307 61.4886 6.95612 61.3226 6.95612Z" fill="#D4D8E4"/>
<path d="M61.2393 12.6034C61.0734 12.6034 60.9074 12.6034 60.7415 12.5204C60.1607 12.3543 59.6628 12.0221 59.3309 11.5238C58.999 11.0255 58.9161 10.4442 59.082 9.86281C59.3309 8.86623 60.2436 8.11879 61.2393 8.11879C61.4053 8.11879 61.5712 8.11879 61.7372 8.20184C62.318 8.36794 62.8158 8.70013 63.1477 9.19842C63.4796 9.69671 63.5626 10.2781 63.3966 10.8594C63.1477 11.939 62.318 12.6034 61.2393 12.6034ZM61.2393 8.53403C60.4096 8.53403 59.6628 9.11537 59.4139 9.94586C59.3309 10.4441 59.4139 10.9424 59.6628 11.3577C59.9117 11.7729 60.3266 12.1051 60.8245 12.1882C60.9904 12.1882 61.0734 12.2712 61.2393 12.2712C62.0691 12.2712 62.8158 11.6899 63.0647 10.8594C63.1477 10.3611 63.0648 9.86281 62.8158 9.44757C62.5669 9.03233 62.152 8.70013 61.6542 8.61709C61.4883 8.53404 61.4053 8.53403 61.2393 8.53403Z" fill="#B8814A"/>
<path d="M53.9379 16.0084C52.8592 16.0084 50.9508 15.7592 49.5403 14.4305C49.4573 14.3474 49.4573 14.2644 49.5403 14.1813C49.6232 14.0983 49.7062 14.0983 49.7892 14.1813C51.6976 16.0914 54.7676 15.5931 54.7676 15.5931C54.8506 15.5931 54.9336 15.6762 55.0166 15.7592C55.0166 15.8423 54.9336 15.9253 54.8506 16.0084C54.8506 15.9253 54.4357 16.0084 53.9379 16.0084Z" fill="#B8814A"/>
<path d="M60.4924 4.29852C60.4094 4.29852 60.3264 4.21547 60.2435 4.13243C60.1605 3.96633 60.1605 3.80023 60.3264 3.71718L62.6497 2.30536C62.8157 2.22231 62.9816 2.22231 63.0646 2.38841C63.1476 2.55451 63.1475 2.7206 62.9816 2.80365L60.6583 4.21547C60.5754 4.29852 60.4924 4.29852 60.4924 4.29852Z" fill="white"/>
<path d="M57.7551 3.71719C57.6721 3.71719 57.5891 3.63414 57.5062 3.55109C57.4232 3.385 57.4232 3.2189 57.5891 3.13585L60.5762 1.22574C60.7421 1.14269 60.9081 1.14269 60.9911 1.30879C61.074 1.47489 61.074 1.64098 60.9081 1.72403L57.921 3.63415C57.8381 3.7172 57.8381 3.71719 57.7551 3.71719Z" fill="white"/>
<path d="M55.0163 3.05284C54.9334 3.05284 54.8504 2.96979 54.7674 2.88674C54.6844 2.72064 54.6844 2.55455 54.8504 2.4715L58.0864 0.478335C58.2523 0.395287 58.4183 0.395286 58.5012 0.561383C58.5842 0.727479 58.5842 0.893576 58.4182 0.976625L55.1823 2.96979C55.1823 3.05284 55.0993 3.05284 55.0163 3.05284Z" fill="white"/>
<path d="M52.361 2.47148C52.2781 2.47148 52.1951 2.38843 52.1121 2.30538C52.0292 2.13928 52.0291 1.97319 52.1951 1.89014L55.0162 0.146121C55.1822 0.0630727 55.3481 0.0630714 55.4311 0.229168C55.5141 0.395265 55.5141 0.561362 55.3481 0.64441L52.527 2.38843C52.444 2.38843 52.361 2.47148 52.361 2.47148Z" fill="white"/>
<path d="M65.8863 25.3098C65.3055 25.3098 64.8077 25.2268 64.2269 24.9776C63.0652 24.5624 62.1525 23.6488 61.6547 22.5692C60.659 20.3269 60.1611 16.9219 60.1611 16.7558C60.1611 16.5897 60.2441 16.4236 60.4101 16.4236C60.576 16.4236 60.742 16.5067 60.742 16.6728C60.742 16.6728 61.2398 20.0778 62.2355 22.3201C62.6504 23.3166 63.4801 23.981 64.3928 24.3963C65.3885 24.8115 66.4672 24.7285 67.3799 24.3132C68.3756 23.898 69.0394 23.0675 69.4542 22.154C69.8691 21.1574 69.7861 20.0778 69.3713 19.1642C68.2926 16.6728 66.2183 14.3474 66.2183 14.3474C66.1353 14.1813 66.1353 14.0152 66.2183 13.9322C66.3842 13.8491 66.5502 13.8491 66.6331 13.9322C66.7161 14.0152 68.7905 16.3406 69.9521 18.9151C70.4499 19.9947 70.4499 21.2404 70.0351 22.4031C69.6202 23.5658 68.7075 24.4793 67.6288 24.9776C67.131 25.2268 66.4672 25.3098 65.8863 25.3098Z" fill="white"/>
<path d="M63.5626 22.154C63.4796 22.154 63.3965 22.154 63.3965 22.071C63.3965 22.071 63.3135 21.9879 63.3135 21.9049C63.3135 21.8218 63.3135 21.8218 63.3965 21.7388C63.4796 21.6557 63.6457 21.6557 63.7287 21.7388C63.8118 21.8218 63.8117 21.8218 63.8117 21.9049C63.8117 21.9879 63.8118 21.9879 63.7287 22.071C63.7287 22.071 63.6457 22.154 63.5626 22.154Z" fill="#D4D8E4"/>
<path d="M66.1348 23.3167C66.1348 23.2336 66.2178 23.0675 66.3007 23.0675C66.4667 23.0675 66.5497 23.1506 66.5497 23.2336C66.5497 23.3997 66.4667 23.4828 66.3837 23.4828C66.3837 23.4828 66.3837 23.4828 66.3007 23.4828C66.2178 23.5658 66.1348 23.4828 66.1348 23.3167ZM64.6413 23.3167C64.5583 23.2336 64.4753 23.1506 64.5583 22.9845C64.6413 22.9014 64.7242 22.8184 64.8902 22.9014C64.9732 22.9845 65.0561 23.0675 64.9732 23.2336C64.8902 23.3167 64.8902 23.3997 64.8072 23.3997C64.7242 23.3167 64.6413 23.3167 64.6413 23.3167ZM67.6283 22.7353C67.5454 22.6523 67.5454 22.4862 67.6283 22.4031C67.7113 22.3201 67.8772 22.3201 67.9602 22.4031C68.0432 22.4862 68.0432 22.6523 67.9602 22.7353C67.8772 22.7353 67.8773 22.8184 67.7943 22.8184C67.7943 22.8184 67.7113 22.8184 67.6283 22.7353ZM68.541 21.3235C68.3751 21.3235 68.2921 21.1574 68.3751 21.0744C68.3751 20.9913 68.5411 20.8252 68.624 20.9083C68.707 20.9083 68.79 21.0744 68.79 21.1574C68.79 21.2405 68.707 21.3235 68.541 21.3235Z" fill="#D4D8E4"/>
<path d="M68.2921 19.7456C68.2091 19.7456 68.2091 19.7456 68.126 19.6625C68.043 19.6625 68.043 19.5795 68.043 19.4964C68.043 19.4134 68.043 19.4134 68.126 19.3303C68.2091 19.2473 68.3752 19.2473 68.4582 19.3303C68.4582 19.4134 68.5413 19.4134 68.5413 19.4964C68.5413 19.5795 68.5413 19.6625 68.4582 19.6625C68.4582 19.7456 68.3752 19.7456 68.2921 19.7456Z" fill="#D4D8E4"/>
<path d="M65.9687 22.237C65.3879 22.237 64.8901 21.9048 64.5582 21.4065C64.1433 20.6591 64.4752 19.7456 65.222 19.3303C65.4709 19.2473 65.6368 19.1642 65.8857 19.1642C66.4666 19.1642 66.9644 19.4964 67.2963 19.9947C67.7112 20.7421 67.3793 21.6557 66.6325 22.0709C66.4666 22.154 66.2176 22.237 65.9687 22.237ZM65.9687 19.4964C65.8028 19.4964 65.6368 19.5795 65.4709 19.6625C64.8901 19.9947 64.6411 20.6591 64.973 21.2404C65.139 21.6557 65.5539 21.9048 66.0517 21.9048C66.2176 21.9048 66.3836 21.8218 66.5495 21.7387C67.1304 21.4065 67.3793 20.7421 67.0474 20.1608C66.7985 19.7456 66.3836 19.4964 65.9687 19.4964Z" fill="#B8814A"/>
<path d="M56.9248 30.9571C56.5929 30.9571 56.261 30.9571 55.9291 30.874C55.7631 30.791 55.6802 30.6249 55.6802 30.4588C55.7631 30.2927 55.9291 30.2096 56.095 30.2096C57.5056 30.5418 59.9948 29.8775 62.2351 28.3826C63.9776 27.303 65.3882 25.9742 66.1349 24.7284C66.2179 24.5624 66.3838 24.5624 66.5498 24.6454C66.7157 24.7285 66.7157 24.8946 66.6328 25.0607C65.886 26.3894 64.3925 27.8012 62.567 28.8809C60.6586 30.2096 58.5013 30.9571 56.9248 30.9571Z" fill="white"/>
<path d="M55.0159 28.7148H54.9329C54.7669 28.6318 54.684 28.4657 54.7669 28.2996C55.2648 26.7216 57.0072 24.8946 59.3305 23.4827C60.1602 22.9014 61.073 22.4862 61.9857 22.154C62.1516 22.0709 62.3176 22.154 62.4006 22.3201C62.4835 22.4862 62.4005 22.6523 62.2346 22.7353C61.4049 23.0675 60.5751 23.4828 59.7454 23.981C57.588 25.3098 55.9286 27.0538 55.5137 28.4657C55.2648 28.6318 55.0988 28.7148 55.0159 28.7148Z" fill="white"/>
<path d="M54.4356 32.535C54.2696 32.535 54.1867 32.452 54.1037 32.2859C54.1037 32.1198 54.1867 31.9537 54.3526 31.9537C55.1824 31.7876 55.7632 31.0401 55.7632 30.2927C55.7632 29.3792 55.0164 28.5487 54.0207 28.5487C53.8548 28.5487 53.6888 28.5487 53.5229 28.6317C53.3569 28.7148 53.191 28.5487 53.108 28.3826C53.025 28.2165 53.191 28.0504 53.3569 27.9674C53.5229 27.8843 53.7718 27.8843 54.0207 27.8843C55.3483 27.8843 56.344 28.9639 56.344 30.2097C56.427 31.2893 55.5972 32.2859 54.4356 32.535C54.5186 32.535 54.5186 32.535 54.4356 32.535Z" fill="white"/>
<path d="M17.512 17.1711C14.5249 17.1711 10.957 15.344 10.874 10.1119C10.791 5.12903 16.0184 0.561365 22.3244 0.0630741C27.4688 -0.352168 32.3643 1.3088 35.3514 4.38159C37.2598 6.2917 38.2555 8.70011 38.1725 10.9424C38.1725 11.0255 38.0896 11.1085 38.0066 11.1916C37.9236 11.2746 37.8406 11.2746 37.6747 11.1916C37.6747 11.1916 34.3557 9.53059 29.5432 9.36449C25.3945 9.1984 24.3158 10.278 24.0669 10.5272C23.901 14.7626 20.9139 16.6728 18.4247 17.0049C18.0928 17.088 17.7609 17.1711 17.512 17.1711ZM23.818 0.64441C23.3201 0.64441 22.8223 0.644416 22.3244 0.727464C16.3503 1.14271 11.3719 5.46122 11.4549 10.1119C11.5378 14.8457 14.7738 16.5897 17.429 16.5897C17.6779 16.5897 17.9268 16.5897 18.1757 16.5067C20.416 16.1745 23.1542 14.4304 23.2372 10.5272C23.2372 10.4441 23.2372 10.4441 23.2372 10.3611C23.3201 10.195 24.2329 8.61706 29.2943 8.78316C33.2771 8.94926 36.1811 10.0289 37.2598 10.5272C37.1768 8.53401 36.2641 6.54085 34.6876 4.87989C32.2814 2.13929 28.2156 0.64441 23.818 0.64441Z" fill="white"/>
<path d="M34.5217 7.70355C33.1111 7.37136 31.7836 7.20527 30.373 7.03917C30.29 7.03917 30.207 6.95612 30.207 6.87307C30.207 6.79002 30.29 6.70697 30.373 6.70697C31.6176 6.79002 32.8622 6.95612 34.1068 7.20526C33.3601 6.12563 32.1984 5.12905 30.8708 4.38162C30.7879 4.29857 30.7879 4.21552 30.7879 4.13247C30.8708 4.04943 30.9538 4.04943 31.0368 4.04943C32.6133 4.87991 33.7749 6.04259 34.6047 7.37136C34.6047 7.45441 34.6047 7.53746 34.6047 7.53746C34.6047 7.70356 34.6047 7.70355 34.5217 7.70355Z" fill="#B8814A"/>
<path d="M24.0666 17.5863C23.4858 17.5863 22.905 17.5032 22.2412 17.4202C21.4115 17.3371 20.5817 17.088 19.835 16.6728L20.0839 16.0914C20.8307 16.4236 21.5774 16.6728 22.3242 16.7558C25.2283 17.1711 27.9664 16.5067 29.7919 15.0118C30.8705 14.0983 31.5343 13.0186 31.7003 11.8559C30.8705 12.1051 29.211 12.5203 26.9707 12.5203C23.8177 12.4373 23.3199 11.3577 23.2369 11.2746L23.8177 11.0255C23.8177 11.0255 24.2326 11.7729 26.9707 11.939C29.8748 12.0221 31.8662 11.1916 31.9492 11.1916C32.0322 11.1085 32.1981 11.1916 32.2811 11.1916C32.3641 11.2746 32.447 11.3577 32.447 11.4407C32.3641 12.9356 31.6173 14.3474 30.2897 15.5101C28.6302 16.8389 26.4729 17.5863 24.0666 17.5863Z" fill="white"/>
<path d="M16.6824 14.1813C16.5164 14.1813 16.4334 14.0152 16.5164 13.9322C16.5164 13.7661 16.6824 13.7661 16.7653 13.7661C16.8483 13.7661 17.0142 13.9322 16.9313 14.0152C16.9313 14.0983 16.8483 14.1813 16.6824 14.1813C16.6824 14.1813 16.7653 14.1813 16.6824 14.1813ZM18.0099 14.0152C18.0099 13.8491 18.0929 13.7661 18.1759 13.7661C18.3418 13.7661 18.4248 13.8491 18.4248 13.9322C18.4248 14.0152 18.3418 14.1813 18.2589 14.1813H18.1759C18.1759 14.1813 18.0929 14.0983 18.0099 14.0152ZM15.2718 13.5169C15.1888 13.4339 15.1059 13.2678 15.1888 13.1848C15.2718 13.1017 15.4378 13.0187 15.5207 13.1017C15.6037 13.1847 15.6867 13.3508 15.6037 13.4339C15.5207 13.5169 15.5207 13.5169 15.4377 13.5169C15.3548 13.6 15.2718 13.6 15.2718 13.5169ZM19.5035 13.4339C19.4205 13.3508 19.4205 13.1847 19.5865 13.1017C19.6694 13.0187 19.8354 13.0187 19.9183 13.1017C20.0013 13.1847 20.0013 13.3508 19.8354 13.4339C19.8354 13.4339 19.7524 13.5169 19.6694 13.5169C19.5865 13.5169 19.5035 13.4339 19.5035 13.4339ZM14.1102 12.3543C14.0272 12.2712 14.1102 12.1051 14.1931 12.0221C14.2761 11.939 14.4421 12.0221 14.525 12.1051C14.608 12.1882 14.525 12.3543 14.442 12.4373H14.3591C14.2761 12.5204 14.1931 12.4373 14.1102 12.3543ZM20.4992 12.3543C20.4162 12.2712 20.3332 12.1882 20.4162 12.0221C20.4992 11.939 20.5821 11.856 20.7481 11.939C20.8311 12.0221 20.914 12.1051 20.8311 12.2712C20.8311 12.3543 20.7481 12.3543 20.6651 12.3543C20.5821 12.3543 20.5821 12.3543 20.4992 12.3543ZM13.6123 10.8594C13.6123 10.7763 13.6953 10.6102 13.7783 10.6102C13.9442 10.6102 14.0272 10.6933 14.0272 10.7763C14.0272 10.8594 13.9442 11.0255 13.8612 11.0255C13.6953 11.1085 13.6123 11.0255 13.6123 10.8594ZM20.997 10.8594C20.8311 10.8594 20.7481 10.7763 20.7481 10.6102C20.7481 10.4442 20.8311 10.3611 20.997 10.3611C21.163 10.3611 21.2459 10.4442 21.2459 10.6102C21.2459 10.7763 21.163 10.8594 20.997 10.8594C21.08 10.8594 21.08 10.8594 20.997 10.8594ZM13.8612 9.61367C13.7783 9.61367 13.6953 9.44757 13.6953 9.28147C13.7783 9.19843 13.8612 9.11538 14.0272 9.11538C14.1101 9.11538 14.1931 9.28147 14.1931 9.36452C14.1931 9.53062 14.0272 9.61367 13.8612 9.61367C13.9442 9.61367 13.9442 9.61367 13.8612 9.61367ZM20.6651 9.28147C20.5821 9.11538 20.6651 9.03233 20.8311 8.94928C20.914 8.94928 21.08 8.94928 21.163 9.11538C21.2459 9.28148 21.163 9.36453 20.997 9.44757H20.914C20.7481 9.44757 20.6651 9.36452 20.6651 9.28147ZM14.525 8.20185C14.4421 8.1188 14.4421 7.9527 14.525 7.86965C14.608 7.78661 14.7739 7.78661 14.8569 7.86965C14.9399 7.9527 14.9399 8.1188 14.8569 8.20185C14.7739 8.2849 14.774 8.2849 14.691 8.2849C14.608 8.2849 14.608 8.20185 14.525 8.20185ZM19.9183 8.03575C19.8354 7.9527 19.8354 7.7866 19.9183 7.70355C20.0013 7.6205 20.1673 7.6205 20.2502 7.70355C20.3332 7.7866 20.3332 7.9527 20.2502 8.03575C20.1673 8.03575 20.1673 8.1188 20.0843 8.1188C20.0013 8.1188 19.9183 8.1188 19.9183 8.03575ZM15.6867 7.20526C15.6037 7.12222 15.6867 6.95612 15.7696 6.87307C15.8526 6.79002 16.0186 6.87307 16.1015 6.95612C16.1845 7.03917 16.1015 7.20526 16.0186 7.28831H15.9356C15.7696 7.37136 15.6867 7.28831 15.6867 7.20526ZM18.7567 7.28831C18.6737 7.20526 18.5908 7.12222 18.6737 6.95612C18.7567 6.87307 18.8397 6.79002 19.0056 6.79002C19.0886 6.87307 19.1716 6.95612 19.0886 7.12222C19.0886 7.20526 19.0056 7.28831 18.8397 7.28831C18.7567 7.28831 18.7567 7.28831 18.7567 7.28831ZM17.0972 6.79002C17.0972 6.62392 17.1802 6.54088 17.3461 6.54088C17.4291 6.54088 17.5951 6.62392 17.5951 6.79002C17.5951 6.95612 17.5121 7.03917 17.3461 7.03917C17.2632 6.95612 17.0972 6.87307 17.0972 6.79002Z" fill="#D4D8E4"/>
<path d="M17.4292 12.6034C16.3505 12.6034 15.5208 11.8559 15.2719 10.8594C15.1059 10.278 15.2719 9.69669 15.5208 9.1984C15.8527 8.70011 16.3505 8.36792 16.9314 8.20182C17.0973 8.20182 17.2633 8.11877 17.4292 8.11877C18.5079 8.11877 19.3376 8.86621 19.5865 9.86279C19.8355 11.0255 19.0887 12.2712 17.9271 12.5203C17.7611 12.6034 17.5952 12.6034 17.4292 12.6034ZM17.4292 8.53401C17.2633 8.53401 17.1803 8.53402 17.0143 8.61706C16.5165 8.70011 16.1016 9.03231 15.8527 9.44755C15.6038 9.86279 15.5208 10.3611 15.6038 10.8594C15.7697 11.6899 16.5165 12.2712 17.4292 12.2712C17.5952 12.2712 17.6781 12.2712 17.8441 12.1881C18.8398 11.939 19.5036 10.9424 19.2546 9.94584C19.0887 9.11535 18.3419 8.53401 17.4292 8.53401Z" fill="#B8814A"/>
<path d="M24.7305 16.0084C24.1497 16.0084 23.8178 15.9253 23.8178 15.9253C23.7348 15.9253 23.6519 15.8423 23.6519 15.6762C23.6519 15.5931 23.7348 15.5101 23.9008 15.5101C23.9008 15.5101 26.9708 16.0084 28.8792 14.0983C28.9622 14.0152 29.0452 14.0152 29.1282 14.0983C29.2111 14.1813 29.2111 14.2643 29.1282 14.3474C27.7176 15.7592 25.8922 16.0084 24.7305 16.0084Z" fill="#B8814A"/>
<path d="M18.2585 4.29855C18.1756 4.29855 18.1756 4.29855 18.0926 4.2155L15.7693 2.80368C15.6034 2.72064 15.6034 2.55454 15.6863 2.38844C15.7693 2.22234 15.9353 2.22234 16.1012 2.30539L18.4245 3.71721C18.5904 3.80026 18.5905 3.96636 18.5075 4.13246C18.4245 4.29855 18.3415 4.29855 18.2585 4.29855Z" fill="white"/>
<path d="M20.914 3.71722C20.8311 3.71722 20.831 3.71722 20.7481 3.63418L17.761 1.72406C17.5951 1.64101 17.5951 1.47491 17.678 1.30882C17.761 1.14272 17.927 1.14272 18.0929 1.22577L21.08 3.13588C21.2459 3.21893 21.2459 3.38503 21.1629 3.55112C21.1629 3.63417 21.08 3.71722 20.914 3.71722Z" fill="white"/>
<path d="M23.6517 3.05281C23.5687 3.05281 23.5688 3.05282 23.4858 2.96977L20.2498 0.976604C20.0838 0.893555 20.0838 0.727458 20.1668 0.561362C20.2498 0.395265 20.4157 0.395266 20.5817 0.478314L23.8177 2.47148C23.9836 2.55453 23.9836 2.72062 23.9007 2.88672C23.8177 3.05282 23.7347 3.05281 23.6517 3.05281Z" fill="white"/>
<path d="M26.3902 2.47146C26.3072 2.47146 26.3072 2.47146 26.2242 2.38841L23.4031 0.644389C23.2372 0.561341 23.2372 0.395244 23.3201 0.229147C23.4031 0.0630504 23.569 0.0630517 23.735 0.1461L26.5561 1.89012C26.7221 1.97316 26.7221 2.13926 26.6391 2.30536C26.5561 2.38841 26.4732 2.47146 26.3902 2.47146Z" fill="white"/>
<path d="M12.7827 25.3098C12.1189 25.3098 11.5381 25.1437 10.9573 24.8945C9.87859 24.3963 8.96588 23.4827 8.55101 22.3201C8.13614 21.1574 8.13612 19.9117 8.63396 18.832C9.7956 16.2575 11.87 13.9322 11.9529 13.8491C12.0359 13.683 12.2848 13.683 12.3678 13.8491C12.5337 13.9322 12.5337 14.1813 12.3678 14.2644C12.3678 14.2644 10.2935 16.5897 9.21479 19.0812C8.79992 20.0777 8.71694 21.1574 9.13181 22.0709C9.54669 23.0675 10.2105 23.8149 11.2062 24.2302C12.2019 24.6454 13.2805 24.7285 14.1932 24.3132C15.1889 23.898 15.9357 23.2336 16.3506 22.237C17.3463 20.0777 17.8441 16.6728 17.8441 16.5897C17.8441 16.4236 18.01 16.2575 18.176 16.3406C18.3419 16.3406 18.4249 16.5067 18.4249 16.6728C18.4249 16.8389 17.9271 20.1608 16.9314 22.4861C16.4335 23.5658 15.5208 24.4793 14.3592 24.8945C13.9443 25.2267 13.3635 25.3098 12.7827 25.3098Z" fill="white"/>
<path d="M15.1061 22.154C15.023 22.154 14.94 22.154 14.94 22.0709C14.94 22.0709 14.8569 21.9879 14.8569 21.9048C14.8569 21.8218 14.8569 21.7387 14.94 21.7387C15.023 21.6557 15.1891 21.6557 15.2722 21.7387C15.3552 21.8218 15.3552 21.8218 15.3552 21.9048C15.3552 21.9879 15.3552 21.9879 15.2722 22.0709C15.1891 22.0709 15.1891 22.154 15.1061 22.154Z" fill="#D4D8E4"/>
<path d="M12.2847 23.5658C12.2017 23.5658 12.0358 23.3997 12.1187 23.3166C12.1187 23.1505 12.2847 23.0675 12.3676 23.1505C12.4506 23.1505 12.6166 23.3166 12.5336 23.3997C12.5336 23.4827 12.4506 23.5658 12.2847 23.5658ZM13.6952 23.1505C13.6123 22.9844 13.6952 22.9014 13.7782 22.8183C13.8612 22.7353 14.0271 22.8183 14.1101 22.9014C14.1931 22.9844 14.1101 23.1505 14.0271 23.2336H13.9442C13.8612 23.3166 13.7782 23.2336 13.6952 23.1505ZM10.7082 22.7353C10.6252 22.6522 10.6252 22.4861 10.7082 22.4031C10.7911 22.32 10.9571 22.32 11.0401 22.4031C11.1231 22.4861 11.1231 22.6522 11.0401 22.7353C10.9571 22.7353 10.9571 22.8183 10.8741 22.8183C10.7911 22.8183 10.7082 22.8183 10.7082 22.7353ZM9.87842 21.1574C9.87842 20.9913 9.9614 20.9082 10.0444 20.9082C10.1274 20.9082 10.2933 20.9913 10.2933 21.0743C10.2933 21.2404 10.2103 21.3235 10.1274 21.3235C9.96141 21.3235 9.87842 21.2404 9.87842 21.1574Z" fill="#D4D8E4"/>
<path d="M10.3766 19.7456C10.2935 19.7456 10.2935 19.7456 10.2105 19.6625C10.2105 19.6625 10.1274 19.5795 10.1274 19.4964C10.1274 19.4134 10.1274 19.4134 10.2105 19.3303C10.2935 19.2473 10.4596 19.2473 10.5427 19.3303C10.5427 19.3303 10.6257 19.4134 10.6257 19.4964C10.6257 19.5795 10.6257 19.6625 10.5427 19.6625C10.4596 19.6625 10.3766 19.7456 10.3766 19.7456Z" fill="#D4D8E4"/>
<path d="M12.6993 22.237C12.4503 22.237 12.2014 22.1539 12.0355 22.0709C11.7036 21.9048 11.3717 21.5726 11.2887 21.1574C11.1227 20.7421 11.2057 20.3269 11.3717 19.9947C11.6206 19.4964 12.2014 19.1642 12.7822 19.1642C13.0311 19.1642 13.2801 19.2472 13.446 19.3303C14.1928 19.7455 14.5247 20.6591 14.1098 21.4065C13.8609 21.9048 13.2801 22.237 12.6993 22.237ZM12.6993 19.4964C12.2844 19.4964 11.8695 19.7455 11.6206 20.1608C11.4546 20.4099 11.4546 20.7421 11.5376 21.0743C11.6206 21.4065 11.8695 21.6557 12.1184 21.7387C12.6993 21.9879 13.446 21.8218 13.6949 21.2404C14.0268 20.6591 13.7779 19.9116 13.1971 19.6625C13.1141 19.5795 12.9482 19.4964 12.6993 19.4964Z" fill="#B8814A"/>
<path d="M21.7438 30.9571C20.1673 30.9571 18.0929 30.2096 16.0186 28.9639C14.1931 27.8012 12.6996 26.4725 11.9528 25.1437C11.8699 24.9776 11.9528 24.8115 12.0358 24.7284C12.2018 24.6454 12.3677 24.7284 12.4507 24.8115C13.1974 26.0572 14.608 27.386 16.3505 28.4656C18.6737 29.8774 21.163 30.6249 22.4906 30.2927C22.6565 30.2096 22.8224 30.3757 22.9054 30.5418C22.9884 30.7079 22.8225 30.874 22.6565 30.9571C22.4076 30.9571 22.0757 30.9571 21.7438 30.9571Z" fill="white"/>
<path d="M23.6522 28.7148C23.4862 28.7148 23.4033 28.6317 23.3203 28.4656C22.9054 27.0538 21.2459 25.3098 19.0886 23.981C18.2588 23.4827 17.4291 23.0675 16.5994 22.7353C16.4334 22.6522 16.3505 22.4862 16.4334 22.3201C16.5164 22.154 16.6824 22.0709 16.8483 22.154C17.761 22.4862 18.5907 22.9014 19.5035 23.4827C21.8267 24.8946 23.5692 26.8047 24.067 28.2995C24.15 28.4656 24.0671 28.6317 23.9011 28.7148C23.7352 28.7148 23.7351 28.7148 23.6522 28.7148Z" fill="white"/>
<path d="M24.2326 32.535C24.1496 32.535 24.1496 32.535 24.2326 32.535C23.0709 32.2859 22.2412 31.3723 22.2412 30.2096C22.2412 28.8809 23.3199 27.8843 24.5645 27.8843C24.8134 27.8843 24.9793 27.8843 25.2283 27.9673C25.3942 28.0504 25.4772 28.2165 25.4772 28.3826C25.3942 28.5487 25.2283 28.6317 25.0623 28.6317C24.8964 28.5487 24.7304 28.5487 24.5645 28.5487C23.6518 28.5487 22.822 29.2961 22.822 30.2927C22.822 31.1232 23.4028 31.8706 24.2326 31.9537C24.3985 31.9537 24.4815 32.1198 24.4815 32.2859C24.4815 32.4519 24.3156 32.535 24.2326 32.535Z" fill="white"/>
<path d="M17.0148 52.3836H16.9318L13.8618 50.8887C13.7788 50.8887 13.7788 50.8057 13.6958 50.7226C13.6958 50.6396 13.6958 50.5565 13.7788 50.5565L17.7615 47.4007C17.8445 47.3176 18.0105 47.3176 18.0934 47.4007C18.1764 47.4837 18.1764 47.6498 18.0934 47.7329L14.3596 50.6396L16.9318 51.8853L18.8402 48.4803C18.9232 48.3973 19.0062 48.3142 19.1721 48.3973C19.2551 48.4803 19.3381 48.5634 19.2551 48.7295L17.2637 52.3836C17.1807 52.3005 17.0977 52.3836 17.0148 52.3836Z" fill="white"/>
<path d="M19.7521 48.8125C19.4202 48.8125 19.0883 48.7294 18.7564 48.5633C17.7607 48.0651 17.2629 46.9024 17.7607 45.8228C17.8437 45.5736 18.0097 45.3245 18.2586 45.1584C18.3416 45.0753 18.5075 45.0753 18.5905 45.1584C18.6735 45.2414 18.6735 45.4075 18.5905 45.4906C18.4245 45.6567 18.3416 45.8228 18.2586 45.9889C17.9267 46.8193 18.2586 47.7329 19.0883 48.0651C19.6691 48.3142 20.167 48.3142 20.5819 48.0651C20.6649 47.982 20.8308 47.982 20.9138 48.1481C20.9967 48.2312 20.9967 48.3973 20.8308 48.4803C20.4159 48.7295 20.084 48.8125 19.7521 48.8125Z" fill="white"/>
<path d="M16.6822 60.4393C16.5992 60.4393 16.5163 60.3562 16.4333 60.2732L13.1973 51.7192C13.1973 51.6361 13.1973 51.5531 13.2802 51.47C13.3632 51.387 13.4462 51.387 13.5292 51.47L16.5162 52.8819C16.5992 52.8819 16.6822 52.9649 16.6822 53.048L16.9311 60.1901C16.9311 60.3562 16.8481 60.4393 16.6822 60.4393C16.7652 60.4393 16.7652 60.4393 16.6822 60.4393ZM13.9441 52.1344L16.4333 58.7783L16.2673 53.2141L13.9441 52.1344Z" fill="white"/>
<path d="M20.9141 37.2688H20.8312L16.6825 34.9434C16.6825 34.9434 16.6825 34.9434 16.5995 34.9434L12.7827 31.2062C12.6997 31.1232 12.6997 31.0401 12.6997 30.9571C12.7827 30.874 12.8656 30.791 12.9486 30.874L18.4249 31.9537C18.5079 31.9537 18.5079 31.9537 18.5909 32.0367L21.412 35.5247C21.495 35.6078 21.495 35.7739 21.412 35.8569C21.329 35.94 21.163 35.94 21.0801 35.8569L18.259 32.452L13.6124 31.5384L16.8484 34.6943L20.9141 37.0196C20.9971 37.1027 21.0801 37.1857 20.9971 37.3518C21.0801 37.2688 20.9971 37.2688 20.9141 37.2688Z" fill="white"/>
<path d="M21.8267 38.8467C21.7437 38.8467 21.7437 38.8467 21.6607 38.8467C20.9969 38.4315 20.665 37.684 20.665 36.9366C20.665 36.3552 20.914 35.7739 21.3288 35.3587C21.7437 34.9434 22.3245 34.7773 22.9054 34.7773C23.2372 34.7773 23.4862 34.8604 23.7351 34.9434C23.8181 35.0265 23.901 35.1095 23.8181 35.2756C23.7351 35.3587 23.6521 35.4417 23.4862 35.3587C23.2373 35.2756 23.0713 35.1926 22.8224 35.1926C22.3245 35.1926 21.9097 35.3587 21.5778 35.6909C21.2459 36.0231 21.0799 36.4383 20.997 36.9366C20.997 37.5179 21.2459 38.0993 21.8267 38.4315C21.9097 38.5145 21.9926 38.6806 21.9097 38.7637C21.9926 38.8467 21.9097 38.8467 21.8267 38.8467Z" fill="white"/>
<path d="M16.8482 34.9434C16.7653 34.9434 16.7653 34.9434 16.6823 34.8603C16.5993 34.7773 16.5163 34.6112 16.5993 34.5282L17.4291 33.4485C17.512 33.3655 17.678 33.2824 17.7609 33.3655C17.8439 33.4485 17.9269 33.6146 17.8439 33.6977L17.0142 34.7773C16.9312 34.9434 16.9312 34.9434 16.8482 34.9434Z" fill="white"/>
<path d="M3.90421 35.1926C3.82124 35.1926 3.73825 35.1095 3.65527 35.0265C3.65527 34.9434 3.65528 34.7773 3.82123 34.7773L11.3719 31.7876C11.4549 31.7876 11.5378 31.7876 11.6208 31.8706L14.193 34.279C14.276 34.3621 14.276 34.4451 14.276 34.5282C14.276 34.6112 14.193 34.6943 14.11 34.6943L3.90421 35.1926ZM11.3719 32.2028L5.31476 34.6112L13.4462 34.1129L11.3719 32.2028Z" fill="white"/>
<path d="M13.6949 42.1686C13.6119 42.1686 13.6119 42.1686 13.5289 42.0856L10.2929 39.7602C10.2099 39.6772 10.21 39.5941 10.21 39.5111C10.21 39.428 10.2929 39.345 10.3759 39.345L14.8565 37.8501C14.9395 37.8501 15.0225 37.8501 15.0225 37.8501L18.6733 40.0924C18.7563 40.1755 18.8393 40.3416 18.7563 40.4246C18.6733 40.5077 18.5074 40.5907 18.4244 40.5077L14.8565 38.3484L10.9567 39.6772L13.6949 41.6703L17.8436 41.3381C18.0095 41.3381 18.0925 41.4212 18.0925 41.5873C18.0925 41.7534 18.0095 41.8364 17.8436 41.8364L13.6949 42.1686Z" fill="white"/>
<path d="M18.5077 43.5804C18.4247 43.5804 18.4247 43.5804 18.3417 43.4974C17.7609 42.9161 17.512 42.1686 17.6779 41.4212C17.9268 40.2585 19.1714 39.428 20.3331 39.7602C20.582 39.8433 20.9139 39.9263 21.1628 40.0924C21.2458 40.1755 21.3288 40.3416 21.2458 40.4246C21.1628 40.5077 20.9969 40.5907 20.9139 40.5076C20.7479 40.3416 20.499 40.2585 20.2501 40.2585C19.3374 40.0924 18.3417 40.6737 18.1757 41.5873C18.0098 42.1686 18.2587 42.833 18.6736 43.2482C18.7566 43.3313 18.7566 43.4974 18.6736 43.5804C18.6736 43.5804 18.5906 43.5804 18.5077 43.5804Z" fill="white"/>
<path d="M13.778 42.0025H13.695C13.612 41.9195 13.529 41.8364 13.612 41.6703L14.4417 39.9263C14.5247 39.8433 14.6077 39.7602 14.7737 39.8433C14.8566 39.9263 14.9396 40.0094 14.8566 40.1755L14.0269 41.9195C13.9439 41.9195 13.8609 42.0025 13.778 42.0025Z" fill="white"/>
<path d="M4.89955 46.4872C4.81658 46.4872 4.73362 46.4872 4.73362 46.4041C4.65064 46.3211 4.65064 46.155 4.73362 46.0719L9.79505 40.6738C9.87802 40.5907 10.044 40.5907 10.1269 40.6738L12.4502 42.5008C12.5332 42.5839 12.5332 42.6669 12.5332 42.75C12.5332 42.833 12.4502 42.9161 12.3672 42.9161L4.98253 46.4872C4.98253 46.4872 4.89955 46.4872 4.89955 46.4872ZM9.96098 41.1721L5.89525 45.4906L11.8694 42.6669L9.96098 41.1721Z" fill="white"/>
<path d="M39.5006 19.1642C39.3345 19.1642 39.2515 19.0812 39.2515 18.9151V15.5101C39.2515 15.344 39.3345 15.261 39.5006 15.261C39.6667 15.261 39.7497 15.344 39.7497 15.5101V18.9151C39.7497 19.0812 39.6667 19.1642 39.5006 19.1642Z" fill="#B8814A"/>
<path d="M37.0116 18.9151C36.9286 18.9151 36.8455 18.8321 36.7625 18.749L36.1812 16.6728C36.1812 16.5898 36.1812 16.4237 36.3473 16.4237C36.4303 16.4237 36.5964 16.4237 36.5964 16.5898L37.1777 18.666C37.2608 18.749 37.1777 18.8321 37.0116 18.9151C37.0116 18.9151 37.0947 18.9151 37.0116 18.9151Z" fill="#B8814A"/>
<path d="M42.0719 18.9151C41.9889 18.9151 41.9889 18.9151 42.0719 18.9151C41.9058 18.9151 41.8228 18.749 41.8228 18.666L42.321 16.5898C42.321 16.4237 42.4872 16.4237 42.5702 16.4237C42.7363 16.4237 42.7363 16.5898 42.7363 16.6728L42.238 18.749C42.238 18.8321 42.155 18.9151 42.0719 18.9151Z" fill="#B8814A"/>
<path d="M41.1593 47.5668H41.0764L39.5828 46.4872L38.0893 47.5668C38.0063 47.6498 37.9233 47.6498 37.8404 47.5668C37.7574 47.4838 37.7574 47.4007 37.7574 47.3177L38.3382 45.4906L36.8447 44.411C36.7617 44.3279 36.7617 44.2449 36.7617 44.1618C36.7617 44.0788 36.8447 43.9957 36.9277 43.9957H38.8361L39.4169 42.1687C39.4999 42.0026 39.7488 42.0026 39.7488 42.1687L40.3296 43.9957H42.238C42.321 43.9957 42.404 44.0788 42.404 44.1618C42.404 44.2449 42.4039 44.3279 42.321 44.411L40.8274 45.4906L41.4083 47.3177C41.4083 47.4007 41.4083 47.4838 41.3253 47.5668C41.2423 47.5668 41.1593 47.5668 41.1593 47.5668ZM37.4255 44.411L38.5871 45.2414C38.6701 45.3245 38.6701 45.4075 38.6701 45.4906L38.2552 46.9024L39.4169 46.0719C39.4999 45.9889 39.5828 45.9889 39.6658 46.0719L40.8274 46.9024L40.4126 45.4906C40.4126 45.4075 40.4126 45.3245 40.4956 45.2414L41.6572 44.411H40.1636C40.0807 44.411 39.9977 44.3279 39.9977 44.2449L39.5828 42.833L39.168 44.2449C39.168 44.3279 39.085 44.411 39.002 44.411H37.4255Z" fill="white"/>
<path d="M9.04863 29.4622L2.74262 27.9673C2.65964 27.9673 2.57666 27.8843 2.57666 27.7182C2.57666 27.6351 2.65962 27.5521 2.82557 27.5521L9.13161 29.047C9.21459 29.047 9.29757 29.13 9.29757 29.2961C9.2146 29.4622 9.21458 29.4622 9.04863 29.4622Z" fill="#B8814A"/>
<path d="M4.31907 26.6386L4.56798 26.9707L2.90849 27.8843L3.98717 29.3792L3.65526 29.6283L2.41064 27.7182L4.31907 26.6386Z" fill="#B8814A"/>
<path d="M6.39369 51.6362C6.31071 51.6362 6.3107 51.6362 6.22773 51.5531C6.14475 51.4701 6.22773 51.387 6.31071 51.304L11.704 47.8159C11.787 47.7329 11.87 47.8159 11.9529 47.899C12.0359 47.982 11.953 48.0651 11.87 48.1481L6.47666 51.6362C6.47666 51.6362 6.39369 51.6362 6.39369 51.6362Z" fill="#B8814A"/>
<path d="M6.64233 49.4769L6.97422 49.56L6.47639 51.304L8.30181 51.6362L8.21883 52.0514L6.06152 51.6362L6.64233 49.4769Z" fill="#B8814A"/>
<path d="M1.41498 39.5941C1.33201 39.5941 1.24902 39.5111 1.24902 39.428C1.24902 39.345 1.24903 39.2619 1.41498 39.1789L7.72102 37.767C7.804 37.767 7.88696 37.767 7.96993 37.9331C7.96993 38.0162 7.96992 38.0992 7.80398 38.1823L1.41498 39.5941Z" fill="#B8814A"/>
<path d="M2.24461 37.684L2.5765 37.8501L1.49785 39.428L3.15733 40.3416L2.9084 40.6738L1 39.5111L2.24461 37.684Z" fill="#B8814A"/>
<path d="M61.9856 52.3836C61.9027 52.3836 61.8197 52.3005 61.8197 52.3005L59.8283 48.6464C59.7453 48.5633 59.8283 48.3972 59.9113 48.3142C59.9943 48.2312 60.1602 48.3142 60.2432 48.3972L62.1516 51.8022L64.7238 50.5565L60.9899 47.6498C60.907 47.5668 60.907 47.4007 60.9899 47.3176C61.0729 47.2346 61.2389 47.2346 61.3218 47.3176L65.3046 50.4735C65.3876 50.5565 65.3876 50.6395 65.3876 50.6395C65.3876 50.7226 65.3046 50.8057 65.2216 50.8057L62.1516 52.3005C62.0686 52.3005 62.0686 52.3836 61.9856 52.3836Z" fill="white"/>
<path d="M59.2478 48.8125C58.9159 48.8125 58.584 48.7295 58.2521 48.4803C58.1691 48.3973 58.0862 48.2312 58.1691 48.1481C58.2521 48.0651 58.4181 47.982 58.501 48.0651C58.9159 48.3142 59.4138 48.3142 59.9946 48.0651C60.8243 47.7329 61.1562 46.7363 60.8243 45.9889C60.7413 45.8228 60.5754 45.6567 60.4924 45.4906C60.4094 45.4075 60.4094 45.2414 60.4924 45.1584C60.5754 45.0753 60.7413 45.0753 60.8243 45.1584C60.9903 45.3245 61.1562 45.5736 61.3221 45.8228C61.82 46.8194 61.3222 48.0651 60.3265 48.5634C59.9116 48.7295 59.5797 48.8125 59.2478 48.8125Z" fill="white"/>
<path d="M62.3178 60.4393C62.3178 60.4393 62.2348 60.4393 62.3178 60.4393C62.1518 60.4393 62.0688 60.2732 62.0688 60.1901L62.3178 53.048C62.3178 52.9649 62.4007 52.8819 62.4837 52.8819L65.4708 51.47C65.5537 51.47 65.6367 51.47 65.7197 51.47C65.8027 51.5531 65.8027 51.6361 65.8027 51.7192L62.5667 60.2732C62.4837 60.4393 62.4007 60.4393 62.3178 60.4393ZM62.8156 53.2141L62.6497 58.7783L65.1389 52.1344L62.8156 53.2141Z" fill="white"/>
<path d="M58.0864 37.2688C58.0034 37.2688 57.9205 37.1857 57.9205 37.1857C57.8375 37.1027 57.9204 36.9366 58.0034 36.8536L62.0692 34.5282L65.3052 31.3724L60.6586 32.2859L57.8375 35.7739C57.7545 35.857 57.5886 35.857 57.5056 35.7739C57.4226 35.6909 57.4226 35.5248 57.5056 35.4417L60.4097 31.8707C60.4097 31.7876 60.4926 31.7876 60.5756 31.7876L66.0519 30.708C66.1349 30.708 66.2179 30.708 66.3008 30.791C66.3838 30.8741 66.3008 30.9571 66.2179 31.0402L62.3181 34.9434C62.3181 34.9434 62.3181 34.9434 62.2351 34.9434L58.1694 37.2688C58.1694 37.2688 58.1694 37.2688 58.0864 37.2688Z" fill="white"/>
<path d="M57.1737 38.8467C57.0907 38.8467 57.0077 38.8467 57.0077 38.7637C56.9248 38.6806 57.0077 38.5145 57.0907 38.4315C57.5886 38.0993 57.9205 37.5179 57.9205 36.9366C57.9205 36.4383 57.7545 36.0231 57.3396 35.6909C57.0077 35.3587 56.5929 35.1926 56.095 35.1926C55.8461 35.1926 55.5972 35.2756 55.4312 35.3587C55.3483 35.4417 55.1823 35.3587 55.0993 35.2756C55.0163 35.1926 55.0993 35.0265 55.1823 34.9435C55.4312 34.8604 55.7631 34.7774 56.012 34.7774C56.5928 34.7774 57.1737 34.9435 57.5885 35.3587C58.0034 35.7739 58.2523 36.3553 58.2523 36.9366C58.2523 37.684 57.9204 38.4315 57.2566 38.8467C57.2566 38.8467 57.2566 38.8467 57.1737 38.8467Z" fill="white"/>
<path d="M62.1522 34.9434C62.0693 34.9434 61.9863 34.9434 61.9863 34.8604L61.1566 33.7808C61.0736 33.6977 61.0736 33.5316 61.2395 33.4486C61.3225 33.3655 61.4884 33.3655 61.5714 33.5316L62.4012 34.6112C62.4841 34.6943 62.4841 34.8604 62.3182 34.9434C62.3182 34.9434 62.2352 34.9434 62.1522 34.9434Z" fill="white"/>
<path d="M75.0959 35.1926L64.9731 34.6113C64.8901 34.6113 64.8071 34.5282 64.8071 34.4451C64.8071 34.3621 64.8071 34.2791 64.8901 34.196L67.4623 31.7876C67.5453 31.7046 67.6282 31.7046 67.7112 31.7046L75.1789 34.6943C75.2619 34.6943 75.3449 34.7773 75.3449 34.9434C75.3449 35.0265 75.2619 35.1926 75.0959 35.1926ZM65.5539 34.113L73.6854 34.6113L67.6282 32.2028L65.5539 34.113Z" fill="white"/>
<path d="M65.3057 42.1686L61.074 41.8364C60.9081 41.8364 60.8251 41.7534 60.8251 41.5873C60.8251 41.4212 60.9081 41.3381 61.074 41.3381L65.2227 41.6703L67.9609 39.6771L64.0611 38.3484L60.4932 40.5076C60.4102 40.5907 60.2443 40.5076 60.1613 40.4246C60.0783 40.3415 60.1613 40.1754 60.2443 40.0924L63.8952 37.8501C63.9781 37.8501 64.0611 37.767 64.0611 37.8501L68.5417 39.3449C68.6247 39.3449 68.7077 39.428 68.7077 39.511C68.7077 39.5941 68.7077 39.6771 68.6247 39.7602L65.3887 42.0855C65.3887 42.1686 65.3887 42.1686 65.3057 42.1686Z" fill="white"/>
<path d="M60.4928 43.5804C60.4099 43.5804 60.4099 43.5804 60.3269 43.4974C60.2439 43.4143 60.2439 43.2482 60.3269 43.1652C60.7418 42.7499 60.9907 42.0856 60.8247 41.5042C60.5758 40.5907 59.6631 39.9263 58.7504 40.1755C58.5015 40.2585 58.3355 40.3416 58.0866 40.4246C58.0036 40.5076 57.8377 40.5076 57.7547 40.3415C57.6717 40.2585 57.6717 40.0924 57.8377 40.0094C58.0866 39.8433 58.3355 39.7602 58.6674 39.6772C59.8291 39.428 61.0737 40.1754 61.3226 41.3381C61.4885 42.0856 61.2396 42.916 60.6588 43.4143C60.5758 43.5804 60.4928 43.5804 60.4928 43.5804Z" fill="white"/>
<path d="M65.2219 42.0025C65.1389 42.0025 65.056 41.9195 64.973 41.8364L64.1433 40.0924C64.0603 40.0093 64.1432 39.8433 64.2262 39.7602C64.3092 39.6772 64.4752 39.7602 64.5581 39.8432L65.3879 41.5873C65.4708 41.6703 65.3879 41.8364 65.3049 41.9195C65.3049 42.0025 65.3049 42.0025 65.2219 42.0025Z" fill="white"/>
<path d="M74.1004 46.4871H74.0174L66.6328 42.916C66.5498 42.916 66.5498 42.833 66.4668 42.7499C66.4668 42.6669 66.4668 42.5838 66.5498 42.5008L68.873 40.6737C68.956 40.5907 69.122 40.5907 69.2049 40.6737L74.2664 46.0719C74.3493 46.0719 74.3493 46.1549 74.3493 46.238C74.3493 46.4041 74.2664 46.4871 74.1004 46.4871ZM67.1306 42.6669L73.1047 45.4905L69.039 41.172L67.1306 42.6669Z" fill="white"/>
<path d="M69.9516 29.4622C69.8686 29.4622 69.7856 29.3792 69.7856 29.2961C69.7856 29.2131 69.7857 29.13 69.9516 29.047L76.2576 27.5521C76.3406 27.5521 76.4236 27.5521 76.5066 27.7182C76.5066 27.8012 76.5065 27.8843 76.3406 27.9673L69.9516 29.4622Z" fill="#B8814A"/>
<path d="M75.3448 29.6283L75.0129 29.3792L76.0916 27.8843L74.4321 26.9708L74.681 26.6386L76.5895 27.7182L75.3448 29.6283Z" fill="#B8814A"/>
<path d="M72.6066 51.6361H72.5236L67.1303 48.1481C67.0473 48.065 67.0474 47.982 67.0474 47.899C67.1303 47.8159 67.2133 47.8159 67.2963 47.8159L72.6896 51.3039C72.7726 51.387 72.7726 51.47 72.7726 51.5531C72.7726 51.5531 72.6896 51.6361 72.6066 51.6361Z" fill="#B8814A"/>
<path d="M70.7812 52.0514L70.6982 51.6361L72.5237 51.3039L72.0258 49.5599L72.4407 49.4769L72.9385 51.6361L70.7812 52.0514Z" fill="#B8814A"/>
<path d="M77.5853 39.5941L71.2792 38.1823C71.1962 38.1823 71.1133 38.0992 71.1133 37.9331C71.1133 37.8501 71.1962 37.767 71.3622 37.767L77.6682 39.1789C77.7512 39.1789 77.8342 39.2619 77.8342 39.428C77.7512 39.5941 77.6682 39.5941 77.5853 39.5941Z" fill="#B8814A"/>
<path d="M76.0917 40.6737L75.9258 40.3416L77.5023 39.428L76.4236 37.8501L76.7555 37.684L78.0001 39.5111L76.0917 40.6737Z" fill="#B8814A"/>
<path d="M53.0243 45.8228C52.8584 45.8228 52.6925 45.8228 52.5265 45.7397C52.1946 45.6567 51.9457 45.4075 51.7797 45.0753C51.6138 44.7431 51.6138 44.4109 51.7797 44.0787C52.0287 43.4144 52.7754 43.0822 53.4392 43.3313C53.7711 43.4144 54.0201 43.6635 54.186 43.9957C54.352 44.3279 54.352 44.6601 54.186 44.9923C54.103 45.4906 53.6052 45.8228 53.0243 45.8228ZM53.0243 43.5805C52.6095 43.5805 52.2776 43.8296 52.1117 44.1618C52.0287 44.4109 52.0287 44.6601 52.1117 44.9092C52.1946 45.1584 52.4435 45.3245 52.6095 45.4075C53.1073 45.5736 53.6052 45.3245 53.8541 44.8262C53.9371 44.577 53.9371 44.3279 53.8541 44.0787C53.7711 43.8296 53.5222 43.6635 53.3563 43.5805C53.2733 43.5805 53.1903 43.5805 53.0243 43.5805Z" fill="#D4D8E4"/>
<path d="M52.5266 46.8193C52.4436 46.8193 52.3606 46.6532 52.3606 46.5702C52.3606 46.4871 52.5266 46.4041 52.6095 46.4041C52.7755 46.4041 52.8585 46.5702 52.7755 46.6532C52.7755 46.7363 52.6925 46.8193 52.5266 46.8193C52.5266 46.8193 52.6096 46.8193 52.5266 46.8193ZM53.7712 46.4041C53.6882 46.321 53.7712 46.1549 53.8542 46.0719C53.9371 45.9888 54.1031 46.0719 54.1861 46.1549C54.269 46.238 54.1861 46.4041 54.1031 46.4871H54.0201C53.9371 46.5702 53.8542 46.4871 53.7712 46.4041ZM51.199 45.9889C51.116 45.9058 51.116 45.7397 51.199 45.6567C51.282 45.5736 51.4479 45.5736 51.5309 45.6567C51.6139 45.7397 51.6139 45.9058 51.5309 45.9889C51.5309 45.9889 51.4479 46.0719 51.3649 46.0719C51.282 46.0719 51.199 45.9889 51.199 45.9889ZM54.8499 45.4075C54.6839 45.4075 54.6839 45.2414 54.6839 45.0753C54.6839 44.9923 54.8499 44.9092 55.0158 44.9092C55.0988 44.9092 55.1817 45.0753 55.1817 45.2414C55.0988 45.4075 55.0158 45.4906 54.8499 45.4075C54.9328 45.4906 54.9328 45.4906 54.8499 45.4075ZM50.6182 44.494C50.6182 44.3279 50.7012 44.2448 50.8671 44.2448C51.033 44.2448 51.116 44.3279 51.116 44.494C51.116 44.6601 51.033 44.7431 50.8671 44.7431C50.7012 44.7431 50.6182 44.577 50.6182 44.494ZM54.7669 43.8296C54.7669 43.7465 54.7669 43.5804 54.9328 43.4974C55.0158 43.4974 55.1817 43.4974 55.2647 43.6635C55.3477 43.8296 55.2647 43.9126 55.0988 43.9957H55.0158C54.8499 43.9957 54.7669 43.9126 54.7669 43.8296ZM51.199 43.2483C51.116 43.1652 51.116 42.9991 51.199 42.9161C51.282 42.833 51.4479 42.833 51.5309 42.9161C51.6139 42.9991 51.6139 43.1652 51.5309 43.2483C51.4479 43.3313 51.4479 43.3313 51.3649 43.3313C51.282 43.3313 51.282 43.3313 51.199 43.2483ZM53.9371 42.833C53.8542 42.75 53.7712 42.6669 53.8542 42.5008C53.9371 42.4178 54.0201 42.3347 54.1861 42.4178C54.269 42.5008 54.352 42.5839 54.269 42.75C54.186 42.833 54.1861 42.833 54.1031 42.833C54.0201 42.9161 53.9371 42.833 53.9371 42.833ZM52.3606 42.4178C52.3606 42.3347 52.4436 42.1686 52.5266 42.1686C52.6925 42.1686 52.7755 42.2517 52.7755 42.3347C52.7755 42.5008 52.6925 42.5839 52.6095 42.5839C52.5266 42.6669 52.4436 42.5839 52.3606 42.4178Z" fill="#B8814A"/>
<path d="M25.9753 45.8228C25.3945 45.8228 24.8966 45.4906 24.7307 44.9923C24.6477 44.6601 24.6477 44.3279 24.7307 43.9957C24.8966 43.6635 25.1456 43.4144 25.4774 43.3313C26.1412 43.0822 26.888 43.4144 27.1369 44.0787C27.2199 44.4109 27.2199 44.7431 27.1369 45.0753C26.971 45.4075 26.7221 45.6567 26.3902 45.7397C26.3072 45.8228 26.1412 45.8228 25.9753 45.8228ZM25.9753 43.5805C25.8923 43.5805 25.7264 43.5805 25.6434 43.6635C25.3945 43.7466 25.2285 43.9127 25.1456 44.1618C25.0626 44.4109 25.0626 44.6601 25.1456 44.9092C25.3115 45.4075 25.8923 45.6567 26.3902 45.4906C26.6391 45.4075 26.805 45.2414 26.888 44.9923C26.971 44.7431 26.971 44.494 26.888 44.2448C26.722 43.8296 26.3902 43.5805 25.9753 43.5805Z" fill="#D4D8E4"/>
<path d="M26.141 46.5702C26.141 46.4041 26.224 46.321 26.3069 46.321C26.3899 46.321 26.5558 46.4041 26.5558 46.4871C26.5558 46.6532 26.4729 46.7363 26.3899 46.7363C26.3899 46.7363 26.3899 46.7363 26.3069 46.7363C26.3069 46.8193 26.224 46.7363 26.141 46.5702ZM24.8964 46.4871C24.8134 46.4041 24.7304 46.321 24.8134 46.1549C24.8964 46.0719 24.9794 45.9888 25.1453 46.0719C25.2283 46.1549 25.3112 46.238 25.2283 46.4041C25.1453 46.4871 25.1453 46.4871 25.0623 46.4871C24.9793 46.5702 24.8964 46.5702 24.8964 46.4871ZM27.4686 45.9888C27.3856 45.9058 27.3856 45.7397 27.4686 45.6566C27.5515 45.5736 27.7175 45.5736 27.8005 45.6566C27.8834 45.7397 27.8834 45.9058 27.8005 45.9888C27.8005 46.0719 27.7175 46.0719 27.6345 46.0719C27.6345 46.0719 27.5515 46.0719 27.4686 45.9888ZM23.8177 45.3245C23.7347 45.1584 23.8177 45.0753 23.9836 44.9923C24.0666 44.9092 24.2326 44.9923 24.3156 45.1584C24.3985 45.2414 24.3155 45.4075 24.1496 45.4905H24.0666C23.9836 45.4905 23.9007 45.4075 23.8177 45.3245ZM27.8834 44.494C27.8834 44.3279 27.9664 44.2448 28.1324 44.2448C28.2153 44.2448 28.3813 44.3279 28.3813 44.494C28.3813 44.6601 28.2983 44.7431 28.1324 44.7431C28.0494 44.7431 27.8834 44.577 27.8834 44.494ZM23.9836 43.9957C23.9007 43.9957 23.8177 43.8296 23.8177 43.6635C23.9007 43.5804 23.9837 43.4974 24.1496 43.4974C24.2326 43.5804 24.3156 43.6635 24.3156 43.8296C24.2326 43.9126 24.1496 43.9957 23.9836 43.9957ZM27.4686 43.2482C27.3856 43.1652 27.3856 42.9991 27.4686 42.9161C27.5515 42.833 27.7175 42.833 27.8005 42.9161C27.8834 42.9991 27.8834 43.1652 27.8005 43.2482C27.8005 43.2482 27.7175 43.3313 27.6345 43.3313C27.5516 43.3313 27.4686 43.3313 27.4686 43.2482ZM24.7304 42.7499C24.6475 42.6669 24.7304 42.5008 24.8134 42.4178C24.8964 42.3347 25.0623 42.4178 25.1453 42.5008C25.2283 42.5839 25.1453 42.75 25.0623 42.833H24.9793C24.8964 42.916 24.8134 42.833 24.7304 42.7499ZM26.3069 42.5839C26.224 42.5839 26.141 42.4178 26.141 42.3347C26.141 42.1686 26.3069 42.0856 26.3899 42.1686C26.4729 42.1686 26.6388 42.3347 26.5558 42.4178C26.5558 42.5839 26.4729 42.6669 26.3069 42.5839C26.3899 42.6669 26.3899 42.6669 26.3069 42.5839Z" fill="#B8814A"/>
<path d="M39.4998 52.6327C36.1808 52.6327 33.0278 50.8887 31.3684 47.982C31.2854 47.899 31.3683 47.8159 31.4513 47.7329C31.5343 47.6498 31.6173 47.7329 31.7002 47.8159C33.3597 50.5565 36.3468 52.2175 39.4998 52.2175C42.6528 52.2175 45.7229 50.5565 47.2994 47.8159C47.3824 47.7329 47.4653 47.7329 47.5483 47.7329C47.6313 47.8159 47.6313 47.899 47.6313 47.982C45.9718 50.8057 42.8188 52.6327 39.4998 52.6327Z" fill="#B8814A"/>
<path d="M34.107 48.4803C34.024 48.4803 34.024 48.4803 33.9409 48.3973C33.8579 48.3973 33.8579 48.3142 33.8579 48.2312C33.8579 48.1481 33.8579 48.0651 33.9409 48.0651C34.024 47.982 34.1901 47.982 34.2732 48.0651C34.2732 48.0651 34.3562 48.1481 34.3562 48.2312C34.3562 48.3142 34.3562 48.3142 34.2732 48.3973C34.1901 48.4803 34.107 48.4803 34.107 48.4803Z" fill="#D4D8E4"/>
<path d="M39.2509 50.5565C39.2509 50.4735 39.3339 50.3074 39.4998 50.3074C39.5828 50.3074 39.7487 50.3904 39.7487 50.5565C39.7487 50.7226 39.6658 50.8057 39.4998 50.8057C39.3339 50.8057 39.2509 50.7226 39.2509 50.5565ZM40.7444 50.4735C40.7444 50.3904 40.8274 50.2243 40.9104 50.2243C41.0763 50.2243 41.1593 50.3074 41.1593 50.3904C41.1593 50.4735 41.0763 50.6396 40.9934 50.6396C40.9934 50.6396 40.9934 50.6396 40.9104 50.6396C40.9104 50.6396 40.8274 50.5565 40.7444 50.4735ZM37.9233 50.6396C37.8404 50.6396 37.7574 50.4735 37.7574 50.3904C37.7574 50.2243 37.9233 50.2243 38.0063 50.2243C38.0893 50.2243 38.1722 50.3904 38.1722 50.4735C38.1722 50.5565 38.0893 50.6396 37.9233 50.6396C37.9233 50.6396 38.0063 50.6396 37.9233 50.6396ZM42.238 50.0582C42.155 49.9752 42.238 49.8091 42.3209 49.726C42.4039 49.643 42.5699 49.726 42.6528 49.8091C42.7358 49.8921 42.6529 50.0582 42.5699 50.1413H42.4869C42.4039 50.2243 42.238 50.1413 42.238 50.0582ZM36.4298 50.1413C36.3468 50.0582 36.2638 49.9752 36.3468 49.8091C36.4298 49.726 36.5128 49.643 36.6787 49.726C36.7617 49.8091 36.8447 49.8921 36.7617 50.0582C36.7617 50.1413 36.6787 50.2243 36.5128 50.2243C36.5128 50.2243 36.5128 50.1413 36.4298 50.1413ZM43.5656 49.3938C43.4826 49.3108 43.4826 49.1447 43.6485 49.0616C43.7315 48.9786 43.8975 48.9786 43.9804 49.1447C44.0634 49.2277 44.0634 49.3938 43.8974 49.4769C43.8145 49.4769 43.8145 49.5599 43.7315 49.5599C43.7315 49.4769 43.6485 49.3938 43.5656 49.3938ZM35.1022 49.3938C35.0192 49.3108 34.9363 49.1447 35.0192 49.0616C35.1022 48.9786 35.2681 48.8955 35.3511 48.9786C35.4341 49.0616 35.4341 49.2277 35.4341 49.3108C35.3511 49.3938 35.3511 49.3938 35.2681 49.3938C35.1852 49.4769 35.1022 49.4769 35.1022 49.3938Z" fill="#D4D8E4"/>
<path d="M44.8937 48.4803C44.8106 48.4803 44.8106 48.4803 44.7276 48.3973C44.7276 48.3973 44.6445 48.3142 44.6445 48.2312C44.6445 48.1481 44.6445 48.0651 44.7276 48.0651C44.8106 47.982 44.9767 47.982 45.0598 48.0651C45.1428 48.0651 45.1428 48.1481 45.1428 48.2312C45.1428 48.3142 45.1428 48.3142 45.0598 48.3973C45.0598 48.3973 44.9767 48.4803 44.8937 48.4803Z" fill="#D4D8E4"/>
<path d="M30.5392 62.8477C30.5392 62.8477 30.4561 62.8477 30.3731 62.7646C30.3731 62.7646 30.29 62.6816 30.29 62.5985C30.29 62.5155 30.29 62.5155 30.3731 62.4324C30.4561 62.3494 30.5392 62.3494 30.6222 62.4324C30.6222 62.4324 30.7053 62.5155 30.7053 62.5985C30.7053 62.6816 30.7053 62.6816 30.6222 62.7646C30.6222 62.7646 30.6222 62.8477 30.5392 62.8477Z" fill="#B8814A"/>
<path d="M31.5358 62.4325C31.4529 62.3494 31.5358 62.2664 31.6188 62.1833C31.7018 62.1003 31.7848 62.1833 31.8677 62.2664C31.9507 62.3494 31.8677 62.4325 31.7848 62.5155H31.7018C31.6188 62.5155 31.5358 62.5155 31.5358 62.4325ZM32.5315 61.7681C32.4486 61.685 32.5315 61.602 32.6145 61.5189C32.6975 61.4359 32.7805 61.5189 32.8634 61.602C32.9464 61.685 32.8634 61.7681 32.7804 61.8511H32.6975C32.6145 61.8511 32.5315 61.8511 32.5315 61.7681Z" fill="#B8814A"/>
<path d="M33.775 61.602C33.692 61.602 33.692 61.602 33.6089 61.5189C33.6089 61.5189 33.5259 61.4359 33.5259 61.3528C33.5259 61.2698 33.5259 61.2698 33.6089 61.1867C33.692 61.1037 33.775 61.1037 33.8581 61.1867C33.8581 61.2698 33.9411 61.2698 33.9411 61.3528C33.9411 61.4359 33.9411 61.4359 33.8581 61.5189C33.8581 61.5189 33.8581 61.602 33.775 61.602Z" fill="#B8814A"/>
<path d="M30.5388 62.8477C29.7091 62.8477 29.2112 62.5155 28.7963 62.1833C28.3815 61.8511 28.0496 61.602 27.3028 61.602C26.556 61.602 26.2241 61.8511 25.8093 62.1833C25.3944 62.5155 24.9795 62.8477 24.0668 62.8477C23.9838 62.8477 23.9009 62.7646 23.9009 62.6816C23.9009 62.5985 23.9838 62.5155 24.0668 62.5155C24.8136 62.5155 25.1455 62.2663 25.5604 61.9341C25.9752 61.602 26.3901 61.2698 27.3028 61.2698C28.2155 61.2698 28.6304 61.602 29.0453 61.9341C29.4601 62.2663 29.792 62.5155 30.5388 62.5155C30.6218 62.5155 30.7047 62.5985 30.7047 62.6816C30.7877 62.7646 30.7048 62.8477 30.5388 62.8477Z" fill="#B8814A"/>
<path d="M20.9142 61.602C20.8312 61.602 20.8311 61.602 20.7481 61.5189C20.7481 61.5189 20.665 61.4359 20.665 61.3528C20.665 61.2698 20.665 61.2698 20.7481 61.1867C20.8311 61.1037 20.9142 61.1037 20.9973 61.1867C20.9973 61.2698 21.0803 61.2698 21.0803 61.3528C21.0803 61.4359 21.0803 61.4359 20.9973 61.5189C20.9973 61.5189 20.9142 61.602 20.9142 61.602Z" fill="#B8814A"/>
<path d="M22.905 62.5155C22.822 62.4324 22.822 62.3494 22.822 62.2663C22.905 62.1833 22.988 62.1833 23.071 62.1833C23.154 62.2663 23.1539 62.3494 23.1539 62.4324C23.1539 62.5155 23.071 62.5155 22.988 62.5155H22.905ZM21.9093 61.8511C21.8263 61.768 21.7434 61.685 21.8264 61.6019C21.9093 61.5189 21.9923 61.5189 22.0753 61.5189C22.1583 61.6019 22.1583 61.685 22.1583 61.768C22.1583 61.8511 22.0753 61.8511 21.9923 61.8511C21.9923 61.8511 21.9923 61.8511 21.9093 61.8511Z" fill="#B8814A"/>
<path d="M24.15 62.8477C24.067 62.8477 24.067 62.8477 23.9839 62.7646C23.9839 62.7646 23.9009 62.6816 23.9009 62.5985C23.9009 62.5155 23.9009 62.5155 23.9839 62.4324C24.067 62.3494 24.15 62.3494 24.2331 62.4324C24.2331 62.5155 24.3161 62.5155 24.3161 62.5985C24.3161 62.6816 24.3161 62.6816 24.2331 62.7646L24.15 62.8477Z" fill="#B8814A"/>
<path d="M30.539 64.6748C30.456 64.6748 30.373 64.5917 30.373 64.5087C30.373 64.4256 30.456 64.3426 30.539 64.3426C31.2858 64.3426 31.6177 64.0934 32.0325 63.7612C32.4474 63.429 32.8623 63.0968 33.775 63.0968C33.858 63.0968 33.9409 63.1799 33.9409 63.2629C33.9409 63.346 33.858 63.429 33.775 63.429C33.0282 63.429 32.6963 63.6782 32.2814 64.0104C31.8666 64.3426 31.4517 64.6748 30.539 64.6748Z" fill="#B8814A"/>
<path d="M24.15 64.6747C24.067 64.6747 24.067 64.6747 23.9839 64.5917L23.9009 64.5086C23.9009 64.4256 23.9009 64.4256 23.9839 64.3425C23.9839 64.2595 24.15 64.2595 24.2331 64.3425C24.2331 64.3425 24.3161 64.4256 24.3161 64.5086C24.3161 64.5086 24.3161 64.5917 24.2331 64.5917C24.2331 64.6747 24.15 64.6747 24.15 64.6747Z" fill="#B8814A"/>
<path d="M25.0622 64.3425C24.9792 64.2595 25.0622 64.1765 25.1452 64.0934C25.2282 64.0104 25.3111 64.0934 25.3941 64.1764C25.4771 64.2595 25.3941 64.3425 25.3111 64.4256H25.2281C25.2281 64.4256 25.1452 64.4256 25.0622 64.3425ZM29.2939 64.4256C29.2109 64.3425 29.2109 64.2595 29.2109 64.1764C29.2939 64.0934 29.3768 64.0934 29.4598 64.0934C29.5428 64.1765 29.5428 64.2595 29.5428 64.3425C29.5428 64.4256 29.4598 64.4256 29.3768 64.4256C29.3768 64.4256 29.3769 64.4256 29.2939 64.4256ZM26.0579 63.6782C25.9749 63.5951 26.0579 63.5121 26.1409 63.429C26.2238 63.346 26.3068 63.429 26.3898 63.5121C26.4728 63.5951 26.3898 63.6782 26.3068 63.7612H26.2238C26.1409 63.7612 26.0579 63.6782 26.0579 63.6782ZM28.3812 63.7612C28.2982 63.6782 28.2982 63.5951 28.2982 63.5121C28.3812 63.429 28.4641 63.429 28.5471 63.429C28.6301 63.5121 28.6301 63.5951 28.6301 63.6782C28.6301 63.7612 28.5471 63.7612 28.4641 63.7612C28.4641 63.7612 28.3812 63.7612 28.3812 63.7612ZM27.1366 63.2629C27.1366 63.1799 27.2195 63.0968 27.3025 63.0968C27.3855 63.0968 27.4684 63.1799 27.4684 63.2629C27.4684 63.346 27.3855 63.429 27.3025 63.429C27.2195 63.429 27.1366 63.346 27.1366 63.2629Z" fill="#B8814A"/>
<path d="M30.5387 64.6747C30.4556 64.6747 30.4556 64.6747 30.4556 64.5917L30.3726 64.5086C30.3726 64.4256 30.3726 64.4256 30.4556 64.3425C30.5387 64.2595 30.6217 64.2595 30.7047 64.3425C30.7047 64.3425 30.7878 64.4256 30.7878 64.5086C30.7878 64.5086 30.7878 64.5917 30.7047 64.5917C30.7047 64.6747 30.6217 64.6747 30.5387 64.6747Z" fill="#B8814A"/>
<path d="M24.15 64.6748C23.3203 64.6748 22.8224 64.3426 22.4075 64.0104C21.9927 63.6782 21.6608 63.429 20.914 63.429C20.831 63.429 20.748 63.346 20.748 63.2629C20.748 63.1799 20.831 63.0968 20.914 63.0968C21.7437 63.0968 22.2416 63.429 22.6565 63.7612C23.0713 64.0934 23.4032 64.3426 24.15 64.3426C24.233 64.3426 24.316 64.4256 24.316 64.5087C24.316 64.5917 24.233 64.6748 24.15 64.6748Z" fill="#B8814A"/>
<path d="M30.5392 66.5849C30.4562 66.5849 30.4561 66.5849 30.3731 66.5018C30.3731 66.5018 30.29 66.4188 30.29 66.3357C30.29 66.2527 30.29 66.2527 30.3731 66.1696C30.4561 66.0866 30.5392 66.0866 30.6222 66.1696C30.6222 66.1696 30.7053 66.2527 30.7053 66.3357C30.7053 66.4188 30.7053 66.4188 30.6222 66.5018C30.6222 66.5849 30.6222 66.5849 30.5392 66.5849Z" fill="#B8814A"/>
<path d="M31.5358 66.2527C31.4529 66.1696 31.5358 66.0866 31.6188 66.0035C31.7018 65.9205 31.7848 66.0035 31.8677 66.0866C31.9507 66.1696 31.8677 66.2527 31.7848 66.3357H31.7018C31.6188 66.3357 31.5358 66.2527 31.5358 66.2527ZM32.5315 65.5052C32.4486 65.4222 32.5315 65.3391 32.6145 65.2561C32.6975 65.1731 32.7805 65.2561 32.8634 65.3392C32.9464 65.4222 32.8634 65.5052 32.7804 65.5883H32.6975C32.6145 65.6713 32.5315 65.5883 32.5315 65.5052Z" fill="#B8814A"/>
<path d="M33.775 65.3391C33.692 65.3391 33.692 65.3391 33.6089 65.2561C33.6089 65.2561 33.5259 65.173 33.5259 65.09C33.5259 65.0069 33.5259 65.0069 33.6089 64.9239C33.692 64.8408 33.775 64.8408 33.8581 64.9239C33.8581 64.9239 33.9411 65.0069 33.9411 65.09C33.9411 65.173 33.9411 65.173 33.8581 65.2561C33.8581 65.3391 33.8581 65.3391 33.775 65.3391Z" fill="#B8814A"/>
<path d="M30.5388 66.5849C29.7091 66.5849 29.2112 66.2527 28.7963 65.9205C28.3815 65.5883 28.0496 65.3391 27.3028 65.3391C26.556 65.3391 26.2241 65.5883 25.8093 65.9205C25.3944 66.2527 24.9795 66.5849 24.0668 66.5849C23.9838 66.5849 23.9009 66.5018 23.9009 66.4188C23.9009 66.3357 23.9838 66.2527 24.0668 66.2527C24.8136 66.2527 25.1455 66.0035 25.5604 65.6713C25.9752 65.3391 26.3901 65.0069 27.3028 65.0069C28.2155 65.0069 28.6304 65.3391 29.0453 65.6713C29.4601 66.0035 29.792 66.2527 30.5388 66.2527C30.6218 66.2527 30.7047 66.3357 30.7047 66.4188C30.7877 66.5018 30.7048 66.5849 30.5388 66.5849Z" fill="#B8814A"/>
<path d="M20.9142 65.3391C20.8312 65.3391 20.8311 65.3391 20.7481 65.2561C20.7481 65.2561 20.665 65.173 20.665 65.09C20.665 65.0069 20.665 65.0069 20.7481 64.9239C20.8311 64.8409 20.9142 64.8409 20.9973 64.9239C20.9973 64.9239 21.0803 65.0069 21.0803 65.09C21.0803 65.173 21.0803 65.173 20.9973 65.2561C20.9973 65.3391 20.9142 65.3391 20.9142 65.3391Z" fill="#B8814A"/>
<path d="M22.905 66.2526C22.822 66.1696 22.822 66.0865 22.822 66.0035C22.905 65.9205 22.988 65.8374 23.071 65.9205C23.154 66.0035 23.1539 66.0866 23.1539 66.1696C23.1539 66.2527 23.071 66.2526 22.988 66.2526C22.988 66.3357 22.905 66.3357 22.905 66.2526ZM21.9093 65.5883C21.8263 65.5052 21.7434 65.4222 21.8264 65.3391C21.9093 65.2561 21.9923 65.2561 22.0753 65.2561C22.1583 65.3391 22.1583 65.4222 22.1583 65.5052C22.1583 65.5883 22.0753 65.5883 21.9923 65.5883C21.9923 65.6713 21.9923 65.6713 21.9093 65.5883Z" fill="#B8814A"/>
<path d="M24.15 66.5849C24.067 66.5849 24.067 66.5849 23.9839 66.5018C23.9839 66.5018 23.9009 66.4188 23.9009 66.3357C23.9009 66.2527 23.9009 66.2527 23.9839 66.1696C24.067 66.0866 24.15 66.0866 24.2331 66.1696C24.2331 66.1696 24.3161 66.2527 24.3161 66.3357C24.3161 66.4188 24.3161 66.4188 24.2331 66.5018C24.2331 66.5849 24.15 66.5849 24.15 66.5849Z" fill="#B8814A"/>
<path d="M48.461 62.8477C48.378 62.8477 48.378 62.8477 48.295 62.7646C48.295 62.7646 48.2119 62.6816 48.2119 62.5985C48.2119 62.5155 48.2119 62.5155 48.295 62.4324C48.378 62.3494 48.4611 62.3494 48.5441 62.4324C48.6272 62.5155 48.6272 62.5155 48.6272 62.5985C48.6272 62.6816 48.6272 62.6816 48.5441 62.7646C48.5441 62.7646 48.461 62.8477 48.461 62.8477Z" fill="#B8814A"/>
<path d="M47.2173 62.5155C47.1344 62.4325 47.1344 62.3494 47.1344 62.2664C47.2173 62.1833 47.3003 62.1833 47.3833 62.1833C47.4663 62.2664 47.4663 62.3494 47.4663 62.4325C47.4663 62.5155 47.3833 62.5155 47.3003 62.5155C47.3003 62.5155 47.2173 62.5155 47.2173 62.5155ZM46.2217 61.8511C46.1387 61.7681 46.1387 61.685 46.1387 61.602C46.2216 61.5189 46.3046 61.4359 46.3876 61.5189C46.4706 61.602 46.4706 61.685 46.4706 61.7681C46.4706 61.8511 46.3876 61.8511 46.3046 61.8511C46.3046 61.8511 46.3046 61.8511 46.2217 61.8511Z" fill="#B8814A"/>
<path d="M45.2252 61.602C45.1422 61.602 45.1422 61.602 45.0591 61.5189C45.0591 61.5189 44.9761 61.4359 44.9761 61.3528C44.9761 61.2698 44.9761 61.2698 45.0591 61.1867C45.1422 61.1037 45.2252 61.1037 45.3083 61.1867C45.3083 61.2698 45.3913 61.2698 45.3913 61.3528C45.3913 61.4359 45.3913 61.4359 45.3083 61.5189C45.3083 61.5189 45.3083 61.602 45.2252 61.602Z" fill="#B8814A"/>
<path d="M54.8498 62.8477C54.0201 62.8477 53.5223 62.5155 53.1074 62.1833C52.6925 61.8511 52.3606 61.602 51.6139 61.602C50.8671 61.602 50.5352 61.8511 50.1203 62.1833C49.7054 62.5155 49.2906 62.8477 48.3779 62.8477C48.2949 62.8477 48.2119 62.7646 48.2119 62.6816C48.2119 62.5985 48.2949 62.5155 48.3779 62.5155C49.1246 62.5155 49.4565 62.2663 49.8714 61.9341C50.2863 61.602 50.7011 61.2698 51.6139 61.2698C52.4436 61.2698 52.9415 61.602 53.3563 61.9341C53.7712 62.2663 54.1031 62.5155 54.8498 62.5155C54.9328 62.5155 55.0158 62.5985 55.0158 62.6816C55.0988 62.7646 55.0158 62.8477 54.8498 62.8477Z" fill="#B8814A"/>
<path d="M58.0865 61.602C58.0035 61.602 58.0035 61.602 57.9205 61.5189C57.9205 61.5189 57.8374 61.4359 57.8374 61.3528C57.8374 61.2698 57.8374 61.2698 57.9205 61.1867C58.0035 61.1037 58.0865 61.1037 58.1696 61.1867C58.1696 61.2698 58.2526 61.2698 58.2526 61.3528C58.2526 61.4359 58.2526 61.4359 58.1696 61.5189C58.1696 61.5189 58.1696 61.602 58.0865 61.602Z" fill="#B8814A"/>
<path d="M55.8459 62.4325C55.7629 62.3494 55.8459 62.2664 55.9289 62.1833C56.0118 62.1003 56.0948 62.1833 56.1778 62.2664C56.2608 62.3494 56.1778 62.4325 56.0948 62.5155H56.0118C55.9289 62.5155 55.8459 62.5155 55.8459 62.4325ZM56.8416 61.7681C56.7586 61.685 56.8416 61.602 56.9246 61.5189C57.0075 61.4359 57.0905 61.5189 57.1735 61.602C57.2564 61.685 57.1735 61.7681 57.0905 61.8511H57.0075C56.9246 61.8511 56.8416 61.8511 56.8416 61.7681Z" fill="#B8814A"/>
<path d="M54.8507 62.8477C54.8507 62.8477 54.7676 62.8477 54.7676 62.7646C54.6846 62.7646 54.6846 62.6816 54.6846 62.5985C54.6846 62.5155 54.6846 62.5155 54.7676 62.4324C54.8507 62.3494 54.9337 62.3494 55.0168 62.4324C55.0168 62.5155 55.0998 62.5155 55.0998 62.5985C55.0998 62.6816 55.0998 62.6816 55.0168 62.7646C55.0168 62.7646 54.9337 62.8477 54.8507 62.8477Z" fill="#B8814A"/>
<path d="M48.461 64.6748C47.6313 64.6748 47.1334 64.3426 46.7186 64.0104C46.3037 63.6782 45.9718 63.429 45.225 63.429C45.142 63.429 45.0591 63.346 45.0591 63.2629C45.0591 63.1799 45.142 63.0968 45.225 63.0968C46.0548 63.0968 46.5526 63.429 46.9675 63.7612C47.3823 64.0934 47.7142 64.3426 48.461 64.3426C48.544 64.3426 48.627 64.4256 48.627 64.5087C48.627 64.5917 48.544 64.6748 48.461 64.6748Z" fill="#B8814A"/>
<path d="M54.8507 64.6747C54.7676 64.6747 54.7676 64.6747 54.6846 64.5917L54.6016 64.5086C54.6016 64.4256 54.6015 64.4256 54.6846 64.3425C54.7676 64.2595 54.8507 64.2595 54.9338 64.3425C54.9338 64.3425 55.0168 64.4256 55.0168 64.5086C55.0168 64.5086 55.0168 64.5917 54.9338 64.5917C55.0168 64.6747 54.9337 64.6747 54.8507 64.6747Z" fill="#B8814A"/>
<path d="M53.6894 64.4256C53.6064 64.3425 53.5234 64.2595 53.6064 64.1764C53.6894 64.0934 53.7723 64.0104 53.8553 64.0934C53.9383 64.1765 53.9383 64.2595 53.9383 64.3425C53.9383 64.4256 53.8553 64.4256 53.7723 64.4256C53.6894 64.4256 53.6894 64.4256 53.6894 64.4256ZM49.3747 64.3425C49.2917 64.2595 49.3747 64.1765 49.4577 64.0934C49.5407 64.0104 49.6236 64.0934 49.7066 64.1764C49.7896 64.2595 49.7066 64.3425 49.6236 64.4256H49.5407C49.5407 64.4256 49.4577 64.4256 49.3747 64.3425ZM52.6937 63.7612C52.6107 63.6782 52.6107 63.5951 52.6107 63.5121C52.6937 63.429 52.7767 63.429 52.8596 63.429C52.9426 63.5121 53.0256 63.5951 52.9426 63.6782C52.8596 63.7612 52.8596 63.7612 52.7766 63.7612H52.6937ZM50.3704 63.6782C50.2874 63.5951 50.3704 63.5121 50.4534 63.429C50.5364 63.346 50.6193 63.429 50.7023 63.5121C50.7853 63.5951 50.7023 63.6782 50.6193 63.7612H50.5363C50.4534 63.7612 50.3704 63.6782 50.3704 63.6782ZM51.4491 63.2629C51.4491 63.1799 51.532 63.0968 51.615 63.0968C51.698 63.0968 51.7809 63.1799 51.7809 63.2629C51.7809 63.346 51.698 63.429 51.615 63.429C51.532 63.429 51.4491 63.346 51.4491 63.2629Z" fill="#B8814A"/>
<path d="M48.461 64.6747C48.378 64.6747 48.378 64.6747 48.295 64.5917L48.2119 64.5086C48.2119 64.4256 48.2119 64.4256 48.295 64.3425C48.378 64.2595 48.4611 64.2595 48.5441 64.3425C48.5441 64.3425 48.6272 64.4256 48.6272 64.5086C48.6272 64.5086 48.6272 64.5917 48.5441 64.5917C48.5441 64.6747 48.461 64.6747 48.461 64.6747Z" fill="#B8814A"/>
<path d="M54.8505 64.6748C54.7676 64.6748 54.6846 64.5917 54.6846 64.5087C54.6846 64.4256 54.7676 64.3426 54.8505 64.3426C55.5973 64.3426 55.9292 64.0934 56.3441 63.7612C56.7589 63.429 57.1738 63.0968 58.0865 63.0968C58.1695 63.0968 58.2525 63.1799 58.2525 63.2629C58.2525 63.346 58.1695 63.429 58.0865 63.429C57.3397 63.429 57.0079 63.6782 56.593 64.0104C56.1781 64.3426 55.7632 64.6748 54.8505 64.6748Z" fill="#B8814A"/>
<path d="M48.461 66.5849C48.378 66.5849 48.378 66.5848 48.295 66.5018C48.295 66.5018 48.2119 66.4188 48.2119 66.3357C48.2119 66.2527 48.2119 66.2527 48.295 66.2527C48.378 66.1696 48.4611 66.1696 48.5441 66.2527C48.5441 66.2527 48.6272 66.3357 48.6272 66.4187C48.6272 66.5018 48.6272 66.5018 48.5441 66.5849C48.5441 66.5849 48.461 66.5849 48.461 66.5849Z" fill="#B8814A"/>
<path d="M47.2173 66.2527C47.1344 66.1696 47.1344 66.0866 47.1344 66.0035C47.2173 65.9205 47.3003 65.9205 47.3833 65.9205C47.4663 66.0035 47.4663 66.0866 47.4663 66.1696C47.4663 66.2527 47.3833 66.2527 47.3003 66.2527C47.3003 66.3357 47.2173 66.3357 47.2173 66.2527ZM46.2217 65.5883C46.1387 65.5052 46.1387 65.4222 46.1387 65.3392C46.2216 65.2561 46.3046 65.1731 46.3876 65.2561C46.4706 65.3391 46.4706 65.4222 46.4706 65.5052C46.4706 65.5883 46.3876 65.5883 46.3046 65.5883C46.3046 65.6713 46.3046 65.6713 46.2217 65.5883Z" fill="#B8814A"/>
<path d="M45.2252 65.3391C45.1422 65.3391 45.1422 65.3391 45.0591 65.2561C45.0591 65.2561 44.9761 65.173 44.9761 65.09C44.9761 65.0069 44.9761 65.0069 45.0591 64.9239C45.1422 64.8409 45.2252 64.8409 45.3083 64.9239C45.3083 64.9239 45.3913 65.0069 45.3913 65.09C45.3913 65.173 45.3913 65.173 45.3083 65.2561C45.3083 65.3391 45.3083 65.3391 45.2252 65.3391Z" fill="#B8814A"/>
<path d="M54.8498 66.5849C54.0201 66.5849 53.5223 66.2527 53.1074 65.9205C52.6925 65.5883 52.3606 65.3391 51.6139 65.3391C50.8671 65.3391 50.5352 65.5883 50.1203 65.9205C49.7054 66.2527 49.2906 66.5849 48.3779 66.5849C48.2949 66.5849 48.2119 66.5018 48.2119 66.4188C48.2119 66.3357 48.2949 66.2527 48.3779 66.2527C49.1246 66.2527 49.4565 66.0035 49.8714 65.6713C50.2863 65.3391 50.7011 65.0069 51.6139 65.0069C52.4436 65.0069 52.9415 65.3391 53.3563 65.6713C53.7712 66.0035 54.1031 66.2527 54.8498 66.2527C54.9328 66.2527 55.0158 66.3357 55.0158 66.4188C55.0988 66.5018 55.0158 66.5849 54.8498 66.5849Z" fill="#B8814A"/>
<path d="M58.0865 65.3391C58.0035 65.3391 58.0035 65.3391 57.9205 65.2561C57.9205 65.2561 57.8374 65.173 57.8374 65.09C57.8374 65.0069 57.8374 65.0069 57.9205 64.9239C58.0035 64.8408 58.0865 64.8408 58.1696 64.9239C58.1696 64.9239 58.2526 65.0069 58.2526 65.09C58.2526 65.173 58.2526 65.173 58.1696 65.2561C58.1696 65.3391 58.1696 65.3391 58.0865 65.3391Z" fill="#B8814A"/>
<path d="M55.8459 66.2527C55.7629 66.1696 55.8459 66.0866 55.9289 66.0035C56.0118 65.9205 56.0948 66.0035 56.1778 66.0866C56.2608 66.1696 56.1778 66.2527 56.0948 66.3357H56.0118C55.9289 66.3357 55.8459 66.2527 55.8459 66.2527ZM56.8416 65.5052C56.7586 65.4222 56.8416 65.3391 56.9246 65.2561C57.0075 65.1731 57.0905 65.2561 57.1735 65.3392C57.2564 65.4222 57.1735 65.5052 57.0905 65.5883H57.0075C56.9246 65.6713 56.8416 65.5883 56.8416 65.5052Z" fill="#B8814A"/>
<path d="M54.8507 66.5849C54.8507 66.5849 54.7676 66.5849 54.7676 66.5018C54.6846 66.5018 54.6846 66.4188 54.6846 66.3357C54.6846 66.2527 54.6846 66.2527 54.7676 66.1696C54.8507 66.0866 54.9337 66.0866 55.0168 66.1696L55.0998 66.2527C55.0998 66.3357 55.0998 66.3357 55.0168 66.4188C55.0168 66.5849 54.9337 66.5849 54.8507 66.5849Z" fill="#B8814A"/>
<path d="M39.5003 66.834C39.5003 66.751 39.5833 66.6679 39.6662 66.6679C39.7492 66.6679 39.8322 66.751 39.8322 66.834C39.8322 66.9171 39.7492 67.0001 39.6662 67.0001C39.5833 67.0001 39.5003 66.9171 39.5003 66.834ZM38.3387 66.834C38.2557 66.834 38.1727 66.6679 38.2557 66.5849C38.2557 66.5018 38.4216 66.4188 38.5046 66.5018C38.5876 66.5018 38.6705 66.6679 38.5876 66.751C38.5876 66.834 38.5046 66.834 38.3387 66.834C38.4216 66.834 38.4216 66.834 38.3387 66.834ZM40.6619 66.5018C40.5789 66.4188 40.579 66.3357 40.7449 66.2527C40.8279 66.1696 40.9108 66.1696 40.9938 66.2527C41.0768 66.3357 40.9938 66.4188 40.9109 66.5018H40.8279C40.8279 66.5849 40.7449 66.5018 40.6619 66.5018ZM37.26 66.0866C37.177 66.0035 37.177 65.9205 37.26 65.8374C37.3429 65.7544 37.4259 65.7544 37.5089 65.8374C37.5919 65.9205 37.5919 66.0035 37.5089 66.0866H37.4259C37.343 66.1696 37.3429 66.0866 37.26 66.0866ZM41.5746 65.5883C41.4917 65.5052 41.4087 65.4222 41.4917 65.3391C41.5746 65.2561 41.6576 65.2561 41.7406 65.2561C41.8236 65.3391 41.8236 65.4222 41.8236 65.5052C41.8236 65.5883 41.7406 65.5883 41.5746 65.5883C41.6576 65.5883 41.6576 65.5883 41.5746 65.5883ZM36.6792 64.9239C36.6792 64.8409 36.6792 64.7578 36.8451 64.6748C36.9281 64.6748 37.0111 64.6748 37.094 64.8409C37.094 64.9239 37.094 65.007 36.9281 65.09C36.7621 65.007 36.6792 65.007 36.6792 64.9239ZM41.8236 64.1765C41.8236 64.0104 41.9065 63.9273 41.9895 63.9273C42.0725 63.9273 42.1555 64.0104 42.1555 64.0934C42.1555 64.1765 42.0725 64.2595 41.9895 64.2595C41.9065 64.4256 41.8236 64.3426 41.8236 64.1765ZM36.7621 63.7612C36.6792 63.7612 36.5962 63.6782 36.5962 63.5121C36.5962 63.429 36.6792 63.346 36.8451 63.346C36.9281 63.346 37.0111 63.429 37.0111 63.5951C37.0111 63.7612 36.9281 63.7612 36.7621 63.7612ZM41.4917 63.0138C41.4087 62.9307 41.4917 62.8477 41.5746 62.7646C41.6576 62.6816 41.7406 62.7646 41.8236 62.8477C41.8236 62.9307 41.8236 63.0138 41.7406 63.0968H41.6576C41.5746 63.1799 41.5746 63.0968 41.4917 63.0138ZM37.26 62.5985C37.177 62.5155 37.177 62.4324 37.26 62.3494C37.3429 62.2664 37.4259 62.2664 37.5089 62.3494C37.5919 62.4324 37.5919 62.5155 37.5089 62.5985C37.5089 62.6816 37.4259 62.6816 37.343 62.6816C37.343 62.6816 37.3429 62.6816 37.26 62.5985ZM40.7449 62.1833C40.6619 62.1003 40.6619 62.0172 40.6619 61.9342C40.7449 61.8511 40.8279 61.8511 40.9109 61.8511C40.9938 61.9342 40.9938 62.0172 40.9938 62.1003C40.9938 62.1833 40.9109 62.1833 40.8279 62.1833H40.7449ZM38.2557 61.8511C38.1727 61.7681 38.2557 61.685 38.3387 61.602C38.4216 61.602 38.5046 61.602 38.5876 61.685C38.5876 61.7681 38.5876 61.8511 38.5046 61.9342H38.4216C38.3387 61.9342 38.2557 61.9342 38.2557 61.8511ZM39.6662 61.7681C39.5833 61.7681 39.5003 61.685 39.5003 61.602C39.5003 61.5189 39.5833 61.4359 39.6662 61.4359C39.7492 61.4359 39.8322 61.5189 39.8322 61.602C39.8322 61.685 39.7492 61.7681 39.6662 61.7681Z" fill="#B8814A"/>
<path d="M39.3343 65.7544C38.4216 65.7544 37.7578 65.007 37.7578 64.1765C37.7578 63.2629 38.5046 62.5986 39.3343 62.5986C40.247 62.5986 40.9108 63.346 40.9108 64.1765C40.9108 65.09 40.247 65.7544 39.3343 65.7544ZM39.3343 63.263C38.8365 63.263 38.3386 63.6782 38.3386 64.2595C38.3386 64.7578 38.7535 65.2561 39.3343 65.2561C39.9151 65.2561 40.33 64.8409 40.33 64.2595C40.33 63.6782 39.9151 63.263 39.3343 63.263Z" fill="white"/>
<path d="M39.5002 4.87989C39.4172 4.87989 39.4172 4.87988 39.3342 4.79683C39.3342 4.79683 38.0067 2.63758 36.0153 1.72405C35.9323 1.641 35.8493 1.55795 35.9323 1.4749C36.0153 1.39185 36.0983 1.3088 36.1812 1.39185C37.9237 2.13929 39.0853 3.7172 39.5002 4.38159C39.9151 3.80025 41.1597 2.22233 42.8192 1.39185C42.9021 1.3088 42.9851 1.39185 43.0681 1.4749C43.1511 1.55795 43.0681 1.641 42.9851 1.72405C40.9937 2.63758 39.6662 4.79683 39.6662 4.79683C39.6662 4.87988 39.5832 4.87989 39.5002 4.87989Z" fill="#B8814A"/>
<path d="M57.3394 39.9263C56.6756 39.9263 56.3437 39.5111 56.0948 39.1789C55.8459 38.8467 55.5969 38.5145 55.0991 38.5145C54.6012 38.5145 54.4353 38.8467 54.1034 39.1789C53.8545 39.5111 53.5226 39.9263 52.8588 39.9263C52.195 39.9263 51.8631 39.5111 51.6142 39.1789C51.3653 38.8467 51.1163 38.5145 50.6185 38.5145C50.1206 38.5145 49.9547 38.8467 49.6228 39.1789C49.3739 39.5111 49.042 39.9263 48.3782 39.9263C47.7144 39.9263 47.3825 39.5111 47.1336 39.1789C46.8847 38.8467 46.6357 38.5145 46.1379 38.5145C45.64 38.5145 45.4741 38.8467 45.1422 39.1789C44.8933 39.5111 44.5614 39.9263 43.8976 39.9263C43.2338 39.9263 42.9019 39.5111 42.653 39.1789C42.404 38.8467 42.1551 38.5145 41.6573 38.5145C41.1594 38.5145 40.9935 38.8467 40.6616 39.1789C40.4127 39.5111 40.0808 39.9263 39.417 39.9263C38.7532 39.9263 38.4213 39.5111 38.1724 39.1789C37.9234 38.8467 37.6745 38.5145 37.1767 38.5145C36.6788 38.5145 36.5129 38.8467 36.181 39.1789C35.9321 39.5111 35.6002 39.9263 34.9364 39.9263C34.2726 39.9263 33.9407 39.5111 33.6918 39.1789C33.4428 38.8467 33.1939 38.5145 32.6961 38.5145C32.1982 38.5145 32.0323 38.8467 31.7004 39.1789C31.4515 39.5111 31.1196 39.9263 30.4558 39.9263C29.792 39.9263 29.4601 39.5111 29.2112 39.1789C28.9622 38.8467 28.7133 38.5145 28.2155 38.5145C27.7176 38.5145 27.5517 38.8467 27.2198 39.1789C26.9709 39.5111 26.639 39.9263 25.9752 39.9263C25.3114 39.9263 24.9795 39.5111 24.7306 39.1789C24.4816 38.8467 24.2327 38.5145 23.7349 38.5145C23.237 38.5145 23.0711 38.8467 22.7392 39.1789C22.4902 39.5111 22.1583 39.9263 21.4945 39.9263C21.4116 39.9263 21.3286 39.8433 21.3286 39.7602C21.3286 39.6772 21.4116 39.5941 21.4945 39.5941C21.9924 39.5941 22.1583 39.2619 22.4902 38.9298C22.7392 38.5976 23.0711 38.1823 23.7349 38.1823C24.3987 38.1823 24.7305 38.5976 24.9795 38.9298C25.2284 39.2619 25.4773 39.5941 25.9752 39.5941C26.473 39.5941 26.6389 39.2619 26.9708 38.9298C27.2198 38.5976 27.5517 38.1823 28.2155 38.1823C28.8793 38.1823 29.2111 38.5976 29.4601 38.9298C29.709 39.2619 29.9579 39.5941 30.4558 39.5941C30.9536 39.5941 31.1195 39.2619 31.4514 38.9298C31.7004 38.5976 32.0323 38.1823 32.6961 38.1823C33.3599 38.1823 33.6917 38.5976 33.9407 38.9298C34.1896 39.2619 34.4385 39.5941 34.9364 39.5941C35.4342 39.5941 35.6002 39.2619 35.9321 38.9298C36.181 38.5976 36.5129 38.1823 37.1767 38.1823C37.8405 38.1823 38.1724 38.5976 38.4213 38.9298C38.6702 39.2619 38.9191 39.5941 39.417 39.5941C39.9148 39.5941 40.0808 39.2619 40.4127 38.9298C40.6616 38.5976 40.9935 38.1823 41.6573 38.1823C42.3211 38.1823 42.653 38.5976 42.9019 38.9298C43.1508 39.2619 43.3997 39.5941 43.8976 39.5941C44.3954 39.5941 44.5614 39.2619 44.8933 38.9298C45.1422 38.5976 45.4741 38.1823 46.1379 38.1823C46.8017 38.1823 47.1336 38.5976 47.3825 38.9298C47.6314 39.2619 47.8803 39.5941 48.3782 39.5941C48.876 39.5941 49.042 39.2619 49.3739 38.9298C49.6228 38.5976 49.9547 38.1823 50.6185 38.1823C51.2823 38.1823 51.6142 38.5976 51.8631 38.9298C52.112 39.2619 52.3609 39.5941 52.8588 39.5941C53.3566 39.5941 53.5226 39.2619 53.8545 38.9298C54.1034 38.5976 54.4353 38.1823 55.0991 38.1823C55.7629 38.1823 56.0948 38.5976 56.3437 38.9298C56.5926 39.2619 56.8415 39.5941 57.3394 39.5941C57.4224 39.5941 57.5053 39.6772 57.5053 39.7602C57.5053 39.8433 57.4224 39.9263 57.3394 39.9263Z" fill="white"/>
<path d="M52.8592 37.601C52.1954 37.601 51.8635 37.1857 51.6146 36.8535C51.3657 36.5213 51.1167 36.1891 50.6189 36.1891C50.121 36.1891 49.9551 36.5213 49.6232 36.8535C49.3743 37.1857 49.0424 37.601 48.3786 37.601C47.7148 37.601 47.3829 37.1857 47.134 36.8535C46.8851 36.5213 46.6361 36.1891 46.1383 36.1891C45.6404 36.1891 45.4745 36.5213 45.1426 36.8535C44.8937 37.1857 44.5618 37.601 43.898 37.601C43.2342 37.601 42.9023 37.1857 42.6534 36.8535C42.4044 36.5213 42.1555 36.1891 41.6577 36.1891C41.1598 36.1891 40.9939 36.5213 40.662 36.8535C40.4131 37.1857 40.0812 37.601 39.4174 37.601C38.7536 37.601 38.4217 37.1857 38.1728 36.8535C37.9238 36.5213 37.6749 36.1891 37.1771 36.1891C36.6792 36.1891 36.5133 36.5213 36.1814 36.8535C35.9325 37.1857 35.6006 37.601 34.9368 37.601C34.273 37.601 33.9411 37.1857 33.6922 36.8535C33.4432 36.5213 33.1943 36.1891 32.6965 36.1891C32.1986 36.1891 32.0327 36.5213 31.7008 36.8535C31.4519 37.1857 31.12 37.601 30.4562 37.601C29.7924 37.601 29.4605 37.1857 29.2116 36.8535C28.9626 36.5213 28.7137 36.1891 28.2159 36.1891C27.718 36.1891 27.5521 36.5213 27.2202 36.8535C26.9713 37.1857 26.6394 37.601 25.9756 37.601C25.3118 37.601 24.9799 37.1857 24.731 36.8535C24.482 36.5213 24.2331 36.1891 23.7353 36.1891C23.5693 36.1891 23.4863 36.1892 23.3204 36.2722C23.2374 36.3553 23.1545 36.2722 23.0715 36.1891C22.9885 36.1061 23.0715 36.023 23.1544 35.94C23.3204 35.857 23.4863 35.857 23.7353 35.857C24.3991 35.857 24.731 36.2722 24.9799 36.6044C25.2288 36.9366 25.4777 37.2688 25.9756 37.2688C26.4734 37.2688 26.6394 36.9366 26.9713 36.6044C27.2202 36.2722 27.5521 35.857 28.2159 35.857C28.8797 35.857 29.2116 36.2722 29.4605 36.6044C29.7094 36.9366 29.9583 37.2688 30.4562 37.2688C30.954 37.2688 31.12 36.9366 31.4519 36.6044C31.7008 36.2722 32.0327 35.857 32.6965 35.857C33.3603 35.857 33.6922 36.2722 33.9411 36.6044C34.19 36.9366 34.4389 37.2688 34.9368 37.2688C35.4346 37.2688 35.6006 36.9366 35.9325 36.6044C36.1814 36.2722 36.5133 35.857 37.1771 35.857C37.8409 35.857 38.1728 36.2722 38.4217 36.6044C38.6706 36.9366 38.9195 37.2688 39.4174 37.2688C39.9152 37.2688 40.0812 36.9366 40.4131 36.6044C40.662 36.2722 40.9939 35.857 41.6577 35.857C42.3215 35.857 42.6534 36.2722 42.9023 36.6044C43.1512 36.9366 43.4001 37.2688 43.898 37.2688C44.3958 37.2688 44.5618 36.9366 44.8937 36.6044C45.1426 36.2722 45.4745 35.857 46.1383 35.857C46.8021 35.857 47.134 36.2722 47.3829 36.6044C47.6318 36.9366 47.8808 37.2688 48.3786 37.2688C48.8764 37.2688 49.0424 36.9366 49.3743 36.6044C49.6232 36.2722 49.9551 35.857 50.6189 35.857C51.2827 35.857 51.6146 36.2722 51.8635 36.6044C52.1124 36.9366 52.3614 37.2688 52.8592 37.2688C53.357 37.2688 53.523 36.9366 53.8549 36.6044C54.1038 36.2722 54.4357 35.857 55.0995 35.857C55.3484 35.857 55.5144 35.94 55.6803 36.0231C55.7633 36.1061 55.8463 36.1892 55.7633 36.2722C55.6803 36.3553 55.5973 36.4383 55.5144 36.3552C55.4314 36.2722 55.2654 36.2722 55.0995 36.2722C54.6016 36.2722 54.4357 36.6044 54.1038 36.9366C53.8549 37.1857 53.523 37.601 52.8592 37.601Z" fill="white"/>
</g>
<defs>
<clipPath id="clip0">
<rect width="80" height="67" fill="white"/>
</clipPath>
</defs>
</svg>
