<svg width="80" height="67" viewBox="0 0 80 67" fill="none" xmlns="http://www.w3.org/2000/svg">
<g clip-path="url(#clip0)">
<path d="M33.4429 40.3554C32.2262 40.3554 31.334 39.3746 31.334 38.1486C31.334 36.9227 32.3074 35.9419 33.4429 35.9419C34.6597 35.9419 35.5519 36.9227 35.5519 38.1486C35.5519 39.3746 34.5785 40.3554 33.4429 40.3554ZM33.4429 36.5957C32.6318 36.5957 31.9018 37.3313 31.9018 38.1486C31.9018 39.0477 32.5507 39.7016 33.4429 39.7016C34.2541 39.7016 34.9841 38.966 34.9841 38.1486C34.9841 37.2496 34.2541 36.5957 33.4429 36.5957Z" fill="white"/>
<path d="M33.4435 43.0527C33.3624 43.0527 33.3624 43.0527 33.2813 42.9709C33.2813 42.9709 33.2002 42.8892 33.2002 42.8075C33.2002 42.7257 33.2002 42.7257 33.2813 42.644C33.3624 42.5623 33.4435 42.5623 33.5246 42.644C33.5246 42.644 33.6058 42.7257 33.6058 42.8075C33.6058 42.8892 33.6058 42.8892 33.5246 42.9709C33.5246 43.0527 33.4435 43.0527 33.4435 43.0527Z" fill="#B8814A"/>
<path d="M32.2265 42.8892C32.1454 42.8892 32.0643 42.7258 32.1454 42.644C32.1454 42.5623 32.3076 42.4805 32.3887 42.4805C32.4698 42.4805 32.551 42.644 32.4698 42.7257C32.3887 42.8075 32.3076 42.8892 32.2265 42.8892ZM31.0909 42.3171C31.0098 42.2353 31.0098 42.1536 31.0098 42.0719C31.0909 41.9902 31.172 41.9902 31.2531 42.0719C31.3342 42.1536 31.3343 42.2353 31.3343 42.3171C31.3343 42.3988 31.2531 42.3988 31.172 42.3988C31.172 42.3171 31.0909 42.3171 31.0909 42.3171ZM30.1987 41.418C30.1176 41.3363 30.1987 41.2546 30.1987 41.1728C30.2798 41.0911 30.3609 41.0911 30.442 41.1728C30.5231 41.2546 30.442 41.3363 30.3609 41.418H30.2798C30.2798 41.4998 30.1987 41.418 30.1987 41.418ZM29.6309 40.2738C29.6309 40.192 29.6309 40.1103 29.7931 40.0286C29.8742 40.0286 29.9553 40.0286 30.0364 40.1921C30.0364 40.2738 30.0364 40.3555 29.9553 40.4372C29.9553 40.4372 29.9553 40.4372 29.8742 40.4372C29.712 40.4372 29.6309 40.3555 29.6309 40.2738Z" fill="#B8814A"/>
<path d="M29.6305 39.2112C29.5494 39.2112 29.5494 39.2112 29.4683 39.1294C29.4683 39.1294 29.3872 39.0477 29.3872 38.966C29.3872 38.8843 29.3872 38.8843 29.4683 38.8025C29.5494 38.7208 29.6305 38.7208 29.7117 38.8025C29.7928 38.8025 29.7928 38.8843 29.7928 38.966C29.7928 38.966 29.7928 39.0477 29.7117 39.1294C29.7117 39.2112 29.6305 39.2112 29.6305 39.2112Z" fill="#B8814A"/>
<path d="M33.4432 39.2112C32.8754 39.2112 32.3887 38.7208 32.3887 38.1487C32.3887 37.5765 32.8754 37.0861 33.4432 37.0861C34.011 37.0861 34.4976 37.5765 34.4976 38.1487C34.4976 38.7208 34.011 39.2112 33.4432 39.2112ZM33.4432 37.5765C33.1187 37.5765 32.8753 37.8217 32.8753 38.1487C32.8753 38.4756 33.1187 38.7208 33.4432 38.7208C33.7676 38.7208 34.0109 38.4756 34.0109 38.1487C34.0109 37.8217 33.7676 37.5765 33.4432 37.5765Z" fill="#D4D8E4"/>
<path d="M46.7458 53.8412C46.5836 53.8412 46.4214 53.6778 46.4214 53.5143C46.4214 50.7354 47.9625 48.8556 49.6659 46.9757C51.6127 44.6872 53.8839 42.0718 53.8839 37.2496C53.8839 32.2639 51.5316 28.5042 51.4504 28.5042C51.3693 28.3408 51.3693 28.1773 51.5315 28.0956C51.6938 28.0139 51.856 28.0139 51.9371 28.1773C52.0182 28.3408 54.4516 32.1005 54.4516 37.2496C54.4516 42.317 52.0994 45.0142 50.0715 47.3844C48.4492 49.346 46.9892 50.9806 46.9892 53.5143C47.0703 53.6778 46.9892 53.8412 46.7458 53.8412Z" fill="white"/>
<path d="M47.6378 40.3554C46.4211 40.3554 45.5288 39.3746 45.5288 38.1486C45.5288 36.9227 46.5022 35.9419 47.6378 35.9419C48.8545 35.9419 49.7467 36.9227 49.7467 38.1486C49.7467 39.3746 48.7734 40.3554 47.6378 40.3554ZM47.6378 36.5957C46.8266 36.5957 46.0966 37.3313 46.0966 38.1486C46.0966 39.0477 46.7455 39.7016 47.6378 39.7016C48.4489 39.7016 49.1789 38.966 49.1789 38.1486C49.1789 37.2496 48.4489 36.5957 47.6378 36.5957Z" fill="white"/>
<path d="M47.6374 43.0527C47.5563 43.0527 47.5563 43.0527 47.4751 42.9709C47.4751 42.9709 47.394 42.8892 47.394 42.8075C47.394 42.7257 47.394 42.7257 47.4751 42.644C47.5563 42.5623 47.6374 42.5623 47.7185 42.644C47.7185 42.644 47.7996 42.7257 47.7996 42.8075C47.7996 42.8892 47.7996 42.8892 47.7185 42.9709C47.7185 43.0527 47.6374 43.0527 47.6374 43.0527Z" fill="#B8814A"/>
<path d="M48.6108 42.7257C48.6108 42.6439 48.6108 42.5622 48.6919 42.4805C48.7731 42.4805 48.8542 42.4805 48.9353 42.644C48.9353 42.7257 48.9353 42.8074 48.8542 42.8891C48.8542 42.8891 48.8542 42.8891 48.7731 42.8891C48.692 42.8891 48.6108 42.8074 48.6108 42.7257ZM49.7464 42.2353C49.6653 42.1536 49.6653 42.0718 49.7464 41.9901C49.8275 41.9084 49.9087 41.9901 49.9898 41.9901C50.0709 42.0718 49.9898 42.1536 49.9087 42.2353H49.8275C49.8275 42.317 49.7464 42.317 49.7464 42.2353ZM50.6387 41.418C50.5576 41.3362 50.5576 41.2545 50.5576 41.1728C50.6387 41.091 50.7198 41.091 50.8009 41.1728C50.882 41.2545 50.882 41.3362 50.8009 41.418C50.8009 41.4997 50.7198 41.4997 50.6387 41.4997C50.6387 41.4997 50.6387 41.4997 50.6387 41.418ZM51.2065 40.3554C51.1254 40.3554 51.0442 40.192 51.1254 40.1103C51.1254 40.0285 51.2876 39.9468 51.3687 39.9468C51.4498 39.9468 51.5309 40.1103 51.5309 40.192C51.3687 40.3555 51.3687 40.4372 51.2065 40.3554C51.2065 40.4372 51.2065 40.4372 51.2065 40.3554Z" fill="#B8814A"/>
<path d="M51.4504 39.2112C51.3693 39.2112 51.3693 39.2112 51.2881 39.1295C51.2881 39.1295 51.207 39.0477 51.207 38.966C51.207 38.8843 51.207 38.8843 51.2881 38.8025C51.3693 38.7208 51.4504 38.7208 51.5315 38.8025C51.5315 38.8025 51.6126 38.8843 51.6126 38.966C51.6126 38.966 51.6126 39.0477 51.5315 39.1295C51.5315 39.2112 51.4504 39.2112 51.4504 39.2112Z" fill="#B8814A"/>
<path d="M37.7417 58.9087C35.3894 58.9087 33.8482 57.1923 33.8482 54.6586C33.8482 53.2691 34.4972 51.3893 35.2272 49.1825C36.4439 45.3411 38.0662 40.5189 36.2005 37.9852C35.2272 36.6775 33.4427 36.0236 30.6848 36.0236C30.5226 36.0236 30.3604 35.8602 30.3604 35.6967C30.3604 35.5332 30.5226 35.3698 30.6848 35.3698C33.6049 35.3698 35.5516 36.1054 36.6872 37.6583C38.7151 40.4372 37.1739 45.2594 35.795 49.4277C35.1461 51.471 34.4971 53.5143 34.4971 54.7403C34.4971 56.9471 35.795 58.3365 37.8228 58.3365C39.6884 58.3365 40.3374 57.0288 40.3374 55.8846C40.3374 54.4134 38.5528 54.2499 38.4717 54.2499H38.3095L38.2284 54.1682C37.8228 53.6778 37.3361 52.4518 38.4717 51.3075C38.5528 51.2258 38.7962 51.2258 38.8773 51.3075C38.9584 51.3893 38.9584 51.6345 38.8773 51.7162C38.0662 52.5335 38.4717 53.3509 38.634 53.5961C39.5262 53.6778 40.9863 54.2499 40.9863 55.8028C40.824 57.274 40.0129 58.9087 37.7417 58.9087Z" fill="white"/>
<path d="M43.3392 58.9087C41.068 58.9087 40.2568 57.274 40.2568 55.8028C40.2568 54.2499 41.7169 53.6778 42.6091 53.5961C42.7714 53.3509 43.1769 52.5335 42.3658 51.7162C42.2847 51.6345 42.2036 51.3893 42.3658 51.3075C42.4469 51.1441 42.6903 51.1441 42.7714 51.3075C43.907 52.4518 43.4203 53.6778 43.0147 54.1682L42.9336 54.2499H42.7714C42.6903 54.2499 40.9057 54.4134 40.9057 55.8846C40.9057 57.1105 41.5547 58.3365 43.4203 58.3365C45.367 58.3365 46.7459 56.8653 46.7459 54.7403C46.7459 53.5143 46.097 51.5527 45.4481 49.4277C44.0692 45.2594 42.528 40.5189 44.5559 37.6583C45.6103 36.1054 47.6382 35.3698 50.5583 35.3698C50.7205 35.3698 50.8827 35.5332 50.8827 35.6967C50.8827 35.8602 50.7205 36.0236 50.5583 36.0236C47.8004 36.0236 46.0159 36.6775 45.0425 37.9852C43.1769 40.5189 44.7181 45.3411 46.0159 49.1825C46.7459 51.3893 47.3949 53.3509 47.3949 54.6586C47.2326 57.1923 45.6103 58.9087 43.3392 58.9087Z" fill="white"/>
<path d="M47.638 39.2112C47.0702 39.2112 46.5835 38.7208 46.5835 38.1487C46.5835 37.5765 47.0702 37.0861 47.638 37.0861C48.2058 37.0861 48.6924 37.5765 48.6924 38.1487C48.6113 38.7208 48.2058 39.2112 47.638 39.2112ZM47.638 37.5765C47.3135 37.5765 47.0702 37.8217 47.0702 38.1487C47.0702 38.4756 47.3135 38.7208 47.638 38.7208C47.9624 38.7208 48.2058 38.4756 48.2058 38.1487C48.2058 37.8217 47.9624 37.5765 47.638 37.5765Z" fill="#D4D8E4"/>
<path d="M40.5 61.9327C37.6611 61.9327 34.4165 59.8077 34.4165 57.0288C34.4165 56.8653 34.5787 56.7019 34.741 56.7019C34.9032 56.7019 35.0654 56.8653 35.0654 57.0288C35.0654 59.4808 37.9855 61.3606 40.5811 61.3606C43.0957 61.3606 46.0969 59.4808 46.0969 57.0288C46.0969 56.8653 46.2591 56.7019 46.4213 56.7019C46.5836 56.7019 46.7458 56.8653 46.7458 57.0288C46.5836 59.726 43.339 61.9327 40.5 61.9327Z" fill="white"/>
<path d="M31.8212 47.9564C31.7401 47.9564 31.7401 47.9564 31.659 47.8747C31.5779 47.793 31.5779 47.7112 31.659 47.6295L33.6057 45.6679C33.6868 45.5862 33.7679 45.5862 33.8491 45.6679C33.9302 45.7497 33.9302 45.8314 33.8491 45.9131L31.9023 47.8747C31.9023 47.9564 31.8212 47.9564 31.8212 47.9564Z" fill="white"/>
<path d="M32.7128 48.8555C32.6317 48.8555 32.6317 48.8555 32.5506 48.7737C32.4695 48.692 32.4695 48.6103 32.5506 48.5285L34.4973 46.567C34.5784 46.4852 34.6595 46.4852 34.7407 46.567C34.8218 46.6487 34.8218 46.7304 34.7407 46.8121L32.7939 48.7737C32.7939 48.8555 32.7128 48.8555 32.7128 48.8555Z" fill="white"/>
<path d="M30.8476 47.0574C30.7665 47.0574 30.7665 47.0574 30.6853 46.9757C30.6042 46.894 30.6042 46.8122 30.6853 46.7305L32.6321 44.7689C32.7132 44.6872 32.7943 44.6872 32.8754 44.7689C32.9565 44.8506 32.9565 44.9324 32.8754 45.0141L30.9287 46.9757C31.0098 47.0574 30.9287 47.0574 30.8476 47.0574Z" fill="white"/>
<path d="M23.7096 26.8695C23.6285 26.8695 23.5474 26.7878 23.5474 26.7061V25.1532C23.5474 25.0714 23.6285 24.9897 23.7096 24.9897C23.7907 24.9897 23.8718 25.0714 23.8718 25.1532V26.7061C23.8718 26.7878 23.7907 26.8695 23.7096 26.8695Z" fill="white"/>
<path d="M25.007 26.7061C24.9258 26.7061 24.8447 26.6244 24.8447 26.5427V24.9898C24.8447 24.908 24.9258 24.8263 25.007 24.8263C25.0881 24.8263 25.1692 24.908 25.1692 24.9898V26.5427C25.1692 26.6244 25.0881 26.7061 25.007 26.7061Z" fill="white"/>
<path d="M22.4928 27.1148C22.4117 27.1148 22.3306 27.0331 22.3306 26.9513V25.3984C22.3306 25.3167 22.4117 25.235 22.4928 25.235C22.5739 25.235 22.655 25.3167 22.655 25.3984V26.9513C22.655 27.0331 22.5739 27.1148 22.4928 27.1148Z" fill="white"/>
<path d="M49.2606 47.9564C49.1795 47.9564 49.1795 47.9564 49.0984 47.8747L47.1517 45.9131C47.0705 45.8314 47.0705 45.7497 47.1517 45.6679C47.2328 45.5862 47.3139 45.5862 47.395 45.6679L49.3417 47.6295C49.4228 47.7112 49.4228 47.793 49.3417 47.8747C49.3417 47.9564 49.2606 47.9564 49.2606 47.9564Z" fill="white"/>
<path d="M48.3685 48.8555C48.2874 48.8555 48.2874 48.8555 48.2063 48.7737L46.2596 46.8121C46.1785 46.7304 46.1785 46.6487 46.2596 46.567C46.3407 46.4852 46.4218 46.4852 46.5029 46.567L48.4496 48.5285C48.5308 48.6103 48.5308 48.692 48.4496 48.7737C48.4496 48.8555 48.3685 48.8555 48.3685 48.8555Z" fill="white"/>
<path d="M50.1532 47.0574C50.0721 47.0574 50.0721 47.0574 49.991 46.9757L48.0442 45.0141C47.9631 44.9324 47.9631 44.8506 48.0442 44.7689C48.1253 44.6872 48.2065 44.6872 48.2876 44.7689L50.2343 46.7305C50.3154 46.8122 50.3154 46.8939 50.2343 46.9757C50.2343 47.0574 50.2343 47.0574 50.1532 47.0574Z" fill="white"/>
<path d="M31.8209 33.4081C31.7398 33.4081 31.6587 33.3263 31.6587 33.2446V30.4657C31.6587 30.384 31.7398 30.3022 31.8209 30.3022C31.902 30.3022 31.9832 30.384 31.9832 30.4657V33.2446C31.9832 33.3263 31.902 33.4081 31.8209 33.4081Z" fill="white"/>
<path d="M33.1193 32.4273C33.0381 32.4273 32.957 32.3455 32.957 32.2638V31.3647C32.957 31.283 33.0381 31.2013 33.1193 31.2013C33.2004 31.2013 33.2815 31.283 33.2815 31.3647V32.2638C33.2815 32.3455 33.2004 32.4273 33.1193 32.4273Z" fill="white"/>
<path d="M30.5231 32.4273C30.442 32.4273 30.3608 32.3455 30.3608 32.2638V31.3647C30.3608 31.283 30.442 31.2013 30.5231 31.2013C30.6042 31.2013 30.6853 31.283 30.6853 31.3647V32.2638C30.7664 32.3455 30.6853 32.4273 30.5231 32.4273Z" fill="white"/>
<path d="M49.1788 33.4081C49.0977 33.4081 49.0166 33.3263 49.0166 33.2446V30.4657C49.0166 30.384 49.0977 30.3022 49.1788 30.3022C49.2599 30.3022 49.3411 30.384 49.3411 30.4657V33.2446C49.4222 33.3263 49.3411 33.4081 49.1788 33.4081Z" fill="white"/>
<path d="M50.4767 32.4273C50.3956 32.4273 50.3145 32.3455 50.3145 32.2638V31.3647C50.3145 31.283 50.3956 31.2013 50.4767 31.2013C50.5578 31.2013 50.6389 31.283 50.6389 31.3647V32.2638C50.6389 32.3455 50.5578 32.4273 50.4767 32.4273Z" fill="white"/>
<path d="M47.962 32.4273C47.8809 32.4273 47.7998 32.3455 47.7998 32.2638V31.3647C47.7998 31.283 47.8809 31.2013 47.962 31.2013C48.0431 31.2013 48.1243 31.283 48.1243 31.3647V32.2638C48.1243 32.3455 48.0431 32.4273 47.962 32.4273Z" fill="white"/>
<path d="M23.9525 33.163C21.7625 33.163 19.8157 32.3456 17.7879 30.7927L17.3823 30.4658L17.869 30.2206C18.599 29.8937 19.1668 29.3215 19.6535 28.6677C21.0324 27.1148 22.5736 25.3984 28.9005 26.4609C29.0627 26.4609 29.1438 26.6244 29.1438 26.7878C29.1438 26.9513 28.9816 27.033 28.8194 27.033C22.8169 25.9705 21.438 27.5234 20.1402 28.9946C19.6535 29.485 19.2479 30.0571 18.599 30.4658C21.3569 32.5091 23.9525 32.9178 27.4404 31.8552C27.6027 31.7735 27.7649 31.937 27.846 32.0187C27.9271 32.1822 27.846 32.3456 27.6838 32.4274C26.3048 32.9178 25.0881 33.163 23.9525 33.163Z" fill="white"/>
<path d="M19.4106 31.4466C19.2483 31.4466 19.1672 31.4466 19.005 31.4466C18.9239 31.4466 18.8428 31.3649 18.8428 31.2014C18.8428 31.1197 18.9239 31.0379 19.0861 31.0379C20.0595 31.2014 20.5462 30.7928 21.2762 30.3024C22.4929 29.485 24.1152 28.4225 28.7387 28.9129C28.8198 28.9129 28.9009 28.9946 28.9009 29.0764C28.9009 29.1581 28.8198 29.2398 28.7387 29.2398C24.1963 28.6677 22.6551 29.7302 21.5195 30.5475C20.8706 31.1197 20.3028 31.4466 19.4106 31.4466Z" fill="white"/>
<path d="M57.2902 26.8695C57.209 26.8695 57.1279 26.7878 57.1279 26.7061V25.1532C57.1279 25.0714 57.209 24.9897 57.2902 24.9897C57.3713 24.9897 57.4524 25.0714 57.4524 25.1532V26.7061C57.5335 26.7878 57.4524 26.8695 57.2902 26.8695Z" fill="white"/>
<path d="M56.0734 26.7061C55.9922 26.7061 55.9111 26.6244 55.9111 26.5427V24.9898C55.9111 24.908 55.9922 24.8263 56.0734 24.8263C56.1545 24.8263 56.2356 24.908 56.2356 24.9898V26.5427C56.2356 26.6244 56.1545 26.7061 56.0734 26.7061Z" fill="white"/>
<path d="M58.5885 27.1148C58.5074 27.1148 58.4263 27.0331 58.4263 26.9513V25.3984C58.4263 25.3167 58.5074 25.235 58.5885 25.235C58.6696 25.235 58.7507 25.3167 58.7507 25.3984V26.9513C58.7507 27.0331 58.6696 27.1148 58.5885 27.1148Z" fill="white"/>
<path d="M57.0472 33.163C55.9116 33.163 54.6949 32.9178 53.3971 32.5092C53.2348 32.4274 53.1537 32.264 53.2348 32.1005C53.316 31.937 53.4782 31.8553 53.6404 31.937C57.1283 32.9996 59.805 32.6726 62.4818 30.5476C61.8329 30.1389 61.3462 29.6485 60.9406 29.0764C59.6428 27.6052 58.2639 26.0523 52.2615 27.1148C52.0992 27.1148 51.937 27.0331 51.937 26.8696C51.937 26.7062 52.0181 26.5427 52.1804 26.5427C58.5072 25.3985 60.0484 27.1966 61.4273 28.7495C61.9951 29.3216 62.4818 29.8937 63.2118 30.3024L63.6985 30.5476L63.2929 30.8745C61.2651 32.3457 59.2373 33.163 57.0472 33.163Z" fill="white"/>
<path d="M61.5899 31.4466C60.7787 31.4466 60.2109 31.0379 59.562 30.6293C58.4264 29.8937 56.8041 28.8312 52.3429 29.3216C52.2618 29.3216 52.1807 29.2398 52.1807 29.1581C52.1807 29.0764 52.2618 28.9946 52.3429 28.9946C56.9664 28.4225 58.6698 29.5668 59.8054 30.3841C60.5354 30.8745 61.1032 31.2014 61.9954 31.1197C62.0766 31.1197 62.1577 31.2014 62.2388 31.2831C62.2388 31.3649 62.1577 31.4466 62.0765 31.5283C61.9143 31.4466 61.7521 31.4466 61.5899 31.4466Z" fill="white"/>
<path d="M30.3609 25.4802C30.2798 25.4802 30.1987 25.3984 30.1987 25.3167C29.8742 24.0907 29.4686 22.783 28.8197 21.3935C28.7386 21.3118 28.8197 21.2301 28.9008 21.1483C28.982 21.1483 29.0631 21.1484 29.1442 21.2301C29.7931 22.6195 30.2798 23.9272 30.5231 25.235C30.5231 25.3167 30.5231 25.4802 30.3609 25.4802Z" fill="white"/>
<path d="M28.3327 20.0858C28.2516 20.0858 28.1705 20.0858 28.1705 20.004C27.4404 18.6963 26.7104 17.7155 25.8182 16.8165C25.737 16.7348 25.737 16.653 25.8182 16.5713C25.8993 16.4896 25.9804 16.4896 26.0615 16.5713C27.0349 17.4703 27.7649 18.4511 28.4949 19.8406C28.576 19.9223 28.4949 20.0041 28.4138 20.0858C28.3327 20.0858 28.3327 20.0858 28.3327 20.0858Z" fill="white"/>
<path d="M24.5205 15.5906H24.4394C23.7905 15.1002 23.0604 14.6098 22.3304 14.2828C21.6815 13.9559 21.1948 13.629 20.627 13.302C20.5459 13.2203 20.5459 13.1386 20.5459 13.0569C20.627 12.9751 20.7081 12.9751 20.7892 12.9751C21.357 13.302 21.7626 13.629 22.4926 13.9559C23.2227 14.3646 23.9527 14.855 24.6016 15.3454C24.6827 15.4271 24.6827 15.5088 24.6016 15.5906C24.6016 15.5906 24.6016 15.5906 24.5205 15.5906Z" fill="white"/>
<path d="M19.4103 12.403H19.3291C18.1935 11.5039 17.2202 10.6866 16.3279 9.62411C16.2468 9.54238 16.2468 9.46064 16.3279 9.37891C16.409 9.29718 16.4902 9.29718 16.5713 9.37891C17.4635 10.3597 18.4369 11.2588 19.5725 12.0761C19.6536 12.1578 19.6536 12.2395 19.5725 12.3213C19.5725 12.3213 19.4914 12.403 19.4103 12.403Z" fill="white"/>
<path d="M15.5977 8.72503C15.5166 8.72503 15.5166 8.72503 15.4355 8.6433C15.0299 8.15291 14.2188 7.25384 13.2454 6.02786C13.1643 5.94613 13.1643 5.86441 13.2454 5.78267C13.3265 5.70094 13.4076 5.70094 13.4887 5.78267C14.4621 7.00866 15.2733 7.98944 15.6788 8.3981C15.7599 8.47984 15.7599 8.56157 15.6788 8.6433C15.6788 8.72503 15.6788 8.72503 15.5977 8.72503Z" fill="white"/>
<path d="M12.4347 4.63843C12.3535 4.63843 12.3535 4.63844 12.2724 4.55671C11.2179 3.24899 9.92012 1.61435 9.51456 1.04222C9.43344 0.960489 9.51455 0.878754 9.59567 0.797022C9.67678 0.71529 9.7579 0.797027 9.83901 0.878759C10.0824 1.28742 11.0557 2.5134 12.5158 4.31151C12.5969 4.39324 12.5969 4.47498 12.5158 4.55671C12.5158 4.63844 12.4347 4.63843 12.4347 4.63843Z" fill="white"/>
<path d="M68.6468 4.63841C68.5657 4.63841 68.5657 4.63842 68.5657 4.55669C68.4846 4.47495 68.4846 4.39322 68.5657 4.31149C70.1069 2.43164 70.9991 1.2874 71.2425 0.878734C71.3236 0.797002 71.4047 0.796997 71.4858 0.796997C71.5669 0.878729 71.5669 0.960464 71.5669 1.0422C71.2425 1.61432 69.8635 3.24897 68.8091 4.55669C68.7279 4.63842 68.728 4.63841 68.6468 4.63841Z" fill="white"/>
<path d="M26.8727 24.7447C26.7916 24.7447 26.7916 24.7447 26.7105 24.6629C26.7105 24.6629 26.6294 24.5812 26.6294 24.4995C26.6294 24.4177 26.6294 24.336 26.7105 24.336C26.7916 24.2543 26.9538 24.2543 27.035 24.336C27.1161 24.336 27.1161 24.4177 27.1161 24.4995C27.1161 24.5812 27.1161 24.5812 27.035 24.6629C26.9538 24.7447 26.8727 24.7447 26.8727 24.7447Z" fill="#D4D8E4"/>
<path d="M26.1428 23.1917C26.0617 23.1099 26.1428 22.9465 26.224 22.8647C26.3051 22.783 26.4673 22.8647 26.5484 23.0282C26.6295 23.1099 26.5484 23.2734 26.3862 23.3551H26.3051C26.224 23.2734 26.1428 23.2734 26.1428 23.1917ZM25.4128 21.8022C25.3317 21.7205 25.4128 21.557 25.4939 21.4753C25.575 21.3936 25.7373 21.4753 25.8184 21.557C25.8995 21.6388 25.8184 21.8022 25.7373 21.884H25.6562C25.575 21.884 25.4939 21.884 25.4128 21.8022ZM24.6828 20.4945C24.6017 20.4128 24.6017 20.2493 24.7639 20.1676C24.845 20.0858 25.0072 20.0859 25.0884 20.2493C25.1695 20.331 25.1695 20.4945 25.0072 20.5762C25.0072 20.5762 24.9261 20.5762 24.845 20.5762C24.7639 20.5762 24.6828 20.5762 24.6828 20.4945ZM23.7094 19.3503C23.6283 19.2685 23.6283 19.1051 23.7094 19.0233C23.7905 18.9416 23.9528 18.9416 24.0339 19.0233C24.115 19.1051 24.115 19.2685 24.0339 19.3503C23.9528 19.3503 23.9528 19.432 23.8717 19.432C23.7905 19.432 23.7094 19.3503 23.7094 19.3503ZM22.6549 18.2877C22.5738 18.206 22.5738 18.0425 22.6549 17.9608C22.7361 17.8791 22.8983 17.8791 22.9794 17.9608C23.0605 18.0425 23.0605 18.206 22.9794 18.2877C22.9794 18.3695 22.8983 18.3695 22.8172 18.3695C22.7361 18.3695 22.6549 18.3695 22.6549 18.2877ZM21.3571 17.3887C21.276 17.307 21.1949 17.2252 21.276 17.0618C21.3571 16.98 21.5194 16.8983 21.6005 16.98C21.6816 17.0618 21.7627 17.2252 21.6816 17.307C21.6816 17.3887 21.6005 17.3887 21.5194 17.3887C21.4382 17.4704 21.4382 17.4704 21.3571 17.3887ZM20.0593 16.6531C19.9782 16.5714 19.8971 16.4896 19.9782 16.3262C20.0593 16.2444 20.1404 16.1627 20.3026 16.2444C20.3838 16.3262 20.4649 16.4079 20.3838 16.5714C20.3838 16.6531 20.3026 16.7348 20.2215 16.7348C20.1404 16.7348 20.0593 16.7348 20.0593 16.6531ZM18.7615 15.9175C18.6804 15.8358 18.5993 15.6723 18.6804 15.5906C18.7615 15.5088 18.8426 15.4271 19.0048 15.5088C19.0859 15.5906 19.1671 15.754 19.0859 15.8358C19.0048 15.9175 19.0048 15.9175 18.9237 15.9175C18.8426 15.9175 18.7615 15.9175 18.7615 15.9175ZM17.4637 15.0184C17.3826 14.9367 17.3826 14.7733 17.3826 14.6915C17.4637 14.6098 17.6259 14.6098 17.707 14.6915C17.7881 14.7733 17.7881 14.9367 17.7881 15.0184C17.707 15.1002 17.6259 15.1002 17.6259 15.1002C17.5448 15.0184 17.4637 15.0184 17.4637 15.0184ZM16.247 14.0377C16.1658 13.9559 16.1658 13.7925 16.247 13.7107C16.3281 13.629 16.4903 13.629 16.5714 13.7107C16.6525 13.7925 16.6525 13.9559 16.5714 14.0377C16.4903 14.1194 16.4903 14.1194 16.4092 14.1194C16.3281 14.1194 16.3281 14.0377 16.247 14.0377ZM15.1114 12.9751C15.0303 12.8934 15.0303 12.7299 15.1114 12.6482C15.1925 12.5665 15.3547 12.5665 15.4358 12.6482C15.5169 12.7299 15.5169 12.8934 15.4358 12.9751C15.4358 13.0569 15.3547 13.0569 15.2736 13.0569C15.1925 13.0569 15.1114 13.0569 15.1114 12.9751ZM13.9758 11.9126C13.8947 11.8309 13.8947 11.6674 13.9758 11.5857C14.0569 11.504 14.2191 11.504 14.3002 11.5857C14.3813 11.6674 14.3813 11.8309 14.3002 11.9126C14.2191 11.9944 14.2191 11.9944 14.138 11.9944C14.138 11.9944 14.0569 11.9126 13.9758 11.9126ZM12.9213 10.7684C12.8402 10.6866 12.8402 10.5232 12.9213 10.4414C13.0024 10.3597 13.1646 10.3597 13.2457 10.4414C13.3269 10.5232 13.3269 10.6866 13.2457 10.7684C13.1646 10.7684 13.1646 10.8501 13.0835 10.8501C13.0835 10.8501 13.0024 10.7684 12.9213 10.7684ZM12.029 9.54239C11.9479 9.46065 11.9479 9.2972 12.029 9.21546C12.1102 9.13373 12.2724 9.13373 12.3535 9.21546C12.4346 9.2972 12.4346 9.46065 12.3535 9.54239C12.2724 9.54239 12.2724 9.62412 12.1913 9.62412C12.1102 9.62412 12.029 9.62412 12.029 9.54239ZM11.0557 8.3164C10.9746 8.23467 10.9746 8.07121 11.1368 7.98948C11.2179 7.90775 11.3801 7.90774 11.4612 8.0712C11.5424 8.15294 11.5424 8.31641 11.3801 8.39814C11.299 8.39814 11.299 8.39814 11.2179 8.39814C11.2179 8.39814 11.1368 8.3164 11.0557 8.3164ZM10.2445 6.92696C10.1634 6.84523 10.2445 6.68177 10.3256 6.60003C10.4068 6.5183 10.569 6.60003 10.6501 6.68176C10.7312 6.76349 10.6501 6.92696 10.569 7.00869H10.4879C10.3257 7.09043 10.2445 7.00869 10.2445 6.92696Z" fill="#D4D8E4"/>
<path d="M9.67694 5.70096C9.59582 5.70096 9.59582 5.70096 9.51471 5.61923C9.51471 5.61923 9.43359 5.5375 9.43359 5.45576C9.43359 5.37403 9.43359 5.37403 9.51471 5.2923C9.59582 5.21057 9.75805 5.21057 9.83916 5.2923C9.92028 5.37403 9.92028 5.37403 9.92028 5.45576C9.92028 5.5375 9.92028 5.53749 9.83916 5.61923C9.75805 5.70096 9.67694 5.70096 9.67694 5.70096Z" fill="#D4D8E4"/>
<path d="M29.2253 28.586C29.0631 28.586 28.9009 28.4225 28.9009 28.259C28.9009 28.1773 28.3331 19.2685 21.5195 15.6723C12.0292 10.6866 8.86578 0.470077 8.78467 0.388345C8.78467 0.224881 8.78467 0.143153 8.86579 0.0614213C8.9469 -0.020311 9.10912 -0.020311 9.19024 0.0614213C9.27135 0.143153 17.7883 7.00865 25.2508 8.72503C39.2835 11.8309 40.3379 19.5954 40.419 19.9223C40.419 20.0041 40.1757 26.7879 31.4154 26.7879C31.2532 26.7879 31.091 26.6244 31.091 26.4609C31.091 26.2975 31.2532 26.134 31.4154 26.134C39.6079 26.134 39.8513 20.1675 39.8513 19.9223C39.8513 19.9223 38.7157 12.3212 25.1697 9.29715C18.9239 7.90771 12.0292 3.00378 9.67692 1.20567C10.7314 3.8211 14.1382 11.2587 21.7629 15.1819C28.9009 18.9416 29.4687 28.1773 29.4687 28.259C29.5498 28.5042 29.3876 28.586 29.2253 28.586Z" fill="white"/>
<path d="M34.2542 53.8412C34.092 53.8412 33.9298 53.6778 33.9298 53.5143C33.9298 50.9806 32.4697 49.2642 30.8474 47.3844C28.8196 45.0142 26.4673 42.317 26.4673 37.2496C26.4673 32.1005 28.9007 28.3408 28.9818 28.1773C29.0629 28.0139 29.2252 28.0139 29.3874 28.0956C29.5496 28.1773 29.5496 28.3408 29.4685 28.5042C29.4685 28.5042 27.0351 32.2639 27.0351 37.2496C27.0351 42.0718 29.3063 44.6872 31.253 46.9757C32.9564 48.9373 34.4975 50.7354 34.4975 53.5143C34.5787 53.6778 34.4164 53.8412 34.2542 53.8412Z" fill="white"/>
<path d="M40.5003 33.7351C39.9325 33.7351 39.3647 33.4899 38.9591 33.163C38.4724 32.7543 38.2291 32.1822 38.1479 31.5283C38.1479 30.8745 38.3102 30.3023 38.7158 29.8119C39.1213 29.3215 39.7702 28.9946 40.5003 28.9946C41.0681 28.9946 41.6358 29.2398 42.0414 29.5667C42.5281 29.9754 42.7714 30.5475 42.8526 31.2014C42.8526 31.8552 42.6903 32.4274 42.2848 32.9178C41.7981 33.4899 41.2303 33.7351 40.5003 33.7351ZM40.5003 29.5667C39.9325 29.5667 39.4458 29.8119 39.1213 30.2206C38.7969 30.6293 38.6346 31.1196 38.6346 31.61C38.6346 32.1004 38.878 32.5908 39.2835 32.9178C40.0136 33.5716 41.2303 33.4899 41.9603 32.7543C42.2848 32.3456 42.447 31.8552 42.447 31.3648C42.447 30.8745 42.2036 30.3841 41.7981 30.0571C41.3925 29.7302 40.9869 29.5667 40.5003 29.5667Z" fill="#D4D8E4"/>
<path d="M40.4999 32.6726C40.1755 32.6726 39.9321 32.5909 39.6888 32.3457C39.4454 32.1005 39.2832 31.8553 39.2832 31.5284C39.2832 31.2014 39.3643 30.8745 39.6077 30.6293C40.0132 30.1389 40.8244 30.0572 41.311 30.5476C41.5544 30.7928 41.7166 31.038 41.7166 31.3649C41.7166 31.6918 41.6355 32.0188 41.3922 32.264C41.2299 32.5092 40.9055 32.6726 40.4999 32.6726ZM40.4999 30.7928C40.3377 30.7928 40.1754 30.8745 40.0132 31.038C39.9321 31.2014 39.851 31.2832 39.851 31.4466C39.851 31.6101 39.9321 31.7736 40.0943 31.8553C40.3377 32.1005 40.7432 32.0188 40.9866 31.7736C41.0677 31.6101 41.1488 31.5284 41.1488 31.3649C41.1488 31.2014 41.0677 31.038 40.9055 30.9562C40.8244 30.8745 40.6621 30.7928 40.4999 30.7928Z" fill="white"/>
<path d="M40.0946 35.5331C40.0135 35.5331 39.8513 35.3697 39.9324 35.2879C39.9324 35.1245 40.0135 35.0428 40.1757 35.1245C40.2568 35.1245 40.419 35.2062 40.3379 35.3697C40.3379 35.4514 40.2568 35.5331 40.0946 35.5331ZM41.1491 35.2879C41.1491 35.1245 41.2302 35.0427 41.3113 35.0427C41.4735 35.0427 41.5546 35.1245 41.5546 35.2062C41.5546 35.3697 41.4735 35.4514 41.3924 35.4514C41.3924 35.4514 41.3924 35.4514 41.3113 35.4514C41.2302 35.5331 41.1491 35.4514 41.1491 35.2879ZM38.8779 35.2062C38.7968 35.1245 38.7157 35.0428 38.7968 34.8793C38.8779 34.7976 38.959 34.7158 39.1212 34.7976C39.2023 34.8793 39.2834 34.961 39.2023 35.1245C39.1212 35.2062 39.1212 35.2879 38.959 35.2879C38.959 35.2879 38.8779 35.288 38.8779 35.2062ZM42.2847 34.961C42.2035 34.8793 42.2847 34.7158 42.3658 34.6341C42.4469 34.5524 42.6091 34.6341 42.6902 34.7158C42.7713 34.7976 42.6902 34.961 42.6091 35.0427H42.528C42.4469 35.0427 42.3658 35.0428 42.2847 34.961ZM37.7423 34.5524C37.6612 34.4706 37.6612 34.3072 37.7423 34.2254C37.8234 34.1437 37.9856 34.1437 38.0667 34.2254C38.1479 34.3072 38.1479 34.4706 38.0667 34.5524C37.9856 34.6341 37.9856 34.6341 37.9045 34.6341C37.9045 34.6341 37.8234 34.5524 37.7423 34.5524ZM43.258 34.2254C43.1769 34.1437 43.1769 33.9802 43.258 33.8985C43.3391 33.8168 43.5014 33.8168 43.5825 33.8985C43.6636 33.9802 43.6636 34.1437 43.5825 34.2254C43.5825 34.3072 43.5014 34.3072 43.4202 34.3072C43.4202 34.3072 43.3391 34.2254 43.258 34.2254ZM36.9311 33.5716C36.85 33.4898 36.9312 33.3264 37.0123 33.2446C37.0934 33.1629 37.2556 33.2446 37.3367 33.3264C37.4178 33.4081 37.3367 33.5716 37.2556 33.6533H37.1745C37.0934 33.6533 37.0123 33.5716 36.9311 33.5716ZM43.9881 33.2446C43.9069 33.1629 43.8258 33.0812 43.9069 32.9177C43.9881 32.836 44.0692 32.7543 44.2314 32.7543C44.3125 32.836 44.3936 32.9177 44.3936 33.0812C44.3125 33.1629 44.2314 33.2446 44.1503 33.2446C44.0692 33.2446 44.0692 33.2446 43.9881 33.2446ZM36.4445 32.3456C36.4445 32.1821 36.5256 32.1004 36.6067 32.1004C36.6878 32.1004 36.85 32.1821 36.85 32.2639C36.85 32.3456 36.7689 32.5091 36.6878 32.5091C36.6878 32.5091 36.6878 32.5091 36.6067 32.5091C36.6067 32.5091 36.5256 32.4273 36.4445 32.3456ZM44.3936 32.0187C44.3125 32.0187 44.1503 31.9369 44.2314 31.7735C44.2314 31.61 44.3125 31.5283 44.4747 31.5283C44.5558 31.5283 44.7181 31.6917 44.637 31.7735C44.637 31.9369 44.5559 32.0187 44.3936 32.0187ZM36.6067 31.2831C36.5256 31.2831 36.3634 31.1196 36.4445 31.0379C36.4445 30.8744 36.5256 30.7927 36.6878 30.7927C36.7689 30.7927 36.9312 30.9561 36.85 31.0379C36.85 31.2013 36.7689 31.2831 36.6067 31.2831ZM44.1503 30.6292C44.1503 30.4657 44.2314 30.384 44.3125 30.384C44.3936 30.384 44.5558 30.4657 44.5558 30.5475C44.5558 30.7109 44.4747 30.7927 44.3936 30.7927C44.3936 30.7927 44.3936 30.7927 44.3125 30.7927C44.2314 30.7927 44.1503 30.7109 44.1503 30.6292ZM36.85 30.0571C36.7689 29.9754 36.6878 29.8936 36.7689 29.7302C36.85 29.6484 36.9312 29.5667 37.0934 29.6484C37.1745 29.7302 37.2556 29.8119 37.1745 29.9754C37.1745 30.0571 37.0934 30.1388 37.0123 30.1388C36.9312 30.0571 36.85 30.0571 36.85 30.0571ZM43.7447 29.5667C43.6636 29.485 43.7447 29.3215 43.8258 29.2398C43.9069 29.158 44.0692 29.2398 44.1503 29.3215C44.2314 29.4032 44.1503 29.5667 44.0692 29.6484H43.9881C43.8258 29.6484 43.7447 29.6484 43.7447 29.5667ZM37.4178 28.9946C37.3367 28.9128 37.3367 28.7494 37.4178 28.6676C37.4989 28.5859 37.6612 28.5859 37.7423 28.6676C37.8234 28.7494 37.8234 28.9128 37.7423 28.9946C37.6612 29.0763 37.6612 29.0763 37.5801 29.0763C37.4989 28.9946 37.4989 28.9946 37.4178 28.9946ZM43.0147 28.6676C42.9336 28.5859 42.9336 28.4224 43.0147 28.3407C43.0958 28.259 43.258 28.259 43.3391 28.3407C43.4203 28.4224 43.4203 28.5859 43.3391 28.6676C43.258 28.7494 43.258 28.7494 43.1769 28.7494C43.0958 28.6676 43.0147 28.6676 43.0147 28.6676ZM38.3912 28.0955C38.3101 28.0138 38.3912 27.8503 38.4723 27.7686C38.5534 27.6869 38.7157 27.7686 38.7968 27.8503C38.8779 27.9321 38.7968 28.0955 38.7157 28.1772C38.6345 28.1772 38.6345 28.1772 38.6345 28.1772C38.4723 28.259 38.3912 28.1772 38.3912 28.0955ZM42.0413 28.0138C41.9602 27.9321 41.8791 27.8503 41.9602 27.6868C42.0413 27.6051 42.1224 27.5234 42.2847 27.6051C42.3658 27.6869 42.4469 27.7686 42.3658 27.932C42.3658 28.0138 42.2847 28.0955 42.1224 28.0955C42.0413 28.0138 42.0413 28.0138 42.0413 28.0138ZM39.4457 27.6051C39.4457 27.5234 39.5268 27.3599 39.6079 27.3599C39.689 27.3599 39.8512 27.4417 39.8512 27.5234C39.8512 27.6869 39.7701 27.7686 39.689 27.7686C39.689 27.7686 39.689 27.7686 39.6079 27.7686C39.6079 27.7686 39.5268 27.6869 39.4457 27.6051ZM40.9057 27.6868C40.8246 27.6868 40.6624 27.5234 40.7435 27.4417C40.7435 27.2782 40.9057 27.1965 40.9868 27.2782C41.1491 27.2782 41.2302 27.4417 41.1491 27.5234C41.1491 27.6051 41.068 27.6868 40.9057 27.6868Z" fill="#B8814A"/>
<path d="M22.736 54.7403C22.1682 54.7403 21.6004 54.4951 21.1948 54.1682C20.2215 53.3509 20.1403 51.798 20.9515 50.8172C21.3571 50.3268 22.006 49.9999 22.736 49.9999C23.3038 49.9999 23.8716 50.245 24.2772 50.572C24.7638 50.9806 25.0072 51.5528 25.0883 52.2066C25.0883 52.8605 24.9261 53.4326 24.5205 53.923C24.0338 54.4951 23.3849 54.7403 22.736 54.7403ZM22.736 50.4902C22.1682 50.4902 21.6815 50.7354 21.3571 51.1441C20.7081 51.9614 20.7893 53.1057 21.5193 53.8413C22.2493 54.4951 23.466 54.4134 24.196 53.6778C24.5205 53.2692 24.6827 52.7787 24.6827 52.2884C24.6827 51.798 24.4394 51.3076 24.0338 50.9806C23.6282 50.6537 23.1416 50.4902 22.736 50.4902Z" fill="#D4D8E4"/>
<path d="M22.3305 56.5384C22.1683 56.5384 22.0871 56.3749 22.1683 56.2932C22.1683 56.1297 22.3305 56.048 22.4116 56.1297C22.5738 56.1297 22.6549 56.2115 22.6549 56.3749C22.4927 56.4567 22.4116 56.5384 22.3305 56.5384ZM23.3039 56.2932C23.3039 56.1297 23.385 56.048 23.4661 56.048C23.5472 56.048 23.7094 56.1297 23.7094 56.2114C23.7094 56.3749 23.6283 56.4567 23.5472 56.4567C23.5472 56.4567 23.5472 56.4567 23.4661 56.4567C23.4661 56.4567 23.3039 56.3749 23.3039 56.2932ZM21.0327 56.2114C20.9516 56.1297 20.8704 56.048 20.9516 55.8845C21.0327 55.7211 21.1138 55.7211 21.276 55.7211C21.3571 55.8028 21.4382 55.8845 21.3571 56.048C21.3571 56.1297 21.1949 56.2114 21.1138 56.2114H21.0327ZM24.4394 55.8845C24.3583 55.8028 24.4395 55.6393 24.5206 55.5576C24.6017 55.4759 24.7639 55.5576 24.845 55.6393C24.9261 55.7211 24.845 55.8845 24.7639 55.9663H24.6828C24.6017 56.048 24.5206 55.9663 24.4394 55.8845ZM19.9782 55.5576C19.8971 55.4759 19.8971 55.3124 19.9782 55.2307C20.0593 55.1489 20.2215 55.1489 20.3026 55.2307C20.3838 55.3124 20.3838 55.4759 20.3026 55.5576C20.2215 55.6393 20.2215 55.6393 20.1404 55.6393C20.0593 55.5576 19.9782 55.5576 19.9782 55.5576ZM25.4939 55.1489C25.4128 55.0672 25.4128 54.9037 25.4939 54.822C25.575 54.7403 25.7373 54.7403 25.8184 54.822C25.8995 54.9037 25.8995 55.0672 25.8184 55.1489C25.8184 55.2307 25.7373 55.2307 25.6562 55.2307C25.575 55.2307 25.4939 55.2307 25.4939 55.1489ZM19.0859 54.4951C19.0048 54.4134 19.0859 54.2499 19.167 54.1681C19.2482 54.0864 19.4104 54.1681 19.4915 54.2499C19.5726 54.3316 19.4915 54.4951 19.4104 54.5768C19.3293 54.5768 19.3293 54.5768 19.3293 54.5768C19.2482 54.6585 19.1671 54.5768 19.0859 54.4951ZM26.2239 54.1681C26.1428 54.0864 26.0617 54.0047 26.1428 53.8412C26.224 53.7595 26.3051 53.6777 26.4673 53.7595C26.5484 53.8412 26.6295 53.923 26.5484 54.0864C26.5484 54.1682 26.3862 54.2499 26.3051 54.2499C26.224 54.2499 26.2239 54.1681 26.2239 54.1681ZM18.6804 53.2691C18.6804 53.1056 18.7615 53.0239 18.8426 53.0239C19.0048 53.0239 19.0859 53.1056 19.0859 53.1874C19.0859 53.2691 19.0048 53.4326 18.9237 53.4326C18.9237 53.4326 18.9237 53.4326 18.8426 53.4326C18.7615 53.5143 18.6804 53.4326 18.6804 53.2691ZM26.5484 53.0239C26.4673 53.0239 26.3051 52.8604 26.3862 52.7787C26.3862 52.6152 26.5484 52.5335 26.6295 52.6152C26.7917 52.6152 26.8729 52.7787 26.7917 52.8604C26.7917 52.9422 26.7106 53.0239 26.5484 53.0239ZM18.7615 52.2883C18.6804 52.2883 18.5181 52.1249 18.5993 52.0431C18.5993 51.8797 18.6804 51.7979 18.8426 51.8796C18.9237 51.8796 19.0859 51.9614 19.0048 52.1248C19.0048 52.1248 18.9237 52.2883 18.7615 52.2883ZM26.3051 51.6345C26.3051 51.471 26.3862 51.3892 26.4673 51.3892C26.6295 51.3892 26.7106 51.471 26.7106 51.5527C26.7106 51.7162 26.6295 51.7979 26.5484 51.7979C26.5484 51.7979 26.5484 51.7979 26.4673 51.7979C26.3862 51.7979 26.3051 51.7162 26.3051 51.6345ZM19.0048 51.0623C18.9237 50.9806 18.8426 50.8989 18.9237 50.7354C19.0048 50.6537 19.0859 50.5719 19.2482 50.6537C19.3293 50.7354 19.4104 50.8171 19.3293 50.9806C19.3293 51.0623 19.2482 51.1441 19.167 51.1441C19.0859 51.0623 19.0048 51.0623 19.0048 51.0623ZM25.8995 50.4902C25.8184 50.4085 25.8995 50.245 25.9806 50.1633C26.0617 50.0815 26.224 50.1633 26.3051 50.245C26.3862 50.3267 26.3051 50.4902 26.2239 50.5719H26.1428C25.9806 50.6537 25.8995 50.5719 25.8995 50.4902ZM19.5726 49.9998C19.4915 49.9181 19.4915 49.7546 19.5726 49.6729C19.6537 49.5911 19.816 49.5911 19.8971 49.6729C19.9782 49.7546 19.9782 49.9181 19.8971 49.9998C19.816 50.0815 19.816 50.0815 19.7348 50.0815C19.7348 49.9998 19.6537 49.9998 19.5726 49.9998ZM25.1695 49.5912C25.0884 49.5094 25.0884 49.3459 25.1695 49.2642C25.2506 49.1825 25.4128 49.1825 25.4939 49.2642C25.575 49.3459 25.575 49.5094 25.4939 49.5912C25.4128 49.6729 25.4128 49.6729 25.3317 49.6729C25.2506 49.6729 25.1695 49.6729 25.1695 49.5912ZM20.546 49.1008C20.4649 49.019 20.546 48.8556 20.6271 48.7738C20.7082 48.6921 20.8704 48.7738 20.9516 48.8555C21.0327 48.9373 20.9516 49.1008 20.8704 49.1825H20.7893C20.6271 49.1825 20.546 49.1825 20.546 49.1008ZM24.1961 49.019C24.115 48.9373 24.0339 48.8556 24.115 48.6921C24.1961 48.6104 24.2772 48.5286 24.4394 48.6104C24.6017 48.6921 24.6017 48.7738 24.6017 48.9373C24.5206 49.019 24.4394 49.1008 24.3583 49.1008C24.2772 49.019 24.1961 49.019 24.1961 49.019ZM21.6816 48.6104C21.6816 48.5286 21.7627 48.3652 21.8438 48.3652C21.9249 48.3652 22.0872 48.4469 22.0872 48.5286C22.0872 48.6921 22.006 48.7738 21.9249 48.7738H21.8438C21.7627 48.7738 21.6816 48.6921 21.6816 48.6104ZM23.0605 48.6921C22.8983 48.6921 22.8172 48.5286 22.8983 48.4469C22.8983 48.3651 23.0605 48.2017 23.1416 48.2834C23.3038 48.2834 23.385 48.4469 23.3039 48.5286C23.3039 48.6104 23.2227 48.6921 23.0605 48.6921Z" fill="#B8814A"/>
<path d="M58.3449 54.7403C57.696 54.7403 57.0471 54.4134 56.5604 53.923C56.1548 53.4326 55.9115 52.8605 55.9926 52.2066C55.9926 51.5528 56.317 50.9806 56.8037 50.572C57.2093 50.1633 57.7771 49.9999 58.3449 49.9999C58.9938 49.9999 59.6427 50.3268 60.1294 50.8172C60.535 51.3076 60.7783 51.8797 60.6972 52.5335C60.6972 53.1874 60.3727 53.7595 59.8861 54.1682C59.4805 54.5768 58.9127 54.7403 58.3449 54.7403ZM58.3449 50.4902C57.8582 50.4902 57.4526 50.6537 57.1282 50.9806C56.7226 51.3076 56.5604 51.798 56.4793 52.2884C56.4793 52.7787 56.6415 53.2692 56.966 53.6778C57.6149 54.4134 58.8316 54.4951 59.6427 53.8413C60.0483 53.5143 60.2105 53.0239 60.2916 52.5335C60.2916 52.0431 60.1294 51.5528 59.805 51.1441C59.3994 50.7354 58.9127 50.4902 58.3449 50.4902Z" fill="#D4D8E4"/>
<path d="M58.5075 56.3749C58.5075 56.2114 58.5886 56.1297 58.6698 56.1297C58.7509 56.1297 58.9131 56.2114 58.9131 56.2932C58.9131 56.3749 58.832 56.5384 58.6698 56.5384C58.5886 56.5384 58.5075 56.4566 58.5075 56.3749ZM57.453 56.4566C57.3719 56.4566 57.2908 56.2931 57.2908 56.2114C57.2908 56.048 57.4531 56.048 57.5342 56.048C57.6153 56.048 57.6964 56.2114 57.6964 56.2932C57.6964 56.3749 57.6153 56.4566 57.453 56.4566ZM59.7242 56.1297C59.6431 56.048 59.7242 55.8845 59.8054 55.8028C59.9676 55.721 60.0487 55.8028 60.1298 55.9662C60.2109 56.048 60.1298 56.2114 60.0487 56.2932H59.9676C59.8054 56.2114 59.7242 56.2114 59.7242 56.1297ZM56.2363 55.9662C56.1552 55.8845 56.0741 55.8028 56.1552 55.6393C56.2363 55.5576 56.3175 55.4758 56.4797 55.5576C56.5608 55.6393 56.6419 55.721 56.5608 55.8845C56.5608 55.9662 56.4797 55.9662 56.3986 55.9662C56.3175 56.048 56.3175 56.048 56.2363 55.9662ZM60.7787 55.4758C60.6976 55.3941 60.6976 55.2306 60.7787 55.1489C60.8598 55.0672 61.0221 55.0672 61.1032 55.1489C61.1843 55.2306 61.1843 55.3941 61.1032 55.4758C61.0221 55.4758 61.0221 55.5576 60.9409 55.5576C60.8598 55.5576 60.7787 55.5576 60.7787 55.4758ZM55.263 55.1489C55.1819 55.0672 55.1819 54.9037 55.263 54.822C55.3441 54.7402 55.5063 54.7402 55.5874 54.822C55.6685 54.9037 55.6685 55.0672 55.5874 55.1489C55.5874 55.1489 55.5063 55.2306 55.4252 55.2306C55.3441 55.2306 55.263 55.2306 55.263 55.1489ZM61.5899 54.5768C61.5087 54.495 61.4276 54.3316 61.5087 54.2498C61.5899 54.1681 61.7521 54.0864 61.8332 54.1681C61.9143 54.2498 61.9954 54.3316 61.9143 54.4951C61.8332 54.5768 61.8332 54.5768 61.7521 54.5768C61.671 54.6585 61.671 54.5768 61.5899 54.5768ZM54.533 54.0864C54.4518 54.0047 54.533 53.8412 54.6141 53.7594C54.6952 53.6777 54.8574 53.7595 54.9385 53.8412C55.0196 53.9229 54.9385 54.0864 54.8574 54.1681H54.7763C54.6952 54.1681 54.6141 54.1681 54.533 54.0864ZM62.0765 53.5143C61.9954 53.5143 61.9143 53.3508 61.9143 53.2691C61.9143 53.1056 62.0765 53.1056 62.1577 53.1056C62.2388 53.1056 62.3199 53.2691 62.3199 53.3508C62.401 53.4325 62.2388 53.5143 62.0765 53.5143C62.1576 53.5143 62.1576 53.5143 62.0765 53.5143ZM54.2085 52.7787C54.2085 52.6969 54.2896 52.5335 54.4518 52.5335C54.533 52.5335 54.6952 52.6152 54.6952 52.7787C54.6952 52.9421 54.6141 53.0239 54.533 53.0239C54.2896 53.0239 54.2085 52.9421 54.2085 52.7787ZM61.9954 52.0431C61.9954 51.8796 62.0765 51.7979 62.2388 51.7979C62.3199 51.7979 62.4821 51.8796 62.4821 51.9614C62.4821 52.1248 62.401 52.2065 62.3199 52.2065C62.1576 52.2883 61.9954 52.1248 61.9954 52.0431ZM54.4518 51.7979C54.3707 51.7979 54.2896 51.6344 54.2896 51.5527C54.2896 51.471 54.4518 51.3892 54.533 51.3892C54.6141 51.3892 54.6952 51.5527 54.6952 51.6344C54.6952 51.7162 54.6141 51.7979 54.4518 51.7979C54.4518 51.7979 54.533 51.7979 54.4518 51.7979ZM61.7521 50.8988C61.671 50.7354 61.7521 50.6536 61.8332 50.5719C61.9143 50.4902 62.0765 50.5719 62.1577 50.6536C62.2388 50.8171 62.1576 50.8988 62.0765 50.9806H61.9954C61.8332 51.0623 61.7521 50.9806 61.7521 50.8988ZM54.8574 50.6536C54.7763 50.5719 54.6952 50.4902 54.7763 50.3267C54.8574 50.245 54.9385 50.1632 55.1008 50.245C55.1819 50.3267 55.263 50.4084 55.1819 50.5719C55.1819 50.6536 55.1007 50.6536 55.0196 50.6536C54.9385 50.6536 54.8574 50.6536 54.8574 50.6536ZM61.1032 49.918C61.0221 49.8363 61.0221 49.6729 61.1032 49.5911C61.1843 49.5094 61.3465 49.5094 61.4276 49.5911C61.5087 49.6729 61.5087 49.8363 61.4276 49.918C61.3465 49.918 61.3465 49.9998 61.2654 49.9998C61.1843 49.9998 61.1843 49.9998 61.1032 49.918ZM55.5874 49.5911C55.5063 49.5094 55.5063 49.3459 55.5874 49.2642C55.6685 49.1824 55.8308 49.1824 55.9119 49.2642C55.993 49.3459 55.993 49.5094 55.9119 49.5911C55.9119 49.5911 55.8308 49.6728 55.7497 49.6728C55.6686 49.6728 55.5874 49.6729 55.5874 49.5911ZM60.2109 49.1825C60.1298 49.1007 60.0487 49.019 60.1298 48.8555C60.2109 48.7738 60.292 48.6921 60.4543 48.7738C60.5354 48.8555 60.6165 48.9373 60.5354 49.1007C60.5354 49.1825 60.4543 49.1825 60.3731 49.1825C60.292 49.1825 60.2109 49.1825 60.2109 49.1825ZM56.5608 48.8555C56.4797 48.7738 56.5608 48.6103 56.6419 48.5286C56.723 48.4469 56.8853 48.5286 56.9664 48.6103C57.0475 48.6921 56.9664 48.8555 56.8853 48.9372H56.8041C56.6419 49.019 56.5608 48.9372 56.5608 48.8555ZM59.0753 48.7738C58.9942 48.7738 58.9131 48.6103 58.9131 48.5286C58.9131 48.4469 59.0753 48.3651 59.1564 48.3651C59.2376 48.3651 59.3187 48.5286 59.3187 48.6103C59.3998 48.6921 59.2376 48.7738 59.0753 48.7738C59.1564 48.7738 59.1564 48.7738 59.0753 48.7738ZM57.6964 48.5286C57.6964 48.3651 57.7775 48.2834 57.8586 48.2834C57.9397 48.2834 58.102 48.3651 58.102 48.4469C58.102 48.6103 58.0208 48.6921 57.8586 48.6921C57.8586 48.6921 57.6964 48.6103 57.6964 48.5286Z" fill="#B8814A"/>
<path d="M13.5701 8.72506C13.489 8.72506 13.489 8.72507 13.4079 8.64334C12.6779 7.74428 12.5968 6.51829 13.2457 5.61924C13.9757 4.63845 15.3546 4.55672 16.8147 5.29231C16.8958 5.37404 16.9769 5.45578 16.8958 5.53751C16.8147 5.61924 16.7336 5.70097 16.6525 5.61924C15.2735 4.96538 14.1379 5.04711 13.489 5.86444C12.9212 6.60003 13.0023 7.66255 13.6512 8.39814C13.7324 8.47987 13.7324 8.56161 13.6512 8.64334C13.6512 8.72507 13.5701 8.72506 13.5701 8.72506Z" fill="white"/>
<path d="M16.8148 12.2396C16.7337 12.2396 16.7337 12.2396 16.6526 12.1578C15.8414 11.0953 15.8414 9.62412 16.5715 8.47987C17.4637 7.17216 19.2482 6.7635 21.195 7.49909C21.2761 7.49909 21.3572 7.66256 21.2761 7.74429C21.2761 7.82602 21.1138 7.90776 21.0327 7.82603C19.2482 7.17217 17.6259 7.49909 16.8148 8.72507C16.1659 9.70586 16.1659 11.0136 16.8959 11.9126C16.977 11.9944 16.977 12.0761 16.8959 12.1578C16.8959 12.2396 16.8148 12.2396 16.8148 12.2396Z" fill="white"/>
<path d="M20.7888 15.1819C20.7077 15.1819 20.6266 15.1001 20.6266 15.0184C20.1399 13.302 20.5454 11.5039 21.7621 10.2779C23.06 8.97022 25.0067 8.64328 27.359 9.29714C27.4401 9.29714 27.5212 9.46061 27.5212 9.54234C27.5212 9.62407 27.359 9.7058 27.2779 9.7058C25.0878 9.05194 23.2222 9.37888 22.0866 10.6049C21.0321 11.6674 20.6266 13.3838 21.0321 14.9367C20.951 15.0184 20.951 15.1819 20.7888 15.1819Z" fill="white"/>
<path d="M26.1425 19.6772C26.0614 19.6772 25.9803 19.6772 25.9803 19.5955C25.0069 17.7973 25.7369 14.5281 27.6026 12.7299C28.5759 11.7492 30.6038 10.3597 33.6861 11.9944C33.7672 12.0761 33.8483 12.1578 33.7672 12.2396C33.6861 12.3213 33.605 12.403 33.5239 12.3213C30.6849 10.7684 28.7381 12.0761 27.8459 12.9751C26.1425 14.6915 25.4125 17.7973 26.3047 19.432C26.3859 19.5137 26.3047 19.5955 26.2236 19.6772C26.2236 19.6772 26.1425 19.6772 26.1425 19.6772Z" fill="white"/>
<path d="M28.4138 24.3359C28.3327 24.3359 28.2516 24.2541 28.2516 24.1724C27.4404 21.7204 30.685 18.3694 33.9295 17.1434C36.9307 15.9992 39.3641 16.8982 40.4997 19.4319C40.4997 19.5137 40.4997 19.5954 40.4186 19.6771C40.3375 19.6771 40.2564 19.6771 40.1753 19.5954C38.7152 16.1626 35.3896 16.98 34.0917 17.4704C31.0905 18.6146 27.9271 21.8022 28.6571 24.0089C28.576 24.1724 28.576 24.3359 28.4138 24.3359Z" fill="white"/>
<path d="M50.7203 25.4801C50.6392 25.4801 50.6392 25.4801 50.7203 25.4801C50.5581 25.4801 50.5581 25.3166 50.5581 25.2349C50.8826 23.9272 51.2881 22.6194 51.937 21.23C52.0182 21.1483 52.0993 21.0665 52.1804 21.1483C52.2615 21.23 52.3426 21.3117 52.2615 21.3935C51.6126 22.7829 51.207 24.0089 50.8826 25.3166C50.8015 25.3983 50.8014 25.4801 50.7203 25.4801Z" fill="white"/>
<path d="M52.7482 20.0858H52.6671C52.5859 20.0041 52.5859 19.9223 52.5859 19.8406C53.316 18.4511 54.046 17.5521 55.0194 16.5713C55.1005 16.4896 55.1816 16.4896 55.2627 16.5713C55.3438 16.653 55.3438 16.7348 55.2627 16.8165C54.3704 17.7155 53.6404 18.6963 52.9104 20.004C52.8293 20.0858 52.8293 20.0858 52.7482 20.0858Z" fill="white"/>
<path d="M56.561 15.5905C56.4798 15.5905 56.4798 15.5905 56.3987 15.5088C56.3176 15.427 56.3176 15.3453 56.3987 15.2636C57.0476 14.7732 57.7777 14.2828 58.5077 13.8741C59.1566 13.5472 59.6433 13.2203 60.2111 12.8933C60.2922 12.8116 60.3733 12.8933 60.4544 12.9751C60.5355 13.0568 60.4544 13.1385 60.3733 13.2203C59.8055 13.5472 59.3188 13.8741 58.6699 14.201C57.9399 14.6097 57.2099 15.0184 56.561 15.5088C56.6421 15.5905 56.561 15.5905 56.561 15.5905Z" fill="white"/>
<path d="M61.5893 12.403C61.5082 12.403 61.5082 12.403 61.427 12.3213C61.3459 12.2395 61.3459 12.1578 61.427 12.0761C62.5626 11.2588 63.4549 10.3597 64.4283 9.37891C64.5094 9.29718 64.5905 9.29718 64.6716 9.37891C64.7527 9.46064 64.7527 9.54238 64.6716 9.62411C63.6982 10.6866 62.806 11.5039 61.6704 12.403C61.6704 12.403 61.6704 12.403 61.5893 12.403Z" fill="white"/>
<path d="M65.4017 8.72503C65.3206 8.72503 65.3206 8.72503 65.3206 8.6433C65.2395 8.56157 65.2395 8.47984 65.3206 8.3981C65.7262 7.90771 66.5373 7.00866 67.5107 5.78267C67.5918 5.70094 67.6729 5.70094 67.754 5.78267C67.8351 5.86441 67.8351 5.94613 67.754 6.02786C66.7806 7.25384 65.9695 8.23464 65.5639 8.6433C65.5639 8.72503 65.4828 8.72503 65.4017 8.72503Z" fill="white"/>
<path d="M49.4225 9.6241C49.3414 9.6241 49.2603 9.6241 49.2603 9.54237C49.2603 9.54237 49.1792 9.46064 49.1792 9.37891C49.1792 9.29717 49.1792 9.21544 49.2603 9.21544C49.3414 9.13371 49.5037 9.13371 49.5848 9.21544C49.6659 9.21544 49.6659 9.29717 49.6659 9.37891C49.6659 9.46064 49.6659 9.46064 49.5848 9.54237C49.5037 9.54237 49.5037 9.6241 49.4225 9.6241Z" fill="#D4D8E4"/>
<path d="M41.149 15.4271C41.0679 15.3453 41.0679 15.1819 41.0679 15.1001C41.149 15.0184 41.3112 14.9367 41.3923 15.1001C41.4734 15.1819 41.4734 15.3453 41.3923 15.4271C41.3923 15.5088 41.3112 15.5088 41.2301 15.5088C41.3112 15.5088 41.2301 15.5088 41.149 15.4271ZM42.1224 14.2828C42.0412 14.2011 42.0412 14.0376 42.1224 13.9559C42.2035 13.8742 42.3657 13.8742 42.4468 13.9559C42.5279 14.0376 42.5279 14.2011 42.4468 14.2828C42.4468 14.3645 42.3657 14.3646 42.2846 14.3646C42.2035 14.3646 42.1224 14.3645 42.1224 14.2828ZM43.0957 13.302C43.0146 13.2203 43.0146 13.0568 43.0957 12.9751C43.1768 12.8934 43.3391 12.8934 43.4202 12.9751C43.5013 13.0568 43.5013 13.2203 43.4202 13.302C43.3391 13.3838 43.3391 13.3838 43.2579 13.3838C43.2579 13.3838 43.1768 13.302 43.0957 13.302ZM44.2313 12.3212C44.1502 12.2395 44.1502 12.076 44.2313 11.9943C44.3124 11.9126 44.4747 11.9126 44.5558 11.9943C44.6369 12.076 44.6369 12.2395 44.4746 12.3212C44.3935 12.3212 44.3935 12.403 44.3124 12.403C44.3124 12.4847 44.2313 12.403 44.2313 12.3212ZM45.3669 11.5039C45.2858 11.4222 45.3669 11.2587 45.448 11.177C45.5291 11.0953 45.6914 11.177 45.7725 11.2587C45.8536 11.3405 45.7725 11.5039 45.6914 11.5856L45.6102 11.6674C45.5291 11.5857 45.448 11.5857 45.3669 11.5039ZM46.5836 10.7683C46.5025 10.6866 46.5836 10.5231 46.6647 10.4414C46.7458 10.3597 46.9081 10.4414 46.9892 10.5231C47.0703 10.6049 46.9892 10.7683 46.9081 10.8501H46.827C46.7458 10.8501 46.6647 10.8501 46.5836 10.7683ZM47.8814 10.0327C47.8003 9.95101 47.8814 9.78754 47.9625 9.7058C48.0437 9.62407 48.2059 9.70581 48.287 9.78754C48.3681 9.86927 48.287 10.0327 48.2059 10.1145H48.1248C48.0437 10.1962 47.9625 10.1145 47.8814 10.0327Z" fill="#D4D8E4"/>
<path d="M40.5002 16.7348C40.4191 16.7348 40.338 16.7348 40.338 16.6531C40.338 16.6531 40.2568 16.5714 40.2568 16.4896C40.2568 16.4079 40.2568 16.4079 40.338 16.3262C40.338 16.2445 40.4191 16.2444 40.5002 16.2444C40.5813 16.2444 40.5813 16.2445 40.6624 16.3262C40.7435 16.3262 40.7435 16.4079 40.7435 16.4896C40.7435 16.5714 40.7435 16.6531 40.6624 16.6531C40.6624 16.6531 40.5813 16.7348 40.5002 16.7348Z" fill="#D4D8E4"/>
<path d="M40.5002 16.7348C40.4191 16.7348 40.4191 16.7348 40.338 16.653C40.338 16.653 40.2568 16.5713 40.2568 16.4896C40.2568 16.4078 40.2568 16.3261 40.338 16.3261C40.4191 16.2444 40.5813 16.2444 40.6624 16.3261C40.6624 16.3261 40.7435 16.4078 40.7435 16.4896C40.7435 16.5713 40.7435 16.5713 40.6624 16.653C40.6624 16.653 40.5813 16.7348 40.5002 16.7348Z" fill="#D4D8E4"/>
<path d="M39.5268 15.427C39.4457 15.3453 39.4457 15.1818 39.6079 15.1001C39.689 15.0184 39.8512 15.0184 39.9324 15.1001C40.0135 15.1818 40.0135 15.3453 39.8512 15.427C39.8512 15.427 39.7701 15.5088 39.689 15.5088C39.6079 15.5088 39.6079 15.427 39.5268 15.427ZM38.6345 14.2828C38.5534 14.2011 38.5534 14.0376 38.6345 13.9559C38.7156 13.8741 38.8779 13.8741 38.959 13.9559C39.0401 14.0376 39.0401 14.2011 38.959 14.2828C38.8779 14.2828 38.8779 14.3645 38.7968 14.3645C38.7156 14.3645 38.6345 14.3645 38.6345 14.2828ZM37.5801 13.302C37.4989 13.2203 37.4989 13.0568 37.5801 12.9751C37.6612 12.8933 37.8234 12.8933 37.9045 12.9751C37.9856 13.0568 37.9856 13.2203 37.9045 13.302C37.8234 13.3837 37.8234 13.3837 37.7423 13.3837C37.6612 13.3837 37.6612 13.3837 37.5801 13.302ZM36.5256 12.4029C36.4445 12.3212 36.4445 12.1578 36.5256 12.076C36.6067 11.9943 36.7689 11.9943 36.85 12.076C36.9311 12.1578 36.9311 12.3212 36.9311 12.4029C36.85 12.4847 36.85 12.4847 36.7689 12.4847C36.6067 12.4847 36.5256 12.4029 36.5256 12.4029ZM35.3089 11.5856C35.2277 11.5039 35.1466 11.3404 35.2278 11.2587C35.3089 11.177 35.4711 11.0952 35.5522 11.177C35.6333 11.2587 35.7144 11.4222 35.6333 11.5039C35.5522 11.5856 35.5522 11.5856 35.4711 11.5856C35.39 11.5856 35.39 11.5856 35.3089 11.5856ZM34.0922 10.85C34.011 10.7683 33.9299 10.6866 34.011 10.5231C34.0922 10.4414 34.1733 10.3596 34.3355 10.4414C34.4166 10.5231 34.4977 10.6048 34.4166 10.7683C34.4166 10.85 34.3355 10.85 34.2544 10.85C34.1733 10.85 34.1733 10.85 34.0922 10.85ZM32.8754 10.1962C32.7943 10.1144 32.7132 10.0327 32.7943 9.86925C32.8755 9.78752 32.9566 9.70578 33.1188 9.78752C33.1999 9.86925 33.281 9.95098 33.1999 10.1144C33.1188 10.1962 33.1188 10.2779 33.0377 10.2779C32.8755 10.1962 32.8754 10.1962 32.8754 10.1962Z" fill="#D4D8E4"/>
<path d="M31.6589 9.62406C31.5777 9.62406 31.5777 9.62405 31.4966 9.54232C31.4155 9.54232 31.4155 9.46059 31.4155 9.37886C31.4155 9.29713 31.4155 9.2154 31.4966 9.2154C31.5777 9.13367 31.74 9.13367 31.8211 9.2154C31.8211 9.2154 31.9022 9.29713 31.9022 9.37886C31.9022 9.46059 31.9022 9.46059 31.8211 9.54232C31.74 9.54232 31.6589 9.62406 31.6589 9.62406Z" fill="#D4D8E4"/>
<path d="M54.2087 24.7447C54.1276 24.7447 54.1276 24.7447 54.0465 24.6629C54.0465 24.5812 53.9653 24.5812 53.9653 24.4995C53.9653 24.4177 53.9653 24.4177 54.0465 24.336C54.1276 24.2543 54.2898 24.2543 54.3709 24.336C54.452 24.336 54.452 24.4177 54.452 24.4995C54.452 24.5812 54.452 24.5812 54.3709 24.6629C54.2898 24.7447 54.2898 24.7447 54.2087 24.7447Z" fill="#D4D8E4"/>
<path d="M54.6142 23.2734C54.5331 23.1917 54.452 23.1099 54.5331 22.9465C54.6142 22.783 54.6953 22.783 54.8576 22.783C54.9387 22.8647 55.0198 22.9465 54.9387 23.1099C54.9387 23.1917 54.8576 23.2734 54.6953 23.2734C54.6953 23.2734 54.6953 23.2734 54.6142 23.2734ZM55.2631 21.884C55.182 21.8022 55.1009 21.7205 55.182 21.557C55.2631 21.4753 55.3442 21.3936 55.5065 21.4753C55.5876 21.557 55.6687 21.6388 55.5876 21.8022C55.5065 21.884 55.5065 21.884 55.4254 21.884C55.3442 21.884 55.3442 21.884 55.2631 21.884ZM56.0743 20.5762C55.9932 20.4945 55.9932 20.331 55.9932 20.2493C56.0743 20.1676 56.2365 20.0858 56.3176 20.1676C56.3987 20.2493 56.4798 20.4128 56.3987 20.4945C56.3176 20.5762 56.3176 20.5762 56.2365 20.5762C56.1554 20.5762 56.0743 20.5762 56.0743 20.5762ZM57.0476 19.3503C56.9665 19.2685 56.9665 19.1051 57.0476 19.0233C57.1287 18.9416 57.291 18.9416 57.3721 19.0233C57.4532 19.1051 57.4532 19.2685 57.3721 19.3503C57.291 19.432 57.291 19.432 57.2099 19.432C57.1287 19.432 57.0476 19.3503 57.0476 19.3503ZM58.1021 18.2877C58.021 18.206 58.021 18.0425 58.1021 17.9608C58.1832 17.8791 58.3455 17.8791 58.4266 17.9608C58.5077 18.0425 58.5077 18.206 58.4266 18.2877C58.4266 18.2877 58.3455 18.3695 58.2643 18.3695C58.1832 18.3695 58.1832 18.2877 58.1021 18.2877ZM59.3188 17.3887C59.2377 17.307 59.3188 17.1435 59.3999 17.0618C59.4811 16.98 59.6433 17.0618 59.7244 17.1435C59.8055 17.2252 59.7244 17.3887 59.6433 17.4704C59.5622 17.4704 59.5622 17.4704 59.5622 17.4704C59.4811 17.4704 59.3999 17.3887 59.3188 17.3887ZM60.6978 16.5714C60.6166 16.4896 60.6978 16.3262 60.7789 16.2444C60.86 16.1627 61.0222 16.2444 61.1033 16.3262C61.1844 16.4079 61.1033 16.5714 61.0222 16.6531H60.9411C60.7789 16.7348 60.6978 16.6531 60.6978 16.5714ZM61.9956 15.8358C61.9145 15.754 61.9145 15.5906 62.0767 15.5088C62.1578 15.4271 62.32 15.4271 62.4011 15.5906C62.4823 15.6723 62.4823 15.8358 62.32 15.9175C62.32 15.9175 62.2389 15.9175 62.1578 15.9175C62.0767 15.9175 61.9956 15.9175 61.9956 15.8358ZM63.2934 14.9367C63.2123 14.855 63.2123 14.6915 63.3745 14.6098C63.4556 14.5281 63.6178 14.5281 63.699 14.6098C63.7801 14.6915 63.7801 14.855 63.6179 14.9367C63.6179 14.9367 63.5367 14.9367 63.4556 14.9367C63.3745 15.0185 63.2934 15.0185 63.2934 14.9367ZM64.5101 14.0377C64.429 13.9559 64.429 13.7925 64.5101 13.7107C64.5912 13.629 64.7534 13.629 64.8346 13.7107C64.9157 13.7925 64.9157 13.9559 64.8346 14.0377C64.8346 14.0377 64.7534 14.1194 64.6723 14.1194C64.5912 14.1194 64.5101 14.0377 64.5101 14.0377ZM65.6457 12.9751C65.5646 12.8934 65.5646 12.7299 65.6457 12.6482C65.7268 12.5665 65.889 12.5665 65.9701 12.6482C66.0513 12.7299 66.0513 12.8934 65.9701 12.9751C65.889 13.0569 65.889 13.0569 65.8079 13.0569C65.7268 13.0569 65.6457 13.0569 65.6457 12.9751ZM66.7002 11.9126C66.6191 11.8309 66.6191 11.6674 66.7002 11.5857C66.7813 11.504 66.9435 11.504 67.0246 11.5857C67.1057 11.6674 67.1057 11.8309 67.0246 11.9126C66.9435 11.9944 66.9435 11.9944 66.8624 11.9944C66.8624 11.9944 66.7813 11.9126 66.7002 11.9126ZM67.7547 10.7684C67.6735 10.6866 67.6735 10.5232 67.7547 10.4414C67.8358 10.3597 67.998 10.3597 68.0791 10.4414C68.1602 10.5232 68.1602 10.6866 68.0791 10.7684C67.998 10.8501 67.998 10.8501 67.9169 10.8501C67.8358 10.8501 67.8358 10.7684 67.7547 10.7684ZM68.728 9.54239C68.6469 9.46065 68.6469 9.2972 68.6469 9.21546C68.728 9.13373 68.8902 9.13373 68.9714 9.13373C69.0525 9.21546 69.0525 9.37893 68.9714 9.46066C68.9714 9.54239 68.8902 9.54239 68.8091 9.54239C68.8091 9.62412 68.8091 9.62412 68.728 9.54239ZM69.6203 8.3164C69.5392 8.23467 69.4581 8.07121 69.5392 7.98948C69.6203 7.90775 69.7825 7.82601 69.8636 7.90774C69.9447 7.98947 70.0258 8.15295 69.9447 8.23468C69.8636 8.31641 69.8636 8.3164 69.7825 8.3164C69.7014 8.39814 69.7014 8.39814 69.6203 8.3164ZM70.5125 7.00869C70.4314 6.92696 70.3503 6.84522 70.4314 6.68176C70.5125 6.60003 70.6748 6.5183 70.7559 6.60003C70.837 6.68177 70.9181 6.84523 70.837 6.92696C70.7559 7.00869 70.7559 7.00869 70.6748 7.00869C70.5936 7.09043 70.5125 7.09043 70.5125 7.00869Z" fill="#D4D8E4"/>
<path d="M71.405 5.70101C71.3238 5.70101 71.3238 5.701 71.2427 5.61927C71.1616 5.53754 71.1616 5.53754 71.1616 5.45581C71.1616 5.37408 71.1616 5.37408 71.2427 5.29235C71.3238 5.21062 71.4861 5.21062 71.5672 5.29235C71.5672 5.37408 71.6483 5.37408 71.6483 5.45581C71.6483 5.53754 71.6483 5.61927 71.5672 5.61927C71.4861 5.701 71.4861 5.70101 71.405 5.70101Z" fill="#D4D8E4"/>
<path d="M51.7748 28.586C51.6126 28.586 51.4504 28.4225 51.4504 28.259C51.4504 28.1773 52.0182 18.9416 59.1562 15.1819C66.6998 11.2587 70.1876 3.82109 71.2421 1.20565C68.8898 3.00376 61.9952 7.90769 55.7494 9.29714C42.2034 12.3212 41.0678 19.8406 41.0678 19.9223C41.0678 20.1675 41.3111 26.134 49.5036 26.134C49.6659 26.134 49.8281 26.2974 49.8281 26.4609C49.8281 26.6244 49.6659 26.7878 49.5036 26.7878C40.6622 26.7878 40.5 20.0041 40.5 20.0041C40.5811 19.5954 41.6356 11.9126 55.6683 8.80675C63.1307 7.17211 71.6477 0.224864 71.7288 0.143132C71.8099 0.0613998 71.9721 0.0613998 72.0533 0.143132C72.1344 0.224864 72.2155 0.388336 72.1344 0.470069C72.1344 0.551801 68.9709 10.8501 59.3995 15.754C52.5048 19.3502 52.0182 28.259 52.0182 28.3408C52.0993 28.5042 51.937 28.586 51.7748 28.586Z" fill="white"/>
<path d="M67.5111 8.72506C67.43 8.72506 67.43 8.72507 67.43 8.64334C67.3489 8.56161 67.3489 8.47987 67.43 8.39814C68.0789 7.66255 68.0789 6.60003 67.5922 5.86444C66.9433 5.04711 65.8077 4.96538 64.4288 5.61924C64.3477 5.70097 64.2666 5.61924 64.1855 5.53751C64.1043 5.45578 64.1855 5.37404 64.2666 5.29231C65.8077 4.55672 67.1055 4.63845 67.8356 5.61924C68.4845 6.43656 68.4034 7.74428 67.6733 8.64334C67.5922 8.72507 67.5111 8.72506 67.5111 8.72506Z" fill="white"/>
<path d="M64.2664 12.2395H64.1853C64.1042 12.1578 64.1042 12.0761 64.1853 11.9943C64.9153 11.0953 64.9153 9.70583 64.2664 8.80677C63.4553 7.66252 61.833 7.33559 60.0485 7.90771C59.9674 7.90771 59.8863 7.90772 59.8052 7.82599C59.8052 7.74426 59.8052 7.66252 59.8863 7.58079C61.833 6.92693 63.6175 7.25386 64.5098 8.56157C65.3209 9.62409 65.2398 11.177 64.4287 12.2395C64.3475 12.2395 64.2664 12.2395 64.2664 12.2395Z" fill="white"/>
<path d="M60.292 15.1819C60.292 15.1819 60.2108 15.1819 60.292 15.1819C60.1297 15.1819 60.1297 15.0184 60.1297 14.9367C60.5353 13.302 60.2108 11.6674 59.0752 10.6049C57.8585 9.37888 55.9929 9.13368 53.884 9.7058C53.8029 9.7058 53.7217 9.7058 53.6406 9.54234C53.6406 9.46061 53.6406 9.37887 53.8029 9.29714C56.1552 8.64328 58.1019 8.97022 59.3997 10.2779C60.5353 11.4222 61.022 13.2203 60.5353 15.0184C60.4542 15.1001 60.3731 15.1819 60.292 15.1819Z" fill="white"/>
<path d="M54.857 19.6772H54.7759C54.6948 19.5955 54.6948 19.5137 54.6948 19.432C55.587 17.7973 54.857 14.6915 53.1536 12.9751C52.2614 12.0761 50.3958 10.7684 47.4757 12.3213C47.3945 12.403 47.3134 12.3213 47.2323 12.2396C47.1512 12.1578 47.2323 12.0761 47.3134 11.9944C50.3958 10.3597 52.4236 11.7492 53.397 12.7299C55.1815 14.6098 55.9926 17.7973 55.0192 19.5955C55.0192 19.5955 54.9381 19.6772 54.857 19.6772Z" fill="white"/>
<path d="M52.6669 24.3359C52.5857 24.3359 52.5857 24.3359 52.6669 24.3359C52.5046 24.3359 52.4235 24.1725 52.5046 24.0907C53.2347 21.8022 50.0712 18.6964 47.07 17.5522C45.6911 17.0618 42.4465 16.2444 40.9865 19.6772C40.9865 19.7589 40.8242 19.8407 40.7431 19.7589C40.662 19.7589 40.5809 19.5955 40.662 19.5137C41.7976 16.98 44.231 16.081 47.2322 17.2252C50.4768 18.4512 53.6402 21.8022 52.9102 24.2542C52.748 24.3359 52.748 24.3359 52.6669 24.3359Z" fill="white"/>
<path d="M7.32434 42.317C7.24323 42.317 7.16211 42.2353 7.16211 42.1536C7.16211 42.0718 7.24323 41.9901 7.32434 41.9901C8.13548 41.9901 8.54105 41.6632 8.94662 41.3362C9.4333 41.0093 9.83886 40.6007 10.8122 40.6007C10.8933 40.6007 10.9745 40.6824 10.9745 40.7641C10.9745 40.8458 10.8933 40.9276 10.8122 40.9276C10.0011 40.9276 9.59552 41.2545 9.18995 41.5814C8.78439 41.9901 8.29771 42.317 7.32434 42.317Z" fill="#B8814A"/>
<path d="M17.8693 41.0092C17.7882 41.0092 17.7882 41.0092 17.7071 40.9275C17.626 40.9275 17.626 40.8458 17.626 40.764C17.626 40.6823 17.626 40.6006 17.7071 40.6006C17.7882 40.5188 17.9504 40.5188 18.0315 40.6006C18.0315 40.6006 18.1127 40.6823 18.1127 40.764C18.1127 40.8458 18.1127 40.9275 18.0315 40.9275C18.0315 41.0092 17.9504 41.0092 17.8693 41.0092Z" fill="#B8814A"/>
<path d="M14.1383 42.1535C14.1383 41.9901 14.2194 41.9083 14.3816 41.9083C14.5438 41.9083 14.625 41.9901 14.625 42.1535C14.625 42.317 14.5438 42.3987 14.3816 42.3987C14.2194 42.3987 14.1383 42.2353 14.1383 42.1535ZM13.0027 42.0718C12.9216 41.9901 12.8405 41.9083 12.9216 41.7449C13.0027 41.6631 13.0838 41.5814 13.246 41.6631C13.3271 41.7449 13.4083 41.8266 13.3271 41.9901C13.3271 42.0718 13.246 42.0718 13.1649 42.0718C13.0838 42.0718 13.0838 42.0718 13.0027 42.0718ZM15.4361 41.9083C15.355 41.8266 15.4361 41.6631 15.5172 41.5814C15.5983 41.4997 15.7606 41.5814 15.8417 41.6631C15.9228 41.7449 15.8417 41.9083 15.7606 41.9901H15.6794C15.5172 42.0718 15.4361 41.99 15.4361 41.9083ZM11.9482 41.2545C11.8671 41.1727 11.786 41.091 11.8671 40.9275C11.9482 40.8458 12.1104 40.7641 12.1916 40.8458C12.2727 40.9275 12.3538 41.0093 12.2727 41.1727C12.1915 41.2545 12.1104 41.2545 12.1104 41.2545C12.0293 41.3362 12.0293 41.3362 11.9482 41.2545ZM16.4906 41.1727C16.4095 41.091 16.4906 40.9275 16.5717 40.8458C16.6528 40.7641 16.815 40.8458 16.8961 40.9275C16.9773 41.0093 16.8961 41.1727 16.815 41.2545H16.7339C16.5717 41.3362 16.4906 41.2545 16.4906 41.1727Z" fill="#B8814A"/>
<path d="M10.8932 41.0093C10.8121 41.0093 10.731 41.0092 10.731 40.9275C10.731 40.9275 10.6499 40.8458 10.6499 40.764C10.6499 40.6823 10.6499 40.6006 10.731 40.6006C10.8121 40.5189 10.9744 40.5189 11.0555 40.6006C11.0555 40.6006 11.1366 40.6823 11.1366 40.764C11.1366 40.8458 11.1366 40.9275 11.0555 40.9275C10.9744 41.0092 10.8932 41.0093 10.8932 41.0093Z" fill="#B8814A"/>
<path d="M21.4387 42.317C20.4653 42.317 20.0598 41.9084 19.5731 41.5814C19.1675 41.2545 18.7619 40.9276 17.9508 40.9276C17.8697 40.9276 17.7886 40.8458 17.7886 40.7641C17.7886 40.6824 17.8697 40.6007 17.9508 40.6007C18.9242 40.6007 19.3297 41.0093 19.8164 41.3362C20.222 41.6632 20.6276 41.9901 21.4387 41.9901C21.5198 41.9901 21.6009 42.0718 21.6009 42.1536C21.6009 42.2353 21.5198 42.317 21.4387 42.317Z" fill="#B8814A"/>
<path d="M10.8117 38.966C10.7306 38.966 10.7306 38.966 10.6495 38.8842C10.6495 38.8025 10.5684 38.8025 10.5684 38.7208C10.5684 38.639 10.5684 38.5573 10.6495 38.5573C10.7306 38.4756 10.8928 38.4756 10.9739 38.5573C11.055 38.5573 11.055 38.639 11.055 38.7208C11.055 38.8025 11.055 38.8842 10.9739 38.8842C10.9739 38.8842 10.8928 38.966 10.8117 38.966Z" fill="#B8814A"/>
<path d="M8.37881 39.865C8.2977 39.7833 8.37882 39.6198 8.45993 39.5381C8.54104 39.4564 8.70327 39.5381 8.78438 39.6199C8.8655 39.7016 8.78438 39.865 8.70327 39.9468H8.62216C8.45993 40.0285 8.37881 39.9468 8.37881 39.865ZM9.43329 39.1295C9.35218 39.0477 9.43329 38.8843 9.51441 38.8025C9.59552 38.7208 9.75775 38.8025 9.83886 38.8843C9.91998 38.966 9.83886 39.1295 9.75775 39.2112H9.67664C9.51441 39.2112 9.43329 39.2112 9.43329 39.1295Z" fill="#B8814A"/>
<path d="M7.32489 40.2737C7.24377 40.2737 7.24377 40.2737 7.16266 40.192C7.16266 40.192 7.08154 40.1103 7.08154 40.0285C7.08154 39.9468 7.08154 39.9468 7.16266 39.8651C7.24377 39.8651 7.24377 39.7833 7.32489 39.7833C7.406 39.7833 7.406 39.7833 7.48711 39.8651C7.56823 39.9468 7.56822 39.9468 7.56822 40.0285C7.56822 40.1103 7.56823 40.192 7.48711 40.192C7.48711 40.2737 7.406 40.2737 7.32489 40.2737Z" fill="#B8814A"/>
<path d="M14.3816 40.2737C13.4082 40.2737 13.0026 39.865 12.516 39.5381C12.1104 39.2112 11.7048 38.8843 10.8937 38.8843C10.8126 38.8843 10.7314 38.8025 10.7314 38.7208C10.7314 38.6391 10.8126 38.5573 10.8937 38.5573C11.867 38.5573 12.2726 38.966 12.7593 39.2929C13.1649 39.6199 13.5704 39.9468 14.3816 39.9468C15.1927 39.9468 15.5983 39.6199 16.0038 39.2929C16.4905 38.966 16.8961 38.5573 17.8695 38.5573C17.9506 38.5573 18.0317 38.6391 18.0317 38.7208C18.0317 38.8025 17.9506 38.8843 17.8695 38.8843C17.0583 38.8843 16.6528 39.2112 16.2472 39.5381C15.7605 39.865 15.3549 40.2737 14.3816 40.2737Z" fill="#B8814A"/>
<path d="M21.4382 40.2737C21.3571 40.2737 21.3571 40.2737 21.2759 40.192C21.1948 40.192 21.1948 40.1103 21.1948 40.0285C21.1948 39.9468 21.1948 39.9468 21.2759 39.8651C21.2759 39.8651 21.3571 39.7833 21.4382 39.7833C21.5193 39.7833 21.5193 39.7833 21.6004 39.8651C21.6004 39.9468 21.6815 39.9468 21.6815 40.0285C21.6815 40.1103 21.6815 40.192 21.6004 40.192C21.5193 40.2737 21.5193 40.2737 21.4382 40.2737Z" fill="#B8814A"/>
<path d="M20.0593 39.9468C19.9782 39.865 19.8971 39.7833 19.9782 39.6199C20.0593 39.5381 20.1404 39.4564 20.3027 39.5381C20.3838 39.6198 20.4649 39.7016 20.3838 39.865C20.3027 39.9468 20.2216 39.9468 20.2216 39.9468C20.1404 40.0285 20.1404 39.9468 20.0593 39.9468ZM19.0049 39.2112C18.9237 39.1295 18.8426 39.0477 18.9237 38.8843C19.0048 38.8025 19.086 38.7208 19.2482 38.8025C19.3293 38.8843 19.4104 38.966 19.3293 39.1295C19.3293 39.2112 19.2482 39.2112 19.1671 39.2112C19.086 39.2112 19.086 39.2112 19.0049 39.2112Z" fill="#B8814A"/>
<path d="M17.8693 38.9659C17.7882 38.9659 17.7882 38.9659 17.7071 38.8842C17.7071 38.8842 17.626 38.8025 17.626 38.7207C17.626 38.639 17.626 38.5573 17.7071 38.5573C17.7882 38.4756 17.9504 38.4756 18.0315 38.5573C18.0315 38.5573 18.1127 38.639 18.1127 38.7207C18.1127 38.8025 18.1127 38.8842 18.0315 38.8842C18.0315 38.8842 17.9504 38.9659 17.8693 38.9659Z" fill="#B8814A"/>
<path d="M7.32434 38.1486C7.24323 38.1486 7.16211 38.0669 7.16211 37.9851C7.16211 37.9034 7.24323 37.8217 7.32434 37.8217C8.13548 37.8217 8.54105 37.4947 8.94662 37.1678C9.4333 36.8409 9.83886 36.4322 10.8122 36.4322C10.8933 36.4322 10.9745 36.514 10.9745 36.5957C10.9745 36.6774 10.8933 36.7592 10.8122 36.7592C10.0011 36.7592 9.59552 37.0861 9.18995 37.413C8.78439 37.8217 8.29771 38.1486 7.32434 38.1486Z" fill="#B8814A"/>
<path d="M17.8693 36.8409C17.7882 36.8409 17.7882 36.8409 17.7071 36.7592C17.626 36.7592 17.626 36.6775 17.626 36.5957C17.626 36.514 17.626 36.4323 17.7071 36.4323C17.7882 36.3505 17.9504 36.3505 18.0315 36.4323C18.0315 36.4323 18.1127 36.514 18.1127 36.5957C18.1127 36.6775 18.1127 36.7592 18.0315 36.7592C18.0315 36.8409 17.9504 36.8409 17.8693 36.8409Z" fill="#B8814A"/>
<path d="M14.1383 37.9852C14.1383 37.8218 14.2194 37.74 14.3816 37.74C14.5438 37.74 14.625 37.8218 14.625 37.9852C14.625 38.1487 14.5438 38.2304 14.3816 38.2304C14.2194 38.2304 14.1383 38.1487 14.1383 37.9852ZM13.0027 37.9035C12.9216 37.8218 12.8405 37.74 12.9216 37.5766C13.0027 37.4948 13.0838 37.4131 13.246 37.4948C13.3271 37.5766 13.4083 37.6583 13.3271 37.8217C13.3271 37.9035 13.246 37.9852 13.1649 37.9852C13.0838 37.9035 13.0838 37.9035 13.0027 37.9035ZM15.4361 37.8217C15.355 37.74 15.4361 37.5766 15.5172 37.4948C15.5983 37.4131 15.7606 37.4948 15.8417 37.5766C15.9228 37.6583 15.8417 37.8218 15.7606 37.9035H15.6794C15.5172 37.9035 15.4361 37.8217 15.4361 37.8217ZM11.9482 37.1679C11.8671 37.0862 11.786 37.0044 11.8671 36.841C11.9482 36.7592 12.0293 36.6775 12.1916 36.7592C12.2727 36.841 12.3538 36.9227 12.2727 37.0862C12.1915 37.1679 12.1104 37.1679 12.1104 37.1679C12.0293 37.1679 12.0293 37.1679 11.9482 37.1679ZM16.4906 37.0044C16.4095 36.9227 16.4906 36.7592 16.5717 36.6775C16.6528 36.5958 16.815 36.6775 16.8961 36.7592C16.9773 36.841 16.8961 37.0044 16.815 37.0862H16.7339C16.5717 37.1679 16.4906 37.0862 16.4906 37.0044Z" fill="#B8814A"/>
<path d="M10.8122 36.8409C10.7311 36.8409 10.7311 36.8409 10.65 36.7592C10.65 36.7592 10.5688 36.6775 10.5688 36.5957C10.5688 36.514 10.5688 36.4323 10.65 36.4323C10.7311 36.3505 10.8933 36.3505 10.9744 36.4323C10.9744 36.4323 11.0555 36.514 11.0555 36.5957C11.0555 36.6775 11.0555 36.7592 10.9744 36.7592C10.9744 36.8409 10.8933 36.8409 10.8122 36.8409Z" fill="#B8814A"/>
<path d="M21.4387 38.1486C20.4653 38.1486 20.0598 37.7399 19.5731 37.413C19.1675 37.0861 18.7619 36.7592 17.9508 36.7592C17.8697 36.7592 17.7886 36.6774 17.7886 36.5957C17.7886 36.514 17.8697 36.4322 17.9508 36.4322C18.9242 36.4322 19.3297 36.8409 19.8164 37.1678C20.222 37.4947 20.6276 37.8217 21.4387 37.8217C21.5198 37.8217 21.6009 37.9034 21.6009 37.9851C21.6009 38.0669 21.5198 38.1486 21.4387 38.1486Z" fill="#B8814A"/>
<path d="M73.6755 42.317C72.7021 42.317 72.2966 41.9084 71.8099 41.5814C71.4043 41.2545 70.9988 40.9276 70.1876 40.9276C70.1065 40.9276 70.0254 40.8458 70.0254 40.7641C70.0254 40.6824 70.1065 40.6007 70.1876 40.6007C71.161 40.6007 71.5666 41.0093 72.0532 41.3362C72.4588 41.6632 72.8644 41.9901 73.6755 41.9901C73.7566 41.9901 73.8377 42.0718 73.8377 42.1536C73.9189 42.2353 73.8377 42.317 73.6755 42.317Z" fill="#B8814A"/>
<path d="M63.1306 41.0093C63.0494 41.0093 63.0494 41.0092 62.9683 40.9275C62.8872 40.9275 62.8872 40.8458 62.8872 40.764C62.8872 40.6823 62.8872 40.6006 62.9683 40.6006C63.0494 40.5189 63.2117 40.5189 63.2928 40.6006C63.2928 40.6006 63.3739 40.6823 63.3739 40.764C63.3739 40.8458 63.3739 40.9275 63.2928 40.9275C63.2928 41.0092 63.2117 41.0093 63.1306 41.0093Z" fill="#B8814A"/>
<path d="M66.6189 42.3987C66.4566 42.3987 66.3755 42.317 66.3755 42.1535C66.3755 41.9901 66.4566 41.9083 66.6189 41.9083C66.7811 41.9083 66.8622 41.9901 66.8622 42.1535C66.8622 42.2353 66.7811 42.3987 66.6189 42.3987ZM67.6733 41.9901C67.5922 41.9083 67.6733 41.7449 67.7545 41.6631C67.8356 41.5814 67.9978 41.6631 68.0789 41.7449C68.16 41.8266 68.0789 41.9901 67.9978 42.0718H67.9167C67.8356 42.0718 67.7545 42.0718 67.6733 41.9901ZM65.321 42.0718C65.2399 41.9901 65.1588 41.9083 65.2399 41.7449C65.321 41.6631 65.4022 41.5814 65.5644 41.6631C65.6455 41.7449 65.7266 41.8266 65.6455 41.9901C65.5644 42.0718 65.4833 42.0718 65.4833 42.0718C65.4022 42.0718 65.321 42.0718 65.321 42.0718ZM68.7278 41.2545C68.6467 41.1727 68.7278 41.0093 68.8089 40.9275C68.8901 40.8458 69.0523 40.9275 69.1334 41.0093C69.2145 41.091 69.1334 41.2545 69.0523 41.3362C68.9712 41.3362 68.9712 41.3362 68.9712 41.3362C68.89 41.3362 68.8089 41.2545 68.7278 41.2545ZM64.2666 41.2545C64.1855 41.1727 64.1043 41.091 64.1855 40.9275C64.2666 40.8458 64.3477 40.7641 64.5099 40.8458C64.591 40.9275 64.6721 41.0093 64.591 41.1727C64.591 41.2545 64.5099 41.2545 64.4288 41.2545C64.3477 41.3362 64.2666 41.3362 64.2666 41.2545Z" fill="#B8814A"/>
<path d="M70.1877 41.0092C70.1066 41.0092 70.1066 41.0092 70.0254 40.9275C69.9443 40.9275 69.9443 40.8458 69.9443 40.764C69.9443 40.6823 69.9443 40.6006 70.0254 40.6006C70.1066 40.5188 70.2688 40.5188 70.3499 40.6006C70.3499 40.6006 70.431 40.6823 70.431 40.764C70.431 40.8458 70.431 40.9275 70.3499 40.9275C70.3499 41.0092 70.2688 41.0092 70.1877 41.0092Z" fill="#B8814A"/>
<path d="M59.6437 42.317C59.5626 42.317 59.4814 42.2353 59.4814 42.1536C59.4814 42.0718 59.5626 41.9901 59.6437 41.9901C60.4548 41.9901 60.8604 41.6632 61.2659 41.3362C61.7526 41.0093 62.1582 40.6007 63.1316 40.6007C63.2127 40.6007 63.2938 40.6824 63.2938 40.7641C63.2938 40.8458 63.2127 40.9276 63.1316 40.9276C62.3204 40.9276 61.9149 41.2545 61.5093 41.5814C61.0226 41.9901 60.5359 42.317 59.6437 42.317Z" fill="#B8814A"/>
<path d="M70.1877 38.9659C70.1066 38.9659 70.1066 38.9659 70.0254 38.8842C69.9443 38.8025 69.9443 38.8025 69.9443 38.7207C69.9443 38.639 69.9443 38.5573 70.0254 38.5573C70.1066 38.4756 70.2688 38.4756 70.3499 38.5573C70.3499 38.5573 70.431 38.639 70.431 38.7207C70.431 38.8025 70.431 38.8842 70.3499 38.8842C70.2688 38.8842 70.2688 38.9659 70.1877 38.9659Z" fill="#B8814A"/>
<path d="M72.3777 39.9468C72.2966 39.865 72.2155 39.7833 72.2966 39.6199C72.3777 39.5381 72.4588 39.4564 72.621 39.5381C72.7021 39.6198 72.7833 39.7016 72.7021 39.865C72.621 39.9468 72.621 39.9468 72.5399 39.9468C72.4588 40.0285 72.3777 39.9468 72.3777 39.9468ZM71.3232 39.2112C71.2421 39.1295 71.161 39.0477 71.2421 38.8843C71.3232 38.8025 71.4043 38.7208 71.5666 38.8025C71.6477 38.8843 71.7288 38.966 71.6477 39.1295C71.6477 39.2112 71.5666 39.2112 71.4854 39.2112C71.4043 39.2112 71.3232 39.2112 71.3232 39.2112Z" fill="#B8814A"/>
<path d="M73.6755 40.2737C73.5944 40.2737 73.5944 40.2737 73.5132 40.1919C73.4321 40.1919 73.4321 40.1102 73.4321 40.0285C73.4321 39.9467 73.4321 39.9467 73.5132 39.865C73.5944 39.7833 73.7566 39.7833 73.8377 39.865C73.8377 39.865 73.9188 39.9467 73.9188 40.0285C73.9188 40.1102 73.9188 40.1919 73.8377 40.1919C73.8377 40.2737 73.7566 40.2737 73.6755 40.2737Z" fill="#B8814A"/>
<path d="M66.6999 40.2737C65.7266 40.2737 65.321 39.865 64.8343 39.5381C64.4287 39.2112 64.0232 38.8843 63.212 38.8843C63.1309 38.8843 63.0498 38.8025 63.0498 38.7208C63.0498 38.6391 63.1309 38.5573 63.212 38.5573C64.1854 38.5573 64.591 38.966 65.0776 39.2929C65.4832 39.6199 65.8888 39.9468 66.6999 39.9468C67.5111 39.9468 67.9166 39.6199 68.3222 39.2929C68.8089 38.966 69.2144 38.5573 70.1878 38.5573C70.2689 38.5573 70.35 38.6391 70.35 38.7208C70.35 38.8025 70.2689 38.8843 70.1878 38.8843C69.3767 38.8843 68.9711 39.2112 68.5655 39.5381C68.0788 39.865 67.5922 40.2737 66.6999 40.2737Z" fill="#B8814A"/>
<path d="M59.6427 40.2737C59.5616 40.2737 59.5616 40.2737 59.4805 40.1919C59.4805 40.1919 59.3994 40.1102 59.3994 40.0285C59.3994 39.9467 59.3994 39.9467 59.4805 39.865C59.5616 39.7833 59.7239 39.7833 59.805 39.865C59.805 39.9467 59.8861 39.9467 59.8861 40.0285C59.8861 40.1102 59.8861 40.1919 59.805 40.1919C59.7239 40.2737 59.6427 40.2737 59.6427 40.2737Z" fill="#B8814A"/>
<path d="M60.6156 39.865C60.5345 39.7833 60.6156 39.6198 60.6967 39.5381C60.7779 39.4564 60.9401 39.5381 61.0212 39.6199C61.1023 39.7016 61.0212 39.865 60.9401 39.9468H60.859C60.7778 40.0285 60.6967 39.9468 60.6156 39.865ZM61.6701 39.1295C61.589 39.0477 61.6701 38.8843 61.7512 38.8025C61.8323 38.7208 61.9946 38.8025 62.0757 38.8843C62.1568 38.966 62.0757 39.1295 61.9946 39.2112H61.9134C61.8323 39.2112 61.7512 39.2112 61.6701 39.1295Z" fill="#B8814A"/>
<path d="M63.1301 38.966C63.0489 38.966 63.049 38.966 62.9678 38.8842C62.9678 38.8842 62.8867 38.8025 62.8867 38.7208C62.8867 38.639 62.8867 38.5573 62.9678 38.5573C63.049 38.4756 63.2112 38.4756 63.2923 38.5573C63.2923 38.5573 63.3734 38.639 63.3734 38.7208C63.3734 38.8025 63.3734 38.8025 63.2923 38.8842C63.2923 38.8842 63.2112 38.966 63.1301 38.966Z" fill="#B8814A"/>
<path d="M73.6755 38.1486C72.7021 38.1486 72.2966 37.7399 71.8099 37.413C71.4043 37.0861 70.9988 36.7592 70.1876 36.7592C70.1065 36.7592 70.0254 36.6774 70.0254 36.5957C70.0254 36.514 70.1065 36.4322 70.1876 36.4322C71.161 36.4322 71.5666 36.8409 72.0532 37.1678C72.4588 37.4947 72.8644 37.8217 73.6755 37.8217C73.7566 37.8217 73.8377 37.9034 73.8377 37.9851C73.9189 38.0669 73.8377 38.1486 73.6755 38.1486Z" fill="#B8814A"/>
<path d="M63.1306 36.8409C63.0494 36.8409 63.0494 36.8409 62.9683 36.7592C62.8872 36.7592 62.8872 36.6775 62.8872 36.5957C62.8872 36.514 62.8872 36.4323 62.9683 36.4323C63.0494 36.3505 63.2117 36.3505 63.2928 36.4323C63.2928 36.4323 63.3739 36.514 63.3739 36.5957C63.3739 36.6775 63.3739 36.7592 63.2928 36.7592C63.2928 36.8409 63.2117 36.8409 63.1306 36.8409Z" fill="#B8814A"/>
<path d="M66.6189 38.2304C66.4566 38.2304 66.3755 38.1487 66.3755 37.9852C66.3755 37.8217 66.4566 37.74 66.6189 37.74C66.7811 37.74 66.8622 37.8217 66.8622 37.9852C66.8622 38.1487 66.7811 38.2304 66.6189 38.2304ZM67.6733 37.8217C67.5922 37.74 67.6733 37.5765 67.7545 37.4948C67.8356 37.4131 67.9978 37.4948 68.0789 37.5765C68.16 37.6583 68.0789 37.8217 67.9978 37.9035H67.9167C67.8356 37.9035 67.7545 37.8217 67.6733 37.8217ZM65.321 37.9035C65.2399 37.8217 65.1588 37.74 65.2399 37.5765C65.321 37.4948 65.4022 37.4131 65.5644 37.4948C65.6455 37.5765 65.7266 37.6583 65.6455 37.8217C65.5644 37.9035 65.4833 37.9035 65.4833 37.9035C65.4022 37.9035 65.321 37.9035 65.321 37.9035ZM68.7278 37.0861C68.6467 37.0044 68.7278 36.8409 68.8089 36.7592C68.8901 36.6775 69.0523 36.7592 69.1334 36.8409C69.2145 36.9227 69.1334 37.0861 69.0523 37.1679H68.9712C68.89 37.1679 68.8089 37.1679 68.7278 37.0861ZM64.2666 37.1679C64.1855 37.0861 64.1043 37.0044 64.1855 36.8409C64.2666 36.7592 64.3477 36.6775 64.5099 36.7592C64.591 36.8409 64.6721 36.9227 64.591 37.0861C64.591 37.1679 64.5099 37.1679 64.4288 37.1679C64.3477 37.1679 64.2666 37.1679 64.2666 37.1679Z" fill="#B8814A"/>
<path d="M70.1877 36.8409C70.1066 36.8409 70.1066 36.8409 70.0254 36.7592C69.9443 36.7592 69.9443 36.6775 69.9443 36.5957C69.9443 36.514 69.9443 36.4323 70.0254 36.4323C70.1066 36.3505 70.2688 36.3505 70.3499 36.4323C70.3499 36.4323 70.431 36.514 70.431 36.5957C70.431 36.6775 70.431 36.7592 70.3499 36.7592C70.2688 36.7592 70.2688 36.8409 70.1877 36.8409Z" fill="#B8814A"/>
<path d="M59.6437 38.1486C59.5626 38.1486 59.4814 38.0669 59.4814 37.9851C59.4814 37.9034 59.5626 37.8217 59.6437 37.8217C60.4548 37.8217 60.8604 37.4947 61.2659 37.1678C61.7526 36.8409 62.1582 36.4322 63.1316 36.4322C63.2127 36.4322 63.2938 36.514 63.2938 36.5957C63.2938 36.6774 63.2127 36.7592 63.1316 36.7592C62.3204 36.7592 61.9149 37.0861 61.5093 37.413C61.0226 37.8217 60.5359 38.1486 59.6437 38.1486Z" fill="#B8814A"/>
<path d="M40.5002 7.58084C40.338 7.58084 40.2568 7.4991 40.2568 7.33564V3.57595C40.2568 3.41249 40.338 3.33076 40.5002 3.33076C40.5813 3.33076 40.7435 3.41249 40.7435 3.57595V7.33564C40.7435 7.4991 40.6624 7.58084 40.5002 7.58084Z" fill="#B8814A"/>
<path d="M43.9069 6.43658C43.8258 6.43658 43.7447 6.35485 43.6636 6.27312L43.0146 3.98461C43.0146 3.90288 43.0147 3.73943 43.1769 3.73943C43.258 3.73943 43.4202 3.73942 43.4202 3.90289L44.0691 6.19139C44.1502 6.27313 44.0691 6.43658 43.9069 6.43658Z" fill="#B8814A"/>
<path d="M37.1745 6.43658C37.0123 6.43658 36.9312 6.27313 36.9312 6.19139L37.499 3.90289C37.499 3.73942 37.6612 3.73943 37.7423 3.73943C37.9045 3.73943 37.9045 3.90288 37.9045 3.98461L37.3367 6.27312C37.3367 6.43658 37.2556 6.43658 37.1745 6.43658Z" fill="#B8814A"/>
<path d="M46.0967 4.88367C46.0967 4.7202 46.1778 4.63847 46.2589 4.63847C46.34 4.63847 46.5022 4.7202 46.5022 4.80193C46.5022 4.88366 46.4211 5.04713 46.34 5.04713C46.1778 5.04713 46.0967 4.9654 46.0967 4.88367ZM47.5567 4.63847C47.5567 4.475 47.6378 4.39327 47.719 4.39327C47.8812 4.39327 47.9623 4.47501 47.9623 4.55674C47.9623 4.72021 47.8812 4.80193 47.8001 4.80193C47.8001 4.80193 47.8001 4.80193 47.719 4.80193C47.719 4.80193 47.5567 4.7202 47.5567 4.63847ZM49.0979 4.31154C49.0979 4.14808 49.179 4.06635 49.2601 4.06635C49.3412 4.06635 49.5035 4.14808 49.5035 4.22981C49.5035 4.39327 49.4223 4.47501 49.3412 4.47501C49.3412 4.47501 49.3412 4.47501 49.2601 4.47501C49.179 4.47501 49.0979 4.39328 49.0979 4.31154ZM50.5579 3.90288C50.5579 3.82115 50.5579 3.65768 50.7202 3.65768C50.8824 3.65768 50.9635 3.65768 50.9635 3.82115C50.9635 3.90288 50.8824 4.06635 50.8013 4.06635C50.8013 4.06635 50.8013 4.06635 50.7202 4.06635C50.639 4.14808 50.5579 4.06635 50.5579 3.90288ZM52.018 3.49422C51.9369 3.41249 52.018 3.24902 52.1802 3.24902C52.3424 3.24902 52.4236 3.24902 52.5047 3.41249C52.5858 3.49422 52.5047 3.65769 52.3424 3.73942H52.2613C52.0991 3.65769 52.018 3.65769 52.018 3.49422ZM53.478 3.08556C53.478 3.00383 53.478 2.84036 53.6403 2.75862C53.8025 2.67689 53.8836 2.75863 53.9647 2.9221C53.9647 3.00383 53.9647 3.16729 53.8025 3.24902H53.7214C53.5592 3.24902 53.478 3.16729 53.478 3.08556Z" fill="#D4D8E4"/>
<path d="M34.7409 5.04711C34.6598 5.04711 34.4976 4.88364 34.5787 4.80191C34.5787 4.63845 34.7409 4.55672 34.822 4.63845C34.9031 4.63845 35.0654 4.80192 34.9842 4.88365C34.9842 4.96538 34.822 5.04711 34.7409 5.04711ZM33.1997 4.80191C33.1186 4.80191 32.9564 4.63846 33.0375 4.55672C33.0375 4.47499 33.1997 4.39325 33.2809 4.39325C33.4431 4.39325 33.5242 4.55672 33.4431 4.63845C33.4431 4.72018 33.362 4.80191 33.1997 4.80191ZM31.7397 4.47499C31.6586 4.47499 31.5775 4.31152 31.5775 4.22979C31.5775 4.06632 31.7397 4.06633 31.8208 4.06633C31.9019 4.06633 31.983 4.22979 31.983 4.31152C31.983 4.39326 31.8208 4.47499 31.7397 4.47499ZM30.1985 4.06633C30.1174 4.06633 30.0363 3.90286 30.0363 3.82113C30.0363 3.65766 30.1985 3.65766 30.3608 3.65766C30.4419 3.65766 30.523 3.82113 30.523 3.90286C30.4419 4.06633 30.3608 4.14806 30.1985 4.06633C30.1985 4.14806 30.2797 4.14806 30.1985 4.06633ZM28.7385 3.65766C28.5763 3.65766 28.5763 3.4942 28.5763 3.33074C28.6574 3.24901 28.7385 3.16727 28.9007 3.16727C28.9818 3.16727 29.0629 3.33073 29.0629 3.41247C28.9818 3.65766 28.9007 3.65766 28.7385 3.65766C28.7385 3.65766 28.8196 3.65766 28.7385 3.65766ZM27.2784 3.16727C27.1162 3.08553 27.1162 3.00381 27.1162 2.84034C27.1973 2.67688 27.2784 2.67688 27.4407 2.67688C27.5218 2.67688 27.6029 2.84035 27.6029 2.92208C27.5218 3.16728 27.4407 3.249 27.2784 3.16727C27.3595 3.249 27.3595 3.249 27.2784 3.16727Z" fill="#D4D8E4"/>
<path d="M29.0632 66.8367C28.9821 66.8367 28.9821 66.7549 29.0632 66.8367C28.901 66.7549 28.8198 66.6732 28.901 66.5915L31.5777 59.9712C31.5777 59.8894 31.74 59.8077 31.8211 59.8894C31.9022 59.8894 31.9833 60.0529 31.9022 60.1346L29.2254 66.755C29.1443 66.755 29.1443 66.8367 29.0632 66.8367Z" fill="#B8814A"/>
<path d="M28.0898 64.9568L28.4143 64.7933L29.0632 66.5097L30.6855 65.6924L30.8477 66.0193L28.901 67.0001L28.0898 64.9568Z" fill="#B8814A"/>
<path d="M52.0182 66.8367C51.9371 66.8367 51.856 66.755 51.856 66.755L49.1792 60.0529C49.1792 59.9712 49.1792 59.8895 49.2603 59.8077C49.3414 59.8077 49.4225 59.8077 49.5036 59.8895L52.1804 66.5098C52.1804 66.6732 52.1804 66.755 52.0182 66.8367C52.0182 66.8367 52.0182 66.755 52.0182 66.8367Z" fill="#B8814A"/>
<path d="M50.1528 66.0194L50.3151 65.6924L51.9373 66.5098L52.5862 64.7934L52.9107 64.9569L52.1807 67.0002L50.1528 66.0194Z" fill="#B8814A"/>
<path d="M73.6756 29.7302C73.5945 29.7302 73.5945 29.7302 73.6756 29.7302L65.8076 26.7878C65.7265 26.7878 65.6454 26.6243 65.7265 26.5426C65.7265 26.4609 65.8887 26.3791 65.9698 26.4609L73.8378 29.4032C73.919 29.4032 74.0001 29.5667 73.919 29.6484C73.7567 29.6484 73.7567 29.7302 73.6756 29.7302Z" fill="#B8814A"/>
<path d="M71.9722 30.4657L71.8911 30.1388L73.5134 29.4849L72.7023 27.8503L73.0267 27.6868L74.0001 29.6484L71.9722 30.4657Z" fill="#B8814A"/>
<path d="M7.40539 29.7302C7.32428 29.7302 7.24316 29.6485 7.24316 29.6485C7.24316 29.5668 7.24316 29.485 7.32428 29.4033L15.1923 26.4609C15.2734 26.4609 15.3545 26.4609 15.4357 26.5427C15.4357 26.6244 15.4357 26.7061 15.3545 26.7879L7.40539 29.7302Z" fill="#B8814A"/>
<path d="M7.97336 27.6869L8.37893 27.8504L7.56779 29.485L9.19007 30.1389L9.02784 30.4658L7 29.6485L7.97336 27.6869Z" fill="#B8814A"/>
<path d="M39.1213 64.9568C38.9591 64.9568 38.7968 64.7933 38.7968 64.6299C38.7968 63.8943 38.5535 63.5673 38.229 63.1587C37.9046 62.75 37.499 62.2596 37.499 61.2788C37.499 61.1154 37.6612 60.9519 37.8235 60.9519C37.9857 60.9519 38.1479 61.1154 38.1479 61.2788C38.1479 62.0144 38.3913 62.3413 38.7157 62.75C39.0402 63.1587 39.4457 63.6491 39.4457 64.6299C39.4457 64.8751 39.2835 64.9568 39.1213 64.9568Z" fill="white"/>
<path d="M41.8786 64.9568C41.7164 64.9568 41.5542 64.7933 41.5542 64.6299C41.5542 63.6491 41.9598 63.1587 42.2842 62.75C42.6087 62.3413 42.852 62.0144 42.852 61.2788C42.852 61.1154 43.0142 60.9519 43.1765 60.9519C43.3387 60.9519 43.5009 61.1154 43.5009 61.2788C43.5009 62.2596 43.0954 62.75 42.7709 63.1587C42.4465 63.5673 42.2031 63.8943 42.2031 64.6299C42.2031 64.8751 42.122 64.9568 41.8786 64.9568Z" fill="white"/>
<path d="M40.4998 65.9375C40.3375 65.9375 40.1753 65.7741 40.1753 65.6106V61.8509C40.1753 61.6875 40.3375 61.524 40.4998 61.524C40.662 61.524 40.8242 61.6875 40.8242 61.8509V65.6106C40.8242 65.7741 40.662 65.9375 40.4998 65.9375Z" fill="white"/>
<path d="M70.1065 16.5713C70.1065 16.5713 70.0254 16.5713 70.1065 16.5713L67.9975 15.5905C67.9164 15.5088 67.8353 15.4271 67.9164 15.3453C67.9975 15.2636 68.0786 15.1819 68.1597 15.2636L70.1876 16.2444C70.2687 16.3261 70.3498 16.4078 70.2687 16.4896C70.2687 16.5713 70.1876 16.5713 70.1065 16.5713Z" fill="#B8814A"/>
<path d="M68.2408 19.2684C68.1597 19.2684 68.1597 19.2684 68.1597 19.1867L66.4563 17.7155C66.3752 17.6338 66.3752 17.5521 66.4563 17.4703C66.5375 17.3886 66.6186 17.3886 66.6997 17.4703L68.4031 18.9415C68.4842 19.0232 68.4842 19.105 68.4031 19.1867C68.4031 19.2684 68.322 19.2684 68.2408 19.2684Z" fill="#B8814A"/>
<path d="M65.8076 21.3935C65.7264 21.3935 65.7264 21.3936 65.6453 21.3118L64.4286 19.432C64.3475 19.3502 64.4286 19.2685 64.5097 19.1868C64.5908 19.105 64.672 19.1868 64.7531 19.2685L65.9698 21.1483C66.0509 21.2301 65.9698 21.3118 65.8887 21.3935C65.8887 21.3935 65.8076 21.3935 65.8076 21.3935Z" fill="#B8814A"/>
<path d="M62.8874 22.783C62.8062 22.783 62.7251 22.7013 62.7251 22.6195L61.9951 20.4945C61.9951 20.4128 61.9951 20.331 62.0762 20.2493C62.1573 20.2493 62.2385 20.2493 62.3196 20.331L63.0496 22.4561C63.0496 22.7013 63.0496 22.783 62.8874 22.783Z" fill="#B8814A"/>
<path d="M10.8936 16.5713C10.8125 16.5713 10.7314 16.5713 10.7314 16.4896C10.6502 16.4078 10.7314 16.3261 10.8125 16.2444L12.8403 15.2636C12.9214 15.1819 13.0025 15.2636 13.0837 15.3453C13.1648 15.4271 13.0837 15.5088 13.0025 15.5905L10.8936 16.5713C10.9747 16.5713 10.9747 16.5713 10.8936 16.5713Z" fill="#B8814A"/>
<path d="M12.7597 19.2684C12.6786 19.2684 12.6786 19.2684 12.5975 19.1867C12.5163 19.105 12.5163 19.0232 12.5975 18.9415L14.3008 17.4703C14.382 17.3886 14.4631 17.3886 14.5442 17.4703C14.6253 17.5521 14.6253 17.6338 14.5442 17.7155L12.8408 19.1867C12.8408 19.2684 12.8408 19.2684 12.7597 19.2684Z" fill="#B8814A"/>
<path d="M15.2736 21.3935H15.1924C15.1113 21.3118 15.1113 21.2301 15.1113 21.1483L16.328 19.2685C16.4091 19.1868 16.4903 19.1868 16.5714 19.1868C16.6525 19.2685 16.6525 19.3502 16.6525 19.432L15.4358 21.3118C15.3547 21.3935 15.2736 21.3935 15.2736 21.3935Z" fill="#B8814A"/>
<path d="M18.1936 22.7829C18.1124 22.7829 18.1124 22.7829 18.1936 22.7829C18.0313 22.7829 17.9502 22.6195 18.0313 22.5377L18.7614 20.4127C18.7614 20.3309 18.9236 20.2492 19.0047 20.3309C19.0858 20.3309 19.1669 20.4944 19.0858 20.5761L18.3558 22.7012C18.2747 22.7829 18.2747 22.7829 18.1936 22.7829Z" fill="#B8814A"/>
</g>
<defs>
<clipPath id="clip0">
<rect width="80" height="67" fill="white"/>
</clipPath>
</defs>
</svg>
