<svg width="80" height="67" viewBox="0 0 80 67" fill="none" xmlns="http://www.w3.org/2000/svg">
<g clip-path="url(#clip0)">
<path d="M2.56577 45.5332C2.47413 45.5332 2.3825 45.5332 2.29086 45.4493C2.19922 45.3655 2.19922 45.2816 2.19922 45.1978C2.19922 45.1139 2.19922 45.03 2.29086 44.9462C2.3825 44.8623 2.65741 44.8623 2.74905 44.9462C2.84069 45.03 2.84069 45.1139 2.84069 45.1978C2.84069 45.2816 2.84069 45.3655 2.74905 45.4493C2.74905 45.5332 2.65741 45.5332 2.56577 45.5332Z" fill="white"/>
<path d="M15.7615 56.8536C15.7615 56.6859 15.8531 56.5182 16.1281 56.5182C16.3113 56.5182 16.4946 56.6859 16.4946 56.7697C16.4946 56.9374 16.403 57.1051 16.1281 57.1051C15.9448 57.1051 15.7615 57.0213 15.7615 56.8536ZM14.3869 57.1051C14.2037 57.1051 14.0204 56.9374 14.112 56.7697C14.112 56.602 14.2953 56.4343 14.4786 56.5182C14.6618 56.5182 14.8451 56.6859 14.8451 56.8536C14.7535 57.0213 14.5702 57.1051 14.3869 57.1051ZM17.5026 56.6859C17.5026 56.5182 17.5943 56.3504 17.7775 56.3504C17.9608 56.3504 18.1441 56.4343 18.2357 56.602C18.2357 56.7697 18.1441 56.9374 17.9608 56.9374C17.9608 56.9374 17.9608 56.9374 17.8692 56.9374C17.6859 56.9374 17.5026 56.8536 17.5026 56.6859ZM12.6458 56.9374C12.4625 56.8536 12.3709 56.7697 12.3709 56.5182C12.3709 56.3504 12.5542 56.2666 12.7374 56.2666C12.9207 56.2666 13.0124 56.4343 13.0124 56.6859C13.0124 56.8536 12.8291 56.9374 12.6458 56.9374ZM19.1521 56.2666C19.0605 56.0989 19.1521 55.9312 19.3354 55.8473C19.5187 55.7635 19.7019 55.8473 19.7936 56.015C19.8852 56.1827 19.7936 56.3504 19.6103 56.4343H19.5187C19.3354 56.5182 19.2437 56.4343 19.1521 56.2666ZM10.9047 56.4343C10.7214 56.3504 10.6298 56.1827 10.7214 56.015C10.813 55.8473 10.9963 55.7635 11.1796 55.8473C11.3629 55.9312 11.4545 56.0989 11.3629 56.2666C11.3629 56.3504 11.1796 56.4343 11.088 56.4343C10.9963 56.5182 10.9047 56.5182 10.9047 56.4343ZM20.8016 55.6796C20.71 55.5119 20.8016 55.3442 20.9849 55.2603C21.1682 55.1765 21.3514 55.2603 21.4431 55.428C21.5347 55.5958 21.4431 55.7635 21.2598 55.8473C21.1682 55.8473 21.1682 55.8473 21.0765 55.8473C20.9849 55.8473 20.8016 55.8473 20.8016 55.6796ZM9.25519 55.8473C9.07191 55.7635 8.98027 55.5958 9.07191 55.428C9.16355 55.2603 9.34683 55.1765 9.5301 55.2603C9.71338 55.3442 9.71338 55.5119 9.62174 55.6796C9.5301 55.7635 9.43846 55.8473 9.34683 55.8473C9.34683 55.8473 9.34683 55.8473 9.25519 55.8473ZM22.2678 54.9249C22.1762 54.7572 22.1762 54.5895 22.3594 54.5056C22.5427 54.4218 22.726 54.4218 22.8176 54.5895C22.9093 54.7572 22.9093 54.9249 22.726 55.0088C22.6344 55.0926 22.6344 55.0926 22.5427 55.0926C22.4511 55.0088 22.3594 55.0088 22.2678 54.9249ZM7.78898 55.0088C7.6057 54.9249 7.6057 54.7572 7.69734 54.5895C7.78898 54.4218 8.06389 54.4218 8.15553 54.5056C8.33881 54.5895 8.33881 54.8411 8.24717 54.9249C8.15553 55.0088 8.06389 55.0926 7.97225 55.0926C7.88062 55.0088 7.78898 55.0088 7.78898 55.0088ZM23.6424 53.9187C23.5507 53.7509 23.5507 53.5832 23.6424 53.4994C23.734 53.4155 24.0089 53.4155 24.1006 53.4994C24.1922 53.6671 24.1922 53.8348 24.1006 53.9187C24.0089 54.0025 23.9173 54.0025 23.8257 54.0025C23.8257 54.0864 23.734 54.0025 23.6424 53.9187ZM6.4144 53.9187C6.23113 53.8348 6.23113 53.5832 6.4144 53.4994C6.50604 53.4155 6.78096 53.3317 6.8726 53.4994C6.96423 53.5832 7.05587 53.8348 6.8726 53.9187C6.78096 54.0025 6.68932 54.0025 6.59768 54.0025C6.50604 54.0025 6.4144 54.0025 6.4144 53.9187ZM24.8337 52.8285C24.6504 52.7447 24.6504 52.4931 24.8337 52.4093C24.9253 52.2416 25.2002 52.2416 25.2919 52.4093C25.4751 52.4931 25.4751 52.7447 25.2919 52.8285C25.2002 52.9124 25.1086 52.9124 25.017 52.9124C25.017 52.9124 24.9253 52.8285 24.8337 52.8285ZM5.13147 52.7447C5.03983 52.577 5.03983 52.4093 5.22311 52.3254C5.40638 52.2416 5.58966 52.2416 5.6813 52.4093C5.77294 52.577 5.77294 52.7447 5.6813 52.8285C5.58966 52.9124 5.58966 52.9124 5.49802 52.9124C5.31475 52.9124 5.22311 52.8285 5.13147 52.7447ZM25.9333 51.5707C25.7501 51.4869 25.7501 51.3192 25.8417 51.1514C25.9333 50.9837 26.1166 50.9837 26.2999 51.0676C26.4832 51.1514 26.4832 51.3192 26.3915 51.4869C26.2999 51.5707 26.2083 51.6546 26.1166 51.6546C26.025 51.5707 25.9333 51.5707 25.9333 51.5707ZM4.12345 51.403C4.03181 51.2353 4.03181 51.0676 4.21509 50.9837C4.39836 50.8999 4.58164 50.9837 4.67328 51.0676C4.76492 51.2353 4.67328 51.403 4.58164 51.4869C4.49 51.4869 4.49 51.4869 4.39836 51.4869C4.30673 51.5707 4.21509 51.5707 4.12345 51.403ZM26.7581 50.1452C26.5748 50.1452 26.4832 49.8936 26.5748 49.7259C26.6664 49.5582 26.8497 49.4743 27.033 49.5582C27.2163 49.6421 27.3079 49.8098 27.2163 49.9775C27.1246 50.0613 27.033 50.1452 26.9414 50.1452C26.8497 50.229 26.7581 50.229 26.7581 50.1452ZM3.29871 49.9775C3.20707 49.8098 3.29871 49.6421 3.48198 49.5582C3.66526 49.4743 3.84854 49.5582 3.94017 49.7259C4.03181 49.8936 3.94017 50.0613 3.7569 50.1452H3.66526C3.48198 50.1452 3.39034 50.1452 3.29871 49.9775ZM27.3995 48.7197C27.2163 48.6358 27.1246 48.4681 27.2163 48.3004C27.2163 48.1327 27.4912 48.0488 27.6745 48.0488C27.8577 48.1327 27.9494 48.3004 27.9494 48.4681C27.8577 48.6358 27.7661 48.7197 27.5828 48.7197C27.3995 48.7197 27.3995 48.7197 27.3995 48.7197ZM2.74888 48.4681C2.65724 48.3004 2.84052 48.1327 3.02379 48.0488C3.20707 48.0488 3.39034 48.1327 3.48198 48.3004C3.57362 48.4681 3.39034 48.6358 3.29871 48.7197H3.20707C2.93215 48.7197 2.74888 48.6358 2.74888 48.4681ZM27.7661 47.1264C27.5828 47.1264 27.3995 46.9587 27.4912 46.791C27.4912 46.6233 27.6745 46.5394 27.8577 46.5394C28.041 46.5394 28.2243 46.7071 28.1327 46.8748C28.1327 47.0426 27.9494 47.1264 27.7661 47.1264ZM2.38232 46.8748C2.38232 46.7071 2.47396 46.5394 2.65724 46.5394C2.84052 46.5394 3.02379 46.6233 3.02379 46.791C3.02379 46.9587 2.93215 47.1264 2.74888 47.1264C2.5656 47.1264 2.38232 47.0426 2.38232 46.8748Z" fill="white"/>
<path d="M27.9496 45.5332C27.8579 45.5332 27.7663 45.5332 27.6746 45.4493C27.583 45.3655 27.583 45.2816 27.583 45.2816C27.583 45.1978 27.583 45.1139 27.6746 45.0301C27.7663 44.9462 28.0412 44.9462 28.1328 45.0301C28.2245 45.1139 28.2245 45.1978 28.2245 45.2816C28.2245 45.3655 28.2245 45.4493 28.1328 45.5332C28.1328 45.5332 28.0412 45.5332 27.9496 45.5332Z" fill="white"/>
<path d="M6.78126 35.1352C6.68962 35.1352 6.68962 35.1352 6.59799 35.0513C6.50635 35.0513 6.50635 34.9675 6.50635 34.8836C6.50635 34.7998 6.50635 34.7998 6.59799 34.7159C6.59799 34.7159 6.68962 34.632 6.78126 34.632C6.8729 34.632 6.96454 34.632 6.96454 34.7159C6.96454 34.7159 7.05618 34.7998 7.05618 34.8836C7.05618 34.9675 7.05618 35.0513 6.96454 35.0513C6.8729 35.0513 6.78126 35.1352 6.78126 35.1352Z" fill="#B8814A"/>
<path d="M7.23943 33.6258C7.14779 33.6258 7.05615 33.4581 7.05615 33.2904C7.14779 33.1227 7.23943 33.1227 7.42271 33.1227C7.51434 33.2066 7.60598 33.2904 7.60598 33.4581C7.60598 33.542 7.42271 33.6258 7.33107 33.6258C7.33107 33.6258 7.23943 33.6258 7.23943 33.6258ZM7.78926 32.1165C7.69762 32.1165 7.60598 31.9487 7.60598 31.781C7.69762 31.6972 7.8809 31.6972 7.97253 31.6972C8.06417 31.6972 8.15581 31.8649 8.15581 32.0326C8.06417 32.1165 7.97253 32.2003 7.78926 32.1165C7.78926 32.1165 7.8809 32.2003 7.78926 32.1165ZM8.33909 30.6909C8.24745 30.6909 8.15581 30.5232 8.15581 30.3555C8.24745 30.2716 8.33909 30.1878 8.52236 30.1878C8.614 30.1878 8.70564 30.3555 8.70564 30.5232C8.70564 30.6071 8.614 30.6909 8.43073 30.6909C8.43073 30.6909 8.43073 30.6909 8.33909 30.6909ZM8.88892 29.1815C8.79728 29.0977 8.70564 29.0138 8.70564 28.8461C8.70564 28.6784 8.88892 28.6784 9.07219 28.6784C9.16383 28.6784 9.25547 28.8461 9.25547 28.93C9.25547 29.1815 9.16383 29.1815 8.88892 29.1815C8.98055 29.1815 8.98055 29.1815 8.88892 29.1815Z" fill="#B8814A"/>
<path d="M9.62208 27.756C9.53044 27.756 9.53044 27.756 9.43881 27.6721C9.34717 27.6721 9.34717 27.5883 9.34717 27.5044C9.34717 27.4206 9.34717 27.3367 9.43881 27.3367C9.53044 27.2528 9.71372 27.2528 9.80536 27.3367C9.80536 27.4205 9.897 27.4206 9.897 27.5044C9.897 27.5883 9.897 27.6721 9.80536 27.6721C9.71372 27.756 9.62208 27.756 9.62208 27.756Z" fill="#B8814A"/>
<path d="M25.659 45.5332C25.5674 45.5332 25.4758 45.5332 25.3841 45.4493C25.2925 45.3655 25.2925 45.2816 25.2925 45.1978C25.2925 45.1139 25.2925 45.03 25.3841 44.9462C25.4758 44.8623 25.7507 44.8623 25.8423 44.9462C25.9339 45.03 25.9339 45.1139 25.9339 45.1978C25.9339 45.2816 25.9339 45.3655 25.8423 45.4493C25.8423 45.5332 25.7507 45.5332 25.659 45.5332Z" fill="white"/>
<path d="M24.7426 43.856C24.6509 43.6883 24.7426 43.5206 24.9259 43.4368C25.1091 43.3529 25.2924 43.4368 25.384 43.6045C25.4757 43.7722 25.384 43.9399 25.2008 44.0238H25.1091C24.9259 44.1076 24.8342 44.0238 24.7426 43.856ZM24.1927 42.3467C24.1011 42.179 24.1928 42.0112 24.376 41.9274C24.5593 41.8435 24.7426 41.9274 24.8342 42.0951C24.9259 42.2628 24.8342 42.4305 24.6509 42.5144H24.5593C24.376 42.5982 24.1927 42.5144 24.1927 42.3467ZM23.6429 40.9211C23.5513 40.7534 23.6429 40.5857 23.8262 40.5019C24.0095 40.418 24.1928 40.5019 24.2844 40.6696C24.376 40.8373 24.2844 41.005 24.1011 41.0888H24.0095C23.8262 41.0888 23.6429 41.005 23.6429 40.9211ZM23.0015 39.4117C22.9098 39.244 23.0015 39.0763 23.1847 38.9925C23.368 38.9086 23.5513 38.9925 23.6429 39.1602C23.7346 39.3279 23.6429 39.4956 23.4596 39.5795H23.368C23.1847 39.5795 23.0931 39.4956 23.0015 39.4117ZM22.4516 37.9024C22.36 37.7346 22.4516 37.5669 22.6349 37.4831C22.8182 37.3992 23.0015 37.4831 23.0931 37.6508C23.1847 37.8185 23.0931 37.9862 22.9098 38.0701H22.8182C22.6349 38.1539 22.4516 38.0701 22.4516 37.9024ZM21.9018 36.393C21.8102 36.2253 21.9018 36.0575 22.0851 35.9737C22.2683 35.8898 22.4516 35.9737 22.5433 36.1414C22.6349 36.3091 22.5433 36.4768 22.36 36.5607H22.2683C22.0851 36.6445 21.9018 36.5607 21.9018 36.393ZM21.2603 34.9674C21.1687 34.7997 21.2603 34.632 21.4436 34.5482C21.6269 34.4643 21.8102 34.5482 21.9018 34.7159C21.9934 34.8836 21.9018 35.0513 21.7185 35.1351H21.6269C21.4436 35.1351 21.352 35.0513 21.2603 34.9674ZM20.7105 33.4581C20.6189 33.2903 20.7105 33.1226 20.8938 33.0388C21.0771 32.9549 21.2603 33.0388 21.352 33.2065C21.4436 33.3742 21.352 33.5419 21.1687 33.6258H21.0771C20.8938 33.6258 20.8021 33.5419 20.7105 33.4581ZM20.1607 31.9487C20.069 31.781 20.1607 31.6132 20.3439 31.5294C20.5272 31.4455 20.7105 31.5294 20.8021 31.6971C20.8938 31.8648 20.8021 32.0325 20.6189 32.1164H20.5272C20.3439 32.2002 20.1607 32.1164 20.1607 31.9487ZM19.5192 30.4393C19.4276 30.2716 19.5192 30.1039 19.7025 30.02C19.8858 29.9361 20.069 30.02 20.1607 30.1877C20.2523 30.3554 20.1607 30.5231 19.9774 30.607H19.8858C19.7025 30.6908 19.6108 30.607 19.5192 30.4393ZM18.9694 29.0137C18.8777 28.846 18.9694 28.6783 19.1526 28.5945C19.3359 28.5106 19.5192 28.5945 19.6108 28.7622C19.7025 28.9299 19.6108 29.0976 19.4276 29.1815H19.3359C19.1527 29.1815 19.061 29.0976 18.9694 29.0137ZM18.4195 27.5044C18.3279 27.3367 18.4195 27.1689 18.6028 27.0851C18.7861 27.0012 18.9694 27.0851 19.061 27.2528C19.1526 27.4205 19.061 27.5882 18.8777 27.6721H18.7861C18.6028 27.6721 18.4195 27.6721 18.4195 27.5044ZM17.8697 25.995C17.7781 25.8273 17.8697 25.6596 18.053 25.5757C18.2363 25.4918 18.4195 25.5757 18.5112 25.7434C18.6028 25.9111 18.5112 26.0788 18.3279 26.1627H18.2363C18.053 26.2465 17.8697 26.1627 17.8697 25.995ZM17.2282 24.5694C17.1366 24.4017 17.2282 24.234 17.4115 24.1502C17.5948 24.0663 17.7781 24.1502 17.8697 24.3179C17.9614 24.4856 17.8697 24.6533 17.6864 24.7372H17.5948C17.4115 24.7372 17.3199 24.6533 17.2282 24.5694ZM16.6784 23.0601C16.5868 22.8923 16.6784 22.7246 16.8617 22.6408C17.045 22.5569 17.2282 22.6408 17.3199 22.8085C17.4115 22.9762 17.3199 23.1439 17.1366 23.2278H17.045C16.8617 23.2278 16.7701 23.1439 16.6784 23.0601ZM16.1286 21.5507C16.037 21.383 16.1286 21.2152 16.3119 21.1314C16.4951 21.0475 16.6784 21.1314 16.7701 21.2991C16.8617 21.4668 16.7701 21.6345 16.5868 21.7184H16.4951C16.3119 21.8022 16.1286 21.6345 16.1286 21.5507ZM15.4871 20.0413C15.3955 19.8736 15.4871 19.7059 15.6704 19.622C15.8537 19.5382 16.037 19.622 16.1286 19.7897C16.2202 19.9574 16.1286 20.1251 15.9453 20.209H15.8537C15.6704 20.2928 15.5788 20.209 15.4871 20.0413Z" fill="white"/>
<path d="M15.3036 18.7835C15.2119 18.7835 15.1203 18.7835 15.0287 18.6996C14.937 18.6158 14.937 18.5319 14.937 18.4481C14.937 18.3642 14.937 18.2804 15.0287 18.1965C15.1203 18.1126 15.3952 18.1126 15.4868 18.1965C15.5785 18.2804 15.5785 18.3642 15.5785 18.4481C15.5785 18.5319 15.5785 18.6158 15.4868 18.6996C15.4868 18.7835 15.3952 18.7835 15.3036 18.7835Z" fill="white"/>
<path d="M15.3037 55.0926C9.34722 55.0926 4.58203 50.6483 4.58203 45.2816C4.58203 45.1139 4.76531 44.9462 4.94858 44.9462C5.13186 44.9462 5.31514 45.1139 5.31514 45.2816C5.31514 50.3129 9.80541 54.5056 15.3953 54.5056C15.5786 54.5056 15.7619 54.6733 15.7619 54.841C15.5786 54.9249 15.487 55.0926 15.3037 55.0926Z" fill="white"/>
<path d="M15.3036 52.6608C15.1203 52.6608 14.937 52.4931 14.937 52.3254C14.937 52.1577 15.1203 51.99 15.3036 51.99C19.3356 51.99 22.543 49.1389 22.7263 45.5331H20.9851C20.8019 45.5331 20.6186 45.3654 20.6186 45.1977C20.6186 45.03 20.8019 44.8623 20.9851 44.8623H23.0928C23.2761 44.8623 23.4594 45.03 23.4594 45.1977C23.3677 49.3905 19.7938 52.6608 15.3036 52.6608Z" fill="white"/>
<path d="M15.0288 52.6608C14.8456 52.6608 14.6623 52.4931 14.6623 52.3254C14.6623 52.1577 14.8456 51.99 15.0288 51.99C15.2121 51.99 15.3954 52.1577 15.3954 52.3254C15.3954 52.577 15.2121 52.6608 15.0288 52.6608ZM13.2877 52.4931C13.1044 52.4931 13.0128 52.2415 13.0128 52.0738C13.0128 51.9061 13.2877 51.8223 13.471 51.8223C13.6543 51.8223 13.7459 52.0738 13.7459 52.2415C13.6543 52.4092 13.471 52.4931 13.2877 52.4931ZM11.6382 51.9061C11.4549 51.8223 11.3633 51.6546 11.4549 51.4868C11.5466 51.3191 11.7299 51.2353 11.9131 51.3191C12.0964 51.403 12.188 51.5707 12.0964 51.7384C12.0048 51.8223 11.9131 51.9061 11.8215 51.9061C11.7299 51.9061 11.6382 51.9061 11.6382 51.9061ZM10.0804 50.9837C9.89709 50.8999 9.89709 50.6483 9.98873 50.5644C10.0804 50.3967 10.3553 50.3967 10.4469 50.5644C10.5386 50.6483 10.6302 50.8999 10.4469 50.9837C10.3553 51.0676 10.2636 51.0676 10.172 51.0676C10.2636 51.0676 10.172 51.0676 10.0804 50.9837ZM8.88907 49.8097C8.79744 49.642 8.79744 49.4743 8.98071 49.3905C9.16399 49.3066 9.34727 49.3066 9.4389 49.4743C9.53054 49.642 9.53054 49.8097 9.34727 49.8936C9.25563 49.9775 9.25563 49.9775 9.16399 49.9775C8.98071 49.9775 8.88907 49.8936 8.88907 49.8097ZM7.88105 48.4681C7.78942 48.3004 7.88105 48.1327 8.06433 48.0488C8.24761 47.9649 8.43088 48.0488 8.52252 48.2165C8.61416 48.3842 8.52252 48.5519 8.33925 48.6358C8.33925 48.6358 8.24761 48.6358 8.15597 48.6358C8.06433 48.6358 7.97269 48.5519 7.88105 48.4681ZM7.33123 46.8748C7.23959 46.7071 7.42286 46.5394 7.60614 46.4556C7.78942 46.4556 7.97269 46.5394 8.06433 46.7071C8.06433 46.8748 7.97269 47.0425 7.78942 47.0425H7.69778C7.5145 47.1264 7.33123 47.0425 7.33123 46.8748ZM7.14795 45.2816C7.14795 45.1139 7.33123 44.9462 7.5145 44.9462C7.69778 44.9462 7.88105 45.1139 7.88105 45.2816C7.88105 45.4493 7.69778 45.617 7.5145 45.617C7.33123 45.5332 7.14795 45.4493 7.14795 45.2816Z" fill="white"/>
<path d="M4.85676 45.5331H4.76512C4.58185 45.4493 4.49021 45.2816 4.58185 45.1139L14.937 18.3642C15.0286 18.1965 15.2119 18.1126 15.3952 18.1965C15.5784 18.2803 15.6701 18.448 15.5784 18.6157L5.22332 45.3654C5.13168 45.4493 5.04004 45.5331 4.85676 45.5331Z" fill="white"/>
<path d="M15.4871 50.4806C12.2797 50.4806 9.71387 48.1327 9.71387 45.1978H10.447C10.447 47.7134 12.7379 49.8098 15.4871 49.8098C18.2362 49.8098 20.5272 47.7134 20.5272 45.1978H21.2603C21.2603 48.1327 18.6944 50.4806 15.4871 50.4806Z" fill="white"/>
<path d="M15.3036 59.2015C6.87286 59.2015 0 52.9962 0 45.2816C0 45.1139 0.183276 44.9462 0.366553 44.9462H18.5109C18.6942 44.9462 18.8775 45.1139 18.8775 45.2816C18.8775 45.4493 18.6942 45.617 18.5109 45.617H0.733105C0.916382 52.7447 7.33106 58.6145 15.3036 58.6145C23.3677 58.6145 29.874 52.6608 29.874 45.2816C29.874 45.1139 30.0573 44.9462 30.2406 44.9462C30.4239 44.9462 30.6072 45.1139 30.6072 45.2816C30.5155 52.9962 23.7343 59.2015 15.3036 59.2015Z" fill="white"/>
<path d="M15.3037 20.5444C14.0207 20.5444 13.0127 19.622 13.0127 18.4481C13.0127 18.2804 13.196 18.1127 13.3792 18.1127C13.5625 18.1127 13.7458 18.2804 13.7458 18.4481C13.7458 19.2866 14.4789 19.9575 15.3953 19.9575C16.3117 19.9575 17.0448 19.2866 17.0448 18.4481C17.0448 17.7772 16.6782 17.5257 16.22 17.1903C15.7618 16.8548 15.1204 16.3517 15.1204 15.4293V13.5006C15.1204 13.3329 15.3036 13.1652 15.4869 13.1652C15.6702 13.1652 15.8535 13.3329 15.8535 13.5006V15.4293C15.8535 16.1001 16.22 16.3517 16.6782 16.771C17.2281 17.1064 17.7779 17.6095 17.7779 18.5319C17.5946 19.622 16.5866 20.5444 15.3037 20.5444Z" fill="white"/>
<path d="M13.9292 12.8298C8.33922 12.8298 7.78939 11.2366 7.69775 11.0688C7.69775 10.9011 7.78939 10.7334 7.97267 10.7334C8.15595 10.7334 8.33922 10.8173 8.43086 10.985C8.43086 10.985 8.98069 12.2428 14.0208 12.2428C16.4034 12.2428 20.2522 10.9011 24.3759 9.47561C29.5076 7.6308 35.3725 5.61829 40.046 5.61829C40.2293 5.61829 40.4126 5.786 40.4126 5.95371C40.4126 6.12142 40.2293 6.28912 40.046 6.28912C35.5558 6.28912 29.7826 8.30164 24.6508 10.1464C20.2522 11.4881 16.495 12.8298 13.9292 12.8298Z" fill="white"/>
<path d="M13.746 11.0688C13.6544 11.0688 13.4711 10.985 13.4711 10.8173C13.4711 10.6496 13.5627 10.5657 13.746 10.5657C13.8376 10.5657 14.0209 10.6496 14.0209 10.8173C14.0209 10.985 13.9293 11.0688 13.746 11.0688ZM12.0049 10.985C11.8216 10.985 11.73 10.9011 11.8216 10.7334C11.8216 10.5657 12.0049 10.4818 12.0965 10.4818C12.2798 10.4818 12.3714 10.5657 12.3714 10.7334C12.2798 10.9011 12.1881 10.985 12.0049 10.985ZM15.2122 10.7334C15.2122 10.5657 15.3038 10.4818 15.3955 10.4818C15.4871 10.4818 15.6704 10.5657 15.6704 10.6496C15.6704 10.8173 15.5788 10.9011 15.4871 10.9011C15.3038 10.9011 15.2122 10.8173 15.2122 10.7334ZM16.8617 10.398C16.8617 10.3141 16.9533 10.1464 17.045 10.1464C17.1366 10.1464 17.3199 10.1464 17.4115 10.3141C17.4115 10.398 17.3199 10.5657 17.2282 10.5657C17.2282 10.5657 17.2282 10.5657 17.1366 10.5657C17.045 10.5657 16.9533 10.4818 16.8617 10.398ZM18.5112 9.89487C18.5112 9.81101 18.5112 9.6433 18.6945 9.55945C18.7861 9.47559 18.9694 9.55945 19.061 9.72716C19.1526 9.81101 19.061 9.97872 18.8777 10.0626H18.7861C18.6945 10.0626 18.5112 10.0626 18.5112 9.89487Z" fill="#B8814A"/>
<path d="M13.9286 12.8298C13.7453 12.8298 13.562 12.6621 13.562 12.4944C13.562 12.3267 13.7453 12.1589 13.9286 12.1589C18.6937 12.1589 23.2757 11.2365 27.6743 10.3141C30.6067 9.72715 33.3559 9.14017 36.1966 8.80475C36.3799 8.80475 36.5632 8.8886 36.5632 9.05631C36.5632 9.22402 36.4716 9.39173 36.2883 9.39173C33.5391 9.72715 30.79 10.3141 27.8576 10.9011C23.4589 11.9074 18.877 12.8298 13.9286 12.8298Z" fill="white"/>
<path d="M65.9794 12.8298C63.5051 12.8298 59.748 11.4881 55.441 9.97872C50.3092 8.13392 44.536 6.1214 40.0458 6.1214C39.8625 6.1214 39.6792 5.95369 39.6792 5.78598C39.6792 5.61827 39.8625 5.45056 40.0458 5.45056C44.7193 5.45056 50.5841 7.54693 55.7159 9.30788C59.8396 10.7334 63.6884 12.0751 66.071 12.0751C71.0195 12.0751 71.6609 10.8173 71.6609 10.8173C71.7526 10.6496 71.9358 10.5657 72.1191 10.6496C72.3024 10.7334 72.394 10.9011 72.394 10.985C72.1191 11.2365 71.5693 12.8298 65.9794 12.8298Z" fill="white"/>
<path d="M65.9796 10.8173C65.9796 10.6496 66.0712 10.5657 66.2545 10.5657C66.3461 10.5657 66.5294 10.6496 66.5294 10.8173C66.5294 10.985 66.4377 11.0688 66.2545 11.0688C66.0712 11.0688 65.9796 10.985 65.9796 10.8173ZM67.629 10.7334C67.629 10.6496 67.7207 10.4819 67.8123 10.4819C67.9956 10.4819 68.0872 10.5657 68.0872 10.7334C68.0872 10.9011 67.9956 10.985 67.904 10.985C67.8123 10.985 67.629 10.9011 67.629 10.7334ZM64.4217 10.9011C64.2384 10.9011 64.2384 10.7334 64.2384 10.6496C64.2384 10.4819 64.4217 10.4819 64.5133 10.4819C64.6966 10.4819 64.7883 10.6496 64.6966 10.7334C64.6966 10.8173 64.605 10.9011 64.4217 10.9011C64.4217 10.9011 64.5133 10.9011 64.4217 10.9011ZM62.7722 10.5657C62.5889 10.5657 62.5889 10.398 62.5889 10.3141C62.5889 10.1464 62.7722 10.1464 62.8639 10.1464C63.0471 10.1464 63.0471 10.3141 63.0471 10.398C63.0471 10.4819 62.9555 10.5657 62.7722 10.5657ZM61.1227 10.0626C61.0311 10.0626 60.9395 9.89487 60.9395 9.72716C61.0311 9.55945 61.1227 9.55945 61.306 9.55945C61.3976 9.55945 61.4893 9.72716 61.4893 9.81101C61.4893 9.89487 61.306 9.97872 61.2144 9.97872C61.1227 10.0626 61.1227 10.0626 61.1227 10.0626Z" fill="#B8814A"/>
<path d="M65.9795 12.8298C61.1227 12.8298 56.5407 11.9074 52.1421 10.9011C49.2097 10.3142 46.4605 9.72718 43.7114 9.39176C43.5281 9.39176 43.3448 9.22405 43.4365 9.05634C43.4365 8.88863 43.6198 8.72092 43.803 8.80477C46.6438 9.14019 49.393 9.72718 52.3254 10.3142C56.724 11.2366 61.3059 12.159 66.0711 12.159C66.2544 12.159 66.4377 12.3267 66.4377 12.4944C66.346 12.6621 66.1628 12.8298 65.9795 12.8298Z" fill="white"/>
<path d="M39.9544 12.9136C37.7551 12.9136 35.9224 11.2366 35.9224 9.22404C35.9224 7.21152 37.7551 5.53442 39.9544 5.53442C42.1538 5.53442 43.9865 7.21152 43.9865 9.22404C43.9865 11.2366 42.1538 12.9136 39.9544 12.9136ZM39.9544 6.12141C38.1217 6.12141 36.5638 7.46308 36.5638 9.22404C36.5638 10.9011 38.03 12.3267 39.9544 12.3267C41.7872 12.3267 43.3451 10.985 43.3451 9.22404C43.3451 7.54694 41.7872 6.12141 39.9544 6.12141Z" fill="white"/>
<path d="M39.6799 11.1527C39.6799 10.985 39.7716 10.9011 39.9549 10.9011C40.1381 10.9011 40.2298 10.985 40.2298 11.1527C40.2298 11.3204 40.1381 11.4043 39.9549 11.4043C39.8632 11.4043 39.6799 11.3204 39.6799 11.1527ZM38.3054 10.7334C38.2137 10.6496 38.2137 10.4819 38.3054 10.398C38.397 10.3142 38.5803 10.3142 38.6719 10.398C38.7636 10.4819 38.7636 10.6496 38.6719 10.7334C38.6719 10.8173 38.5803 10.8173 38.4886 10.8173C38.397 10.8173 38.3054 10.8173 38.3054 10.7334ZM41.3294 10.7334C41.2378 10.6496 41.2378 10.4819 41.3294 10.398C41.4211 10.3142 41.6043 10.3142 41.696 10.398C41.7876 10.4819 41.7876 10.6496 41.696 10.7334C41.696 10.8173 41.6043 10.8173 41.5127 10.8173C41.4211 10.8173 41.3294 10.8173 41.3294 10.7334ZM37.5723 9.22404C37.5723 9.14019 37.6639 8.97248 37.8472 8.97248C37.9388 8.97248 38.1221 9.05633 38.1221 9.22404C38.1221 9.39175 38.0305 9.47561 37.8472 9.47561C37.6639 9.47561 37.5723 9.3079 37.5723 9.22404ZM41.8793 9.22404C41.8793 9.05633 41.9709 8.97248 42.1542 8.97248C42.3375 8.97248 42.4291 9.05633 42.4291 9.22404C42.4291 9.39175 42.3375 9.47561 42.1542 9.47561C41.9709 9.47561 41.8793 9.3079 41.8793 9.22404ZM38.3054 7.96622C38.2137 7.88236 38.2137 7.71465 38.3054 7.6308C38.397 7.54694 38.5803 7.54694 38.6719 7.6308C38.7636 7.71465 38.7636 7.88236 38.6719 7.96622C38.5803 8.05007 38.5803 8.05007 38.4886 8.05007C38.397 8.05007 38.3054 8.05007 38.3054 7.96622ZM41.3294 7.96622C41.2378 7.88236 41.2378 7.71465 41.3294 7.6308C41.4211 7.54694 41.6043 7.54694 41.696 7.6308C41.7876 7.71465 41.7876 7.88236 41.696 7.96622C41.696 8.05007 41.6043 8.05007 41.5127 8.05007C41.4211 8.05007 41.3294 8.05007 41.3294 7.96622ZM39.6799 7.21153C39.6799 7.04382 39.7716 6.95996 39.9549 6.95996C40.1381 6.95996 40.2298 7.04382 40.2298 7.21153C40.2298 7.37924 40.1381 7.46309 39.9549 7.46309C39.7716 7.46309 39.6799 7.37924 39.6799 7.21153Z" fill="#B8814A"/>
<path d="M40.5956 6.12141C40.4123 6.12141 40.229 5.9537 40.229 5.78599C40.229 5.70214 40.3206 3.68962 41.6952 2.18023C40.9621 1.34168 40.229 0.92241 39.9541 0.754701C39.6792 0.92241 38.9461 1.34168 38.213 2.18023C39.4959 3.68962 39.5875 5.70214 39.6792 5.78599C39.6792 5.9537 39.4959 6.12141 39.3126 6.12141C39.1293 6.12141 38.9461 5.9537 38.9461 5.78599C38.9461 5.78599 38.8544 3.77347 37.4799 2.34794C37.3882 2.26409 37.3882 2.09638 37.4799 1.92867C38.5795 0.586991 39.7708 0.0838623 39.7708 0.0838623C39.8625 0.0838623 39.9541 0.0838623 40.0457 0.0838623C40.1374 0.0838623 41.3287 0.586991 42.3367 1.92867C42.4283 2.01252 42.4283 2.18023 42.3367 2.34794C41.0537 3.77347 40.8705 5.78599 40.8705 5.78599C40.9621 6.03755 40.7788 6.12141 40.5956 6.12141Z" fill="white"/>
<path d="M39.9541 10.1464C39.4043 10.1464 38.8545 9.72715 38.8545 9.14017C38.8545 8.63704 39.3127 8.13391 39.9541 8.13391C40.504 8.13391 41.0538 8.55319 41.0538 9.14017C41.0538 9.72715 40.5956 10.1464 39.9541 10.1464ZM39.9541 8.7209C39.6792 8.7209 39.4043 8.97246 39.4043 9.22402C39.4043 9.47559 39.6792 9.72715 39.9541 9.72715C40.2291 9.72715 40.504 9.47559 40.504 9.22402C40.504 8.8886 40.3207 8.7209 39.9541 8.7209Z" fill="#D4D8E4"/>
<path d="M39.9549 16.6032C38.6719 16.6032 37.5723 15.597 37.5723 14.423C37.5723 13.2491 38.6719 12.2428 39.9549 12.2428C41.2378 12.2428 42.3375 13.2491 42.3375 14.423C42.3375 15.597 41.2378 16.6032 39.9549 16.6032ZM39.9549 12.9136C39.0385 12.9136 38.3054 13.5845 38.3054 14.423C38.3054 15.2616 39.0385 15.9324 39.9549 15.9324C40.8712 15.9324 41.6043 15.2616 41.6043 14.423C41.6043 13.5845 40.8712 12.9136 39.9549 12.9136Z" fill="white"/>
<path d="M37.9381 17.5257C37.8464 17.4418 37.7548 17.3579 37.8464 17.1902C37.9381 17.1064 38.0297 17.0225 38.213 17.1064C38.3046 17.1902 38.3963 17.2741 38.3046 17.4418C38.3046 17.5256 38.213 17.5257 38.1213 17.5257C38.0297 17.6095 37.9381 17.5257 37.9381 17.5257ZM36.6551 16.3517C36.5635 16.2678 36.6551 16.1001 36.7468 16.0163C36.8384 15.9324 37.0217 16.0163 37.1133 16.1001C37.205 16.184 37.1133 16.3517 37.0217 16.4355H36.9301C36.7468 16.4355 36.6551 16.4355 36.6551 16.3517ZM36.0137 14.7584C36.0137 14.5907 36.1053 14.5069 36.1969 14.5069C36.3802 14.5069 36.4719 14.5907 36.4719 14.6746C36.4719 14.8423 36.3802 14.9262 36.2886 14.9262C36.1053 15.01 36.0137 14.9261 36.0137 14.7584ZM36.3802 13.4168C36.2886 13.3329 36.1969 13.2491 36.1969 13.0813C36.1969 12.9975 36.3802 12.9136 36.5635 12.9136C36.6551 12.9136 36.7468 13.0813 36.7468 13.2491C36.7468 13.3329 36.6551 13.4168 36.4719 13.4168C36.4719 13.5006 36.3802 13.4168 36.3802 13.4168Z" fill="#D4D8E4"/>
<path d="M41.6952 17.4418C41.6035 17.3579 41.6952 17.1902 41.7868 17.1064C41.8785 17.0225 42.0617 17.1064 42.1534 17.1902C42.245 17.2741 42.1534 17.4418 42.0617 17.5257H41.9701C41.7868 17.6095 41.6952 17.5257 41.6952 17.4418ZM42.9781 16.4355C42.8865 16.3517 42.7948 16.184 42.8865 16.1001C42.9781 16.0163 43.1614 15.9324 43.253 16.0163C43.3447 16.1001 43.4363 16.184 43.3447 16.3517C43.253 16.4355 43.253 16.4355 43.1614 16.4355C43.0698 16.4355 42.9781 16.4355 42.9781 16.4355ZM43.6196 15.01C43.5279 15.01 43.3447 14.8423 43.4363 14.7584C43.4363 14.5907 43.6196 14.5069 43.7112 14.5907C43.8945 14.5907 43.9861 14.7584 43.8945 14.8423C43.8945 14.9262 43.8029 15.01 43.6196 15.01ZM43.253 13.3329C43.253 13.2491 43.253 13.0814 43.4363 12.9975C43.5279 12.9136 43.7112 12.9975 43.8029 13.1652C43.8029 13.2491 43.8029 13.4168 43.6196 13.5006H43.5279C43.3447 13.5006 43.253 13.4168 43.253 13.3329Z" fill="#D4D8E4"/>
<path d="M61.0307 67H18.9688L20.8015 64.4005H31.1566C35.0971 64.4005 37.1131 62.6396 37.1131 59.2015V59.0338L40.0455 56.3505L42.978 59.0338V59.2015C42.978 62.5557 45.1773 64.4005 49.301 64.4005H59.2895L61.0307 67ZM20.16 66.3292H59.7477L58.8314 64.9875H49.2094C44.8107 64.9875 42.2448 62.8911 42.2448 59.2854L40.0455 57.2729L37.8462 59.2854C37.7546 62.975 35.4636 64.9875 31.1566 64.9875H21.1681L20.16 66.3292Z" fill="white"/>
<path d="M42.3375 63.9812H37.5723L39.9549 60.7947L42.3375 63.9812ZM38.5803 63.562H41.4211L40.0465 61.7171L38.5803 63.562Z" fill="#D4D8E4"/>
<path d="M30.424 62.2203C30.424 62.0526 30.5156 61.9687 30.6989 61.9687C30.7905 61.9687 30.9738 62.0526 30.9738 62.2203C30.9738 62.388 30.8822 62.4718 30.6989 62.4718C30.5156 62.4718 30.424 62.3041 30.424 62.2203ZM29.2327 62.1364C29.1411 62.0526 29.0494 61.9687 29.1411 61.801C29.2327 61.7171 29.3243 61.6333 29.5076 61.6333C29.5992 61.7171 29.6909 61.801 29.5992 61.9687C29.5992 62.0526 29.5076 62.1364 29.3243 62.1364C29.2327 62.2203 29.2327 62.2203 29.2327 62.1364ZM31.7986 62.0526C31.7069 61.8849 31.7986 61.801 31.8902 61.7171C31.9818 61.6333 32.1651 61.7171 32.2568 61.801C32.3484 61.8849 32.2568 62.0526 32.0735 62.1364H31.9818C31.9818 62.2203 31.8902 62.1364 31.7986 62.0526ZM27.9498 61.3817C27.8581 61.2979 27.8581 61.1302 27.9498 61.0463C28.0414 60.9625 28.2247 60.9625 28.3163 61.0463C28.4079 61.1302 28.4079 61.2979 28.3163 61.3817C28.2247 61.4656 28.2247 61.4656 28.133 61.4656C28.0414 61.4656 28.0414 61.4656 27.9498 61.3817ZM33.0815 61.3817C32.9899 61.2979 32.9899 61.1302 33.0815 61.0463C33.1731 60.9625 33.3564 60.9625 33.448 61.0463C33.5397 61.1302 33.5397 61.2979 33.448 61.3817C33.3564 61.4656 33.3564 61.4656 33.2648 61.4656C33.1731 61.4656 33.0815 61.4656 33.0815 61.3817ZM27.125 60.2916C27.0334 60.2078 27.125 60.04 27.2167 59.9562C27.3083 59.8723 27.4916 59.9562 27.5832 60.1239C27.6748 60.2078 27.5832 60.3755 27.4916 60.4593H27.3999C27.2167 60.4593 27.125 60.3755 27.125 60.2916ZM33.9062 60.3755C33.8146 60.2916 33.723 60.2078 33.723 60.0401C33.8146 59.9562 33.9062 59.8723 34.0895 59.9562C34.1812 60.04 34.2728 60.1239 34.1812 60.2916C34.1812 60.3755 34.0895 60.4593 33.9062 60.4593C33.9979 60.3755 33.9062 60.3755 33.9062 60.3755ZM26.8501 58.9499C26.8501 58.7822 26.9417 58.6984 27.125 58.6984C27.3083 58.6984 27.3999 58.7822 27.3999 58.9499C27.3999 59.0338 27.3083 59.2015 27.125 59.2015C26.9417 59.2015 26.8501 59.0338 26.8501 58.9499ZM33.9979 58.9499C33.9979 58.9499 33.9979 58.8661 33.9979 58.9499C33.9979 58.8661 33.9979 58.8661 33.9979 58.9499C33.9979 58.7822 34.0895 58.6984 34.2728 58.6984C34.4561 58.6984 34.5477 58.7822 34.5477 58.9499C34.5477 59.1176 34.4561 59.2015 34.2728 59.2015C34.0895 59.1176 33.9979 59.0338 33.9979 58.9499ZM27.2167 57.8598C27.125 57.776 27.0334 57.6921 27.0334 57.5244C27.125 57.4406 27.2167 57.3567 27.3999 57.3567C27.4916 57.4405 27.5832 57.5244 27.4916 57.6921C27.4916 57.776 27.3999 57.8598 27.2167 57.8598C27.3083 57.8598 27.3083 57.9437 27.2167 57.8598ZM33.723 57.6921C33.6313 57.5244 33.723 57.4405 33.8146 57.3567C33.9062 57.2728 34.0895 57.3567 34.1812 57.4405C34.2728 57.5244 34.1812 57.6921 34.0895 57.776H33.9979C33.9062 57.8598 33.8146 57.776 33.723 57.6921ZM27.9498 56.7697C27.8581 56.6859 27.8581 56.5181 27.9498 56.4343C28.0414 56.3504 28.2247 56.3504 28.3163 56.4343C28.4079 56.5181 28.4079 56.6859 28.3163 56.7697C28.3163 56.7697 28.2247 56.8536 28.133 56.8536C28.0414 56.8536 27.9498 56.8536 27.9498 56.7697ZM32.9899 56.7697C32.8982 56.6859 32.8982 56.5181 32.9899 56.4343C33.0815 56.3504 33.2648 56.3504 33.3564 56.4343C33.448 56.5181 33.448 56.6859 33.3564 56.7697C33.2648 56.8536 33.2648 56.8536 33.1731 56.8536C33.0815 56.7697 33.0815 56.7697 32.9899 56.7697ZM29.0494 56.015C28.9578 55.9312 29.0494 55.7635 29.2327 55.6796C29.3243 55.5957 29.5076 55.6796 29.5992 55.8473C29.6909 55.9312 29.5992 56.0989 29.5076 56.1827H29.416C29.1411 56.0989 29.0494 56.0989 29.0494 56.015ZM31.8902 56.0989C31.7986 56.015 31.7069 55.9312 31.7069 55.7635C31.7986 55.6796 31.8902 55.5957 32.0735 55.5957C32.1651 55.6796 32.2568 55.7635 32.2568 55.9312C32.2568 56.015 32.1651 56.0989 31.8902 56.0989C31.9818 56.0989 31.9818 56.0989 31.8902 56.0989ZM30.424 55.5957C30.424 55.428 30.5156 55.3442 30.6989 55.3442C30.8822 55.3442 30.9738 55.428 30.9738 55.5957C30.9738 55.7635 30.8822 55.8473 30.6989 55.8473C30.5156 55.8473 30.424 55.7635 30.424 55.5957Z" fill="#B8814A"/>
<path d="M30.6983 60.8786C29.507 60.8786 28.499 59.9562 28.499 58.8661C28.499 57.776 29.507 56.8536 30.6983 56.8536C31.8896 56.8536 32.8977 57.776 32.8977 58.8661C32.8977 60.0401 31.8896 60.8786 30.6983 60.8786ZM30.6983 57.3567C29.782 57.3567 29.0489 58.0275 29.0489 58.8661C29.0489 59.7046 29.782 60.3755 30.6983 60.3755C31.6147 60.3755 32.3478 59.7046 32.3478 58.8661C32.3478 58.1114 31.6147 57.3567 30.6983 57.3567Z" fill="#D4D8E4"/>
<path d="M15.4875 48.3004C13.6547 48.3004 12.1885 46.9587 12.1885 45.2816C12.1885 45.1139 12.3718 44.9462 12.555 44.9462C12.7383 44.9462 12.9216 45.1139 12.9216 45.2816C12.9216 46.6233 14.1129 47.7134 15.5791 47.7134C17.0453 47.7134 18.2366 46.6233 18.2366 45.2816C18.2366 45.1139 18.4199 44.9462 18.6031 44.9462C18.7864 44.9462 18.9697 45.1139 18.9697 45.2816C18.8781 46.9587 17.3202 48.3004 15.4875 48.3004Z" fill="white"/>
<path d="M52.0501 45.5332C51.9585 45.5332 51.8669 45.5332 51.7752 45.4493C51.6836 45.3655 51.6836 45.2816 51.6836 45.1978C51.6836 45.1139 51.6836 45.03 51.7752 44.9462C51.8669 44.8623 52.1418 44.8623 52.2334 44.9462C52.3251 45.03 52.3251 45.1139 52.3251 45.1978C52.3251 45.2816 52.3251 45.3655 52.2334 45.4493C52.1418 45.5332 52.1418 45.5332 52.0501 45.5332Z" fill="white"/>
<path d="M65.1551 56.8536C65.1551 56.6859 65.2467 56.5182 65.5216 56.5182C65.7049 56.5182 65.8882 56.6859 65.8882 56.7697C65.8882 56.9374 65.7965 57.1051 65.6132 57.1051C65.3383 57.1051 65.1551 57.0213 65.1551 56.8536ZM63.7805 57.1051C63.5972 57.1051 63.4139 56.9374 63.4139 56.7697C63.4139 56.602 63.5972 56.4343 63.7805 56.5182C63.9638 56.5182 64.147 56.6859 64.147 56.8536C64.147 57.0213 63.9638 57.1051 63.7805 57.1051ZM66.8962 56.6859C66.8962 56.5182 66.9878 56.3504 67.1711 56.3504C67.3544 56.3504 67.5376 56.4343 67.5376 56.602C67.5376 56.7697 67.446 56.9374 67.2627 56.9374H67.1711C67.0795 56.9374 66.8962 56.8536 66.8962 56.6859ZM62.0394 56.9374C61.8561 56.8536 61.7644 56.7697 61.7644 56.5182C61.7644 56.3504 61.9477 56.2666 62.131 56.2666C62.3143 56.2666 62.4059 56.4343 62.4059 56.6859C62.4059 56.8536 62.2226 56.9374 62.0394 56.9374ZM68.5457 56.2666C68.454 56.0989 68.5457 55.9312 68.7289 55.8473C68.9122 55.7635 69.0955 55.8473 69.1871 56.015C69.2788 56.1827 69.1871 56.3504 69.0039 56.4343H68.9122C68.7289 56.5182 68.6373 56.4343 68.5457 56.2666ZM60.2982 56.4343C60.115 56.3504 60.0233 56.1827 60.115 56.015C60.2066 55.8473 60.3899 55.7635 60.5731 55.8473C60.7564 55.9312 60.8481 56.0989 60.7564 56.2666C60.7564 56.3504 60.5731 56.4343 60.3899 56.4343C60.3899 56.5182 60.3899 56.5182 60.2982 56.4343ZM70.1952 55.6796C70.1035 55.5119 70.1952 55.3442 70.3784 55.2603C70.5617 55.1765 70.745 55.2603 70.8366 55.428C70.9283 55.5958 70.8366 55.7635 70.6533 55.8473C70.6533 55.8473 70.5617 55.8473 70.4701 55.8473C70.3784 55.8473 70.2868 55.8473 70.1952 55.6796ZM58.6487 55.8473C58.4655 55.7635 58.3738 55.5958 58.4655 55.428C58.5571 55.2603 58.7404 55.1765 58.9237 55.2603C59.1069 55.3442 59.1986 55.5119 59.1069 55.6796C59.0153 55.7635 58.9237 55.8473 58.832 55.8473C58.7404 55.8473 58.7404 55.8473 58.6487 55.8473ZM71.6614 54.9249C71.5697 54.7572 71.5697 54.5895 71.753 54.5056C71.9363 54.4218 72.1196 54.4218 72.2112 54.5895C72.3028 54.7572 72.3028 54.9249 72.1196 55.0088C72.0279 55.0926 72.0279 55.0926 71.9363 55.0926C71.8446 55.0088 71.753 55.0088 71.6614 54.9249ZM57.1825 55.0088C56.9993 54.9249 56.9993 54.7572 57.0909 54.5895C57.1825 54.4218 57.3658 54.4218 57.5491 54.5056C57.7324 54.5895 57.7324 54.8411 57.6407 54.9249C57.5491 55.0088 57.4574 55.0926 57.3658 55.0926C57.2742 55.0088 57.1825 55.0088 57.1825 55.0088ZM73.0359 53.9187C72.9443 53.7509 72.9443 53.5832 73.0359 53.4994C73.1276 53.4155 73.4025 53.4155 73.4941 53.4994C73.5858 53.6671 73.5858 53.8348 73.4941 53.9187C73.4025 54.0025 73.3109 54.0025 73.2192 54.0025C73.2192 54.0864 73.1276 54.0025 73.0359 53.9187ZM55.808 53.9187C55.7163 53.8348 55.6247 53.5832 55.808 53.4994C55.8996 53.4155 56.1745 53.3317 56.2662 53.4994C56.4494 53.5832 56.4494 53.8348 56.2662 53.9187C56.1745 54.0025 56.0829 54.0025 55.9912 54.0025C55.8996 54.0025 55.8996 54.0025 55.808 53.9187ZM74.3189 52.8285C74.1356 52.7447 74.1356 52.4931 74.2272 52.4093C74.3189 52.2416 74.5938 52.2416 74.6854 52.4093C74.8687 52.4931 74.8687 52.7447 74.6854 52.8285C74.5938 52.9124 74.5021 52.9124 74.4105 52.9124L74.3189 52.8285ZM54.6167 52.7447C54.525 52.577 54.525 52.4093 54.7083 52.3254C54.8916 52.2416 55.0749 52.2416 55.1665 52.4093C55.2581 52.577 55.2581 52.7447 55.1665 52.8285C55.0749 52.9124 54.9832 52.9124 54.9832 52.9124C54.7083 52.9124 54.6167 52.8285 54.6167 52.7447ZM75.3269 51.5707C75.1436 51.4869 75.1436 51.3192 75.2353 51.1514C75.3269 50.9837 75.5102 50.9837 75.6934 51.0676C75.8767 51.1514 75.8767 51.3192 75.7851 51.4869C75.6934 51.5707 75.6018 51.6546 75.5102 51.6546C75.4185 51.5707 75.3269 51.5707 75.3269 51.5707ZM53.517 51.403C53.4254 51.2353 53.4254 51.0676 53.6086 50.9837C53.7919 50.8999 53.9752 50.9837 54.0668 51.0676C54.1585 51.2353 54.0668 51.403 53.9752 51.4869C53.8836 51.4869 53.8836 51.4869 53.7919 51.4869C53.7003 51.5707 53.6086 51.5707 53.517 51.403ZM76.1516 50.1452C75.9684 50.0613 75.8767 49.8936 75.9684 49.7259C76.06 49.5582 76.2433 49.4743 76.4266 49.5582C76.6098 49.6421 76.7015 49.8098 76.6098 49.9775C76.5182 50.0613 76.4265 50.1452 76.2433 50.1452C76.2433 50.229 76.1516 50.229 76.1516 50.1452ZM52.6923 49.9775C52.6006 49.8098 52.6923 49.6421 52.8755 49.5582C53.0588 49.4743 53.2421 49.5582 53.3337 49.7259C53.4254 49.8936 53.3337 50.0613 53.1505 50.1452C53.0588 50.1452 53.0588 50.1452 52.9672 50.1452C52.8755 50.1452 52.7839 50.1452 52.6923 49.9775ZM76.7931 48.7197C76.6098 48.6358 76.5182 48.4681 76.5182 48.3004C76.5182 48.1327 76.7931 48.0488 76.9764 48.0488C77.1597 48.1327 77.2513 48.3004 77.2513 48.4681C77.2513 48.6358 77.068 48.7197 76.8847 48.7197C76.7931 48.7197 76.7931 48.7197 76.7931 48.7197ZM52.1424 48.4681C52.1424 48.3004 52.2341 48.1327 52.4173 48.0488C52.6006 48.0488 52.7839 48.1327 52.8755 48.3004C52.9672 48.4681 52.7839 48.6358 52.6006 48.7197H52.509C52.3257 48.7197 52.1424 48.6358 52.1424 48.4681ZM77.1597 47.1264C76.9764 47.1264 76.7931 46.9587 76.8847 46.791C76.8847 46.6233 77.068 46.5394 77.2513 46.5394C77.4346 46.5394 77.5262 46.7071 77.5262 46.8748C77.5262 47.0426 77.4346 47.1264 77.1597 47.1264C77.1597 47.1264 77.2513 47.1264 77.1597 47.1264ZM51.7759 46.8748C51.7759 46.7071 51.8675 46.5394 52.0508 46.5394C52.2341 46.5394 52.4173 46.6233 52.4173 46.791C52.4173 46.9587 52.3257 47.1264 52.1424 47.1264C52.1424 47.1264 52.1424 47.1264 52.0508 47.1264C51.9592 47.1264 51.7759 47.0426 51.7759 46.8748Z" fill="white"/>
<path d="M77.3426 45.5332C77.251 45.5332 77.1593 45.5332 77.0677 45.4493C76.9761 45.3655 76.9761 45.2816 76.9761 45.1978C76.9761 45.1139 76.9761 45.03 77.0677 44.9462C77.1593 44.8623 77.4343 44.8623 77.5259 44.9462C77.6175 45.03 77.6175 45.1139 77.6175 45.1978C77.6175 45.2816 77.6175 45.3655 77.5259 45.4493C77.5259 45.5332 77.4343 45.5332 77.3426 45.5332Z" fill="white"/>
<path d="M73.2188 35.1352C73.1271 35.1352 73.1271 35.1352 73.0355 35.0513C73.0355 35.0513 72.9438 34.9675 72.9438 34.8836C72.9438 34.7998 72.9438 34.7159 73.0355 34.7159C73.1271 34.6321 73.3104 34.6321 73.402 34.7159C73.402 34.7998 73.4937 34.7998 73.4937 34.8836C73.4937 34.9675 73.4937 35.0513 73.402 35.0513C73.3104 35.0513 73.2188 35.1352 73.2188 35.1352Z" fill="#B8814A"/>
<path d="M72.394 33.4581C72.3023 33.3742 72.394 33.2065 72.5772 33.1227C72.6689 33.1227 72.8521 33.1227 72.9438 33.2904C73.0354 33.3742 72.9438 33.5419 72.7605 33.6258H72.6689C72.4856 33.6258 72.394 33.5419 72.394 33.4581ZM71.8441 32.0325C71.8441 31.8648 71.8441 31.781 72.0274 31.6971C72.119 31.6971 72.3023 31.6971 72.394 31.8648C72.4856 32.0325 72.394 32.1164 72.2107 32.2003H72.119C71.9358 32.2003 71.8441 32.1164 71.8441 32.0325ZM71.2027 30.5232C71.2027 30.4393 71.2027 30.2716 71.3859 30.1877C71.4776 30.1877 71.6609 30.1877 71.7525 30.3554C71.8441 30.4393 71.7525 30.607 71.5692 30.6909H71.4776C71.3859 30.6909 71.2943 30.607 71.2027 30.5232ZM70.6528 29.0138C70.6528 28.9299 70.6528 28.7622 70.8361 28.7622C70.9278 28.7622 71.111 28.7622 71.2027 28.9299C71.2943 29.0138 71.2027 29.1815 71.0194 29.2653H70.9277C70.8361 29.1815 70.7445 29.1815 70.6528 29.0138Z" fill="#B8814A"/>
<path d="M70.3779 27.756C70.2863 27.756 70.2863 27.756 70.1947 27.6721C70.103 27.6721 70.103 27.5883 70.103 27.5044C70.103 27.4206 70.103 27.3367 70.1947 27.3367C70.2863 27.2528 70.4696 27.2528 70.5612 27.3367C70.5612 27.3367 70.6529 27.4206 70.6529 27.5044C70.6529 27.5883 70.6529 27.6721 70.5612 27.6721C70.4696 27.756 70.4696 27.756 70.3779 27.756Z" fill="#B8814A"/>
<path d="M75.0516 45.5332C74.96 45.5332 74.8683 45.5332 74.7767 45.4493C74.6851 45.3655 74.6851 45.2816 74.6851 45.1978C74.6851 45.1139 74.6851 45.03 74.7767 44.9462C74.8683 44.8623 75.1432 44.8623 75.2349 44.9462C75.3265 45.03 75.3265 45.1139 75.3265 45.1978C75.3265 45.2816 75.3265 45.3655 75.2349 45.4493C75.2349 45.5332 75.1433 45.5332 75.0516 45.5332Z" fill="white"/>
<path d="M74.1352 43.856C74.0435 43.6883 74.1352 43.5206 74.3184 43.4368C74.5017 43.3529 74.685 43.4368 74.7766 43.6045C74.8683 43.7722 74.7766 43.9399 74.5933 44.0238H74.5017C74.3184 44.1076 74.2268 44.0238 74.1352 43.856ZM73.5853 42.3467C73.4937 42.179 73.5853 42.0112 73.7686 41.9274C73.9519 41.8435 74.1352 41.9274 74.2268 42.0951C74.3184 42.2628 74.2268 42.4305 74.0435 42.5144H73.9519C73.7686 42.5982 73.5853 42.5144 73.5853 42.3467ZM73.0355 40.9211C72.9439 40.7534 73.0355 40.5857 73.2188 40.5019C73.4021 40.418 73.5853 40.5019 73.677 40.6696C73.7686 40.8373 73.677 41.005 73.4937 41.0888H73.402C73.2188 41.0888 73.0355 41.005 73.0355 40.9211ZM72.394 39.4117C72.3024 39.244 72.394 39.0763 72.5773 38.9925C72.7606 38.9086 72.9439 38.9925 73.0355 39.1602C73.1271 39.3279 73.0355 39.4956 72.8522 39.5795H72.7606C72.5773 39.5795 72.4857 39.4956 72.394 39.4117ZM71.8442 37.9024C71.7526 37.7346 71.8442 37.5669 72.0275 37.4831C72.2108 37.3992 72.394 37.4831 72.4857 37.6508C72.5773 37.8185 72.4857 37.9862 72.3024 38.0701H72.2108C72.0275 38.1539 71.9358 38.0701 71.8442 37.9024ZM71.2944 36.393C71.2027 36.2253 71.2944 36.0575 71.4776 35.9737C71.6609 35.8898 71.8442 35.9737 71.9358 36.1414C72.0275 36.3091 71.9358 36.4768 71.7526 36.5607H71.6609C71.4776 36.6445 71.2944 36.5607 71.2944 36.393ZM70.6529 34.9674C70.5613 34.7997 70.6529 34.632 70.8362 34.5482C71.0195 34.4643 71.2027 34.5482 71.2944 34.7159C71.386 34.8836 71.2944 35.0513 71.1111 35.1351H71.0195C70.8362 35.1351 70.7445 35.0513 70.6529 34.9674ZM70.1031 33.4581C70.0114 33.2903 70.1031 33.1226 70.2863 33.0388C70.4696 32.9549 70.6529 33.0388 70.7445 33.2065C70.8362 33.3742 70.7445 33.5419 70.5613 33.6258H70.4696C70.2864 33.6258 70.1947 33.5419 70.1031 33.4581ZM69.5532 31.9487C69.4616 31.781 69.5532 31.6132 69.7365 31.5294C69.9198 31.4455 70.1031 31.5294 70.1947 31.6971C70.2863 31.8648 70.1947 32.0325 70.0114 32.1164H69.9198C69.7365 32.2002 69.5532 32.1164 69.5532 31.9487ZM69.0034 30.4393C68.9118 30.2716 69.0034 30.1039 69.1867 30.02C69.37 29.9361 69.5532 30.02 69.6449 30.1877C69.7365 30.3554 69.6449 30.5231 69.4616 30.607H69.37C69.1867 30.6908 69.0034 30.607 69.0034 30.4393ZM68.3619 29.0137C68.2703 28.846 68.362 28.6783 68.5452 28.5945C68.7285 28.5106 68.9118 28.5945 69.0034 28.7622C69.0951 28.9299 69.0034 29.0976 68.8201 29.1815H68.7285C68.5452 29.1815 68.4536 29.0976 68.3619 29.0137ZM67.8121 27.5044C67.7205 27.3367 67.8121 27.1689 67.9954 27.0851C68.1787 27.0012 68.3619 27.0851 68.4536 27.2528C68.5452 27.4205 68.4536 27.5882 68.2703 27.6721H68.1787C67.9954 27.6721 67.9038 27.6721 67.8121 27.5044ZM67.2623 25.995C67.1707 25.8273 67.2623 25.6596 67.4456 25.5757C67.6288 25.4918 67.8121 25.5757 67.9038 25.7434C67.9954 25.9111 67.9038 26.0788 67.7205 26.1627H67.6288C67.4456 26.2465 67.2623 26.1627 67.2623 25.995ZM66.6208 24.5694C66.5292 24.4017 66.6208 24.234 66.8041 24.1502C66.9874 24.0663 67.1707 24.1502 67.2623 24.3179C67.3539 24.4856 67.2623 24.6533 67.079 24.7372H66.9874C66.8041 24.7372 66.7125 24.6533 66.6208 24.5694ZM66.071 23.0601C65.9794 22.8923 66.071 22.7246 66.2543 22.6408C66.4375 22.5569 66.6208 22.6408 66.7125 22.8085C66.8041 22.9762 66.7125 23.1439 66.5292 23.2278H66.4375C66.2543 23.2278 66.1626 23.1439 66.071 23.0601ZM65.5212 21.5507C65.4295 21.383 65.5212 21.2152 65.7044 21.1314C65.8877 21.0475 66.071 21.1314 66.1626 21.2991C66.2543 21.4668 66.1626 21.6345 65.9794 21.7184H65.8877C65.7044 21.8022 65.5212 21.6345 65.5212 21.5507ZM64.8797 20.0413C64.7881 19.8736 64.8797 19.7059 65.063 19.622C65.2463 19.5382 65.4295 19.622 65.5212 19.7897C65.6128 19.9574 65.5212 20.1251 65.3379 20.209H65.2462C65.063 20.2928 64.9713 20.209 64.8797 20.0413Z" fill="white"/>
<path d="M64.6961 18.7835C64.6045 18.7835 64.5129 18.7835 64.4212 18.6996C64.3296 18.6158 64.3296 18.5319 64.3296 18.4481C64.3296 18.3642 64.3296 18.2804 64.4212 18.1965C64.5129 18.1126 64.7878 18.1126 64.8794 18.1965C64.9711 18.2804 64.9711 18.3642 64.9711 18.4481C64.9711 18.5319 64.9711 18.6158 64.8794 18.6996C64.8794 18.7835 64.7878 18.7835 64.6961 18.7835Z" fill="white"/>
<path d="M64.6968 55.0926C58.7403 55.0926 53.9751 50.6483 53.9751 45.2816C53.9751 45.1139 54.1584 44.9462 54.3416 44.9462C54.5249 44.9462 54.7082 45.1139 54.7082 45.2816C54.7082 50.3129 59.1985 54.5056 64.7884 54.5056C64.9717 54.5056 65.155 54.6733 65.155 54.841C65.0633 54.9249 64.88 55.0926 64.6968 55.0926Z" fill="white"/>
<path d="M75.0516 45.5332C74.96 45.5332 74.8683 45.5332 74.7767 45.4493C74.6851 45.3655 74.6851 45.2816 74.6851 45.1978C74.6851 45.1139 74.6851 45.03 74.7767 44.9462C74.8683 44.8623 75.1432 44.8623 75.2349 44.9462C75.3265 45.03 75.3265 45.1139 75.3265 45.1978C75.3265 45.2816 75.3265 45.3655 75.2349 45.4493C75.2349 45.5332 75.1433 45.5332 75.0516 45.5332Z" fill="white"/>
<path d="M65.9795 54.6733C65.9795 54.5056 66.0711 54.3379 66.2544 54.3379C66.4377 54.3379 66.621 54.4218 66.621 54.5895C66.621 54.7572 66.5293 54.9249 66.346 54.9249C66.346 54.9249 66.346 54.9249 66.2544 54.9249C66.1628 54.9249 65.9795 54.8411 65.9795 54.6733ZM67.5373 54.4218C67.4457 54.2541 67.5373 54.0864 67.7206 54.0025C67.9039 53.9186 68.0872 54.0025 68.1788 54.1702C68.2704 54.3379 68.1788 54.5056 67.9955 54.5895H67.9039C67.7206 54.5895 67.629 54.5056 67.5373 54.4218ZM69.0952 53.8348C69.0036 53.6671 69.0952 53.4994 69.2785 53.4155C69.4617 53.3317 69.645 53.4155 69.7367 53.5832C69.8283 53.7509 69.7367 53.9186 69.5534 54.0025C69.4617 54.0025 69.4617 54.0025 69.3701 54.0025C69.2785 54.0025 69.1868 54.0025 69.0952 53.8348ZM70.4698 53.0801C70.3781 52.9124 70.3781 52.7447 70.5614 52.6608C70.7447 52.577 70.928 52.577 71.0196 52.7447C71.1112 52.9124 71.1112 53.0801 70.928 53.164C70.8363 53.164 70.8363 53.2478 70.7447 53.2478C70.653 53.2478 70.5614 53.2478 70.4698 53.0801ZM71.7527 52.1577C71.6611 51.99 71.6611 51.8223 71.7527 51.7384C71.8443 51.6546 72.1193 51.5707 72.2109 51.7384C72.3025 51.8223 72.3025 52.0738 72.2109 52.1577C72.1193 52.2416 72.0276 52.2416 71.936 52.2416C71.936 52.2416 71.8443 52.2416 71.7527 52.1577ZM72.8524 51.0676C72.6691 50.9837 72.6691 50.7322 72.7607 50.6483C72.8524 50.4806 73.1273 50.4806 73.2189 50.5645C73.4022 50.6483 73.4022 50.8999 73.3105 50.9837C73.2189 51.0676 73.1273 51.1514 73.0356 51.1514C73.0356 51.1514 72.944 51.1514 72.8524 51.0676ZM73.7687 49.8098C73.5855 49.7259 73.4938 49.5582 73.5855 49.3905C73.6771 49.2228 73.8604 49.1389 74.0437 49.2228C74.2269 49.3066 74.3186 49.4743 74.2269 49.6421C74.1353 49.7259 74.0436 49.8098 73.952 49.8098C73.8604 49.8936 73.8604 49.8936 73.7687 49.8098ZM74.4102 48.4681C74.2269 48.4681 74.1353 48.3004 74.2269 48.0488C74.3186 47.8811 74.5018 47.7972 74.6851 47.8811C74.8684 47.965 74.96 48.1327 74.8684 48.3004C74.8684 48.4681 74.6851 48.5519 74.5018 48.5519C74.5018 48.4681 74.5018 48.4681 74.4102 48.4681ZM74.8684 47.0426C74.6851 47.0426 74.5935 46.8748 74.5935 46.7071C74.5935 46.5394 74.7768 46.4556 74.96 46.4556C75.1433 46.4556 75.3266 46.6233 75.2349 46.791C75.2349 46.9587 75.0517 47.0426 74.8684 47.0426Z" fill="white"/>
<path d="M64.6961 55.0927C64.6045 55.0927 64.5129 55.0927 64.4212 55.0088C64.3296 54.9249 64.3296 54.8411 64.3296 54.7572C64.3296 54.6734 64.3296 54.5895 64.4212 54.5057C64.5129 54.4218 64.7878 54.4218 64.8794 54.5057C64.9711 54.5895 64.9711 54.6734 64.9711 54.7572C64.9711 54.8411 64.9711 54.9249 64.8794 55.0088C64.8794 55.0088 64.7878 55.0927 64.6961 55.0927Z" fill="white"/>
<path d="M64.6961 52.6608C64.5129 52.6608 64.3296 52.4931 64.3296 52.3254C64.3296 52.1577 64.5129 51.99 64.6961 51.99C68.7282 51.99 71.9356 49.1389 72.1188 45.5331H70.3777C70.1944 45.5331 70.0112 45.3654 70.0112 45.1977C70.0112 45.03 70.1944 44.8623 70.3777 44.8623H72.4854C72.6687 44.8623 72.8519 45.03 72.8519 45.1977C72.8519 49.3905 69.1864 52.6608 64.6961 52.6608Z" fill="white"/>
<path d="M64.4219 52.6608C64.2386 52.6608 64.0553 52.4931 64.0553 52.3254C64.0553 52.1577 64.2386 51.99 64.4219 51.99C64.6052 51.99 64.7884 52.1577 64.7884 52.3254C64.7884 52.577 64.6052 52.6608 64.4219 52.6608ZM62.6808 52.4931C62.4975 52.4931 62.4059 52.2415 62.4059 52.0738C62.4975 51.9061 62.6808 51.8223 62.864 51.8223C63.0473 51.8223 63.139 52.0738 63.139 52.2415C63.0473 52.4092 62.9557 52.4931 62.6808 52.4931C62.6808 52.4931 62.7724 52.4931 62.6808 52.4931ZM61.0313 51.9061C60.848 51.8223 60.7564 51.6546 60.848 51.4868C60.9396 51.3191 61.1229 51.2353 61.3062 51.3191C61.4895 51.403 61.5811 51.5707 61.4895 51.7384C61.3978 51.8223 61.3062 51.9061 61.2146 51.9061C61.1229 51.9061 61.0313 51.9061 61.0313 51.9061ZM59.4734 50.9837C59.2902 50.8999 59.2902 50.6483 59.4734 50.5644C59.5651 50.3967 59.84 50.3967 59.9316 50.5644C60.1149 50.6483 60.1149 50.8999 60.0233 50.9837C59.9316 51.0676 59.84 51.0676 59.7483 51.0676C59.6567 51.0676 59.5651 51.0676 59.4734 50.9837ZM58.2821 49.8097C58.1905 49.642 58.1905 49.4743 58.3738 49.3905C58.5571 49.3066 58.7403 49.3066 58.832 49.4743C58.9236 49.642 58.9236 49.8097 58.7403 49.8936C58.6487 49.9775 58.6487 49.9775 58.5571 49.9775C58.4654 49.9775 58.2821 49.8936 58.2821 49.8097ZM57.2741 48.4681C57.1825 48.3004 57.2741 48.1327 57.4574 48.0488C57.6407 47.9649 57.824 48.0488 57.9156 48.2165C58.0072 48.3842 57.9156 48.5519 57.7323 48.6358C57.6407 48.6358 57.6407 48.6358 57.549 48.6358C57.4574 48.6358 57.3658 48.5519 57.2741 48.4681ZM56.7243 46.8748C56.7243 46.7071 56.8159 46.5394 56.9992 46.4556C57.1825 46.4556 57.3658 46.5394 57.3658 46.7071C57.3658 46.8748 57.2741 47.0425 57.0908 47.0425C57.0908 47.0425 57.0908 47.0425 56.9992 47.0425C56.9076 47.1264 56.8159 47.0425 56.7243 46.8748ZM56.541 45.2816C56.541 45.1139 56.7243 44.9462 56.9076 44.9462C57.0908 44.9462 57.2741 45.1139 57.2741 45.2816C57.2741 45.4493 57.0908 45.617 56.9076 45.617C56.7243 45.5332 56.541 45.4493 56.541 45.2816Z" fill="white"/>
<path d="M54.2503 45.5331H54.1587C53.9754 45.4493 53.8838 45.2816 53.9754 45.1139L64.3305 18.3642C64.4222 18.1965 64.6054 18.1126 64.7887 18.1965C64.972 18.2803 65.0636 18.448 64.972 18.6157L54.6169 45.3654C54.5252 45.4493 54.4336 45.5331 54.2503 45.5331Z" fill="white"/>
<path d="M64.9715 50.4806C61.7641 50.4806 59.1982 48.1327 59.1982 45.1978H59.9314C59.9314 47.7134 62.2223 49.8098 64.9715 49.8098C67.7206 49.8098 70.0116 47.7134 70.0116 45.1978H70.7447C70.653 48.1327 68.0871 50.4806 64.9715 50.4806Z" fill="white"/>
<path d="M64.6962 59.2015C56.2654 59.2015 49.3926 52.9124 49.3926 45.1977C49.3926 45.03 49.5759 44.8623 49.7591 44.8623H67.9035C68.0868 44.8623 68.27 45.03 68.27 45.1977C68.27 45.3654 68.0868 45.5331 67.9035 45.5331H50.1257C50.309 52.7447 56.8153 58.5306 64.6962 58.5306C72.7603 58.5306 79.2666 52.5769 79.2666 45.1977C79.2666 45.03 79.4499 44.8623 79.6332 44.8623C79.8165 44.8623 79.9997 45.03 79.9997 45.1977C79.9081 52.9962 73.1269 59.2015 64.6962 59.2015Z" fill="white"/>
<path d="M64.6967 20.5444C63.4138 20.5444 62.4058 19.622 62.4058 18.4481C62.4058 17.5257 62.9556 17.1064 63.5054 16.6871C63.9636 16.3517 64.3302 16.1001 64.3302 15.3454V13.4168C64.3302 13.2491 64.5134 13.0814 64.6967 13.0814C64.88 13.0814 65.0633 13.2491 65.0633 13.4168V15.3454C65.0633 16.3517 64.4218 16.771 63.9636 17.1064C63.5054 17.4418 63.1389 17.6934 63.1389 18.3642C63.1389 19.2028 63.872 19.8736 64.7884 19.8736C65.7047 19.8736 66.4378 19.2028 66.4378 18.3642C66.4378 18.1965 66.6211 18.0288 66.8044 18.0288C66.9877 18.0288 67.171 18.1965 67.171 18.3642C66.9877 19.622 65.9797 20.5444 64.6967 20.5444Z" fill="white"/>
<path d="M49.0265 62.2203C49.0265 62.0526 49.1182 61.9687 49.3014 61.9687C49.3931 61.9687 49.5764 62.0526 49.5764 62.2203C49.5764 62.388 49.4847 62.4718 49.3014 62.4718C49.1182 62.4718 49.0265 62.3041 49.0265 62.2203ZM50.4011 62.0526C50.3095 61.9687 50.4011 61.801 50.4927 61.7171C50.676 61.6333 50.7677 61.7171 50.8593 61.8849C50.9509 61.9687 50.8593 62.1364 50.676 62.2203H50.5844C50.4927 62.2203 50.4011 62.1364 50.4011 62.0526ZM47.7436 62.1364C47.652 62.1364 47.5603 61.9687 47.652 61.8849C47.7436 61.801 47.8352 61.7171 48.0185 61.801C48.1101 61.8849 48.2018 61.9687 48.1101 62.1364C48.1101 62.2203 48.0185 62.3041 47.8352 62.3041C47.8352 62.2203 47.8352 62.1364 47.7436 62.1364ZM51.5924 61.3817C51.5008 61.2979 51.5008 61.1302 51.5924 61.0463C51.684 60.9625 51.8673 60.9625 51.9589 61.0463C52.0506 61.1302 52.0506 61.2979 51.9589 61.3817C51.8673 61.4656 51.8673 61.4656 51.7757 61.4656C51.7757 61.4656 51.684 61.4656 51.5924 61.3817ZM46.5523 61.3817C46.4607 61.2979 46.4607 61.1302 46.5523 61.0463C46.6439 60.9625 46.8272 60.9625 46.9188 61.0463C47.0105 61.1302 47.0105 61.2979 46.9188 61.3817C46.9188 61.4656 46.8272 61.4656 46.7356 61.4656C46.6439 61.4656 46.5523 61.4656 46.5523 61.3817ZM52.5088 60.3755C52.4171 60.2916 52.3255 60.2078 52.3255 60.0401C52.4171 59.8723 52.5088 59.8723 52.6921 59.8723C52.7837 59.9562 52.8753 60.04 52.7837 60.2078C52.7837 60.2916 52.6921 60.3755 52.5088 60.3755C52.5088 60.3755 52.5088 60.4593 52.5088 60.3755ZM45.7276 60.2916C45.6359 60.2078 45.7276 60.04 45.9108 59.9562C46.0025 59.8723 46.1857 59.9562 46.2774 60.0401C46.369 60.1239 46.2774 60.2916 46.1857 60.3755H46.0941C45.8192 60.3755 45.7276 60.3755 45.7276 60.2916ZM52.6004 58.9499C52.6004 58.7822 52.6921 58.6984 52.8753 58.6984C52.967 58.6984 53.1502 58.7822 53.1502 58.9499C53.1502 59.0338 53.0586 59.2015 52.8753 59.2015C52.6921 59.2015 52.6004 59.0338 52.6004 58.9499ZM45.4526 58.9499C45.4526 58.9499 45.4526 58.8661 45.4526 58.9499C45.4526 58.8661 45.4526 58.8661 45.4526 58.9499C45.4526 58.7822 45.5443 58.6984 45.7276 58.6984C45.9108 58.6984 46.0025 58.7822 46.0025 58.9499C46.0025 59.1176 45.9108 59.2015 45.7276 59.2015C45.5443 59.1176 45.4526 59.0338 45.4526 58.9499ZM52.3255 57.776C52.3255 57.6921 52.3255 57.5244 52.5088 57.4405C52.6004 57.3567 52.7837 57.4406 52.8753 57.6083C52.967 57.6921 52.8753 57.8598 52.6921 57.9437H52.6004C52.5088 57.9437 52.4171 57.8598 52.3255 57.776ZM45.8192 57.8598C45.7276 57.776 45.6359 57.6921 45.6359 57.5244C45.7276 57.4406 45.8192 57.3567 46.0025 57.4405C46.0941 57.5244 46.1857 57.6083 46.0941 57.776C46.0941 57.8598 46.0025 57.9437 45.8192 57.9437C45.9108 57.8598 45.9108 57.8598 45.8192 57.8598ZM51.684 56.7697C51.5924 56.6859 51.5924 56.5181 51.684 56.4343C51.7757 56.3504 51.9589 56.3504 52.0506 56.4343C52.1422 56.5181 52.1422 56.6859 52.0506 56.7697C51.9589 56.8536 51.8673 56.8536 51.8673 56.8536C51.7757 56.8536 51.684 56.8536 51.684 56.7697ZM46.5523 56.6859C46.4607 56.602 46.4607 56.4343 46.5523 56.3504C46.6439 56.2666 46.8272 56.2666 46.9188 56.3504C47.0105 56.4343 47.0105 56.602 46.9188 56.6859C46.8272 56.6859 46.8272 56.7697 46.7356 56.7697C46.6439 56.7697 46.6439 56.7697 46.5523 56.6859ZM50.5844 56.0989C50.4011 56.015 50.4011 55.9312 50.4011 55.7635C50.4927 55.6796 50.5844 55.5957 50.7677 55.5957C50.8593 55.6796 50.9509 55.7635 50.8593 55.9312C50.8593 56.015 50.7677 56.0989 50.5844 56.0989C50.676 56.0989 50.5844 56.0989 50.5844 56.0989ZM47.652 55.9312C47.5603 55.8473 47.652 55.6796 47.8352 55.5957C47.9269 55.5119 48.1101 55.5957 48.2018 55.7635C48.2934 55.8473 48.2018 56.015 48.1101 56.0989H48.0185C47.8352 56.0989 47.7436 56.015 47.652 55.9312ZM49.3014 55.8473C49.1182 55.8473 49.0265 55.7635 49.0265 55.5957C49.0265 55.428 49.1182 55.3442 49.3014 55.3442C49.4847 55.3442 49.5764 55.428 49.5764 55.5957C49.5764 55.7635 49.4847 55.8473 49.3014 55.8473Z" fill="#B8814A"/>
<path d="M49.3014 60.8786C48.1101 60.8786 47.1021 59.9562 47.1021 58.8661C47.1021 57.776 48.1101 56.8536 49.3014 56.8536C50.4927 56.8536 51.5007 57.776 51.5007 58.8661C51.5007 60.0401 50.4927 60.8786 49.3014 60.8786ZM49.3014 57.3567C48.385 57.3567 47.6519 58.0275 47.6519 58.8661C47.6519 59.7046 48.385 60.3755 49.3014 60.3755C50.2177 60.3755 50.9509 59.7046 50.9509 58.8661C50.9509 58.1114 50.2177 57.3567 49.3014 57.3567Z" fill="#D4D8E4"/>
<path d="M64.9718 48.3004C63.1391 48.3004 61.6729 46.9587 61.6729 45.2816C61.6729 45.1139 61.8561 44.9462 62.0394 44.9462C62.2227 44.9462 62.406 45.1139 62.406 45.2816C62.406 46.6233 63.5973 47.7134 65.0635 47.7134C66.5297 47.7134 67.721 46.6233 67.721 45.2816C67.721 45.1139 67.9042 44.9462 68.0875 44.9462C68.2708 44.9462 68.4541 45.1139 68.4541 45.2816C68.2708 46.9587 66.713 48.3004 64.9718 48.3004Z" fill="white"/>
<path d="M43.7116 32.2003H36.2889C36.1056 32.2003 35.9224 32.0325 35.9224 31.8648C35.9224 31.6971 36.1056 31.5294 36.2889 31.5294H43.7116C43.8949 31.5294 44.0782 31.6971 44.0782 31.8648C44.0782 32.0325 43.8949 32.2003 43.7116 32.2003Z" fill="white"/>
<path d="M26.8498 30.6909C26.7581 30.6909 26.6665 30.607 26.6665 30.5232C26.6665 30.4393 26.7581 30.3555 26.8498 30.3555H29.2324C29.324 30.3555 29.4156 30.4393 29.4156 30.5232C29.4156 30.607 29.324 30.6909 29.2324 30.6909H26.8498Z" fill="#B8814A"/>
<path d="M27.3088 33.7936C27.2171 33.7936 27.1255 33.7097 27.1255 33.6258C27.1255 33.542 27.1255 33.4581 27.3088 33.3743L29.5997 32.7873C29.6914 32.7873 29.783 32.7873 29.8746 32.955C29.8746 33.0389 29.8746 33.1227 29.6914 33.2066L27.3088 33.7936C27.3088 33.7936 27.4004 33.7936 27.3088 33.7936Z" fill="#B8814A"/>
<path d="M28.6831 36.6446C28.5915 36.6446 28.4999 36.6446 28.4999 36.5607C28.4082 36.4769 28.4999 36.393 28.5915 36.3092L30.6076 35.2191C30.6992 35.1352 30.7908 35.2191 30.8825 35.3029C30.9741 35.3868 30.8825 35.4706 30.7908 35.5545L28.7748 36.6446C28.6831 36.6446 28.6831 36.6446 28.6831 36.6446Z" fill="#B8814A"/>
<path d="M30.6988 39.1602C30.6071 39.1602 30.6071 39.1602 30.5155 39.0763C30.4239 38.9925 30.4239 38.9086 30.5155 38.8248L32.165 37.2315C32.2566 37.1477 32.3483 37.1477 32.4399 37.2315C32.5315 37.3154 32.5315 37.3992 32.4399 37.4831L30.7904 39.0763C30.7904 39.0763 30.7904 39.1602 30.6988 39.1602Z" fill="#B8814A"/>
<path d="M33.4479 41.005H33.3563C33.2647 40.9212 33.2646 40.8373 33.2646 40.7535L34.4559 38.8248C34.5476 38.741 34.6392 38.741 34.7309 38.741C34.8225 38.8248 34.8225 38.9087 34.8225 38.9925L33.6312 40.9212C33.5396 41.005 33.5396 41.005 33.4479 41.005Z" fill="#B8814A"/>
<path d="M46.5527 41.005C46.461 41.005 46.3694 41.0051 46.3694 40.9212L45.1781 38.9925C45.0865 38.9087 45.1781 38.8248 45.2697 38.741C45.3614 38.6571 45.453 38.741 45.5446 38.8248L46.7359 40.7535C46.8276 40.8373 46.7359 40.9212 46.6443 41.005C46.5527 41.005 46.5527 41.005 46.5527 41.005Z" fill="#B8814A"/>
<path d="M49.2096 39.1602C49.118 39.1602 49.118 39.1602 49.0263 39.0763L47.3768 37.4831C47.2852 37.3992 47.2852 37.3154 47.3768 37.2315C47.4685 37.1477 47.5601 37.1477 47.6517 37.2315L49.3012 38.8248C49.3929 38.9086 49.3929 38.9925 49.3012 39.0763C49.3012 39.0763 49.3012 39.1602 49.2096 39.1602Z" fill="#B8814A"/>
<path d="M51.317 36.6446H51.2254L49.2093 35.5545C49.1177 35.4706 49.1177 35.3868 49.1177 35.3029C49.2093 35.2191 49.301 35.2191 49.3926 35.2191L51.4086 36.3092C51.5003 36.393 51.5003 36.4769 51.5003 36.5607C51.4086 36.6446 51.4086 36.6446 51.317 36.6446Z" fill="#B8814A"/>
<path d="M52.6005 33.7936L50.2179 33.2066C50.1263 33.2066 50.0347 33.0389 50.0347 32.955C50.0347 32.8711 50.2179 32.7873 50.3096 32.7873L52.6005 33.3743C52.6922 33.3743 52.7838 33.542 52.7838 33.6258C52.7838 33.7097 52.6922 33.7936 52.6005 33.7936Z" fill="#B8814A"/>
<path d="M53.0585 30.6909H50.676C50.5843 30.6909 50.4927 30.607 50.4927 30.5232C50.4927 30.4393 50.5843 30.3555 50.676 30.3555H53.0585C53.1502 30.3555 53.2418 30.4393 53.2418 30.5232C53.2418 30.607 53.1502 30.6909 53.0585 30.6909Z" fill="#B8814A"/>
<path d="M50.3093 28.0914C50.2176 28.0914 50.126 28.0076 50.126 27.9237C50.126 27.8398 50.126 27.756 50.3093 27.6721L52.6002 27.169C52.6918 27.169 52.7835 27.169 52.8751 27.3367C52.8751 27.4206 52.8751 27.5044 52.6918 27.5883L50.3093 28.0914C50.3093 28.0914 50.4009 28.0914 50.3093 28.0914Z" fill="#B8814A"/>
<path d="M49.2095 25.7435C49.1179 25.7435 49.0262 25.7435 49.0262 25.6596C48.9346 25.5758 49.0262 25.4919 49.1179 25.408L51.1339 24.3179C51.2256 24.2341 51.3172 24.3179 51.4088 24.4018C51.5005 24.4856 51.4088 24.5695 51.3172 24.6534L49.3012 25.7435C49.3012 25.7435 49.3012 25.7435 49.2095 25.7435Z" fill="#B8814A"/>
<path d="M47.5601 23.7309C47.4685 23.7309 47.4685 23.7309 47.3768 23.6471C47.2852 23.5632 47.2852 23.4794 47.3768 23.3955L49.0263 21.8861C49.118 21.8023 49.2096 21.8023 49.3012 21.8861C49.3929 21.97 49.3929 22.0538 49.3012 22.1377L47.6517 23.6471L47.5601 23.7309Z" fill="#B8814A"/>
<path d="M45.361 22.1377H45.2694C45.1777 22.0538 45.1777 21.97 45.1777 21.8861L46.369 20.0413C46.4607 19.9575 46.5523 19.9575 46.6439 19.9575C46.7356 19.9575 46.7356 20.1252 46.7356 20.209L45.5443 22.0538C45.4527 22.1377 45.361 22.1377 45.361 22.1377Z" fill="#B8814A"/>
<path d="M34.6396 22.1377C34.5479 22.1377 34.4563 22.1377 34.4563 22.0538L33.265 20.209C33.1734 20.1252 33.265 20.0413 33.3566 19.9575C33.4483 19.8736 33.5399 19.9575 33.6316 20.0413L34.8229 21.8861C34.9145 21.97 34.8229 22.0538 34.7312 22.1377C34.7312 22.1377 34.6396 22.1377 34.6396 22.1377Z" fill="#B8814A"/>
<path d="M32.4401 23.7309C32.3484 23.7309 32.3484 23.7309 32.2568 23.6471L30.6073 22.1377C30.5157 22.0538 30.5157 21.97 30.6073 21.8861C30.6989 21.8023 30.7906 21.8023 30.8822 21.8861L32.5317 23.3955C32.6233 23.4794 32.6233 23.5632 32.5317 23.6471C32.5317 23.6471 32.4401 23.7309 32.4401 23.7309Z" fill="#B8814A"/>
<path d="M30.6983 25.7435H30.6067L28.5907 24.6533C28.499 24.5695 28.499 24.4856 28.499 24.4018C28.5907 24.3179 28.6823 24.3179 28.7739 24.3179L30.79 25.408C30.8816 25.4919 30.8816 25.5758 30.8816 25.6596C30.8816 25.6596 30.79 25.7435 30.6983 25.7435Z" fill="#B8814A"/>
<path d="M29.5991 28.0914L27.2165 27.5883C27.1248 27.5883 27.0332 27.4206 27.0332 27.3367C27.0332 27.2529 27.2165 27.169 27.3081 27.169L29.5991 27.6721C29.6907 27.6721 29.7823 27.8398 29.7823 27.9237C29.7823 28.0076 29.6907 28.0914 29.5991 28.0914Z" fill="#B8814A"/>
<path d="M23.8255 5.45054C23.7339 5.45054 23.6422 5.36669 23.6422 5.28283C23.6422 5.19898 23.7339 5.11512 23.8255 5.11512C23.9171 5.11512 24.0088 5.19898 24.0088 5.28283C24.0088 5.36669 23.9171 5.45054 23.8255 5.45054ZM24.9252 5.11512C24.9252 5.03127 24.9252 4.94741 25.0168 4.86356C25.1084 4.86356 25.2001 4.86356 25.2917 4.94741C25.3834 5.03127 25.2917 5.11512 25.2001 5.19898H25.1084C25.1084 5.19898 25.0168 5.19898 24.9252 5.11512ZM22.4509 5.03127C22.3593 4.94741 22.3593 4.86356 22.4509 4.7797C22.5426 4.69585 22.6342 4.69585 22.7258 4.69585C22.8175 4.7797 22.8175 4.86356 22.7258 4.94741C22.7258 5.03127 22.6342 5.03127 22.5426 5.03127H22.4509ZM26.1165 4.44428C26.0248 4.36043 26.1165 4.27657 26.2081 4.19272C26.2997 4.10886 26.3914 4.19272 26.483 4.27657C26.5747 4.36043 26.483 4.44428 26.3914 4.52814H26.2997C26.2081 4.52814 26.1165 4.44428 26.1165 4.44428ZM21.3513 4.36043C21.2596 4.36043 21.168 4.19272 21.2596 4.10886C21.2596 4.02501 21.4429 3.94115 21.5346 4.02501C21.6262 4.02501 21.7178 4.19272 21.6262 4.27657C21.5346 4.27657 21.4429 4.36043 21.3513 4.36043ZM27.3994 4.02501C27.3994 3.94115 27.491 3.8573 27.5827 3.8573C27.6743 3.8573 27.7659 3.94115 27.7659 4.02501C27.7659 4.10886 27.6743 4.19272 27.5827 4.19272C27.491 4.19272 27.3994 4.10886 27.3994 4.02501Z" fill="#B8814A"/>
<path d="M17.869 3.18647C17.7774 3.10262 17.869 3.01876 17.9607 2.93491C18.0523 2.85105 18.1439 2.93491 18.2356 3.01876C18.3272 3.10262 18.2356 3.18647 18.1439 3.27033H18.0523C17.9607 3.35418 17.869 3.27033 17.869 3.18647ZM18.9687 2.51563C18.877 2.43178 18.9687 2.34792 19.0603 2.26407C19.1519 2.18021 19.2436 2.26407 19.3352 2.34792C19.4269 2.43178 19.3352 2.51563 19.2436 2.59949H19.1519C19.0603 2.59949 19.0603 2.59949 18.9687 2.51563ZM20.2516 2.09636C20.2516 2.0125 20.3432 1.92865 20.4349 1.92865C20.5265 1.92865 20.6182 2.0125 20.6182 2.09636C20.6182 2.18021 20.5265 2.26407 20.4349 2.26407C20.3432 2.26407 20.2516 2.18021 20.2516 2.09636Z" fill="#B8814A"/>
<path d="M24.0091 3.52189C23.0927 3.52189 22.5429 3.18647 22.0847 2.85105C21.6265 2.51563 21.26 2.26407 20.4352 2.26407C20.3436 2.26407 20.252 2.18021 20.252 2.09636C20.252 2.0125 20.3436 1.92865 20.4352 1.92865C21.3516 1.92865 21.9014 2.26407 22.3596 2.59949C22.8178 2.85105 23.1844 3.18647 24.0091 3.18647C24.8339 3.18647 25.2004 2.93491 25.6586 2.59949C26.1168 2.26407 26.575 1.92865 27.583 1.92865C27.6746 1.92865 27.7663 2.0125 27.7663 2.09636C27.7663 2.18021 27.6746 2.26407 27.583 2.26407C26.7583 2.26407 26.3917 2.51563 25.9335 2.85105C25.4753 3.18647 25.0171 3.52189 24.0091 3.52189Z" fill="#B8814A"/>
<path d="M30.9733 3.35421C30.9733 3.27035 31.0649 3.1865 31.1565 3.1865C31.2482 3.1865 31.3398 3.27035 31.3398 3.35421C31.3398 3.43806 31.2482 3.52192 31.1565 3.52192C31.0649 3.52192 30.9733 3.43806 30.9733 3.35421ZM29.6903 3.1865C29.5987 3.10264 29.5987 3.01879 29.5987 2.93493C29.6903 2.85108 29.782 2.85108 29.8736 2.85108C29.9652 2.93493 29.9652 3.01879 29.9652 3.10264C29.9652 3.1865 29.8736 3.1865 29.8736 3.1865C29.782 3.1865 29.782 3.1865 29.6903 3.1865ZM28.5907 2.51566C28.499 2.43181 28.499 2.34795 28.499 2.2641C28.5907 2.18024 28.6823 2.09639 28.7739 2.18024C28.8656 2.18024 28.9572 2.34795 28.8656 2.43181C28.8656 2.51566 28.7739 2.51566 28.6823 2.51566C28.6823 2.51566 28.6823 2.51566 28.5907 2.51566Z" fill="#B8814A"/>
<path d="M23.8255 1.6771C23.7339 1.6771 23.6422 1.59324 23.6422 1.50939C23.6422 1.42553 23.7339 1.34168 23.8255 1.34168C23.9171 1.34168 24.0088 1.42553 24.0088 1.50939C24.0088 1.59324 23.9171 1.6771 23.8255 1.6771ZM24.9252 1.34168C24.9252 1.25782 24.9252 1.17397 25.0168 1.09011C25.1084 1.09011 25.2001 1.09011 25.2917 1.17397C25.3834 1.25782 25.2917 1.34168 25.2001 1.42553H25.1084C25.1084 1.42553 25.0168 1.34168 24.9252 1.34168ZM22.4509 1.17397C22.3593 1.09011 22.3593 1.00626 22.3593 0.922403C22.4509 0.838548 22.5426 0.838548 22.6342 0.838548C22.7258 0.922403 22.7258 1.00626 22.6342 1.09011C22.6342 1.17397 22.5426 1.17397 22.4509 1.17397C22.4509 1.17397 22.5426 1.25782 22.4509 1.17397ZM26.1165 0.586984C26.0248 0.503129 26.1165 0.419274 26.2081 0.335419C26.2997 0.251564 26.3914 0.335419 26.483 0.419274C26.5747 0.503129 26.483 0.586984 26.3914 0.670839H26.2997C26.2081 0.670839 26.1165 0.670839 26.1165 0.586984ZM21.3513 0.503129C21.2596 0.419274 21.168 0.335419 21.2596 0.251564C21.2596 0.16771 21.4429 0.0838549 21.5346 0.16771C21.6262 0.16771 21.7178 0.335419 21.6262 0.419274C21.5346 0.503129 21.4429 0.503129 21.3513 0.503129ZM27.3994 0.16771C27.3994 0.0838549 27.491 0 27.5827 0C27.6743 0 27.7659 0.0838549 27.7659 0.16771C27.7659 0.251564 27.6743 0.335419 27.5827 0.335419C27.491 0.419274 27.3994 0.335419 27.3994 0.16771Z" fill="#B8814A"/>
<path d="M55.8997 5.28283C55.8997 5.19898 55.9914 5.11512 56.083 5.11512C56.1747 5.11512 56.2663 5.19898 56.2663 5.28283C56.2663 5.36669 56.1747 5.45054 56.083 5.45054C55.9914 5.45054 55.8997 5.36669 55.8997 5.28283ZM54.7084 5.19898C54.6168 5.11512 54.6168 5.03127 54.6168 4.94741C54.6168 4.86356 54.8001 4.86356 54.8917 4.86356C54.9834 4.94741 54.9834 5.03127 54.9834 5.11512C54.9834 5.19898 54.8917 5.19898 54.8001 5.19898H54.7084ZM57.1827 4.94741C57.091 4.86356 57.1827 4.7797 57.2743 4.69585C57.366 4.61199 57.4576 4.69585 57.5492 4.7797C57.6409 4.86356 57.5492 4.94741 57.4576 5.03127H57.366C57.366 5.03127 57.2743 5.03127 57.1827 4.94741ZM53.5172 4.52814C53.4255 4.44428 53.4255 4.36043 53.4255 4.27657C53.5171 4.19272 53.6088 4.19272 53.7004 4.19272C53.7921 4.27657 53.7921 4.36043 53.7921 4.44428C53.7921 4.52814 53.7004 4.52814 53.6088 4.52814C53.6088 4.52814 53.6088 4.52814 53.5172 4.52814ZM58.374 4.19272C58.2823 4.10886 58.374 4.02501 58.4656 3.94115C58.5572 3.94115 58.6489 3.94115 58.7405 4.02501C58.7405 4.10886 58.7405 4.19272 58.6489 4.27657H58.5573C58.4656 4.36043 58.374 4.27657 58.374 4.19272ZM52.1426 4.02501C52.1426 3.94115 52.2342 3.8573 52.3259 3.8573C52.4175 3.8573 52.5091 3.94115 52.5091 4.02501C52.5091 4.10886 52.4175 4.19272 52.3259 4.19272C52.2342 4.19272 52.1426 4.10886 52.1426 4.02501Z" fill="#B8814A"/>
<path d="M61.8554 3.27033C61.7638 3.27033 61.6721 3.10262 61.7638 3.01876C61.8554 2.93491 61.9471 2.85105 62.0387 2.93491C62.1303 3.01876 62.1303 3.10262 62.1303 3.18647C62.1303 3.27033 62.0387 3.27033 61.9471 3.27033C61.8554 3.35418 61.8554 3.35418 61.8554 3.27033ZM60.6641 2.59949C60.5725 2.51563 60.5725 2.43178 60.5725 2.34792C60.6641 2.26407 60.7558 2.26407 60.8474 2.26407C60.939 2.34792 60.939 2.43178 60.939 2.51563C60.939 2.59949 60.8474 2.59949 60.7558 2.59949H60.6641ZM59.2896 2.09636C59.2896 2.0125 59.3812 1.92865 59.4728 1.92865C59.5645 1.92865 59.6561 2.0125 59.6561 2.09636C59.6561 2.18021 59.5645 2.26407 59.4728 2.26407C59.3812 2.26407 59.2896 2.18021 59.2896 2.09636Z" fill="#B8814A"/>
<path d="M55.8997 3.52189C54.9834 3.52189 54.4335 3.18647 53.9753 2.85105C53.5172 2.51563 53.1506 2.26407 52.3259 2.26407C52.2342 2.26407 52.1426 2.18021 52.1426 2.09636C52.1426 2.0125 52.2342 1.92865 52.3259 1.92865C53.2422 1.92865 53.7921 2.26407 54.2503 2.59949C54.7084 2.85105 55.075 3.18647 55.8997 3.18647C56.7245 3.18647 57.091 2.93491 57.5492 2.59949C58.0074 2.26407 58.4656 1.92865 59.4736 1.92865C59.5653 1.92865 59.6569 2.0125 59.6569 2.09636C59.6569 2.18021 59.5653 2.26407 59.4736 2.26407C58.6489 2.26407 58.2823 2.51563 57.8241 2.85105C57.366 3.18647 56.9078 3.52189 55.8997 3.52189Z" fill="#B8814A"/>
<path d="M48.5684 3.35421C48.5684 3.27035 48.66 3.1865 48.7516 3.1865C48.8433 3.1865 48.9349 3.27035 48.9349 3.35421C48.9349 3.43806 48.8433 3.52192 48.7516 3.52192C48.66 3.52192 48.5684 3.43806 48.5684 3.35421ZM49.9429 3.1865C49.8513 3.10264 49.9429 3.01879 50.0346 2.93493C50.1262 2.85108 50.2178 2.93494 50.3095 3.01879C50.4011 3.10264 50.3095 3.1865 50.2178 3.27035H50.1262C50.0346 3.1865 49.9429 3.1865 49.9429 3.1865ZM51.0426 2.43181C50.951 2.34795 51.0426 2.2641 51.1342 2.18024C51.2259 2.09639 51.3175 2.18024 51.4091 2.2641C51.5008 2.34795 51.4091 2.43181 51.3175 2.51566H51.2259C51.1342 2.51566 51.0426 2.51566 51.0426 2.43181Z" fill="#B8814A"/>
<path d="M55.8993 1.42553C55.8993 1.34168 55.9909 1.25782 56.0825 1.25782C56.1742 1.25782 56.2658 1.34168 56.2658 1.42553C56.2658 1.50939 56.1742 1.59324 56.0825 1.59324C55.9909 1.6771 55.8993 1.59324 55.8993 1.42553ZM54.708 1.42553C54.6163 1.34168 54.6163 1.25782 54.6163 1.17397C54.708 1.09011 54.7996 1.00626 54.8912 1.09011C54.9829 1.09011 54.9829 1.25782 54.9829 1.34168C54.9829 1.42553 54.8912 1.42553 54.7996 1.42553C54.7996 1.42553 54.708 1.42553 54.708 1.42553ZM57.1822 1.09011C57.0906 1.00626 57.1822 0.922403 57.2738 0.838548C57.3655 0.754693 57.4571 0.838548 57.5487 0.922403C57.6404 1.00626 57.5487 1.09011 57.4571 1.17397H57.3655C57.3655 1.25782 57.2738 1.17397 57.1822 1.09011ZM53.5167 0.670839C53.425 0.586984 53.425 0.503129 53.425 0.419274C53.5167 0.335419 53.6083 0.335419 53.6999 0.335419C53.7916 0.419274 53.7916 0.503129 53.7916 0.586984C53.7916 0.670839 53.6999 0.670839 53.6999 0.670839C53.6083 0.670839 53.6083 0.670839 53.5167 0.670839ZM58.3735 0.419274C58.2818 0.335419 58.3735 0.251564 58.4651 0.16771C58.5568 0.0838549 58.6484 0.16771 58.74 0.251564C58.74 0.335419 58.74 0.419274 58.6484 0.503129H58.5568C58.4651 0.503129 58.3735 0.503129 58.3735 0.419274ZM52.1421 0.16771C52.1421 0.0838549 52.2337 0 52.3254 0C52.417 0 52.5086 0.0838549 52.5086 0.16771C52.5086 0.251564 52.417 0.335419 52.3254 0.335419C52.2337 0.419274 52.1421 0.335419 52.1421 0.16771Z" fill="#B8814A"/>
<path d="M11.0884 60.8786C10.9968 60.8786 10.9968 60.8786 10.9051 60.7948C10.8135 60.7948 10.8135 60.7109 10.8135 60.6271C10.8135 60.5432 10.8135 60.5432 10.9051 60.4593C10.9968 60.4593 10.9968 60.3755 11.0884 60.3755C11.18 60.3755 11.2717 60.3755 11.2717 60.4593C11.2717 60.5432 11.3633 60.5432 11.3633 60.6271C11.3633 60.7109 11.3633 60.7948 11.2717 60.7948C11.2717 60.7948 11.18 60.8786 11.0884 60.8786Z" fill="#B8814A"/>
<path d="M16.1286 61.3817C16.1286 61.214 16.2202 61.1302 16.4035 61.1302C16.4951 61.1302 16.6784 61.214 16.6784 61.3817C16.6784 61.5494 16.5868 61.6333 16.4035 61.6333C16.3119 61.5494 16.2202 61.4656 16.1286 61.3817ZM14.5707 61.5494C14.3875 61.5494 14.2958 61.4656 14.2958 61.2979C14.2958 61.1302 14.3875 61.0463 14.5707 61.1302C14.6624 61.1302 14.8456 61.214 14.754 61.3817C14.8456 61.4656 14.754 61.5494 14.5707 61.5494ZM17.9613 61.1302C17.9613 60.9625 18.053 60.8786 18.1446 60.8786C18.2363 60.8786 18.4195 60.9625 18.4195 61.0463C18.4195 61.214 18.3279 61.2979 18.2363 61.2979C18.2363 61.2979 18.2363 61.2979 18.1446 61.2979C18.053 61.2979 17.9613 61.214 17.9613 61.1302ZM12.738 61.2979C12.6463 61.2979 12.5547 61.1302 12.5547 61.0463C12.5547 60.8786 12.738 60.8786 12.8296 60.8786C12.9212 60.8786 13.0129 61.0463 13.0129 61.1302C13.1045 61.214 12.9212 61.2979 12.738 61.2979C12.8296 61.2979 12.8296 61.2979 12.738 61.2979Z" fill="#B8814A"/>
<path d="M19.9771 60.8786C19.8854 60.8786 19.8854 60.8786 19.7938 60.7947C19.7021 60.7109 19.7021 60.7109 19.7021 60.627C19.7021 60.5432 19.7021 60.5432 19.7938 60.4593C19.8854 60.3755 20.0687 60.3755 20.1603 60.4593C20.1603 60.5432 20.252 60.5432 20.252 60.627C20.252 60.7109 20.252 60.7947 20.1603 60.7947C20.0687 60.7947 19.9771 60.8786 19.9771 60.8786Z" fill="#B8814A"/>
<path d="M68.8203 60.8786C68.7287 60.8786 68.7287 60.8786 68.637 60.7947C68.5454 60.7109 68.5454 60.7109 68.5454 60.627C68.5454 60.5432 68.5454 60.5432 68.637 60.4593C68.7287 60.3755 68.912 60.3755 69.0036 60.4593C69.0036 60.5432 69.0952 60.5432 69.0952 60.627C69.0952 60.7109 69.0952 60.7947 69.0036 60.7947C69.0036 60.7947 68.912 60.8786 68.8203 60.8786Z" fill="#B8814A"/>
<path d="M65.0631 61.3817C65.0631 61.214 65.1548 61.1302 65.3381 61.1302C65.4297 61.1302 65.613 61.214 65.613 61.2979C65.613 61.4656 65.5213 61.5494 65.4297 61.5494C65.1548 61.5494 65.0631 61.4656 65.0631 61.3817ZM63.5053 61.5494C63.4137 61.5494 63.2304 61.4656 63.2304 61.2979C63.2304 61.1302 63.322 61.0463 63.5053 61.0463C63.5969 61.0463 63.7802 61.1302 63.6886 61.2979C63.7802 61.4656 63.6886 61.5494 63.5053 61.5494ZM66.8043 61.1302C66.8043 60.9625 66.8959 60.8786 66.9875 60.8786C67.1708 60.8786 67.2625 60.9625 67.2625 61.0463C67.2625 61.214 67.1708 61.2979 67.0792 61.2979C67.0792 61.2979 67.0792 61.2979 66.9875 61.2979C66.9875 61.2979 66.8959 61.214 66.8043 61.1302ZM61.6725 61.2979C61.4893 61.2979 61.4893 61.1302 61.4893 61.0463C61.4893 60.8786 61.6725 60.8786 61.7642 60.8786C61.8558 60.8786 61.9474 61.0463 61.9474 61.1302C61.9474 61.214 61.8558 61.2979 61.6725 61.2979Z" fill="#B8814A"/>
<path d="M60.0235 60.8786C59.9318 60.8786 59.9318 60.8786 59.8402 60.7948C59.7485 60.7948 59.7485 60.7109 59.7485 60.6271C59.7485 60.5432 59.7485 60.5432 59.8402 60.4593C59.8402 60.4593 59.9318 60.3755 60.0235 60.3755C60.1151 60.3755 60.1151 60.3755 60.2067 60.4593C60.2067 60.5432 60.2984 60.5432 60.2984 60.6271C60.2984 60.7109 60.2984 60.7948 60.2067 60.7948C60.1151 60.7948 60.0235 60.8786 60.0235 60.8786Z" fill="#B8814A"/>
<path d="M25.659 45.5332C25.5674 45.5332 25.4758 45.5332 25.3841 45.4493C25.2925 45.3655 25.2925 45.2816 25.2925 45.1978C25.2925 45.1139 25.2925 45.03 25.3841 44.9462C25.4758 44.8623 25.7507 44.8623 25.8423 44.9462C25.9339 45.03 25.9339 45.1139 25.9339 45.1978C25.9339 45.2816 25.9339 45.3655 25.8423 45.4493C25.8423 45.5332 25.7507 45.5332 25.659 45.5332Z" fill="white"/>
<path d="M16.5869 54.6733C16.5869 54.5056 16.6786 54.3379 16.8618 54.3379C17.0451 54.3379 17.2284 54.4218 17.2284 54.5895C17.2284 54.7572 17.1367 54.9249 16.9535 54.9249C16.9535 54.9249 16.9535 54.9249 16.8618 54.9249C16.7702 54.9249 16.5869 54.8411 16.5869 54.6733ZM18.1448 54.4218C18.0531 54.2541 18.1448 54.0864 18.328 54.0025C18.5113 53.9186 18.6946 54.0025 18.7862 54.1702C18.8779 54.3379 18.7862 54.5056 18.603 54.5895H18.5113C18.328 54.5895 18.2364 54.5056 18.1448 54.4218ZM19.7026 53.8348C19.611 53.6671 19.7026 53.4994 19.8859 53.4155C20.0692 53.3317 20.2524 53.4155 20.3441 53.5832C20.4357 53.7509 20.3441 53.9186 20.1608 54.0025C20.0692 54.0025 20.0692 54.0025 19.9775 54.0025C19.8859 54.0025 19.7026 54.0025 19.7026 53.8348ZM21.0772 53.0801C20.9855 52.9124 20.9855 52.7447 21.1688 52.6608C21.3521 52.577 21.5354 52.577 21.627 52.7447C21.7187 52.9124 21.7187 53.0801 21.5354 53.164C21.4437 53.164 21.4437 53.2478 21.3521 53.2478C21.2605 53.2478 21.1688 53.2478 21.0772 53.0801ZM22.3601 52.1577C22.2685 51.99 22.2685 51.8223 22.3601 51.7384C22.4518 51.6546 22.7267 51.5707 22.8183 51.7384C22.9099 51.8223 22.9099 52.0738 22.8183 52.1577C22.7267 52.2416 22.635 52.2416 22.5434 52.2416C22.5434 52.2416 22.4518 52.2416 22.3601 52.1577ZM23.4598 51.0676C23.2765 50.9837 23.2765 50.7322 23.3681 50.6483C23.4598 50.4806 23.7347 50.4806 23.8263 50.5645C24.0096 50.6483 24.0096 50.8999 23.918 50.9837C23.8263 51.0676 23.7347 51.1514 23.6431 51.1514C23.6431 51.1514 23.5514 51.1514 23.4598 51.0676ZM24.3762 49.8098C24.1929 49.7259 24.1012 49.5582 24.1929 49.3905C24.2845 49.2228 24.4678 49.1389 24.6511 49.2228C24.8343 49.3066 24.926 49.4743 24.8344 49.6421C24.7427 49.7259 24.6511 49.8098 24.5594 49.8098C24.4678 49.8936 24.3762 49.8936 24.3762 49.8098ZM25.0176 48.4681C24.8343 48.3842 24.7427 48.2165 24.8344 48.0488C24.926 47.8811 25.1093 47.7972 25.2925 47.8811C25.4758 47.965 25.5675 48.1327 25.4758 48.3004C25.3842 48.4681 25.2925 48.5519 25.1093 48.5519C25.1093 48.4681 25.1093 48.4681 25.0176 48.4681ZM25.4758 47.0426C25.2925 47.0426 25.2009 46.8748 25.2009 46.7071C25.2009 46.5394 25.3842 46.4556 25.5675 46.4556C25.7507 46.4556 25.8424 46.6233 25.8424 46.791C25.8424 46.9587 25.6591 47.0426 25.4758 47.0426Z" fill="white"/>
<path d="M15.3036 55.0927C15.2119 55.0927 15.1203 55.0927 15.0287 55.0088C14.937 54.9249 14.937 54.8411 14.937 54.7572C14.937 54.6734 14.937 54.5895 15.0287 54.5057C15.1203 54.4218 15.3952 54.4218 15.4868 54.5057C15.5785 54.5895 15.5785 54.6734 15.5785 54.7572C15.5785 54.8411 15.5785 54.9249 15.4868 55.0088C15.4868 55.0088 15.3952 55.0927 15.3036 55.0927Z" fill="white"/>
<path d="M39.9542 52.6608C39.7709 52.6608 39.5876 52.4931 39.5876 52.3254C39.5876 46.204 39.0378 41.005 38.5796 35.8899C38.1214 31.5294 37.7549 27.3367 37.7549 23.0601V22.8085C37.7549 22.6408 37.8465 22.557 37.9382 22.4731C37.9382 22.4731 39.5876 21.7184 39.5876 16.184C39.5876 16.0163 39.7709 15.8486 39.9542 15.8486C40.1375 15.8486 40.3208 16.0163 40.3208 16.184C40.3208 21.7184 41.9702 22.4731 41.9702 22.4731C42.0619 22.557 42.1535 22.6408 42.1535 22.7247V22.9762C42.1535 27.2528 41.6953 31.3617 41.3288 35.806C40.8706 40.8373 40.3208 46.1202 40.3208 52.2416C40.3208 52.577 40.1375 52.6608 39.9542 52.6608ZM38.488 23.1439C38.488 27.4205 38.9462 31.5294 39.3127 35.9737C39.5876 38.4055 39.7709 40.8373 39.9542 43.4368C40.1375 40.8373 40.4124 38.4055 40.5957 35.9737C41.0539 31.6133 41.4204 27.4205 41.4204 23.2278V23.1439C41.0539 22.8924 40.3207 22.2215 39.9542 20.209C39.5876 22.1377 38.8545 22.8924 38.488 23.1439Z" fill="white"/>
<path d="M39.6792 28.3429C39.6792 28.1752 39.7708 28.0914 39.9541 28.0914C40.1374 28.0914 40.229 28.1752 40.229 28.3429C40.229 28.5106 40.1374 28.5945 39.9541 28.5945C39.8625 28.5106 39.6792 28.4268 39.6792 28.3429ZM39.6792 26.7497C39.6792 26.582 39.7708 26.4981 39.9541 26.4981C40.1374 26.4981 40.229 26.582 40.229 26.7497C40.229 26.9174 40.1374 27.0013 39.9541 27.0013C39.8625 27.0013 39.6792 26.8335 39.6792 26.7497ZM39.6792 25.1565C39.6792 24.9887 39.7708 24.9049 39.9541 24.9049C40.1374 24.9049 40.229 24.9887 40.229 25.1565C40.229 25.3242 40.1374 25.408 39.9541 25.408C39.8625 25.408 39.6792 25.3242 39.6792 25.1565ZM39.6792 23.5632C39.6792 23.3955 39.7708 23.3116 39.9541 23.3116C40.1374 23.3116 40.229 23.3955 40.229 23.5632C40.229 23.7309 40.1374 23.8148 39.9541 23.8148C39.8625 23.8148 39.6792 23.7309 39.6792 23.5632Z" fill="#B8814A"/>
<path d="M16.4954 36.4768H14.571C14.4793 36.4768 14.3877 36.393 14.3877 36.3091C14.3877 36.2253 14.4793 36.1414 14.571 36.1414H16.4954C16.587 36.1414 16.6787 36.2253 16.6787 36.3091C16.6787 36.393 16.587 36.4768 16.4954 36.4768Z" fill="white"/>
<path d="M17.5031 38.0701H13.5627C13.471 38.0701 13.3794 37.9862 13.3794 37.9024C13.3794 37.8185 13.471 37.7347 13.5627 37.7347H17.5031C17.5948 37.7347 17.6864 37.8185 17.6864 37.9024C17.6864 37.9862 17.5948 38.0701 17.5031 38.0701Z" fill="white"/>
<path d="M16.4954 39.6633H14.571C14.4793 39.6633 14.3877 39.5794 14.3877 39.4956C14.3877 39.4117 14.4793 39.3279 14.571 39.3279H16.4954C16.587 39.3279 16.6787 39.4117 16.6787 39.4956C16.6787 39.5794 16.587 39.6633 16.4954 39.6633Z" fill="white"/>
<path d="M65.3381 36.4768H63.4137C63.3221 36.4768 63.2305 36.393 63.2305 36.3091C63.2305 36.2253 63.3221 36.1414 63.4137 36.1414H65.3381C65.4298 36.1414 65.5214 36.2253 65.5214 36.3091C65.6131 36.393 65.5214 36.4768 65.3381 36.4768Z" fill="white"/>
<path d="M66.4382 38.0701H62.4977C62.4061 38.0701 62.3145 37.9862 62.3145 37.9024C62.3145 37.8185 62.4061 37.7347 62.4977 37.7347H66.4382C66.5298 37.7347 66.6214 37.8185 66.6214 37.9024C66.6214 37.9862 66.5298 38.0701 66.4382 38.0701Z" fill="white"/>
<path d="M65.3381 39.6633H63.4137C63.3221 39.6633 63.2305 39.5794 63.2305 39.4956C63.2305 39.4117 63.3221 39.3279 63.4137 39.3279H65.3381C65.4298 39.3279 65.5214 39.4117 65.5214 39.4956C65.5214 39.5794 65.5214 39.6633 65.3381 39.6633Z" fill="white"/>
</g>
<defs>
<clipPath id="clip0">
<rect width="79.9998" height="67" fill="white"/>
</clipPath>
</defs>
</svg>
