<svg width="80" height="67" viewBox="0 0 80 67" fill="none" xmlns="http://www.w3.org/2000/svg">
<g clip-path="url(#clip0)">
<path d="M30.3597 3.07863C29.5462 3.07863 28.814 2.4305 28.814 1.53933C28.814 0.648156 29.4648 3.05176e-05 30.3597 3.05176e-05C31.2546 3.05176e-05 31.9055 0.648156 31.9055 1.53933C31.9055 2.4305 31.2546 3.07863 30.3597 3.07863ZM30.3597 0.648156C29.8716 0.648156 29.4648 1.05323 29.4648 1.53933C29.4648 2.02542 29.8716 2.4305 30.3597 2.4305C30.8479 2.4305 31.2546 2.02542 31.2546 1.53933C31.336 1.05323 30.9292 0.648156 30.3597 0.648156Z" fill="white"/>
<path d="M30.3597 67C29.5462 67 28.814 66.3519 28.814 65.4607C28.814 64.6506 29.4648 63.9214 30.3597 63.9214C31.2546 63.9214 31.9055 64.5695 31.9055 65.4607C31.9055 66.3519 31.2546 67 30.3597 67ZM30.3597 64.5695C29.8716 64.5695 29.4648 64.9746 29.4648 65.4607C29.4648 65.9468 29.8716 66.3519 30.3597 66.3519C30.8479 66.3519 31.2546 65.9468 31.2546 65.4607C31.336 64.9746 30.9292 64.5695 30.3597 64.5695Z" fill="white"/>
<path d="M39.6339 62.7062L17.1797 32.4063L17.261 32.2443L39.6339 2.99762L40.1221 3.32168L17.9119 32.4063L40.1221 62.3821L39.6339 62.7062Z" fill="white"/>
<path d="M17.7493 29.7328C17.668 29.6518 17.5866 29.4898 17.668 29.4088C17.7493 29.3277 17.912 29.3277 17.9934 29.4088C18.0747 29.4898 18.0747 29.6518 17.9934 29.7328C17.912 29.8138 17.9121 29.8138 17.8307 29.8138C17.8307 29.7328 17.8307 29.7328 17.7493 29.7328ZM18.6443 28.5176C18.5629 28.4366 18.5629 28.2745 18.6443 28.1935C18.7256 28.1125 18.8883 28.0315 18.9697 28.1125C19.051 28.1935 19.051 28.3555 19.051 28.4366C18.9697 28.5176 18.9697 28.5176 18.8883 28.5176C18.7256 28.5176 18.7256 28.5176 18.6443 28.5176ZM19.6205 27.3023C19.5392 27.2213 19.4578 27.0593 19.5392 26.9783C19.6205 26.8973 19.7832 26.8162 19.8646 26.8973C19.946 26.9783 19.946 27.1403 19.8646 27.2213C19.7832 27.3023 19.7832 27.3023 19.7019 27.3023H19.6205ZM20.5154 26.0871C20.4341 26.0061 20.4341 25.8441 20.4341 25.763C20.5154 25.682 20.6782 25.682 20.7595 25.763C20.8409 25.8441 20.8409 26.0061 20.8409 26.0871C20.7595 26.1681 20.7595 26.1681 20.6782 26.1681C20.5968 26.0871 20.5968 26.0871 20.5154 26.0871ZM21.4104 24.8719C21.329 24.7909 21.2476 24.6288 21.329 24.5478C21.4103 24.4668 21.5731 24.3858 21.6544 24.5478C21.7358 24.6288 21.7358 24.7909 21.6544 24.8719C21.5731 24.9529 21.5731 24.9529 21.4917 24.9529C21.5731 24.9529 21.4917 24.8719 21.4104 24.8719ZM22.3866 23.6566C22.3053 23.5756 22.3053 23.4136 22.3053 23.3326C22.3866 23.2516 22.5493 23.2516 22.6307 23.2516C22.712 23.3326 22.7121 23.4946 22.7121 23.5756C22.6307 23.6566 22.6307 23.6566 22.5493 23.6566C22.468 23.7376 22.3866 23.6566 22.3866 23.6566ZM23.2815 22.4414C23.2002 22.3604 23.1188 22.1984 23.2002 22.1173C23.2815 22.0363 23.4443 22.0363 23.5256 22.0363C23.607 22.1173 23.607 22.2794 23.5256 22.3604C23.5256 22.4414 23.4442 22.4414 23.3629 22.4414C23.3629 22.5224 23.3629 22.5224 23.2815 22.4414ZM24.1764 21.2262C24.0951 21.1451 24.0951 20.9831 24.0951 20.9021C24.1764 20.8211 24.3392 20.8211 24.4205 20.9021C24.5019 20.9831 24.5019 21.1451 24.5019 21.2262C24.4205 21.3072 24.4205 21.3072 24.3392 21.3072C24.3392 21.3072 24.2578 21.3072 24.1764 21.2262ZM25.1527 20.0109C25.0714 19.9299 24.99 19.7679 25.0714 19.6869C25.1527 19.6058 25.3154 19.6058 25.3968 19.6869C25.4781 19.7679 25.4781 19.9299 25.3968 20.0109C25.3968 20.0919 25.3154 20.0919 25.2341 20.0919C25.2341 20.0919 25.1527 20.0919 25.1527 20.0109ZM26.0477 18.7957C25.9663 18.7147 25.9663 18.5526 25.9663 18.4716C26.0476 18.3906 26.2104 18.3096 26.2917 18.4716C26.3731 18.5526 26.3731 18.7147 26.3731 18.7957C26.2917 18.8767 26.2917 18.8767 26.2103 18.8767C26.129 18.8767 26.129 18.8767 26.0477 18.7957ZM27.0239 17.5805C26.9426 17.4994 26.9425 17.3374 26.9425 17.2564C27.0239 17.1754 27.1866 17.1754 27.268 17.1754C27.3493 17.2564 27.3493 17.4184 27.268 17.4994C27.268 17.5805 27.1866 17.5805 27.1053 17.5805C27.1053 17.6615 27.0239 17.6615 27.0239 17.5805ZM27.9188 16.4462C27.8375 16.3652 27.8375 16.2032 27.8375 16.1222C27.9188 16.0412 28.0815 16.0412 28.1629 16.0412C28.2442 16.1222 28.2442 16.2842 28.2442 16.3652C28.1629 16.4462 28.1629 16.4462 28.0815 16.4462C28.0002 16.4462 27.9188 16.4462 27.9188 16.4462ZM28.8137 15.231C28.7324 15.15 28.7324 14.988 28.8137 14.9069C28.8951 14.8259 29.0578 14.8259 29.1392 14.9069C29.2205 14.988 29.2205 15.15 29.1392 15.231C29.1392 15.312 29.0578 15.312 28.9764 15.312C28.8951 15.231 28.8951 15.231 28.8137 15.231ZM29.79 14.0158C29.7086 13.9347 29.6273 13.7727 29.7087 13.6917C29.79 13.6107 29.9527 13.5297 30.0341 13.6107C30.1154 13.6917 30.1154 13.8537 30.1154 13.9347C30.0341 14.0158 30.0341 14.0158 29.9527 14.0158C29.8714 14.0158 29.79 14.0158 29.79 14.0158ZM30.6849 12.8005C30.6036 12.7195 30.6036 12.5575 30.6849 12.4765C30.7663 12.3954 30.929 12.3144 31.0103 12.3954C31.0917 12.4765 31.0917 12.6385 31.0103 12.7195C31.0103 12.8005 30.929 12.8005 30.8476 12.8005C30.7663 12.8005 30.6849 12.8005 30.6849 12.8005ZM31.5798 11.5853C31.4985 11.5043 31.4985 11.3422 31.4985 11.2612C31.5798 11.1802 31.7425 11.1802 31.8239 11.1802C31.9053 11.2612 31.9053 11.4233 31.9053 11.5043C31.8239 11.5853 31.8239 11.5853 31.7426 11.5853C31.6612 11.5853 31.6612 11.5853 31.5798 11.5853ZM32.5561 10.3701C32.4748 10.289 32.4748 10.127 32.4748 10.046C32.5561 9.96498 32.7188 9.96498 32.8002 9.96498C32.8815 10.046 32.8815 10.208 32.8002 10.289C32.8002 10.3701 32.7188 10.3701 32.6375 10.3701C32.6375 10.3701 32.5561 10.3701 32.5561 10.3701ZM33.451 9.15482C33.3697 9.0738 33.3697 8.91177 33.3697 8.83076C33.451 8.74974 33.6137 8.74974 33.6951 8.83076C33.7765 8.91177 33.7765 9.0738 33.7765 9.15482C33.6951 9.23583 33.6951 9.23583 33.6137 9.23583C33.5324 9.15482 33.5324 9.15482 33.451 9.15482ZM34.3459 7.93958C34.2646 7.85857 34.2646 7.69654 34.3459 7.61552C34.4273 7.5345 34.59 7.45349 34.6714 7.5345C34.7527 7.61552 34.7527 7.77755 34.6714 7.85857C34.6714 7.93958 34.59 7.93958 34.5087 7.93958C34.4273 8.0206 34.4273 7.93958 34.3459 7.93958Z" fill="#D4D8E4"/>
<path d="M38.0068 57.1971C37.9254 57.1161 37.9254 56.9541 38.0068 56.8731C38.0882 56.7921 38.2509 56.7921 38.3322 56.8731C38.4136 56.9541 38.4136 57.1161 38.3322 57.1971C38.2509 57.1971 38.2509 57.2781 38.1695 57.2781C38.0882 57.2781 38.0068 57.1971 38.0068 57.1971ZM37.0305 55.9819C36.9492 55.9009 36.9492 55.7388 37.1119 55.6578C37.1932 55.5768 37.356 55.5768 37.4373 55.6578C37.5187 55.7388 37.5187 55.9009 37.356 55.9819C37.2746 55.9819 37.2746 56.0629 37.1932 56.0629C37.1932 56.0629 37.1119 55.9819 37.0305 55.9819ZM36.1356 54.7667C36.0543 54.6856 36.0543 54.5236 36.217 54.4426C36.2983 54.3616 36.461 54.3616 36.5424 54.5236C36.6238 54.6046 36.6238 54.7667 36.5424 54.8477C36.461 54.8477 36.461 54.9287 36.3797 54.9287C36.2983 54.8477 36.217 54.7667 36.1356 54.7667ZM35.2407 53.5514C35.1593 53.4704 35.1593 53.3084 35.3221 53.2274C35.4034 53.1463 35.5661 53.1463 35.6475 53.3084C35.7288 53.3894 35.7288 53.5514 35.5661 53.6324C35.5661 53.6324 35.4848 53.7135 35.4034 53.7135C35.3221 53.6324 35.2407 53.5514 35.2407 53.5514ZM34.2644 52.3362C34.1831 52.2552 34.1831 52.0931 34.2644 52.0121C34.3458 51.9311 34.5085 51.9311 34.5899 52.0931C34.6712 52.1742 34.6712 52.3362 34.5899 52.4172C34.5085 52.4172 34.5085 52.4982 34.4271 52.4982C34.4271 52.4172 34.3458 52.4172 34.2644 52.3362ZM33.3695 51.121C33.2882 51.0399 33.2881 50.8779 33.4509 50.7969C33.5322 50.7159 33.6949 50.7159 33.7763 50.7969C33.8577 50.8779 33.8577 51.0399 33.6949 51.121C33.6949 51.121 33.6136 51.202 33.5322 51.202C33.4509 51.202 33.4509 51.202 33.3695 51.121ZM32.4746 49.9057C32.3932 49.8247 32.3933 49.6627 32.556 49.5817C32.6373 49.5006 32.8 49.5006 32.8814 49.5817C32.9627 49.6627 32.9627 49.8247 32.8814 49.9057C32.8 49.9057 32.8 49.9867 32.7187 49.9867C32.5559 49.9867 32.4746 49.9867 32.4746 49.9057ZM31.4983 48.6905C31.417 48.6095 31.417 48.4474 31.5797 48.3664C31.661 48.2854 31.8237 48.2854 31.9051 48.4474C31.9865 48.5284 31.9865 48.6905 31.8237 48.7715C31.8237 48.7715 31.7424 48.8525 31.661 48.8525C31.661 48.7715 31.5797 48.7715 31.4983 48.6905ZM30.6034 47.4752C30.522 47.3942 30.522 47.2322 30.6848 47.1512C30.7661 47.0702 30.9288 47.0702 31.0102 47.2322C31.0915 47.3132 31.0915 47.4752 31.0102 47.5563C30.9288 47.5563 30.9288 47.6373 30.8475 47.6373C30.6848 47.5563 30.6848 47.5563 30.6034 47.4752ZM29.7085 46.26C29.6271 46.179 29.6271 46.017 29.7898 45.9359C29.8712 45.8549 30.0339 45.8549 30.1153 46.017C30.1966 46.098 30.1966 46.26 30.0339 46.341C30.0339 46.341 29.9526 46.341 29.8712 46.341C29.7898 46.341 29.7085 46.341 29.7085 46.26ZM28.7322 45.0448C28.6509 44.9638 28.6509 44.8017 28.8136 44.7207C28.8949 44.6397 29.0576 44.6397 29.139 44.7207C29.2204 44.8017 29.2204 44.9638 29.139 45.0448C29.0576 45.0448 29.0576 45.1258 28.9763 45.1258C28.8949 45.1258 28.8136 45.1258 28.7322 45.0448ZM27.8373 43.8295C27.7559 43.7485 27.756 43.5865 27.9187 43.5055C28 43.4245 28.1627 43.4245 28.2441 43.5865C28.3254 43.6675 28.3254 43.8295 28.1627 43.9106C28.1627 43.9106 28.0814 43.9916 28 43.9916C27.9187 43.9916 27.8373 43.9105 27.8373 43.8295ZM26.9424 42.6143C26.861 42.5333 26.861 42.3713 27.0237 42.2902C27.1051 42.2092 27.2678 42.2092 27.3492 42.3713C27.4305 42.4523 27.4305 42.6143 27.3492 42.6953C27.2678 42.6953 27.2678 42.7763 27.1865 42.7763C27.0238 42.7763 26.9424 42.6953 26.9424 42.6143ZM25.9661 41.3991C25.8848 41.318 25.8848 41.156 26.0475 41.075C26.1288 40.994 26.2916 40.994 26.3729 41.075C26.4543 41.156 26.4543 41.318 26.2915 41.3991C26.2915 41.3991 26.2102 41.4801 26.1288 41.4801C26.1288 41.5611 26.0475 41.4801 25.9661 41.3991ZM25.0712 40.2648C24.9899 40.1838 24.9899 40.0218 25.1526 39.9408C25.2339 39.8598 25.3966 39.8598 25.478 39.9408C25.5593 40.0218 25.5593 40.1838 25.478 40.2648C25.478 40.2648 25.3966 40.2648 25.3153 40.2648C25.1526 40.3459 25.0712 40.2648 25.0712 40.2648ZM24.1763 39.0496C24.0949 38.9686 24.0949 38.8066 24.2576 38.7255C24.339 38.6445 24.5017 38.6445 24.5831 38.7255C24.6644 38.8066 24.6644 38.9686 24.5017 39.0496C24.5017 39.0496 24.4204 39.1306 24.339 39.1306C24.2577 39.1306 24.1763 39.0496 24.1763 39.0496ZM23.2 37.8344C23.1187 37.7534 23.1187 37.5913 23.2814 37.5103C23.3627 37.4293 23.5255 37.4293 23.6068 37.5103C23.6882 37.5913 23.6882 37.7534 23.6068 37.8344C23.6068 37.8344 23.5254 37.9154 23.4441 37.9154C23.3627 37.9154 23.2814 37.9154 23.2 37.8344ZM22.3051 36.6191C22.2238 36.5381 22.2238 36.3761 22.3051 36.2951C22.3865 36.2141 22.5492 36.2141 22.6305 36.2951C22.7119 36.3761 22.7119 36.5381 22.5492 36.6191C22.5492 36.6191 22.4678 36.7001 22.3865 36.7001C22.3865 36.7001 22.3051 36.7002 22.3051 36.6191ZM21.3288 35.4039C21.2475 35.3229 21.2475 35.1609 21.4102 35.0798C21.4915 34.9988 21.6543 34.9988 21.7356 35.0798C21.817 35.1609 21.817 35.3229 21.6542 35.4039C21.5729 35.4039 21.5729 35.4039 21.4915 35.4039C21.4915 35.4849 21.4102 35.4849 21.3288 35.4039Z" fill="#D4D8E4"/>
<path d="M64.2034 32.7304H4.32542C4.16271 32.7304 4 32.5684 4 32.4063C4 32.2443 4.16271 32.0823 4.32542 32.0823H64.2034C64.3661 32.0823 64.5288 32.2443 64.5288 32.4063C64.5288 32.5684 64.3661 32.7304 64.2034 32.7304Z" fill="white"/>
<path d="M64.2033 33.7026H4.32532C4.24396 33.7026 4.1626 33.6216 4.1626 33.5405C4.1626 33.4595 4.24396 33.3785 4.32532 33.3785H64.2033C64.2846 33.3785 64.366 33.4595 64.366 33.5405C64.366 33.6216 64.2846 33.7026 64.2033 33.7026Z" fill="#B8814A"/>
<path d="M10.5895 32.7304C10.5081 32.7304 10.4268 32.7304 10.3454 32.6494L7.25389 29.4087C7.17253 29.2467 7.17253 29.0847 7.25389 29.0037C7.4166 28.9226 7.57931 28.9226 7.66067 29.0037L10.7522 32.2443C10.8335 32.4063 10.8335 32.5684 10.7522 32.6494C10.7522 32.6494 10.6708 32.7304 10.5895 32.7304Z" fill="white"/>
<path d="M11.9732 31.4341C11.8918 31.3531 11.8918 31.1911 11.9732 31.1101C12.0545 31.0291 12.2172 31.0291 12.2986 31.1101C12.3799 31.1911 12.3799 31.3531 12.2986 31.4341C12.2172 31.4341 12.2172 31.5151 12.1359 31.5151C12.1359 31.5151 12.0545 31.5152 11.9732 31.4341ZM10.9155 30.3809C10.8342 30.2999 10.8342 30.1379 10.9155 30.0569C10.9969 29.9759 11.1596 29.9759 11.241 30.0569C11.3223 30.1379 11.3223 30.2999 11.241 30.3809C11.241 30.4619 11.1596 30.4619 11.0782 30.4619C10.9969 30.4619 10.9969 30.3809 10.9155 30.3809ZM9.85789 29.3277C9.77654 29.2467 9.77654 29.0847 9.85789 29.0037C9.93925 28.9226 10.102 28.9226 10.1833 29.0037C10.2647 29.0847 10.2647 29.2467 10.1833 29.3277C10.102 29.3277 10.102 29.4087 10.0206 29.4087C9.93926 29.3277 9.85789 29.3277 9.85789 29.3277Z" fill="#D4D8E4"/>
<path d="M15.6339 32.7304C15.5526 32.7304 15.4712 32.7304 15.3899 32.6494L12.2983 29.4087C12.217 29.2467 12.217 29.0847 12.2983 29.0037C12.461 28.9226 12.6237 28.9226 12.7051 29.0037L15.7966 32.2443C15.878 32.4063 15.878 32.5684 15.7966 32.6494C15.7966 32.6494 15.7153 32.7304 15.6339 32.7304Z" fill="white"/>
<path d="M7.49813 36.7812C7.41677 36.7812 7.41679 36.7812 7.33543 36.7002C7.25408 36.6191 7.25408 36.5381 7.33543 36.4571L10.4269 33.3785C10.5083 33.2975 10.5896 33.2975 10.671 33.3785C10.7524 33.4595 10.7524 33.5405 10.671 33.6216L7.57949 36.7002C7.57949 36.7812 7.57948 36.7812 7.49813 36.7812Z" fill="#B8814A"/>
<path d="M8.55579 32.7304C8.47444 32.7304 8.39307 32.7304 8.31171 32.6494L5.2202 29.4087C5.13884 29.2467 5.13884 29.0847 5.2202 29.0037C5.38291 28.9226 5.54562 28.9226 5.62698 29.0037L8.71849 32.2443C8.79985 32.4063 8.79985 32.5684 8.71849 32.6494C8.71849 32.6494 8.63715 32.7304 8.55579 32.7304Z" fill="white"/>
<path d="M5.46444 36.7812C5.38308 36.7812 5.3831 36.7812 5.30174 36.7002C5.22038 36.6191 5.22038 36.5381 5.30174 36.4571L8.39326 33.3785C8.47461 33.2975 8.55596 33.2975 8.63731 33.3785C8.71867 33.4595 8.71867 33.5405 8.63731 33.6216L5.5458 36.7002C5.5458 36.7812 5.54579 36.7812 5.46444 36.7812Z" fill="#B8814A"/>
<path d="M9.85789 36.7002C9.77654 36.6192 9.77654 36.5381 9.85789 36.4571C9.93925 36.3761 10.0206 36.3761 10.102 36.4571C10.1833 36.5381 10.1833 36.6192 10.102 36.7002C10.0206 36.7002 10.0206 36.7812 9.93925 36.7812C9.93925 36.7812 9.93925 36.7812 9.85789 36.7002ZM10.9969 35.647C10.9155 35.5659 10.9155 35.4849 10.9969 35.4039C11.0783 35.3229 11.1596 35.3229 11.241 35.4039C11.3223 35.4849 11.3223 35.5659 11.241 35.647C11.241 35.647 11.1596 35.728 11.0782 35.728C11.0782 35.728 10.9969 35.728 10.9969 35.647ZM12.0545 34.5938C11.9732 34.5127 11.9732 34.4317 12.0545 34.3507C12.1359 34.2697 12.2172 34.2697 12.2986 34.3507C12.3799 34.4317 12.3799 34.5127 12.2986 34.5938C12.2986 34.5938 12.2172 34.6748 12.1359 34.6748C12.1359 34.5938 12.0545 34.5938 12.0545 34.5938Z" fill="#B8814A"/>
<path d="M12.5426 36.7812C12.4612 36.7812 12.4612 36.7812 12.3799 36.7002C12.2985 36.6191 12.2985 36.5381 12.3799 36.4571L15.4714 33.3785C15.5528 33.2975 15.6341 33.2975 15.7155 33.3785C15.7968 33.4595 15.7968 33.5405 15.7155 33.6216L12.6239 36.7002C12.6239 36.7812 12.5426 36.7812 12.5426 36.7812Z" fill="#B8814A"/>
<path d="M29.8712 43.1004C29.7899 43.1004 29.7085 43.1004 29.7085 43.0194L28.6509 41.156C28.5695 41.075 28.6509 40.994 28.7322 40.913C28.8136 40.832 28.8949 40.913 28.9763 40.994L30.0339 42.8574C30.1153 42.9384 30.0339 43.0194 29.9526 43.1004H29.8712Z" fill="#B8814A"/>
<path d="M32.3117 41.2371C32.2303 41.2371 32.2303 41.2371 32.149 41.156L30.6846 39.6167C30.6032 39.5357 30.6032 39.4547 30.6846 39.3737C30.7659 39.2927 30.8473 39.2927 30.9286 39.3737L32.393 40.913C32.4744 40.994 32.4744 41.075 32.393 41.156C32.393 41.2371 32.3117 41.2371 32.3117 41.2371Z" fill="#B8814A"/>
<path d="M34.102 38.8066H34.0206L32.2308 37.7534C32.1494 37.6724 32.1494 37.5914 32.1494 37.5103C32.2308 37.4293 32.3121 37.4293 32.3935 37.4293L34.1833 38.4825C34.2647 38.5635 34.2646 38.6446 34.2646 38.7256C34.2646 38.8066 34.1833 38.8066 34.102 38.8066Z" fill="#B8814A"/>
<path d="M35.2408 36.052L33.1256 35.4849C33.0442 35.4849 32.9629 35.3229 32.9629 35.2419C32.9629 35.1609 33.1256 35.0798 33.2069 35.0798L35.2408 35.6469C35.3222 35.6469 35.4036 35.809 35.4036 35.89C35.4036 35.971 35.3222 36.052 35.2408 36.052Z" fill="#B8814A"/>
<path d="M33.2067 30.543C33.1253 30.543 33.0439 30.462 33.0439 30.3809C33.0439 30.2999 33.044 30.2189 33.2067 30.1379L35.2406 29.6518C35.3219 29.6518 35.4033 29.6518 35.4846 29.8138C35.4846 29.8948 35.4846 29.9759 35.3219 30.0569L33.2067 30.543C33.288 30.543 33.288 30.543 33.2067 30.543Z" fill="#B8814A"/>
<path d="M32.3121 28.2745C32.2308 28.2745 32.1494 28.2745 32.1494 28.1935C32.0681 28.1125 32.1494 28.0315 32.2308 27.9505L34.0206 26.8973C34.102 26.8163 34.1833 26.8973 34.2647 26.9783C34.346 27.0593 34.2647 27.1403 34.1833 27.2213L32.3935 28.2745H32.3121Z" fill="#B8814A"/>
<path d="M30.7657 26.3302C30.6844 26.3302 30.6844 26.3302 30.603 26.2492C30.5217 26.1681 30.5217 26.0871 30.603 26.0061L32.0674 24.5478C32.1488 24.4668 32.2301 24.4668 32.3115 24.5478C32.3928 24.6288 32.3928 24.7099 32.3115 24.7909L30.8471 26.2492C30.8471 26.3302 30.8471 26.3302 30.7657 26.3302Z" fill="#B8814A"/>
<path d="M28.8136 24.7909H28.7322C28.6509 24.7098 28.6509 24.6288 28.6509 24.5478L29.7085 22.7655C29.7899 22.6844 29.8712 22.6844 29.9526 22.6844C30.0339 22.7655 30.0339 22.8465 30.0339 22.9275L28.9763 24.7098C28.9763 24.7909 28.895 24.7909 28.8136 24.7909Z" fill="#B8814A"/>
<path d="M60.1359 32.7304C59.9732 32.7304 59.8105 32.5683 59.8105 32.4063C59.8105 12.8005 46.6308 9.23582 37.9257 6.88636C33.6952 5.75214 30.6851 4.94198 30.6851 2.59253C30.6851 2.43049 30.8478 2.26846 31.0105 2.26846C31.1732 2.26846 31.3359 2.43049 31.3359 2.59253C31.3359 4.45589 34.1834 5.18503 38.1698 6.23823C47.0376 8.66871 60.4613 12.2334 60.4613 32.3253C60.4613 32.5683 60.2986 32.7304 60.1359 32.7304Z" fill="white"/>
<path d="M56.6377 32.7304C56.475 32.7304 56.3123 32.5684 56.3123 32.4063C56.3123 12.7195 43.8648 8.91177 35.6479 6.31927C31.6614 5.10403 28.814 4.21286 28.814 1.8634C28.814 1.70137 28.9767 1.53934 29.1394 1.53934C29.3021 1.53934 29.4648 1.70137 29.4648 1.8634C29.4648 3.72676 32.1495 4.53692 35.8919 5.75216C44.2716 8.34466 56.9631 12.3144 56.9631 32.4063C56.9631 32.5684 56.8817 32.7304 56.6377 32.7304Z" fill="white"/>
<path d="M31.0105 64.7316C30.8478 64.7316 30.6851 64.5696 30.6851 64.4076C30.6851 62.1391 33.6952 61.248 37.9257 60.1137C46.6308 57.7643 59.8105 54.1996 59.8105 34.5938C59.8105 34.4317 59.9732 34.2697 60.1359 34.2697C60.2986 34.2697 60.4613 34.4317 60.4613 34.5938C60.4613 54.6857 47.0376 58.3314 38.1698 60.6808C34.1834 61.734 31.3359 62.5442 31.3359 64.3265C31.3359 64.5696 31.1732 64.7316 31.0105 64.7316Z" fill="white"/>
<path d="M61.4372 32.4063C61.4372 32.3253 61.5185 32.1633 61.6812 32.1633C61.844 32.1633 61.9253 32.2443 61.9253 32.4063C61.9253 32.5684 61.844 32.6494 61.6812 32.6494C61.5185 32.6494 61.4372 32.4873 61.4372 32.4063ZM61.4372 30.867C61.4372 30.705 61.5185 30.624 61.6812 30.624C61.7626 30.624 61.9253 30.705 61.9253 30.867C61.9253 31.0291 61.844 31.1101 61.6812 31.1101C61.5185 31.1101 61.4372 31.0291 61.4372 30.867ZM61.3558 29.4087C61.3558 29.2467 61.4372 29.1657 61.5999 29.1657C61.7626 29.1657 61.844 29.2467 61.844 29.4087C61.844 29.5708 61.7626 29.6518 61.5999 29.6518C61.4372 29.5708 61.3558 29.4898 61.3558 29.4087ZM61.1931 27.8694C61.1931 27.7074 61.2745 27.6264 61.3558 27.6264C61.5185 27.6264 61.5999 27.7074 61.5999 27.7884C61.5999 27.9505 61.5185 28.0315 61.4372 28.0315C61.2745 28.1125 61.1931 27.9505 61.1931 27.8694ZM61.0304 26.4112C61.0304 26.3301 61.1118 26.1681 61.1931 26.1681C61.3558 26.1681 61.4372 26.2491 61.4372 26.3302C61.4372 26.4922 61.3558 26.5732 61.2745 26.5732C61.1118 26.5732 61.0304 26.4922 61.0304 26.4112ZM60.7863 24.8719C60.7863 24.7909 60.8677 24.6288 60.949 24.6288C61.1118 24.6288 61.1931 24.7098 61.1931 24.7909C61.1931 24.8719 61.1118 25.0339 61.0304 25.0339C61.0304 25.0339 61.0304 25.0339 60.949 25.0339C60.8677 25.1149 60.7863 25.0339 60.7863 24.8719ZM60.4609 23.4136C60.4609 23.2516 60.5423 23.1705 60.6236 23.1705C60.7863 23.1705 60.8677 23.1705 60.8677 23.3326C60.8677 23.4136 60.7863 23.5756 60.705 23.5756C60.705 23.5756 60.705 23.5756 60.6236 23.5756C60.5423 23.5756 60.4609 23.4946 60.4609 23.4136ZM60.0541 21.9553C60.0541 21.7933 60.0541 21.7123 60.2169 21.7123C60.3796 21.6312 60.4609 21.7123 60.5423 21.8743C60.5423 21.9553 60.5423 22.1173 60.3795 22.1173H60.2982C60.1355 22.1173 60.0541 22.1173 60.0541 21.9553ZM59.566 20.578C59.566 20.416 59.566 20.335 59.7287 20.254C59.8101 20.173 59.9728 20.254 60.0541 20.416C60.0541 20.497 60.0541 20.659 59.8914 20.7401H59.8101C59.6474 20.7401 59.566 20.659 59.566 20.578ZM58.9152 19.2008C58.8338 19.1197 58.9152 18.9577 58.9965 18.8767C59.0779 18.7957 59.2406 18.8767 59.3219 18.9577C59.4033 19.0387 59.3219 19.2008 59.2406 19.2818H59.1592C59.0779 19.2818 58.9965 19.2818 58.9152 19.2008ZM58.2643 17.8235C58.1829 17.7425 58.2643 17.5805 58.3456 17.4994C58.427 17.4184 58.5897 17.4994 58.6711 17.5805C58.7524 17.6615 58.6711 17.8235 58.5897 17.9045H58.5084C58.427 17.9855 58.3456 17.9045 58.2643 17.8235ZM57.5321 16.5272C57.4507 16.4462 57.5321 16.2842 57.6135 16.2032C57.6948 16.1222 57.8575 16.2032 57.9389 16.2842C58.0202 16.3652 57.9389 16.5272 57.8575 16.6083C57.8575 16.6083 57.7762 16.6083 57.6948 16.6083C57.6135 16.6893 57.5321 16.6083 57.5321 16.5272ZM56.6372 15.312C56.5558 15.231 56.5558 15.069 56.6372 14.9879C56.7185 14.9069 56.8813 14.9069 56.9626 15.069C57.044 15.15 57.044 15.312 56.8813 15.393C56.7999 15.393 56.7999 15.474 56.7185 15.474C56.7185 15.393 56.7185 15.393 56.6372 15.312ZM55.6609 14.1778C55.5796 14.0968 55.5796 13.9347 55.6609 13.8537C55.7423 13.7727 55.905 13.7727 55.9863 13.8537C56.0677 13.9347 56.0677 14.0968 55.9863 14.1778C55.905 14.1778 55.905 14.2588 55.8236 14.2588C55.8236 14.2588 55.7423 14.2588 55.6609 14.1778ZM54.6033 13.1246C54.5219 13.0436 54.5219 12.8815 54.6033 12.8005C54.6846 12.7195 54.8474 12.7195 54.9287 12.8005C55.0101 12.8815 55.0101 13.0436 54.9287 13.1246C54.9287 13.2056 54.8473 13.2056 54.766 13.2056C54.766 13.2056 54.6846 13.1246 54.6033 13.1246ZM53.4643 12.1524C53.3829 12.0714 53.3829 11.9094 53.3829 11.8283C53.4643 11.7473 53.627 11.7473 53.7084 11.8283C53.7897 11.9094 53.7897 12.0714 53.7084 12.1524C53.627 12.2334 53.627 12.2334 53.5457 12.2334C53.627 12.1524 53.5456 12.1524 53.4643 12.1524ZM52.3253 11.1802C52.244 11.0992 52.1626 10.9372 52.244 10.8561C52.3253 10.7751 52.488 10.6941 52.5694 10.7751C52.6507 10.8561 52.7321 11.0182 52.6507 11.0992C52.6507 11.1802 52.5694 11.1802 52.488 11.1802C52.4067 11.2612 52.3253 11.2612 52.3253 11.1802ZM51.0236 10.3701C50.9423 10.289 50.8609 10.208 50.9423 10.046C51.0236 9.96497 51.105 9.88396 51.2677 9.96497C51.3491 10.046 51.4304 10.127 51.349 10.289C51.349 10.3701 51.2677 10.3701 51.1863 10.3701C51.105 10.4511 51.0236 10.4511 51.0236 10.3701ZM49.7219 9.64091C49.6406 9.55989 49.5592 9.47888 49.6406 9.31685C49.7219 9.23583 49.8033 9.15482 49.966 9.23583C50.0474 9.31685 50.1287 9.39786 50.0474 9.55989C49.966 9.64091 49.966 9.72193 49.8846 9.72193C49.8033 9.72193 49.7219 9.72193 49.7219 9.64091ZM48.3389 8.99278C48.2575 8.91177 48.1762 8.83075 48.2575 8.66872C48.3389 8.50669 48.4202 8.50669 48.5829 8.58771C48.6643 8.66872 48.7457 8.74974 48.6643 8.91177C48.6643 8.99278 48.583 9.0738 48.4202 9.0738C48.4202 8.99278 48.3389 8.99278 48.3389 8.99278ZM46.9558 8.42567C46.8745 8.42567 46.7931 8.26364 46.7931 8.10161C46.8745 7.93958 46.9558 7.93958 47.1185 7.93958C47.1999 8.0206 47.2813 8.10161 47.1999 8.26364C47.1999 8.34466 47.1185 8.42567 46.9558 8.42567C46.9558 8.42567 47.0372 8.42567 46.9558 8.42567ZM45.4914 7.93958C45.4101 7.93958 45.3287 7.77755 45.3287 7.61552C45.3287 7.5345 45.4914 7.45348 45.6541 7.45348C45.7355 7.45348 45.8168 7.61552 45.8168 7.77755C45.8168 7.85856 45.6541 7.93958 45.4914 7.93958C45.5728 7.93958 45.5728 7.93958 45.4914 7.93958ZM44.1084 7.37247C44.027 7.37247 43.9457 7.21044 43.9457 7.04841C44.027 6.96739 44.1084 6.88637 44.2711 6.88637C44.3524 6.96739 44.4338 7.04841 44.4338 7.21044C44.3524 7.37247 44.2711 7.45349 44.1084 7.37247C44.1084 7.45349 44.1084 7.45349 44.1084 7.37247ZM42.644 6.96739C42.5626 6.96739 42.4812 6.80536 42.4812 6.64333C42.4812 6.56231 42.6439 6.4813 42.8067 6.4813C42.888 6.4813 42.9694 6.64333 42.9694 6.72434C42.888 6.88638 42.8067 6.96739 42.644 6.96739ZM41.1795 6.4813C41.0168 6.4813 41.0168 6.31927 41.0168 6.15723C41.0168 6.07622 41.1796 5.9952 41.3423 5.9952C41.4236 5.9952 41.505 6.15723 41.505 6.23825C41.4236 6.4813 41.3423 6.56231 41.1795 6.4813C41.1795 6.4813 41.1795 6.56231 41.1795 6.4813ZM39.7151 6.07622C39.5524 5.9952 39.5524 5.91419 39.5524 5.75215C39.5524 5.67114 39.7152 5.59012 39.8779 5.59012C40.0406 5.59012 40.0406 5.75215 40.0406 5.91419C39.9592 5.9952 39.8779 6.07622 39.7151 6.07622ZM38.2507 5.50911C38.1694 5.42809 38.088 5.34708 38.1694 5.18505C38.2507 5.02301 38.3321 5.02301 38.4948 5.02301C38.5762 5.10403 38.6575 5.18504 38.5762 5.34708C38.5762 5.42809 38.4948 5.50911 38.3321 5.50911C38.3321 5.50911 38.2507 5.50911 38.2507 5.50911ZM36.8677 4.69895C36.7863 4.61793 36.7863 4.4559 36.7863 4.37489C36.8677 4.29387 37.0304 4.21286 37.1117 4.29387C37.1931 4.37489 37.2745 4.53692 37.1931 4.61793C37.1118 4.69895 37.1118 4.69895 37.0304 4.69895C36.9491 4.77997 36.949 4.77997 36.8677 4.69895ZM35.8101 3.48371C35.7287 3.4027 35.8101 3.24067 35.8914 3.15965C35.9728 3.07864 36.1355 3.15965 36.2168 3.32168C36.2982 3.4027 36.2168 3.56473 36.1355 3.64575H36.0541C35.9728 3.64575 35.8914 3.64575 35.8101 3.48371Z" fill="#D4D8E4"/>
<path d="M35.973 63.8404C35.8916 63.7594 35.8103 63.6784 35.8916 63.5163C35.973 63.4353 36.0543 63.3543 36.2171 63.4353C36.2984 63.5163 36.3797 63.5974 36.2984 63.7594C36.2984 63.8404 36.217 63.9214 36.0543 63.9214C36.0543 63.8404 35.973 63.8404 35.973 63.8404ZM36.8679 62.6252C36.7865 62.5442 36.7865 62.3821 36.9492 62.3011C37.0306 62.2201 37.1933 62.2201 37.2747 62.3821C37.356 62.4631 37.356 62.6252 37.1933 62.7062C37.1933 62.7062 37.112 62.7062 37.0306 62.7062C36.9493 62.7062 36.8679 62.7062 36.8679 62.6252ZM38.1696 61.815C38.0882 61.734 38.1696 61.572 38.2509 61.491C38.3323 61.4099 38.495 61.491 38.5764 61.572C38.6577 61.653 38.5764 61.815 38.495 61.896H38.4136C38.2509 61.977 38.1696 61.896 38.1696 61.815ZM39.5526 61.2479C39.5526 61.1669 39.5526 61.0049 39.7153 60.9238C39.7967 60.9238 39.9594 60.9238 39.9594 61.0859C40.0408 61.1669 39.9594 61.3289 39.7967 61.4099H39.7153C39.7153 61.4099 39.5526 61.4099 39.5526 61.2479ZM41.017 60.8428C41.017 60.7618 41.017 60.5998 41.1797 60.5998C41.2611 60.5998 41.4238 60.5998 41.4238 60.7618C41.5052 60.9238 41.4238 61.0049 41.2611 61.0859H41.1797C41.0984 61.0049 41.017 60.9238 41.017 60.8428ZM42.4814 60.3567C42.4814 60.1947 42.4815 60.1137 42.6442 60.1137C42.7255 60.0327 42.8882 60.1137 42.9696 60.2757C42.9696 60.4377 42.9696 60.5188 42.8069 60.5188H42.7255C42.5628 60.5188 42.4814 60.4377 42.4814 60.3567ZM43.9459 59.9517C43.9459 59.7896 43.9459 59.7086 44.1086 59.6276C44.1899 59.6276 44.3526 59.6276 44.434 59.7896C44.434 59.9517 44.434 60.0327 44.2713 60.1137H44.1899C44.0272 60.0327 43.9459 60.0327 43.9459 59.9517ZM45.4103 59.3845C45.3289 59.3035 45.4103 59.1415 45.573 59.1415C45.6543 59.0605 45.817 59.1415 45.8984 59.3035C45.9798 59.3845 45.8984 59.5466 45.7357 59.5466H45.6543C45.4916 59.5466 45.4103 59.5466 45.4103 59.3845ZM46.7933 58.8985C46.712 58.7364 46.7933 58.6554 46.956 58.5744C47.0374 58.4934 47.2001 58.5744 47.2814 58.7364C47.3628 58.8174 47.2815 58.9795 47.2001 59.0605H47.1187C46.956 59.0605 46.8747 58.9795 46.7933 58.8985ZM48.2577 58.3313C48.1764 58.2503 48.2577 58.0883 48.3391 58.0073C48.4204 57.9263 48.5831 58.0073 48.6645 58.0883C48.7459 58.1693 48.6645 58.3313 48.5831 58.4124H48.5018C48.3391 58.4124 48.2577 58.4124 48.2577 58.3313ZM49.6408 57.6832C49.5594 57.6022 49.6408 57.4402 49.7221 57.3592C49.8035 57.2781 49.9662 57.3592 50.0476 57.4402C50.1289 57.5212 50.0476 57.6832 49.9662 57.7642H49.8848C49.7221 57.7642 49.6408 57.7642 49.6408 57.6832ZM50.9425 56.9541C50.8611 56.8731 50.9425 56.711 51.0238 56.63C51.1052 56.549 51.2679 56.63 51.3492 56.711C51.4306 56.792 51.3493 56.9541 51.2679 57.0351H51.1865C51.0238 57.0351 51.0238 57.0351 50.9425 56.9541ZM52.2442 56.1439C52.1628 56.0629 52.1628 55.9009 52.3255 55.8199C52.4069 55.7388 52.5696 55.7388 52.6509 55.9009C52.7323 55.9819 52.7323 56.1439 52.5696 56.2249C52.4882 56.2249 52.4882 56.3059 52.4069 56.3059C52.3255 56.2249 52.2442 56.2249 52.2442 56.1439ZM53.4645 55.2527C53.3831 55.1717 53.3831 55.0097 53.4645 54.9287C53.5459 54.8477 53.7086 54.8477 53.7899 54.9287C53.8713 55.0097 53.8713 55.1717 53.7899 55.2527C53.7086 55.2527 53.7086 55.3338 53.6272 55.3338C53.5459 55.3338 53.5459 55.3338 53.4645 55.2527ZM54.6035 54.2806C54.5221 54.1995 54.5221 54.0375 54.6035 53.9565C54.6848 53.8755 54.8476 53.8755 54.9289 53.9565C55.0103 54.0375 55.0103 54.1995 54.9289 54.2806C54.8476 54.3616 54.8476 54.3616 54.7662 54.3616C54.7662 54.3616 54.6848 54.2806 54.6035 54.2806ZM55.6611 53.1463C55.5798 53.0653 55.5798 52.9033 55.6611 52.8223C55.7425 52.7413 55.9052 52.7413 55.9865 52.8223C56.0679 52.9033 56.0679 53.0653 55.9865 53.1463C55.9052 53.2274 55.9052 53.2274 55.8238 53.2274C55.8238 53.2274 55.7425 53.2274 55.6611 53.1463ZM56.7187 52.0121C56.6374 51.9311 56.6374 51.7691 56.7187 51.6881C56.8001 51.607 56.9628 51.607 57.0442 51.6881C57.1255 51.7691 57.1255 51.9311 57.1255 52.0121C57.1255 52.0931 57.0442 52.0931 56.9628 52.0931C56.8001 52.0931 56.7187 52.0931 56.7187 52.0121ZM57.6137 50.7969C57.5323 50.7159 57.4509 50.5538 57.5323 50.4728C57.6136 50.3918 57.7764 50.3108 57.8577 50.3918C57.9391 50.4728 58.0204 50.6348 57.9391 50.7159C57.8577 50.7969 57.8577 50.7969 57.7764 50.7969C57.695 50.8779 57.6137 50.7969 57.6137 50.7969ZM58.3459 49.5006C58.2645 49.4196 58.1831 49.3386 58.2645 49.1766C58.3458 49.0955 58.4272 49.0145 58.5899 49.0955C58.6713 49.1766 58.7526 49.2576 58.6713 49.4196C58.6713 49.5006 58.5899 49.5006 58.5086 49.5006C58.4272 49.5006 58.4272 49.5006 58.3459 49.5006ZM59.078 48.1234C58.9967 48.0423 58.9154 47.9613 58.9967 47.7993C59.0781 47.7183 59.1594 47.6373 59.3221 47.7183C59.4035 47.7993 59.4848 47.8803 59.4035 48.0423C59.3221 48.1234 59.3221 48.2044 59.1594 48.2044C59.1594 48.2044 59.078 48.2044 59.078 48.1234ZM59.6476 46.7461C59.5662 46.6651 59.4848 46.5841 59.4848 46.422C59.5662 46.341 59.6476 46.26 59.8103 46.26C59.8916 46.26 59.973 46.422 59.973 46.5841C59.8916 46.6651 59.8916 46.7461 59.7289 46.7461C59.7289 46.7461 59.7289 46.7461 59.6476 46.7461ZM60.1357 45.3688C60.0543 45.3688 59.973 45.2068 59.973 45.0448C60.0543 44.9637 60.1357 44.8827 60.2984 44.8827C60.3797 44.8827 60.4611 45.0448 60.4611 45.2068C60.4611 45.2878 60.2984 45.3688 60.1357 45.3688C60.217 45.3688 60.217 45.3688 60.1357 45.3688ZM60.6238 43.9105C60.5425 43.9105 60.4611 43.7485 60.4611 43.6675C60.4611 43.5055 60.6238 43.5055 60.7052 43.5055C60.7865 43.5055 60.8679 43.6675 60.8679 43.7485C60.8679 43.8295 60.7865 43.9105 60.6238 43.9105ZM60.9493 42.3712C60.7865 42.3712 60.7865 42.2092 60.7865 42.1282C60.7865 41.9662 60.9493 41.9662 61.0306 41.9662C61.112 41.9662 61.1933 42.1282 61.1933 42.2092C61.1933 42.3712 61.112 42.3712 60.9493 42.3712ZM61.1933 40.913C61.0306 40.913 60.9493 40.7509 61.0306 40.6699C61.0306 40.5889 61.1933 40.4269 61.2747 40.5079C61.356 40.5079 61.5187 40.6699 61.4374 40.7509C61.4374 40.8319 61.356 40.913 61.1933 40.913ZM61.4374 39.3737C61.2747 39.3737 61.1933 39.2116 61.2747 39.1306C61.2747 38.9686 61.4374 38.8876 61.5187 38.9686C61.6814 38.9686 61.7628 39.1306 61.6814 39.2116C61.6814 39.2926 61.5187 39.3737 61.4374 39.3737ZM61.5187 37.9154C61.356 37.9154 61.2747 37.8344 61.2747 37.6723C61.2747 37.5913 61.356 37.4293 61.5187 37.4293C61.6814 37.4293 61.7628 37.5103 61.7628 37.6723C61.7628 37.8344 61.6814 37.9154 61.5187 37.9154ZM61.6001 36.3761C61.4374 36.3761 61.356 36.2951 61.356 36.133C61.356 35.971 61.4374 35.89 61.6001 35.89C61.6814 35.89 61.8442 35.971 61.8442 36.133C61.8442 36.2951 61.7628 36.3761 61.6001 36.3761ZM61.4374 34.6747C61.4374 34.5127 61.5187 34.4317 61.6814 34.4317C61.8442 34.4317 61.9255 34.5127 61.9255 34.6747C61.9255 34.8368 61.8442 34.9178 61.6814 34.9178C61.5187 34.8368 61.4374 34.7558 61.4374 34.6747Z" fill="#D4D8E4"/>
<path d="M29.1394 65.4608C28.9767 65.4608 28.814 65.2987 28.814 65.1367C28.814 62.8683 31.6614 61.9771 35.6479 60.6808C43.8648 58.0883 56.3123 54.1996 56.3123 34.5938C56.3123 34.4317 56.475 34.2697 56.6377 34.2697C56.8004 34.2697 56.9631 34.4317 56.9631 34.5938C56.9631 54.6857 44.2716 58.6555 35.8919 61.248C32.1495 62.3822 29.4648 63.2733 29.4648 65.1367C29.4648 65.3798 29.3021 65.4608 29.1394 65.4608Z" fill="white"/>
<path d="M53.8712 42.2092C53.8712 42.2092 53.7898 42.2092 53.8712 42.2092C53.7085 42.2092 53.7085 42.1282 53.7085 41.9662C54.1966 39.6977 54.3593 37.2673 54.3593 34.5937C54.3593 34.5127 54.4407 34.4317 54.5221 34.4317C54.6034 34.4317 54.6848 34.5127 54.6848 34.5937C54.6848 37.2673 54.4407 39.7787 53.9526 42.0472C54.0339 42.1282 53.9525 42.2092 53.8712 42.2092Z" fill="#B8814A"/>
<path d="M54.5221 30.2999C54.4407 30.2999 54.3593 30.2189 54.3593 30.1379C54.3593 27.4644 54.1153 25.0339 53.7085 22.7654C53.7085 22.6844 53.7898 22.6034 53.8712 22.5224C53.9525 22.5224 54.0339 22.6034 54.1153 22.6844C54.6034 24.9529 54.8475 27.4644 54.8475 30.1379C54.6848 30.2189 54.6034 30.2999 54.5221 30.2999Z" fill="#B8814A"/>
<path d="M58.2644 38.0774C58.1017 38.0774 57.939 37.9154 57.939 37.7534C57.939 37.7534 58.183 35.728 58.183 32.8924C58.183 30.0569 57.939 27.7074 57.939 27.6264C57.939 27.4644 58.0203 27.3023 58.183 27.3023C58.3458 27.3023 58.5085 27.3834 58.5085 27.5454C58.5085 27.5454 58.7525 29.9759 58.7525 32.8114C58.7525 35.647 58.5085 37.7534 58.5085 37.7534C58.5085 37.9964 58.4271 38.0774 58.2644 38.0774Z" fill="white"/>
<path d="M73.4779 30.867C73.4779 30.867 73.3965 30.867 73.4779 30.867L67.1321 28.5986C67.0508 28.5986 66.9694 28.4366 67.0508 28.3555C67.0508 28.2745 67.2135 28.1935 67.2948 28.2745L73.5593 30.543C73.6406 30.543 73.722 30.705 73.6406 30.786C73.6406 30.786 73.5593 30.867 73.4779 30.867Z" fill="#B8814A"/>
<path d="M67.214 37.5913C67.1326 37.5913 67.0513 37.5103 67.0513 37.5103C67.0513 37.4293 67.0513 37.3483 67.1326 37.2673L73.397 34.9988C73.4784 34.9988 73.5597 34.9988 73.6411 35.0799C73.6411 35.1609 73.6411 35.2419 73.5597 35.3229L67.214 37.5913C67.214 37.5913 67.214 37.5103 67.214 37.5913Z" fill="#B8814A"/>
<path d="M64.5288 37.0242L65.5051 32.8114L64.5288 28.5986L76 32.8114L64.5288 37.0242ZM65.4237 29.6518L66.1559 32.8924L65.4237 36.133L74.2915 32.8924L65.4237 29.6518Z" fill="white"/>
<path d="M68.8408 33.1355H65.9934C65.8307 33.1355 65.668 32.9734 65.668 32.8114C65.668 32.6494 65.8307 32.4873 65.9934 32.4873H68.8408C69.0036 32.4873 69.1663 32.6494 69.1663 32.8114C69.0849 33.0544 69.0036 33.1355 68.8408 33.1355Z" fill="white"/>
<path d="M20.6779 14.6639C20.5965 14.6639 20.5151 14.5829 20.5151 14.5829C20.5151 14.5019 20.5151 14.4208 20.5965 14.3398L26.8609 12.0714C26.9423 12.0714 27.0236 12.0714 27.105 12.1524C27.105 12.2334 27.105 12.3144 27.0236 12.3954L20.6779 14.6639Z" fill="#B8814A"/>
<path d="M26.9423 7.93959C26.8609 7.93959 26.8609 7.93959 26.9423 7.93959L20.5965 5.59013C20.5151 5.59013 20.4338 5.4281 20.5151 5.34709C20.5151 5.26607 20.6779 5.18506 20.7592 5.26607L27.0236 7.53451C27.105 7.53451 27.1863 7.69654 27.105 7.77756C27.0236 7.85857 27.0236 7.93959 26.9423 7.93959Z" fill="#B8814A"/>
<path d="M17.9932 14.1778L18.9694 9.96498L17.9932 5.75217L29.4644 9.88397L17.9932 14.1778ZM18.8067 6.72436L19.5389 9.96498L18.8067 13.2056L27.6745 9.96498L18.8067 6.72436Z" fill="white"/>
<path d="M19.4577 10.2891C19.295 10.2891 19.1323 10.127 19.1323 9.96499C19.1323 9.80296 19.295 9.64093 19.4577 9.64093H22.3052C22.4679 9.64093 22.6306 9.80296 22.6306 9.96499C22.6306 10.127 22.4679 10.2891 22.3052 10.2891H19.4577Z" fill="white"/>
<path d="M27.1049 53.3084C27.0235 53.3084 27.0235 53.3084 27.1049 53.3084L20.7591 50.8779C20.6777 50.8779 20.5964 50.7159 20.6777 50.6348C20.6777 50.5538 20.8404 50.4728 20.9218 50.5538L27.1862 52.9843C27.2676 52.9843 27.3489 53.1463 27.2676 53.2273C27.1862 53.2273 27.1862 53.3084 27.1049 53.3084Z" fill="#B8814A"/>
<path d="M20.6779 59.8706C20.5965 59.8706 20.5151 59.7896 20.5151 59.7086C20.5151 59.6276 20.5151 59.5466 20.5965 59.4656L26.9423 57.2781C27.0236 57.2781 27.105 57.2781 27.1863 57.3592C27.1863 57.4402 27.1863 57.5212 27.105 57.6022L20.6779 59.8706C20.6779 59.8706 20.7592 59.8706 20.6779 59.8706Z" fill="#B8814A"/>
<path d="M18.0742 59.3846L19.0505 55.2528L18.1556 51.0399L29.5454 55.4148L18.0742 59.3846ZM19.0505 51.9311L19.7013 55.1718L18.8878 58.4124L27.7556 55.3338L19.0505 51.9311Z" fill="white"/>
<path d="M22.3863 55.5768L19.5388 55.4958C19.3761 55.4958 19.2134 55.3338 19.2134 55.1717C19.2134 55.0097 19.3761 54.8477 19.5388 54.8477L22.3863 54.9287C22.549 54.9287 22.7117 55.0907 22.7117 55.2527C22.7117 55.4148 22.549 55.5768 22.3863 55.5768Z" fill="white"/>
<path d="M27.1046 38.6445C27.0233 38.6445 26.9419 38.6445 26.8606 38.5635C26.7792 38.4015 26.7792 38.2395 26.9419 38.1584C28.4877 36.8622 29.464 35.0798 29.6267 33.1355C29.7894 30.867 28.8131 28.5986 27.1046 27.0593C26.9419 26.9783 26.9419 26.7352 27.1046 26.6542C27.186 26.4922 27.4301 26.4922 27.5114 26.6542C29.464 28.2745 30.4402 30.705 30.2775 33.2165C30.1148 35.4039 29.0572 37.3483 27.4301 38.7256C27.186 38.5635 27.186 38.6445 27.1046 38.6445Z" fill="white"/>
<path d="M41.261 34.4317C41.0983 34.4317 40.9355 34.2697 40.9355 34.1077V31.2721C40.9355 31.1101 41.0983 30.9481 41.261 30.9481C41.4237 30.9481 41.5864 31.1101 41.5864 31.2721V34.1077C41.5864 34.3507 41.4237 34.4317 41.261 34.4317Z" fill="white"/>
<path d="M42.8069 35.0799C42.6442 35.0799 42.4814 34.9178 42.4814 34.7558V30.705C42.4814 30.543 42.6442 30.381 42.8069 30.381C42.9696 30.381 43.1323 30.543 43.1323 30.705V34.7558C43.1323 34.9178 42.9696 35.0799 42.8069 35.0799Z" fill="white"/>
<path d="M44.3528 34.4317C44.1901 34.4317 44.0273 34.2697 44.0273 34.1077V31.2721C44.0273 31.1101 44.1901 30.9481 44.3528 30.9481C44.5155 30.9481 44.6782 31.1101 44.6782 31.2721V34.1077C44.6782 34.3507 44.5155 34.4317 44.3528 34.4317Z" fill="white"/>
<path d="M43.9459 17.0133C43.8646 17.0133 43.8646 17.0133 43.8646 16.9323C43.7832 16.9323 43.7832 16.8513 43.7832 16.7703C43.7832 16.6893 43.7832 16.6893 43.8646 16.6082C43.9459 16.5272 44.0273 16.5272 44.1086 16.6082C44.19 16.6082 44.19 16.6893 44.19 16.7703C44.19 16.8513 44.19 16.8513 44.1086 16.9323C44.0273 17.0133 44.0273 17.0133 43.9459 17.0133Z" fill="#B8814A"/>
<path d="M43.5391 15.8791C43.4577 15.7981 43.539 15.7171 43.6204 15.6361C43.7017 15.5551 43.7831 15.6361 43.8645 15.7171C43.9458 15.7981 43.8645 15.8791 43.7831 15.9602H43.7017C43.6204 15.9602 43.5391 15.8791 43.5391 15.8791ZM42.8882 14.9069C42.8068 14.8259 42.8882 14.7449 42.9696 14.6639C43.0509 14.5829 43.1323 14.6639 43.2136 14.7449C43.295 14.8259 43.2136 14.9069 43.1323 14.988H43.0509C42.9696 14.988 42.8882 14.988 42.8882 14.9069Z" fill="#B8814A"/>
<path d="M42.7255 13.9347C42.6442 13.9347 42.6442 13.9347 42.5628 13.8537C42.5628 13.8537 42.4814 13.7727 42.4814 13.6917C42.4814 13.6107 42.4815 13.6107 42.5628 13.5297C42.6442 13.4486 42.7255 13.4486 42.8069 13.5297C42.8882 13.5297 42.8882 13.6107 42.8882 13.6917C42.8882 13.7727 42.8882 13.7727 42.8069 13.8537C42.8069 13.8537 42.8069 13.9347 42.7255 13.9347Z" fill="#B8814A"/>
<path d="M43.9456 23.3326C43.8642 23.3326 43.7828 23.2516 43.7828 23.1706C43.7828 22.4414 43.5388 22.1174 43.2133 21.7123C42.8879 21.3072 42.5625 20.9021 42.5625 20.0109C42.5625 19.2008 42.8879 18.7147 43.2133 18.3096C43.5388 17.9045 43.7828 17.5805 43.7828 16.8513C43.7828 16.7703 43.8642 16.6893 43.9456 16.6893C44.0269 16.6893 44.1083 16.7703 44.1083 16.8513C44.1083 17.6615 43.7828 18.1476 43.4574 18.5527C43.132 18.9577 42.8879 19.2818 42.8879 20.0109C42.8879 20.7401 43.132 21.0642 43.4574 21.4692C43.7828 21.8743 44.1083 22.2794 44.1083 23.1706C44.1083 23.2516 44.0269 23.3326 43.9456 23.3326Z" fill="#B8814A"/>
<path d="M42.7257 26.4922C42.6444 26.4922 42.6443 26.4922 42.6443 26.4112C42.563 26.4112 42.563 26.3301 42.563 26.2491C42.563 26.1681 42.563 26.1681 42.6443 26.0871C42.7257 26.0061 42.8071 26.0061 42.8884 26.0871C42.8884 26.0871 42.9698 26.1681 42.9698 26.2491C42.9698 26.3301 42.9698 26.3301 42.8884 26.4112C42.8071 26.4922 42.8071 26.4922 42.7257 26.4922Z" fill="#B8814A"/>
<path d="M42.9695 25.3579C42.8882 25.2769 42.8882 25.1959 42.8882 25.1149C42.9695 25.0339 43.0509 25.0339 43.1323 25.0339C43.2136 25.1149 43.2136 25.1959 43.2136 25.2769C43.2136 25.3579 43.1323 25.3579 43.0509 25.3579C42.9695 25.3579 42.9695 25.3579 42.9695 25.3579ZM43.6204 24.3858C43.539 24.3047 43.539 24.2237 43.539 24.1427C43.6204 24.0617 43.7017 23.9807 43.7831 24.0617C43.8645 24.1427 43.8645 24.2237 43.8645 24.3047C43.8645 24.3858 43.7831 24.3858 43.7017 24.3858C43.6204 24.4668 43.6204 24.4668 43.6204 24.3858Z" fill="#B8814A"/>
<path d="M43.9459 23.3326C43.8646 23.3326 43.8646 23.3326 43.8646 23.2516C43.7832 23.2516 43.7832 23.1705 43.7832 23.0895C43.7832 23.0085 43.7832 23.0085 43.8646 22.9275C43.9459 22.8465 44.0273 22.8465 44.1086 22.9275C44.19 22.9275 44.19 23.0085 44.19 23.0895C44.19 23.1705 44.19 23.1705 44.1086 23.2516C44.0273 23.3326 44.0273 23.3326 43.9459 23.3326Z" fill="#B8814A"/>
<path d="M41.8307 23.1705C41.8307 23.0895 41.912 23.0085 41.9934 23.0085C42.0747 23.0085 42.1561 23.0895 42.1561 23.1705C42.1561 23.2516 42.0747 23.3326 41.9934 23.3326C41.912 23.3326 41.8307 23.2516 41.8307 23.1705ZM41.5866 22.1173C41.5053 22.0363 41.5866 21.9553 41.668 21.8743C41.7493 21.7933 41.8307 21.8743 41.9121 21.9553C41.9934 22.0363 41.912 22.1173 41.8307 22.1984H41.7493C41.668 22.1984 41.5866 22.1173 41.5866 22.1173ZM40.8544 21.0641C40.7731 20.9831 40.8544 20.9021 40.9358 20.8211C41.0171 20.8211 41.0985 20.8211 41.1798 20.9021C41.2612 20.9831 41.1798 21.0641 41.0985 21.1451H41.0171C40.9358 21.1451 40.8544 21.1451 40.8544 21.0641ZM40.773 20.0109C40.6917 20.0109 40.6104 19.9299 40.6104 19.8489C40.6104 19.7679 40.6917 19.6869 40.773 19.6869C40.8544 19.6869 40.9358 19.7679 40.9358 19.8489C41.0171 19.9299 40.9358 20.0109 40.773 20.0109ZM41.0985 18.8767C41.0171 18.7957 41.0171 18.7147 41.0171 18.6337C41.0985 18.5526 41.1798 18.5526 41.2612 18.5526C41.3425 18.6337 41.3426 18.7147 41.3426 18.7957C41.3426 18.8767 41.2612 18.8767 41.1798 18.8767C41.1798 18.8767 41.1798 18.8767 41.0985 18.8767ZM41.8307 17.8235C41.7493 17.8235 41.668 17.6615 41.7493 17.5805C41.7493 17.4994 41.912 17.4184 41.9934 17.4994C42.0747 17.4994 42.1561 17.6615 42.0747 17.7425C41.9934 17.8235 41.9934 17.9045 41.8307 17.8235C41.8307 17.9045 41.8307 17.9045 41.8307 17.8235Z" fill="#B8814A"/>
<path d="M40.773 26.4922C40.6917 26.4922 40.6104 26.4111 40.6104 26.3301C40.6104 25.52 40.9358 25.0339 41.2612 24.6288C41.5866 24.2237 41.8307 23.8997 41.8307 23.1705C41.8307 23.0895 41.912 23.0085 41.9934 23.0085C42.0747 23.0085 42.1561 23.0895 42.1561 23.1705C42.1561 23.9807 41.8307 24.4668 41.5053 24.8718C41.1798 25.2769 40.9358 25.601 40.9358 26.3301C41.0171 26.4111 40.9358 26.4922 40.773 26.4922Z" fill="#B8814A"/>
<path d="M40.1223 23.3326C40.041 23.3326 39.9596 23.2515 39.9596 23.1705C39.9596 22.4414 39.7155 22.1173 39.3901 21.7122C39.0647 21.3072 38.7393 20.9021 38.7393 20.0109C38.7393 19.9299 38.8206 19.8489 38.902 19.8489C38.9833 19.8489 39.0647 19.9299 39.0647 20.0109C39.0647 20.74 39.3088 21.0641 39.6342 21.4692C39.9596 21.8743 40.285 22.2793 40.285 23.1705C40.285 23.2515 40.2037 23.3326 40.1223 23.3326Z" fill="#B8814A"/>
<path d="M38.9018 26.4922C38.8204 26.4922 38.8204 26.4922 38.7391 26.4112C38.7391 26.4112 38.6577 26.3301 38.6577 26.2491C38.6577 26.1681 38.6577 26.1681 38.7391 26.0871C38.8204 26.0061 38.9018 26.0061 38.9831 26.0871C38.9831 26.0871 39.0645 26.1681 39.0645 26.2491C39.0645 26.3301 39.0645 26.3301 38.9831 26.4112C38.9831 26.4922 38.9018 26.4922 38.9018 26.4922Z" fill="#B8814A"/>
<path d="M39.0648 25.3579C38.9834 25.2769 38.9834 25.1959 38.9834 25.1149C39.0648 25.0339 39.1461 25.0339 39.2275 25.0339C39.3088 25.1149 39.3088 25.1959 39.3088 25.2769C39.3088 25.3579 39.2275 25.3579 39.1461 25.3579H39.0648ZM39.7156 24.3858C39.6342 24.3047 39.5529 24.2237 39.6342 24.1427C39.7156 24.0617 39.797 23.9807 39.8783 24.0617C39.9597 24.1427 39.9597 24.2237 39.9597 24.3047C39.9597 24.3858 39.8783 24.3858 39.797 24.3858C39.797 24.4668 39.7156 24.4668 39.7156 24.3858Z" fill="#B8814A"/>
<path d="M40.122 23.3326C40.0406 23.3326 40.0406 23.3326 39.9593 23.2516C39.9593 23.2516 39.8779 23.1706 39.8779 23.0896C39.8779 23.0085 39.8779 23.0085 39.9593 22.9275C40.0406 22.8465 40.122 22.8465 40.2033 22.9275C40.2033 22.9275 40.2847 23.0085 40.2847 23.0896C40.2847 23.1706 40.2847 23.1706 40.2033 23.2516C40.2033 23.3326 40.122 23.3326 40.122 23.3326Z" fill="#B8814A"/>
<path d="M45.8178 23.3326C45.7364 23.3326 45.7364 23.3326 45.6551 23.2516C45.6551 23.2516 45.5737 23.1705 45.5737 23.0895C45.5737 23.0085 45.5737 23.0085 45.6551 22.9275C45.7364 22.8465 45.8178 22.8465 45.8991 22.9275C45.8991 22.9275 45.9805 23.0085 45.9805 23.0895C45.9805 23.1705 45.9805 23.1705 45.8991 23.2516C45.8991 23.3326 45.8991 23.3326 45.8178 23.3326Z" fill="#B8814A"/>
<path d="M45.4109 22.1173C45.3295 22.0363 45.4109 21.9553 45.4922 21.8743C45.5736 21.7933 45.6549 21.8743 45.7363 21.9553C45.8176 22.0363 45.7363 22.1173 45.6549 22.1983H45.5736C45.4922 22.1983 45.4109 22.1983 45.4109 22.1173ZM44.6787 21.2261C44.5973 21.1451 44.6787 21.0641 44.76 20.9831C44.8414 20.9021 44.9227 20.9831 45.0041 21.0641C45.0854 21.1451 45.0041 21.2261 44.9227 21.3072H44.8413C44.8413 21.3072 44.76 21.2261 44.6787 21.2261ZM44.4346 20.0109C44.4346 19.9299 44.5159 19.8489 44.5973 19.8489C44.6786 19.8489 44.76 19.9299 44.76 20.0109C44.76 20.0919 44.6786 20.1729 44.5973 20.1729C44.5159 20.1729 44.4346 20.0919 44.4346 20.0109ZM44.76 19.0387C44.6787 18.9577 44.6787 18.8767 44.6787 18.7957C44.76 18.7147 44.8414 18.6336 44.9227 18.7147C45.0041 18.7957 45.0041 18.8767 45.0041 18.9577C45.0041 19.0387 44.9227 19.0387 44.8413 19.0387C44.8413 19.1197 44.8414 19.1197 44.76 19.0387ZM45.4109 18.1475C45.3295 18.0665 45.3295 17.9855 45.3295 17.9045C45.4108 17.8235 45.4922 17.8235 45.5736 17.8235C45.6549 17.9045 45.6549 17.9855 45.6549 18.0665C45.6549 18.1475 45.5736 18.1475 45.4922 18.1475C45.4922 18.1475 45.4922 18.1475 45.4109 18.1475Z" fill="#B8814A"/>
<path d="M45.8178 17.0133C45.7364 17.0133 45.7364 17.0133 45.6551 16.9323C45.6551 16.9323 45.5737 16.8513 45.5737 16.7703C45.5737 16.6893 45.5737 16.6893 45.6551 16.6082C45.7364 16.5272 45.8178 16.5272 45.8991 16.6082C45.8991 16.6082 45.9805 16.6893 45.9805 16.7703C45.9805 16.8513 45.9805 16.8513 45.8991 16.9323C45.8991 17.0133 45.8991 17.0133 45.8178 17.0133Z" fill="#B8814A"/>
<path d="M44.5968 26.4922C44.5154 26.4922 44.4341 26.4111 44.4341 26.3301C44.4341 25.52 44.7595 25.0339 45.0849 24.6288C45.4104 24.2237 45.6544 23.8997 45.6544 23.1705C45.6544 23.0895 45.7358 23.0085 45.8171 23.0085C45.8985 23.0085 45.9799 23.0895 45.9799 23.1705C45.9799 23.9807 45.6544 24.4668 45.329 24.8718C45.0036 25.2769 44.7595 25.601 44.7595 26.3301C44.7595 26.4111 44.6782 26.4922 44.5968 26.4922Z" fill="#B8814A"/>
<path d="M47.6877 23.3326C47.6064 23.3326 47.525 23.2515 47.525 23.1705C47.525 22.4414 47.2809 22.1173 46.9555 21.7122C46.6301 21.3072 46.3047 20.9021 46.3047 20.0109C46.3047 19.9299 46.386 19.8489 46.4674 19.8489C46.5487 19.8489 46.6301 19.9299 46.6301 20.0109C46.6301 20.74 46.8742 21.0641 47.1996 21.4692C47.525 21.8743 47.8504 22.2793 47.8504 23.1705C47.8504 23.2515 47.7691 23.3326 47.6877 23.3326Z" fill="#B8814A"/>
<path d="M46.4679 26.4922C46.4679 26.4922 46.3865 26.4922 46.3865 26.4112C46.3865 26.4112 46.3052 26.3301 46.3052 26.2491C46.3052 26.1681 46.3052 26.1681 46.3865 26.0871C46.4679 26.0061 46.5492 26.0061 46.6306 26.0871C46.6306 26.0871 46.712 26.1681 46.712 26.2491C46.712 26.3301 46.712 26.3301 46.6306 26.4112C46.5492 26.4922 46.4679 26.4922 46.4679 26.4922Z" fill="#B8814A"/>
<path d="M46.6307 25.3579C46.5493 25.2769 46.468 25.1959 46.5493 25.1149C46.6307 25.0339 46.712 25.0339 46.7934 25.0339C46.8748 25.1149 46.8747 25.1959 46.8747 25.2769C46.8747 25.3579 46.7934 25.3579 46.712 25.3579H46.6307ZM47.2815 24.3858C47.2002 24.3047 47.2002 24.2237 47.2002 24.1427C47.2815 24.0617 47.3629 23.9807 47.4442 24.0617C47.5256 24.1427 47.5256 24.2237 47.5256 24.3047C47.5256 24.3858 47.4442 24.3858 47.3629 24.3858C47.3629 24.4668 47.3629 24.4668 47.2815 24.3858Z" fill="#B8814A"/>
<path d="M47.6881 23.3326C47.6881 23.3326 47.6068 23.3326 47.6068 23.2516C47.6068 23.2516 47.5254 23.1705 47.5254 23.0895C47.5254 23.0085 47.5254 23.0085 47.6068 22.9275C47.6881 22.8465 47.7695 22.8465 47.8508 22.9275C47.8508 22.9275 47.9322 23.0085 47.9322 23.0895C47.9322 23.1705 47.9322 23.1705 47.8508 23.2516C47.7695 23.3326 47.6881 23.3326 47.6881 23.3326Z" fill="#B8814A"/>
<path d="M42.5629 48.0423C42.4815 48.0423 42.4815 48.0423 42.4002 47.9613C42.4002 47.8803 42.3188 47.8803 42.3188 47.7993C42.3188 47.7183 42.3188 47.7183 42.4002 47.6372C42.4815 47.5562 42.5629 47.5562 42.6443 47.6372C42.6443 47.6372 42.7256 47.7183 42.7256 47.7993C42.7256 47.8803 42.7256 47.8803 42.6443 47.9613C42.6443 47.9613 42.6443 48.0423 42.5629 48.0423Z" fill="#B8814A"/>
<path d="M43.3764 49.9867C43.2951 49.9057 43.3764 49.8247 43.4578 49.7437C43.5392 49.6627 43.6205 49.7437 43.7019 49.8247C43.7832 49.9057 43.7018 49.9867 43.6205 50.0678H43.5392C43.4578 50.0678 43.3764 50.0678 43.3764 49.9867ZM42.7256 49.0146C42.6442 48.9335 42.7256 48.8525 42.8069 48.7715C42.8883 48.6905 42.9697 48.7715 43.051 48.8525C43.1324 48.9335 43.051 49.0145 42.9697 49.0956H42.8883C42.8069 49.0956 42.7256 49.0956 42.7256 49.0146Z" fill="#B8814A"/>
<path d="M43.7836 51.1209C43.7023 51.1209 43.7022 51.1209 43.6209 51.0399C43.6209 51.0399 43.5396 50.9589 43.5396 50.8779C43.5396 50.7969 43.5395 50.7969 43.6209 50.7159C43.7022 50.6348 43.7836 50.6348 43.865 50.7159C43.865 50.7159 43.9463 50.7969 43.9463 50.8779C43.9463 50.9589 43.9463 50.9589 43.865 51.0399C43.865 51.1209 43.865 51.1209 43.7836 51.1209Z" fill="#B8814A"/>
<path d="M42.5621 48.0423C42.4808 48.0423 42.3994 47.9613 42.3994 47.8803C42.3994 47.0701 42.7249 46.5841 43.0503 46.179C43.3757 45.7739 43.6198 45.4498 43.6198 44.7207C43.6198 43.9916 43.3757 43.6675 43.0503 43.2624C42.7249 42.8573 42.3994 42.4523 42.3994 41.5611C42.3994 41.4801 42.4808 41.399 42.5621 41.399C42.6435 41.399 42.7249 41.4801 42.7249 41.5611C42.7249 42.2902 42.9689 42.6143 43.2943 43.0194C43.6198 43.4244 43.9452 43.8295 43.9452 44.7207C43.9452 45.5309 43.6198 46.0169 43.2943 46.422C42.9689 46.8271 42.7249 47.1512 42.7249 47.8803C42.7249 47.9613 42.6435 48.0423 42.5621 48.0423Z" fill="#B8814A"/>
<path d="M43.7836 38.5635C43.7023 38.5635 43.7022 38.5635 43.6209 38.4825C43.6209 38.4825 43.5396 38.4015 43.5396 38.3205C43.5396 38.2394 43.5395 38.2394 43.6209 38.1584C43.7022 38.0774 43.7836 38.0774 43.865 38.1584C43.865 38.1584 43.9463 38.2394 43.9463 38.3205C43.9463 38.4015 43.9463 38.4015 43.865 38.4825C43.865 38.5635 43.865 38.5635 43.7836 38.5635Z" fill="#B8814A"/>
<path d="M42.7259 40.5889C42.6445 40.5079 42.6445 40.4269 42.6445 40.3459C42.7259 40.2649 42.8072 40.2649 42.8886 40.2649C42.9699 40.3459 42.97 40.4269 42.97 40.5079C42.97 40.5889 42.8886 40.5889 42.8072 40.5889C42.8072 40.5889 42.8072 40.5889 42.7259 40.5889ZM43.3767 39.6978C43.2954 39.6167 43.2954 39.5357 43.2954 39.4547C43.3767 39.3737 43.4581 39.3737 43.5395 39.3737C43.6208 39.4547 43.6208 39.5357 43.6208 39.6167C43.6208 39.6978 43.5394 39.6978 43.4581 39.6978C43.4581 39.6978 43.4581 39.6978 43.3767 39.6978Z" fill="#B8814A"/>
<path d="M42.5629 41.7231C42.4815 41.7231 42.4815 41.7231 42.4002 41.6421C42.4002 41.6421 42.3188 41.5611 42.3188 41.4801C42.3188 41.399 42.3188 41.399 42.4002 41.318C42.4815 41.237 42.5629 41.237 42.6443 41.318C42.7256 41.399 42.7256 41.399 42.7256 41.4801C42.7256 41.4801 42.7256 41.5611 42.6443 41.5611C42.6443 41.7231 42.6443 41.7231 42.5629 41.7231Z" fill="#B8814A"/>
<path d="M44.5966 47.1512C44.5152 47.0702 44.4339 46.9891 44.5152 46.9081C44.5152 46.8271 44.678 46.7461 44.7593 46.8271C44.8407 46.8271 44.922 46.9891 44.8407 47.0701C44.7593 47.1512 44.7593 47.2322 44.5966 47.1512C44.5966 47.2322 44.5966 47.2322 44.5966 47.1512ZM45.1661 46.179C45.0847 46.098 45.0847 46.0169 45.1661 45.9359C45.2475 45.8549 45.3288 45.8549 45.4102 45.8549C45.4915 45.9359 45.4915 46.0169 45.4915 46.098C45.4915 46.179 45.4102 46.179 45.3288 46.179C45.2474 46.179 45.2475 46.179 45.1661 46.179ZM45.7356 45.0448C45.6542 45.0448 45.5729 44.9637 45.5729 44.8827C45.5729 44.8017 45.6542 44.7207 45.7356 44.7207C45.8169 44.7207 45.8983 44.8017 45.8983 44.8827C45.8983 44.9637 45.8169 45.0448 45.7356 45.0448ZM45.3288 43.7485C45.3288 43.6675 45.3288 43.5865 45.4102 43.5055C45.4915 43.5055 45.5729 43.5055 45.6542 43.5865C45.7356 43.6675 45.6542 43.7485 45.5729 43.8295H45.4915C45.4102 43.9105 45.4102 43.8295 45.3288 43.7485ZM44.678 42.7763C44.5966 42.6953 44.678 42.6143 44.7593 42.5333C44.8407 42.4523 44.922 42.5333 45.0034 42.6143C45.0847 42.6953 45.0034 42.7763 44.922 42.8573H44.8407C44.7593 42.8573 44.678 42.8573 44.678 42.7763ZM44.3525 41.5611C44.3525 41.4801 44.4339 41.399 44.5152 41.399C44.5966 41.399 44.678 41.4801 44.678 41.5611C44.678 41.6421 44.5966 41.7231 44.5152 41.7231C44.4339 41.7231 44.3525 41.6421 44.3525 41.5611Z" fill="#B8814A"/>
<path d="M44.5152 41.7238C44.4339 41.7238 44.3525 41.6427 44.3525 41.5617C44.3525 40.7516 44.678 40.2655 45.0034 39.8604C45.3288 39.4553 45.5729 39.1313 45.5729 38.4021C45.5729 38.3211 45.6542 38.2401 45.7356 38.2401C45.8169 38.2401 45.8983 38.3211 45.8983 38.4021C45.8983 39.2123 45.5729 39.6984 45.2474 40.1034C44.922 40.5085 44.678 40.8326 44.678 41.5617C44.678 41.6427 44.5966 41.7238 44.5152 41.7238Z" fill="#B8814A"/>
<path d="M47.6877 44.8827C47.6064 44.8827 47.525 44.8017 47.525 44.7207C47.525 43.9916 47.2809 43.6675 46.9555 43.2624C46.6301 42.8573 46.3047 42.4523 46.3047 41.5611C46.3047 41.4801 46.386 41.399 46.4674 41.399C46.5487 41.399 46.6301 41.4801 46.6301 41.5611C46.6301 42.2902 46.8742 42.6143 47.1996 43.0194C47.525 43.4244 47.8504 43.8295 47.8504 44.7207C47.8504 44.8017 47.7691 44.8827 47.6877 44.8827Z" fill="#B8814A"/>
<path d="M47.6876 38.5638C47.6876 38.5638 47.6063 38.5638 47.6063 38.4828C47.6063 38.4828 47.5249 38.4018 47.5249 38.3208C47.5249 38.3208 47.5249 38.2398 47.6063 38.2398C47.6876 38.1588 47.769 38.1588 47.8503 38.2398C47.8503 38.3208 47.9317 38.3208 47.9317 38.4018C47.9317 38.4828 47.9317 38.4828 47.8503 38.5638C47.769 38.5638 47.6876 38.5638 47.6876 38.5638Z" fill="#B8814A"/>
<path d="M46.6302 40.5889C46.5488 40.5079 46.5488 40.4269 46.5488 40.3458C46.6302 40.2648 46.7116 40.2648 46.7929 40.2648C46.8743 40.3458 46.8742 40.4269 46.8742 40.5079C46.8742 40.5889 46.7929 40.5889 46.7115 40.5889H46.6302ZM47.281 39.6977C47.1997 39.6167 47.1183 39.5357 47.1997 39.4547C47.281 39.3737 47.3624 39.3737 47.4437 39.3737C47.5251 39.4547 47.5251 39.5357 47.5251 39.6167C47.5251 39.6977 47.4437 39.6977 47.3624 39.6977C47.3624 39.6977 47.281 39.6977 47.281 39.6977Z" fill="#B8814A"/>
<path d="M46.4674 41.7231C46.4674 41.7231 46.386 41.7231 46.386 41.6421C46.386 41.6421 46.3047 41.5611 46.3047 41.4801C46.3047 41.399 46.3047 41.399 46.386 41.318C46.4674 41.237 46.5488 41.237 46.6301 41.318C46.6301 41.399 46.7115 41.399 46.7115 41.4801C46.7115 41.5611 46.7115 41.5611 46.6301 41.5611C46.5488 41.7231 46.4674 41.7231 46.4674 41.7231Z" fill="#B8814A"/>
<path d="M40.6913 41.7231C40.61 41.7231 40.61 41.7231 40.5286 41.6421C40.5286 41.6421 40.4473 41.5611 40.4473 41.4801C40.4473 41.399 40.4473 41.399 40.5286 41.318C40.61 41.237 40.6913 41.237 40.7727 41.318C40.7727 41.399 40.854 41.399 40.854 41.4801C40.854 41.5611 40.854 41.5611 40.7727 41.5611C40.7727 41.7231 40.7727 41.7231 40.6913 41.7231Z" fill="#B8814A"/>
<path d="M40.9354 46.9081C40.854 46.8271 40.854 46.7461 40.854 46.6651C40.9354 46.584 41.0167 46.584 41.0981 46.584C41.1794 46.6651 41.1794 46.7461 41.1794 46.8271C41.1794 46.9081 41.0981 46.9081 41.0167 46.9081C40.9354 46.9081 40.9354 46.9081 40.9354 46.9081ZM41.5862 45.9359C41.5049 45.8549 41.5049 45.7739 41.5049 45.6929C41.5862 45.6118 41.6676 45.6118 41.7489 45.6118C41.8303 45.6929 41.8303 45.7739 41.8303 45.8549C41.8303 45.9359 41.7489 45.9359 41.6676 45.9359C41.6676 45.9359 41.5862 45.9359 41.5862 45.9359ZM41.7489 44.7207C41.7489 44.6397 41.8303 44.5586 41.9117 44.5586C41.993 44.5586 42.0743 44.6397 42.0743 44.7207C42.0743 44.8017 41.993 44.8827 41.9117 44.8827C41.8303 44.8827 41.7489 44.8017 41.7489 44.7207ZM41.5049 43.6675C41.4235 43.5865 41.5049 43.5054 41.5862 43.4244C41.6676 43.3434 41.7489 43.4244 41.8303 43.5054C41.9116 43.5865 41.8303 43.6675 41.7489 43.7485H41.6676C41.5862 43.7485 41.5049 43.7485 41.5049 43.6675ZM40.854 42.7763C40.7727 42.6953 40.854 42.6143 40.9354 42.5333C41.0167 42.4522 41.0981 42.5333 41.1794 42.6143C41.2608 42.6953 41.1794 42.7763 41.0981 42.8573H41.0167C40.9354 42.8573 40.854 42.7763 40.854 42.7763Z" fill="#B8814A"/>
<path d="M40.6913 48.0423C40.61 48.0423 40.61 48.0423 40.5286 47.9613C40.5286 47.9613 40.4473 47.8803 40.4473 47.7993C40.4473 47.7183 40.4473 47.7183 40.5286 47.6372C40.61 47.5562 40.6913 47.5562 40.7727 47.6372C40.7727 47.6372 40.854 47.7183 40.854 47.7993C40.854 47.8803 40.854 47.8803 40.7727 47.9613C40.854 47.9613 40.7727 48.0423 40.6913 48.0423Z" fill="#B8814A"/>
<path d="M40.691 41.7238C40.6097 41.7238 40.5283 41.6427 40.5283 41.5617C40.5283 40.7516 40.8537 40.2655 41.1792 39.8604C41.5046 39.4553 41.7487 39.1313 41.7487 38.4021C41.7487 38.3211 41.83 38.2401 41.9114 38.2401C41.9927 38.2401 42.0741 38.3211 42.0741 38.4021C42.0741 39.2123 41.7487 39.6984 41.4232 40.1034C41.0978 40.5085 40.8537 40.8326 40.8537 41.5617C40.9351 41.6427 40.8538 41.7238 40.691 41.7238Z" fill="#B8814A"/>
<path d="M40.1218 44.8827C40.0405 44.8827 39.9591 44.8017 39.9591 44.7207C39.9591 43.9916 39.7151 43.6675 39.3896 43.2624C39.0642 42.8573 38.7388 42.4523 38.7388 41.5611C38.7388 41.4801 38.8201 41.399 38.9015 41.399C38.9828 41.399 39.0642 41.4801 39.0642 41.5611C39.0642 42.2902 39.3083 42.6143 39.6337 43.0194C39.9591 43.4244 40.2846 43.8295 40.2846 44.7207C40.2846 44.8017 40.2032 44.8827 40.1218 44.8827Z" fill="#B8814A"/>
<path d="M40.122 38.5635C40.0406 38.5635 40.0406 38.5635 39.9593 38.4825C39.9593 38.4825 39.8779 38.4015 39.8779 38.3205C39.8779 38.2394 39.8779 38.2394 39.9593 38.1584C40.0406 38.0774 40.122 38.0774 40.2033 38.1584C40.2033 38.2394 40.2847 38.2394 40.2847 38.3205C40.2847 38.4015 40.2847 38.4015 40.2033 38.4825C40.2033 38.5635 40.122 38.5635 40.122 38.5635Z" fill="#B8814A"/>
<path d="M39.0643 40.5889C38.9829 40.5079 38.9829 40.4269 38.9829 40.3459C39.0643 40.2649 39.1456 40.2649 39.227 40.2649C39.3083 40.3459 39.3083 40.4269 39.3083 40.5079C39.3083 40.5889 39.227 40.5889 39.1456 40.5889H39.0643ZM39.7151 39.6978C39.6338 39.6167 39.5524 39.5357 39.6337 39.4547C39.7151 39.3737 39.7965 39.3737 39.8778 39.3737C39.9592 39.4547 39.9592 39.5357 39.9592 39.6167C39.9592 39.6978 39.8778 39.6978 39.7965 39.6978H39.7151Z" fill="#B8814A"/>
<path d="M38.9015 41.7231C38.8201 41.7231 38.8201 41.7231 38.8201 41.6421C38.8201 41.6421 38.7388 41.5611 38.7388 41.4801C38.7388 41.399 38.7388 41.399 38.8201 41.318C38.9015 41.237 38.9829 41.237 39.0642 41.318C39.0642 41.399 39.1455 41.399 39.1455 41.4801C39.1455 41.4801 39.1456 41.5611 39.0642 41.5611C38.9829 41.7231 38.9015 41.7231 38.9015 41.7231Z" fill="#B8814A"/>
<path d="M59.8912 10.8562C59.8098 10.8562 59.8099 10.8562 59.7285 10.7751C59.6471 10.6941 59.6471 10.5321 59.7285 10.4511L62.0878 8.10162C62.1692 8.02061 62.3319 8.02061 62.4132 8.10162C62.4946 8.18264 62.4946 8.34467 62.4132 8.42569L60.0539 10.7751C60.0539 10.8562 59.9726 10.8562 59.8912 10.8562Z" fill="#B8814A"/>
<path d="M58.3458 8.91177H58.2645C58.1831 8.83075 58.1018 8.74974 58.1831 8.58771L59.2407 6.72435C59.3221 6.64333 59.4034 6.56231 59.5662 6.64333C59.6475 6.72435 59.7289 6.80536 59.6475 6.96739L58.5899 8.83075C58.5085 8.91177 58.4272 8.91177 58.3458 8.91177Z" fill="#B8814A"/>
<path d="M61.8439 12.3954C61.7625 12.3954 61.6812 12.3954 61.6812 12.3144C61.5998 12.2334 61.6812 12.0714 61.7625 11.9904L63.5523 10.9372C63.6337 10.8561 63.7964 10.9372 63.8778 11.0182C63.9591 11.0992 63.8778 11.2612 63.7964 11.3422L62.0066 12.3954C61.9252 12.3954 61.9252 12.3954 61.8439 12.3954Z" fill="#B8814A"/>
<path d="M56.7996 6.40028C56.7182 6.31927 56.7182 6.15724 56.7182 6.07622C56.7995 5.9952 56.9623 5.91419 57.0436 5.9952C57.125 6.07622 57.125 6.23825 57.125 6.31927C57.0436 6.40028 57.0436 6.40028 56.9623 6.40028C56.8809 6.4813 56.8809 6.4813 56.7996 6.40028ZM55.5792 5.50911C55.4979 5.42809 55.4165 5.26606 55.4979 5.18505C55.5792 5.10403 55.7419 5.02301 55.8233 5.10403C55.9046 5.18505 55.986 5.34708 55.9046 5.42809C55.8233 5.50911 55.8233 5.50911 55.7419 5.50911C55.6606 5.59013 55.6606 5.59013 55.5792 5.50911ZM54.3589 4.69895C54.2775 4.61794 54.1962 4.53692 54.2775 4.37489C54.3589 4.29387 54.4402 4.21286 54.6029 4.29387C54.6843 4.37489 54.7657 4.53692 54.6843 4.61794C54.6029 4.69895 54.603 4.69895 54.5216 4.69895C54.4402 4.77997 54.3589 4.77997 54.3589 4.69895ZM53.0572 3.96981C52.9758 3.88879 52.8945 3.80778 52.9758 3.64575C53.0572 3.56473 53.1385 3.48372 53.3013 3.56473C53.3826 3.64575 53.464 3.72676 53.3826 3.88879C53.3012 3.96981 53.2199 3.96981 53.2199 3.96981C53.0572 3.96981 53.0572 3.96981 53.0572 3.96981ZM51.6741 3.24067C51.5928 3.15965 51.5114 3.07864 51.5928 2.91661C51.6741 2.83559 51.7555 2.75457 51.9182 2.83559C51.9996 2.91661 52.0809 2.99762 51.9996 3.15965C51.9996 3.24067 51.9182 3.32168 51.8368 3.32168C51.7555 3.24067 51.6741 3.24067 51.6741 3.24067Z" fill="#D4D8E4"/>
<path d="M67.2942 18.7957C67.2128 18.7147 67.2942 18.5526 67.3755 18.4716C67.4569 18.3906 67.6196 18.4716 67.701 18.5526C67.7823 18.6337 67.701 18.7957 67.6196 18.8767H67.5383C67.4569 18.9577 67.3755 18.8767 67.2942 18.7957ZM66.562 17.4994C66.4806 17.4184 66.562 17.2564 66.6433 17.1754C66.7247 17.0944 66.8874 17.1754 66.9688 17.2564C67.0501 17.3374 66.9688 17.4994 66.8874 17.5805H66.806C66.7247 17.5805 66.6433 17.5805 66.562 17.4994ZM65.8298 16.2032C65.7484 16.1222 65.8298 15.9601 65.9111 15.8791C65.9925 15.7981 66.1552 15.8791 66.2366 15.9601C66.3179 16.0412 66.2366 16.2032 66.1552 16.2842H66.0738C65.9111 16.2842 65.8298 16.2842 65.8298 16.2032ZM65.0162 14.9069C64.9349 14.8259 64.9349 14.6639 65.0976 14.5829C65.1789 14.5019 65.3417 14.5829 65.423 14.6639C65.5044 14.7449 65.5044 14.9069 65.3416 14.988C65.2603 14.988 65.2603 15.069 65.1789 15.069C65.0976 14.988 65.0162 14.988 65.0162 14.9069ZM64.1213 13.6917C64.04 13.6107 64.04 13.4487 64.2027 13.3676C64.284 13.2866 64.4467 13.2866 64.5281 13.4487C64.6094 13.5297 64.6094 13.6917 64.4467 13.7727C64.3654 13.7727 64.3654 13.8537 64.284 13.8537C64.2027 13.7727 64.1213 13.7727 64.1213 13.6917Z" fill="#D4D8E4"/>
<path d="M62.2505 57.6832C62.1692 57.6832 62.1692 57.6832 62.0878 57.6022L59.7285 55.2527C59.6471 55.1717 59.6471 55.0097 59.7285 54.9287C59.8099 54.8477 59.9726 54.8477 60.0539 54.9287L62.4132 57.2781C62.4946 57.3592 62.4946 57.5212 62.4132 57.6022C62.3319 57.6832 62.3319 57.6832 62.2505 57.6832Z" fill="#B8814A"/>
<path d="M59.4035 59.0605C59.3221 59.0605 59.2407 58.9795 59.2407 58.9795L58.1831 57.1161C58.1018 57.0351 58.1831 56.8731 58.2645 56.7921C58.3458 56.7111 58.5085 56.7921 58.5899 56.8731L59.6475 58.7364C59.7289 58.8175 59.6475 58.9795 59.5662 59.0605C59.4848 59.0605 59.4848 59.0605 59.4035 59.0605Z" fill="#B8814A"/>
<path d="M63.6337 54.8477H63.5523L61.7625 53.7945C61.6812 53.7135 61.5998 53.5514 61.6812 53.4704C61.7625 53.3894 61.9252 53.3084 62.0066 53.3894L63.7964 54.4426C63.8778 54.5236 63.9591 54.6856 63.8778 54.7667C63.7964 54.8477 63.7151 54.8477 63.6337 54.8477Z" fill="#B8814A"/>
<path d="M51.5933 62.7872C51.5119 62.7062 51.5933 62.5442 51.6746 62.4631C51.756 62.3821 51.9187 62.4631 52 62.5442C52.0814 62.6252 52 62.7872 51.9187 62.8682C51.8373 62.8682 51.8373 62.8682 51.8373 62.8682C51.6746 62.8682 51.5933 62.8682 51.5933 62.7872ZM52.895 62.0581C52.8136 61.977 52.8949 61.815 52.9763 61.734C53.0577 61.653 53.2204 61.734 53.3017 61.815C53.3831 61.896 53.3017 62.0581 53.2204 62.1391H53.139C53.0577 62.2201 52.9763 62.1391 52.895 62.0581ZM54.278 61.3289C54.1966 61.2479 54.278 61.0859 54.3594 61.0049C54.4407 60.9238 54.6034 61.0049 54.6848 61.0859C54.7661 61.1669 54.6848 61.3289 54.6034 61.4099C54.5221 61.4099 54.5221 61.4099 54.4407 61.4099C54.3594 61.4099 54.278 61.4099 54.278 61.3289ZM55.4983 60.5188C55.417 60.4377 55.417 60.2757 55.5797 60.1947C55.6611 60.1137 55.8238 60.1137 55.9051 60.2757C55.9865 60.3567 55.9865 60.5188 55.8238 60.5998C55.8238 60.5998 55.7424 60.5998 55.6611 60.5998C55.6611 60.5998 55.5797 60.5998 55.4983 60.5188ZM56.8 59.6276C56.7187 59.5466 56.7187 59.3845 56.8814 59.3035C56.9628 59.2225 57.1255 59.2225 57.2068 59.3035C57.2882 59.3845 57.2882 59.5466 57.1255 59.6276C57.1255 59.6276 57.0441 59.6276 56.9628 59.6276C56.8814 59.7086 56.8 59.7086 56.8 59.6276Z" fill="#D4D8E4"/>
<path d="M64.1224 52.3362C64.041 52.2552 63.9597 52.0931 64.041 52.0121C64.1224 51.9311 64.2851 51.8501 64.3664 51.9311C64.4478 52.0121 64.4478 52.1741 64.4478 52.2552C64.3664 52.3362 64.3665 52.3362 64.2851 52.3362C64.2851 52.4172 64.2037 52.4172 64.1224 52.3362ZM65.0173 51.1209C64.9359 51.0399 64.8546 50.8779 64.9359 50.7969C65.0173 50.7159 65.18 50.6348 65.2614 50.7159C65.3427 50.7969 65.4241 50.9589 65.3427 51.0399C65.3427 51.1209 65.2614 51.1209 65.18 51.1209C65.18 51.202 65.0987 51.1209 65.0173 51.1209ZM65.9122 49.9057C65.8309 49.8247 65.7495 49.6627 65.8309 49.5816C65.9122 49.5006 66.0749 49.4196 66.1563 49.5006C66.2376 49.5816 66.319 49.6627 66.2376 49.8247C66.1563 49.9057 66.1563 49.9057 66.0749 49.9057C65.9936 49.9057 65.9122 49.9057 65.9122 49.9057ZM66.6444 48.6095C66.5631 48.5284 66.4817 48.4474 66.5631 48.2854C66.6444 48.2044 66.7258 48.1234 66.8885 48.2044C66.9698 48.2854 67.0512 48.3664 66.9698 48.5284C66.8885 48.6095 66.8071 48.6095 66.8071 48.6095C66.7258 48.6095 66.7258 48.6095 66.6444 48.6095ZM67.3766 47.2322C67.2953 47.1512 67.2139 47.0702 67.2953 46.9081C67.3766 46.8271 67.458 46.7461 67.6207 46.8271C67.702 46.9081 67.7834 46.9891 67.702 47.1512C67.702 47.2322 67.6207 47.3132 67.458 47.3132C67.458 47.2322 67.458 47.2322 67.3766 47.2322Z" fill="#D4D8E4"/>
<path d="M12.8676 22.1983C11.4032 22.1983 10.2642 21.0641 10.2642 19.6058C10.2642 18.1476 11.4032 17.0133 12.8676 17.0133C14.332 17.0133 15.471 18.1476 15.471 19.6058C15.5523 21.0641 14.332 22.1983 12.8676 22.1983ZM12.8676 17.6615C11.7286 17.6615 10.8337 18.5526 10.8337 19.6869C10.8337 20.8211 11.7286 21.7122 12.8676 21.7122C14.0065 21.7122 14.9015 20.8211 14.9015 19.6869C14.9015 18.5526 14.0065 17.6615 12.8676 17.6615Z" fill="white"/>
<path d="M15.5522 22.5224C15.4708 22.5224 15.3895 22.5224 15.3895 22.4414C15.3895 22.3604 15.3081 22.3604 15.3081 22.2794C15.3081 22.1983 15.3081 22.1173 15.3895 22.1173C15.3895 22.1173 15.4708 22.0363 15.5522 22.0363C15.6335 22.0363 15.6335 22.0363 15.7149 22.1173C15.7962 22.1173 15.7962 22.1983 15.7962 22.2794C15.7962 22.3604 15.7962 22.4414 15.7149 22.4414C15.6335 22.4414 15.5522 22.5224 15.5522 22.5224Z" fill="#D4D8E4"/>
<path d="M12.7046 23.3326C12.7046 23.1705 12.786 23.0895 12.9487 23.0895C13.0301 23.0895 13.1928 23.1705 13.1928 23.3326C13.1928 23.4946 13.1114 23.5756 12.9487 23.5756C12.786 23.5756 12.7046 23.4946 12.7046 23.3326ZM14.0877 23.1705C14.0063 23.0895 14.0877 22.9275 14.1691 22.8465C14.2504 22.7654 14.4131 22.8465 14.4945 23.0085C14.4945 23.0895 14.4945 23.2515 14.3317 23.3326H14.2504C14.2504 23.3326 14.169 23.2515 14.0877 23.1705ZM11.403 23.2515C11.3216 23.1705 11.2402 23.0895 11.2402 22.9275C11.3216 22.8465 11.4029 22.7654 11.5657 22.7654C11.647 22.8465 11.7284 22.9275 11.647 23.0895C11.647 23.1705 11.5657 23.2515 11.403 23.2515C11.403 23.2515 11.4843 23.2515 11.403 23.2515Z" fill="#D4D8E4"/>
<path d="M10.2641 22.5224C10.1827 22.5224 10.1014 22.5224 10.1014 22.4414C10.1014 22.3604 10.02 22.3604 10.02 22.2794C10.02 22.1983 10.02 22.1173 10.1014 22.1173C10.1014 22.1173 10.1827 22.0363 10.2641 22.0363C10.3454 22.0363 10.3454 22.0363 10.4268 22.1173C10.4268 22.1173 10.5082 22.1983 10.5082 22.2794C10.5082 22.3604 10.5082 22.4414 10.4268 22.4414C10.4268 22.4414 10.3454 22.5224 10.2641 22.5224Z" fill="#D4D8E4"/>
<path d="M10.2641 17.2564C10.1827 17.2564 10.1827 17.2564 10.1014 17.1754C10.1014 17.1754 10.02 17.0944 10.02 17.0134C10.02 16.9323 10.02 16.8513 10.1014 16.8513C10.1827 16.7703 10.3454 16.7703 10.4268 16.8513C10.4268 16.8513 10.5082 16.9323 10.5082 17.0134C10.5082 17.0944 10.5082 17.0944 10.4268 17.1754C10.3454 17.2564 10.3454 17.2564 10.2641 17.2564Z" fill="#D4D8E4"/>
<path d="M11.2402 16.2842C11.1589 16.2032 11.2402 16.0411 11.3216 15.9601C11.403 15.8791 11.5657 15.9601 11.647 16.0411C11.7284 16.2032 11.647 16.2842 11.4843 16.3652H11.403C11.403 16.4462 11.3216 16.3652 11.2402 16.2842ZM14.2504 16.4462C14.1691 16.3652 14.0877 16.2842 14.0877 16.1222C14.1691 16.0411 14.2504 15.9601 14.4131 16.0411C14.4945 16.1221 14.5758 16.2032 14.5758 16.3652C14.5758 16.4462 14.4131 16.5272 14.3318 16.5272C14.3318 16.4462 14.2504 16.4462 14.2504 16.4462ZM12.7046 15.9601C12.7046 15.7981 12.786 15.7171 12.9487 15.7171C13.1114 15.7171 13.1928 15.7981 13.1928 15.9601C13.1928 16.1221 13.1114 16.2032 12.9487 16.2032C12.786 16.1222 12.7046 16.0411 12.7046 15.9601Z" fill="#D4D8E4"/>
<path d="M15.5522 17.2564C15.4708 17.2564 15.4708 17.2564 15.3895 17.1754C15.3895 17.0944 15.3081 17.0944 15.3081 17.0134C15.3081 16.9323 15.3081 16.8513 15.3895 16.8513C15.4708 16.7703 15.6335 16.7703 15.7149 16.8513C15.7962 16.8513 15.7962 16.9323 15.7962 17.0134C15.7962 17.0944 15.7962 17.1754 15.7149 17.1754C15.6335 17.2564 15.5522 17.2564 15.5522 17.2564Z" fill="#D4D8E4"/>
<path d="M12.8679 20.9831C12.1357 20.9831 11.4849 20.335 11.4849 19.6059C11.4849 18.8767 12.1357 18.2286 12.8679 18.2286C13.6001 18.2286 14.251 18.8767 14.251 19.6059C14.251 20.416 13.6815 20.9831 12.8679 20.9831ZM12.8679 18.7147C12.3798 18.7147 11.973 19.1198 11.973 19.6059C11.973 20.092 12.3798 20.497 12.8679 20.497C13.3561 20.497 13.7628 20.092 13.7628 19.6059C13.8442 19.1198 13.4374 18.7147 12.8679 18.7147Z" fill="#D4D8E4"/>
<path d="M12.8676 48.6905C11.4032 48.6905 10.2642 47.5563 10.2642 46.098C10.2642 44.6397 11.4032 43.5055 12.8676 43.5055C14.332 43.5055 15.471 44.6397 15.471 46.098C15.5523 47.5563 14.332 48.6905 12.8676 48.6905ZM12.8676 44.0726C11.7286 44.0726 10.8337 44.9638 10.8337 46.098C10.8337 47.2322 11.7286 48.1234 12.8676 48.1234C14.0065 48.1234 14.9015 47.2322 14.9015 46.098C14.9015 44.9638 14.0065 44.0726 12.8676 44.0726Z" fill="white"/>
<path d="M15.5522 43.7485C15.4708 43.7485 15.3895 43.7485 15.3895 43.6675C15.3895 43.6675 15.3081 43.5865 15.3081 43.5054C15.3081 43.4244 15.3081 43.3434 15.3895 43.3434C15.4708 43.2624 15.6335 43.2624 15.7149 43.3434C15.7962 43.3434 15.7962 43.4244 15.7962 43.5054C15.7962 43.5865 15.7962 43.5865 15.7149 43.6675C15.6335 43.6675 15.5522 43.7485 15.5522 43.7485Z" fill="#D4D8E4"/>
<path d="M14.2504 42.8573C14.1691 42.7763 14.0877 42.6953 14.1691 42.5333C14.2504 42.4523 14.3318 42.3712 14.4945 42.4523C14.5758 42.5333 14.6572 42.6143 14.5758 42.7763C14.5758 42.8573 14.4945 42.9384 14.3318 42.9384C14.3318 42.9384 14.2504 42.9384 14.2504 42.8573ZM11.2402 42.7763C11.1589 42.6143 11.2402 42.5333 11.3216 42.4523C11.4843 42.3712 11.5657 42.4523 11.647 42.5333C11.7284 42.6143 11.647 42.7763 11.5657 42.8573H11.4843C11.4029 42.9384 11.3216 42.8573 11.2402 42.7763ZM12.7046 42.3713C12.7046 42.2902 12.786 42.1282 12.9487 42.1282C13.1114 42.1282 13.1928 42.2092 13.1928 42.3713C13.1928 42.5333 13.1114 42.6143 12.9487 42.6143C12.786 42.6143 12.7046 42.5333 12.7046 42.3713Z" fill="#D4D8E4"/>
<path d="M10.2641 43.7485C10.1827 43.7485 10.1014 43.7485 10.1014 43.6675C10.1014 43.6675 10.02 43.5865 10.02 43.5054C10.02 43.4244 10.02 43.3434 10.1014 43.3434C10.1827 43.2624 10.3454 43.2624 10.4268 43.3434C10.5082 43.3434 10.5082 43.4244 10.5082 43.5054C10.5082 43.5865 10.5082 43.5865 10.4268 43.6675C10.4268 43.6675 10.3454 43.7485 10.2641 43.7485Z" fill="#D4D8E4"/>
<path d="M10.2641 48.9335C10.1827 48.9335 10.1827 48.9335 10.1014 48.8525C10.1014 48.8525 10.02 48.7715 10.02 48.6905C10.02 48.6095 10.02 48.5285 10.1014 48.5285C10.1827 48.5285 10.1827 48.4474 10.2641 48.4474C10.3454 48.4474 10.3454 48.4474 10.4268 48.5285C10.5082 48.5285 10.5082 48.6095 10.5082 48.6905C10.5082 48.7715 10.5082 48.8525 10.4268 48.8525C10.3454 48.9335 10.3454 48.9335 10.2641 48.9335Z" fill="#D4D8E4"/>
<path d="M12.7043 49.8247C12.7043 49.6626 12.7857 49.5816 12.9484 49.5816C13.0298 49.5816 13.1925 49.6626 13.1925 49.8247C13.1925 49.9867 13.1111 50.0677 12.9484 50.0677C12.7857 50.0677 12.7043 49.9057 12.7043 49.8247ZM11.4027 49.7436C11.3213 49.7436 11.2399 49.5816 11.3213 49.4196C11.4027 49.3386 11.484 49.2576 11.6467 49.2576C11.7281 49.3386 11.8094 49.4196 11.7281 49.5816C11.7281 49.6626 11.6467 49.7436 11.484 49.7436C11.484 49.7436 11.4027 49.7436 11.4027 49.7436ZM14.0874 49.5816C14.006 49.5006 14.0874 49.3386 14.2501 49.2576C14.3315 49.1765 14.4942 49.2576 14.5755 49.4196C14.6569 49.5006 14.5755 49.6626 14.4128 49.7436H14.3314C14.2501 49.7436 14.1687 49.6626 14.0874 49.5816Z" fill="#D4D8E4"/>
<path d="M15.5522 48.9336C15.4708 48.9336 15.4708 48.9336 15.3895 48.8526C15.3895 48.8526 15.3081 48.7716 15.3081 48.6906C15.3081 48.6096 15.3081 48.5285 15.3895 48.5285C15.4708 48.4475 15.6335 48.4475 15.7149 48.5285C15.7962 48.6096 15.7962 48.6096 15.7962 48.6906C15.7962 48.7716 15.7962 48.8526 15.7149 48.8526C15.6335 48.9336 15.5522 48.9336 15.5522 48.9336Z" fill="#D4D8E4"/>
<path d="M12.8679 47.4752C12.1357 47.4752 11.4849 46.8271 11.4849 46.098C11.4849 45.3688 12.1357 44.7207 12.8679 44.7207C13.6001 44.7207 14.251 45.3688 14.251 46.098C14.251 46.8271 13.6815 47.4752 12.8679 47.4752ZM12.8679 45.2068C12.3798 45.2068 11.973 45.6119 11.973 46.098C11.973 46.5841 12.3798 46.9891 12.8679 46.9891C13.3561 46.9891 13.7628 46.5841 13.7628 46.098C13.8442 45.6119 13.4374 45.2068 12.8679 45.2068Z" fill="#D4D8E4"/>
</g>
<defs>
<clipPath id="clip0">
<rect width="80" height="67" fill="white"/>
</clipPath>
</defs>
</svg>
