<svg width="156" height="157" viewBox="0 0 156 157" fill="none" xmlns="http://www.w3.org/2000/svg">
<g clip-path="url(#clip0)">
<path d="M124.726 1.35242C124.726 1.16799 124.849 1.04504 125.033 1.04504L133.25 1.04504C133.434 1.04504 133.557 1.16799 133.557 1.35242C133.557 1.53685 133.434 1.6598 133.25 1.6598L125.094 1.6598C124.91 1.6598 124.726 1.47537 124.726 1.35242Z" fill="#B8814A"/>
<path d="M122.642 1.35246C122.642 1.29098 122.642 1.22951 122.703 1.22951C122.764 1.16803 122.826 1.16803 122.826 1.16803C122.887 1.16803 122.948 1.16803 122.948 1.22951C123.009 1.29098 123.009 1.47541 122.948 1.53688C122.887 1.59836 122.826 1.59836 122.826 1.59836C122.764 1.59836 122.703 1.59836 122.703 1.53688C122.642 1.47541 122.642 1.41393 122.642 1.35246Z" fill="#B8814A"/>
<path d="M118.594 1.10657C118.717 1.10657 118.778 1.22952 118.778 1.29099C118.778 1.41394 118.656 1.5369 118.594 1.5369C118.472 1.5369 118.41 1.41394 118.41 1.29099C118.41 1.22952 118.472 1.10657 118.594 1.10657ZM120.005 1.10657C120.127 1.10657 120.189 1.22952 120.189 1.29099C120.189 1.41394 120.066 1.5369 120.005 1.5369C119.882 1.5369 119.821 1.41394 119.821 1.29099C119.821 1.22952 119.882 1.10657 120.005 1.10657ZM121.415 1.10657C121.538 1.10657 121.599 1.22952 121.599 1.29099C121.599 1.41394 121.476 1.5369 121.415 1.5369C121.293 1.5369 121.231 1.41394 121.231 1.29099C121.231 1.22952 121.293 1.10657 121.415 1.10657Z" fill="#B8814A"/>
<path d="M117 1.35246C117 1.29098 117 1.22951 117.061 1.22951C117.123 1.16803 117.123 1.16803 117.184 1.16803C117.245 1.16803 117.307 1.16803 117.307 1.22951C117.368 1.29098 117.368 1.47541 117.307 1.53688C117.245 1.59836 117.245 1.59836 117.184 1.59836C117.123 1.59836 117.061 1.59836 117.061 1.53688C117 1.47541 117 1.41393 117 1.35246Z" fill="#B8814A"/>
<path d="M121.231 2.45896C121.231 2.39749 121.231 2.33601 121.293 2.33601C121.354 2.27454 121.415 2.27454 121.415 2.27454C121.477 2.27454 121.538 2.27454 121.538 2.33601C121.599 2.39749 121.599 2.58191 121.538 2.64339C121.477 2.70486 121.415 2.70486 121.415 2.70486C121.354 2.70486 121.293 2.70486 121.293 2.64339C121.231 2.58191 121.231 2.52044 121.231 2.45896Z" fill="#757575"/>
<path d="M120.005 2.27454C120.128 2.27454 120.189 2.33601 120.189 2.45896C120.189 2.58191 120.066 2.70486 120.005 2.70486C119.882 2.70486 119.821 2.58191 119.821 2.45896C119.821 2.33601 119.882 2.27454 120.005 2.27454Z" fill="#757575"/>
<path d="M118.411 2.45896C118.411 2.39749 118.411 2.33601 118.472 2.33601C118.533 2.27454 118.533 2.27454 118.595 2.27454C118.656 2.27454 118.717 2.27454 118.717 2.33601C118.779 2.39749 118.779 2.58191 118.717 2.64339C118.656 2.70486 118.656 2.70486 118.595 2.70486C118.533 2.70486 118.472 2.70486 118.472 2.64339C118.411 2.58191 118.411 2.52044 118.411 2.45896Z" fill="#757575"/>
<path d="M121.231 0.184426C121.231 0.122951 121.231 0.0614754 121.293 0.0614754C121.293 -1.2732e-08 121.354 -1.00516e-08 121.415 -7.3712e-09C121.477 -4.69077e-09 121.538 -2.01032e-09 121.538 0.0614754C121.599 0.122951 121.599 0.307377 121.538 0.368852C121.477 0.430328 121.415 0.430328 121.415 0.430328C121.354 0.430328 121.293 0.430328 121.293 0.368852C121.231 0.307377 121.231 0.245902 121.231 0.184426Z" fill="#757575"/>
<path d="M120.005 -8.04123e-09C120.128 -2.6804e-09 120.189 0.0614754 120.189 0.184426C120.189 0.307377 120.066 0.430328 120.005 0.430328C119.882 0.430328 119.821 0.307377 119.821 0.184426C119.821 0.122951 119.882 -1.34021e-08 120.005 -8.04123e-09Z" fill="#757575"/>
<path d="M118.411 0.184426C118.411 0.122951 118.411 0.0614754 118.472 0.0614754C118.472 -1.27321e-08 118.533 -1.00516e-08 118.595 -7.3712e-09C118.656 -4.69077e-09 118.717 -2.01032e-09 118.717 0.0614754C118.779 0.122951 118.779 0.307377 118.717 0.368852C118.656 0.430328 118.656 0.430328 118.595 0.430328C118.533 0.430328 118.472 0.430328 118.472 0.368852C118.411 0.307377 118.411 0.245902 118.411 0.184426Z" fill="#757575"/>
<path d="M154.344 31.0451L154.344 22.8074C154.344 22.623 154.467 22.5 154.651 22.5C154.835 22.5 154.958 22.623 154.958 22.8074L154.958 30.9836C154.958 31.168 154.835 31.291 154.651 31.291C154.528 31.3525 154.344 31.168 154.344 31.0451Z" fill="#B8814A"/>
<path d="M154.397 114.801L154.397 41.4874C154.397 41.3653 154.575 41.3043 154.665 41.3043C154.843 41.3043 154.932 41.4264 154.932 41.4874L154.932 114.801C154.932 114.923 154.754 114.984 154.665 114.984C154.486 115.045 154.397 114.923 154.397 114.801Z" fill="#B8814A"/>
<path d="M154.467 33.2582C154.467 33.1967 154.467 33.1353 154.529 33.1353C154.59 33.0738 154.651 33.0738 154.651 33.0738C154.713 33.0738 154.774 33.0738 154.774 33.1353C154.835 33.1967 154.835 33.3812 154.774 33.4426C154.713 33.5041 154.651 33.5041 154.651 33.5041C154.59 33.5041 154.529 33.5041 154.529 33.4426C154.467 33.3812 154.467 33.3197 154.467 33.2582Z" fill="#B8814A"/>
<path d="M154.651 37.2542C154.773 37.2542 154.835 37.3771 154.835 37.5001C154.835 37.623 154.712 37.6845 154.651 37.6845C154.528 37.6845 154.467 37.623 154.467 37.5001C154.467 37.3771 154.528 37.2542 154.651 37.2542ZM154.651 35.8403C154.773 35.8403 154.835 35.9632 154.835 36.0862C154.896 36.2091 154.773 36.2706 154.651 36.2706C154.528 36.2706 154.467 36.1476 154.467 36.0862C154.467 35.9632 154.528 35.8403 154.651 35.8403ZM154.651 34.4878C154.773 34.4878 154.835 34.5493 154.835 34.6722C154.835 34.7952 154.712 34.8566 154.651 34.8566C154.528 34.8566 154.467 34.7952 154.467 34.6722C154.467 34.5493 154.528 34.4878 154.651 34.4878Z" fill="#B8814A"/>
<path d="M154.467 38.9139C154.467 38.8524 154.467 38.791 154.528 38.791C154.528 38.7295 154.589 38.7295 154.651 38.7295C154.712 38.7295 154.773 38.7295 154.773 38.7295C154.835 38.791 154.835 38.9754 154.773 39.0369C154.712 39.0983 154.651 39.0983 154.651 39.0983C154.589 39.0983 154.528 39.0983 154.528 39.0369C154.467 39.0369 154.467 38.9754 154.467 38.9139Z" fill="#B8814A"/>
<path d="M155.571 34.6721C155.571 34.6106 155.571 34.5491 155.632 34.5491C155.693 34.4877 155.755 34.4877 155.755 34.4877C155.816 34.4877 155.877 34.4877 155.877 34.5491C155.939 34.6106 155.939 34.7951 155.877 34.8565C155.816 34.918 155.755 34.918 155.755 34.918C155.755 34.918 155.632 34.918 155.632 34.8565C155.571 34.7951 155.571 34.7336 155.571 34.6721Z" fill="#757575"/>
<path d="M155.755 35.8401C155.877 35.8401 156 35.963 156 36.086C156 36.2089 155.877 36.2704 155.755 36.2704C155.632 36.2704 155.571 36.1475 155.571 36.086C155.571 35.963 155.693 35.8401 155.755 35.8401Z" fill="#757575"/>
<path d="M155.571 37.5C155.571 37.4385 155.571 37.377 155.632 37.377C155.693 37.3156 155.755 37.3156 155.755 37.3156C155.755 37.3156 155.877 37.3156 155.877 37.377C155.939 37.4385 155.939 37.6229 155.877 37.6844C155.816 37.7459 155.755 37.7459 155.755 37.7459C155.755 37.7459 155.632 37.7459 155.632 37.6844C155.571 37.6229 155.571 37.5615 155.571 37.5Z" fill="#757575"/>
<path d="M153.302 34.6721C153.302 34.6106 153.302 34.5492 153.363 34.5492C153.425 34.4877 153.486 34.4262 153.547 34.4262C153.609 34.4262 153.67 34.4262 153.731 34.4877C153.793 34.5492 153.793 34.7336 153.731 34.7951C153.67 34.8565 153.609 34.8565 153.609 34.8565C153.547 34.8565 153.486 34.8565 153.486 34.7951C153.363 34.7951 153.302 34.7336 153.302 34.6721Z" fill="#757575"/>
<path d="M153.547 35.8402C153.67 35.8402 153.731 35.9632 153.731 36.0861C153.731 36.2091 153.67 36.2705 153.547 36.2705C153.425 36.2705 153.364 36.1476 153.364 36.0861C153.302 35.9632 153.425 35.8402 153.547 35.8402Z" fill="#757575"/>
<path d="M153.302 37.4999C153.302 37.4384 153.302 37.377 153.363 37.377C153.425 37.3155 153.486 37.3155 153.486 37.3155C153.547 37.3155 153.609 37.3155 153.67 37.377C153.731 37.4384 153.731 37.6229 153.67 37.6843C153.609 37.7458 153.547 37.7458 153.486 37.7458C153.425 37.7458 153.363 37.7458 153.363 37.6843C153.363 37.6229 153.302 37.5614 153.302 37.4999Z" fill="#757575"/>
<path d="M131.778 1.35246C131.778 1.29098 131.778 1.22951 131.84 1.22951C131.901 1.16803 131.901 1.16803 131.962 1.16803C132.024 1.16803 132.085 1.16803 132.085 1.22951C132.146 1.29098 132.146 1.47541 132.085 1.53688C132.024 1.59836 131.962 1.59836 131.962 1.59836C131.901 1.59836 131.84 1.59836 131.84 1.53688C131.778 1.47541 131.778 1.41393 131.778 1.35246Z" fill="#B8814A"/>
<path d="M132.023 2.58197C132.146 2.58197 132.269 2.64344 132.269 2.7664C132.269 2.88935 132.207 3.0123 132.085 3.0123C131.962 3.0123 131.901 2.95082 131.839 2.82787C131.778 2.64344 131.901 2.58197 132.023 2.58197ZM132.146 3.9959C132.269 3.9959 132.391 4.05738 132.391 4.18033C132.391 4.30328 132.33 4.42623 132.207 4.42623C132.085 4.42623 131.962 4.36476 131.962 4.24181C131.962 4.05738 132.023 3.9959 132.146 3.9959ZM132.33 5.40984C132.453 5.40984 132.575 5.47131 132.575 5.59426C132.575 5.71722 132.514 5.84017 132.391 5.84017C132.269 5.84017 132.146 5.77869 132.146 5.65574L132.146 5.59426C132.146 5.53279 132.207 5.40984 132.33 5.40984ZM132.637 6.7623C132.759 6.7623 132.882 6.82377 132.882 6.88525C132.882 7.0082 132.821 7.13115 132.759 7.13115C132.637 7.19262 132.514 7.06967 132.514 7.0082C132.514 7.0082 132.514 7.0082 132.514 6.94672C132.453 6.88525 132.514 6.82377 132.637 6.7623ZM133.005 8.17623C133.127 8.11476 133.25 8.17623 133.25 8.29918C133.311 8.42213 133.25 8.54508 133.127 8.54508C133.005 8.60656 132.882 8.54508 132.882 8.42213L132.882 8.36066C132.882 8.29918 132.943 8.17623 133.005 8.17623ZM133.495 9.52869C133.618 9.46721 133.74 9.52869 133.802 9.65164C133.863 9.77459 133.802 9.89754 133.679 9.95902C133.556 10.0205 133.434 9.95902 133.434 9.83607L133.434 9.77459C133.372 9.65164 133.372 9.52869 133.495 9.52869ZM134.047 10.8197C134.17 10.7582 134.292 10.8197 134.354 10.9426C134.415 11.0656 134.354 11.1885 134.231 11.25C134.108 11.3115 133.986 11.25 133.924 11.1271L133.924 11.0656C133.924 10.9426 133.986 10.8811 134.047 10.8197ZM134.66 12.1107C134.783 12.0492 134.905 12.1107 134.967 12.1721C135.028 12.2951 134.967 12.418 134.905 12.4795C134.783 12.541 134.66 12.4795 134.599 12.418C134.599 12.3566 134.599 12.3566 134.599 12.2951C134.538 12.2336 134.599 12.1721 134.66 12.1107ZM135.396 13.3402C135.519 13.2787 135.641 13.3402 135.703 13.4016C135.764 13.5246 135.764 13.6475 135.641 13.709C135.519 13.7705 135.396 13.7705 135.335 13.6475C135.335 13.5861 135.335 13.5861 135.335 13.5246C135.273 13.4631 135.335 13.4016 135.396 13.3402ZM136.193 14.5082C136.316 14.4467 136.438 14.4467 136.5 14.5697C136.561 14.6311 136.561 14.8156 136.438 14.877C136.316 14.9385 136.193 14.9385 136.132 14.8156C136.132 14.7541 136.071 14.7541 136.071 14.6926C136.071 14.6311 136.132 14.5697 136.193 14.5082ZM137.052 15.6762C137.113 15.6148 137.297 15.6148 137.358 15.6762C137.42 15.7377 137.42 15.9221 137.358 15.9836C137.297 16.0451 137.113 16.0451 137.052 15.9836C136.99 15.9221 136.99 15.8607 136.99 15.8607C136.99 15.7992 136.99 15.7377 137.052 15.6762ZM137.971 16.7828C138.033 16.7213 138.217 16.7213 138.278 16.7828C138.339 16.8443 138.339 17.0287 138.278 17.0902C138.217 17.1516 138.033 17.1516 137.971 17.0902C137.91 17.0287 137.91 17.0287 137.91 16.9672C137.91 16.8443 137.91 16.7828 137.971 16.7828ZM138.953 17.7664C139.014 17.7049 139.198 17.7049 139.259 17.7664C139.321 17.8279 139.321 18.0123 139.259 18.0738C139.198 18.1352 139.075 18.1352 138.953 18.0738C138.891 18.0123 138.891 17.9508 138.891 17.9508C138.891 17.8893 138.953 17.8279 138.953 17.7664ZM140.056 18.75C140.118 18.6885 140.24 18.627 140.363 18.75C140.424 18.8115 140.486 18.9344 140.363 19.0574C140.302 19.1803 140.179 19.1803 140.056 19.1189C139.995 19.0574 139.995 18.9959 139.995 18.9344C139.995 18.8115 139.995 18.75 140.056 18.75ZM141.16 19.6107C141.221 19.5492 141.344 19.4877 141.467 19.5492C141.589 19.6107 141.589 19.7336 141.528 19.8566C141.467 19.918 141.344 19.9795 141.221 19.918C141.16 19.8566 141.16 19.7951 141.16 19.7336C141.099 19.6721 141.099 19.6721 141.16 19.6107ZM142.325 20.4098C142.387 20.2869 142.509 20.2869 142.632 20.3484C142.755 20.4098 142.755 20.5328 142.693 20.6557C142.632 20.7787 142.509 20.7787 142.387 20.7172C142.325 20.6557 142.264 20.5943 142.264 20.5328C142.264 20.5328 142.264 20.4713 142.325 20.4098ZM143.552 21.1475C143.613 21.0246 143.736 21.0246 143.858 21.0861C143.981 21.1475 143.981 21.2705 143.92 21.3934C143.858 21.5164 143.736 21.5164 143.613 21.4549C143.552 21.3934 143.49 21.332 143.49 21.2705C143.49 21.209 143.49 21.209 143.552 21.1475ZM144.778 21.8238C144.839 21.7008 144.962 21.7008 145.085 21.7008C145.207 21.7623 145.207 21.8852 145.207 22.0082C145.146 22.1311 145.023 22.1311 144.901 22.1311C144.839 22.0697 144.778 22.0082 144.778 21.9467C144.778 21.8852 144.778 21.8852 144.778 21.8238ZM146.066 22.4385C146.127 22.3156 146.25 22.2541 146.372 22.3156C146.495 22.377 146.556 22.5 146.495 22.623C146.434 22.7459 146.311 22.8074 146.25 22.7459C146.188 22.6844 146.127 22.623 146.127 22.5615C146.066 22.4385 146.066 22.4385 146.066 22.4385ZM147.415 22.9303C147.476 22.8074 147.599 22.7459 147.66 22.8074C147.783 22.8689 147.844 22.9918 147.783 23.0533C147.721 23.1762 147.599 23.2377 147.538 23.1762C147.476 23.1762 147.415 23.0533 147.415 22.9918C147.415 22.9303 147.415 22.9303 147.415 22.9303ZM148.764 23.2992C148.764 23.1762 148.887 23.1148 149.009 23.1762C149.132 23.2377 149.193 23.2992 149.132 23.4221C149.132 23.5451 149.009 23.6066 148.887 23.5451C148.825 23.5451 148.764 23.4836 148.764 23.2992C148.764 23.3607 148.764 23.3607 148.764 23.2992ZM150.174 23.668C150.174 23.5451 150.297 23.4836 150.42 23.4836C150.542 23.4836 150.604 23.6066 150.604 23.7295C150.604 23.8525 150.481 23.9139 150.358 23.9139C150.236 23.8525 150.174 23.791 150.174 23.668ZM151.585 23.8525C151.585 23.7295 151.707 23.668 151.83 23.668C151.953 23.668 152.014 23.791 152.014 23.9139C152.014 24.0369 151.891 24.0984 151.769 24.0984C151.646 24.0984 151.585 24.0369 151.585 23.8525C151.585 23.9139 151.585 23.9139 151.585 23.8525ZM152.995 24.0369C152.995 23.9139 153.118 23.8525 153.24 23.8525C153.363 23.8525 153.424 23.9754 153.424 24.0984C153.424 24.2213 153.302 24.2828 153.179 24.2828C153.056 24.2213 152.995 24.1598 152.995 24.0369Z" fill="#B8814A"/>
<path d="M154.467 24.0984C154.467 24.0369 154.467 23.9754 154.528 23.9754C154.589 23.9139 154.651 23.9139 154.651 23.9139C154.712 23.9139 154.773 23.9139 154.773 23.9754C154.835 24.0369 154.835 24.2213 154.773 24.2828C154.712 24.3443 154.651 24.3443 154.651 24.3443C154.589 24.3443 154.528 24.3443 154.528 24.2828C154.467 24.2213 154.467 24.1598 154.467 24.0984Z" fill="#B8814A"/>
<path d="M151.217 22.5615C151.217 22.5 151.217 22.4386 151.278 22.4386C151.339 22.3771 151.401 22.3771 151.401 22.3771C151.462 22.3771 151.523 22.3771 151.523 22.4386C151.585 22.5 151.585 22.6845 151.523 22.7459C151.523 22.7459 151.462 22.7459 151.401 22.7459C151.339 22.7459 151.278 22.7459 151.278 22.6845C151.217 22.623 151.217 22.623 151.217 22.5615Z" fill="#757575"/>
<path d="M134.905 3.99594C135.028 3.99594 135.151 4.05741 135.151 4.18036C135.151 4.30331 135.089 4.42626 134.967 4.42626C134.844 4.42626 134.722 4.36479 134.722 4.24184C134.722 4.05741 134.783 3.99594 134.905 3.99594ZM136.377 3.87299C136.5 3.87299 136.561 3.99594 136.561 4.05741C136.561 4.24184 136.5 4.30331 136.377 4.30331C136.255 4.30331 136.193 4.18036 136.193 4.11889C136.132 3.99594 136.255 3.87299 136.377 3.87299ZM137.604 4.11889C137.604 3.99594 137.726 3.93446 137.849 3.93446C137.972 3.93446 138.033 4.05741 138.033 4.18036C138.033 4.30331 137.91 4.36479 137.788 4.36479C137.665 4.36479 137.604 4.24184 137.604 4.11889C137.604 4.11889 137.604 4.18036 137.604 4.11889ZM139.014 4.30331C139.014 4.18036 139.137 4.11889 139.259 4.11889C139.382 4.11889 139.443 4.24184 139.443 4.36479C139.443 4.48774 139.321 4.54921 139.198 4.54921C139.075 4.54921 139.014 4.42626 139.014 4.30331ZM140.424 4.61069C140.424 4.48774 140.547 4.42626 140.67 4.48774C140.792 4.48774 140.854 4.61069 140.792 4.73364C140.792 4.85659 140.67 4.91807 140.547 4.85659C140.486 4.85659 140.424 4.73364 140.424 4.61069ZM141.773 5.04102C141.835 4.91807 141.957 4.85659 142.08 4.91807C142.203 4.97954 142.264 5.10249 142.203 5.16397C142.141 5.28692 142.019 5.3484 141.896 5.28692C141.835 5.28692 141.773 5.16397 141.773 5.10249C141.773 5.10249 141.773 5.04102 141.773 5.04102ZM143.122 5.5943C143.184 5.47135 143.306 5.47135 143.429 5.47135C143.552 5.53282 143.552 5.65577 143.552 5.77872C143.49 5.90167 143.368 5.90167 143.245 5.8402C143.184 5.77872 143.122 5.71725 143.122 5.65577C143.061 5.65577 143.061 5.65577 143.122 5.5943ZM144.349 6.27053C144.41 6.14758 144.533 6.14758 144.655 6.20905C144.778 6.27053 144.778 6.39348 144.717 6.51643C144.655 6.63938 144.533 6.63938 144.41 6.5779C144.349 6.51643 144.349 6.45495 144.349 6.39348C144.349 6.332 144.349 6.332 144.349 6.27053ZM145.575 7.06971C145.637 6.94676 145.759 6.94676 145.882 7.00823C145.943 7.06971 146.005 7.19266 145.943 7.31561C145.882 7.37708 145.759 7.43856 145.637 7.37708C145.575 7.31561 145.575 7.25413 145.575 7.19266C145.514 7.19266 145.514 7.13118 145.575 7.06971ZM146.679 7.99184C146.74 7.93036 146.863 7.86889 146.986 7.99184C147.047 8.05331 147.108 8.17626 146.986 8.29921C146.924 8.36069 146.802 8.36069 146.679 8.29921C146.618 8.23774 146.618 8.17626 146.618 8.11479C146.618 8.05331 146.618 8.05331 146.679 7.99184ZM147.66 8.97544C147.783 8.91397 147.905 8.91397 147.967 8.97544C148.028 9.0984 148.028 9.22135 147.967 9.28282C147.905 9.3443 147.722 9.3443 147.66 9.28282C147.599 9.22135 147.599 9.22135 147.599 9.15987C147.599 9.09839 147.66 9.03692 147.66 8.97544ZM148.641 10.082C148.764 10.0205 148.887 10.0205 148.948 10.1435C149.009 10.205 149.009 10.3894 148.887 10.4509C148.764 10.5123 148.641 10.5123 148.58 10.3894C148.58 10.3279 148.519 10.3279 148.519 10.2664C148.519 10.205 148.58 10.1435 148.641 10.082ZM149.438 11.25C149.561 11.1886 149.684 11.25 149.745 11.3115C149.806 11.4345 149.745 11.5574 149.684 11.6189C149.561 11.6804 149.438 11.6189 149.377 11.5574C149.377 11.4959 149.377 11.4959 149.377 11.4345C149.316 11.373 149.377 11.3115 149.438 11.25ZM150.113 12.541C150.236 12.4795 150.358 12.541 150.42 12.664C150.481 12.7869 150.42 12.9099 150.297 12.9713C150.174 13.0328 150.052 12.9713 149.99 12.8484L149.99 12.7869C149.99 12.664 150.052 12.541 150.113 12.541ZM150.726 13.832C150.849 13.7705 150.972 13.832 151.033 13.955C151.094 14.0779 151.033 14.2009 150.91 14.2009C150.788 14.2623 150.665 14.2009 150.665 14.0779L150.665 14.0164C150.604 13.955 150.604 13.8935 150.726 13.832ZM151.155 15.2459C151.278 15.1845 151.401 15.3074 151.401 15.3689C151.401 15.4918 151.339 15.6148 151.278 15.6148C151.155 15.6148 151.033 15.5533 151.033 15.4918L151.033 15.4304C151.033 15.3074 151.094 15.2459 151.155 15.2459ZM151.523 16.5984C151.646 16.5984 151.769 16.6599 151.769 16.7828C151.769 16.9058 151.707 17.0287 151.585 17.0287C151.462 17.0287 151.339 16.9672 151.339 16.8443C151.339 16.8443 151.339 16.8443 151.339 16.7828C151.339 16.7213 151.401 16.6599 151.523 16.5984ZM151.401 21.0861C151.401 20.9631 151.523 20.9017 151.646 20.9017C151.769 20.9017 151.83 21.0246 151.83 21.1476C151.83 21.2705 151.707 21.332 151.585 21.332C151.523 21.332 151.401 21.2091 151.401 21.0861C151.401 21.0861 151.401 21.1476 151.401 21.0861ZM151.707 18.0123C151.83 18.0123 151.953 18.0738 151.953 18.1968C151.891 18.3812 151.83 18.4427 151.707 18.4427C151.585 18.4427 151.523 18.3812 151.462 18.2582C151.462 18.1353 151.585 18.0738 151.707 18.0123ZM151.523 19.6722C151.523 19.5492 151.646 19.4263 151.707 19.4877C151.83 19.4877 151.891 19.6107 151.891 19.7336C151.891 19.8566 151.769 19.9181 151.707 19.9181C151.646 19.9181 151.523 19.7951 151.523 19.6722Z" fill="#757575"/>
<path d="M133.25 4.42625C133.25 4.36477 133.25 4.3033 133.311 4.3033C133.373 4.24182 133.434 4.24182 133.434 4.24182C133.495 4.24182 133.557 4.24182 133.557 4.3033C133.618 4.36477 133.618 4.5492 133.557 4.61067C133.495 4.67215 133.434 4.67215 133.434 4.67215C133.373 4.67215 133.311 4.67215 133.311 4.61067C133.311 4.48772 133.25 4.48772 133.25 4.42625Z" fill="#757575"/>
<path d="M149.745 15.0615C149.745 15 149.806 14.8771 149.868 14.8771C149.99 14.8156 150.113 14.8771 150.113 15C150.113 15 150.113 15 150.113 15.0615C150.113 15.1845 150.051 15.3074 149.99 15.3074C149.868 15.3074 149.745 15.1845 149.745 15.0615Z" fill="#B8814A"/>
<path d="M139.443 5.77872L139.443 5.53282L139.505 5.34839C139.627 5.34839 139.688 5.47134 139.688 5.59429C139.688 5.71724 139.566 5.77872 139.443 5.77872Z" fill="#B8814A"/>
<path d="M145.759 8.91397C145.759 8.85249 145.759 8.79102 145.82 8.79102C145.882 8.72954 146.004 8.66807 146.127 8.79102C146.188 8.85249 146.25 9.03692 146.127 9.09839C146.066 9.15987 145.943 9.22134 145.82 9.09839C145.759 8.97544 145.759 8.91397 145.759 8.91397Z" fill="#B8814A"/>
<path d="M133.372 5.53278C133.372 5.40983 133.495 5.28688 133.618 5.22541C134.537 5.04098 135.519 4.91803 136.5 4.91803C137.481 4.91803 138.523 5.04098 139.504 5.22541C141.957 5.77869 144.287 6.94672 146.127 8.60655C148.028 10.3279 149.377 12.4795 150.174 14.877C150.971 17.2746 151.094 19.8566 150.542 22.3156C150.481 22.4385 150.358 22.5615 150.236 22.5615C150.113 22.5 149.99 22.377 149.99 22.2541C150.481 19.8566 150.358 17.3975 149.622 15.1229C148.887 12.7869 147.537 10.7582 145.759 9.09836C143.981 7.43852 141.773 6.33196 139.382 5.84016C138.462 5.59426 137.481 5.53278 136.5 5.53278C135.58 5.53278 134.66 5.65573 133.74 5.84016C133.556 5.84016 133.434 5.71721 133.372 5.53278Z" fill="#B8814A"/>
<path d="M135.457 11.1886C135.457 11.0656 135.518 11.0042 135.641 11.0042C135.948 11.0042 136.254 10.9427 136.5 10.9427C136.622 10.9427 136.684 11.0656 136.684 11.1271C136.684 11.2501 136.561 11.3115 136.5 11.3115C136.254 11.3115 135.948 11.3115 135.641 11.373C135.58 11.373 135.457 11.3115 135.457 11.1886Z" fill="#B8814A"/>
<path d="M136.316 11.1271C136.316 11.0042 136.438 10.9427 136.5 10.9427C141.16 10.9427 144.962 14.7542 144.962 19.4263C144.962 19.5492 144.839 19.6107 144.778 19.6107C144.655 19.6107 144.594 19.4878 144.594 19.4263C144.594 15.0001 140.976 11.373 136.561 11.373C136.377 11.3115 136.316 11.2501 136.316 11.1271Z" fill="#B8814A"/>
<path d="M144.472 20.2869C144.533 19.9795 144.533 19.6722 144.533 19.3648C144.533 19.2418 144.656 19.1804 144.717 19.1804C144.84 19.1804 144.901 19.3033 144.901 19.3648C144.901 19.6722 144.901 19.9795 144.84 20.3484C144.84 20.4713 144.717 20.5328 144.594 20.5328C144.533 20.5328 144.472 20.4099 144.472 20.2869Z" fill="#B8814A"/>
<path d="M135.335 10.8812C135.335 10.8197 135.335 10.8197 135.335 10.8812L136.5 5.47131L137.726 11.0041C137.726 11.0656 137.665 11.1885 137.603 11.1885C137.542 11.1885 137.419 11.1271 137.419 11.0656L136.5 7.0082L135.641 10.8812C135.641 10.9426 135.519 11.0041 135.457 11.0041C135.396 11.0041 135.335 10.9426 135.335 10.8812Z" fill="#B8814A"/>
<path d="M137.358 11.0656C137.358 11.0041 137.358 10.9426 137.42 10.9426C138.156 10.082 138.156 9.83609 138.156 9.40577C138.156 9.15986 138.094 8.85249 138.217 8.36068C138.34 7.80741 138.585 7.50003 138.83 7.25413C139.137 6.94675 139.382 6.63937 139.321 5.59429C139.321 5.47134 139.382 5.34839 139.505 5.34839C139.627 5.34839 139.75 5.40986 139.75 5.53281C139.811 6.76232 139.505 7.13118 139.198 7.50003C139.014 7.74593 138.83 7.93036 138.707 8.42216C138.585 8.85249 138.646 9.09839 138.646 9.34429C138.707 9.89757 138.646 10.2664 137.849 11.1886C137.788 11.25 137.665 11.3115 137.542 11.1886C137.358 11.1886 137.358 11.1271 137.358 11.0656Z" fill="#B8814A"/>
<path d="M139.259 5.53279C139.259 5.47131 139.259 5.40984 139.321 5.34836C139.382 5.28689 139.566 5.28689 139.627 5.40984C140.731 6.82377 140.486 7.37705 140.241 7.99181C140.179 8.17623 140.057 8.42213 139.995 8.66804C139.934 9.03689 139.995 9.28279 139.995 9.52869C140.057 9.95902 140.179 10.4508 139.75 11.7418C139.689 11.8648 139.566 11.9262 139.505 11.8648C139.382 11.8033 139.321 11.6803 139.382 11.6189C139.811 10.5123 139.689 10.082 139.627 9.65164C139.566 9.34426 139.505 9.09836 139.627 8.60656C139.689 8.29918 139.811 8.05328 139.873 7.86886C140.118 7.2541 140.302 6.88525 139.321 5.71722C139.321 5.65574 139.259 5.59427 139.259 5.53279Z" fill="#B8814A"/>
<path d="M139.259 5.53289C139.259 5.47141 139.321 5.34846 139.382 5.34846C139.443 5.28699 139.566 5.34846 139.627 5.40994C139.689 5.47141 139.689 5.65584 139.627 5.71731C139.566 5.77879 139.443 5.77879 139.382 5.71731C139.321 5.71731 139.259 5.65584 139.259 5.53289Z" fill="#B8814A"/>
<path d="M139.505 11.6804C139.505 11.6189 139.505 11.6189 139.566 11.5574L143.429 7.31561L141.712 12.7254C141.712 12.7869 141.59 12.8484 141.528 12.8484C141.467 12.8484 141.406 12.7254 141.406 12.664L142.632 8.72955L139.75 11.8648C139.689 11.9263 139.566 11.9263 139.505 11.8648C139.505 11.8033 139.505 11.7418 139.505 11.6804Z" fill="#B8814A"/>
<path d="M145.759 8.85252L145.759 8.79104C145.821 8.72957 145.882 8.66809 146.005 8.66809C146.127 8.66809 146.188 8.72957 146.188 8.85252C146.188 8.97547 146.127 9.09842 146.005 9.09842C145.943 9.09842 145.821 9.09842 145.759 8.97547C145.759 8.97547 145.759 8.91399 145.759 8.85252Z" fill="#B8814A"/>
<path d="M141.344 12.7255C141.344 12.664 141.405 12.541 141.467 12.541C142.571 12.1722 142.632 11.9263 142.877 11.5574C143 11.3115 143.122 11.0656 143.49 10.6968C143.92 10.2665 144.226 10.1435 144.533 10.0205C144.962 9.8976 145.33 9.77465 145.759 8.79104C145.821 8.66809 145.943 8.66809 146.066 8.66809C146.188 8.72957 146.188 8.85252 146.188 8.97547C145.637 10.082 145.207 10.205 144.717 10.3894C144.41 10.5124 144.165 10.5738 143.797 10.9427C143.49 11.2501 143.368 11.496 143.306 11.6804C143.061 12.1722 142.877 12.4796 141.651 12.8484C141.528 12.9099 141.405 12.8484 141.405 12.7255C141.344 12.7255 141.344 12.7255 141.344 12.7255Z" fill="#B8814A"/>
<path d="M142.816 14.2624C142.816 14.2009 142.816 14.1394 142.877 14.0779C143.797 13.3402 143.92 12.9099 144.042 12.541C144.104 12.2951 144.226 11.9878 144.533 11.6189C144.717 11.373 144.962 11.2501 145.146 11.0656C145.637 10.6968 146.005 10.4509 145.759 8.91399C145.759 8.79104 145.821 8.66809 145.943 8.66809C146.066 8.66809 146.189 8.72957 146.189 8.85252C146.434 10.6353 146.005 11.0042 145.453 11.4345C145.269 11.5574 145.085 11.6804 144.901 11.9263C144.656 12.2337 144.594 12.4181 144.472 12.7255C144.349 13.1558 144.165 13.6476 143.123 14.5083C143.061 14.5697 142.877 14.5697 142.816 14.5083C142.816 14.3853 142.816 14.3238 142.816 14.2624Z" fill="#B8814A"/>
<path d="M142.939 14.3238C142.939 14.2624 143 14.2009 143.061 14.1394L148.58 12.4181L144.41 16.291C144.349 16.3525 144.226 16.3525 144.165 16.291C144.104 16.2296 144.104 16.1066 144.165 16.0451L147.231 13.2173L143.184 14.5083C143.061 14.5083 142.939 14.4468 142.939 14.3238Z" fill="#B8814A"/>
<path d="M144.042 16.1066C144.042 15.9221 144.165 15.8607 144.288 15.9221C145.391 16.168 145.637 15.9836 146.005 15.7377C146.189 15.6148 146.495 15.4303 146.924 15.3074C147.476 15.123 147.844 15.1844 148.151 15.2459C148.58 15.3074 148.948 15.3689 149.806 14.8156C149.929 14.7541 150.052 14.7541 150.113 14.8771C150.174 15 150.174 15.123 150.052 15.1844C149.071 15.8607 148.58 15.7377 148.089 15.6762C147.783 15.6148 147.476 15.5533 147.047 15.6762C146.618 15.7992 146.434 15.9221 146.189 16.1066C145.759 16.4139 145.391 16.5984 144.165 16.3525C144.104 16.3525 144.042 16.2295 144.042 16.1066Z" fill="#B8814A"/>
<path d="M149.745 14.9385L149.929 15L149.806 14.8156C149.868 14.7541 149.99 14.7541 150.051 14.8156C150.113 14.8771 150.174 14.9385 150.113 15.0615L149.929 15L150.051 15.1229L149.929 15L149.745 14.9385Z" fill="#B8814A"/>
<path d="M144.472 18.1968C144.472 18.0738 144.533 18.0123 144.656 18.0123C145.821 17.8279 146.127 17.5205 146.495 17.2746C146.741 17.0902 146.924 16.9058 147.354 16.7214C147.66 16.5984 147.906 16.5984 148.151 16.5369C148.764 16.4755 149.193 16.414 149.745 14.9386C149.807 14.8156 149.929 14.7541 149.991 14.8156C150.113 14.8771 150.174 15 150.113 15.0615C149.439 16.7214 148.887 16.7828 148.151 16.9058C147.906 16.9058 147.722 16.9673 147.476 17.0287C147.108 17.1517 146.924 17.3361 146.741 17.4591C146.373 17.7664 146.005 18.0738 144.717 18.3197C144.656 18.4427 144.533 18.3812 144.472 18.1968C144.472 18.1968 144.472 18.2582 144.472 18.1968Z" fill="#B8814A"/>
<path d="M144.533 18.2582C144.533 18.1353 144.656 18.0738 144.717 18.0738L150.358 19.3033L144.901 20.5328C144.84 20.5328 144.717 20.4713 144.717 20.4099C144.717 20.3484 144.778 20.2254 144.84 20.2254L148.825 19.3648L144.717 18.4426C144.594 18.4426 144.533 18.3812 144.533 18.2582Z" fill="#B8814A"/>
<path d="M136.316 11.127L136.316 10.0205C136.316 9.89753 136.438 9.83606 136.5 9.83606C136.622 9.83606 136.684 9.95901 136.684 10.0205L136.684 11.127C136.684 11.25 136.561 11.3115 136.5 11.3115C136.377 11.3115 136.316 11.25 136.316 11.127Z" fill="#B8814A"/>
<path d="M138.278 11.373C138.278 11.3115 138.278 11.25 138.339 11.25C138.339 11.25 138.83 10.7582 138.953 10.2664C138.953 10.1434 139.075 10.082 139.198 10.082C139.321 10.082 139.382 10.2049 139.382 10.3279C139.259 10.9426 138.707 11.4959 138.646 11.4959C138.585 11.5574 138.401 11.5574 138.339 11.4959C138.278 11.4959 138.278 11.4344 138.278 11.373Z" fill="#B8814A"/>
<path d="M140.424 12.2336C140.424 12.1721 140.424 12.1721 140.424 12.1106L140.976 11.127C141.037 11.0656 141.16 11.0041 141.283 11.0656C141.405 11.127 141.405 11.25 141.344 11.3729L140.792 12.3565C140.731 12.4795 140.608 12.4795 140.486 12.418C140.424 12.3565 140.424 12.2951 140.424 12.2336Z" fill="#B8814A"/>
<path d="M141.957 13.4016C141.957 13.2787 142.019 13.2172 142.141 13.2172C142.141 13.2172 142.816 13.0328 143.184 12.6639C143.245 12.6025 143.368 12.541 143.49 12.6639C143.552 12.7254 143.613 12.8484 143.49 12.9713C143.061 13.4631 142.325 13.6475 142.264 13.6475C142.141 13.6475 142.019 13.5861 141.957 13.4016C141.957 13.4016 142.019 13.4631 141.957 13.4016Z" fill="#B8814A"/>
<path d="M143.429 15.2459C143.429 15.1844 143.49 15.1229 143.552 15.0615L144.533 14.5082C144.655 14.4467 144.778 14.5082 144.839 14.5697C144.901 14.6926 144.839 14.8156 144.778 14.877L143.797 15.4303C143.674 15.4918 143.552 15.4303 143.49 15.3688C143.429 15.3074 143.429 15.3074 143.429 15.2459Z" fill="#B8814A"/>
<path d="M144.226 17.0902C144.226 17.0287 144.226 17.0287 144.226 17.0902C144.287 16.9057 144.41 16.8443 144.471 16.9057C144.471 16.9057 145.146 17.0902 145.636 16.9672C145.759 16.9057 145.882 16.9672 145.882 17.0902C145.943 17.2131 145.882 17.3361 145.759 17.3361C145.146 17.5205 144.41 17.3361 144.349 17.3361C144.287 17.2131 144.226 17.1516 144.226 17.0902Z" fill="#B8814A"/>
<path d="M144.533 19.3648C144.533 19.2418 144.655 19.1804 144.717 19.1804L145.82 19.1804C145.943 19.1804 146.004 19.3033 146.004 19.3648C146.004 19.4877 145.882 19.5492 145.82 19.5492L144.717 19.5492C144.594 19.6107 144.533 19.4877 144.533 19.3648Z" fill="#B8814A"/>
<path d="M132.944 1.35242C132.944 1.16799 133.066 1.04504 133.25 1.04504C133.434 1.04504 133.557 1.16799 133.557 1.35242C133.557 13.0327 143.061 22.5614 154.712 22.5614C154.896 22.5614 155.019 22.6844 155.019 22.8688C155.019 23.0532 154.896 23.1762 154.712 23.1762C142.694 23.1147 132.944 13.3401 132.944 1.35242Z" fill="#B8814A"/>
<path d="M122.396 10.0819L124.604 8.23768L123.5 5.59424L125.891 7.13113L128.099 5.28687L127.424 8.05326L129.816 9.59014L126.995 9.77457L126.321 12.541L125.278 9.89752L122.396 10.0819ZM125.094 8.36064L123.684 9.52867L125.523 9.40572L126.198 11.127L126.627 9.34424L128.467 9.22129L126.873 8.23768L127.302 6.4549L125.891 7.62293L124.297 6.63932L125.094 8.36064Z" fill="#B8814A"/>
</g>
<g clip-path="url(#clip1)">
<path d="M31.2735 1.35242C31.2735 1.16799 31.1509 1.04504 30.9669 1.04504L22.75 1.04504C22.566 1.04504 22.4434 1.16799 22.4434 1.35242C22.4434 1.53685 22.566 1.6598 22.75 1.6598L30.9056 1.6598C31.0896 1.6598 31.2735 1.47537 31.2735 1.35242Z" fill="#B8814A"/>
<path d="M33.3585 1.35246C33.3585 1.29098 33.3585 1.22951 33.2971 1.22951C33.2358 1.16803 33.1745 1.16803 33.1745 1.16803C33.1132 1.16803 33.0519 1.16803 33.0519 1.22951C32.9905 1.29098 32.9905 1.47541 33.0519 1.53688C33.1132 1.59836 33.1745 1.59836 33.1745 1.59836C33.2358 1.59836 33.2971 1.59836 33.2971 1.53688C33.3585 1.47541 33.3585 1.41393 33.3585 1.35246Z" fill="#B8814A"/>
<path d="M37.4056 1.10657C37.283 1.10657 37.2216 1.22952 37.2216 1.29099C37.2216 1.41394 37.3443 1.5369 37.4056 1.5369C37.5282 1.5369 37.5896 1.41394 37.5896 1.29099C37.5896 1.22952 37.5282 1.10657 37.4056 1.10657ZM35.9952 1.10657C35.8726 1.10657 35.8113 1.22952 35.8113 1.29099C35.8113 1.41394 35.9339 1.5369 35.9952 1.5369C36.1179 1.5369 36.1792 1.41394 36.1792 1.29099C36.1792 1.22952 36.1179 1.10657 35.9952 1.10657ZM34.5848 1.10657C34.4622 1.10657 34.4009 1.22952 34.4009 1.29099C34.4009 1.41394 34.5235 1.5369 34.5848 1.5369C34.7075 1.5369 34.7688 1.41394 34.7688 1.29099C34.7688 1.22952 34.7075 1.10657 34.5848 1.10657Z" fill="#B8814A"/>
<path d="M39.0001 1.35246C39.0001 1.29098 39.0001 1.22951 38.9387 1.22951C38.8774 1.16803 38.8774 1.16803 38.8161 1.16803C38.7548 1.16803 38.6935 1.16803 38.6935 1.22951C38.6321 1.29098 38.6321 1.47541 38.6935 1.53688C38.7548 1.59836 38.7548 1.59836 38.8161 1.59836C38.8774 1.59836 38.9387 1.59836 38.9387 1.53688C39.0001 1.47541 39.0001 1.41393 39.0001 1.35246Z" fill="#B8814A"/>
<path d="M34.7686 2.45896C34.7686 2.39749 34.7686 2.33601 34.7073 2.33601C34.646 2.27454 34.5846 2.27454 34.5846 2.27454C34.5233 2.27454 34.462 2.27454 34.462 2.33601C34.4007 2.39749 34.4007 2.58191 34.462 2.64339C34.5233 2.70486 34.5846 2.70486 34.5846 2.70486C34.646 2.70486 34.7073 2.70486 34.7073 2.64339C34.7686 2.58191 34.7686 2.52044 34.7686 2.45896Z" fill="#757575"/>
<path d="M35.995 2.27454C35.8724 2.27454 35.811 2.33601 35.811 2.45896C35.811 2.58191 35.9337 2.70486 35.995 2.70486C36.1176 2.70486 36.179 2.58191 36.179 2.45896C36.179 2.33601 36.1176 2.27454 35.995 2.27454Z" fill="#757575"/>
<path d="M37.5894 2.45896C37.5894 2.39749 37.5894 2.33601 37.5281 2.33601C37.4668 2.27454 37.4668 2.27454 37.4054 2.27454C37.3441 2.27454 37.2828 2.27454 37.2828 2.33601C37.2215 2.39749 37.2215 2.58191 37.2828 2.64339C37.3441 2.70486 37.3441 2.70486 37.4054 2.70486C37.4668 2.70486 37.5281 2.70486 37.5281 2.64339C37.5894 2.58191 37.5894 2.52044 37.5894 2.45896Z" fill="#757575"/>
<path d="M34.7686 0.184426C34.7686 0.122951 34.7686 0.0614754 34.7073 0.0614754C34.7073 -1.2732e-08 34.646 -1.00516e-08 34.5846 -7.3712e-09C34.5233 -4.69077e-09 34.462 -2.01032e-09 34.462 0.0614754C34.4007 0.122951 34.4007 0.307377 34.462 0.368852C34.5233 0.430328 34.5846 0.430328 34.5846 0.430328C34.646 0.430328 34.7073 0.430328 34.7073 0.368852C34.7686 0.307377 34.7686 0.245902 34.7686 0.184426Z" fill="#757575"/>
<path d="M35.995 -8.04123e-09C35.8724 -2.6804e-09 35.811 0.0614754 35.811 0.184426C35.811 0.307377 35.9337 0.430328 35.995 0.430328C36.1176 0.430328 36.179 0.307377 36.179 0.184426C36.179 0.122951 36.1176 -1.34021e-08 35.995 -8.04123e-09Z" fill="#757575"/>
<path d="M37.5894 0.184426C37.5894 0.122951 37.5894 0.0614754 37.5281 0.0614754C37.5281 -1.27321e-08 37.4668 -1.00516e-08 37.4054 -7.3712e-09C37.3441 -4.69077e-09 37.2828 -2.01032e-09 37.2828 0.0614754C37.2215 0.122951 37.2215 0.307377 37.2828 0.368852C37.3441 0.430328 37.3441 0.430328 37.4054 0.430328C37.4668 0.430328 37.5281 0.430328 37.5281 0.368852C37.5894 0.307377 37.5894 0.245902 37.5894 0.184426Z" fill="#757575"/>
<path d="M1.65569 31.0451L1.65569 22.8074C1.65569 22.623 1.53305 22.5 1.34908 22.5C1.16512 22.5 1.04248 22.623 1.04248 22.8074L1.04248 30.9836C1.04248 31.168 1.16512 31.291 1.34908 31.291C1.47173 31.3525 1.65569 31.168 1.65569 31.0451Z" fill="#B8814A"/>
<path d="M1.60261 114.801L1.60261 41.4874C1.60261 41.3653 1.42452 41.3043 1.33548 41.3043C1.1574 41.3043 1.06836 41.4264 1.06836 41.4874L1.06836 114.801C1.06836 114.923 1.24644 114.984 1.33549 114.984C1.51357 115.045 1.60261 114.923 1.60261 114.801Z" fill="#B8814A"/>
<path d="M1.53277 33.2582C1.53277 33.1967 1.53277 33.1353 1.47145 33.1353C1.41013 33.0738 1.34881 33.0738 1.34881 33.0738C1.28749 33.0738 1.22617 33.0738 1.22617 33.1353C1.16485 33.1967 1.16485 33.3812 1.22617 33.4426C1.28749 33.5041 1.34881 33.5041 1.34881 33.5041C1.41013 33.5041 1.47145 33.5041 1.47145 33.4426C1.53277 33.3812 1.53277 33.3197 1.53277 33.2582Z" fill="#B8814A"/>
<path d="M1.3492 37.2542C1.22656 37.2542 1.16524 37.3771 1.16524 37.5001C1.16524 37.623 1.28788 37.6845 1.3492 37.6845C1.47184 37.6845 1.53316 37.623 1.53316 37.5001C1.53316 37.3771 1.47184 37.2542 1.3492 37.2542ZM1.3492 35.8403C1.22656 35.8403 1.16524 35.9632 1.16524 36.0862C1.10392 36.2091 1.22656 36.2706 1.3492 36.2706C1.47184 36.2706 1.53316 36.1476 1.53316 36.0862C1.53316 35.9632 1.47184 35.8403 1.3492 35.8403ZM1.3492 34.4878C1.22656 34.4878 1.16524 34.5493 1.16524 34.6722C1.16524 34.7952 1.28788 34.8566 1.3492 34.8566C1.47184 34.8566 1.53316 34.7952 1.53316 34.6722C1.53316 34.5493 1.47184 34.4878 1.3492 34.4878Z" fill="#B8814A"/>
<path d="M1.53326 38.9139C1.53326 38.8524 1.53326 38.791 1.47194 38.791C1.47194 38.7295 1.41062 38.7295 1.3493 38.7295C1.28798 38.7295 1.22665 38.7295 1.22665 38.7295C1.16533 38.791 1.16533 38.9754 1.22665 39.0369C1.28798 39.0983 1.3493 39.0983 1.3493 39.0983C1.41062 39.0983 1.47194 39.0983 1.47194 39.0369C1.53326 39.0369 1.53326 38.9754 1.53326 38.9139Z" fill="#B8814A"/>
<path d="M0.429255 34.6721C0.429255 34.6106 0.429255 34.5491 0.367934 34.5491C0.306613 34.4877 0.245292 34.4877 0.245292 34.4877C0.183971 34.4877 0.122651 34.4877 0.122651 34.5491C0.06133 34.6106 0.06133 34.7951 0.122651 34.8565C0.183972 34.918 0.245292 34.918 0.245292 34.918C0.245292 34.918 0.367934 34.918 0.367934 34.8565C0.429255 34.7951 0.429255 34.7336 0.429255 34.6721Z" fill="#757575"/>
<path d="M0.245283 35.8401C0.122642 35.8401 5.37439e-09 35.963 1.07487e-08 36.086C1.61231e-08 36.2089 0.122642 36.2704 0.245283 36.2704C0.367925 36.2704 0.429245 36.1475 0.429245 36.086C0.429245 35.963 0.306604 35.8401 0.245283 35.8401Z" fill="#757575"/>
<path d="M0.429254 37.5C0.429254 37.4385 0.429254 37.377 0.367934 37.377C0.306613 37.3156 0.245292 37.3156 0.245292 37.3156C0.245292 37.3156 0.122651 37.3156 0.122651 37.377C0.06133 37.4385 0.06133 37.6229 0.122651 37.6844C0.183971 37.7459 0.245292 37.7459 0.245292 37.7459C0.245292 37.7459 0.367934 37.7459 0.367934 37.6844C0.429254 37.6229 0.429254 37.5615 0.429254 37.5Z" fill="#757575"/>
<path d="M2.69789 34.6721C2.69789 34.6106 2.69789 34.5492 2.63657 34.5492C2.57525 34.4877 2.51393 34.4262 2.45261 34.4262C2.39129 34.4262 2.32997 34.4262 2.26865 34.4877C2.20733 34.5492 2.20733 34.7336 2.26865 34.7951C2.32997 34.8565 2.39129 34.8565 2.39129 34.8565C2.45261 34.8565 2.51393 34.8565 2.51393 34.7951C2.63657 34.7951 2.69789 34.7336 2.69789 34.6721Z" fill="#757575"/>
<path d="M2.45252 35.8402C2.32988 35.8402 2.26855 35.9632 2.26855 36.0861C2.26855 36.2091 2.32988 36.2705 2.45252 36.2705C2.57516 36.2705 2.63648 36.1476 2.63648 36.0861C2.6978 35.9632 2.57516 35.8402 2.45252 35.8402Z" fill="#757575"/>
<path d="M2.6981 37.4999C2.6981 37.4384 2.6981 37.377 2.63677 37.377C2.57545 37.3155 2.51413 37.3155 2.51413 37.3155C2.45281 37.3155 2.39149 37.3155 2.33017 37.377C2.26885 37.4384 2.26885 37.6229 2.33017 37.6843C2.39149 37.7458 2.45281 37.7458 2.51413 37.7458C2.57545 37.7458 2.63677 37.7458 2.63677 37.6843C2.63677 37.6229 2.6981 37.5614 2.6981 37.4999Z" fill="#757575"/>
<path d="M24.2217 1.35246C24.2217 1.29098 24.2217 1.22951 24.1604 1.22951C24.0991 1.16803 24.0991 1.16803 24.0378 1.16803C23.9765 1.16803 23.9151 1.16803 23.9151 1.22951C23.8538 1.29098 23.8538 1.47541 23.9151 1.53688C23.9765 1.59836 24.0378 1.59836 24.0378 1.59836C24.0991 1.59836 24.1604 1.59836 24.1604 1.53688C24.2217 1.47541 24.2217 1.41393 24.2217 1.35246Z" fill="#B8814A"/>
<path d="M23.9766 2.58197C23.854 2.58197 23.7313 2.64344 23.7313 2.7664C23.7313 2.88935 23.7927 3.0123 23.9153 3.0123C24.0379 3.0123 24.0993 2.95082 24.1606 2.82787C24.2219 2.64344 24.0993 2.58197 23.9766 2.58197ZM23.854 3.9959C23.7313 3.9959 23.6087 4.05738 23.6087 4.18033C23.6087 4.30328 23.67 4.42623 23.7927 4.42623C23.9153 4.42623 24.0379 4.36476 24.0379 4.24181C24.0379 4.05738 23.9766 3.9959 23.854 3.9959ZM23.67 5.40984C23.5474 5.40984 23.4247 5.47131 23.4247 5.59426C23.4247 5.71722 23.4861 5.84017 23.6087 5.84017C23.7313 5.84017 23.854 5.77869 23.854 5.65574L23.854 5.59426C23.854 5.53279 23.7927 5.40984 23.67 5.40984ZM23.3634 6.7623C23.2408 6.7623 23.1181 6.82377 23.1181 6.88525C23.1181 7.0082 23.1795 7.13115 23.2408 7.13115C23.3634 7.19262 23.4861 7.06967 23.4861 7.0082C23.4861 7.0082 23.4861 7.0082 23.4861 6.94672C23.5474 6.88525 23.4861 6.82377 23.3634 6.7623ZM22.9955 8.17623C22.8729 8.11476 22.7502 8.17623 22.7502 8.29918C22.6889 8.42213 22.7502 8.54508 22.8729 8.54508C22.9955 8.60656 23.1181 8.54508 23.1181 8.42213L23.1181 8.36066C23.1181 8.29918 23.0568 8.17623 22.9955 8.17623ZM22.5049 9.52869C22.3823 9.46721 22.2596 9.52869 22.1983 9.65164C22.137 9.77459 22.1983 9.89754 22.321 9.95902C22.4436 10.0205 22.5663 9.95902 22.5663 9.83607L22.5663 9.77459C22.6276 9.65164 22.6276 9.52869 22.5049 9.52869ZM21.953 10.8197C21.8304 10.7582 21.7078 10.8197 21.6464 10.9426C21.5851 11.0656 21.6464 11.1885 21.7691 11.25C21.8917 11.3115 22.0144 11.25 22.0757 11.1271L22.0757 11.0656C22.0757 10.9426 22.0144 10.8811 21.953 10.8197ZM21.3398 12.1107C21.2172 12.0492 21.0946 12.1107 21.0332 12.1721C20.9719 12.2951 21.0332 12.418 21.0946 12.4795C21.2172 12.541 21.3398 12.4795 21.4012 12.418C21.4012 12.3566 21.4012 12.3566 21.4012 12.2951C21.4625 12.2336 21.4012 12.1721 21.3398 12.1107ZM20.604 13.3402C20.4813 13.2787 20.3587 13.3402 20.2974 13.4016C20.2361 13.5246 20.2361 13.6475 20.3587 13.709C20.4813 13.7705 20.604 13.7705 20.6653 13.6475C20.6653 13.5861 20.6653 13.5861 20.6653 13.5246C20.7266 13.4631 20.6653 13.4016 20.604 13.3402ZM19.8068 14.5082C19.6842 14.4467 19.5615 14.4467 19.5002 14.5697C19.4389 14.6311 19.4389 14.8156 19.5615 14.877C19.6842 14.9385 19.8068 14.9385 19.8681 14.8156C19.8681 14.7541 19.9295 14.7541 19.9295 14.6926C19.9295 14.6311 19.8681 14.5697 19.8068 14.5082ZM18.9483 15.6762C18.887 15.6148 18.703 15.6148 18.6417 15.6762C18.5804 15.7377 18.5804 15.9221 18.6417 15.9836C18.703 16.0451 18.887 16.0451 18.9483 15.9836C19.0096 15.9221 19.0096 15.8607 19.0096 15.8607C19.0096 15.7992 19.0096 15.7377 18.9483 15.6762ZM18.0285 16.7828C17.9672 16.7213 17.7832 16.7213 17.7219 16.7828C17.6606 16.8443 17.6606 17.0287 17.7219 17.0902C17.7832 17.1516 17.9672 17.1516 18.0285 17.0902C18.0898 17.0287 18.0898 17.0287 18.0898 16.9672C18.0898 16.8443 18.0898 16.7828 18.0285 16.7828ZM17.0474 17.7664C16.9861 17.7049 16.8021 17.7049 16.7408 17.7664C16.6795 17.8279 16.6795 18.0123 16.7408 18.0738C16.8021 18.1352 16.9247 18.1352 17.0474 18.0738C17.1087 18.0123 17.1087 17.9508 17.1087 17.9508C17.1087 17.8893 17.0474 17.8279 17.0474 17.7664ZM15.9436 18.75C15.8823 18.6885 15.7596 18.627 15.637 18.75C15.5757 18.8115 15.5144 18.9344 15.637 19.0574C15.6983 19.1803 15.821 19.1803 15.9436 19.1189C16.0049 19.0574 16.0049 18.9959 16.0049 18.9344C16.0049 18.8115 16.0049 18.75 15.9436 18.75ZM14.8398 19.6107C14.7785 19.5492 14.6559 19.4877 14.5332 19.5492C14.4106 19.6107 14.4106 19.7336 14.4719 19.8566C14.5332 19.918 14.6559 19.9795 14.7785 19.918C14.8398 19.8566 14.8398 19.7951 14.8398 19.7336C14.9012 19.6721 14.9012 19.6721 14.8398 19.6107ZM13.6747 20.4098C13.6134 20.2869 13.4908 20.2869 13.3681 20.3484C13.2455 20.4098 13.2455 20.5328 13.3068 20.6557C13.3681 20.7787 13.4908 20.7787 13.6134 20.7172C13.6747 20.6557 13.7361 20.5943 13.7361 20.5328C13.7361 20.5328 13.7361 20.4713 13.6747 20.4098ZM12.4483 21.1475C12.387 21.0246 12.2644 21.0246 12.1417 21.0861C12.0191 21.1475 12.0191 21.2705 12.0804 21.3934C12.1417 21.5164 12.2644 21.5164 12.387 21.4549C12.4483 21.3934 12.5096 21.332 12.5096 21.2705C12.5096 21.209 12.5096 21.209 12.4483 21.1475ZM11.2219 21.8238C11.1606 21.7008 11.0379 21.7008 10.9153 21.7008C10.7927 21.7623 10.7927 21.8852 10.7927 22.0082C10.854 22.1311 10.9766 22.1311 11.0993 22.1311C11.1606 22.0697 11.2219 22.0082 11.2219 21.9467C11.2219 21.8852 11.2219 21.8852 11.2219 21.8238ZM9.93418 22.4385C9.87286 22.3156 9.75021 22.2541 9.62757 22.3156C9.50493 22.377 9.44361 22.5 9.50493 22.623C9.56625 22.7459 9.68889 22.8074 9.75021 22.7459C9.81153 22.6844 9.87286 22.623 9.87286 22.5615C9.93418 22.4385 9.93418 22.4385 9.93418 22.4385ZM8.58512 22.9303C8.5238 22.8074 8.40116 22.7459 8.33984 22.8074C8.21719 22.8689 8.15587 22.9918 8.21719 23.0533C8.27851 23.1762 8.40116 23.2377 8.46248 23.1762C8.5238 23.1762 8.58512 23.0533 8.58512 22.9918C8.58512 22.9303 8.58512 22.9303 8.58512 22.9303ZM7.23606 23.2992C7.23606 23.1762 7.11342 23.1148 6.99078 23.1762C6.86814 23.2377 6.80682 23.2992 6.86814 23.4221C6.86814 23.5451 6.99078 23.6066 7.11342 23.5451C7.17474 23.5451 7.23606 23.4836 7.23606 23.2992C7.23606 23.3607 7.23606 23.3607 7.23606 23.2992ZM5.82568 23.668C5.82568 23.5451 5.70304 23.4836 5.5804 23.4836C5.45776 23.4836 5.39644 23.6066 5.39644 23.7295C5.39644 23.8525 5.51908 23.9139 5.64172 23.9139C5.76436 23.8525 5.82568 23.791 5.82568 23.668ZM4.41531 23.8525C4.41531 23.7295 4.29267 23.668 4.17002 23.668C4.04738 23.668 3.98606 23.791 3.98606 23.9139C3.98606 24.0369 4.1087 24.0984 4.23135 24.0984C4.35399 24.0984 4.41531 24.0369 4.41531 23.8525C4.41531 23.9139 4.41531 23.9139 4.41531 23.8525ZM3.00493 24.0369C3.00493 23.9139 2.88229 23.8525 2.75965 23.8525C2.63701 23.8525 2.57568 23.9754 2.57568 24.0984C2.57568 24.2213 2.69833 24.2828 2.82097 24.2828C2.94361 24.2213 3.00493 24.1598 3.00493 24.0369Z" fill="#B8814A"/>
<path d="M1.53326 24.0984C1.53326 24.0369 1.53326 23.9754 1.47194 23.9754C1.41062 23.9139 1.3493 23.9139 1.3493 23.9139C1.28798 23.9139 1.22665 23.9139 1.22665 23.9754C1.16533 24.0369 1.16533 24.2213 1.22665 24.2828C1.28798 24.3443 1.3493 24.3443 1.3493 24.3443C1.41062 24.3443 1.47194 24.3443 1.47194 24.2828C1.53326 24.2213 1.53326 24.1598 1.53326 24.0984Z" fill="#B8814A"/>
<path d="M4.78326 22.5615C4.78326 22.5 4.78326 22.4386 4.72194 22.4386C4.66062 22.3771 4.5993 22.3771 4.5993 22.3771C4.53797 22.3771 4.47665 22.3771 4.47665 22.4386C4.41533 22.5 4.41533 22.6845 4.47665 22.7459C4.47665 22.7459 4.53797 22.7459 4.5993 22.7459C4.66062 22.7459 4.72194 22.7459 4.72194 22.6845C4.78326 22.623 4.78326 22.623 4.78326 22.5615Z" fill="#757575"/>
<path d="M21.0945 3.99594C20.9719 3.99594 20.8493 4.05741 20.8493 4.18036C20.8493 4.30331 20.9106 4.42626 21.0332 4.42626C21.1559 4.42626 21.2785 4.36479 21.2785 4.24184C21.2785 4.05741 21.2172 3.99594 21.0945 3.99594ZM19.6228 3.87299C19.5002 3.87299 19.4389 3.99594 19.4389 4.05741C19.4389 4.24184 19.5002 4.30331 19.6228 4.30331C19.7455 4.30331 19.8068 4.18036 19.8068 4.11889C19.8681 3.99594 19.7455 3.87299 19.6228 3.87299ZM18.3964 4.11889C18.3964 3.99594 18.2738 3.93446 18.1511 3.93446C18.0285 3.93446 17.9672 4.05741 17.9672 4.18036C17.9672 4.30331 18.0898 4.36479 18.2125 4.36479C18.3351 4.36479 18.3964 4.24184 18.3964 4.11889C18.3964 4.11889 18.3964 4.18036 18.3964 4.11889ZM16.986 4.30331C16.986 4.18036 16.8634 4.11889 16.7408 4.11889C16.6181 4.11889 16.5568 4.24184 16.5568 4.36479C16.5568 4.48774 16.6794 4.54921 16.8021 4.54921C16.9247 4.54921 16.986 4.42626 16.986 4.30331ZM15.5757 4.61069C15.5757 4.48774 15.453 4.42626 15.3304 4.48774C15.2077 4.48774 15.1464 4.61069 15.2077 4.73364C15.2077 4.85659 15.3304 4.91807 15.453 4.85659C15.5143 4.85659 15.5757 4.73364 15.5757 4.61069ZM14.2266 5.04102C14.1653 4.91807 14.0426 4.85659 13.92 4.91807C13.7974 4.97954 13.736 5.10249 13.7974 5.16397C13.8587 5.28692 13.9813 5.3484 14.104 5.28692C14.1653 5.28692 14.2266 5.16397 14.2266 5.10249C14.2266 5.10249 14.2266 5.04102 14.2266 5.04102ZM12.8776 5.5943C12.8162 5.47135 12.6936 5.47135 12.5709 5.47135C12.4483 5.53282 12.4483 5.65577 12.4483 5.77872C12.5096 5.90167 12.6323 5.90167 12.7549 5.8402C12.8162 5.77872 12.8776 5.71725 12.8776 5.65577C12.9389 5.65577 12.9389 5.65577 12.8776 5.5943ZM11.6511 6.27053C11.5898 6.14758 11.4672 6.14758 11.3445 6.20905C11.2219 6.27053 11.2219 6.39348 11.2832 6.51643C11.3445 6.63938 11.4672 6.63938 11.5898 6.5779C11.6511 6.51643 11.6511 6.45495 11.6511 6.39348C11.6511 6.332 11.6511 6.332 11.6511 6.27053ZM10.4247 7.06971C10.3634 6.94676 10.2408 6.94676 10.1181 7.00823C10.0568 7.06971 9.99548 7.19266 10.0568 7.31561C10.1181 7.37708 10.2408 7.43856 10.3634 7.37708C10.4247 7.31561 10.4247 7.25413 10.4247 7.19266C10.486 7.19266 10.486 7.13118 10.4247 7.06971ZM9.32095 7.99184C9.25963 7.93036 9.13699 7.86889 9.01435 7.99184C8.95302 8.05331 8.8917 8.17626 9.01435 8.29921C9.07567 8.36069 9.19831 8.36069 9.32095 8.29921C9.38227 8.23774 9.38227 8.17626 9.38227 8.11479C9.38227 8.05331 9.38227 8.05331 9.32095 7.99184ZM8.33982 8.97544C8.21718 8.91397 8.09453 8.91397 8.03321 8.97544C7.97189 9.0984 7.97189 9.22135 8.03321 9.28282C8.09453 9.3443 8.2785 9.3443 8.33982 9.28282C8.40114 9.22135 8.40114 9.22135 8.40114 9.15987C8.40114 9.09839 8.33982 9.03692 8.33982 8.97544ZM7.35868 10.082C7.23604 10.0205 7.1134 10.0205 7.05208 10.1435C6.99076 10.205 6.99076 10.3894 7.1134 10.4509C7.23604 10.5123 7.35868 10.5123 7.42001 10.3894C7.42001 10.3279 7.48133 10.3279 7.48133 10.2664C7.48133 10.205 7.42001 10.1435 7.35868 10.082ZM6.56151 11.25C6.43887 11.1886 6.31623 11.25 6.25491 11.3115C6.19359 11.4345 6.25491 11.5574 6.31623 11.6189C6.43887 11.6804 6.56151 11.6189 6.62284 11.5574C6.62284 11.4959 6.62284 11.4959 6.62284 11.4345C6.68416 11.373 6.62284 11.3115 6.56151 11.25ZM5.88699 12.541C5.76435 12.4795 5.6417 12.541 5.58038 12.664C5.51906 12.7869 5.58038 12.9099 5.70302 12.9713C5.82567 13.0328 5.94831 12.9713 6.00963 12.8484L6.00963 12.7869C6.00963 12.664 5.94831 12.541 5.88699 12.541ZM5.27378 13.832C5.15114 13.7705 5.0285 13.832 4.96718 13.955C4.90585 14.0779 4.96718 14.2009 5.08982 14.2009C5.21246 14.2623 5.3351 14.2009 5.3351 14.0779L5.3351 14.0164C5.39642 13.955 5.39642 13.8935 5.27378 13.832ZM4.84453 15.2459C4.72189 15.1845 4.59925 15.3074 4.59925 15.3689C4.59925 15.4918 4.66057 15.6148 4.72189 15.6148C4.84453 15.6148 4.96718 15.5533 4.96718 15.4918L4.96718 15.4304C4.96718 15.3074 4.90585 15.2459 4.84453 15.2459ZM4.47661 16.5984C4.35397 16.5984 4.23133 16.6599 4.23133 16.7828C4.23133 16.9058 4.29265 17.0287 4.41529 17.0287C4.53793 17.0287 4.66057 16.9672 4.66057 16.8443C4.66057 16.8443 4.66057 16.8443 4.66057 16.7828C4.66057 16.7213 4.59925 16.6599 4.47661 16.5984ZM4.59925 21.0861C4.59925 20.9631 4.47661 20.9017 4.35397 20.9017C4.23133 20.9017 4.17001 21.0246 4.17001 21.1476C4.17001 21.2705 4.29265 21.332 4.41529 21.332C4.47661 21.332 4.59925 21.2091 4.59925 21.0861C4.59925 21.0861 4.59925 21.1476 4.59925 21.0861ZM4.29265 18.0123C4.17001 18.0123 4.04736 18.0738 4.04736 18.1968C4.10868 18.3812 4.17001 18.4427 4.29265 18.4427C4.41529 18.4427 4.47661 18.3812 4.53793 18.2582C4.53793 18.1353 4.41529 18.0738 4.29265 18.0123ZM4.47661 19.6722C4.47661 19.5492 4.35397 19.4263 4.29265 19.4877C4.17001 19.4877 4.10868 19.6107 4.10868 19.7336C4.10868 19.8566 4.23133 19.9181 4.29265 19.9181C4.35397 19.9181 4.47661 19.7951 4.47661 19.6722Z" fill="#757575"/>
<path d="M22.7501 4.42625C22.7501 4.36477 22.7501 4.3033 22.6887 4.3033C22.6274 4.24182 22.5661 4.24182 22.5661 4.24182C22.5048 4.24182 22.4435 4.24182 22.4435 4.3033C22.3821 4.36477 22.3821 4.5492 22.4435 4.61067C22.5048 4.67215 22.5661 4.67215 22.5661 4.67215C22.6274 4.67215 22.6887 4.67215 22.6887 4.61067C22.6887 4.48772 22.7501 4.48772 22.7501 4.42625Z" fill="#757575"/>
<path d="M6.25513 15.0615C6.25513 15 6.19381 14.8771 6.13249 14.8771C6.00985 14.8156 5.88721 14.8771 5.88721 15C5.88721 15 5.88721 15 5.88721 15.0615C5.88721 15.1845 5.94853 15.3074 6.00985 15.3074C6.13249 15.3074 6.25513 15.1845 6.25513 15.0615Z" fill="#B8814A"/>
<path d="M16.5568 5.77872L16.5568 5.53282L16.4955 5.34839C16.3728 5.34839 16.3115 5.47134 16.3115 5.59429C16.3115 5.71724 16.4342 5.77872 16.5568 5.77872Z" fill="#B8814A"/>
<path d="M10.241 8.91397C10.241 8.85249 10.241 8.79102 10.1797 8.79102C10.1183 8.72954 9.9957 8.66807 9.87305 8.79102C9.81173 8.85249 9.75041 9.03692 9.87305 9.09839C9.93438 9.15987 10.057 9.22134 10.1797 9.09839C10.241 8.97544 10.241 8.91397 10.241 8.91397Z" fill="#B8814A"/>
<path d="M22.6276 5.53278C22.6276 5.40983 22.505 5.28688 22.3823 5.22541C21.4625 5.04098 20.4814 4.91803 19.5002 4.91803C18.5191 4.91803 17.4767 5.04098 16.4955 5.22541C14.0427 5.77869 11.7125 6.94672 9.87289 8.60655C7.97195 10.3279 6.62289 12.4795 5.82572 14.877C5.02855 17.2746 4.90591 19.8566 5.4578 22.3156C5.51912 22.4385 5.64176 22.5615 5.7644 22.5615C5.88704 22.5 6.00969 22.377 6.00969 22.2541C5.51912 19.8566 5.64176 17.3975 6.37761 15.1229C7.11346 12.7869 8.46252 10.7582 10.2408 9.09836C12.0191 7.43852 14.2267 6.33196 16.6182 5.84016C17.538 5.59426 18.5191 5.53278 19.5002 5.53278C20.4201 5.53278 21.3399 5.65573 22.2597 5.84016C22.4436 5.84016 22.5663 5.71721 22.6276 5.53278Z" fill="#B8814A"/>
<path d="M20.5428 11.1886C20.5428 11.0656 20.4815 11.0042 20.3589 11.0042C20.0523 11.0042 19.7457 10.9427 19.5004 10.9427C19.3777 10.9427 19.3164 11.0656 19.3164 11.1271C19.3164 11.2501 19.439 11.3115 19.5004 11.3115C19.7457 11.3115 20.0523 11.3115 20.3589 11.373C20.4202 11.373 20.5428 11.3115 20.5428 11.1886Z" fill="#B8814A"/>
<path d="M19.6843 11.1271C19.6843 11.0042 19.5617 10.9427 19.5004 10.9427C14.84 10.9427 11.0381 14.7542 11.0381 19.4263C11.0381 19.5492 11.1607 19.6107 11.222 19.6107C11.3447 19.6107 11.406 19.4878 11.406 19.4263C11.406 15.0001 15.0239 11.373 19.439 11.373C19.623 11.3115 19.6843 11.2501 19.6843 11.1271Z" fill="#B8814A"/>
<path d="M11.5284 20.2869C11.467 19.9795 11.467 19.6722 11.467 19.3648C11.467 19.2418 11.3444 19.1804 11.2831 19.1804C11.1604 19.1804 11.0991 19.3033 11.0991 19.3648C11.0991 19.6722 11.0991 19.9795 11.1604 20.3484C11.1604 20.4713 11.2831 20.5328 11.4057 20.5328C11.467 20.5328 11.5284 20.4099 11.5284 20.2869Z" fill="#B8814A"/>
<path d="M20.6654 10.8812C20.6654 10.8197 20.6654 10.8197 20.6654 10.8812L19.5003 5.47131L18.2739 11.0041C18.2739 11.0656 18.3352 11.1885 18.3966 11.1885C18.4579 11.1885 18.5805 11.1271 18.5805 11.0656L19.5003 7.0082L20.3588 10.8812C20.3588 10.9426 20.4815 11.0041 20.5428 11.0041C20.6041 11.0041 20.6654 10.9426 20.6654 10.8812Z" fill="#B8814A"/>
<path d="M18.6416 11.0656C18.6416 11.0041 18.6416 10.9426 18.5803 10.9426C17.8444 10.082 17.8444 9.83609 17.8444 9.40577C17.8444 9.15986 17.9057 8.85249 17.7831 8.36068C17.6605 7.80741 17.4152 7.50003 17.1699 7.25413C16.8633 6.94675 16.618 6.63937 16.6793 5.59429C16.6793 5.47134 16.618 5.34839 16.4954 5.34839C16.3727 5.34839 16.2501 5.40986 16.2501 5.53281C16.1888 6.76232 16.4954 7.13118 16.802 7.50003C16.9859 7.74593 17.1699 7.93036 17.2925 8.42216C17.4152 8.85249 17.3539 9.09839 17.3539 9.34429C17.2925 9.89757 17.3539 10.2664 18.151 11.1886C18.2123 11.25 18.335 11.3115 18.4576 11.1886C18.6416 11.1886 18.6416 11.1271 18.6416 11.0656Z" fill="#B8814A"/>
<path d="M16.7406 5.53279C16.7406 5.47131 16.7406 5.40984 16.6793 5.34836C16.618 5.28689 16.434 5.28689 16.3727 5.40984C15.2689 6.82377 15.5142 7.37705 15.7595 7.99181C15.8208 8.17623 15.9434 8.42213 16.0048 8.66804C16.0661 9.03689 16.0048 9.28279 16.0048 9.52869C15.9434 9.95902 15.8208 10.4508 16.25 11.7418C16.3114 11.8648 16.434 11.9262 16.4953 11.8648C16.618 11.8033 16.6793 11.6803 16.618 11.6189C16.1887 10.5123 16.3114 10.082 16.3727 9.65164C16.434 9.34426 16.4953 9.09836 16.3727 8.60656C16.3114 8.29918 16.1887 8.05328 16.1274 7.86886C15.8821 7.2541 15.6982 6.88525 16.6793 5.71722C16.6793 5.65574 16.7406 5.59427 16.7406 5.53279Z" fill="#B8814A"/>
<path d="M16.7406 5.53289C16.7406 5.47141 16.6793 5.34846 16.6179 5.34846C16.5566 5.28699 16.434 5.34846 16.3727 5.40994C16.3113 5.47141 16.3113 5.65584 16.3727 5.71731C16.434 5.77879 16.5566 5.77879 16.6179 5.71731C16.6793 5.71731 16.7406 5.65584 16.7406 5.53289Z" fill="#B8814A"/>
<path d="M16.4953 11.6804C16.4953 11.6189 16.4953 11.6189 16.434 11.5574L12.5708 7.31561L14.2878 12.7254C14.2878 12.7869 14.4104 12.8484 14.4717 12.8484C14.5331 12.8484 14.5944 12.7254 14.5944 12.664L13.368 8.72955L16.25 11.8648C16.3114 11.9263 16.434 11.9263 16.4953 11.8648C16.4953 11.8033 16.4953 11.7418 16.4953 11.6804Z" fill="#B8814A"/>
<path d="M10.2408 8.85252L10.2408 8.79104C10.1795 8.72957 10.1181 8.66809 9.99549 8.66809C9.87284 8.66809 9.81152 8.72957 9.81152 8.85252C9.81152 8.97547 9.87284 9.09842 9.99549 9.09842C10.0568 9.09842 10.1795 9.09842 10.2408 8.97547C10.2408 8.97547 10.2408 8.91399 10.2408 8.85252Z" fill="#B8814A"/>
<path d="M14.6559 12.7255C14.6559 12.664 14.5945 12.541 14.5332 12.541C13.4294 12.1722 13.3681 11.9263 13.1228 11.5574C13.0002 11.3115 12.8776 11.0656 12.5096 10.6968C12.0804 10.2665 11.7738 10.1435 11.4672 10.0205C11.0379 9.8976 10.67 9.77465 10.2408 8.79104C10.1794 8.66809 10.0568 8.66809 9.93417 8.66809C9.81152 8.72957 9.81152 8.85252 9.81152 8.97547C10.3634 10.082 10.7927 10.205 11.2832 10.3894C11.5898 10.5124 11.8351 10.5738 12.203 10.9427C12.5096 11.2501 12.6323 11.496 12.6936 11.6804C12.9389 12.1722 13.1228 12.4796 14.3493 12.8484C14.4719 12.9099 14.5945 12.8484 14.5945 12.7255C14.6559 12.7255 14.6559 12.7255 14.6559 12.7255Z" fill="#B8814A"/>
<path d="M13.184 14.2624C13.184 14.2009 13.184 14.1394 13.1227 14.0779C12.2029 13.3402 12.0802 12.9099 11.9576 12.541C11.8963 12.2951 11.7736 11.9878 11.467 11.6189C11.2831 11.373 11.0378 11.2501 10.8538 11.0656C10.3633 10.6968 9.99533 10.4509 10.2406 8.91399C10.2406 8.79104 10.1793 8.66809 10.0567 8.66809C9.93401 8.66809 9.81137 8.72957 9.81137 8.85252C9.56609 10.6353 9.99533 11.0042 10.5472 11.4345C10.7312 11.5574 10.9151 11.6804 11.0991 11.9263C11.3444 12.2337 11.4057 12.4181 11.5284 12.7255C11.651 13.1558 11.835 13.6476 12.8774 14.5083C12.9387 14.5697 13.1227 14.5697 13.184 14.5083C13.184 14.3853 13.184 14.3238 13.184 14.2624Z" fill="#B8814A"/>
<path d="M13.0614 14.3238C13.0614 14.2624 13.0001 14.2009 12.9388 14.1394L7.41992 12.4181L11.5897 16.291C11.6511 16.3525 11.7737 16.3525 11.835 16.291C11.8963 16.2296 11.8963 16.1066 11.835 16.0451L8.76898 13.2173L12.8161 14.5083C12.9388 14.5083 13.0614 14.4468 13.0614 14.3238Z" fill="#B8814A"/>
<path d="M11.9577 16.1066C11.9577 15.9221 11.8351 15.8607 11.7124 15.9221C10.6087 16.168 10.3634 15.9836 9.99545 15.7377C9.81149 15.6148 9.50488 15.4303 9.07564 15.3074C8.52375 15.123 8.15583 15.1844 7.84922 15.2459C7.41998 15.3074 7.05205 15.3689 6.19356 14.8156C6.07092 14.7541 5.94828 14.7541 5.88696 14.8771C5.82564 15 5.82564 15.123 5.94828 15.1844C6.92941 15.8607 7.41998 15.7377 7.91054 15.6762C8.21715 15.6148 8.52375 15.5533 8.953 15.6762C9.38224 15.7992 9.5662 15.9221 9.81149 16.1066C10.2407 16.4139 10.6087 16.5984 11.8351 16.3525C11.8964 16.3525 11.9577 16.2295 11.9577 16.1066Z" fill="#B8814A"/>
<path d="M6.25514 14.9385L6.07118 15L6.19382 14.8156C6.1325 14.7541 6.00986 14.7541 5.94854 14.8156C5.88722 14.8771 5.8259 14.9385 5.88722 15.0615L6.07118 15L5.94854 15.1229L6.07118 15L6.25514 14.9385Z" fill="#B8814A"/>
<path d="M11.5284 18.1968C11.5284 18.0738 11.467 18.0123 11.3444 18.0123C10.1793 17.8279 9.8727 17.5205 9.50477 17.2746C9.25949 17.0902 9.07553 16.9058 8.64628 16.7214C8.33968 16.5984 8.0944 16.5984 7.84911 16.5369C7.23591 16.4755 6.80666 16.414 6.25477 14.9386C6.19345 14.8156 6.07081 14.7541 6.00949 14.8156C5.88685 14.8771 5.82553 15 5.88685 15.0615C6.56138 16.7214 7.11326 16.7828 7.84911 16.9058C8.0944 16.9058 8.27836 16.9673 8.52364 17.0287C8.89156 17.1517 9.07553 17.3361 9.25949 17.4591C9.62741 17.7664 9.99534 18.0738 11.2831 18.3197C11.3444 18.4427 11.467 18.3812 11.5284 18.1968C11.5284 18.1968 11.5284 18.2582 11.5284 18.1968Z" fill="#B8814A"/>
<path d="M11.4671 18.2582C11.4671 18.1353 11.3444 18.0738 11.2831 18.0738L5.6416 19.3033L11.0991 20.5328C11.1605 20.5328 11.2831 20.4713 11.2831 20.4099C11.2831 20.3484 11.2218 20.2254 11.1605 20.2254L7.17462 19.3648L11.2831 18.4426C11.4058 18.4426 11.4671 18.3812 11.4671 18.2582Z" fill="#B8814A"/>
<path d="M19.6843 11.127L19.6843 10.0205C19.6843 9.89753 19.5617 9.83606 19.5004 9.83606C19.3777 9.83606 19.3164 9.95901 19.3164 10.0205L19.3164 11.127C19.3164 11.25 19.439 11.3115 19.5004 11.3115C19.623 11.3115 19.6843 11.25 19.6843 11.127Z" fill="#B8814A"/>
<path d="M17.7219 11.373C17.7219 11.3115 17.7219 11.25 17.6606 11.25C17.6606 11.25 17.17 10.7582 17.0474 10.2664C17.0474 10.1434 16.9248 10.082 16.8021 10.082C16.6795 10.082 16.6182 10.2049 16.6182 10.3279C16.7408 10.9426 17.2927 11.4959 17.354 11.4959C17.4153 11.5574 17.5993 11.5574 17.6606 11.4959C17.7219 11.4959 17.7219 11.4344 17.7219 11.373Z" fill="#B8814A"/>
<path d="M15.5758 12.2336C15.5758 12.1721 15.5758 12.1721 15.5758 12.1106L15.0239 11.127C14.9626 11.0656 14.84 11.0041 14.7173 11.0656C14.5947 11.127 14.5947 11.25 14.656 11.3729L15.2079 12.3565C15.2692 12.4795 15.3919 12.4795 15.5145 12.418C15.5758 12.3565 15.5758 12.2951 15.5758 12.2336Z" fill="#B8814A"/>
<path d="M14.0428 13.4016C14.0428 13.2787 13.9815 13.2172 13.8588 13.2172C13.8588 13.2172 13.1843 13.0328 12.8164 12.6639C12.7551 12.6025 12.6324 12.541 12.5098 12.6639C12.4485 12.7254 12.3871 12.8484 12.5098 12.9713C12.939 13.4631 13.6749 13.6475 13.7362 13.6475C13.8588 13.6475 13.9815 13.5861 14.0428 13.4016C14.0428 13.4016 13.9815 13.4631 14.0428 13.4016Z" fill="#B8814A"/>
<path d="M12.571 15.2459C12.571 15.1844 12.5097 15.1229 12.4484 15.0615L11.4673 14.5082C11.3446 14.4467 11.222 14.5082 11.1607 14.5697C11.0993 14.6926 11.1607 14.8156 11.222 14.877L12.2031 15.4303C12.3257 15.4918 12.4484 15.4303 12.5097 15.3688C12.571 15.3074 12.571 15.3074 12.571 15.2459Z" fill="#B8814A"/>
<path d="M11.774 17.0902C11.774 17.0287 11.774 17.0287 11.774 17.0902C11.7126 16.9057 11.59 16.8443 11.5287 16.9057C11.5287 16.9057 10.8541 17.0902 10.3636 16.9672C10.2409 16.9057 10.1183 16.9672 10.1183 17.0902C10.057 17.2131 10.1183 17.3361 10.2409 17.3361C10.8541 17.5205 11.59 17.3361 11.6513 17.3361C11.7126 17.2131 11.774 17.1516 11.774 17.0902Z" fill="#B8814A"/>
<path d="M11.4673 19.3648C11.4673 19.2418 11.3447 19.1804 11.2833 19.1804L10.1796 19.1804C10.0569 19.1804 9.99561 19.3033 9.99561 19.3648C9.99561 19.4877 10.1182 19.5492 10.1796 19.5492L11.2833 19.5492C11.406 19.6107 11.4673 19.4877 11.4673 19.3648Z" fill="#B8814A"/>
<path d="M23.0564 1.35242C23.0564 1.16799 22.9338 1.04504 22.7498 1.04504C22.5659 1.04504 22.4432 1.16799 22.4432 1.35242C22.4432 13.0327 12.9385 22.5614 1.28756 22.5614C1.1036 22.5614 0.980958 22.6844 0.980958 22.8688C0.980958 23.0532 1.1036 23.1762 1.28756 23.1762C13.3064 23.1147 23.0564 13.3401 23.0564 1.35242Z" fill="#B8814A"/>
<path d="M33.6039 10.0819L31.3963 8.23768L32.5001 5.59424L30.1086 7.13113L27.9011 5.28687L28.5756 8.05326L26.1841 9.59014L29.0048 9.77457L29.6794 12.541L30.7218 9.89752L33.6039 10.0819ZM30.9058 8.36064L32.3162 9.52867L30.4765 9.40572L29.802 11.127L29.3728 9.34424L27.5331 9.22129L29.1275 8.23768L28.6982 6.4549L30.1086 7.62293L31.7029 6.63932L30.9058 8.36064Z" fill="#B8814A"/>
</g>
<path d="M1 110H155V145C155 151.627 149.627 157 143 157H13C6.37259 157 1 151.627 1 145V110Z" fill="#B8814A"/>
<defs>
<clipPath id="clip0">
<rect width="110" height="39" fill="white" transform="translate(156) rotate(90)"/>
</clipPath>
<clipPath id="clip1">
<rect width="110" height="39" fill="white" transform="matrix(4.37114e-08 1 1 -4.37114e-08 0 0)"/>
</clipPath>
</defs>
</svg>
