<svg width="66" height="16" viewBox="0 0 66 16" fill="none" xmlns="http://www.w3.org/2000/svg">
<g clip-path="url(#clip0)">
<path d="M16.9682 8C16.9682 5.765 13.5417 2.065 10.6232 0.612C9.85005 0.227 9.11299 0 8.48411 0C7.72478 0 6.80532 0.331 5.85616 0.873C4.93245 1.4 3.97905 2.126 3.11791 2.94C2.24617 3.76 1.46881 4.67 0.9078 5.551C0.344667 6.435 0 7.291 0 8C0 10.829 5.48392 16 8.48411 16C9.24238 16 10.1587 15.669 11.1068 15.13C12.0326 14.602 12.9881 13.874 13.8514 13.06C14.7199 12.241 15.4962 11.335 16.0562 10.456C16.6214 9.569 16.9682 8.711 16.9682 8Z" fill="#4A4A4A"/>
<path d="M10.5012 1.034C9.7726 0.671001 9.0769 0.457001 8.48407 0.457001C7.76823 0.457001 6.90073 0.770001 6.00671 1.281C6.84452 1.727 7.68233 2.294 8.4968 2.926L10.5012 1.034Z" fill="#8761B5"/>
<path d="M11.269 5.37399C10.4079 4.52699 9.47036 3.67899 8.49681 2.92399C7.68128 2.29199 6.84453 1.72599 6.00673 1.27899C5.13499 1.77699 4.23673 2.46099 3.42438 3.22799L8.48409 7.99999L11.269 5.37399Z" fill="#7CC7FC"/>
<path d="M16.4836 8C16.4836 5.892 13.2522 2.403 10.5012 1.034L8.49686 2.924C9.47041 3.679 10.4079 4.527 11.269 5.374L8.48413 8L11.1206 10.486L8.50746 12.95C9.78538 13.933 10.7526 14.586 10.9572 14.723C11.8311 14.225 12.7315 13.539 13.5449 12.772C14.3636 12 15.0954 11.145 15.6235 10.318C16.1569 9.48 16.4836 8.67 16.4836 8Z" fill="#F4D73B"/>
<path d="M11.1205 10.486L8.48407 8L3.42436 3.228C2.60353 4.002 1.86965 4.859 1.34045 5.69C3.03197 8.452 6.25275 11.214 8.50741 12.95L11.1205 10.486Z" fill="#E8A03F"/>
<path d="M10.9573 14.723C10.7526 14.586 9.78538 13.934 8.50747 12.95C6.25281 11.214 3.03309 8.452 1.34158 5.69C0.809197 6.524 0.48468 7.332 0.48468 8C0.48468 10.667 5.65574 15.543 8.48413 15.543C9.19892 15.543 10.0643 15.232 10.9573 14.723Z" fill="#DE5A7C"/>
<path d="M19.4053 10.641C19.3257 10.61 19.2579 10.558 19.2091 10.491C19.0945 10.341 19.1094 10.136 19.243 10.001C19.3151 9.926 19.4191 9.884 19.5272 9.888C19.5898 9.887 19.6524 9.9 19.7096 9.924C20.3067 10.173 20.9526 10.3 21.6048 10.295C22.7268 10.295 23.2878 9.947 23.2878 9.252C23.291 9.078 23.2125 8.912 23.0715 8.799C22.9156 8.672 22.7342 8.575 22.538 8.513C22.3259 8.443 22.0247 8.36 21.6334 8.263C21.206 8.163 20.7861 8.041 20.3735 7.896C20.0585 7.781 19.7754 7.6 19.5463 7.365C19.3194 7.127 19.2048 6.813 19.2048 6.422C19.2006 6.089 19.3003 5.763 19.4912 5.483C19.7011 5.187 19.997 4.955 20.3428 4.812C20.7182 4.646 21.1689 4.563 21.6949 4.563C22.3482 4.555 22.9983 4.657 23.6123 4.865C23.7809 4.912 23.8923 5.063 23.8817 5.228C23.8817 5.325 23.8435 5.418 23.7756 5.491C23.7067 5.569 23.6038 5.612 23.4967 5.608C23.4437 5.605 23.3917 5.593 23.343 5.572C22.8445 5.409 22.3217 5.327 21.7946 5.327C21.2877 5.327 20.8762 5.418 20.5591 5.599C20.242 5.78 20.0829 6.034 20.0829 6.36C20.0744 6.558 20.1561 6.75 20.3056 6.888C20.4679 7.031 20.662 7.139 20.873 7.205C21.1774 7.301 21.4871 7.381 21.801 7.446C22.2177 7.536 22.6271 7.651 23.0269 7.792C23.3355 7.906 23.6102 8.089 23.8255 8.327C24.0461 8.569 24.1564 8.896 24.1574 9.307C24.1606 9.635 24.0524 9.956 23.8467 10.221C23.625 10.502 23.3249 10.72 22.9803 10.852C22.5709 11.01 22.1329 11.087 21.6907 11.079C20.9038 11.083 20.1243 10.934 19.4021 10.641H19.4053Z" fill="#4A4A4A"/>
<path d="M25.3791 10.914C25.2964 10.838 25.2519 10.732 25.254 10.624V4.73599C25.2519 4.62599 25.2964 4.51999 25.3791 4.44099C25.4587 4.36099 25.57 4.31599 25.6867 4.31899C25.9295 4.31899 26.1268 4.50499 26.1268 4.73399V7.10099C26.3537 6.86099 26.6199 6.65699 26.9147 6.49599C27.2212 6.33899 27.5659 6.26099 27.9148 6.26899C28.2393 6.26099 28.5585 6.34299 28.8343 6.50499C29.0941 6.66199 29.3009 6.88499 29.4303 7.14899C29.5703 7.42999 29.6413 7.73699 29.6371 8.04799V10.622C29.6392 10.732 29.5925 10.837 29.5066 10.912C29.4239 10.989 29.3104 11.032 29.1938 11.03C29.0782 11.031 28.9668 10.989 28.8862 10.912C28.8046 10.835 28.76 10.73 28.7622 10.621V8.13799C28.7622 7.39999 28.409 7.03099 27.7038 7.03099C27.3983 7.02699 27.0982 7.10899 26.8426 7.26799C26.5701 7.44199 26.3283 7.65699 26.1257 7.90299V10.624C26.1289 10.734 26.0833 10.839 25.9985 10.915C25.9147 10.992 25.8023 11.034 25.6856 11.032C25.5711 11.034 25.4597 10.991 25.3791 10.914Z" fill="#4A4A4A"/>
<path d="M31.5789 10.916C31.3445 10.812 31.1462 10.646 31.0073 10.44C30.8631 10.223 30.7888 9.97198 30.7941 9.71698C30.7814 9.29398 30.9924 8.89298 31.3573 8.64698C31.7327 8.38098 32.282 8.24798 33.0064 8.24698H34.1708V8.17798C34.1708 7.77898 34.0669 7.49198 33.8579 7.31698C33.6501 7.14198 33.3245 7.05398 32.8823 7.05298C32.6649 7.05098 32.4475 7.06898 32.2332 7.10798C32.0201 7.15098 31.809 7.20598 31.6022 7.27198C31.5619 7.28198 31.5195 7.28798 31.4771 7.28998C31.3827 7.29098 31.2915 7.25498 31.2268 7.18998C31.1568 7.12598 31.1186 7.03698 31.1218 6.94498C31.1144 6.78998 31.2162 6.64898 31.3721 6.59898C31.8981 6.38498 32.4634 6.27398 33.0361 6.27298C33.4762 6.27298 33.8495 6.35798 34.157 6.52698C34.4444 6.67998 34.6788 6.90798 34.8304 7.18398C34.9747 7.45498 35.05 7.75498 35.0478 8.05898V10.626C35.0489 10.736 35.0001 10.84 34.9142 10.914C34.8304 10.991 34.718 11.033 34.6014 11.032C34.4858 11.033 34.3755 10.99 34.2938 10.914C34.2122 10.837 34.1676 10.732 34.1687 10.624V10.388C33.6946 10.849 33.0923 11.08 32.3605 11.08C32.0901 11.081 31.8228 11.025 31.5789 10.915V10.916ZM33.508 10.156C33.7572 10.035 33.982 9.86998 34.1676 9.67198V8.90698H33.122C32.1537 8.90698 31.6701 9.14598 31.6701 9.62398C31.6606 9.82398 31.7465 10.018 31.9045 10.152C32.0614 10.285 32.3223 10.352 32.6882 10.351C32.9745 10.351 33.2556 10.284 33.508 10.156Z" fill="#4A4A4A"/>
<path d="M36.644 10.914C36.5612 10.838 36.5167 10.732 36.5188 10.624V6.734C36.5167 6.624 36.5612 6.518 36.644 6.439C36.7245 6.359 36.838 6.315 36.9547 6.319C37.1975 6.319 37.3948 6.505 37.3948 6.734V7.124C37.8423 6.556 38.3461 6.272 38.905 6.272H38.9538C39.0683 6.269 39.1786 6.311 39.2571 6.39C39.3366 6.467 39.3801 6.572 39.3769 6.68C39.3801 6.786 39.3355 6.889 39.2518 6.961C39.1648 7.035 39.0513 7.074 38.9347 7.07H38.8859C38.5889 7.068 38.2962 7.142 38.0396 7.284C37.7798 7.429 37.5592 7.63 37.3959 7.869V10.628C37.398 10.738 37.3513 10.844 37.2665 10.919C37.1827 10.996 37.0703 11.038 36.9536 11.036C36.8359 11.036 36.7245 10.993 36.644 10.914Z" fill="#4A4A4A"/>
<path d="M40.4173 10.446C39.9771 10.026 39.7576 9.43499 39.7576 8.67298C39.7523 8.26498 39.8382 7.85998 40.0079 7.48498C40.1691 7.12798 40.4363 6.82198 40.7768 6.60498C41.1236 6.38098 41.5499 6.26898 42.0557 6.26998C42.4895 6.25898 42.9179 6.36798 43.287 6.58298C43.6285 6.78598 43.901 7.07498 44.076 7.41798C44.2574 7.77298 44.3496 8.16198 44.3454 8.55598C44.3496 8.66598 44.304 8.77298 44.2202 8.85098C44.1365 8.92898 44.023 8.96898 43.9053 8.96398H40.6442C40.693 9.38698 40.8605 9.71698 41.1448 9.95298C41.43 10.189 41.8235 10.307 42.3262 10.306C42.5637 10.311 42.8013 10.287 43.0335 10.237C43.2382 10.188 43.4365 10.119 43.6253 10.03C43.6794 10.005 43.7388 9.99299 43.7982 9.99399C43.8979 9.99299 43.9944 10.029 44.0675 10.094C44.1428 10.159 44.1853 10.251 44.1821 10.348C44.1821 10.481 44.0983 10.593 43.9318 10.683C43.4259 10.968 42.8416 11.105 42.2519 11.079C41.4693 11.077 40.8574 10.867 40.4173 10.446ZM43.4821 8.29198C43.4737 8.02798 43.3888 7.77098 43.2361 7.54898C43.1035 7.35898 42.919 7.20698 42.7016 7.10898C42.2954 6.92198 41.8193 6.92198 41.4131 7.10898C41.1967 7.20598 41.0133 7.35898 40.8849 7.54898C40.7354 7.77198 40.6516 8.02898 40.6431 8.29198H43.4821Z" fill="#4A4A4A"/>
<path d="M46.8631 10.681C46.3551 10.42 45.9383 10.026 45.6615 9.548C45.3677 9.055 45.2214 8.479 45.2214 7.819C45.2214 7.159 45.3677 6.583 45.6615 6.09C45.9383 5.611 46.3561 5.217 46.8631 4.956C47.3933 4.688 47.9883 4.552 48.5906 4.561C48.9862 4.556 49.3797 4.605 49.7593 4.706C50.1167 4.808 50.4614 4.947 50.7859 5.121C50.9227 5.187 51.0054 5.322 50.9969 5.467C50.9969 5.557 50.9588 5.643 50.8919 5.707C50.8188 5.778 50.717 5.816 50.613 5.811C50.5526 5.812 50.4942 5.8 50.4402 5.775C50.1772 5.643 49.8993 5.537 49.614 5.458C49.3097 5.381 48.9957 5.345 48.6808 5.35C48.1293 5.35 47.6595 5.457 47.2724 5.672C46.8917 5.877 46.5852 6.185 46.3922 6.557C46.0009 7.36 46.0009 8.284 46.3922 9.087C46.5841 9.456 46.8896 9.763 47.2682 9.967C47.6563 10.181 48.1261 10.289 48.6776 10.289C48.9926 10.294 49.3065 10.257 49.6108 10.18C49.8972 10.101 50.174 9.995 50.437 9.863C50.4911 9.838 50.5505 9.826 50.6098 9.827C50.7138 9.823 50.8145 9.859 50.8898 9.926C50.9588 9.991 50.9969 10.079 50.9959 10.171C51.0044 10.316 50.9216 10.451 50.7848 10.517C50.4603 10.691 50.1156 10.83 49.7583 10.932C49.3775 11.033 48.9841 11.082 48.5896 11.077C47.9861 11.085 47.3922 10.949 46.8631 10.681Z" fill="#4A4A4A"/>
<path d="M52.2642 10.914C52.1815 10.838 52.1369 10.732 52.139 10.624V4.73599C52.1369 4.62599 52.1815 4.51999 52.2642 4.44099C52.3437 4.36099 52.4551 4.31599 52.5717 4.31899C52.8146 4.31899 53.0119 4.50499 53.0119 4.73399V7.10099C53.2388 6.85999 53.505 6.65499 53.8009 6.49399C54.1074 6.33799 54.452 6.25999 54.8009 6.26899C55.1255 6.26099 55.4447 6.34299 55.7204 6.50499C55.9802 6.66199 56.187 6.88499 56.3164 7.14799C56.4564 7.42899 56.5275 7.73599 56.5232 8.04699V10.621C56.5253 10.731 56.4787 10.836 56.3938 10.911C56.3111 10.988 56.1976 11.03 56.081 11.029C55.9654 11.03 55.8551 10.988 55.7734 10.911C55.6918 10.834 55.6462 10.729 55.6483 10.621V8.13799C55.6483 7.39999 55.2951 7.03099 54.5899 7.03099C54.2845 7.02699 53.9843 7.10899 53.7288 7.26799C53.4551 7.44199 53.2133 7.65699 53.0119 7.90299V10.624C53.014 10.734 52.9673 10.839 52.8825 10.914C52.7987 10.991 52.6863 11.033 52.5696 11.032C52.4551 11.033 52.3448 10.99 52.2642 10.914Z" fill="#4A4A4A"/>
<path d="M58.464 10.916C58.2286 10.812 58.0303 10.646 57.8913 10.44C57.7482 10.224 57.675 9.97399 57.6803 9.71899C57.6676 9.29599 57.8786 8.89499 58.2434 8.64799C58.6178 8.38199 59.1682 8.24899 59.8925 8.24799H61.057V8.17999C61.057 7.78099 60.953 7.49399 60.7441 7.31899C60.5363 7.14399 60.2107 7.05599 59.7684 7.05499C59.551 7.05299 59.3326 7.07099 59.1183 7.10999C58.9052 7.15299 58.6952 7.20799 58.4884 7.27399C58.4481 7.28399 58.4057 7.28999 58.3633 7.29199C58.2689 7.29299 58.1777 7.25699 58.113 7.19199C58.043 7.12799 58.0048 7.03899 58.0069 6.94699C58.0006 6.79199 58.1024 6.65199 58.2572 6.60099C58.7832 6.38699 59.3485 6.27599 59.9212 6.27499C60.3613 6.27499 60.7346 6.35999 61.0421 6.52899C61.3295 6.68199 61.5639 6.90999 61.7155 7.18599C61.8619 7.45699 61.9372 7.75699 61.9361 8.06099V10.628C61.9372 10.737 61.8884 10.842 61.8046 10.916C61.7208 10.993 61.6084 11.035 61.4918 11.034C61.3762 11.035 61.2648 10.993 61.1842 10.916C61.1026 10.839 61.058 10.734 61.0591 10.625V10.389C60.584 10.85 59.9816 11.081 59.2509 11.081C58.9784 11.082 58.71 11.025 58.4651 10.914V10.916H58.464ZM60.392 10.156C60.6423 10.035 60.8661 9.86999 61.0517 9.67199V8.90699H60.0102C59.0409 8.90699 58.5573 9.14599 58.5584 9.62399C58.5499 9.82299 58.6358 10.016 58.7938 10.15C58.9508 10.284 59.2117 10.35 59.5776 10.349C59.8618 10.348 60.1417 10.282 60.392 10.156Z" fill="#4A4A4A"/>
<path d="M66 10.596C66 10.734 65.9141 10.858 65.7805 10.913C65.5302 11.022 65.2576 11.078 64.9819 11.077C64.0455 11.077 63.5767 10.678 63.5767 9.88001V7.06701H63.0189C62.9171 7.07001 62.8195 7.03301 62.7495 6.96401C62.6806 6.89701 62.6424 6.80701 62.6435 6.71401C62.6403 6.61901 62.6785 6.52701 62.7495 6.46001C62.8206 6.39301 62.9182 6.35701 63.0189 6.36001H63.5767V4.72801C63.582 4.56401 63.6892 4.41801 63.8504 4.35601C64.0116 4.29401 64.1961 4.32801 64.3212 4.44101C64.405 4.51501 64.4517 4.62001 64.4506 4.72801V6.36601H65.5387C65.6903 6.36701 65.8261 6.45201 65.8855 6.58401C65.9438 6.71601 65.9141 6.86701 65.8091 6.97001C65.7391 7.03901 65.6405 7.07701 65.5397 7.07301H64.4527V9.80901C64.4527 10.045 64.5132 10.194 64.6309 10.258C64.7688 10.326 64.9225 10.358 65.0774 10.353C65.2078 10.353 65.3372 10.334 65.4623 10.298L65.544 10.279C65.58 10.273 65.6182 10.27 65.6543 10.271C65.7444 10.271 65.8314 10.306 65.894 10.367C65.9618 10.425 66.0011 10.509 66 10.596Z" fill="#4A4A4A"/>
</g>
<defs>
<clipPath id="clip0">
<rect width="66" height="16" fill="white"/>
</clipPath>
</defs>
</svg>
