<svg width="66" height="16" viewBox="0 0 66 16" fill="none" xmlns="http://www.w3.org/2000/svg">
<g clip-path="url(#clip0)">
<path d="M16.9682 8C16.9682 5.765 13.5417 2.065 10.6232 0.612C9.85005 0.227 9.11299 0 8.48411 0C7.72478 0 6.80532 0.331 5.85616 0.873C4.93245 1.4 3.97905 2.126 3.11791 2.94C2.24617 3.76 1.46881 4.67 0.9078 5.551C0.344667 6.435 0 7.291 0 8C0 10.829 5.48392 16 8.48411 16C9.24238 16 10.1587 15.669 11.1068 15.13C12.0326 14.602 12.9881 13.874 13.8514 13.06C14.7199 12.241 15.4962 11.335 16.0562 10.456C16.6214 9.569 16.9682 8.711 16.9682 8Z" fill="#4A4A4A"/>
<path d="M10.5012 1.03399C9.77263 0.670995 9.07693 0.456995 8.4841 0.456995C7.76826 0.456995 6.90076 0.769995 6.00674 1.28099C6.84455 1.72699 7.68236 2.29399 8.49683 2.92599L10.5012 1.03399Z" fill="#8761B5"/>
<path d="M11.269 5.37399C10.4079 4.52699 9.47039 3.67899 8.49684 2.92399C7.68131 2.29199 6.84456 1.72599 6.00676 1.27899C5.13502 1.77699 4.23676 2.46099 3.42441 3.22799L8.48412 7.99999L11.269 5.37399Z" fill="#7CC7FC"/>
<path d="M16.4836 8C16.4836 5.892 13.2522 2.403 10.5012 1.034L8.49683 2.924C9.47038 3.679 10.4079 4.527 11.269 5.374L8.4841 8L11.1205 10.486L8.50743 12.95C9.78535 13.933 10.7525 14.586 10.9572 14.723C11.8311 14.225 12.7315 13.539 13.5449 12.772C14.3636 12 15.0953 11.145 15.6235 10.318C16.1569 9.48 16.4836 8.67 16.4836 8Z" fill="#F4D73B"/>
<path d="M11.1205 10.486L8.4841 8L3.42439 3.228C2.60356 4.002 1.86968 4.859 1.34048 5.69C3.032 8.452 6.25278 11.214 8.50744 12.95L11.1205 10.486Z" fill="#E8A03F"/>
<path d="M10.9572 14.723C10.7525 14.586 9.78535 13.934 8.50743 12.95C6.25278 11.214 3.03306 8.452 1.34154 5.69C0.809167 6.524 0.48465 7.332 0.48465 8C0.48465 10.667 5.65571 15.543 8.4841 15.543C9.19889 15.543 10.0643 15.232 10.9572 14.723Z" fill="#DE5A7C"/>
<path d="M19.4053 10.641C19.3257 10.61 19.2579 10.558 19.2091 10.491C19.0945 10.341 19.1094 10.136 19.243 10.001C19.3151 9.92599 19.4191 9.88399 19.5272 9.88799C19.5898 9.88699 19.6524 9.89999 19.7096 9.92399C20.3067 10.173 20.9526 10.3 21.6048 10.295C22.7268 10.295 23.2878 9.94699 23.2878 9.25199C23.291 9.07799 23.2125 8.91199 23.0715 8.79899C22.9156 8.67199 22.7342 8.57499 22.538 8.51299C22.3259 8.44299 22.0247 8.35999 21.6334 8.26299C21.206 8.16299 20.7861 8.04099 20.3735 7.89599C20.0585 7.78099 19.7754 7.6 19.5463 7.365C19.3194 7.127 19.2048 6.813 19.2048 6.422C19.2006 6.089 19.3003 5.763 19.4912 5.483C19.7011 5.187 19.997 4.955 20.3428 4.812C20.7182 4.646 21.1689 4.563 21.6949 4.563C22.3482 4.555 22.9983 4.657 23.6123 4.865C23.7809 4.912 23.8923 5.063 23.8817 5.228C23.8817 5.325 23.8435 5.418 23.7756 5.491C23.7067 5.569 23.6038 5.612 23.4967 5.608C23.4437 5.605 23.3917 5.593 23.343 5.572C22.8445 5.409 22.3217 5.327 21.7946 5.327C21.2877 5.327 20.8762 5.418 20.5591 5.599C20.242 5.78 20.0829 6.034 20.0829 6.36C20.0744 6.558 20.1561 6.74999 20.3056 6.888C20.4679 7.03099 20.662 7.139 20.873 7.205C21.1774 7.301 21.4871 7.381 21.801 7.446C22.2177 7.536 22.6271 7.65099 23.0269 7.79199C23.3355 7.90599 23.6102 8.08899 23.8255 8.32699C24.0461 8.56899 24.1564 8.89599 24.1574 9.30699C24.1606 9.63499 24.0524 9.95599 23.8467 10.221C23.625 10.502 23.3249 10.72 22.9803 10.852C22.5709 11.01 22.1329 11.087 21.6907 11.079C20.9038 11.083 20.1243 10.934 19.4021 10.641H19.4053Z" fill="white"/>
<path d="M25.3791 10.914C25.2964 10.838 25.2519 10.732 25.254 10.624V4.736C25.2519 4.626 25.2964 4.52 25.3791 4.441C25.4587 4.361 25.57 4.316 25.6867 4.319C25.9296 4.319 26.1268 4.505 26.1268 4.734V7.101C26.3538 6.861 26.62 6.657 26.9148 6.496C27.2213 6.339 27.5659 6.261 27.9148 6.269C28.2394 6.261 28.5586 6.343 28.8343 6.505C29.0941 6.662 29.3009 6.885 29.4303 7.149C29.5703 7.43 29.6414 7.737 29.6371 8.048V10.622C29.6392 10.732 29.5926 10.837 29.5067 10.912C29.424 10.989 29.3105 11.032 29.1938 11.03C29.0782 11.031 28.9669 10.989 28.8863 10.912C28.8046 10.835 28.7601 10.73 28.7622 10.621V8.138C28.7622 7.4 28.409 7.031 27.7038 7.031C27.3984 7.027 27.0982 7.109 26.8427 7.268C26.5701 7.442 26.3283 7.657 26.1258 7.903V10.624C26.1289 10.734 26.0833 10.839 25.9985 10.915C25.9147 10.992 25.8023 11.034 25.6856 11.032C25.5711 11.034 25.4597 10.991 25.3791 10.914Z" fill="white"/>
<path d="M31.5789 10.916C31.3445 10.812 31.1462 10.646 31.0073 10.44C30.8631 10.223 30.7888 9.97199 30.7941 9.71699C30.7814 9.29399 30.9924 8.89299 31.3573 8.64699C31.7327 8.38099 32.282 8.24799 33.0064 8.24699H34.1708V8.17799C34.1708 7.77899 34.0669 7.49199 33.8579 7.31699C33.6501 7.14199 33.3245 7.05399 32.8823 7.05299C32.6649 7.05099 32.4475 7.06899 32.2332 7.10799C32.0201 7.15099 31.809 7.20599 31.6022 7.27199C31.5619 7.28199 31.5195 7.28799 31.4771 7.28999C31.3827 7.29099 31.2915 7.25499 31.2268 7.18999C31.1568 7.12599 31.1186 7.03699 31.1218 6.94499C31.1144 6.78999 31.2162 6.64899 31.3721 6.59899C31.8981 6.38499 32.4634 6.27399 33.0361 6.27299C33.4762 6.27299 33.8495 6.35799 34.157 6.52699C34.4444 6.67999 34.6788 6.90799 34.8304 7.18399C34.9747 7.45499 35.05 7.75499 35.0478 8.05899V10.626C35.0489 10.736 35.0001 10.84 34.9142 10.914C34.8304 10.991 34.718 11.033 34.6014 11.032C34.4858 11.033 34.3755 10.99 34.2938 10.914C34.2122 10.837 34.1676 10.732 34.1687 10.624V10.388C33.6946 10.849 33.0923 11.08 32.3605 11.08C32.0901 11.081 31.8228 11.025 31.5789 10.915V10.916ZM33.508 10.156C33.7572 10.035 33.982 9.86999 34.1676 9.67199V8.90699H33.122C32.1537 8.90699 31.6701 9.14599 31.6701 9.62399C31.6606 9.82399 31.7465 10.018 31.9045 10.152C32.0614 10.285 32.3223 10.352 32.6882 10.351C32.9745 10.351 33.2556 10.284 33.508 10.156Z" fill="white"/>
<path d="M36.6439 10.914C36.5612 10.838 36.5167 10.732 36.5188 10.624V6.734C36.5167 6.624 36.5612 6.518 36.6439 6.439C36.7245 6.359 36.838 6.315 36.9547 6.319C37.1975 6.319 37.3948 6.505 37.3948 6.734V7.124C37.8423 6.556 38.3461 6.272 38.9049 6.272H38.9537C39.0683 6.269 39.1786 6.311 39.257 6.39C39.3366 6.467 39.3801 6.572 39.3769 6.68C39.3801 6.786 39.3355 6.889 39.2517 6.961C39.1648 7.035 39.0513 7.074 38.9346 7.07H38.8859C38.5889 7.068 38.2962 7.142 38.0396 7.284C37.7797 7.429 37.5591 7.63 37.3958 7.869V10.628C37.3979 10.738 37.3513 10.844 37.2664 10.919C37.1827 10.996 37.0702 11.038 36.9536 11.036C36.8359 11.036 36.7245 10.993 36.6439 10.914Z" fill="white"/>
<path d="M40.4172 10.446C39.9771 10.026 39.7576 9.435 39.7576 8.673C39.7523 8.265 39.8382 7.86 40.0079 7.485C40.1691 7.128 40.4363 6.822 40.7767 6.605C41.1235 6.381 41.5498 6.269 42.0557 6.27C42.4895 6.259 42.9179 6.368 43.287 6.583C43.6285 6.786 43.901 7.075 44.076 7.418C44.2573 7.773 44.3496 8.162 44.3454 8.556C44.3496 8.666 44.304 8.773 44.2202 8.851C44.1364 8.929 44.023 8.969 43.9052 8.964H40.6442C40.693 9.387 40.8605 9.717 41.1447 9.953C41.43 10.189 41.8235 10.307 42.3261 10.306C42.5637 10.311 42.8013 10.287 43.0335 10.237C43.2382 10.188 43.4365 10.119 43.6253 10.03C43.6794 10.005 43.7387 9.993 43.7981 9.994C43.8978 9.993 43.9943 10.029 44.0675 10.094C44.1428 10.159 44.1852 10.251 44.182 10.348C44.182 10.481 44.0983 10.593 43.9318 10.683C43.4259 10.968 42.8416 11.105 42.2519 11.079C41.4693 11.077 40.8573 10.867 40.4172 10.446ZM43.4821 8.292C43.4736 8.028 43.3888 7.771 43.2361 7.549C43.1035 7.359 42.919 7.207 42.7016 7.109C42.2954 6.922 41.8192 6.922 41.413 7.109C41.1967 7.206 41.0132 7.359 40.8849 7.549C40.7354 7.772 40.6516 8.029 40.6431 8.292H43.4821Z" fill="white"/>
<path d="M46.8631 10.681C46.3551 10.42 45.9383 10.026 45.6615 9.548C45.3677 9.055 45.2214 8.479 45.2214 7.819C45.2214 7.159 45.3677 6.583 45.6615 6.09C45.9383 5.611 46.3561 5.217 46.8631 4.956C47.3933 4.688 47.9883 4.552 48.5906 4.561C48.9862 4.556 49.3797 4.605 49.7593 4.706C50.1167 4.808 50.4614 4.947 50.7859 5.121C50.9227 5.187 51.0054 5.322 50.9969 5.467C50.9969 5.557 50.9588 5.643 50.8919 5.707C50.8188 5.778 50.717 5.816 50.613 5.811C50.5526 5.812 50.4942 5.8 50.4402 5.775C50.1772 5.643 49.8993 5.537 49.614 5.458C49.3097 5.381 48.9957 5.345 48.6808 5.35C48.1293 5.35 47.6595 5.457 47.2724 5.672C46.8917 5.877 46.5852 6.185 46.3922 6.557C46.0009 7.36 46.0009 8.284 46.3922 9.087C46.5841 9.456 46.8896 9.763 47.2682 9.967C47.6563 10.181 48.1261 10.289 48.6776 10.289C48.9926 10.294 49.3065 10.257 49.6108 10.18C49.8972 10.101 50.174 9.995 50.437 9.863C50.4911 9.838 50.5505 9.826 50.6098 9.827C50.7138 9.823 50.8145 9.859 50.8898 9.926C50.9588 9.991 50.9969 10.079 50.9959 10.171C51.0044 10.316 50.9216 10.451 50.7848 10.517C50.4603 10.691 50.1156 10.83 49.7583 10.932C49.3775 11.033 48.9841 11.082 48.5896 11.077C47.9861 11.085 47.3922 10.949 46.8631 10.681Z" fill="white"/>
<path d="M52.2642 10.914C52.1815 10.838 52.137 10.732 52.1391 10.624V4.736C52.137 4.626 52.1815 4.52 52.2642 4.441C52.3438 4.361 52.4551 4.316 52.5718 4.319C52.8146 4.319 53.0119 4.505 53.0119 4.734V7.101C53.2388 6.86 53.505 6.655 53.8009 6.494C54.1074 6.338 54.4521 6.26 54.801 6.269C55.1255 6.261 55.4447 6.343 55.7204 6.505C55.9803 6.662 56.1871 6.885 56.3165 7.148C56.4564 7.429 56.5275 7.736 56.5232 8.047V10.621C56.5254 10.731 56.4787 10.836 56.3939 10.911C56.3111 10.988 56.1977 11.03 56.081 11.029C55.9654 11.03 55.8551 10.988 55.7735 10.911C55.6918 10.834 55.6462 10.729 55.6483 10.621V8.138C55.6483 7.4 55.2952 7.031 54.5899 7.031C54.2845 7.027 53.9844 7.109 53.7288 7.268C53.4552 7.442 53.2134 7.657 53.0119 7.903V10.624C53.014 10.734 52.9673 10.839 52.8825 10.914C52.7987 10.991 52.6863 11.033 52.5696 11.032C52.4551 11.033 52.3448 10.99 52.2642 10.914Z" fill="white"/>
<path d="M58.464 10.916C58.2285 10.812 58.0302 10.646 57.8913 10.44C57.7481 10.224 57.675 9.974 57.6803 9.719C57.6675 9.296 57.8786 8.895 58.2434 8.648C58.6178 8.382 59.1682 8.249 59.8925 8.248H61.0569V8.18C61.0569 7.781 60.953 7.494 60.7441 7.319C60.5362 7.144 60.2106 7.056 59.7684 7.055C59.551 7.053 59.3325 7.071 59.1183 7.11C58.9052 7.153 58.6952 7.208 58.4884 7.274C58.4481 7.284 58.4057 7.29 58.3632 7.292C58.2688 7.293 58.1776 7.257 58.1129 7.192C58.043 7.128 58.0048 7.039 58.0069 6.947C58.0005 6.792 58.1023 6.652 58.2572 6.601C58.7832 6.387 59.3485 6.276 59.9211 6.275C60.3612 6.275 60.7345 6.36 61.0421 6.529C61.3295 6.682 61.5639 6.91 61.7155 7.186C61.8619 7.457 61.9372 7.757 61.9361 8.061V10.628C61.9372 10.737 61.8884 10.842 61.8046 10.916C61.7208 10.993 61.6084 11.035 61.4917 11.034C61.3762 11.035 61.2648 10.993 61.1842 10.916C61.1025 10.839 61.058 10.734 61.0591 10.625V10.389C60.5839 10.85 59.9816 11.081 59.2509 11.081C58.9783 11.082 58.71 11.025 58.465 10.914V10.916H58.464ZM60.392 10.156C60.6423 10.035 60.866 9.87 61.0516 9.672V8.907H60.0102C59.0409 8.907 58.5573 9.146 58.5584 9.624C58.5499 9.823 58.6358 10.016 58.7938 10.15C58.9508 10.284 59.2116 10.35 59.5775 10.349C59.8617 10.348 60.1417 10.282 60.392 10.156Z" fill="white"/>
<path d="M66 10.596C66 10.734 65.9141 10.858 65.7804 10.913C65.5302 11.022 65.2576 11.078 64.9819 11.077C64.0455 11.077 63.5767 10.678 63.5767 9.88001V7.06701H63.0189C62.9171 7.07001 62.8195 7.03301 62.7495 6.96401C62.6806 6.89701 62.6424 6.80701 62.6435 6.71401C62.6403 6.61901 62.6785 6.52701 62.7495 6.46001C62.8206 6.39301 62.9181 6.35701 63.0189 6.36001H63.5767V4.72801C63.582 4.56401 63.6891 4.41801 63.8503 4.35601C64.0115 4.29401 64.196 4.32801 64.3212 4.44101C64.405 4.51501 64.4516 4.62001 64.4506 4.72801V6.36601H65.5387C65.6903 6.36701 65.8261 6.45201 65.8854 6.58401C65.9438 6.71601 65.9141 6.86701 65.8091 6.97001C65.7391 7.03901 65.6405 7.07701 65.5397 7.07301H64.4527V9.80901C64.4527 10.045 64.5131 10.194 64.6309 10.258C64.7687 10.326 64.9225 10.358 65.0773 10.353C65.2078 10.353 65.3372 10.334 65.4623 10.298L65.544 10.279C65.58 10.273 65.6182 10.27 65.6542 10.271C65.7444 10.271 65.8314 10.306 65.8939 10.367C65.9618 10.425 66.001 10.509 66 10.596Z" fill="white"/>
</g>
<defs>
<clipPath id="clip0">
<rect width="66" height="16" fill="white"/>
</clipPath>
</defs>
</svg>
