<svg width="14" height="14" viewBox="0 0 14 14" fill="none" xmlns="http://www.w3.org/2000/svg">
<path d="M0.299072 13.7022L1.24572 10.2605C0.661856 9.25313 0.354547 8.11043 0.355096 6.93985C0.35647 3.2777 3.34992 0.298049 7.02801 0.298049C8.81282 0.298869 10.4883 0.990393 11.748 2.24602C13.0078 3.50137 13.7012 5.17043 13.7007 6.94531C13.699 10.6072 10.7056 13.5871 7.02801 13.5871C7.02774 13.5871 7.02801 13.5871 7.02801 13.5871H7.02499C5.90835 13.5866 4.81094 13.3079 3.83628 12.7786L0.299072 13.7022ZM4.00024 11.5763L4.20291 11.6957C5.05426 12.1989 6.03029 12.4649 7.02582 12.4655H7.02801C10.0846 12.4655 12.5728 9.98867 12.5741 6.94477C12.5747 5.46957 11.9985 4.08242 10.9514 3.03899C9.90419 1.99555 8.51183 1.42051 7.03021 1.41996C3.97085 1.41969 1.48299 3.89621 1.4819 6.94012C1.48135 7.98328 1.77465 8.9991 2.32967 9.87821L2.4615 10.0871L1.90098 12.1242L4.00024 11.5763Z" fill="white"/>
<path d="M0.299072 13.7022L1.24572 10.2605C0.661856 9.25313 0.354547 8.11043 0.355096 6.93985C0.35647 3.2777 3.34992 0.298049 7.02801 0.298049C8.81282 0.298869 10.4883 0.990393 11.748 2.24602C13.0078 3.50137 13.7012 5.17043 13.7007 6.94531C13.699 10.6072 10.7056 13.5871 7.02801 13.5871C7.02774 13.5871 7.02801 13.5871 7.02801 13.5871H7.02499C5.90835 13.5866 4.81094 13.3079 3.83628 12.7786L0.299072 13.7022ZM4.00024 11.5763L4.20291 11.6957C5.05426 12.1989 6.03029 12.4649 7.02582 12.4655H7.02801C10.0846 12.4655 12.5728 9.98867 12.5741 6.94477C12.5747 5.46957 11.9985 4.08242 10.9514 3.03899C9.90419 1.99555 8.51183 1.42051 7.03021 1.41996C3.97085 1.41969 1.48299 3.89621 1.4819 6.94012C1.48135 7.98328 1.77465 8.9991 2.32967 9.87821L2.4615 10.0871L1.90098 12.1242L4.00024 11.5763Z" fill="white"/>
<path fill-rule="evenodd" clip-rule="evenodd" d="M5.36019 4.16309C5.23524 3.88665 5.10369 3.88118 4.98505 3.87626C4.88783 3.87216 4.77661 3.87243 4.66566 3.87243C4.55443 3.87243 4.374 3.91399 4.22104 4.08024C4.06807 4.24622 3.63745 4.6479 3.63745 5.46466C3.63745 6.28169 4.23504 7.07083 4.31825 7.18157C4.40174 7.29231 5.47169 9.02208 7.16642 9.68735C8.57499 10.2405 8.86143 10.1303 9.16709 10.1027C9.47275 10.0751 10.1536 9.70102 10.2925 9.31356C10.4315 8.92583 10.4315 8.59387 10.3897 8.52415C10.348 8.45497 10.2368 8.41341 10.0701 8.33055C9.90337 8.2477 9.0836 7.84575 8.93091 7.79052C8.77794 7.73501 8.66699 7.70739 8.55577 7.87364C8.44454 8.03962 8.12515 8.41341 8.02793 8.52415C7.93071 8.63516 7.83322 8.64911 7.66652 8.56598C7.49982 8.48286 6.96265 8.30759 6.32579 7.74212C5.83008 7.30216 5.49559 6.75884 5.39809 6.59259C5.30087 6.42661 5.39644 6.34458 5.47142 6.2538C5.60626 6.09056 5.83255 5.79688 5.88803 5.68614C5.9435 5.5754 5.91577 5.47833 5.8743 5.3952C5.83255 5.31235 5.50849 4.49122 5.36019 4.16309Z" fill="white"/>
</svg>
