<svg width="71" height="28" viewBox="0 0 71 28" fill="none" xmlns="http://www.w3.org/2000/svg">
<g filter="url(#filter0_d)">
<rect x="3" y="1" width="65" height="22" rx="4" fill="#379C81"/>
<path d="M34.3516 13.8027C34.3516 13.4277 34.2188 13.1387 33.9531 12.9355C33.6914 12.7324 33.2168 12.5273 32.5293 12.3203C31.8418 12.1133 31.2949 11.8828 30.8887 11.6289C30.1113 11.1406 29.7227 10.5039 29.7227 9.71875C29.7227 9.03125 30.002 8.46484 30.5605 8.01953C31.123 7.57422 31.8516 7.35156 32.7461 7.35156C33.3398 7.35156 33.8691 7.46094 34.334 7.67969C34.7988 7.89844 35.1641 8.21094 35.4297 8.61719C35.6953 9.01953 35.8281 9.4668 35.8281 9.95898H34.3516C34.3516 9.51367 34.2109 9.16602 33.9297 8.91602C33.6523 8.66211 33.2539 8.53516 32.7344 8.53516C32.25 8.53516 31.873 8.63867 31.6035 8.8457C31.3379 9.05273 31.2051 9.3418 31.2051 9.71289C31.2051 10.0254 31.3496 10.2871 31.6387 10.498C31.9277 10.7051 32.4043 10.9082 33.0684 11.1074C33.7324 11.3027 34.2656 11.5273 34.668 11.7812C35.0703 12.0312 35.3652 12.3203 35.5527 12.6484C35.7402 12.9727 35.834 13.3535 35.834 13.791C35.834 14.502 35.5605 15.0684 35.0137 15.4902C34.4707 15.9082 33.7324 16.1172 32.7988 16.1172C32.1816 16.1172 31.6133 16.0039 31.0938 15.7773C30.5781 15.5469 30.1758 15.2305 29.8867 14.8281C29.6016 14.4258 29.459 13.957 29.459 13.4219H30.9414C30.9414 13.9062 31.1016 14.2812 31.4219 14.5469C31.7422 14.8125 32.2012 14.9453 32.7988 14.9453C33.3145 14.9453 33.7012 14.8418 33.959 14.6348C34.2207 14.4238 34.3516 14.1465 34.3516 13.8027ZM38.4004 10.3516C38.8652 9.8125 39.4531 9.54297 40.1641 9.54297C41.5156 9.54297 42.2012 10.3145 42.2207 11.8574V16H40.7969V11.9102C40.7969 11.4727 40.7012 11.1641 40.5098 10.9844C40.3223 10.8008 40.0449 10.709 39.6777 10.709C39.1074 10.709 38.6816 10.9629 38.4004 11.4707V16H36.9766V7H38.4004V10.3516ZM47.4531 16C47.3906 15.8789 47.3359 15.6816 47.2891 15.4082C46.8359 15.8809 46.2812 16.1172 45.625 16.1172C44.9883 16.1172 44.4688 15.9355 44.0664 15.5723C43.6641 15.209 43.4629 14.7598 43.4629 14.2246C43.4629 13.5488 43.7129 13.0312 44.2129 12.6719C44.7168 12.3086 45.4355 12.127 46.3691 12.127H47.2422V11.7109C47.2422 11.3828 47.1504 11.1211 46.9668 10.9258C46.7832 10.7266 46.5039 10.627 46.1289 10.627C45.8047 10.627 45.5391 10.709 45.332 10.873C45.125 11.0332 45.0215 11.2383 45.0215 11.4883H43.5977C43.5977 11.1406 43.7129 10.8164 43.9434 10.5156C44.1738 10.2109 44.4863 9.97266 44.8809 9.80078C45.2793 9.62891 45.7227 9.54297 46.2109 9.54297C46.9531 9.54297 47.5449 9.73047 47.9863 10.1055C48.4277 10.4766 48.6543 11 48.666 11.6758V14.5352C48.666 15.1055 48.7461 15.5605 48.9062 15.9004V16H47.4531ZM45.8887 14.9746C46.1699 14.9746 46.4336 14.9062 46.6797 14.7695C46.9297 14.6328 47.1172 14.4492 47.2422 14.2188V13.0234H46.4746C45.9473 13.0234 45.5508 13.1152 45.2852 13.2988C45.0195 13.4824 44.8867 13.7422 44.8867 14.0781C44.8867 14.3516 44.9766 14.5703 45.1562 14.7344C45.3398 14.8945 45.584 14.9746 45.8887 14.9746ZM53.4766 10.9609C53.2891 10.9297 53.0957 10.9141 52.8965 10.9141C52.2441 10.9141 51.8047 11.1641 51.5781 11.6641V16H50.1543V9.66016H51.5137L51.5488 10.3691C51.8926 9.81836 52.3691 9.54297 52.9785 9.54297C53.1816 9.54297 53.3496 9.57031 53.4824 9.625L53.4766 10.9609ZM57.0508 16.1172C56.1484 16.1172 55.416 15.834 54.8535 15.2676C54.2949 14.6973 54.0156 13.9395 54.0156 12.9941V12.8184C54.0156 12.1855 54.1367 11.6211 54.3789 11.125C54.625 10.625 54.9688 10.2363 55.4102 9.95898C55.8516 9.68164 56.3438 9.54297 56.8867 9.54297C57.75 9.54297 58.416 9.81836 58.8848 10.3691C59.3574 10.9199 59.5938 11.6992 59.5938 12.707V13.2812H55.4512C55.4941 13.8047 55.668 14.2188 55.9727 14.5234C56.2812 14.8281 56.668 14.9805 57.1328 14.9805C57.7852 14.9805 58.3164 14.7168 58.7266 14.1895L59.4941 14.9219C59.2402 15.3008 58.9004 15.5957 58.4746 15.8066C58.0527 16.0137 57.5781 16.1172 57.0508 16.1172ZM56.8809 10.6855C56.4902 10.6855 56.1738 10.8223 55.9316 11.0957C55.6934 11.3691 55.541 11.75 55.4746 12.2383H58.1875V12.1328C58.1562 11.6562 58.0293 11.2969 57.8066 11.0547C57.584 10.8086 57.2754 10.6855 56.8809 10.6855Z" fill="white"/>
<path d="M11.2991 18.7022L12.2457 15.2605C11.6619 14.2531 11.3545 13.1104 11.3551 11.9398C11.3565 8.2777 14.3499 5.29805 18.028 5.29805C19.8128 5.29887 21.4883 5.99039 22.748 7.24602C24.0078 8.50137 24.7012 10.1704 24.7007 11.9453C24.699 15.6072 21.7056 18.5871 18.028 18.5871C18.0277 18.5871 18.028 18.5871 18.028 18.5871H18.025C16.9084 18.5866 15.8109 18.3079 14.8363 17.7786L11.2991 18.7022ZM15.0002 16.5763L15.2029 16.6957C16.0543 17.1989 17.0303 17.4649 18.0258 17.4655H18.028C21.0846 17.4655 23.5728 14.9887 23.5741 11.9448C23.5747 10.4696 22.9985 9.08242 21.9514 8.03899C20.9042 6.99555 19.5118 6.42051 18.0302 6.41996C14.9709 6.41969 12.483 8.89621 12.4819 11.9401C12.4813 12.9833 12.7746 13.9991 13.3297 14.8782L13.4615 15.0871L12.901 17.1242L15.0002 16.5763Z" fill="white"/>
<path d="M11.2991 18.7022L12.2457 15.2605C11.6619 14.2531 11.3545 13.1104 11.3551 11.9398C11.3565 8.2777 14.3499 5.29805 18.028 5.29805C19.8128 5.29887 21.4883 5.99039 22.748 7.24602C24.0078 8.50137 24.7012 10.1704 24.7007 11.9453C24.699 15.6072 21.7056 18.5871 18.028 18.5871C18.0277 18.5871 18.028 18.5871 18.028 18.5871H18.025C16.9084 18.5866 15.8109 18.3079 14.8363 17.7786L11.2991 18.7022ZM15.0002 16.5763L15.2029 16.6957C16.0543 17.1989 17.0303 17.4649 18.0258 17.4655H18.028C21.0846 17.4655 23.5728 14.9887 23.5741 11.9448C23.5747 10.4696 22.9985 9.08242 21.9514 8.03899C20.9042 6.99555 19.5118 6.42051 18.0302 6.41996C14.9709 6.41969 12.483 8.89621 12.4819 11.9401C12.4813 12.9833 12.7746 13.9991 13.3297 14.8782L13.4615 15.0871L12.901 17.1242L15.0002 16.5763Z" fill="white"/>
<path fill-rule="evenodd" clip-rule="evenodd" d="M16.3602 9.16309C16.2352 8.88665 16.1037 8.88118 15.9851 8.87626C15.8878 8.87216 15.7766 8.87243 15.6657 8.87243C15.5544 8.87243 15.374 8.91399 15.221 9.08024C15.0681 9.24622 14.6375 9.6479 14.6375 10.4647C14.6375 11.2817 15.235 12.0708 15.3183 12.1816C15.4017 12.2923 16.4717 14.0221 18.1664 14.6874C19.575 15.2405 19.8614 15.1303 20.1671 15.1027C20.4728 15.0751 21.1536 14.701 21.2925 14.3136C21.4315 13.9258 21.4315 13.5939 21.3897 13.5241C21.348 13.455 21.2368 13.4134 21.0701 13.3306C20.9034 13.2477 20.0836 12.8458 19.9309 12.7905C19.7779 12.735 19.667 12.7074 19.5558 12.8736C19.4445 13.0396 19.1252 13.4134 19.0279 13.5241C18.9307 13.6352 18.8332 13.6491 18.6665 13.566C18.4998 13.4829 17.9626 13.3076 17.3258 12.7421C16.8301 12.3022 16.4956 11.7588 16.3981 11.5926C16.3009 11.4266 16.3964 11.3446 16.4714 11.2538C16.6063 11.0906 16.8326 10.7969 16.888 10.6861C16.9435 10.5754 16.9158 10.4783 16.8743 10.3952C16.8326 10.3124 16.5085 9.49122 16.3602 9.16309Z" fill="white"/>
</g>
<defs>
<filter id="filter0_d" x="0" y="0" width="71" height="28" filterUnits="userSpaceOnUse" color-interpolation-filters="sRGB">
<feFlood flood-opacity="0" result="BackgroundImageFix"/>
<feColorMatrix in="SourceAlpha" type="matrix" values="0 0 0 0 0 0 0 0 0 0 0 0 0 0 0 0 0 0 127 0"/>
<feOffset dy="2"/>
<feGaussianBlur stdDeviation="1.5"/>
<feColorMatrix type="matrix" values="0 0 0 0 0 0 0 0 0 0 0 0 0 0 0 0 0 0 0.25 0"/>
<feBlend mode="normal" in2="BackgroundImageFix" result="effect1_dropShadow"/>
<feBlend mode="normal" in="SourceGraphic" in2="effect1_dropShadow" result="shape"/>
</filter>
</defs>
</svg>
